<svg version="1.1" xmlns="http://www.w3.org/2000/svg" xmlns:xlink="http://www.w3.org/1999/xlink" width="131.36018" height="234.12619" viewBox="0,0,131.36018,234.12619"><g transform="translate(-238.75,-288.75)"><g data-paper-data="{&quot;isPaintingLayer&quot;:true}" fill-rule="nonzero" stroke-linecap="butt" stroke-linejoin="miter" stroke-miterlimit="10" stroke-dasharray="" stroke-dashoffset="0" style="mix-blend-mode: normal"><path d="M240,521.62619v-231.62619h128.86018v231.62619z" fill-opacity="0.30196" fill="#000000" stroke="#ffffff" stroke-width="2.5"/><path d="M270.64206,430.35009h-2.46008v-21.86731h2.46008v9.68843h17.46348v-9.68843h2.49045v21.86731h-2.49045v-9.68843h-17.46348zM311.79512,430.35009h-14.27449v0c-1.01238,0 -1.87796,-0.3594 -2.59674,-1.07818v0v0c-0.71878,-0.71878 -1.07818,-1.58436 -1.07818,-2.59674v0v-10.26549v0c0,-1.01238 0.3594,-1.87796 1.07818,-2.59674v0v0c0.71878,-0.71878 1.58436,-1.07818 2.59674,-1.07818v0h10.5692v0c1.03262,0 1.90834,0.3594 2.62711,1.07818v0v0c0.71878,0.71878 1.07818,1.58436 1.07818,2.59674v0v6.37796h-15.45897v3.88752v0c0,0.32396 0.11643,0.60236 0.34927,0.8352v0v0c0.23284,0.23284 0.51126,0.34927 0.8352,0.34927v0h14.27449zM296.33615,416.40969v3.88752h12.93815v-3.88752v0c0,-0.32396 -0.11643,-0.60236 -0.34927,-0.8352v0v0c-0.23284,-0.23284 -0.51126,-0.34927 -0.8352,-0.34927v0h-10.5692v0c-0.32396,0 -0.60236,0.11643 -0.8352,0.34927v0v0c-0.23284,0.23284 -0.34927,0.51126 -0.34927,0.8352zM320.93687,430.35009h-2.97638v0c-1.01238,0 -1.87796,-0.3594 -2.59674,-1.07818v0v0c-0.71878,-0.71878 -1.07818,-1.58436 -1.07818,-2.59674v0v-19.71094h2.49045v19.71094v0c0,0.32396 0.11643,0.60236 0.34927,0.8352v0v0c0.23284,0.23284 0.51126,0.34927 0.8352,0.34927v0h2.97638zM340.67818,430.35009h-14.24412v0c-1.03262,0 -1.90834,-0.3594 -2.62711,-1.07818v0v0c-0.71878,-0.71878 -1.07818,-1.58436 -1.07818,-2.59674v0v-10.26549v0c0,-1.01238 0.3594,-1.87796 1.07818,-2.59674v0v0c0.71878,-0.71878 1.59449,-1.07818 2.62711,-1.07818v0h11.75368v-5.77054h2.49045zM326.43407,427.85966v0h10.5692v0c0.32396,0 0.60236,-0.11643 0.8352,-0.34927v0v0c0.23284,-0.23284 0.34927,-0.51126 0.34927,-0.8352v0v-10.26549v0c0,-0.32396 -0.11643,-0.60236 -0.34927,-0.8352v0v0c-0.23284,-0.23284 -0.51126,-0.34927 -0.8352,-0.34927v0h-10.5692v0c-0.32396,0 -0.60236,0.11643 -0.8352,0.34927v0v0c-0.23284,0.23284 -0.34927,0.51126 -0.34927,0.8352v0v10.26549v0c0,0.32396 0.11643,0.60236 0.34927,0.8352v0v0c0.23284,0.23284 0.51126,0.34927 0.8352,0.34927z" fill="#ffffff" stroke="none" stroke-width="1"/><path d="M269.1749,328.93507h-2.4129v-21.44803h3.30657l15.72855,18.70744v-18.70744h2.4129v21.44803h-3.30657l-15.72855,-18.70744zM309.00269,328.93507h-14.00079v0c-0.99297,0 -1.84195,-0.35251 -2.54695,-1.05751v0v0c-0.705,-0.705 -1.05751,-1.55398 -1.05751,-2.54695v0v-10.06866v0c0,-0.99297 0.35251,-1.84195 1.05751,-2.54695v0v0c0.705,-0.705 1.55398,-1.05751 2.54695,-1.05751v0h10.36655v0c1.01282,0 1.87174,0.35251 2.57674,1.05751v0v0c0.705,0.705 1.05751,1.55398 1.05751,2.54695v0v6.25567h-15.16256v3.81298v0c0,0.31774 0.1142,0.59082 0.34257,0.8192v0v0c0.22838,0.22838 0.50145,0.34257 0.8192,0.34257v0h14.00079zM293.84013,315.26195v3.81298h12.69008v-3.81298v0c0,-0.31774 -0.1142,-0.59082 -0.34257,-0.8192v0v0c-0.22838,-0.22838 -0.50145,-0.34257 -0.8192,-0.34257v0h-10.36655v0c-0.31774,0 -0.59082,0.1142 -0.8192,0.34257v0v0c-0.22838,0.22838 -0.34257,0.50145 -0.34257,0.8192zM314.57322,328.93507h-3.2172v-0.02979l7.20892,-8.75794l-7.20892,-8.46005v-0.02979h3.2172l5.60032,6.55356l5.63011,-6.55356h3.18741v0.02979l-7.20892,8.46005l7.23871,8.75794v0.02979h-3.2172l-5.63011,-6.91103zM342.09818,328.93507h-6.31525v0c-1.01282,0 -1.86677,-0.35251 -2.56185,-1.05751v0v0c-0.69508,-0.705 -1.04261,-1.55398 -1.04261,-2.54695v0v-19.33301h2.44269v5.6599h7.47702v2.44269h-7.47702v11.23042v0c0,0.31774 0.1142,0.59082 0.34257,0.8192v0v0c0.22838,0.22838 0.50145,0.34257 0.8192,0.34257v0h6.31525z" fill="#ffffff" stroke="none" stroke-width="1"/></g></g></svg>