<svg version="1.1" xmlns="http://www.w3.org/2000/svg" xmlns:xlink="http://www.w3.org/1999/xlink" width="103" height="103" viewBox="0,0,103,103"><g transform="translate(-188.5,-238.5)"><g data-paper-data="{&quot;isPaintingLayer&quot;:true}" fill-rule="nonzero" stroke-linejoin="miter" stroke-dasharray="" stroke-dashoffset="0" style="mix-blend-mode: normal"><path d="M195.598,241.5h88.804c2.262,0 4.098,1.836 4.098,4.098v88.804c0,2.262 -1.836,4.098 -4.098,4.098h-88.804c-2.262,0 -4.098,-1.836 -4.098,-4.098v-88.804c0,-2.262 1.836,-4.098 4.098,-4.098z" fill="#d0d0d0" stroke="none" stroke-width="1" stroke-linecap="butt" stroke-miterlimit="10"/><path d="M195.598,241.5h88.804c2.262,0 4.098,1.836 4.098,4.098v88.804c0,2.262 -1.836,4.098 -4.098,4.098h-88.804c-2.262,0 -4.098,-1.836 -4.098,-4.098v-88.804c0,-2.262 1.836,-4.098 4.098,-4.098z" fill="none" stroke="#8c8c8c" stroke-width="6" stroke-linecap="square" stroke-miterlimit="2"/><path d="M197.888,253.418c4.97,-6.472 68.299,-5.968 76.742,0.925c9.13,7.454 8.206,45.71 2.774,53.627c-5.432,7.917 -11.731,19.07 -25.889,17.567c-7.777,-0.825 -25.233,-13.475 -29.587,-13.869c-14.043,-1.271 -6.819,23.635 -19.417,16.643c-3.73,-2.07 -6.292,-72.719 -4.623,-74.893z" fill="#bbbbbb" stroke="none" stroke-width="1" stroke-linecap="butt" stroke-miterlimit="10"/><path d="M203.435,258.041c4.02,-5.235 59.882,-2.61 66.711,2.965c7.385,6.03 4.393,36.973 0,43.376c-4.394,6.404 -9.489,15.425 -20.94,14.21c-6.291,-0.668 -20.425,-10.764 -23.932,-11.218c-18.602,-2.409 -12.675,18.058 -19.989,14.465c-3.097,-1.522 -3.2,-62.04 -1.85,-63.798z" fill="#a6a6a6" stroke="none" stroke-width="1" stroke-linecap="butt" stroke-miterlimit="10"/><path d="M210.566,264.261c3.205,-4.174 47.746,-2.081 53.191,2.365c5.889,4.807 3.504,29.48 0,34.586c-3.503,5.105 -7.565,12.298 -16.696,11.329c-5.016,-0.532 -16.286,-8.582 -19.082,-8.944c-14.833,-1.921 -15.013,9.087 -20.845,6.222c-2.47,-1.213 2.355,-44.156 3.432,-45.558z" fill="#8c8c8c" stroke="none" stroke-width="1" stroke-linecap="butt" stroke-miterlimit="10"/></g></g></svg>