<svg version="1.1" xmlns="http://www.w3.org/2000/svg" xmlns:xlink="http://www.w3.org/1999/xlink" width="359.5" height="168.5" viewBox="0,0,359.5,168.5"><g transform="translate(-60.25,-288.75)"><g data-paper-data="{&quot;isPaintingLayer&quot;:true}" fill-rule="nonzero" stroke-linecap="butt" stroke-linejoin="miter" stroke-miterlimit="10" stroke-dasharray="" stroke-dashoffset="0" style="mix-blend-mode: normal"><path d="M61.5,456v-166h357v166z" fill-opacity="0.8" fill="#000000" stroke="#ffffff" stroke-width="2.5"/><path d="M181.67,431.15h-2.46v-19.47v0c0,-1.02 0.35,-1.88 1.05,-2.58v0v0c0.7,-0.7 1.56,-1.05 2.58,-1.05v0h6.36v2.46h-6.36v0c-0.32,0 -0.595,0.115 -0.825,0.345v0v0c-0.23,0.23 -0.345,0.505 -0.345,0.825v0v2.07h7.53v2.46h-7.53zM205.79,431.15h-10.44v0c-1,0 -1.855,-0.355 -2.565,-1.065v0v0c-0.71,-0.71 -1.065,-1.565 -1.065,-2.565v0v-13.77h2.46v13.77v0c0,0.32 0.115,0.595 0.345,0.825v0v0c0.23,0.23 0.505,0.345 0.825,0.345v0h10.44v0c0.32,0 0.6,-0.115 0.84,-0.345v0v0c0.24,-0.23 0.36,-0.505 0.36,-0.825v0v-13.77h2.46v13.77v0c0,1 -0.355,1.855 -1.065,2.565v0v0c-0.71,0.71 -1.575,1.065 -2.595,1.065zM222.11,431.15h-6.36v0c-1.02,0 -1.88,-0.355 -2.58,-1.065v0v0c-0.7,-0.71 -1.05,-1.565 -1.05,-2.565v0v-19.47h2.46v5.7h7.53v2.46h-7.53v11.31v0c0,0.32 0.115,0.595 0.345,0.825v0v0c0.23,0.23 0.505,0.345 0.825,0.345v0h6.36zM238.49,431.15h-10.44v0c-1,0 -1.855,-0.355 -2.565,-1.065v0v0c-0.71,-0.71 -1.065,-1.565 -1.065,-2.565v0v-13.77h2.46v13.77v0c0,0.32 0.115,0.595 0.345,0.825v0v0c0.23,0.23 0.505,0.345 0.825,0.345v0h10.44v0c0.32,0 0.6,-0.115 0.84,-0.345v0v0c0.24,-0.23 0.36,-0.505 0.36,-0.825v0v-13.77h2.46v13.77v0c0,1 -0.355,1.855 -1.065,2.565v0v0c-0.71,0.71 -1.575,1.065 -2.595,1.065zM247.7,431.15h-2.46v-13.77v0c0,-1 0.355,-1.855 1.065,-2.565v0v0c0.71,-0.71 1.565,-1.065 2.565,-1.065v0h9.78v2.46h-9.78v0c-0.32,0 -0.595,0.115 -0.825,0.345v0v0c-0.23,0.23 -0.345,0.505 -0.345,0.825v0zM278.3,431.15h-14.1v0c-1,0 -1.855,-0.355 -2.565,-1.065v0v0c-0.71,-0.71 -1.065,-1.565 -1.065,-2.565v0v-10.14v0c0,-1 0.355,-1.855 1.065,-2.565v0v0c0.71,-0.71 1.565,-1.065 2.565,-1.065v0h10.44v0c1.02,0 1.885,0.355 2.595,1.065v0v0c0.71,0.71 1.065,1.565 1.065,2.565v0v6.3h-15.27v3.84v0c0,0.32 0.115,0.595 0.345,0.825v0v0c0.23,0.23 0.505,0.345 0.825,0.345v0h14.1zM263.03,417.38v3.84h12.78v-3.84v0c0,-0.32 -0.115,-0.595 -0.345,-0.825v0v0c-0.23,-0.23 -0.505,-0.345 -0.825,-0.345v0h-10.44v0c-0.32,0 -0.595,0.115 -0.825,0.345v0v0c-0.23,0.23 -0.345,0.505 -0.345,0.825zM295.31,431.15h-10.44v0c-1,0 -1.855,-0.355 -2.565,-1.065v0v0c-0.71,-0.71 -1.065,-1.565 -1.065,-2.565v0v-0.24h2.46v0.24v0c0,0.32 0.115,0.595 0.345,0.825v0v0c0.23,0.23 0.505,0.345 0.825,0.345v0h10.44v0c0.32,0 0.595,-0.115 0.825,-0.345v0v0c0.23,-0.23 0.345,-0.505 0.345,-0.825v0v-2.67v0c0,-0.32 -0.115,-0.595 -0.345,-0.825v0v0c-0.23,-0.23 -0.505,-0.345 -0.825,-0.345v0h-10.44v0c-1,0 -1.855,-0.355 -2.565,-1.065v0v0c-0.71,-0.71 -1.065,-1.565 -1.065,-2.565v0v-2.67v0c0,-1 0.355,-1.855 1.065,-2.565v0v0c0.71,-0.71 1.565,-1.065 2.565,-1.065v0h10.44v0c1.02,0 1.885,0.355 2.595,1.065v0v0c0.71,0.71 1.065,1.565 1.065,2.565v0v0.24h-2.49v-0.24v0c0,-0.32 -0.115,-0.595 -0.345,-0.825v0v0c-0.23,-0.23 -0.505,-0.345 -0.825,-0.345v0h-10.44v0c-0.32,0 -0.595,0.115 -0.825,0.345v0v0c-0.23,0.23 -0.345,0.505 -0.345,0.825v0v2.67v0c0,0.32 0.115,0.595 0.345,0.825v0v0c0.23,0.23 0.505,0.345 0.825,0.345v0h10.44v0c1.02,0 1.885,0.355 2.595,1.065v0v0c0.71,0.71 1.065,1.565 1.065,2.565v0v2.67v0c0,1 -0.355,1.855 -1.065,2.565v0v0c-0.71,0.71 -1.575,1.065 -2.595,1.065zM227.93,393.53h-10.44v0c-1,0 -1.855,-0.355 -2.565,-1.065v0v0c-0.71,-0.71 -1.065,-1.565 -1.065,-2.565v0v-0.24h2.46v0.24v0c0,0.32 0.115,0.595 0.345,0.825v0v0c0.23,0.23 0.505,0.345 0.825,0.345v0h10.44v0c0.32,0 0.595,-0.115 0.825,-0.345v0v0c0.23,-0.23 0.345,-0.505 0.345,-0.825v0v-2.67v0c0,-0.32 -0.115,-0.595 -0.345,-0.825v0v0c-0.23,-0.23 -0.505,-0.345 -0.825,-0.345v0h-10.44v0c-1,0 -1.855,-0.355 -2.565,-1.065v0v0c-0.71,-0.71 -1.065,-1.565 -1.065,-2.565v0v-2.67v0c0,-1 0.355,-1.855 1.065,-2.565v0v0c0.71,-0.71 1.565,-1.065 2.565,-1.065v0h10.44v0c1.02,0 1.885,0.355 2.595,1.065v0v0c0.71,0.71 1.065,1.565 1.065,2.565v0v0.24h-2.49v-0.24v0c0,-0.32 -0.115,-0.595 -0.345,-0.825v0v0c-0.23,-0.23 -0.505,-0.345 -0.825,-0.345v0h-10.44v0c-0.32,0 -0.595,0.115 -0.825,0.345v0v0c-0.23,0.23 -0.345,0.505 -0.345,0.825v0v2.67v0c0,0.32 0.115,0.595 0.345,0.825v0v0c0.23,0.23 0.505,0.345 0.825,0.345v0h10.44v0c1.02,0 1.885,0.355 2.595,1.065v0v0c0.71,0.71 1.065,1.565 1.065,2.565v0v2.67v0c0,1 -0.355,1.855 -1.065,2.565v0v0c-0.71,0.71 -1.575,1.065 -2.595,1.065zM248.06,393.53h-10.44v0c-1,0 -1.855,-0.355 -2.565,-1.065v0v0c-0.71,-0.71 -1.065,-1.565 -1.065,-2.565v0v-13.77h2.46v13.77v0c0,0.32 0.115,0.595 0.345,0.825v0v0c0.23,0.23 0.505,0.345 0.825,0.345v0h10.44v0c0.32,0 0.6,-0.115 0.84,-0.345v0v0c0.24,-0.23 0.36,-0.505 0.36,-0.825v0v-13.77h2.46v13.77v0c0,1 -0.355,1.855 -1.065,2.565v0v0c-0.71,0.71 -1.575,1.065 -2.595,1.065zM268.31,393.53h-10.44v0c-1,0 -1.855,-0.355 -2.565,-1.065v0v0c-0.71,-0.71 -1.065,-1.565 -1.065,-2.565v0v-0.24h2.46v0.24v0c0,0.32 0.115,0.595 0.345,0.825v0v0c0.23,0.23 0.505,0.345 0.825,0.345v0h10.44v0c0.32,0 0.595,-0.115 0.825,-0.345v0v0c0.23,-0.23 0.345,-0.505 0.345,-0.825v0v-2.67v0c0,-0.32 -0.115,-0.595 -0.345,-0.825v0v0c-0.23,-0.23 -0.505,-0.345 -0.825,-0.345v0h-10.44v0c-1,0 -1.855,-0.355 -2.565,-1.065v0v0c-0.71,-0.71 -1.065,-1.565 -1.065,-2.565v0v-2.67v0c0,-1 0.355,-1.855 1.065,-2.565v0v0c0.71,-0.71 1.565,-1.065 2.565,-1.065v0h10.44v0c1.02,0 1.885,0.355 2.595,1.065v0v0c0.71,0.71 1.065,1.565 1.065,2.565v0v0.24h-2.49v-0.24v0c0,-0.32 -0.115,-0.595 -0.345,-0.825v0v0c-0.23,-0.23 -0.505,-0.345 -0.825,-0.345v0h-10.44v0c-0.32,0 -0.595,0.115 -0.825,0.345v0v0c-0.23,0.23 -0.345,0.505 -0.345,0.825v0v2.67v0c0,0.32 0.115,0.595 0.345,0.825v0v0c0.23,0.23 0.505,0.345 0.825,0.345v0h10.44v0c1.02,0 1.885,0.355 2.595,1.065v0v0c0.71,0.71 1.065,1.565 1.065,2.565v0v2.67v0c0,1 -0.355,1.855 -1.065,2.565v0v0c-0.71,0.71 -1.575,1.065 -2.595,1.065zM284.96,393.53h-6.36v0c-1.02,0 -1.88,-0.355 -2.58,-1.065v0v0c-0.7,-0.71 -1.05,-1.565 -1.05,-2.565v0v-19.47h2.46v5.7h7.53v2.46h-7.53v11.31v0c0,0.32 0.115,0.595 0.345,0.825v0v0c0.23,0.23 0.505,0.345 0.825,0.345v0h6.36zM304.97,393.53h-14.1v0c-1,0 -1.855,-0.355 -2.565,-1.065v0v0c-0.71,-0.71 -1.065,-1.565 -1.065,-2.565v0v-6.3h15.24v-3.84v0c0,-0.32 -0.115,-0.595 -0.345,-0.825v0v0c-0.23,-0.23 -0.505,-0.345 -0.825,-0.345v0h-14.07v-2.46h14.07v0c1.02,0 1.885,0.355 2.595,1.065v0v0c0.71,0.71 1.065,1.565 1.065,2.565v0zM290.87,391.07v0h11.61v-5.01h-12.78v3.84v0c0,0.32 0.115,0.595 0.345,0.825v0v0c0.23,0.23 0.505,0.345 0.825,0.345zM310.52,393.53h-2.46v-17.4h2.46zM310.52,372.89h-2.46v-2.46h2.46zM316.37,393.53h-2.46v-17.4h14.1v0c1,0 1.855,0.355 2.565,1.065v0v0c0.71,0.71 1.065,1.565 1.065,2.565v0v13.77h-2.46v-13.77v0c0,-0.32 -0.115,-0.595 -0.345,-0.825v0v0c-0.23,-0.23 -0.505,-0.345 -0.825,-0.345v0h-10.44v0c-0.32,0 -0.6,0.115 -0.84,0.345v0v0c-0.24,0.23 -0.36,0.505 -0.36,0.825v0zM352.46,393.53h-14.1v0c-1,0 -1.855,-0.355 -2.565,-1.065v0v0c-0.71,-0.71 -1.065,-1.565 -1.065,-2.565v0v-6.3h15.24v-3.84v0c0,-0.32 -0.115,-0.595 -0.345,-0.825v0v0c-0.23,-0.23 -0.505,-0.345 -0.825,-0.345v0h-14.07v-2.46h14.07v0c1.02,0 1.885,0.355 2.595,1.065v0v0c0.71,0.71 1.065,1.565 1.065,2.565v0zM338.36,391.07v0h11.61v-5.01h-12.78v3.84v0c0,0.32 0.115,0.595 0.345,0.825v0v0c0.23,0.23 0.505,0.345 0.825,0.345zM368.96,393.53h-14.1v-23.1h2.46v5.7h11.64v0c1,0 1.855,0.355 2.565,1.065v0v0c0.71,0.71 1.065,1.565 1.065,2.565v0v10.14v0c0,1 -0.355,1.855 -1.065,2.565v0v0c-0.71,0.71 -1.565,1.065 -2.565,1.065zM358.52,391.07v0h10.44v0c0.32,0 0.595,-0.115 0.825,-0.345v0v0c0.23,-0.23 0.345,-0.505 0.345,-0.825v0v-10.14v0c0,-0.32 -0.115,-0.595 -0.345,-0.825v0v0c-0.23,-0.23 -0.505,-0.345 -0.825,-0.345v0h-10.44v0c-0.32,0 -0.6,0.115 -0.84,0.345v0v0c-0.24,0.23 -0.36,0.505 -0.36,0.825v0v10.14v0c0,0.32 0.12,0.595 0.36,0.825v0v0c0.24,0.23 0.52,0.345 0.84,0.345zM381.38,393.53h-2.94v0c-1,0 -1.855,-0.355 -2.565,-1.065v0v0c-0.71,-0.71 -1.065,-1.565 -1.065,-2.565v0v-19.47h2.46v19.47v0c0,0.32 0.115,0.595 0.345,0.825v0v0c0.23,0.23 0.505,0.345 0.825,0.345v0h2.94zM401.12,393.53h-14.1v0c-1,0 -1.855,-0.355 -2.565,-1.065v0v0c-0.71,-0.71 -1.065,-1.565 -1.065,-2.565v0v-10.14v0c0,-1 0.355,-1.855 1.065,-2.565v0v0c0.71,-0.71 1.565,-1.065 2.565,-1.065v0h10.44v0c1.02,0 1.885,0.355 2.595,1.065v0v0c0.71,0.71 1.065,1.565 1.065,2.565v0v6.3h-15.27v3.84v0c0,0.32 0.115,0.595 0.345,0.825v0v0c0.23,0.23 0.505,0.345 0.825,0.345v0h14.1zM385.85,379.76v3.84h12.78v-3.84v0c0,-0.32 -0.115,-0.595 -0.345,-0.825v0v0c-0.23,-0.23 -0.505,-0.345 -0.825,-0.345v0h-10.44v0c-0.32,0 -0.595,0.115 -0.825,0.345v0v0c-0.23,0.23 -0.345,0.505 -0.345,0.825zM95.6,393.53h-18v-21.6h17.07v0c1,0 1.85,0.35 2.55,1.05v0v0c0.7,0.7 1.05,1.55 1.05,2.55v0v4.59v0c0,0.28 -0.035,0.555 -0.105,0.825v0v0c-0.07,0.27 -0.165,0.525 -0.285,0.765v0v0c0.44,0.66 0.77,1.23 0.99,1.71v0v0c0.22,0.48 0.33,0.97 0.33,1.47v0v5.04v0c0,1 -0.35,1.85 -1.05,2.55v0v0c-0.7,0.7 -1.55,1.05 -2.55,1.05zM81.2,391.1v0h14.4v0c0.32,0 0.595,-0.115 0.825,-0.345v0v0c0.23,-0.23 0.345,-0.505 0.345,-0.825v0v-5.04v0c0,-0.32 -0.115,-0.595 -0.345,-0.825v0v0c-0.23,-0.23 -0.505,-0.345 -0.825,-0.345v0h-14.4v0c-0.32,0 -0.595,0.115 -0.825,0.345v0v0c-0.23,0.23 -0.345,0.505 -0.345,0.825v0v5.04v0c0,0.32 0.115,0.595 0.345,0.825v0v0c0.23,0.23 0.505,0.345 0.825,0.345zM81.2,381.29v0h13.47v0c0.32,0 0.59,-0.115 0.81,-0.345v0v0c0.22,-0.23 0.33,-0.505 0.33,-0.825v0v-4.59v0c0,-0.32 -0.11,-0.595 -0.33,-0.825v0v0c-0.22,-0.23 -0.49,-0.345 -0.81,-0.345v0h-13.47v0c-0.32,0 -0.595,0.115 -0.825,0.345v0v0c-0.23,0.23 -0.345,0.505 -0.345,0.825v0v4.59v0c0,0.32 0.115,0.595 0.345,0.825v0v0c0.23,0.23 0.505,0.345 0.825,0.345zM116.45,393.53h-10.44v0c-1,0 -1.855,-0.355 -2.565,-1.065v0v0c-0.71,-0.71 -1.065,-1.565 -1.065,-2.565v0v-13.77h2.46v13.77v0c0,0.32 0.115,0.595 0.345,0.825v0v0c0.23,0.23 0.505,0.345 0.825,0.345v0h10.44v0c0.32,0 0.6,-0.115 0.84,-0.345v0v0c0.24,-0.23 0.36,-0.505 0.36,-0.825v0v-13.77h2.46v13.77v0c0,1 -0.355,1.855 -1.065,2.565v0v0c-0.71,0.71 -1.575,1.065 -2.595,1.065zM125.66,393.53h-2.46v-17.4h2.46zM125.66,372.89h-2.46v-2.46h2.46zM136.01,393.53h-2.94v0c-1,0 -1.855,-0.355 -2.565,-1.065v0v0c-0.71,-0.71 -1.065,-1.565 -1.065,-2.565v0v-19.47h2.46v19.47v0c0,0.32 0.115,0.595 0.345,0.825v0v0c0.23,0.23 0.505,0.345 0.825,0.345v0h2.94zM155.51,393.53h-14.07v0c-1.02,0 -1.885,-0.355 -2.595,-1.065v0v0c-0.71,-0.71 -1.065,-1.565 -1.065,-2.565v0v-10.14v0c0,-1 0.355,-1.855 1.065,-2.565v0v0c0.71,-0.71 1.575,-1.065 2.595,-1.065v0h11.61v-5.7h2.46zM141.44,391.07v0h10.44v0c0.32,0 0.595,-0.115 0.825,-0.345v0v0c0.23,-0.23 0.345,-0.505 0.345,-0.825v0v-10.14v0c0,-0.32 -0.115,-0.595 -0.345,-0.825v0v0c-0.23,-0.23 -0.505,-0.345 -0.825,-0.345v0h-10.44v0c-0.32,0 -0.595,0.115 -0.825,0.345v0v0c-0.23,0.23 -0.345,0.505 -0.345,0.825v0v10.14v0c0,0.32 0.115,0.595 0.345,0.825v0v0c0.23,0.23 0.505,0.345 0.825,0.345zM161.12,393.53h-2.46v-17.4h2.46zM161.12,372.89h-2.46v-2.46h2.46zM166.97,393.53h-2.46v-17.4h14.1v0c1,0 1.855,0.355 2.565,1.065v0v0c0.71,0.71 1.065,1.565 1.065,2.565v0v13.77h-2.46v-13.77v0c0,-0.32 -0.115,-0.595 -0.345,-0.825v0v0c-0.23,-0.23 -0.505,-0.345 -0.825,-0.345v0h-10.44v0c-0.32,0 -0.6,0.115 -0.84,0.345v0v0c-0.24,0.23 -0.36,0.505 -0.36,0.825v0zM199.07,400.4h-10.86v-2.49h10.86v0c0.32,0 0.595,-0.115 0.825,-0.345v0v0c0.23,-0.23 0.345,-0.505 0.345,-0.825v0v-3.21h-11.61v0c-1,0 -1.855,-0.355 -2.565,-1.065v0v0c-0.71,-0.71 -1.065,-1.565 -1.065,-2.565v0v-10.14v0c0,-1 0.355,-1.855 1.065,-2.565v0v0c0.71,-0.71 1.565,-1.065 2.565,-1.065v0h10.44v0c1.02,0 1.88,0.355 2.58,1.065v0v0c0.7,0.71 1.05,1.565 1.05,2.565v0v16.98v0c0,1.02 -0.35,1.885 -1.05,2.595v0v0c-0.7,0.71 -1.56,1.065 -2.58,1.065zM188.63,391.07v0h10.44v0c0.32,0 0.595,-0.115 0.825,-0.345v0v0c0.23,-0.23 0.345,-0.505 0.345,-0.825v0v-10.14v0c0,-0.32 -0.115,-0.595 -0.345,-0.825v0v0c-0.23,-0.23 -0.505,-0.345 -0.825,-0.345v0h-10.44v0c-0.32,0 -0.595,0.115 -0.825,0.345v0v0c-0.23,0.23 -0.345,0.505 -0.345,0.825v0v10.14v0c0,0.32 0.115,0.595 0.345,0.825v0v0c0.23,0.23 0.505,0.345 0.825,0.345zM117.075,351.05h-32.85v-36h32.85v4.05h-28.8v11.9h23.15v4.1h-23.15v11.9h28.8zM158.325,351.05h-29.9v0c-1.66667,0 -3.08333,-0.58333 -4.25,-1.75v0v0c-1.16667,-1.16667 -1.75,-2.58333 -1.75,-4.25v0v-24v0c0,-1.66667 0.58333,-3.08333 1.75,-4.25v0v0c1.16667,-1.16667 2.58333,-1.75 4.25,-1.75v0h29.9v4.05h-29.9v0c-0.53333,0 -0.99167,0.19167 -1.375,0.575v0v0c-0.38333,0.38333 -0.575,0.84167 -0.575,1.375v0v24v0c0,0.53333 0.19167,0.99167 0.575,1.375v0v0c0.38333,0.38333 0.84167,0.575 1.375,0.575v0h29.9zM193.425,351.05h-24v0c-1.66667,0 -3.08333,-0.58333 -4.25,-1.75v0v0c-1.16667,-1.16667 -1.75,-2.58333 -1.75,-4.25v0v-24v0c0,-1.66667 0.58333,-3.08333 1.75,-4.25v0v0c1.16667,-1.16667 2.58333,-1.75 4.25,-1.75v0h24v0c1.66667,0 3.08333,0.58333 4.25,1.75v0v0c1.16667,1.16667 1.75,2.58333 1.75,4.25v0v24v0c0,1.66667 -0.58333,3.08333 -1.75,4.25v0v0c-1.16667,1.16667 -2.58333,1.75 -4.25,1.75zM169.425,347v0h24v0c0.53333,0 0.99167,-0.19167 1.375,-0.575v0v0c0.38333,-0.38333 0.575,-0.84167 0.575,-1.375v0v-24v0c0,-0.53333 -0.19167,-0.99167 -0.575,-1.375v0v0c-0.38333,-0.38333 -0.84167,-0.575 -1.375,-0.575v0h-24v0c-0.53333,0 -0.99167,0.19167 -1.375,0.575v0v0c-0.38333,0.38333 -0.575,0.84167 -0.575,1.375v0v24v0c0,0.53333 0.19167,0.99167 0.575,1.375v0v0c0.38333,0.38333 0.84167,0.575 1.375,0.575zM208.925,351.05h-4.1v-29h23.5v0c1.66667,0 3.09167,0.59167 4.275,1.775v0v0c1.18333,1.18333 1.775,2.60833 1.775,4.275v0v22.95h-4.1v-22.95v0c0,-0.53333 -0.19167,-0.99167 -0.575,-1.375v0v0c-0.38333,-0.38333 -0.84167,-0.575 -1.375,-0.575v0h-17.4v0c-0.53333,0 -1,0.19167 -1.4,0.575v0v0c-0.4,0.38333 -0.6,0.84167 -0.6,1.375v0zM268.025,351.05h-23.5v0c-1.66667,0 -3.09167,-0.59167 -4.275,-1.775v0v0c-1.18333,-1.18333 -1.775,-2.60833 -1.775,-4.275v0v-16.9v0c0,-1.66667 0.59167,-3.09167 1.775,-4.275v0v0c1.18333,-1.18333 2.60833,-1.775 4.275,-1.775v0h23.4v4.1h-23.4v0c-0.53333,0 -0.99167,0.19167 -1.375,0.575v0v0c-0.38333,0.38333 -0.575,0.84167 -0.575,1.375v0v16.9v0c0,0.53333 0.19167,0.99167 0.575,1.375v0v0c0.38333,0.38333 0.84167,0.575 1.375,0.575v0h23.5zM277.375,351.05h-4.1v-22.95v0c0,-1.66667 0.59167,-3.09167 1.775,-4.275v0v0c1.18333,-1.18333 2.60833,-1.775 4.275,-1.775v0h16.3v4.1h-16.3v0c-0.53333,0 -0.99167,0.19167 -1.375,0.575v0v0c-0.38333,0.38333 -0.575,0.84167 -0.575,1.375v0zM328.375,351.05h-23.5v0c-1.66667,0 -3.09167,-0.59167 -4.275,-1.775v0v0c-1.18333,-1.18333 -1.775,-2.60833 -1.775,-4.275v0v-16.9v0c0,-1.66667 0.59167,-3.09167 1.775,-4.275v0v0c1.18333,-1.18333 2.60833,-1.775 4.275,-1.775v0h17.4v0c1.7,0 3.14167,0.59167 4.325,1.775v0v0c1.18333,1.18333 1.775,2.60833 1.775,4.275v0v10.5h-25.45v6.4v0c0,0.53333 0.19167,0.99167 0.575,1.375v0v0c0.38333,0.38333 0.84167,0.575 1.375,0.575v0h23.5zM302.925,328.1v6.4h21.3v-6.4v0c0,-0.53333 -0.19167,-0.99167 -0.575,-1.375v0v0c-0.38333,-0.38333 -0.84167,-0.575 -1.375,-0.575v0h-17.4v0c-0.53333,0 -0.99167,0.19167 -1.375,0.575v0v0c-0.38333,0.38333 -0.575,0.84167 -0.575,1.375zM350.175,351.05h-10.6v0c-1.7,0 -3.13333,-0.59167 -4.3,-1.775v0v0c-1.16667,-1.18333 -1.75,-2.60833 -1.75,-4.275v0v-32.45h4.1v9.5h12.55v4.1h-12.55v18.85v0c0,0.53333 0.19167,0.99167 0.575,1.375v0v0c0.38333,0.38333 0.84167,0.575 1.375,0.575v0h10.6zM383.475,351.05h-23.5v0c-1.66667,0 -3.09167,-0.59167 -4.275,-1.775v0v0c-1.18333,-1.18333 -1.775,-2.60833 -1.775,-4.275v0v-16.9v0c0,-1.66667 0.59167,-3.09167 1.775,-4.275v0v0c1.18333,-1.18333 2.60833,-1.775 4.275,-1.775v0h17.4v0c1.7,0 3.14167,0.59167 4.325,1.775v0v0c1.18333,1.18333 1.775,2.60833 1.775,4.275v0v10.5h-25.45v6.4v0c0,0.53333 0.19167,0.99167 0.575,1.375v0v0c0.38333,0.38333 0.84167,0.575 1.375,0.575v0h23.5zM358.025,328.1v6.4h21.3v-6.4v0c0,-0.53333 -0.19167,-0.99167 -0.575,-1.375v0v0c-0.38333,-0.38333 -0.84167,-0.575 -1.375,-0.575v0h-17.4v0c-0.53333,0 -0.99167,0.19167 -1.375,0.575v0v0c-0.38333,0.38333 -0.575,0.84167 -0.575,1.375zM392.775,325.75h-4.1v-4.1h4.1zM392.775,351.05h-4.1v-4.1h4.1z" fill="#ffffff" stroke="none" stroke-width="1"/></g></g></svg>