<svg version="1.1" xmlns="http://www.w3.org/2000/svg" xmlns:xlink="http://www.w3.org/1999/xlink" width="103" height="103" viewBox="0,0,103,103"><g transform="translate(-188.5,-238.5)"><g data-paper-data="{&quot;isPaintingLayer&quot;:true}" fill-rule="nonzero" stroke-linejoin="miter" stroke-dasharray="" stroke-dashoffset="0" style="mix-blend-mode: normal"><path d="M195.598,241.5h88.804c2.262,0 4.098,1.836 4.098,4.098v88.804c0,2.262 -1.836,4.098 -4.098,4.098h-88.804c-2.262,0 -4.098,-1.836 -4.098,-4.098v-88.804c0,-2.262 1.836,-4.098 4.098,-4.098z" fill="#ff00ea" stroke="none" stroke-width="1" stroke-linecap="butt" stroke-miterlimit="10"/><path d="M195.598,241.5h88.804c2.262,0 4.098,1.836 4.098,4.098v88.804c0,2.262 -1.836,4.098 -4.098,4.098h-88.804c-2.262,0 -4.098,-1.836 -4.098,-4.098v-88.804c0,-2.262 1.836,-4.098 4.098,-4.098z" fill="none" stroke="#000000" stroke-width="6" stroke-linecap="square" stroke-miterlimit="2"/><path d="M193.33018,290v-46.66982h46.66982v46.66982z" fill="#000000" stroke="none" stroke-width="0" stroke-linecap="butt" stroke-miterlimit="10"/><path d="M240,336.66981v-46.66981h46.66981v46.66981z" fill="#000000" stroke="none" stroke-width="0" stroke-linecap="butt" stroke-miterlimit="10"/></g></g></svg>