<svg version="1.1" xmlns="http://www.w3.org/2000/svg" xmlns:xlink="http://www.w3.org/1999/xlink" width="389.966" height="304.824" viewBox="0,0,389.966,304.824"><g transform="translate(-45.017,-137.588)"><g data-paper-data="{&quot;isPaintingLayer&quot;:true}" fill-rule="nonzero" stroke-linejoin="miter" stroke-dasharray="" stroke-dashoffset="0" style="mix-blend-mode: normal"><path d="M46.267,441.162v-302.324h387.466v302.324z" fill-opacity="0.8" fill="#000000" stroke="#ffffff" stroke-width="2.5" stroke-linecap="butt" stroke-miterlimit="10"/><g><path d="M66.865,153.388h88.804c2.262,0 4.098,1.836 4.098,4.098v88.804c0,2.262 -1.836,4.098 -4.098,4.098h-88.804c-2.262,0 -4.098,-1.836 -4.098,-4.098v-88.804c0,-2.262 1.836,-4.098 4.098,-4.098z" fill="#d0d0d0" stroke="none" stroke-width="1" stroke-linecap="butt" stroke-miterlimit="10"/><path d="M66.865,153.388h88.804c2.262,0 4.098,1.836 4.098,4.098v88.804c0,2.262 -1.836,4.098 -4.098,4.098h-88.804c-2.262,0 -4.098,-1.836 -4.098,-4.098v-88.804c0,-2.262 1.836,-4.098 4.098,-4.098z" fill="none" stroke="#000000" stroke-width="6" stroke-linecap="square" stroke-miterlimit="2"/><path d="M69.155,165.306c4.97,-6.472 68.299,-5.968 76.742,0.925c9.13,7.454 8.206,45.71 2.774,53.627c-5.432,7.917 -11.731,19.07 -25.889,17.567c-7.777,-0.825 -25.233,-13.475 -29.587,-13.869c-14.043,-1.271 -6.819,23.635 -19.417,16.643c-3.73,-2.07 -6.292,-72.719 -4.623,-74.893z" fill="#bbbbbb" stroke="none" stroke-width="1" stroke-linecap="butt" stroke-miterlimit="10"/><path d="M74.702,169.929c4.02,-5.235 59.882,-2.61 66.711,2.965c7.385,6.03 4.393,36.973 0,43.376c-4.394,6.404 -9.489,15.425 -20.94,14.21c-6.291,-0.668 -20.425,-10.764 -23.932,-11.218c-18.602,-2.409 -12.675,18.058 -19.989,14.465c-3.097,-1.522 -3.2,-62.04 -1.85,-63.798z" fill="#a6a6a6" stroke="none" stroke-width="1" stroke-linecap="butt" stroke-miterlimit="10"/><path d="M81.833,176.149c3.205,-4.174 47.746,-2.081 53.191,2.365c5.889,4.807 3.504,29.48 0,34.586c-3.503,5.105 -7.565,12.298 -16.696,11.329c-5.016,-0.532 -16.286,-8.582 -19.082,-8.944c-14.833,-1.921 -15.013,9.087 -20.845,6.222c-2.47,-1.213 2.355,-44.156 3.432,-45.558z" fill="#8c8c8c" stroke="none" stroke-width="1" stroke-linecap="butt" stroke-miterlimit="10"/></g><path d="M75.462,425.411h-10.575v0c-0.75,0 -1.39133,-0.26633 -1.924,-0.799v0v0c-0.53267,-0.53267 -0.799,-1.174 -0.799,-1.924v0v-7.605v0c0,-0.75 0.26633,-1.39133 0.799,-1.924v0v0c0.53267,-0.532 1.174,-0.798 1.924,-0.798v0h7.83v0c0.76467,0 1.41333,0.266 1.946,0.798v0v0c0.53267,0.53267 0.799,1.174 0.799,1.924v0v4.725h-11.453v2.88v0c0,0.24 0.08633,0.44633 0.259,0.619v0v0c0.17267,0.17267 0.379,0.259 0.619,0.259v0h10.575zM64.009,415.083v2.88h9.585v-2.88v0c0,-0.24 -0.086,-0.44633 -0.258,-0.619v0v0c-0.17267,-0.172 -0.379,-0.258 -0.619,-0.258v0h-7.83v0c-0.24,0 -0.44633,0.086 -0.619,0.258v0v0c-0.17267,0.17267 -0.259,0.379 -0.259,0.619zM90.582,425.411h-10.575v0c-0.75,0 -1.39133,-0.26633 -1.924,-0.799v0v0c-0.53267,-0.53267 -0.799,-1.174 -0.799,-1.924v0v-7.605v0c0,-0.75 0.26633,-1.39133 0.799,-1.924v0v0c0.53267,-0.532 1.174,-0.798 1.924,-0.798v0h10.53v1.845h-10.53v0c-0.24,0 -0.44633,0.086 -0.619,0.258v0v0c-0.17267,0.17267 -0.259,0.379 -0.259,0.619v0v7.605v0c0,0.24 0.08633,0.44633 0.259,0.619v0v0c0.17267,0.17267 0.379,0.259 0.619,0.259v0h10.575zM103.474,425.411h-7.83v0c-0.75,0 -1.391,-0.26633 -1.923,-0.799v0v0c-0.53267,-0.53267 -0.799,-1.174 -0.799,-1.924v0v-7.605v0c0,-0.75 0.26633,-1.39133 0.799,-1.924v0v0c0.532,-0.532 1.173,-0.798 1.923,-0.798v0h7.83v0c0.76533,0 1.41433,0.266 1.947,0.798v0v0c0.532,0.53267 0.798,1.174 0.798,1.924v0v7.605v0c0,0.75 -0.266,1.39133 -0.798,1.924v0v0c-0.53267,0.53267 -1.18167,0.799 -1.947,0.799zM95.644,423.566v0h7.83v0c0.24,0 0.44633,-0.08633 0.619,-0.259v0v0c0.17267,-0.17267 0.259,-0.379 0.259,-0.619v0v-7.605v0c0,-0.24 -0.08633,-0.44633 -0.259,-0.619v0v0c-0.17267,-0.172 -0.379,-0.258 -0.619,-0.258v0h-7.83v0c-0.24,0 -0.446,0.086 -0.618,0.258v0v0c-0.17267,0.17267 -0.259,0.379 -0.259,0.619v0v7.605v0c0,0.24 0.08633,0.44633 0.259,0.619v0v0c0.172,0.17267 0.378,0.259 0.618,0.259zM118.527,425.411h-7.83v0c-0.75,0 -1.39133,-0.26633 -1.924,-0.799v0v0c-0.53267,-0.53267 -0.799,-1.174 -0.799,-1.924v0v-0.18h1.845v0.18v0c0,0.24 0.08633,0.44633 0.259,0.619v0v0c0.17267,0.17267 0.379,0.259 0.619,0.259v0h7.83v0c0.24,0 0.44633,-0.08633 0.619,-0.259v0v0c0.172,-0.17267 0.258,-0.379 0.258,-0.619v0v-2.002v0c0,-0.24 -0.086,-0.44633 -0.258,-0.619v0v0c-0.17267,-0.17267 -0.379,-0.259 -0.619,-0.259v0h-7.83v0c-0.75,0 -1.39133,-0.26633 -1.924,-0.799v0v0c-0.53267,-0.532 -0.799,-1.173 -0.799,-1.923v0v-2.003v0c0,-0.75 0.26633,-1.39133 0.799,-1.924v0v0c0.53267,-0.532 1.174,-0.798 1.924,-0.798v0h7.83v0c0.76467,0 1.41333,0.266 1.946,0.798v0v0c0.53267,0.53267 0.799,1.174 0.799,1.924v0v0.18h-1.868v-0.18v0c0,-0.24 -0.086,-0.44633 -0.258,-0.619v0v0c-0.17267,-0.172 -0.379,-0.258 -0.619,-0.258v0h-7.83v0c-0.24,0 -0.44633,0.086 -0.619,0.258v0v0c-0.17267,0.17267 -0.259,0.379 -0.259,0.619v0v2.003v0c0,0.24 0.08633,0.446 0.259,0.618v0v0c0.17267,0.17267 0.379,0.259 0.619,0.259v0h7.83v0c0.76467,0 1.41333,0.26633 1.946,0.799v0v0c0.53267,0.53267 0.799,1.174 0.799,1.924v0v2.002v0c0,0.75 -0.26633,1.39133 -0.799,1.924v0v0c-0.53267,0.53267 -1.18133,0.799 -1.946,0.799zM133.827,430.586h-8.145v-1.868h8.145v0c0.24,0 0.44633,-0.08633 0.619,-0.259v0v0c0.172,-0.172 0.258,-0.378 0.258,-0.618v0v-2.43h-8.707v0c-0.75,0 -1.39133,-0.26633 -1.924,-0.799v0v0c-0.53267,-0.53267 -0.799,-1.174 -0.799,-1.924v0v-10.282h1.845v10.282v0c0,0.24 0.08633,0.44633 0.259,0.619v0v0c0.17267,0.17267 0.379,0.259 0.619,0.259v0h7.83v0c0.24,0 0.44633,-0.08633 0.619,-0.259v0v0c0.172,-0.17267 0.258,-0.379 0.258,-0.619v0v-10.282h1.845v15.435v0c0,0.76467 -0.26233,1.41333 -0.787,1.946v0v0c-0.52533,0.53267 -1.17033,0.799 -1.935,0.799zM149.374,425.411h-7.83v0c-0.75,0 -1.391,-0.26633 -1.923,-0.799v0v0c-0.53267,-0.53267 -0.799,-1.174 -0.799,-1.924v0v-0.18h1.845v0.18v0c0,0.24 0.08633,0.44633 0.259,0.619v0v0c0.172,0.17267 0.378,0.259 0.618,0.259v0h7.83v0c0.24,0 0.44633,-0.08633 0.619,-0.259v0v0c0.17267,-0.17267 0.259,-0.379 0.259,-0.619v0v-2.002v0c0,-0.24 -0.08633,-0.44633 -0.259,-0.619v0v0c-0.17267,-0.17267 -0.379,-0.259 -0.619,-0.259v0h-7.83v0c-0.75,0 -1.391,-0.26633 -1.923,-0.799v0v0c-0.53267,-0.532 -0.799,-1.173 -0.799,-1.923v0v-2.003v0c0,-0.75 0.26633,-1.39133 0.799,-1.924v0v0c0.532,-0.532 1.173,-0.798 1.923,-0.798v0h7.83v0c0.76533,0 1.41433,0.266 1.947,0.798v0v0c0.532,0.53267 0.798,1.174 0.798,1.924v0v0.18h-1.867v-0.18v0c0,-0.24 -0.08633,-0.44633 -0.259,-0.619v0v0c-0.17267,-0.172 -0.379,-0.258 -0.619,-0.258v0h-7.83v0c-0.24,0 -0.446,0.086 -0.618,0.258v0v0c-0.17267,0.17267 -0.259,0.379 -0.259,0.619v0v2.003v0c0,0.24 0.08633,0.446 0.259,0.618v0v0c0.172,0.17267 0.378,0.259 0.618,0.259v0h7.83v0c0.76533,0 1.41433,0.26633 1.947,0.799v0v0c0.532,0.53267 0.798,1.174 0.798,1.924v0v2.002v0c0,0.75 -0.266,1.39133 -0.798,1.924v0v0c-0.53267,0.53267 -1.18167,0.799 -1.947,0.799zM161.862,425.411h-4.77v0c-0.76533,0 -1.41033,-0.26633 -1.935,-0.799v0v0c-0.52533,-0.53267 -0.788,-1.174 -0.788,-1.924v0v-14.602h1.845v4.275h5.648v1.845h-5.648v8.482v0c0,0.24 0.08633,0.44633 0.259,0.619v0v0c0.17267,0.17267 0.379,0.259 0.619,0.259v0h4.77zM176.847,425.411h-10.575v0c-0.75,0 -1.39133,-0.26633 -1.924,-0.799v0v0c-0.53267,-0.53267 -0.799,-1.174 -0.799,-1.924v0v-7.605v0c0,-0.75 0.26633,-1.39133 0.799,-1.924v0v0c0.53267,-0.532 1.174,-0.798 1.924,-0.798v0h7.83v0c0.76467,0 1.41333,0.266 1.946,0.798v0v0c0.53267,0.53267 0.799,1.174 0.799,1.924v0v4.725h-11.453v2.88v0c0,0.24 0.08633,0.44633 0.259,0.619v0v0c0.17267,0.17267 0.379,0.259 0.619,0.259v0h10.575zM165.394,415.083v2.88h9.585v-2.88v0c0,-0.24 -0.086,-0.44633 -0.258,-0.619v0v0c-0.17267,-0.172 -0.379,-0.258 -0.619,-0.258v0h-7.83v0c-0.24,0 -0.44633,0.086 -0.619,0.258v0v0c-0.17267,0.17267 -0.259,0.379 -0.259,0.619zM181.054,425.411h-1.867v-13.05h17.235v0c0.76467,0 1.40967,0.266 1.935,0.798v0v0c0.52467,0.53267 0.787,1.174 0.787,1.924v0v10.328h-1.822v-10.328v0c0,-0.24 -0.09,-0.44633 -0.27,-0.619v0v0c-0.18,-0.172 -0.39,-0.258 -0.63,-0.258v0h-5.423v0c-0.24,0 -0.446,0.086 -0.618,0.258v0v0c-0.17267,0.17267 -0.259,0.379 -0.259,0.619v0v10.328h-1.868v-10.328v0c0,-0.24 -0.086,-0.44633 -0.258,-0.619v0v0c-0.17267,-0.172 -0.379,-0.258 -0.619,-0.258v0h-5.445v0c-0.24,0 -0.44633,0.086 -0.619,0.258v0v0c-0.17267,0.17267 -0.259,0.379 -0.259,0.619v0zM211.609,425.411h-7.83v0c-0.75,0 -1.391,-0.26633 -1.923,-0.799v0v0c-0.53267,-0.53267 -0.799,-1.174 -0.799,-1.924v0v-0.18h1.845v0.18v0c0,0.24 0.08633,0.44633 0.259,0.619v0v0c0.172,0.17267 0.378,0.259 0.618,0.259v0h7.83v0c0.24,0 0.44633,-0.08633 0.619,-0.259v0v0c0.17267,-0.17267 0.259,-0.379 0.259,-0.619v0v-2.002v0c0,-0.24 -0.08633,-0.44633 -0.259,-0.619v0v0c-0.17267,-0.17267 -0.379,-0.259 -0.619,-0.259v0h-7.83v0c-0.75,0 -1.391,-0.26633 -1.923,-0.799v0v0c-0.53267,-0.532 -0.799,-1.173 -0.799,-1.923v0v-2.003v0c0,-0.75 0.26633,-1.39133 0.799,-1.924v0v0c0.532,-0.532 1.173,-0.798 1.923,-0.798v0h7.83v0c0.76533,0 1.41433,0.266 1.947,0.798v0v0c0.532,0.53267 0.798,1.174 0.798,1.924v0v0.18h-1.867v-0.18v0c0,-0.24 -0.08633,-0.44633 -0.259,-0.619v0v0c-0.17267,-0.172 -0.379,-0.258 -0.619,-0.258v0h-7.83v0c-0.24,0 -0.446,0.086 -0.618,0.258v0v0c-0.17267,0.17267 -0.259,0.379 -0.259,0.619v0v2.003v0c0,0.24 0.08633,0.446 0.259,0.618v0v0c0.172,0.17267 0.378,0.259 0.618,0.259v0h7.83v0c0.76533,0 1.41433,0.26633 1.947,0.799v0v0c0.532,0.53267 0.798,1.174 0.798,1.924v0v2.002v0c0,0.75 -0.266,1.39133 -0.798,1.924v0v0c-0.53267,0.53267 -1.18167,0.799 -1.947,0.799zM218.472,425.411h-1.845v-1.845h1.845zM279.244,397.196h-1.867v-13.05h17.235v0c0.76467,0 1.40967,0.266 1.935,0.798v0v0c0.52467,0.53267 0.787,1.174 0.787,1.924v0v10.328h-1.822v-10.328v0c0,-0.24 -0.09,-0.44633 -0.27,-0.619v0v0c-0.18,-0.172 -0.39,-0.258 -0.63,-0.258v0h-5.423v0c-0.24,0 -0.446,0.086 -0.618,0.258v0v0c-0.17267,0.17267 -0.259,0.379 -0.259,0.619v0v10.328h-1.868v-10.328v0c0,-0.24 -0.086,-0.44633 -0.258,-0.619v0v0c-0.17267,-0.172 -0.379,-0.258 -0.619,-0.258v0h-5.445v0c-0.24,0 -0.44633,0.086 -0.619,0.258v0v0c-0.17267,0.17267 -0.259,0.379 -0.259,0.619v0zM312.634,397.196h-10.575v0c-0.75,0 -1.391,-0.26633 -1.923,-0.799v0v0c-0.53267,-0.53267 -0.799,-1.174 -0.799,-1.924v0v-4.725h11.43v-2.88v0c0,-0.24 -0.08633,-0.44633 -0.259,-0.619v0v0c-0.17267,-0.172 -0.379,-0.258 -0.619,-0.258v0h-10.552v-1.845h10.552v0c0.76533,0 1.41433,0.266 1.947,0.798v0v0c0.532,0.53267 0.798,1.174 0.798,1.924v0zM302.059,395.351v0h8.708v-3.758h-9.585v2.88v0c0,0.24 0.08633,0.44633 0.259,0.619v0v0c0.172,0.17267 0.378,0.259 0.618,0.259zM316.684,397.196h-1.845v-10.328v0c0,-0.75 0.26633,-1.39133 0.799,-1.924v0v0c0.53267,-0.532 1.174,-0.798 1.924,-0.798v0h7.335v1.845h-7.335v0c-0.24,0 -0.44633,0.086 -0.619,0.258v0v0c-0.17267,0.17267 -0.259,0.379 -0.259,0.619v0zM328.204,397.196h-1.845v-13.05h1.845zM328.204,381.716h-1.845v-1.845h1.845zM332.592,397.196h-1.845v-13.05h10.575v0c0.75,0 1.39133,0.266 1.924,0.798v0v0c0.532,0.53267 0.798,1.174 0.798,1.924v0v10.328h-1.845v-10.328v0c0,-0.24 -0.086,-0.44633 -0.258,-0.619v0v0c-0.17267,-0.172 -0.379,-0.258 -0.619,-0.258v0h-7.83v0c-0.24,0 -0.45,0.086 -0.63,0.258v0v0c-0.18,0.17267 -0.27,0.379 -0.27,0.619v0zM359.637,397.196h-10.575v0c-0.75,0 -1.39133,-0.26633 -1.924,-0.799v0v0c-0.53267,-0.53267 -0.799,-1.174 -0.799,-1.924v0v-7.605v0c0,-0.75 0.26633,-1.39133 0.799,-1.924v0v0c0.53267,-0.532 1.174,-0.798 1.924,-0.798v0h7.83v0c0.76467,0 1.41333,0.266 1.946,0.798v0v0c0.53267,0.53267 0.799,1.174 0.799,1.924v0v4.725h-11.453v2.88v0c0,0.24 0.08633,0.44633 0.259,0.619v0v0c0.17267,0.17267 0.379,0.259 0.619,0.259v0h10.575zM348.184,386.868v2.88h9.585v-2.88v0c0,-0.24 -0.086,-0.44633 -0.258,-0.619v0v0c-0.17267,-0.172 -0.379,-0.258 -0.619,-0.258v0h-7.83v0c-0.24,0 -0.44633,0.086 -0.619,0.258v0v0c-0.17267,0.17267 -0.259,0.379 -0.259,0.619zM179.502,397.196h-10.575v0c-0.75,0 -1.39133,-0.26633 -1.924,-0.799v0v0c-0.53267,-0.53267 -0.799,-1.174 -0.799,-1.924v0v-7.605v0c0,-0.75 0.26633,-1.39133 0.799,-1.924v0v0c0.53267,-0.532 1.174,-0.798 1.924,-0.798v0h10.53v1.845h-10.53v0c-0.24,0 -0.44633,0.086 -0.619,0.258v0v0c-0.17267,0.17267 -0.259,0.379 -0.259,0.619v0v7.605v0c0,0.24 0.08633,0.44633 0.259,0.619v0v0c0.17267,0.17267 0.379,0.259 0.619,0.259v0h10.575zM192.394,397.196h-7.83v0c-0.75,0 -1.391,-0.26633 -1.923,-0.799v0v0c-0.53267,-0.53267 -0.799,-1.174 -0.799,-1.924v0v-7.605v0c0,-0.75 0.26633,-1.39133 0.799,-1.924v0v0c0.532,-0.532 1.173,-0.798 1.923,-0.798v0h7.83v0c0.76533,0 1.41433,0.266 1.947,0.798v0v0c0.532,0.53267 0.798,1.174 0.798,1.924v0v7.605v0c0,0.75 -0.266,1.39133 -0.798,1.924v0v0c-0.53267,0.53267 -1.18167,0.799 -1.947,0.799zM184.564,395.351v0h7.83v0c0.24,0 0.44633,-0.08633 0.619,-0.259v0v0c0.17267,-0.17267 0.259,-0.379 0.259,-0.619v0v-7.605v0c0,-0.24 -0.08633,-0.44633 -0.259,-0.619v0v0c-0.17267,-0.172 -0.379,-0.258 -0.619,-0.258v0h-7.83v0c-0.24,0 -0.446,0.086 -0.618,0.258v0v0c-0.17267,0.17267 -0.259,0.379 -0.259,0.619v0v7.605v0c0,0.24 0.08633,0.44633 0.259,0.619v0v0c0.172,0.17267 0.378,0.259 0.618,0.259zM199.347,397.196h-1.868v-13.05h17.235v0c0.76533,0 1.41033,0.266 1.935,0.798v0v0c0.52533,0.53267 0.788,1.174 0.788,1.924v0v10.328h-1.823v-10.328v0c0,-0.24 -0.09,-0.44633 -0.27,-0.619v0v0c-0.18,-0.172 -0.39,-0.258 -0.63,-0.258v0h-5.422v0c-0.24,0 -0.44633,0.086 -0.619,0.258v0v0c-0.17267,0.17267 -0.259,0.379 -0.259,0.619v0v10.328h-1.867v-10.328v0c0,-0.24 -0.08633,-0.44633 -0.259,-0.619v0v0c-0.17267,-0.172 -0.379,-0.258 -0.619,-0.258v0h-5.445v0c-0.24,0 -0.446,0.086 -0.618,0.258v0v0c-0.17267,0.17267 -0.259,0.379 -0.259,0.619v0zM221.329,402.371h-1.845v-18.225h10.575v0c0.75,0 1.39133,0.266 1.924,0.798v0v0c0.53267,0.53267 0.799,1.174 0.799,1.924v0v7.605v0c0,0.75 -0.26633,1.39133 -0.799,1.924v0v0c-0.53267,0.53267 -1.174,0.799 -1.924,0.799v0h-8.73zM222.229,395.351v0h7.83v0c0.24,0 0.44633,-0.08633 0.619,-0.259v0v0c0.17267,-0.17267 0.259,-0.379 0.259,-0.619v0v-7.605v0c0,-0.24 -0.08633,-0.44633 -0.259,-0.619v0v0c-0.17267,-0.172 -0.379,-0.258 -0.619,-0.258v0h-7.83v0c-0.24,0 -0.45,0.086 -0.63,0.258v0v0c-0.18,0.17267 -0.27,0.379 -0.27,0.619v0v7.605v0c0,0.24 0.09,0.44633 0.27,0.619v0v0c0.18,0.17267 0.39,0.259 0.63,0.259zM239.307,397.196h-2.205v0c-0.75,0 -1.39133,-0.26633 -1.924,-0.799v0v0c-0.53267,-0.53267 -0.799,-1.174 -0.799,-1.924v0v-14.602h1.845v14.602v0c0,0.24 0.08633,0.44633 0.259,0.619v0v0c0.17267,0.17267 0.379,0.259 0.619,0.259v0h2.205zM254.112,397.196h-10.575v0c-0.75,0 -1.39133,-0.26633 -1.924,-0.799v0v0c-0.53267,-0.53267 -0.799,-1.174 -0.799,-1.924v0v-7.605v0c0,-0.75 0.26633,-1.39133 0.799,-1.924v0v0c0.53267,-0.532 1.174,-0.798 1.924,-0.798v0h7.83v0c0.76467,0 1.41333,0.266 1.946,0.798v0v0c0.53267,0.53267 0.799,1.174 0.799,1.924v0v4.725h-11.453v2.88v0c0,0.24 0.08633,0.44633 0.259,0.619v0v0c0.17267,0.17267 0.379,0.259 0.619,0.259v0h10.575zM242.659,386.868v2.88h9.585v-2.88v0c0,-0.24 -0.086,-0.44633 -0.258,-0.619v0v0c-0.17267,-0.172 -0.379,-0.258 -0.619,-0.258v0h-7.83v0c-0.24,0 -0.44633,0.086 -0.619,0.258v0v0c-0.17267,0.17267 -0.259,0.379 -0.259,0.619zM258.319,397.196h-2.43v-0.023l5.445,-6.615l-5.445,-6.39v-0.022h2.43l4.23,4.95l4.253,-4.95h2.407v0.022l-5.445,6.39l5.468,6.615v0.023h-2.43l-4.253,-5.22zM127.459,397.196h-10.575v0c-0.75,0 -1.391,-0.26633 -1.923,-0.799v0v0c-0.53267,-0.53267 -0.799,-1.174 -0.799,-1.924v0v-4.725h11.43v-2.88v0c0,-0.24 -0.08633,-0.44633 -0.259,-0.619v0v0c-0.17267,-0.172 -0.379,-0.258 -0.619,-0.258v0h-10.552v-1.845h10.552v0c0.76533,0 1.41433,0.266 1.947,0.798v0v0c0.532,0.53267 0.798,1.174 0.798,1.924v0zM116.884,395.351v0h8.708v-3.758h-9.585v2.88v0c0,0.24 0.08633,0.44633 0.259,0.619v0v0c0.172,0.17267 0.378,0.259 0.618,0.259zM131.329,397.196h-1.845v-13.05h10.575v0c0.75,0 1.39133,0.266 1.924,0.798v0v0c0.53267,0.53267 0.799,1.174 0.799,1.924v0v10.328h-1.845v-10.328v0c0,-0.24 -0.08633,-0.44633 -0.259,-0.619v0v0c-0.17267,-0.172 -0.379,-0.258 -0.619,-0.258v0h-7.83v0c-0.24,0 -0.45,0.086 -0.63,0.258v0v0c-0.18,0.17267 -0.27,0.379 -0.27,0.619v0zM157.744,397.196h-10.552v0c-0.76533,0 -1.414,-0.26633 -1.946,-0.799v0v0c-0.53267,-0.53267 -0.799,-1.174 -0.799,-1.924v0v-7.605v0c0,-0.75 0.26633,-1.39133 0.799,-1.924v0v0c0.532,-0.532 1.18067,-0.798 1.946,-0.798v0h8.707v-4.275h1.845zM147.192,395.351v0h7.83v0c0.24,0 0.44633,-0.08633 0.619,-0.259v0v0c0.172,-0.17267 0.258,-0.379 0.258,-0.619v0v-7.605v0c0,-0.24 -0.086,-0.44633 -0.258,-0.619v0v0c-0.17267,-0.172 -0.379,-0.258 -0.619,-0.258v0h-7.83v0c-0.24,0 -0.44633,0.086 -0.619,0.258v0v0c-0.17267,0.17267 -0.259,0.379 -0.259,0.619v0v7.605v0c0,0.24 0.08633,0.44633 0.259,0.619v0v0c0.17267,0.17267 0.379,0.259 0.619,0.259zM64.032,397.196h-1.845v-10.328v0c0,-0.75 0.26633,-1.39133 0.799,-1.924v0v0c0.532,-0.532 1.173,-0.798 1.923,-0.798v0h7.335v1.845h-7.335v0c-0.24,0 -0.446,0.086 -0.618,0.258v0v0c-0.17267,0.17267 -0.259,0.379 -0.259,0.619v0zM75.552,397.196h-1.845v-13.05h1.845zM75.552,381.716h-1.845v-1.845h1.845zM91.324,397.196h-10.575v0c-0.75,0 -1.391,-0.26633 -1.923,-0.799v0v0c-0.53267,-0.53267 -0.799,-1.174 -0.799,-1.924v0v-7.605v0c0,-0.75 0.26633,-1.39133 0.799,-1.924v0v0c0.532,-0.532 1.173,-0.798 1.923,-0.798v0h10.53v1.845h-10.53v0c-0.24,0 -0.446,0.086 -0.618,0.258v0v0c-0.17267,0.17267 -0.259,0.379 -0.259,0.619v0v7.605v0c0,0.24 0.08633,0.44633 0.259,0.619v0v0c0.172,0.17267 0.378,0.259 0.618,0.259v0h10.575zM95.239,397.196h-1.845v-17.325h1.845v4.275h8.73v0c0.73533,0 1.373,0.266 1.913,0.798v0v0c0.54,0.53267 0.81,1.174 0.81,1.924v0v10.328h-1.845v-10.328v0c0,-0.24 -0.08633,-0.44633 -0.259,-0.619v0v0c-0.17267,-0.172 -0.379,-0.258 -0.619,-0.258v0h-7.83v0c-0.24,0 -0.45,0.086 -0.63,0.258v0v0c-0.18,0.17267 -0.27,0.379 -0.27,0.619v0zM371.179,368.981h-7.83v0c-0.75,0 -1.391,-0.26633 -1.923,-0.799v0v0c-0.53267,-0.53267 -0.799,-1.174 -0.799,-1.924v0v-7.605v0c0,-0.75 0.26633,-1.39133 0.799,-1.924v0v0c0.532,-0.532 1.173,-0.798 1.923,-0.798v0h7.83v0c0.76533,0 1.41433,0.266 1.947,0.798v0v0c0.532,0.53267 0.798,1.174 0.798,1.924v0v7.605v0c0,0.75 -0.266,1.39133 -0.798,1.924v0v0c-0.53267,0.53267 -1.18167,0.799 -1.947,0.799zM363.349,367.136v0h7.83v0c0.24,0 0.44633,-0.08633 0.619,-0.259v0v0c0.17267,-0.17267 0.259,-0.379 0.259,-0.619v0v-7.605v0c0,-0.24 -0.08633,-0.44633 -0.259,-0.619v0v0c-0.17267,-0.172 -0.379,-0.258 -0.619,-0.258v0h-7.83v0c-0.24,0 -0.446,0.086 -0.618,0.258v0v0c-0.17267,0.17267 -0.259,0.379 -0.259,0.619v0v7.605v0c0,0.24 0.08633,0.44633 0.259,0.619v0v0c0.172,0.17267 0.378,0.259 0.618,0.259zM378.087,368.981h-1.845v-14.603v0c0,-0.76467 0.26233,-1.40967 0.787,-1.935v0v0c0.52533,-0.52467 1.17033,-0.787 1.935,-0.787v0h4.77v1.845h-4.77v0c-0.24,0 -0.446,0.086 -0.618,0.258v0v0c-0.17267,0.17267 -0.259,0.379 -0.259,0.619v0v1.553h5.647v1.845h-5.647zM275.037,374.133h-8.145v-1.867h8.145v0c0.24,0 0.44633,-0.08633 0.619,-0.259v0v0c0.172,-0.17267 0.258,-0.379 0.258,-0.619v0v-2.407h-8.707v0c-0.75,0 -1.39133,-0.26633 -1.924,-0.799v0v0c-0.53267,-0.53267 -0.799,-1.174 -0.799,-1.924v0v-7.605v0c0,-0.75 0.26633,-1.39133 0.799,-1.924v0v0c0.53267,-0.532 1.174,-0.798 1.924,-0.798v0h7.83v0c0.76467,0 1.40967,0.266 1.935,0.798v0v0c0.52467,0.53267 0.787,1.174 0.787,1.924v0v12.735v0c0,0.76533 -0.26233,1.414 -0.787,1.946v0v0c-0.52533,0.53267 -1.17033,0.799 -1.935,0.799zM267.207,367.136v0h7.83v0c0.24,0 0.44633,-0.08633 0.619,-0.259v0v0c0.172,-0.17267 0.258,-0.379 0.258,-0.619v0v-7.605v0c0,-0.24 -0.086,-0.44633 -0.258,-0.619v0v0c-0.17267,-0.172 -0.379,-0.258 -0.619,-0.258v0h-7.83v0c-0.24,0 -0.44633,0.086 -0.619,0.258v0v0c-0.17267,0.17267 -0.259,0.379 -0.259,0.619v0v7.605v0c0,0.24 0.08633,0.44633 0.259,0.619v0v0c0.17267,0.17267 0.379,0.259 0.619,0.259zM281.607,368.981h-1.845v-10.328v0c0,-0.75 0.26633,-1.39133 0.799,-1.924v0v0c0.532,-0.532 1.173,-0.798 1.923,-0.798v0h7.335v1.845h-7.335v0c-0.24,0 -0.446,0.086 -0.618,0.258v0v0c-0.17267,0.17267 -0.259,0.379 -0.259,0.619v0zM301.699,368.981h-7.83v0c-0.75,0 -1.391,-0.26633 -1.923,-0.799v0v0c-0.53267,-0.53267 -0.799,-1.174 -0.799,-1.924v0v-7.605v0c0,-0.75 0.26633,-1.39133 0.799,-1.924v0v0c0.532,-0.532 1.173,-0.798 1.923,-0.798v0h7.83v0c0.76533,0 1.41433,0.266 1.947,0.798v0v0c0.532,0.53267 0.798,1.174 0.798,1.924v0v7.605v0c0,0.75 -0.266,1.39133 -0.798,1.924v0v0c-0.53267,0.53267 -1.18167,0.799 -1.947,0.799zM293.869,367.136v0h7.83v0c0.24,0 0.44633,-0.08633 0.619,-0.259v0v0c0.17267,-0.17267 0.259,-0.379 0.259,-0.619v0v-7.605v0c0,-0.24 -0.08633,-0.44633 -0.259,-0.619v0v0c-0.17267,-0.172 -0.379,-0.258 -0.619,-0.258v0h-7.83v0c-0.24,0 -0.446,0.086 -0.618,0.258v0v0c-0.17267,0.17267 -0.259,0.379 -0.259,0.619v0v7.605v0c0,0.24 0.08633,0.44633 0.259,0.619v0v0c0.172,0.17267 0.378,0.259 0.618,0.259zM312.319,368.981h-1.62l-5.13,-13.05h1.98l3.96,9.72l4.208,-9.72h2.43l4.477,9.697l3.69,-9.697h2.003l-4.928,13.05h-1.597l-4.86,-10.778zM337.564,368.981h-4.77v0c-0.76467,0 -1.40967,-0.26633 -1.935,-0.799v0v0c-0.52467,-0.53267 -0.787,-1.174 -0.787,-1.924v0v-14.602h1.845v4.275h5.647v1.845h-5.647v8.482v0c0,0.24 0.08633,0.44633 0.259,0.619v0v0c0.172,0.17267 0.378,0.259 0.618,0.259v0h4.77zM341.277,368.981h-1.845v-17.325h1.845v4.275h8.73v0c0.73467,0 1.372,0.266 1.912,0.798v0v0c0.54,0.53267 0.81,1.174 0.81,1.924v0v10.328h-1.845v-10.328v0c0,-0.24 -0.086,-0.44633 -0.258,-0.619v0v0c-0.17267,-0.172 -0.379,-0.258 -0.619,-0.258v0h-7.83v0c-0.24,0 -0.45,0.086 -0.63,0.258v0v0c-0.18,0.17267 -0.27,0.379 -0.27,0.619v0zM188.907,368.981h-10.575v0c-0.75,0 -1.39133,-0.26633 -1.924,-0.799v0v0c-0.53267,-0.53267 -0.799,-1.174 -0.799,-1.924v0v-7.605v0c0,-0.75 0.26633,-1.39133 0.799,-1.924v0v0c0.53267,-0.532 1.174,-0.798 1.924,-0.798v0h7.83v0c0.76467,0 1.41333,0.266 1.946,0.798v0v0c0.53267,0.53267 0.799,1.174 0.799,1.924v0v4.725h-11.453v2.88v0c0,0.24 0.08633,0.44633 0.259,0.619v0v0c0.17267,0.17267 0.379,0.259 0.619,0.259v0h10.575zM177.454,358.653v2.88h9.585v-2.88v0c0,-0.24 -0.086,-0.44633 -0.258,-0.619v0v0c-0.17267,-0.172 -0.379,-0.258 -0.619,-0.258v0h-7.83v0c-0.24,0 -0.44633,0.086 -0.619,0.258v0v0c-0.17267,0.17267 -0.259,0.379 -0.259,0.619zM193.092,368.981h-1.845v-13.05h10.575v0c0.75,0 1.39133,0.266 1.924,0.798v0v0c0.532,0.53267 0.798,1.174 0.798,1.924v0v10.328h-1.845v-10.328v0c0,-0.24 -0.086,-0.44633 -0.258,-0.619v0v0c-0.17267,-0.172 -0.379,-0.258 -0.619,-0.258v0h-7.83v0c-0.24,0 -0.45,0.086 -0.63,0.258v0v0c-0.18,0.17267 -0.27,0.379 -0.27,0.619v0zM220.159,368.981h-10.575v0c-0.75,0 -1.391,-0.26633 -1.923,-0.799v0v0c-0.53267,-0.53267 -0.799,-1.174 -0.799,-1.924v0v-4.725h11.43v-2.88v0c0,-0.24 -0.08633,-0.44633 -0.259,-0.619v0v0c-0.17267,-0.172 -0.379,-0.258 -0.619,-0.258v0h-10.552v-1.845h10.552v0c0.76533,0 1.41433,0.266 1.947,0.798v0v0c0.532,0.53267 0.798,1.174 0.798,1.924v0zM209.584,367.136v0h8.708v-3.758h-9.585v2.88v0c0,0.24 0.08633,0.44633 0.259,0.619v0v0c0.172,0.17267 0.378,0.259 0.618,0.259zM232.534,368.981h-10.575v-17.325h1.845v4.275h8.73v0c0.75,0 1.39133,0.266 1.924,0.798v0v0c0.53267,0.53267 0.799,1.174 0.799,1.924v0v7.605v0c0,0.75 -0.26633,1.39133 -0.799,1.924v0v0c-0.53267,0.53267 -1.174,0.799 -1.924,0.799zM224.704,367.136v0h7.83v0c0.24,0 0.44633,-0.08633 0.619,-0.259v0v0c0.17267,-0.17267 0.259,-0.379 0.259,-0.619v0v-7.605v0c0,-0.24 -0.08633,-0.44633 -0.259,-0.619v0v0c-0.17267,-0.172 -0.379,-0.258 -0.619,-0.258v0h-7.83v0c-0.24,0 -0.45,0.086 -0.63,0.258v0v0c-0.18,0.17267 -0.27,0.379 -0.27,0.619v0v7.605v0c0,0.24 0.09,0.44633 0.27,0.619v0v0c0.18,0.17267 0.39,0.259 0.63,0.259zM241.849,368.981h-2.205v0c-0.75,0 -1.391,-0.26633 -1.923,-0.799v0v0c-0.53267,-0.53267 -0.799,-1.174 -0.799,-1.924v0v-14.602h1.845v14.602v0c0,0.24 0.08633,0.44633 0.259,0.619v0v0c0.172,0.17267 0.378,0.259 0.618,0.259v0h2.205zM256.654,368.981h-10.575v0c-0.75,0 -1.391,-0.26633 -1.923,-0.799v0v0c-0.53267,-0.53267 -0.799,-1.174 -0.799,-1.924v0v-7.605v0c0,-0.75 0.26633,-1.39133 0.799,-1.924v0v0c0.532,-0.532 1.173,-0.798 1.923,-0.798v0h7.83v0c0.76533,0 1.41433,0.266 1.947,0.798v0v0c0.532,0.53267 0.798,1.174 0.798,1.924v0v4.725h-11.452v2.88v0c0,0.24 0.08633,0.44633 0.259,0.619v0v0c0.172,0.17267 0.378,0.259 0.618,0.259v0h10.575zM245.202,358.653v2.88h9.585v-2.88v0c0,-0.24 -0.08633,-0.44633 -0.259,-0.619v0v0c-0.17267,-0.172 -0.379,-0.258 -0.619,-0.258v0h-7.83v0c-0.24,0 -0.446,0.086 -0.618,0.258v0v0c-0.17267,0.17267 -0.259,0.379 -0.259,0.619zM119.517,368.981h-1.845v-17.325h1.845v4.275h8.73v0c0.73467,0 1.372,0.266 1.912,0.798v0v0c0.54,0.53267 0.81,1.174 0.81,1.924v0v10.328h-1.845v-10.328v0c0,-0.24 -0.086,-0.44633 -0.258,-0.619v0v0c-0.17267,-0.172 -0.379,-0.258 -0.619,-0.258v0h-7.83v0c-0.24,0 -0.45,0.086 -0.63,0.258v0v0c-0.18,0.17267 -0.27,0.379 -0.27,0.619v0zM145.932,368.981h-10.575v0c-0.75,0 -1.39133,-0.26633 -1.924,-0.799v0v0c-0.53267,-0.53267 -0.799,-1.174 -0.799,-1.924v0v-7.605v0c0,-0.75 0.26633,-1.39133 0.799,-1.924v0v0c0.53267,-0.532 1.174,-0.798 1.924,-0.798v0h7.83v0c0.76467,0 1.41333,0.266 1.946,0.798v0v0c0.53267,0.53267 0.799,1.174 0.799,1.924v0v4.725h-11.453v2.88v0c0,0.24 0.08633,0.44633 0.259,0.619v0v0c0.17267,0.17267 0.379,0.259 0.619,0.259v0h10.575zM134.479,358.653v2.88h9.585v-2.88v0c0,-0.24 -0.086,-0.44633 -0.258,-0.619v0v0c-0.17267,-0.172 -0.379,-0.258 -0.619,-0.258v0h-7.83v0c-0.24,0 -0.44633,0.086 -0.619,0.258v0v0c-0.17267,0.17267 -0.259,0.379 -0.259,0.619zM152.704,368.981h-2.205v0c-0.75,0 -1.391,-0.26633 -1.923,-0.799v0v0c-0.53267,-0.53267 -0.799,-1.174 -0.799,-1.924v0v-14.602h1.845v14.602v0c0,0.24 0.08633,0.44633 0.259,0.619v0v0c0.172,0.17267 0.378,0.259 0.618,0.259v0h2.205zM156.462,374.156h-1.845v-18.225h10.575v0c0.75,0 1.39133,0.266 1.924,0.798v0v0c0.532,0.53267 0.798,1.174 0.798,1.924v0v7.605v0c0,0.75 -0.266,1.39133 -0.798,1.924v0v0c-0.53267,0.53267 -1.174,0.799 -1.924,0.799v0h-8.73zM157.362,367.136v0h7.83v0c0.24,0 0.44633,-0.08633 0.619,-0.259v0v0c0.172,-0.17267 0.258,-0.379 0.258,-0.619v0v-7.605v0c0,-0.24 -0.086,-0.44633 -0.258,-0.619v0v0c-0.17267,-0.172 -0.379,-0.258 -0.619,-0.258v0h-7.83v0c-0.24,0 -0.45,0.086 -0.63,0.258v0v0c-0.18,0.17267 -0.27,0.379 -0.27,0.619v0v7.605v0c0,0.24 0.09,0.44633 0.27,0.619v0v0c0.18,0.17267 0.39,0.259 0.63,0.259zM69.702,368.981h-4.77v0c-0.76533,0 -1.41033,-0.26633 -1.935,-0.799v0v0c-0.52533,-0.53267 -0.788,-1.174 -0.788,-1.924v0v-14.602h1.845v4.275h5.648v1.845h-5.648v8.482v0c0,0.24 0.08633,0.44633 0.259,0.619v0v0c0.17267,0.17267 0.379,0.259 0.619,0.259v0h4.77zM73.414,368.981h-1.845v-17.325h1.845v4.275h8.73v0c0.73533,0 1.373,0.266 1.913,0.798v0v0c0.54,0.53267 0.81,1.174 0.81,1.924v0v10.328h-1.845v-10.328v0c0,-0.24 -0.08633,-0.44633 -0.259,-0.619v0v0c-0.17267,-0.172 -0.379,-0.258 -0.619,-0.258v0h-7.83v0c-0.24,0 -0.45,0.086 -0.63,0.258v0v0c-0.18,0.17267 -0.27,0.379 -0.27,0.619v0zM99.964,368.981h-10.575v0c-0.75,0 -1.391,-0.26633 -1.923,-0.799v0v0c-0.53267,-0.53267 -0.799,-1.174 -0.799,-1.924v0v-4.725h11.43v-2.88v0c0,-0.24 -0.08633,-0.44633 -0.259,-0.619v0v0c-0.17267,-0.172 -0.379,-0.258 -0.619,-0.258v0h-10.552v-1.845h10.552v0c0.76533,0 1.41433,0.266 1.947,0.798v0v0c0.532,0.53267 0.798,1.174 0.798,1.924v0zM89.389,367.136v0h8.708v-3.758h-9.585v2.88v0c0,0.24 0.08633,0.44633 0.259,0.619v0v0c0.172,0.17267 0.378,0.259 0.618,0.259zM109.797,368.981h-4.77v0c-0.76533,0 -1.41033,-0.26633 -1.935,-0.799v0v0c-0.52533,-0.53267 -0.788,-1.174 -0.788,-1.924v0v-14.602h1.845v4.275h5.648v1.845h-5.648v8.482v0c0,0.24 0.08633,0.44633 0.259,0.619v0v0c0.17267,0.17267 0.379,0.259 0.619,0.259v0h4.77zM273.012,340.766h-7.83v0c-0.75,0 -1.39133,-0.26633 -1.924,-0.799v0v0c-0.53267,-0.53267 -0.799,-1.174 -0.799,-1.924v0v-0.18h1.845v0.18v0c0,0.24 0.08633,0.44633 0.259,0.619v0v0c0.17267,0.17267 0.379,0.259 0.619,0.259v0h7.83v0c0.24,0 0.44633,-0.08633 0.619,-0.259v0v0c0.172,-0.17267 0.258,-0.379 0.258,-0.619v0v-2.002v0c0,-0.24 -0.086,-0.44633 -0.258,-0.619v0v0c-0.17267,-0.17267 -0.379,-0.259 -0.619,-0.259v0h-7.83v0c-0.75,0 -1.39133,-0.26633 -1.924,-0.799v0v0c-0.53267,-0.532 -0.799,-1.173 -0.799,-1.923v0v-2.003v0c0,-0.75 0.26633,-1.39133 0.799,-1.924v0v0c0.53267,-0.532 1.174,-0.798 1.924,-0.798v0h7.83v0c0.76467,0 1.41333,0.266 1.946,0.798v0v0c0.53267,0.53267 0.799,1.174 0.799,1.924v0v0.18h-1.868v-0.18v0c0,-0.24 -0.086,-0.44633 -0.258,-0.619v0v0c-0.17267,-0.172 -0.379,-0.258 -0.619,-0.258v0h-7.83v0c-0.24,0 -0.44633,0.086 -0.619,0.258v0v0c-0.17267,0.17267 -0.259,0.379 -0.259,0.619v0v2.003v0c0,0.24 0.08633,0.446 0.259,0.618v0v0c0.17267,0.17267 0.379,0.259 0.619,0.259v0h7.83v0c0.76467,0 1.41333,0.26633 1.946,0.799v0v0c0.53267,0.53267 0.799,1.174 0.799,1.924v0v2.002v0c0,0.75 -0.26633,1.39133 -0.799,1.924v0v0c-0.53267,0.53267 -1.18133,0.799 -1.946,0.799zM288.109,340.766h-7.83v0c-0.75,0 -1.391,-0.26633 -1.923,-0.799v0v0c-0.53267,-0.53267 -0.799,-1.174 -0.799,-1.924v0v-10.327h1.845v10.327v0c0,0.24 0.08633,0.44633 0.259,0.619v0v0c0.172,0.17267 0.378,0.259 0.618,0.259v0h7.83v0c0.24,0 0.45,-0.08633 0.63,-0.259v0v0c0.18,-0.17267 0.27,-0.379 0.27,-0.619v0v-10.327h1.845v10.327v0c0,0.75 -0.266,1.39133 -0.798,1.924v0v0c-0.53267,0.53267 -1.18167,0.799 -1.947,0.799zM295.017,340.766h-1.845v-10.328v0c0,-0.75 0.26633,-1.39133 0.799,-1.924v0v0c0.532,-0.532 1.173,-0.798 1.923,-0.798v0h7.335v1.845h-7.335v0c-0.24,0 -0.446,0.086 -0.618,0.258v0v0c-0.17267,0.17267 -0.259,0.379 -0.259,0.619v0zM306.559,340.766h-1.845v-14.603v0c0,-0.76467 0.26267,-1.40967 0.788,-1.935v0v0c0.52467,-0.52467 1.16967,-0.787 1.935,-0.787v0h4.77v1.845h-4.77v0c-0.24,0 -0.44633,0.086 -0.619,0.258v0v0c-0.17267,0.17267 -0.259,0.379 -0.259,0.619v0v1.553h5.648v1.845h-5.648zM327.147,340.766h-10.575v0c-0.75,0 -1.39133,-0.26633 -1.924,-0.799v0v0c-0.53267,-0.53267 -0.799,-1.174 -0.799,-1.924v0v-4.725h11.43v-2.88v0c0,-0.24 -0.086,-0.44633 -0.258,-0.619v0v0c-0.17267,-0.172 -0.379,-0.258 -0.619,-0.258v0h-10.553v-1.845h10.553v0c0.76467,0 1.41333,0.266 1.946,0.798v0v0c0.53267,0.53267 0.799,1.174 0.799,1.924v0zM316.572,338.921v0h8.707v-3.758h-9.585v2.88v0c0,0.24 0.08633,0.44633 0.259,0.619v0v0c0.17267,0.17267 0.379,0.259 0.619,0.259zM342.514,340.766h-10.575v0c-0.75,0 -1.391,-0.26633 -1.923,-0.799v0v0c-0.53267,-0.53267 -0.799,-1.174 -0.799,-1.924v0v-7.605v0c0,-0.75 0.26633,-1.39133 0.799,-1.924v0v0c0.532,-0.532 1.173,-0.798 1.923,-0.798v0h10.53v1.845h-10.53v0c-0.24,0 -0.446,0.086 -0.618,0.258v0v0c-0.17267,0.17267 -0.259,0.379 -0.259,0.619v0v7.605v0c0,0.24 0.08633,0.44633 0.259,0.619v0v0c0.172,0.17267 0.378,0.259 0.618,0.259v0h10.575zM357.589,340.766h-10.575v0c-0.75,0 -1.391,-0.26633 -1.923,-0.799v0v0c-0.53267,-0.53267 -0.799,-1.174 -0.799,-1.924v0v-7.605v0c0,-0.75 0.26633,-1.39133 0.799,-1.924v0v0c0.532,-0.532 1.173,-0.798 1.923,-0.798v0h7.83v0c0.76533,0 1.41433,0.266 1.947,0.798v0v0c0.532,0.53267 0.798,1.174 0.798,1.924v0v4.725h-11.452v2.88v0c0,0.24 0.08633,0.44633 0.259,0.619v0v0c0.172,0.17267 0.378,0.259 0.618,0.259v0h10.575zM346.137,330.438v2.88h9.585v-2.88v0c0,-0.24 -0.08633,-0.44633 -0.259,-0.619v0v0c-0.17267,-0.172 -0.379,-0.258 -0.619,-0.258v0h-7.83v0c-0.24,0 -0.446,0.086 -0.618,0.258v0v0c-0.17267,0.17267 -0.259,0.379 -0.259,0.619zM370.347,340.766h-7.83v0c-0.75,0 -1.39133,-0.26633 -1.924,-0.799v0v0c-0.53267,-0.53267 -0.799,-1.174 -0.799,-1.924v0v-0.18h1.845v0.18v0c0,0.24 0.08633,0.44633 0.259,0.619v0v0c0.17267,0.17267 0.379,0.259 0.619,0.259v0h7.83v0c0.24,0 0.44633,-0.08633 0.619,-0.259v0v0c0.172,-0.17267 0.258,-0.379 0.258,-0.619v0v-2.002v0c0,-0.24 -0.086,-0.44633 -0.258,-0.619v0v0c-0.17267,-0.17267 -0.379,-0.259 -0.619,-0.259v0h-7.83v0c-0.75,0 -1.39133,-0.26633 -1.924,-0.799v0v0c-0.53267,-0.532 -0.799,-1.173 -0.799,-1.923v0v-2.003v0c0,-0.75 0.26633,-1.39133 0.799,-1.924v0v0c0.53267,-0.532 1.174,-0.798 1.924,-0.798v0h7.83v0c0.76467,0 1.41333,0.266 1.946,0.798v0v0c0.53267,0.53267 0.799,1.174 0.799,1.924v0v0.18h-1.868v-0.18v0c0,-0.24 -0.086,-0.44633 -0.258,-0.619v0v0c-0.17267,-0.172 -0.379,-0.258 -0.619,-0.258v0h-7.83v0c-0.24,0 -0.44633,0.086 -0.619,0.258v0v0c-0.17267,0.17267 -0.259,0.379 -0.259,0.619v0v2.003v0c0,0.24 0.08633,0.446 0.259,0.618v0v0c0.17267,0.17267 0.379,0.259 0.619,0.259v0h7.83v0c0.76467,0 1.41333,0.26633 1.946,0.799v0v0c0.53267,0.53267 0.799,1.174 0.799,1.924v0v2.002v0c0,0.75 -0.26633,1.39133 -0.799,1.924v0v0c-0.53267,0.53267 -1.18133,0.799 -1.946,0.799zM164.719,340.766h-10.575v0c-0.75,0 -1.391,-0.26633 -1.923,-0.799v0v0c-0.53267,-0.53267 -0.799,-1.174 -0.799,-1.924v0v-7.605v0c0,-0.75 0.26633,-1.39133 0.799,-1.924v0v0c0.532,-0.532 1.173,-0.798 1.923,-0.798v0h10.53v1.845h-10.53v0c-0.24,0 -0.446,0.086 -0.618,0.258v0v0c-0.17267,0.17267 -0.259,0.379 -0.259,0.619v0v7.605v0c0,0.24 0.08633,0.44633 0.259,0.619v0v0c0.172,0.17267 0.378,0.259 0.618,0.259v0h10.575zM177.612,340.766h-7.83v0c-0.75,0 -1.39133,-0.26633 -1.924,-0.799v0v0c-0.53267,-0.53267 -0.799,-1.174 -0.799,-1.924v0v-7.605v0c0,-0.75 0.26633,-1.39133 0.799,-1.924v0v0c0.53267,-0.532 1.174,-0.798 1.924,-0.798v0h7.83v0c0.76467,0 1.41333,0.266 1.946,0.798v0v0c0.53267,0.53267 0.799,1.174 0.799,1.924v0v7.605v0c0,0.75 -0.26633,1.39133 -0.799,1.924v0v0c-0.53267,0.53267 -1.18133,0.799 -1.946,0.799zM169.782,338.921v0h7.83v0c0.24,0 0.44633,-0.08633 0.619,-0.259v0v0c0.172,-0.17267 0.258,-0.379 0.258,-0.619v0v-7.605v0c0,-0.24 -0.086,-0.44633 -0.258,-0.619v0v0c-0.17267,-0.172 -0.379,-0.258 -0.619,-0.258v0h-7.83v0c-0.24,0 -0.44633,0.086 -0.619,0.258v0v0c-0.17267,0.17267 -0.259,0.379 -0.259,0.619v0v7.605v0c0,0.24 0.08633,0.44633 0.259,0.619v0v0c0.17267,0.17267 0.379,0.259 0.619,0.259zM184.564,340.766h-1.867v-13.05h17.235v0c0.76467,0 1.40967,0.266 1.935,0.798v0v0c0.52467,0.53267 0.787,1.174 0.787,1.924v0v10.328h-1.822v-10.328v0c0,-0.24 -0.09,-0.44633 -0.27,-0.619v0v0c-0.18,-0.172 -0.39,-0.258 -0.63,-0.258v0h-5.423v0c-0.24,0 -0.446,0.086 -0.618,0.258v0v0c-0.17267,0.17267 -0.259,0.379 -0.259,0.619v0v10.328h-1.868v-10.328v0c0,-0.24 -0.086,-0.44633 -0.258,-0.619v0v0c-0.17267,-0.172 -0.379,-0.258 -0.619,-0.258v0h-5.445v0c-0.24,0 -0.44633,0.086 -0.619,0.258v0v0c-0.17267,0.17267 -0.259,0.379 -0.259,0.619v0zM206.547,345.941h-1.845v-18.225h10.575v0c0.75,0 1.39133,0.266 1.924,0.798v0v0c0.532,0.53267 0.798,1.174 0.798,1.924v0v7.605v0c0,0.75 -0.266,1.39133 -0.798,1.924v0v0c-0.53267,0.53267 -1.174,0.799 -1.924,0.799v0h-8.73zM207.447,338.921v0h7.83v0c0.24,0 0.44633,-0.08633 0.619,-0.259v0v0c0.172,-0.17267 0.258,-0.379 0.258,-0.619v0v-7.605v0c0,-0.24 -0.086,-0.44633 -0.258,-0.619v0v0c-0.17267,-0.172 -0.379,-0.258 -0.619,-0.258v0h-7.83v0c-0.24,0 -0.45,0.086 -0.63,0.258v0v0c-0.18,0.17267 -0.27,0.379 -0.27,0.619v0v7.605v0c0,0.24 0.09,0.44633 0.27,0.619v0v0c0.18,0.17267 0.39,0.259 0.63,0.259zM224.524,340.766h-2.205v0c-0.75,0 -1.391,-0.26633 -1.923,-0.799v0v0c-0.53267,-0.53267 -0.799,-1.174 -0.799,-1.924v0v-14.602h1.845v14.602v0c0,0.24 0.08633,0.44633 0.259,0.619v0v0c0.172,0.17267 0.378,0.259 0.618,0.259v0h2.205zM239.329,340.766h-10.575v0c-0.75,0 -1.391,-0.26633 -1.923,-0.799v0v0c-0.53267,-0.53267 -0.799,-1.174 -0.799,-1.924v0v-7.605v0c0,-0.75 0.26633,-1.39133 0.799,-1.924v0v0c0.532,-0.532 1.173,-0.798 1.923,-0.798v0h7.83v0c0.76533,0 1.41433,0.266 1.947,0.798v0v0c0.532,0.53267 0.798,1.174 0.798,1.924v0v4.725h-11.452v2.88v0c0,0.24 0.08633,0.44633 0.259,0.619v0v0c0.172,0.17267 0.378,0.259 0.618,0.259v0h10.575zM227.877,330.438v2.88h9.585v-2.88v0c0,-0.24 -0.08633,-0.44633 -0.259,-0.619v0v0c-0.17267,-0.172 -0.379,-0.258 -0.619,-0.258v0h-7.83v0c-0.24,0 -0.446,0.086 -0.618,0.258v0v0c-0.17267,0.17267 -0.259,0.379 -0.259,0.619zM243.537,340.766h-2.43v-0.023l5.445,-6.615l-5.445,-6.39v-0.022h2.43l4.23,4.95l4.252,-4.95h2.408v0.022l-5.445,6.39l5.467,6.615v0.023h-2.43l-4.252,-5.22zM75.462,340.766h-10.575v0c-0.75,0 -1.39133,-0.26633 -1.924,-0.799v0v0c-0.53267,-0.53267 -0.799,-1.174 -0.799,-1.924v0v-7.605v0c0,-0.75 0.26633,-1.39133 0.799,-1.924v0v0c0.53267,-0.532 1.174,-0.798 1.924,-0.798v0h10.53v1.845h-10.53v0c-0.24,0 -0.44633,0.086 -0.619,0.258v0v0c-0.17267,0.17267 -0.259,0.379 -0.259,0.619v0v7.605v0c0,0.24 0.08633,0.44633 0.259,0.619v0v0c0.17267,0.17267 0.379,0.259 0.619,0.259v0h10.575zM79.669,340.766h-1.845v-10.328v0c0,-0.75 0.26633,-1.39133 0.799,-1.924v0v0c0.53267,-0.532 1.174,-0.798 1.924,-0.798v0h7.335v1.845h-7.335v0c-0.24,0 -0.44633,0.086 -0.619,0.258v0v0c-0.17267,0.17267 -0.259,0.379 -0.259,0.619v0zM102.619,340.766h-10.575v0c-0.75,0 -1.391,-0.26633 -1.923,-0.799v0v0c-0.53267,-0.53267 -0.799,-1.174 -0.799,-1.924v0v-7.605v0c0,-0.75 0.26633,-1.39133 0.799,-1.924v0v0c0.532,-0.532 1.173,-0.798 1.923,-0.798v0h7.83v0c0.76533,0 1.41433,0.266 1.947,0.798v0v0c0.532,0.53267 0.798,1.174 0.798,1.924v0v4.725h-11.452v2.88v0c0,0.24 0.08633,0.44633 0.259,0.619v0v0c0.172,0.17267 0.378,0.259 0.618,0.259v0h10.575zM91.167,330.438v2.88h9.585v-2.88v0c0,-0.24 -0.08633,-0.44633 -0.259,-0.619v0v0c-0.17267,-0.172 -0.379,-0.258 -0.619,-0.258v0h-7.83v0c-0.24,0 -0.446,0.086 -0.618,0.258v0v0c-0.17267,0.17267 -0.259,0.379 -0.259,0.619zM118.212,340.766h-10.575v0c-0.75,0 -1.39133,-0.26633 -1.924,-0.799v0v0c-0.53267,-0.53267 -0.799,-1.174 -0.799,-1.924v0v-4.725h11.43v-2.88v0c0,-0.24 -0.086,-0.44633 -0.258,-0.619v0v0c-0.17267,-0.172 -0.379,-0.258 -0.619,-0.258v0h-10.553v-1.845h10.553v0c0.76467,0 1.41333,0.266 1.946,0.798v0v0c0.53267,0.53267 0.799,1.174 0.799,1.924v0zM107.637,338.921v0h8.707v-3.758h-9.585v2.88v0c0,0.24 0.08633,0.44633 0.259,0.619v0v0c0.17267,0.17267 0.379,0.259 0.619,0.259zM128.044,340.766h-4.77v0c-0.76467,0 -1.40967,-0.26633 -1.935,-0.799v0v0c-0.52467,-0.53267 -0.787,-1.174 -0.787,-1.924v0v-14.602h1.845v4.275h5.647v1.845h-5.647v8.482v0c0,0.24 0.08633,0.44633 0.259,0.619v0v0c0.172,0.17267 0.378,0.259 0.618,0.259v0h4.77zM143.029,340.766h-10.575v0c-0.75,0 -1.391,-0.26633 -1.923,-0.799v0v0c-0.53267,-0.53267 -0.799,-1.174 -0.799,-1.924v0v-7.605v0c0,-0.75 0.26633,-1.39133 0.799,-1.924v0v0c0.532,-0.532 1.173,-0.798 1.923,-0.798v0h7.83v0c0.76533,0 1.41433,0.266 1.947,0.798v0v0c0.532,0.53267 0.798,1.174 0.798,1.924v0v4.725h-11.452v2.88v0c0,0.24 0.08633,0.44633 0.259,0.619v0v0c0.172,0.17267 0.378,0.259 0.618,0.259v0h10.575zM131.577,330.438v2.88h9.585v-2.88v0c0,-0.24 -0.08633,-0.44633 -0.259,-0.619v0v0c-0.17267,-0.172 -0.379,-0.258 -0.619,-0.258v0h-7.83v0c-0.24,0 -0.446,0.086 -0.618,0.258v0v0c-0.17267,0.17267 -0.259,0.379 -0.259,0.619zM314.277,312.551h-4.77v0c-0.76533,0 -1.41033,-0.26633 -1.935,-0.799v0v0c-0.52533,-0.53267 -0.788,-1.174 -0.788,-1.924v0v-14.602h1.845v4.275h5.648v1.845h-5.648v8.482v0c0,0.24 0.08633,0.44633 0.259,0.619v0v0c0.17267,0.17267 0.379,0.259 0.619,0.259v0h4.77zM326.517,312.551h-7.83v0c-0.75,0 -1.39133,-0.26633 -1.924,-0.799v0v0c-0.53267,-0.53267 -0.799,-1.174 -0.799,-1.924v0v-7.605v0c0,-0.75 0.26633,-1.39133 0.799,-1.924v0v0c0.53267,-0.532 1.174,-0.798 1.924,-0.798v0h7.83v0c0.76467,0 1.41333,0.266 1.946,0.798v0v0c0.53267,0.53267 0.799,1.174 0.799,1.924v0v7.605v0c0,0.75 -0.26633,1.39133 -0.799,1.924v0v0c-0.53267,0.53267 -1.18133,0.799 -1.946,0.799zM318.687,310.706v0h7.83v0c0.24,0 0.44633,-0.08633 0.619,-0.259v0v0c0.172,-0.17267 0.258,-0.379 0.258,-0.619v0v-7.605v0c0,-0.24 -0.086,-0.44633 -0.258,-0.619v0v0c-0.17267,-0.172 -0.379,-0.258 -0.619,-0.258v0h-7.83v0c-0.24,0 -0.44633,0.086 -0.619,0.258v0v0c-0.17267,0.17267 -0.259,0.379 -0.259,0.619v0v7.605v0c0,0.24 0.08633,0.44633 0.259,0.619v0v0c0.17267,0.17267 0.379,0.259 0.619,0.259zM208.122,312.551h-10.575v0c-0.75,0 -1.39133,-0.26633 -1.924,-0.799v0v0c-0.53267,-0.53267 -0.799,-1.174 -0.799,-1.924v0v-7.605v0c0,-0.75 0.26633,-1.39133 0.799,-1.924v0v0c0.53267,-0.532 1.174,-0.798 1.924,-0.798v0h10.53v1.845h-10.53v0c-0.24,0 -0.44633,0.086 -0.619,0.258v0v0c-0.17267,0.17267 -0.259,0.379 -0.259,0.619v0v7.605v0c0,0.24 0.08633,0.44633 0.259,0.619v0v0c0.17267,0.17267 0.379,0.259 0.619,0.259v0h10.575zM221.014,312.551h-7.83v0c-0.75,0 -1.391,-0.26633 -1.923,-0.799v0v0c-0.53267,-0.53267 -0.799,-1.174 -0.799,-1.924v0v-7.605v0c0,-0.75 0.26633,-1.39133 0.799,-1.924v0v0c0.532,-0.532 1.173,-0.798 1.923,-0.798v0h7.83v0c0.76533,0 1.41433,0.266 1.947,0.798v0v0c0.532,0.53267 0.798,1.174 0.798,1.924v0v7.605v0c0,0.75 -0.266,1.39133 -0.798,1.924v0v0c-0.53267,0.53267 -1.18167,0.799 -1.947,0.799zM213.184,310.706v0h7.83v0c0.24,0 0.44633,-0.08633 0.619,-0.259v0v0c0.17267,-0.17267 0.259,-0.379 0.259,-0.619v0v-7.605v0c0,-0.24 -0.08633,-0.44633 -0.259,-0.619v0v0c-0.17267,-0.172 -0.379,-0.258 -0.619,-0.258v0h-7.83v0c-0.24,0 -0.446,0.086 -0.618,0.258v0v0c-0.17267,0.17267 -0.259,0.379 -0.259,0.619v0v7.605v0c0,0.24 0.08633,0.44633 0.259,0.619v0v0c0.172,0.17267 0.378,0.259 0.618,0.259zM239.127,312.551h-10.575v0c-0.75,0 -1.39133,-0.26633 -1.924,-0.799v0v0c-0.53267,-0.53267 -0.799,-1.174 -0.799,-1.924v0v-4.725h11.43v-2.88v0c0,-0.24 -0.086,-0.44633 -0.258,-0.619v0v0c-0.17267,-0.172 -0.379,-0.258 -0.619,-0.258v0h-10.553v-1.845h10.553v0c0.76467,0 1.41333,0.266 1.946,0.798v0v0c0.53267,0.53267 0.799,1.174 0.799,1.924v0zM228.552,310.706v0h8.707v-3.758h-9.585v2.88v0c0,0.24 0.08633,0.44633 0.259,0.619v0v0c0.17267,0.17267 0.379,0.259 0.619,0.259zM248.959,312.551h-4.77v0c-0.76467,0 -1.40967,-0.26633 -1.935,-0.799v0v0c-0.52467,-0.53267 -0.787,-1.174 -0.787,-1.924v0v-14.602h1.845v4.275h5.647v1.845h-5.647v8.482v0c0,0.24 0.08633,0.44633 0.259,0.619v0v0c0.172,0.17267 0.378,0.259 0.618,0.259v0h4.77zM252.627,312.551h-1.845v-13.05h1.845zM252.627,297.071h-1.845v-1.845h1.845zM257.014,312.551h-1.845v-13.05h10.575v0c0.75,0 1.39133,0.266 1.924,0.798v0v0c0.53267,0.53267 0.799,1.174 0.799,1.924v0v10.328h-1.845v-10.328v0c0,-0.24 -0.08633,-0.44633 -0.259,-0.619v0v0c-0.17267,-0.172 -0.379,-0.258 -0.619,-0.258v0h-7.83v0c-0.24,0 -0.45,0.086 -0.63,0.258v0v0c-0.18,0.17267 -0.27,0.379 -0.27,0.619v0zM281.089,317.703h-8.145v-1.867h8.145v0c0.24,0 0.44633,-0.08633 0.619,-0.259v0v0c0.17267,-0.17267 0.259,-0.379 0.259,-0.619v0v-2.407h-8.708v0c-0.75,0 -1.391,-0.26633 -1.923,-0.799v0v0c-0.53267,-0.53267 -0.799,-1.174 -0.799,-1.924v0v-7.605v0c0,-0.75 0.26633,-1.39133 0.799,-1.924v0v0c0.532,-0.532 1.173,-0.798 1.923,-0.798v0h7.83v0c0.76533,0 1.41033,0.266 1.935,0.798v0v0c0.52533,0.53267 0.788,1.174 0.788,1.924v0v12.735v0c0,0.76533 -0.26267,1.414 -0.788,1.946v0v0c-0.52467,0.53267 -1.16967,0.799 -1.935,0.799zM273.259,310.706v0h7.83v0c0.24,0 0.44633,-0.08633 0.619,-0.259v0v0c0.17267,-0.17267 0.259,-0.379 0.259,-0.619v0v-7.605v0c0,-0.24 -0.08633,-0.44633 -0.259,-0.619v0v0c-0.17267,-0.172 -0.379,-0.258 -0.619,-0.258v0h-7.83v0c-0.24,0 -0.446,0.086 -0.618,0.258v0v0c-0.17267,0.17267 -0.259,0.379 -0.259,0.619v0v7.605v0c0,0.24 0.08633,0.44633 0.259,0.619v0v0c0.172,0.17267 0.378,0.259 0.618,0.259zM296.142,312.551h-7.83v0c-0.75,0 -1.39133,-0.26633 -1.924,-0.799v0v0c-0.53267,-0.53267 -0.799,-1.174 -0.799,-1.924v0v-0.18h1.845v0.18v0c0,0.24 0.08633,0.44633 0.259,0.619v0v0c0.17267,0.17267 0.379,0.259 0.619,0.259v0h7.83v0c0.24,0 0.44633,-0.08633 0.619,-0.259v0v0c0.172,-0.17267 0.258,-0.379 0.258,-0.619v0v-2.002v0c0,-0.24 -0.086,-0.44633 -0.258,-0.619v0v0c-0.17267,-0.17267 -0.379,-0.259 -0.619,-0.259v0h-7.83v0c-0.75,0 -1.39133,-0.26633 -1.924,-0.799v0v0c-0.53267,-0.532 -0.799,-1.173 -0.799,-1.923v0v-2.003v0c0,-0.75 0.26633,-1.39133 0.799,-1.924v0v0c0.53267,-0.532 1.174,-0.798 1.924,-0.798v0h7.83v0c0.76467,0 1.41333,0.266 1.946,0.798v0v0c0.53267,0.53267 0.799,1.174 0.799,1.924v0v0.18h-1.868v-0.18v0c0,-0.24 -0.086,-0.44633 -0.258,-0.619v0v0c-0.17267,-0.172 -0.379,-0.258 -0.619,-0.258v0h-7.83v0c-0.24,0 -0.44633,0.086 -0.619,0.258v0v0c-0.17267,0.17267 -0.259,0.379 -0.259,0.619v0v2.003v0c0,0.24 0.08633,0.446 0.259,0.618v0v0c0.17267,0.17267 0.379,0.259 0.619,0.259v0h7.83v0c0.76467,0 1.41333,0.26633 1.946,0.799v0v0c0.53267,0.53267 0.799,1.174 0.799,1.924v0v2.002v0c0,0.75 -0.26633,1.39133 -0.799,1.924v0v0c-0.53267,0.53267 -1.18133,0.799 -1.946,0.799zM156.079,312.551h-10.575v0c-0.75,0 -1.391,-0.26633 -1.923,-0.799v0v0c-0.53267,-0.53267 -0.799,-1.174 -0.799,-1.924v0v-4.725h11.43v-2.88v0c0,-0.24 -0.08633,-0.44633 -0.259,-0.619v0v0c-0.17267,-0.172 -0.379,-0.258 -0.619,-0.258v0h-10.552v-1.845h10.552v0c0.76533,0 1.41433,0.266 1.947,0.798v0v0c0.532,0.53267 0.798,1.174 0.798,1.924v0zM145.504,310.706v0h8.708v-3.758h-9.585v2.88v0c0,0.24 0.08633,0.44633 0.259,0.619v0v0c0.172,0.17267 0.378,0.259 0.618,0.259zM159.949,312.551h-1.845v-13.05h10.575v0c0.75,0 1.39133,0.266 1.924,0.798v0v0c0.53267,0.53267 0.799,1.174 0.799,1.924v0v10.328h-1.845v-10.328v0c0,-0.24 -0.08633,-0.44633 -0.259,-0.619v0v0c-0.17267,-0.172 -0.379,-0.258 -0.619,-0.258v0h-7.83v0c-0.24,0 -0.45,0.086 -0.63,0.258v0v0c-0.18,0.17267 -0.27,0.379 -0.27,0.619v0zM186.364,312.551h-10.552v0c-0.76533,0 -1.414,-0.26633 -1.946,-0.799v0v0c-0.53267,-0.53267 -0.799,-1.174 -0.799,-1.924v0v-7.605v0c0,-0.75 0.26633,-1.39133 0.799,-1.924v0v0c0.532,-0.532 1.18067,-0.798 1.946,-0.798v0h8.707v-4.275h1.845zM175.812,310.706v0h7.83v0c0.24,0 0.44633,-0.08633 0.619,-0.259v0v0c0.172,-0.17267 0.258,-0.379 0.258,-0.619v0v-7.605v0c0,-0.24 -0.086,-0.44633 -0.258,-0.619v0v0c-0.17267,-0.172 -0.379,-0.258 -0.619,-0.258v0h-7.83v0c-0.24,0 -0.44633,0.086 -0.619,0.258v0v0c-0.17267,0.17267 -0.259,0.379 -0.259,0.619v0v7.605v0c0,0.24 0.08633,0.44633 0.259,0.619v0v0c0.17267,0.17267 0.379,0.259 0.619,0.259zM64.099,312.551h-1.867v-13.05h17.235v0c0.76467,0 1.40967,0.266 1.935,0.798v0v0c0.52467,0.53267 0.787,1.174 0.787,1.924v0v10.328h-1.822v-10.328v0c0,-0.24 -0.09,-0.44633 -0.27,-0.619v0v0c-0.18,-0.172 -0.39,-0.258 -0.63,-0.258v0h-5.423v0c-0.24,0 -0.446,0.086 -0.618,0.258v0v0c-0.17267,0.17267 -0.259,0.379 -0.259,0.619v0v10.328h-1.868v-10.328v0c0,-0.24 -0.086,-0.44633 -0.258,-0.619v0v0c-0.17267,-0.172 -0.379,-0.258 -0.619,-0.258v0h-5.445v0c-0.24,0 -0.44633,0.086 -0.619,0.258v0v0c-0.17267,0.17267 -0.259,0.379 -0.259,0.619v0zM94.722,312.551h-7.83v0c-0.75,0 -1.39133,-0.26633 -1.924,-0.799v0v0c-0.53267,-0.53267 -0.799,-1.174 -0.799,-1.924v0v-7.605v0c0,-0.75 0.26633,-1.39133 0.799,-1.924v0v0c0.53267,-0.532 1.174,-0.798 1.924,-0.798v0h7.83v0c0.76467,0 1.41333,0.266 1.946,0.798v0v0c0.53267,0.53267 0.799,1.174 0.799,1.924v0v7.605v0c0,0.75 -0.26633,1.39133 -0.799,1.924v0v0c-0.53267,0.53267 -1.18133,0.799 -1.946,0.799zM86.892,310.706v0h7.83v0c0.24,0 0.44633,-0.08633 0.619,-0.259v0v0c0.172,-0.17267 0.258,-0.379 0.258,-0.619v0v-7.605v0c0,-0.24 -0.086,-0.44633 -0.258,-0.619v0v0c-0.17267,-0.172 -0.379,-0.258 -0.619,-0.258v0h-7.83v0c-0.24,0 -0.44633,0.086 -0.619,0.258v0v0c-0.17267,0.17267 -0.259,0.379 -0.259,0.619v0v7.605v0c0,0.24 0.08633,0.44633 0.259,0.619v0v0c0.17267,0.17267 0.379,0.259 0.619,0.259zM104.239,312.551h-2.205v0c-0.75,0 -1.391,-0.26633 -1.923,-0.799v0v0c-0.53267,-0.53267 -0.799,-1.174 -0.799,-1.924v0v-14.602h1.845v14.602v0c0,0.24 0.08633,0.44633 0.259,0.619v0v0c0.172,0.17267 0.378,0.259 0.618,0.259v0h2.205zM118.864,312.551h-10.552v0c-0.76533,0 -1.414,-0.26633 -1.946,-0.799v0v0c-0.53267,-0.53267 -0.799,-1.174 -0.799,-1.924v0v-7.605v0c0,-0.75 0.26633,-1.39133 0.799,-1.924v0v0c0.532,-0.532 1.18067,-0.798 1.946,-0.798v0h8.707v-4.275h1.845zM108.312,310.706v0h7.83v0c0.24,0 0.44633,-0.08633 0.619,-0.259v0v0c0.172,-0.17267 0.258,-0.379 0.258,-0.619v0v-7.605v0c0,-0.24 -0.086,-0.44633 -0.258,-0.619v0v0c-0.17267,-0.172 -0.379,-0.258 -0.619,-0.258v0h-7.83v0c-0.24,0 -0.44633,0.086 -0.619,0.258v0v0c-0.17267,0.17267 -0.259,0.379 -0.259,0.619v0v7.605v0c0,0.24 0.08633,0.44633 0.259,0.619v0v0c0.17267,0.17267 0.379,0.259 0.619,0.259zM131.689,312.551h-7.83v0c-0.75,0 -1.391,-0.26633 -1.923,-0.799v0v0c-0.53267,-0.53267 -0.799,-1.174 -0.799,-1.924v0v-0.18h1.845v0.18v0c0,0.24 0.08633,0.44633 0.259,0.619v0v0c0.172,0.17267 0.378,0.259 0.618,0.259v0h7.83v0c0.24,0 0.44633,-0.08633 0.619,-0.259v0v0c0.17267,-0.17267 0.259,-0.379 0.259,-0.619v0v-2.002v0c0,-0.24 -0.08633,-0.44633 -0.259,-0.619v0v0c-0.17267,-0.17267 -0.379,-0.259 -0.619,-0.259v0h-7.83v0c-0.75,0 -1.391,-0.26633 -1.923,-0.799v0v0c-0.53267,-0.532 -0.799,-1.173 -0.799,-1.923v0v-2.003v0c0,-0.75 0.26633,-1.39133 0.799,-1.924v0v0c0.532,-0.532 1.173,-0.798 1.923,-0.798v0h7.83v0c0.76533,0 1.41433,0.266 1.947,0.798v0v0c0.532,0.53267 0.798,1.174 0.798,1.924v0v0.18h-1.867v-0.18v0c0,-0.24 -0.08633,-0.44633 -0.259,-0.619v0v0c-0.17267,-0.172 -0.379,-0.258 -0.619,-0.258v0h-7.83v0c-0.24,0 -0.446,0.086 -0.618,0.258v0v0c-0.17267,0.17267 -0.259,0.379 -0.259,0.619v0v2.003v0c0,0.24 0.08633,0.446 0.259,0.618v0v0c0.172,0.17267 0.378,0.259 0.618,0.259v0h7.83v0c0.76533,0 1.41433,0.26633 1.947,0.799v0v0c0.532,0.53267 0.798,1.174 0.798,1.924v0v2.002v0c0,0.75 -0.266,1.39133 -0.798,1.924v0v0c-0.53267,0.53267 -1.18167,0.799 -1.947,0.799zM277.129,284.336h-7.83v0c-0.75,0 -1.391,-0.26633 -1.923,-0.799v0v0c-0.53267,-0.53267 -0.799,-1.174 -0.799,-1.924v0v-0.18h1.845v0.18v0c0,0.24 0.08633,0.44633 0.259,0.619v0v0c0.172,0.17267 0.378,0.259 0.618,0.259v0h7.83v0c0.24,0 0.44633,-0.08633 0.619,-0.259v0v0c0.17267,-0.17267 0.259,-0.379 0.259,-0.619v0v-2.002v0c0,-0.24 -0.08633,-0.44633 -0.259,-0.619v0v0c-0.17267,-0.17267 -0.379,-0.259 -0.619,-0.259v0h-7.83v0c-0.75,0 -1.391,-0.26633 -1.923,-0.799v0v0c-0.53267,-0.532 -0.799,-1.173 -0.799,-1.923v0v-2.003v0c0,-0.75 0.26633,-1.39133 0.799,-1.924v0v0c0.532,-0.532 1.173,-0.798 1.923,-0.798v0h7.83v0c0.76533,0 1.41433,0.266 1.947,0.798v0v0c0.532,0.53267 0.798,1.174 0.798,1.924v0v0.18h-1.867v-0.18v0c0,-0.24 -0.08633,-0.44633 -0.259,-0.619v0v0c-0.17267,-0.172 -0.379,-0.258 -0.619,-0.258v0h-7.83v0c-0.24,0 -0.446,0.086 -0.618,0.258v0v0c-0.17267,0.17267 -0.259,0.379 -0.259,0.619v0v2.003v0c0,0.24 0.08633,0.446 0.259,0.618v0v0c0.172,0.17267 0.378,0.259 0.618,0.259v0h7.83v0c0.76533,0 1.41433,0.26633 1.947,0.799v0v0c0.532,0.53267 0.798,1.174 0.798,1.924v0v2.002v0c0,0.75 -0.266,1.39133 -0.798,1.924v0v0c-0.53267,0.53267 -1.18167,0.799 -1.947,0.799zM283.992,289.511h-1.845v-18.225h10.575v0c0.75,0 1.39133,0.266 1.924,0.798v0v0c0.532,0.53267 0.798,1.174 0.798,1.924v0v7.605v0c0,0.75 -0.266,1.39133 -0.798,1.924v0v0c-0.53267,0.53267 -1.174,0.799 -1.924,0.799v0h-8.73zM284.892,282.491v0h7.83v0c0.24,0 0.44633,-0.08633 0.619,-0.259v0v0c0.172,-0.17267 0.258,-0.379 0.258,-0.619v0v-7.605v0c0,-0.24 -0.086,-0.44633 -0.258,-0.619v0v0c-0.17267,-0.172 -0.379,-0.258 -0.619,-0.258v0h-7.83v0c-0.24,0 -0.45,0.086 -0.63,0.258v0v0c-0.18,0.17267 -0.27,0.379 -0.27,0.619v0v7.605v0c0,0.24 0.09,0.44633 0.27,0.619v0v0c0.18,0.17267 0.39,0.259 0.63,0.259zM310.317,284.336h-10.575v0c-0.75,0 -1.39133,-0.26633 -1.924,-0.799v0v0c-0.53267,-0.53267 -0.799,-1.174 -0.799,-1.924v0v-7.605v0c0,-0.75 0.26633,-1.39133 0.799,-1.924v0v0c0.53267,-0.532 1.174,-0.798 1.924,-0.798v0h7.83v0c0.76467,0 1.41333,0.266 1.946,0.798v0v0c0.53267,0.53267 0.799,1.174 0.799,1.924v0v4.725h-11.453v2.88v0c0,0.24 0.08633,0.44633 0.259,0.619v0v0c0.17267,0.17267 0.379,0.259 0.619,0.259v0h10.575zM298.864,274.008v2.88h9.585v-2.88v0c0,-0.24 -0.086,-0.44633 -0.258,-0.619v0v0c-0.17267,-0.172 -0.379,-0.258 -0.619,-0.258v0h-7.83v0c-0.24,0 -0.44633,0.086 -0.619,0.258v0v0c-0.17267,0.17267 -0.259,0.379 -0.259,0.619zM325.437,284.336h-10.575v0c-0.75,0 -1.39133,-0.26633 -1.924,-0.799v0v0c-0.53267,-0.53267 -0.799,-1.174 -0.799,-1.924v0v-7.605v0c0,-0.75 0.26633,-1.39133 0.799,-1.924v0v0c0.53267,-0.532 1.174,-0.798 1.924,-0.798v0h10.53v1.845h-10.53v0c-0.24,0 -0.44633,0.086 -0.619,0.258v0v0c-0.17267,0.17267 -0.259,0.379 -0.259,0.619v0v7.605v0c0,0.24 0.08633,0.44633 0.259,0.619v0v0c0.17267,0.17267 0.379,0.259 0.619,0.259v0h10.575zM329.644,284.336h-1.845v-13.05h1.845zM329.644,268.856h-1.845v-1.845h1.845zM344.989,284.336h-10.575v0c-0.75,0 -1.391,-0.26633 -1.923,-0.799v0v0c-0.53267,-0.53267 -0.799,-1.174 -0.799,-1.924v0v-4.725h11.43v-2.88v0c0,-0.24 -0.08633,-0.44633 -0.259,-0.619v0v0c-0.17267,-0.172 -0.379,-0.258 -0.619,-0.258v0h-10.552v-1.845h10.552v0c0.76533,0 1.41433,0.266 1.947,0.798v0v0c0.532,0.53267 0.798,1.174 0.798,1.924v0zM334.414,282.491v0h8.708v-3.758h-9.585v2.88v0c0,0.24 0.08633,0.44633 0.259,0.619v0v0c0.172,0.17267 0.378,0.259 0.618,0.259zM352.009,284.336h-2.205v0c-0.75,0 -1.391,-0.26633 -1.923,-0.799v0v0c-0.53267,-0.53267 -0.799,-1.174 -0.799,-1.924v0v-14.602h1.845v14.602v0c0,0.24 0.08633,0.44633 0.259,0.619v0v0c0.172,0.17267 0.378,0.259 0.618,0.259v0h2.205zM209.719,284.336h-7.83v0c-0.75,0 -1.391,-0.26633 -1.923,-0.799v0v0c-0.53267,-0.53267 -0.799,-1.174 -0.799,-1.924v0v-10.327h1.845v10.327v0c0,0.24 0.08633,0.44633 0.259,0.619v0v0c0.172,0.17267 0.378,0.259 0.618,0.259v0h7.83v0c0.24,0 0.45,-0.08633 0.63,-0.259v0v0c0.18,-0.17267 0.27,-0.379 0.27,-0.619v0v-10.327h1.845v10.327v0c0,0.75 -0.266,1.39133 -0.798,1.924v0v0c-0.53267,0.53267 -1.18167,0.799 -1.947,0.799zM224.907,284.336h-7.83v0c-0.75,0 -1.39133,-0.26633 -1.924,-0.799v0v0c-0.53267,-0.53267 -0.799,-1.174 -0.799,-1.924v0v-0.18h1.845v0.18v0c0,0.24 0.08633,0.44633 0.259,0.619v0v0c0.17267,0.17267 0.379,0.259 0.619,0.259v0h7.83v0c0.24,0 0.44633,-0.08633 0.619,-0.259v0v0c0.172,-0.17267 0.258,-0.379 0.258,-0.619v0v-2.002v0c0,-0.24 -0.086,-0.44633 -0.258,-0.619v0v0c-0.17267,-0.17267 -0.379,-0.259 -0.619,-0.259v0h-7.83v0c-0.75,0 -1.39133,-0.26633 -1.924,-0.799v0v0c-0.53267,-0.532 -0.799,-1.173 -0.799,-1.923v0v-2.003v0c0,-0.75 0.26633,-1.39133 0.799,-1.924v0v0c0.53267,-0.532 1.174,-0.798 1.924,-0.798v0h7.83v0c0.76467,0 1.41333,0.266 1.946,0.798v0v0c0.53267,0.53267 0.799,1.174 0.799,1.924v0v0.18h-1.868v-0.18v0c0,-0.24 -0.086,-0.44633 -0.258,-0.619v0v0c-0.17267,-0.172 -0.379,-0.258 -0.619,-0.258v0h-7.83v0c-0.24,0 -0.44633,0.086 -0.619,0.258v0v0c-0.17267,0.17267 -0.259,0.379 -0.259,0.619v0v2.003v0c0,0.24 0.08633,0.446 0.259,0.618v0v0c0.17267,0.17267 0.379,0.259 0.619,0.259v0h7.83v0c0.76467,0 1.41333,0.26633 1.946,0.799v0v0c0.53267,0.53267 0.799,1.174 0.799,1.924v0v2.002v0c0,0.75 -0.26633,1.39133 -0.799,1.924v0v0c-0.53267,0.53267 -1.18133,0.799 -1.946,0.799zM242.817,284.336h-10.575v0c-0.75,0 -1.39133,-0.26633 -1.924,-0.799v0v0c-0.53267,-0.53267 -0.799,-1.174 -0.799,-1.924v0v-7.605v0c0,-0.75 0.26633,-1.39133 0.799,-1.924v0v0c0.53267,-0.532 1.174,-0.798 1.924,-0.798v0h7.83v0c0.76467,0 1.41333,0.266 1.946,0.798v0v0c0.53267,0.53267 0.799,1.174 0.799,1.924v0v4.725h-11.453v2.88v0c0,0.24 0.08633,0.44633 0.259,0.619v0v0c0.17267,0.17267 0.379,0.259 0.619,0.259v0h10.575zM231.364,274.008v2.88h9.585v-2.88v0c0,-0.24 -0.086,-0.44633 -0.258,-0.619v0v0c-0.17267,-0.172 -0.379,-0.258 -0.619,-0.258v0h-7.83v0c-0.24,0 -0.44633,0.086 -0.619,0.258v0v0c-0.17267,0.17267 -0.259,0.379 -0.259,0.619zM255.574,284.336h-7.83v0c-0.75,0 -1.391,-0.26633 -1.923,-0.799v0v0c-0.53267,-0.53267 -0.799,-1.174 -0.799,-1.924v0v-0.18h1.845v0.18v0c0,0.24 0.08633,0.44633 0.259,0.619v0v0c0.172,0.17267 0.378,0.259 0.618,0.259v0h7.83v0c0.24,0 0.44633,-0.08633 0.619,-0.259v0v0c0.17267,-0.17267 0.259,-0.379 0.259,-0.619v0v-2.002v0c0,-0.24 -0.08633,-0.44633 -0.259,-0.619v0v0c-0.17267,-0.17267 -0.379,-0.259 -0.619,-0.259v0h-7.83v0c-0.75,0 -1.391,-0.26633 -1.923,-0.799v0v0c-0.53267,-0.532 -0.799,-1.173 -0.799,-1.923v0v-2.003v0c0,-0.75 0.26633,-1.39133 0.799,-1.924v0v0c0.532,-0.532 1.173,-0.798 1.923,-0.798v0h7.83v0c0.76533,0 1.41433,0.266 1.947,0.798v0v0c0.532,0.53267 0.798,1.174 0.798,1.924v0v0.18h-1.867v-0.18v0c0,-0.24 -0.08633,-0.44633 -0.259,-0.619v0v0c-0.17267,-0.172 -0.379,-0.258 -0.619,-0.258v0h-7.83v0c-0.24,0 -0.446,0.086 -0.618,0.258v0v0c-0.17267,0.17267 -0.259,0.379 -0.259,0.619v0v2.003v0c0,0.24 0.08633,0.446 0.259,0.618v0v0c0.172,0.17267 0.378,0.259 0.618,0.259v0h7.83v0c0.76533,0 1.41433,0.26633 1.947,0.799v0v0c0.532,0.53267 0.798,1.174 0.798,1.924v0v2.002v0c0,0.75 -0.266,1.39133 -0.798,1.924v0v0c-0.53267,0.53267 -1.18167,0.799 -1.947,0.799zM77.104,284.336h-14.782v-16.2h14.782v1.822h-12.96v5.355h10.418v1.845h-10.418v5.355h12.96zM92.697,284.336h-10.575v0c-0.75,0 -1.39133,-0.26633 -1.924,-0.799v0v0c-0.53267,-0.53267 -0.799,-1.174 -0.799,-1.924v0v-7.605v0c0,-0.75 0.26633,-1.39133 0.799,-1.924v0v0c0.53267,-0.532 1.174,-0.798 1.924,-0.798v0h10.53v1.845h-10.53v0c-0.24,0 -0.44633,0.086 -0.619,0.258v0v0c-0.17267,0.17267 -0.259,0.379 -0.259,0.619v0v7.605v0c0,0.24 0.08633,0.44633 0.259,0.619v0v0c0.17267,0.17267 0.379,0.259 0.619,0.259v0h10.575zM105.589,284.336h-7.83v0c-0.75,0 -1.391,-0.26633 -1.923,-0.799v0v0c-0.53267,-0.53267 -0.799,-1.174 -0.799,-1.924v0v-7.605v0c0,-0.75 0.26633,-1.39133 0.799,-1.924v0v0c0.532,-0.532 1.173,-0.798 1.923,-0.798v0h7.83v0c0.76533,0 1.41433,0.266 1.947,0.798v0v0c0.532,0.53267 0.798,1.174 0.798,1.924v0v7.605v0c0,0.75 -0.266,1.39133 -0.798,1.924v0v0c-0.53267,0.53267 -1.18167,0.799 -1.947,0.799zM97.759,282.491v0h7.83v0c0.24,0 0.44633,-0.08633 0.619,-0.259v0v0c0.17267,-0.17267 0.259,-0.379 0.259,-0.619v0v-7.605v0c0,-0.24 -0.08633,-0.44633 -0.259,-0.619v0v0c-0.17267,-0.172 -0.379,-0.258 -0.619,-0.258v0h-7.83v0c-0.24,0 -0.446,0.086 -0.618,0.258v0v0c-0.17267,0.17267 -0.259,0.379 -0.259,0.619v0v7.605v0c0,0.24 0.08633,0.44633 0.259,0.619v0v0c0.172,0.17267 0.378,0.259 0.618,0.259zM112.182,284.336h-1.845v-13.05h10.575v0c0.75,0 1.39133,0.266 1.924,0.798v0v0c0.532,0.53267 0.798,1.174 0.798,1.924v0v10.328h-1.845v-10.328v0c0,-0.24 -0.086,-0.44633 -0.258,-0.619v0v0c-0.17267,-0.172 -0.379,-0.258 -0.619,-0.258v0h-7.83v0c-0.24,0 -0.45,0.086 -0.63,0.258v0v0c-0.18,0.17267 -0.27,0.379 -0.27,0.619v0zM138.777,284.336h-10.575v0c-0.75,0 -1.39133,-0.26633 -1.924,-0.799v0v0c-0.53267,-0.53267 -0.799,-1.174 -0.799,-1.924v0v-7.605v0c0,-0.75 0.26633,-1.39133 0.799,-1.924v0v0c0.53267,-0.532 1.174,-0.798 1.924,-0.798v0h10.53v1.845h-10.53v0c-0.24,0 -0.44633,0.086 -0.619,0.258v0v0c-0.17267,0.17267 -0.259,0.379 -0.259,0.619v0v7.605v0c0,0.24 0.08633,0.44633 0.259,0.619v0v0c0.17267,0.17267 0.379,0.259 0.619,0.259v0h10.575zM142.984,284.336h-1.845v-10.328v0c0,-0.75 0.26633,-1.39133 0.799,-1.924v0v0c0.53267,-0.532 1.174,-0.798 1.924,-0.798v0h7.335v1.845h-7.335v0c-0.24,0 -0.44633,0.086 -0.619,0.258v0v0c-0.17267,0.17267 -0.259,0.379 -0.259,0.619v0zM165.934,284.336h-10.575v0c-0.75,0 -1.391,-0.26633 -1.923,-0.799v0v0c-0.53267,-0.53267 -0.799,-1.174 -0.799,-1.924v0v-7.605v0c0,-0.75 0.26633,-1.39133 0.799,-1.924v0v0c0.532,-0.532 1.173,-0.798 1.923,-0.798v0h7.83v0c0.76533,0 1.41433,0.266 1.947,0.798v0v0c0.532,0.53267 0.798,1.174 0.798,1.924v0v4.725h-11.452v2.88v0c0,0.24 0.08633,0.44633 0.259,0.619v0v0c0.172,0.17267 0.378,0.259 0.618,0.259v0h10.575zM154.482,274.008v2.88h9.585v-2.88v0c0,-0.24 -0.08633,-0.44633 -0.259,-0.619v0v0c-0.17267,-0.172 -0.379,-0.258 -0.619,-0.258v0h-7.83v0c-0.24,0 -0.446,0.086 -0.618,0.258v0v0c-0.17267,0.17267 -0.259,0.379 -0.259,0.619zM175.744,284.336h-4.77v0c-0.76467,0 -1.40967,-0.26633 -1.935,-0.799v0v0c-0.52467,-0.53267 -0.787,-1.174 -0.787,-1.924v0v-14.602h1.845v4.275h5.647v1.845h-5.647v8.482v0c0,0.24 0.08633,0.44633 0.259,0.619v0v0c0.172,0.17267 0.378,0.259 0.618,0.259v0h4.77zM190.729,284.336h-10.575v0c-0.75,0 -1.391,-0.26633 -1.923,-0.799v0v0c-0.53267,-0.53267 -0.799,-1.174 -0.799,-1.924v0v-7.605v0c0,-0.75 0.26633,-1.39133 0.799,-1.924v0v0c0.532,-0.532 1.173,-0.798 1.923,-0.798v0h7.83v0c0.76533,0 1.41433,0.266 1.947,0.798v0v0c0.532,0.53267 0.798,1.174 0.798,1.924v0v4.725h-11.452v2.88v0c0,0.24 0.08633,0.44633 0.259,0.619v0v0c0.172,0.17267 0.378,0.259 0.618,0.259v0h10.575zM179.277,274.008v2.88h9.585v-2.88v0c0,-0.24 -0.08633,-0.44633 -0.259,-0.619v0v0c-0.17267,-0.172 -0.379,-0.258 -0.619,-0.258v0h-7.83v0c-0.24,0 -0.446,0.086 -0.618,0.258v0v0c-0.17267,0.17267 -0.259,0.379 -0.259,0.619z" fill="#ffffff" stroke="none" stroke-width="1" stroke-linecap="butt" stroke-miterlimit="10"/><path d="M267.03,232.297h-2.43v-21.6h3.33l15.84,18.84v-18.84h2.43v21.6h-3.33l-15.84,-18.84zM307.17,232.297h-14.1v0c-1,0 -1.855,-0.355 -2.565,-1.065v0v0c-0.71,-0.71 -1.065,-1.565 -1.065,-2.565v0v-6.3h15.24v-3.84v0c0,-0.32 -0.115,-0.595 -0.345,-0.825v0v0c-0.23,-0.23 -0.505,-0.345 -0.825,-0.345v0h-14.07v-2.46h14.07v0c1.02,0 1.885,0.355 2.595,1.065v0v0c0.71,0.71 1.065,1.565 1.065,2.565v0zM293.07,229.837v0h11.61v-5.01h-12.78v3.84v0c0,0.32 0.115,0.595 0.345,0.825v0v0c0.23,0.23 0.505,0.345 0.825,0.345zM320.28,232.297h-6.36v0c-1.02,0 -1.88,-0.355 -2.58,-1.065v0v0c-0.7,-0.71 -1.05,-1.565 -1.05,-2.565v0v-19.47h2.46v5.7h7.53v2.46h-7.53v11.31v0c0,0.32 0.115,0.595 0.345,0.825v0v0c0.23,0.23 0.505,0.345 0.825,0.345v0h6.36zM336.66,232.297h-10.44v0c-1,0 -1.855,-0.355 -2.565,-1.065v0v0c-0.71,-0.71 -1.065,-1.565 -1.065,-2.565v0v-13.77h2.46v13.77v0c0,0.32 0.115,0.595 0.345,0.825v0v0c0.23,0.23 0.505,0.345 0.825,0.345v0h10.44v0c0.32,0 0.6,-0.115 0.84,-0.345v0v0c0.24,-0.23 0.36,-0.505 0.36,-0.825v0v-13.77h2.46v13.77v0c0,1 -0.355,1.855 -1.065,2.565v0v0c-0.71,0.71 -1.575,1.065 -2.595,1.065zM345.87,232.297h-2.46v-13.77v0c0,-1 0.355,-1.855 1.065,-2.565v0v0c0.71,-0.71 1.565,-1.065 2.565,-1.065v0h9.78v2.46h-9.78v0c-0.32,0 -0.595,0.115 -0.825,0.345v0v0c-0.23,0.23 -0.345,0.505 -0.345,0.825v0zM376.47,232.297h-14.1v0c-1,0 -1.855,-0.355 -2.565,-1.065v0v0c-0.71,-0.71 -1.065,-1.565 -1.065,-2.565v0v-10.14v0c0,-1 0.355,-1.855 1.065,-2.565v0v0c0.71,-0.71 1.565,-1.065 2.565,-1.065v0h10.44v0c1.02,0 1.885,0.355 2.595,1.065v0v0c0.71,0.71 1.065,1.565 1.065,2.565v0v6.3h-15.27v3.84v0c0,0.32 0.115,0.595 0.345,0.825v0v0c0.23,0.23 0.505,0.345 0.825,0.345v0h14.1zM361.2,218.527v3.84h12.78v-3.84v0c0,-0.32 -0.115,-0.595 -0.345,-0.825v0v0c-0.23,-0.23 -0.505,-0.345 -0.825,-0.345v0h-10.44v0c-0.32,0 -0.595,0.115 -0.825,0.345v0v0c-0.23,0.23 -0.345,0.505 -0.345,0.825zM211.08,232.297h-2.46v-19.47v0c0,-1.02 0.35,-1.88 1.05,-2.58v0v0c0.7,-0.7 1.56,-1.05 2.58,-1.05v0h6.36v2.46h-6.36v0c-0.32,0 -0.595,0.115 -0.825,0.345v0v0c-0.23,0.23 -0.345,0.505 -0.345,0.825v0v2.07h7.53v2.46h-7.53zM234.84,232.297h-10.44v0c-1,0 -1.855,-0.355 -2.565,-1.065v0v0c-0.71,-0.71 -1.065,-1.565 -1.065,-2.565v0v-10.14v0c0,-1 0.355,-1.855 1.065,-2.565v0v0c0.71,-0.71 1.565,-1.065 2.565,-1.065v0h10.44v0c1.02,0 1.885,0.355 2.595,1.065v0v0c0.71,0.71 1.065,1.565 1.065,2.565v0v10.14v0c0,1 -0.355,1.855 -1.065,2.565v0v0c-0.71,0.71 -1.575,1.065 -2.595,1.065zM224.4,229.837v0h10.44v0c0.32,0 0.595,-0.115 0.825,-0.345v0v0c0.23,-0.23 0.345,-0.505 0.345,-0.825v0v-10.14v0c0,-0.32 -0.115,-0.595 -0.345,-0.825v0v0c-0.23,-0.23 -0.505,-0.345 -0.825,-0.345v0h-10.44v0c-0.32,0 -0.595,0.115 -0.825,0.345v0v0c-0.23,0.23 -0.345,0.505 -0.345,0.825v0v10.14v0c0,0.32 0.115,0.595 0.345,0.825v0v0c0.23,0.23 0.505,0.345 0.825,0.345zM243.72,232.297h-2.46v-13.77v0c0,-1 0.355,-1.855 1.065,-2.565v0v0c0.71,-0.71 1.565,-1.065 2.565,-1.065v0h9.78v2.46h-9.78v0c-0.32,0 -0.595,0.115 -0.825,0.345v0v0c-0.23,0.23 -0.345,0.505 -0.345,0.825v0zM219.915,194.677h-19.71v-21.6h19.71v2.43h-17.28v7.14h13.89v2.46h-13.89v7.14h17.28zM225.525,194.677h-2.46v-17.4h14.1v0c1,0 1.855,0.355 2.565,1.065v0v0c0.71,0.71 1.065,1.565 1.065,2.565v0v13.77h-2.46v-13.77v0c0,-0.32 -0.115,-0.595 -0.345,-0.825v0v0c-0.23,-0.23 -0.505,-0.345 -0.825,-0.345v0h-10.44v0c-0.32,0 -0.6,0.115 -0.84,0.345v0v0c-0.24,0.23 -0.36,0.505 -0.36,0.825v0zM257.625,201.547h-10.86v-2.49h10.86v0c0.32,0 0.595,-0.115 0.825,-0.345v0v0c0.23,-0.23 0.345,-0.505 0.345,-0.825v0v-3.21h-11.61v0c-1,0 -1.855,-0.355 -2.565,-1.065v0v0c-0.71,-0.71 -1.065,-1.565 -1.065,-2.565v0v-10.14v0c0,-1 0.355,-1.855 1.065,-2.565v0v0c0.71,-0.71 1.565,-1.065 2.565,-1.065v0h10.44v0c1.02,0 1.88,0.355 2.58,1.065v0v0c0.7,0.71 1.05,1.565 1.05,2.565v0v16.98v0c0,1.02 -0.35,1.885 -1.05,2.595v0v0c-0.7,0.71 -1.56,1.065 -2.58,1.065zM247.185,192.217v0h10.44v0c0.32,0 0.595,-0.115 0.825,-0.345v0v0c0.23,-0.23 0.345,-0.505 0.345,-0.825v0v-10.14v0c0,-0.32 -0.115,-0.595 -0.345,-0.825v0v0c-0.23,-0.23 -0.505,-0.345 -0.825,-0.345v0h-10.44v0c-0.32,0 -0.595,0.115 -0.825,0.345v0v0c-0.23,0.23 -0.345,0.505 -0.345,0.825v0v10.14v0c0,0.32 0.115,0.595 0.345,0.825v0v0c0.23,0.23 0.505,0.345 0.825,0.345zM266.835,194.677h-2.46v-17.4h2.46zM266.835,174.037h-2.46v-2.46h2.46zM272.685,194.677h-2.46v-17.4h14.1v0c1,0 1.855,0.355 2.565,1.065v0v0c0.71,0.71 1.065,1.565 1.065,2.565v0v13.77h-2.46v-13.77v0c0,-0.32 -0.115,-0.595 -0.345,-0.825v0v0c-0.23,-0.23 -0.505,-0.345 -0.825,-0.345v0h-10.44v0c-0.32,0 -0.6,0.115 -0.84,0.345v0v0c-0.24,0.23 -0.36,0.505 -0.36,0.825v0zM308.745,194.677h-14.1v0c-1,0 -1.855,-0.355 -2.565,-1.065v0v0c-0.71,-0.71 -1.065,-1.565 -1.065,-2.565v0v-10.14v0c0,-1 0.355,-1.855 1.065,-2.565v0v0c0.71,-0.71 1.565,-1.065 2.565,-1.065v0h10.44v0c1.02,0 1.885,0.355 2.595,1.065v0v0c0.71,0.71 1.065,1.565 1.065,2.565v0v6.3h-15.27v3.84v0c0,0.32 0.115,0.595 0.345,0.825v0v0c0.23,0.23 0.505,0.345 0.825,0.345v0h14.1zM293.475,180.907v3.84h12.78v-3.84v0c0,-0.32 -0.115,-0.595 -0.345,-0.825v0v0c-0.23,-0.23 -0.505,-0.345 -0.825,-0.345v0h-10.44v0c-0.32,0 -0.595,0.115 -0.825,0.345v0v0c-0.23,0.23 -0.345,0.505 -0.345,0.825zM329.055,194.677h-14.1v0c-1,0 -1.855,-0.355 -2.565,-1.065v0v0c-0.71,-0.71 -1.065,-1.565 -1.065,-2.565v0v-10.14v0c0,-1 0.355,-1.855 1.065,-2.565v0v0c0.71,-0.71 1.565,-1.065 2.565,-1.065v0h10.44v0c1.02,0 1.885,0.355 2.595,1.065v0v0c0.71,0.71 1.065,1.565 1.065,2.565v0v6.3h-15.27v3.84v0c0,0.32 0.115,0.595 0.345,0.825v0v0c0.23,0.23 0.505,0.345 0.825,0.345v0h14.1zM313.785,180.907v3.84h12.78v-3.84v0c0,-0.32 -0.115,-0.595 -0.345,-0.825v0v0c-0.23,-0.23 -0.505,-0.345 -0.825,-0.345v0h-10.44v0c-0.32,0 -0.595,0.115 -0.825,0.345v0v0c-0.23,0.23 -0.345,0.505 -0.345,0.825zM334.425,194.677h-2.46v-13.77v0c0,-1 0.355,-1.855 1.065,-2.565v0v0c0.71,-0.71 1.565,-1.065 2.565,-1.065v0h9.78v2.46h-9.78v0c-0.32,0 -0.595,0.115 -0.825,0.345v0v0c-0.23,0.23 -0.345,0.505 -0.345,0.825v0zM365.025,194.677h-14.1v0c-1,0 -1.855,-0.355 -2.565,-1.065v0v0c-0.71,-0.71 -1.065,-1.565 -1.065,-2.565v0v-10.14v0c0,-1 0.355,-1.855 1.065,-2.565v0v0c0.71,-0.71 1.565,-1.065 2.565,-1.065v0h10.44v0c1.02,0 1.885,0.355 2.595,1.065v0v0c0.71,0.71 1.065,1.565 1.065,2.565v0v6.3h-15.27v3.84v0c0,0.32 0.115,0.595 0.345,0.825v0v0c0.23,0.23 0.505,0.345 0.825,0.345v0h14.1zM349.755,180.907v3.84h12.78v-3.84v0c0,-0.32 -0.115,-0.595 -0.345,-0.825v0v0c-0.23,-0.23 -0.505,-0.345 -0.825,-0.345v0h-10.44v0c-0.32,0 -0.595,0.115 -0.825,0.345v0v0c-0.23,0.23 -0.345,0.505 -0.345,0.825zM384.945,194.677h-14.07v0c-1.02,0 -1.885,-0.355 -2.595,-1.065v0v0c-0.71,-0.71 -1.065,-1.565 -1.065,-2.565v0v-10.14v0c0,-1 0.355,-1.855 1.065,-2.565v0v0c0.71,-0.71 1.575,-1.065 2.595,-1.065v0h11.61v-5.7h2.46zM370.875,192.217v0h10.44v0c0.32,0 0.595,-0.115 0.825,-0.345v0v0c0.23,-0.23 0.345,-0.505 0.345,-0.825v0v-10.14v0c0,-0.32 -0.115,-0.595 -0.345,-0.825v0v0c-0.23,-0.23 -0.505,-0.345 -0.825,-0.345v0h-10.44v0c-0.32,0 -0.595,0.115 -0.825,0.345v0v0c-0.23,0.23 -0.345,0.505 -0.345,0.825v0v10.14v0c0,0.32 0.115,0.595 0.345,0.825v0v0c0.23,0.23 0.505,0.345 0.825,0.345z" fill="#ffffff" stroke="none" stroke-width="1" stroke-linecap="butt" stroke-miterlimit="10"/></g></g></svg>