<svg version="1.1" xmlns="http://www.w3.org/2000/svg" xmlns:xlink="http://www.w3.org/1999/xlink" width="389.966" height="308.824" viewBox="0,0,389.966,308.824"><g transform="translate(-45.017,-135.588)"><g data-paper-data="{&quot;isPaintingLayer&quot;:true}" fill-rule="nonzero" stroke-linecap="butt" stroke-linejoin="miter" stroke-miterlimit="10" stroke-dasharray="" stroke-dashoffset="0" style="mix-blend-mode: normal"><path d="M46.267,443.162v-306.324h387.466v306.324z" fill-opacity="0.8" fill="#000000" stroke="#ffffff" stroke-width="2.5"/><path d="M309.2,416.537h-11.75v0c-0.83333,0 -1.546,-0.29567 -2.138,-0.887v0v0c-0.59133,-0.592 -0.887,-1.30467 -0.887,-2.138v0v-8.45v0c0,-0.83333 0.29567,-1.54567 0.887,-2.137v0v0c0.592,-0.592 1.30467,-0.888 2.138,-0.888v0h11.7v2.05h-11.7v0c-0.26667,0 -0.496,0.096 -0.688,0.288v0v0c-0.19133,0.19133 -0.287,0.42033 -0.287,0.687v0v8.45v0c0,0.26667 0.09567,0.496 0.287,0.688v0v0c0.192,0.19133 0.42133,0.287 0.688,0.287v0h11.75v2.05zM313.875,416.537h-2.05v-11.475v0c0,-0.83333 0.29567,-1.54567 0.887,-2.137v0v0c0.592,-0.592 1.30467,-0.888 2.138,-0.888v0h8.15v2.05h-8.15v0c-0.26667,0 -0.496,0.096 -0.688,0.288v0v0c-0.19133,0.19133 -0.287,0.42033 -0.287,0.687v0v11.475zM339.375,416.537h-11.75v0c-0.83333,0 -1.546,-0.29567 -2.138,-0.887v0v0c-0.59133,-0.592 -0.887,-1.30467 -0.887,-2.138v0v-8.45v0c0,-0.83333 0.29567,-1.54567 0.887,-2.137v0v0c0.592,-0.592 1.30467,-0.888 2.138,-0.888v0h8.7v0c0.85,0 1.57067,0.296 2.162,0.888v0v0c0.592,0.59133 0.888,1.30367 0.888,2.137v0v5.25h-12.725v3.2v0c0,0.26667 0.09567,0.496 0.287,0.688v0v0c0.192,0.19133 0.42133,0.287 0.688,0.287v0h11.75v2.05zM326.65,405.062v3.2h10.65v-3.2v0c0,-0.26667 -0.096,-0.49567 -0.288,-0.687v0v0c-0.19133,-0.192 -0.42033,-0.288 -0.687,-0.288v0h-8.7v0c-0.26667,0 -0.496,0.096 -0.688,0.288v0v0c-0.19133,0.19133 -0.287,0.42033 -0.287,0.687v0zM355.975,416.537h-11.725v0c-0.85,0 -1.571,-0.29567 -2.163,-0.887v0v0c-0.59133,-0.592 -0.887,-1.30467 -0.887,-2.138v0v-8.45v0c0,-0.83333 0.29567,-1.54567 0.887,-2.137v0v0c0.592,-0.592 1.313,-0.888 2.163,-0.888v0h9.675v-4.75h2.05v19.25zM344.25,414.487v0h8.7v0c0.26667,0 0.49567,-0.09567 0.687,-0.287v0v0c0.192,-0.192 0.288,-0.42133 0.288,-0.688v0v-8.45v0c0,-0.26667 -0.096,-0.49567 -0.288,-0.687v0v0c-0.19133,-0.192 -0.42033,-0.288 -0.687,-0.288v0h-8.7v0c-0.26667,0 -0.496,0.096 -0.688,0.288v0v0c-0.19133,0.19133 -0.287,0.42033 -0.287,0.687v0v8.45v0c0,0.26667 0.09567,0.496 0.287,0.688v0v0c0.192,0.19133 0.42133,0.287 0.688,0.287zM360.65,416.537h-2.05v-14.5h2.05v14.5zM360.65,399.337h-2.05v-2.05h2.05v2.05zM372.15,416.537h-5.3v0c-0.85,0 -1.56667,-0.29567 -2.15,-0.887v0v0c-0.58333,-0.592 -0.875,-1.30467 -0.875,-2.138v0v-16.225h2.05v4.75h6.275v2.05h-6.275v9.425v0c0,0.26667 0.09567,0.496 0.287,0.688v0v0c0.192,0.19133 0.42133,0.287 0.688,0.287v0h5.3v2.05zM385.675,416.537h-8.7v0c-0.83333,0 -1.546,-0.29567 -2.138,-0.887v0v0c-0.59133,-0.592 -0.887,-1.30467 -0.887,-2.138v0v-0.2h2.05v0.2v0c0,0.26667 0.09567,0.496 0.287,0.688v0v0c0.192,0.19133 0.42133,0.287 0.688,0.287v0h8.7v0c0.26667,0 0.49567,-0.09567 0.687,-0.287v0v0c0.192,-0.192 0.288,-0.42133 0.288,-0.688v0v-2.225v0c0,-0.26667 -0.096,-0.49567 -0.288,-0.687v0v0c-0.19133,-0.192 -0.42033,-0.288 -0.687,-0.288v0h-8.7v0c-0.83333,0 -1.546,-0.29567 -2.138,-0.887v0v0c-0.59133,-0.592 -0.887,-1.30467 -0.887,-2.138v0v-2.225v0c0,-0.83333 0.29567,-1.54567 0.887,-2.137v0v0c0.592,-0.592 1.30467,-0.888 2.138,-0.888v0h8.7v0c0.85,0 1.57067,0.296 2.162,0.888v0v0c0.592,0.59133 0.888,1.30367 0.888,2.137v0v0.2h-2.075v-0.2v0c0,-0.26667 -0.096,-0.49567 -0.288,-0.687v0v0c-0.19133,-0.192 -0.42033,-0.288 -0.687,-0.288v0h-8.7v0c-0.26667,0 -0.496,0.096 -0.688,0.288v0v0c-0.19133,0.19133 -0.287,0.42033 -0.287,0.687v0v2.225v0c0,0.26667 0.09567,0.496 0.287,0.688v0v0c0.192,0.19133 0.42133,0.287 0.688,0.287v0h8.7v0c0.85,0 1.57067,0.296 2.162,0.888v0v0c0.592,0.59133 0.888,1.30367 0.888,2.137v0v2.225v0c0,0.83333 -0.296,1.546 -0.888,2.138v0v0c-0.59133,0.59133 -1.312,0.887 -2.162,0.887v0zM393.4,411.462h-2.05v-12.925h2.05v12.925zM393.4,416.537h-2.05v-2.05h2.05v2.05zM251.625,416.537h-5.3v0c-0.85,0 -1.56667,-0.29567 -2.15,-0.887v0v0c-0.58333,-0.592 -0.875,-1.30467 -0.875,-2.138v0v-16.225h2.05v4.75h6.275v2.05h-6.275v9.425v0c0,0.26667 0.09567,0.496 0.287,0.688v0v0c0.192,0.19133 0.42133,0.287 0.688,0.287v0h5.3v2.05zM255.75,416.537h-2.05v-19.25h2.05v4.75h9.7v0c0.81667,0 1.525,0.296 2.125,0.888v0v0c0.6,0.59133 0.9,1.30367 0.9,2.137v0v11.475h-2.05v-11.475v0c0,-0.26667 -0.096,-0.49567 -0.288,-0.687v0v0c-0.19133,-0.192 -0.42033,-0.288 -0.687,-0.288v0h-8.7v0c-0.26667,0 -0.5,0.096 -0.7,0.288v0v0c-0.2,0.19133 -0.3,0.42033 -0.3,0.687v0v11.475zM285.1,416.537h-11.75v0c-0.83333,0 -1.546,-0.29567 -2.138,-0.887v0v0c-0.59133,-0.592 -0.887,-1.30467 -0.887,-2.138v0v-8.45v0c0,-0.83333 0.29567,-1.54567 0.887,-2.137v0v0c0.592,-0.592 1.30467,-0.888 2.138,-0.888v0h8.7v0c0.85,0 1.57067,0.296 2.162,0.888v0v0c0.592,0.59133 0.888,1.30367 0.888,2.137v0v5.25h-12.725v3.2v0c0,0.26667 0.09567,0.496 0.287,0.688v0v0c0.192,0.19133 0.42133,0.287 0.688,0.287v0h11.75v2.05zM272.375,405.062v3.2h10.65v-3.2v0c0,-0.26667 -0.096,-0.49567 -0.288,-0.687v0v0c-0.19133,-0.192 -0.42033,-0.288 -0.687,-0.288v0h-8.7v0c-0.26667,0 -0.496,0.096 -0.688,0.288v0v0c-0.19133,0.19133 -0.287,0.42033 -0.287,0.687v0zM217.275,416.537h-5.3v0c-0.85,0 -1.56667,-0.29567 -2.15,-0.887v0v0c-0.58333,-0.592 -0.875,-1.30467 -0.875,-2.138v0v-16.225h2.05v4.75h6.275v2.05h-6.275v9.425v0c0,0.26667 0.09567,0.496 0.287,0.688v0v0c0.192,0.19133 0.42133,0.287 0.688,0.287v0h5.3v2.05zM230.875,416.537h-8.7v0c-0.83333,0 -1.546,-0.29567 -2.138,-0.887v0v0c-0.59133,-0.592 -0.887,-1.30467 -0.887,-2.138v0v-8.45v0c0,-0.83333 0.29567,-1.54567 0.887,-2.137v0v0c0.592,-0.592 1.30467,-0.888 2.138,-0.888v0h8.7v0c0.85,0 1.57067,0.296 2.162,0.888v0v0c0.592,0.59133 0.888,1.30367 0.888,2.137v0v8.45v0c0,0.83333 -0.296,1.546 -0.888,2.138v0v0c-0.59133,0.59133 -1.312,0.887 -2.162,0.887v0zM222.175,414.487v0h8.7v0c0.26667,0 0.49567,-0.09567 0.687,-0.287v0v0c0.192,-0.192 0.288,-0.42133 0.288,-0.688v0v-8.45v0c0,-0.26667 -0.096,-0.49567 -0.288,-0.687v0v0c-0.19133,-0.192 -0.42033,-0.288 -0.687,-0.288v0h-8.7v0c-0.26667,0 -0.496,0.096 -0.688,0.288v0v0c-0.19133,0.19133 -0.287,0.42033 -0.287,0.687v0v8.45v0c0,0.26667 0.09567,0.496 0.287,0.688v0v0c0.192,0.19133 0.42133,0.287 0.688,0.287zM98.65,416.537h-11.75v0c-0.83333,0 -1.546,-0.29567 -2.138,-0.887v0v0c-0.59133,-0.592 -0.887,-1.30467 -0.887,-2.138v0v-8.45v0c0,-0.83333 0.29567,-1.54567 0.887,-2.137v0v0c0.592,-0.592 1.30467,-0.888 2.138,-0.888v0h11.7v2.05h-11.7v0c-0.26667,0 -0.496,0.096 -0.688,0.288v0v0c-0.19133,0.19133 -0.287,0.42033 -0.287,0.687v0v8.45v0c0,0.26667 0.09567,0.496 0.287,0.688v0v0c0.192,0.19133 0.42133,0.287 0.688,0.287v0h11.75v2.05zM112.975,416.537h-8.7v0c-0.83333,0 -1.546,-0.29567 -2.138,-0.887v0v0c-0.59133,-0.592 -0.887,-1.30467 -0.887,-2.138v0v-8.45v0c0,-0.83333 0.29567,-1.54567 0.887,-2.137v0v0c0.592,-0.592 1.30467,-0.888 2.138,-0.888v0h8.7v0c0.85,0 1.57067,0.296 2.162,0.888v0v0c0.592,0.59133 0.888,1.30367 0.888,2.137v0v8.45v0c0,0.83333 -0.296,1.546 -0.888,2.138v0v0c-0.59133,0.59133 -1.312,0.887 -2.162,0.887v0zM104.275,414.487v0h8.7v0c0.26667,0 0.49567,-0.09567 0.687,-0.287v0v0c0.192,-0.192 0.288,-0.42133 0.288,-0.688v0v-8.45v0c0,-0.26667 -0.096,-0.49567 -0.288,-0.687v0v0c-0.19133,-0.192 -0.42033,-0.288 -0.687,-0.288v0h-8.7v0c-0.26667,0 -0.496,0.096 -0.688,0.288v0v0c-0.19133,0.19133 -0.287,0.42033 -0.287,0.687v0v8.45v0c0,0.26667 0.09567,0.496 0.287,0.688v0v0c0.192,0.19133 0.42133,0.287 0.688,0.287zM120.3,416.537h-2.05v-14.5h11.75v0c0.83333,0 1.54567,0.296 2.137,0.888v0v0c0.592,0.59133 0.888,1.30367 0.888,2.137v0v11.475h-2.05v-11.475v0c0,-0.26667 -0.096,-0.49567 -0.288,-0.687v0v0c-0.19133,-0.192 -0.42033,-0.288 -0.687,-0.288v0h-8.7v0c-0.26667,0 -0.5,0.096 -0.7,0.288v0v0c-0.2,0.19133 -0.3,0.42033 -0.3,0.687v0v11.475zM143.95,416.537h-5.3v0c-0.85,0 -1.56667,-0.29567 -2.15,-0.887v0v0c-0.58333,-0.592 -0.875,-1.30467 -0.875,-2.138v0v-16.225h2.05v4.75h6.275v2.05h-6.275v9.425v0c0,0.26667 0.09567,0.496 0.287,0.688v0v0c0.192,0.19133 0.42133,0.287 0.688,0.287v0h5.3v2.05zM148.025,416.537h-2.05v-14.5h2.05v14.5zM148.025,399.337h-2.05v-2.05h2.05v2.05zM152.9,416.537h-2.05v-14.5h11.75v0c0.83333,0 1.54567,0.296 2.137,0.888v0v0c0.592,0.59133 0.888,1.30367 0.888,2.137v0v11.475h-2.05v-11.475v0c0,-0.26667 -0.096,-0.49567 -0.288,-0.687v0v0c-0.19133,-0.192 -0.42033,-0.288 -0.687,-0.288v0h-8.7v0c-0.26667,0 -0.5,0.096 -0.7,0.288v0v0c-0.2,0.19133 -0.3,0.42033 -0.3,0.687v0v11.475zM179.95,416.537h-8.7v0c-0.83333,0 -1.546,-0.29567 -2.138,-0.887v0v0c-0.59133,-0.592 -0.887,-1.30467 -0.887,-2.138v0v-11.475h2.05v11.475v0c0,0.26667 0.09567,0.496 0.287,0.688v0v0c0.192,0.19133 0.42133,0.287 0.688,0.287v0h8.7v0c0.26667,0 0.5,-0.09567 0.7,-0.287v0v0c0.2,-0.192 0.3,-0.42133 0.3,-0.688v0v-11.475h2.05v11.475v0c0,0.83333 -0.296,1.546 -0.888,2.138v0v0c-0.59133,0.59133 -1.312,0.887 -2.162,0.887v0zM199.95,416.537h-11.75v0c-0.83333,0 -1.546,-0.29567 -2.138,-0.887v0v0c-0.59133,-0.592 -0.887,-1.30467 -0.887,-2.138v0v-8.45v0c0,-0.83333 0.29567,-1.54567 0.887,-2.137v0v0c0.592,-0.592 1.30467,-0.888 2.138,-0.888v0h8.7v0c0.85,0 1.57067,0.296 2.162,0.888v0v0c0.592,0.59133 0.888,1.30367 0.888,2.137v0v5.25h-12.725v3.2v0c0,0.26667 0.09567,0.496 0.287,0.688v0v0c0.192,0.19133 0.42133,0.287 0.688,0.287v0h11.75v2.05zM187.225,405.062v3.2h10.65v-3.2v0c0,-0.26667 -0.096,-0.49567 -0.288,-0.687v0v0c-0.19133,-0.192 -0.42033,-0.288 -0.687,-0.288v0h-8.7v0c-0.26667,0 -0.496,0.096 -0.688,0.288v0v0c-0.19133,0.19133 -0.287,0.42033 -0.287,0.687v0zM348.925,385.187h-5.3v0c-0.85,0 -1.56667,-0.29567 -2.15,-0.887v0v0c-0.58333,-0.592 -0.875,-1.30467 -0.875,-2.138v0v-16.225h2.05v4.75h6.275v2.05h-6.275v9.425v0c0,0.26667 0.09567,0.496 0.287,0.688v0v0c0.192,0.19133 0.42133,0.287 0.688,0.287v0h5.3v2.05zM362.525,385.187h-8.7v0c-0.83333,0 -1.546,-0.29567 -2.138,-0.887v0v0c-0.59133,-0.592 -0.887,-1.30467 -0.887,-2.138v0v-8.45v0c0,-0.83333 0.29567,-1.54567 0.887,-2.137v0v0c0.592,-0.592 1.30467,-0.888 2.138,-0.888v0h8.7v0c0.85,0 1.57067,0.296 2.162,0.888v0v0c0.592,0.59133 0.888,1.30367 0.888,2.137v0v8.45v0c0,0.83333 -0.296,1.546 -0.888,2.138v0v0c-0.59133,0.59133 -1.312,0.887 -2.162,0.887v0zM353.825,383.137v0h8.7v0c0.26667,0 0.49567,-0.09567 0.687,-0.287v0v0c0.192,-0.192 0.288,-0.42133 0.288,-0.688v0v-8.45v0c0,-0.26667 -0.096,-0.49567 -0.288,-0.687v0v0c-0.19133,-0.192 -0.42033,-0.288 -0.687,-0.288v0h-8.7v0c-0.26667,0 -0.496,0.096 -0.688,0.288v0v0c-0.19133,0.19133 -0.287,0.42033 -0.287,0.687v0v8.45v0c0,0.26667 0.09567,0.496 0.287,0.688v0v0c0.192,0.19133 0.42133,0.287 0.688,0.287zM312.3,385.187h-8.7v0c-0.83333,0 -1.546,-0.29567 -2.138,-0.887v0v0c-0.59133,-0.592 -0.887,-1.30467 -0.887,-2.138v0v-11.475h2.05v11.475v0c0,0.26667 0.09567,0.496 0.287,0.688v0v0c0.192,0.19133 0.42133,0.287 0.688,0.287v0h8.7v0c0.26667,0 0.5,-0.09567 0.7,-0.287v0v0c0.2,-0.192 0.3,-0.42133 0.3,-0.688v0v-11.475h2.05v11.475v0c0,0.83333 -0.296,1.546 -0.888,2.138v0v0c-0.59133,0.59133 -1.312,0.887 -2.162,0.887v0zM319.65,390.937h-2.05v-20.25h11.75v0c0.83333,0 1.54567,0.296 2.137,0.888v0v0c0.592,0.59133 0.888,1.30367 0.888,2.137v0v8.45v0c0,0.83333 -0.296,1.546 -0.888,2.138v0v0c-0.59133,0.59133 -1.30367,0.887 -2.137,0.887v0h-9.7v5.75zM320.65,383.137v0h8.7v0c0.26667,0 0.49567,-0.09567 0.687,-0.287v0v0c0.192,-0.192 0.288,-0.42133 0.288,-0.688v0v-8.45v0c0,-0.26667 -0.096,-0.49567 -0.288,-0.687v0v0c-0.19133,-0.192 -0.42033,-0.288 -0.687,-0.288v0h-8.7v0c-0.26667,0 -0.5,0.096 -0.7,0.288v0v0c-0.2,0.19133 -0.3,0.42033 -0.3,0.687v0v8.45v0c0,0.26667 0.1,0.496 0.3,0.688v0v0c0.2,0.19133 0.43333,0.287 0.7,0.287zM249.575,390.937h-2.05v-20.25h11.75v0c0.83333,0 1.54567,0.296 2.137,0.888v0v0c0.592,0.59133 0.888,1.30367 0.888,2.137v0v8.45v0c0,0.83333 -0.296,1.546 -0.888,2.138v0v0c-0.59133,0.59133 -1.30367,0.887 -2.137,0.887v0h-9.7v5.75zM250.575,383.137v0h8.7v0c0.26667,0 0.49567,-0.09567 0.687,-0.287v0v0c0.192,-0.192 0.288,-0.42133 0.288,-0.688v0v-8.45v0c0,-0.26667 -0.096,-0.49567 -0.288,-0.687v0v0c-0.19133,-0.192 -0.42033,-0.288 -0.687,-0.288v0h-8.7v0c-0.26667,0 -0.5,0.096 -0.7,0.288v0v0c-0.2,0.19133 -0.3,0.42033 -0.3,0.687v0v8.45v0c0,0.26667 0.1,0.496 0.3,0.688v0v0c0.2,0.19133 0.43333,0.287 0.7,0.287zM266.5,385.187h-2.05v-14.5h2.05v14.5zM266.5,367.987h-2.05v-2.05h2.05v2.05zM275.125,385.187h-2.45v0c-0.83333,0 -1.546,-0.29567 -2.138,-0.887v0v0c-0.59133,-0.592 -0.887,-1.30467 -0.887,-2.138v0v-16.225h2.05v16.225v0c0,0.26667 0.09567,0.496 0.287,0.688v0v0c0.192,0.19133 0.42133,0.287 0.688,0.287v0h2.45v2.05zM291.575,385.187h-11.75v0c-0.83333,0 -1.546,-0.29567 -2.138,-0.887v0v0c-0.59133,-0.592 -0.887,-1.30467 -0.887,-2.138v0v-8.45v0c0,-0.83333 0.29567,-1.54567 0.887,-2.137v0v0c0.592,-0.592 1.30467,-0.888 2.138,-0.888v0h8.7v0c0.85,0 1.57067,0.296 2.162,0.888v0v0c0.592,0.59133 0.888,1.30367 0.888,2.137v0v5.25h-12.725v3.2v0c0,0.26667 0.09567,0.496 0.287,0.688v0v0c0.192,0.19133 0.42133,0.287 0.688,0.287v0h11.75v2.05zM278.85,373.712v3.2h10.65v-3.2v0c0,-0.26667 -0.096,-0.49567 -0.288,-0.687v0v0c-0.19133,-0.192 -0.42033,-0.288 -0.687,-0.288v0h-8.7v0c-0.26667,0 -0.496,0.096 -0.688,0.288v0v0c-0.19133,0.19133 -0.287,0.42033 -0.287,0.687v0zM175.275,385.187h-8.7v0c-0.83333,0 -1.546,-0.29567 -2.138,-0.887v0v0c-0.59133,-0.592 -0.887,-1.30467 -0.887,-2.138v0v-0.2h2.05v0.2v0c0,0.26667 0.09567,0.496 0.287,0.688v0v0c0.192,0.19133 0.42133,0.287 0.688,0.287v0h8.7v0c0.26667,0 0.49567,-0.09567 0.687,-0.287v0v0c0.192,-0.192 0.288,-0.42133 0.288,-0.688v0v-2.225v0c0,-0.26667 -0.096,-0.49567 -0.288,-0.687v0v0c-0.19133,-0.192 -0.42033,-0.288 -0.687,-0.288v0h-8.7v0c-0.83333,0 -1.546,-0.29567 -2.138,-0.887v0v0c-0.59133,-0.592 -0.887,-1.30467 -0.887,-2.138v0v-2.225v0c0,-0.83333 0.29567,-1.54567 0.887,-2.137v0v0c0.592,-0.592 1.30467,-0.888 2.138,-0.888v0h8.7v0c0.85,0 1.57067,0.296 2.162,0.888v0v0c0.592,0.59133 0.888,1.30367 0.888,2.137v0v0.2h-2.075v-0.2v0c0,-0.26667 -0.096,-0.49567 -0.288,-0.687v0v0c-0.19133,-0.192 -0.42033,-0.288 -0.687,-0.288v0h-8.7v0c-0.26667,0 -0.496,0.096 -0.688,0.288v0v0c-0.19133,0.19133 -0.287,0.42033 -0.287,0.687v0v2.225v0c0,0.26667 0.09567,0.496 0.287,0.688v0v0c0.192,0.19133 0.42133,0.287 0.688,0.287v0h8.7v0c0.85,0 1.57067,0.296 2.162,0.888v0v0c0.592,0.59133 0.888,1.30367 0.888,2.137v0v2.225v0c0,0.83333 -0.296,1.546 -0.888,2.138v0v0c-0.59133,0.59133 -1.312,0.887 -2.162,0.887v0zM189.15,385.187h-5.3v0c-0.85,0 -1.56667,-0.29567 -2.15,-0.887v0v0c-0.58333,-0.592 -0.875,-1.30467 -0.875,-2.138v0v-16.225h2.05v4.75h6.275v2.05h-6.275v9.425v0c0,0.26667 0.09567,0.496 0.287,0.688v0v0c0.192,0.19133 0.42133,0.287 0.688,0.287v0h5.3v2.05zM205.825,385.187h-11.75v0c-0.83333,0 -1.546,-0.29567 -2.138,-0.887v0v0c-0.59133,-0.592 -0.887,-1.30467 -0.887,-2.138v0v-5.25h12.7v-3.2v0c0,-0.26667 -0.096,-0.49567 -0.288,-0.687v0v0c-0.19133,-0.192 -0.42033,-0.288 -0.687,-0.288v0h-11.725v-2.05h11.725v0c0.85,0 1.57067,0.296 2.162,0.888v0v0c0.592,0.59133 0.888,1.30367 0.888,2.137v0v11.475zM194.075,383.137v0h9.675v-4.175h-10.65v3.2v0c0,0.26667 0.09567,0.496 0.287,0.688v0v0c0.192,0.19133 0.42133,0.287 0.688,0.287zM222.9,385.187h-11.75v0c-0.83333,0 -1.546,-0.29567 -2.138,-0.887v0v0c-0.59133,-0.592 -0.887,-1.30467 -0.887,-2.138v0v-8.45v0c0,-0.83333 0.29567,-1.54567 0.887,-2.137v0v0c0.592,-0.592 1.30467,-0.888 2.138,-0.888v0h11.7v2.05h-11.7v0c-0.26667,0 -0.496,0.096 -0.688,0.288v0v0c-0.19133,0.19133 -0.287,0.42033 -0.287,0.687v0v8.45v0c0,0.26667 0.09567,0.496 0.287,0.688v0v0c0.192,0.19133 0.42133,0.287 0.688,0.287v0h11.75v2.05zM227.125,385.187h-2.05v-19.25h2.05v10.975h4l5.7,-6.225h2.7v0.025l-6.575,7.225l6.55,7.225v0.025h-2.675l-5.7,-6.225h-4v6.225zM120.825,385.187h-5.3v0c-0.85,0 -1.56667,-0.29567 -2.15,-0.887v0v0c-0.58333,-0.592 -0.875,-1.30467 -0.875,-2.138v0v-16.225h2.05v4.75h6.275v2.05h-6.275v9.425v0c0,0.26667 0.09567,0.496 0.287,0.688v0v0c0.192,0.19133 0.42133,0.287 0.688,0.287v0h5.3v2.05zM124.95,385.187h-2.05v-19.25h2.05v4.75h9.7v0c0.81667,0 1.525,0.296 2.125,0.888v0v0c0.6,0.59133 0.9,1.30367 0.9,2.137v0v11.475h-2.05v-11.475v0c0,-0.26667 -0.096,-0.49567 -0.288,-0.687v0v0c-0.19133,-0.192 -0.42033,-0.288 -0.687,-0.288v0h-8.7v0c-0.26667,0 -0.5,0.096 -0.7,0.288v0v0c-0.2,0.19133 -0.3,0.42033 -0.3,0.687v0v11.475zM154.3,385.187h-11.75v0c-0.83333,0 -1.546,-0.29567 -2.138,-0.887v0v0c-0.59133,-0.592 -0.887,-1.30467 -0.887,-2.138v0v-8.45v0c0,-0.83333 0.29567,-1.54567 0.887,-2.137v0v0c0.592,-0.592 1.30467,-0.888 2.138,-0.888v0h8.7v0c0.85,0 1.57067,0.296 2.162,0.888v0v0c0.592,0.59133 0.888,1.30367 0.888,2.137v0v5.25h-12.725v3.2v0c0,0.26667 0.09567,0.496 0.287,0.688v0v0c0.192,0.19133 0.42133,0.287 0.688,0.287v0h11.75v2.05zM141.575,373.712v3.2h10.65v-3.2v0c0,-0.26667 -0.096,-0.49567 -0.288,-0.687v0v0c-0.19133,-0.192 -0.42033,-0.288 -0.687,-0.288v0h-8.7v0c-0.26667,0 -0.496,0.096 -0.688,0.288v0v0c-0.19133,0.19133 -0.287,0.42033 -0.287,0.687v0zM366.387,353.837h-2.45v0c-0.83333,0 -1.54567,-0.29567 -2.137,-0.887v0v0c-0.592,-0.592 -0.888,-1.30467 -0.888,-2.138v0v-16.225h2.05v16.225v0c0,0.26667 0.096,0.496 0.288,0.688v0v0c0.19133,0.19133 0.42033,0.287 0.687,0.287v0h2.45v2.05zM382.837,353.837h-11.75v0c-0.83333,0 -1.54567,-0.29567 -2.137,-0.887v0v0c-0.592,-0.592 -0.888,-1.30467 -0.888,-2.138v0v-8.45v0c0,-0.83333 0.296,-1.54567 0.888,-2.137v0v0c0.59133,-0.592 1.30367,-0.888 2.137,-0.888v0h8.7v0c0.85,0 1.571,0.296 2.163,0.888v0v0c0.59133,0.59133 0.887,1.30367 0.887,2.137v0v5.25h-12.725v3.2v0c0,0.26667 0.096,0.496 0.288,0.688v0v0c0.19133,0.19133 0.42033,0.287 0.687,0.287v0h11.75v2.05zM370.112,342.362v3.2h10.65v-3.2v0c0,-0.26667 -0.09567,-0.49567 -0.287,-0.687v0v0c-0.192,-0.192 -0.42133,-0.288 -0.688,-0.288v0h-8.7v0c-0.26667,0 -0.49567,0.096 -0.687,0.288v0v0c-0.192,0.19133 -0.288,0.42033 -0.288,0.687v0zM393.737,353.837h-5.3v0c-0.85,0 -1.56667,-0.29567 -2.15,-0.887v0v0c-0.58333,-0.592 -0.875,-1.30467 -0.875,-2.138v0v-16.225h2.05v4.75h6.275v2.05h-6.275v9.425v0c0,0.26667 0.096,0.496 0.288,0.688v0v0c0.19133,0.19133 0.42033,0.287 0.687,0.287v0h5.3v2.05zM336.212,353.837h-8.7v0c-0.83333,0 -1.54567,-0.29567 -2.137,-0.887v0v0c-0.592,-0.592 -0.888,-1.30467 -0.888,-2.138v0v-8.45v0c0,-0.83333 0.296,-1.54567 0.888,-2.137v0v0c0.59133,-0.592 1.30367,-0.888 2.137,-0.888v0h8.7v0c0.85,0 1.571,0.296 2.163,0.888v0v0c0.59133,0.59133 0.887,1.30367 0.887,2.137v0v8.45v0c0,0.83333 -0.29567,1.546 -0.887,2.138v0v0c-0.592,0.59133 -1.313,0.887 -2.163,0.887v0zM327.512,351.787v0h8.7v0c0.26667,0 0.496,-0.09567 0.688,-0.287v0v0c0.19133,-0.192 0.287,-0.42133 0.287,-0.688v0v-8.45v0c0,-0.26667 -0.09567,-0.49567 -0.287,-0.687v0v0c-0.192,-0.192 -0.42133,-0.288 -0.688,-0.288v0h-8.7v0c-0.26667,0 -0.49567,0.096 -0.687,0.288v0v0c-0.192,0.19133 -0.288,0.42033 -0.288,0.687v0v8.45v0c0,0.26667 0.096,0.496 0.288,0.688v0v0c0.19133,0.19133 0.42033,0.287 0.687,0.287zM343.612,353.837h-2.05v-11.475v0c0,-0.83333 0.296,-1.54567 0.888,-2.137v0v0c0.59133,-0.592 1.30367,-0.888 2.137,-0.888v0h8.15v2.05h-8.15v0c-0.26667,0 -0.49567,0.096 -0.687,0.288v0v0c-0.192,0.19133 -0.288,0.42033 -0.288,0.687v0v11.475zM221.787,353.837h-11.75v-19.25h2.05v4.75h9.7v0c0.83333,0 1.546,0.296 2.138,0.888v0v0c0.59133,0.59133 0.887,1.30367 0.887,2.137v0v8.45v0c0,0.83333 -0.29567,1.546 -0.887,2.138v0v0c-0.592,0.59133 -1.30467,0.887 -2.138,0.887v0zM213.087,351.787v0h8.7v0c0.26667,0 0.496,-0.09567 0.688,-0.287v0v0c0.19133,-0.192 0.287,-0.42133 0.287,-0.688v0v-8.45v0c0,-0.26667 -0.09567,-0.49567 -0.287,-0.687v0v0c-0.192,-0.192 -0.42133,-0.288 -0.688,-0.288v0h-8.7v0c-0.26667,0 -0.5,0.096 -0.7,0.288v0v0c-0.2,0.19133 -0.3,0.42033 -0.3,0.687v0v8.45v0c0,0.26667 0.1,0.496 0.3,0.688v0v0c0.2,0.19133 0.43333,0.287 0.7,0.287zM238.412,353.837h-8.7v0c-0.83333,0 -1.54567,-0.29567 -2.137,-0.887v0v0c-0.592,-0.592 -0.888,-1.30467 -0.888,-2.138v0v-11.475h2.05v11.475v0c0,0.26667 0.096,0.496 0.288,0.688v0v0c0.19133,0.19133 0.42033,0.287 0.687,0.287v0h8.7v0c0.26667,0 0.5,-0.09567 0.7,-0.287v0v0c0.2,-0.192 0.3,-0.42133 0.3,-0.688v0v-11.475h2.05v11.475v0c0,0.83333 -0.29567,1.546 -0.887,2.138v0v0c-0.592,0.59133 -1.313,0.887 -2.163,0.887v0zM246.087,353.837h-2.05v-14.5h2.05v14.5zM246.087,336.637h-2.05v-2.05h2.05v2.05zM254.712,353.837h-2.45v0c-0.83333,0 -1.54567,-0.29567 -2.137,-0.887v0v0c-0.592,-0.592 -0.888,-1.30467 -0.888,-2.138v0v-16.225h2.05v16.225v0c0,0.26667 0.096,0.496 0.288,0.688v0v0c0.19133,0.19133 0.42033,0.287 0.687,0.287v0h2.45v2.05zM270.962,353.837h-11.725v0c-0.85,0 -1.57067,-0.29567 -2.162,-0.887v0v0c-0.592,-0.592 -0.888,-1.30467 -0.888,-2.138v0v-8.45v0c0,-0.83333 0.296,-1.54567 0.888,-2.137v0v0c0.59133,-0.592 1.312,-0.888 2.162,-0.888v0h9.675v-4.75h2.05v19.25zM259.237,351.787v0h8.7v0c0.26667,0 0.496,-0.09567 0.688,-0.287v0v0c0.19133,-0.192 0.287,-0.42133 0.287,-0.688v0v-8.45v0c0,-0.26667 -0.09567,-0.49567 -0.287,-0.687v0v0c-0.192,-0.192 -0.42133,-0.288 -0.688,-0.288v0h-8.7v0c-0.26667,0 -0.49567,0.096 -0.687,0.288v0v0c-0.192,0.19133 -0.288,0.42033 -0.288,0.687v0v8.45v0c0,0.26667 0.096,0.496 0.288,0.688v0v0c0.19133,0.19133 0.42033,0.287 0.687,0.287zM275.637,353.837h-2.05v-14.5h2.05v14.5zM275.637,336.637h-2.05v-2.05h2.05v2.05zM280.512,353.837h-2.05v-14.5h11.75v0c0.83333,0 1.546,0.296 2.138,0.888v0v0c0.59133,0.59133 0.887,1.30367 0.887,2.137v0v11.475h-2.05v-11.475v0c0,-0.26667 -0.09567,-0.49567 -0.287,-0.687v0v0c-0.192,-0.192 -0.42133,-0.288 -0.688,-0.288v0h-8.7v0c-0.26667,0 -0.5,0.096 -0.7,0.288v0v0c-0.2,0.19133 -0.3,0.42033 -0.3,0.687v0v11.475zM307.262,359.562h-9.05v-2.075h9.05v0c0.26667,0 0.496,-0.09567 0.688,-0.287v0v0c0.19133,-0.192 0.287,-0.42133 0.287,-0.688v0v-2.675h-9.675v0c-0.83333,0 -1.54567,-0.29567 -2.137,-0.887v0v0c-0.592,-0.592 -0.888,-1.30467 -0.888,-2.138v0v-8.45v0c0,-0.83333 0.296,-1.54567 0.888,-2.137v0v0c0.59133,-0.592 1.30367,-0.888 2.137,-0.888v0h8.7v0c0.85,0 1.56667,0.296 2.15,0.888v0v0c0.58333,0.59133 0.875,1.30367 0.875,2.137v0v14.15v0c0,0.85 -0.29167,1.571 -0.875,2.163v0v0c-0.58333,0.59133 -1.3,0.887 -2.15,0.887v0zM298.562,351.787v0h8.7v0c0.26667,0 0.496,-0.09567 0.688,-0.287v0v0c0.19133,-0.192 0.287,-0.42133 0.287,-0.688v0v-8.45v0c0,-0.26667 -0.09567,-0.49567 -0.287,-0.687v0v0c-0.192,-0.192 -0.42133,-0.288 -0.688,-0.288v0h-8.7v0c-0.26667,0 -0.49567,0.096 -0.687,0.288v0v0c-0.192,0.19133 -0.288,0.42033 -0.288,0.687v0v8.45v0c0,0.26667 0.096,0.496 0.288,0.688v0v0c0.19133,0.19133 0.42033,0.287 0.687,0.287zM312.937,357.112v0v-5.325h2.05v2.45v0c0,0.66667 -0.19167,1.26267 -0.575,1.788v0v0c-0.38333,0.52467 -0.875,0.887 -1.475,1.087zM99.712,353.837h-11.75v0c-0.83333,0 -1.54567,-0.29567 -2.137,-0.887v0v0c-0.592,-0.592 -0.888,-1.30467 -0.888,-2.138v0v-8.45v0c0,-0.83333 0.296,-1.54567 0.888,-2.137v0v0c0.59133,-0.592 1.30367,-0.888 2.137,-0.888v0h11.7v2.05h-11.7v0c-0.26667,0 -0.49567,0.096 -0.687,0.288v0v0c-0.192,0.19133 -0.288,0.42033 -0.288,0.687v0v8.45v0c0,0.26667 0.096,0.496 0.288,0.688v0v0c0.19133,0.19133 0.42033,0.287 0.687,0.287v0h11.75v2.05zM114.037,353.837h-8.7v0c-0.83333,0 -1.54567,-0.29567 -2.137,-0.887v0v0c-0.592,-0.592 -0.888,-1.30467 -0.888,-2.138v0v-8.45v0c0,-0.83333 0.296,-1.54567 0.888,-2.137v0v0c0.59133,-0.592 1.30367,-0.888 2.137,-0.888v0h8.7v0c0.85,0 1.571,0.296 2.163,0.888v0v0c0.59133,0.59133 0.887,1.30367 0.887,2.137v0v8.45v0c0,0.83333 -0.29567,1.546 -0.887,2.138v0v0c-0.592,0.59133 -1.313,0.887 -2.163,0.887v0zM105.337,351.787v0h8.7v0c0.26667,0 0.496,-0.09567 0.688,-0.287v0v0c0.19133,-0.192 0.287,-0.42133 0.287,-0.688v0v-8.45v0c0,-0.26667 -0.09567,-0.49567 -0.287,-0.687v0v0c-0.192,-0.192 -0.42133,-0.288 -0.688,-0.288v0h-8.7v0c-0.26667,0 -0.49567,0.096 -0.687,0.288v0v0c-0.192,0.19133 -0.288,0.42033 -0.288,0.687v0v8.45v0c0,0.26667 0.096,0.496 0.288,0.688v0v0c0.19133,0.19133 0.42033,0.287 0.687,0.287zM121.362,353.837h-2.05v-14.5h11.75v0c0.83333,0 1.546,0.296 2.138,0.888v0v0c0.59133,0.59133 0.887,1.30367 0.887,2.137v0v11.475h-2.05v-11.475v0c0,-0.26667 -0.09567,-0.49567 -0.287,-0.687v0v0c-0.192,-0.192 -0.42133,-0.288 -0.688,-0.288v0h-8.7v0c-0.26667,0 -0.5,0.096 -0.7,0.288v0v0c-0.2,0.19133 -0.3,0.42033 -0.3,0.687v0v11.475zM145.012,353.837h-5.3v0c-0.85,0 -1.56667,-0.29567 -2.15,-0.887v0v0c-0.58333,-0.592 -0.875,-1.30467 -0.875,-2.138v0v-16.225h2.05v4.75h6.275v2.05h-6.275v9.425v0c0,0.26667 0.096,0.496 0.288,0.688v0v0c0.19133,0.19133 0.42033,0.287 0.687,0.287v0h5.3v2.05zM149.087,353.837h-2.05v-14.5h2.05v14.5zM149.087,336.637h-2.05v-2.05h2.05v2.05zM153.962,353.837h-2.05v-14.5h11.75v0c0.83333,0 1.546,0.296 2.138,0.888v0v0c0.59133,0.59133 0.887,1.30367 0.887,2.137v0v11.475h-2.05v-11.475v0c0,-0.26667 -0.09567,-0.49567 -0.287,-0.687v0v0c-0.192,-0.192 -0.42133,-0.288 -0.688,-0.288v0h-8.7v0c-0.26667,0 -0.5,0.096 -0.7,0.288v0v0c-0.2,0.19133 -0.3,0.42033 -0.3,0.687v0v11.475zM181.012,353.837h-8.7v0c-0.83333,0 -1.54567,-0.29567 -2.137,-0.887v0v0c-0.592,-0.592 -0.888,-1.30467 -0.888,-2.138v0v-11.475h2.05v11.475v0c0,0.26667 0.096,0.496 0.288,0.688v0v0c0.19133,0.19133 0.42033,0.287 0.687,0.287v0h8.7v0c0.26667,0 0.5,-0.09567 0.7,-0.287v0v0c0.2,-0.192 0.3,-0.42133 0.3,-0.688v0v-11.475h2.05v11.475v0c0,0.83333 -0.29567,1.546 -0.887,2.138v0v0c-0.592,0.59133 -1.313,0.887 -2.163,0.887v0zM201.012,353.837h-11.75v0c-0.83333,0 -1.54567,-0.29567 -2.137,-0.887v0v0c-0.592,-0.592 -0.888,-1.30467 -0.888,-2.138v0v-8.45v0c0,-0.83333 0.296,-1.54567 0.888,-2.137v0v0c0.59133,-0.592 1.30367,-0.888 2.137,-0.888v0h8.7v0c0.85,0 1.571,0.296 2.163,0.888v0v0c0.59133,0.59133 0.887,1.30367 0.887,2.137v0v5.25h-12.725v3.2v0c0,0.26667 0.096,0.496 0.288,0.688v0v0c0.19133,0.19133 0.42033,0.287 0.687,0.287v0h11.75v2.05zM188.287,342.362v3.2h10.65v-3.2v0c0,-0.26667 -0.09567,-0.49567 -0.287,-0.687v0v0c-0.192,-0.192 -0.42133,-0.288 -0.688,-0.288v0h-8.7v0c-0.26667,0 -0.49567,0.096 -0.687,0.288v0v0c-0.192,0.19133 -0.288,0.42033 -0.288,0.687v0zM372.437,322.487h-11.75v0c-0.83333,0 -1.54567,-0.29567 -2.137,-0.887v0v0c-0.592,-0.592 -0.888,-1.30467 -0.888,-2.138v0v-8.45v0c0,-0.83333 0.296,-1.54567 0.888,-2.137v0v0c0.59133,-0.592 1.30367,-0.888 2.137,-0.888v0h11.7v2.05h-11.7v0c-0.26667,0 -0.49567,0.096 -0.687,0.288v0v0c-0.192,0.19133 -0.288,0.42033 -0.288,0.687v0v8.45v0c0,0.26667 0.096,0.496 0.288,0.688v0v0c0.19133,0.19133 0.42033,0.287 0.687,0.287v0h11.75v2.05zM389.837,322.487h-11.75v0c-0.83333,0 -1.54567,-0.29567 -2.137,-0.887v0v0c-0.592,-0.592 -0.888,-1.30467 -0.888,-2.138v0v-5.25h12.7v-3.2v0c0,-0.26667 -0.09567,-0.49567 -0.287,-0.687v0v0c-0.192,-0.192 -0.42133,-0.288 -0.688,-0.288v0h-11.725v-2.05h11.725v0c0.85,0 1.571,0.296 2.163,0.888v0v0c0.59133,0.59133 0.887,1.30367 0.887,2.137v0v11.475zM378.087,320.437v0h9.675v-4.175h-10.65v3.2v0c0,0.26667 0.096,0.496 0.288,0.688v0v0c0.19133,0.19133 0.42033,0.287 0.687,0.287zM394.137,322.487h-2.05v-14.5h11.75v0c0.83333,0 1.546,0.296 2.138,0.888v0v0c0.59133,0.59133 0.887,1.30367 0.887,2.137v0v11.475h-2.05v-11.475v0c0,-0.26667 -0.09567,-0.49567 -0.287,-0.687v0v0c-0.192,-0.192 -0.42133,-0.288 -0.688,-0.288v0h-8.7v0c-0.26667,0 -0.5,0.096 -0.7,0.288v0v0c-0.2,0.19133 -0.3,0.42033 -0.3,0.687v0v11.475zM309.612,322.487h-2.025v-6.775l-8.275,-11.225h2.325l6.975,8.8l6.9,-8.8h2.375l-8.275,11.225v6.775zM329.062,322.487h-8.7v0c-0.83333,0 -1.54567,-0.29567 -2.137,-0.887v0v0c-0.592,-0.592 -0.888,-1.30467 -0.888,-2.138v0v-8.45v0c0,-0.83333 0.296,-1.54567 0.888,-2.137v0v0c0.59133,-0.592 1.30367,-0.888 2.137,-0.888v0h8.7v0c0.85,0 1.571,0.296 2.163,0.888v0v0c0.59133,0.59133 0.887,1.30367 0.887,2.137v0v8.45v0c0,0.83333 -0.29567,1.546 -0.887,2.138v0v0c-0.592,0.59133 -1.313,0.887 -2.163,0.887v0zM320.362,320.437v0h8.7v0c0.26667,0 0.496,-0.09567 0.688,-0.287v0v0c0.19133,-0.192 0.287,-0.42133 0.287,-0.688v0v-8.45v0c0,-0.26667 -0.09567,-0.49567 -0.287,-0.687v0v0c-0.192,-0.192 -0.42133,-0.288 -0.688,-0.288v0h-8.7v0c-0.26667,0 -0.49567,0.096 -0.687,0.288v0v0c-0.192,0.19133 -0.288,0.42033 -0.288,0.687v0v8.45v0c0,0.26667 0.096,0.496 0.288,0.688v0v0c0.19133,0.19133 0.42033,0.287 0.687,0.287zM345.837,322.487h-8.7v0c-0.83333,0 -1.54567,-0.29567 -2.137,-0.887v0v0c-0.592,-0.592 -0.888,-1.30467 -0.888,-2.138v0v-11.475h2.05v11.475v0c0,0.26667 0.096,0.496 0.288,0.688v0v0c0.19133,0.19133 0.42033,0.287 0.687,0.287v0h8.7v0c0.26667,0 0.5,-0.09567 0.7,-0.287v0v0c0.2,-0.192 0.3,-0.42133 0.3,-0.688v0v-11.475h2.05v11.475v0c0,0.83333 -0.29567,1.546 -0.887,2.138v0v0c-0.592,0.59133 -1.313,0.887 -2.163,0.887v0zM141.012,322.487h-8.7v0c-0.83333,0 -1.54567,-0.29567 -2.137,-0.887v0v0c-0.592,-0.592 -0.888,-1.30467 -0.888,-2.138v0v-0.2h2.05v0.2v0c0,0.26667 0.096,0.496 0.288,0.688v0v0c0.19133,0.19133 0.42033,0.287 0.687,0.287v0h8.7v0c0.26667,0 0.496,-0.09567 0.688,-0.287v0v0c0.19133,-0.192 0.287,-0.42133 0.287,-0.688v0v-2.225v0c0,-0.26667 -0.09567,-0.49567 -0.287,-0.687v0v0c-0.192,-0.192 -0.42133,-0.288 -0.688,-0.288v0h-8.7v0c-0.83333,0 -1.54567,-0.29567 -2.137,-0.887v0v0c-0.592,-0.592 -0.888,-1.30467 -0.888,-2.138v0v-2.225v0c0,-0.83333 0.296,-1.54567 0.888,-2.137v0v0c0.59133,-0.592 1.30367,-0.888 2.137,-0.888v0h8.7v0c0.85,0 1.571,0.296 2.163,0.888v0v0c0.59133,0.59133 0.887,1.30367 0.887,2.137v0v0.2h-2.075v-0.2v0c0,-0.26667 -0.09567,-0.49567 -0.287,-0.687v0v0c-0.192,-0.192 -0.42133,-0.288 -0.688,-0.288v0h-8.7v0c-0.26667,0 -0.49567,0.096 -0.687,0.288v0v0c-0.192,0.19133 -0.288,0.42033 -0.288,0.687v0v2.225v0c0,0.26667 0.096,0.496 0.288,0.688v0v0c0.19133,0.19133 0.42033,0.287 0.687,0.287v0h8.7v0c0.85,0 1.571,0.296 2.163,0.888v0v0c0.59133,0.59133 0.887,1.30367 0.887,2.137v0v2.225v0c0,0.83333 -0.29567,1.546 -0.887,2.138v0v0c-0.592,0.59133 -1.313,0.887 -2.163,0.887v0zM157.787,322.487h-8.7v0c-0.83333,0 -1.54567,-0.29567 -2.137,-0.887v0v0c-0.592,-0.592 -0.888,-1.30467 -0.888,-2.138v0v-11.475h2.05v11.475v0c0,0.26667 0.096,0.496 0.288,0.688v0v0c0.19133,0.19133 0.42033,0.287 0.687,0.287v0h8.7v0c0.26667,0 0.5,-0.09567 0.7,-0.287v0v0c0.2,-0.192 0.3,-0.42133 0.3,-0.688v0v-11.475h2.05v11.475v0c0,0.83333 -0.29567,1.546 -0.887,2.138v0v0c-0.592,0.59133 -1.313,0.887 -2.163,0.887v0zM174.662,322.487h-8.7v0c-0.83333,0 -1.54567,-0.29567 -2.137,-0.887v0v0c-0.592,-0.592 -0.888,-1.30467 -0.888,-2.138v0v-0.2h2.05v0.2v0c0,0.26667 0.096,0.496 0.288,0.688v0v0c0.19133,0.19133 0.42033,0.287 0.687,0.287v0h8.7v0c0.26667,0 0.496,-0.09567 0.688,-0.287v0v0c0.19133,-0.192 0.287,-0.42133 0.287,-0.688v0v-2.225v0c0,-0.26667 -0.09567,-0.49567 -0.287,-0.687v0v0c-0.192,-0.192 -0.42133,-0.288 -0.688,-0.288v0h-8.7v0c-0.83333,0 -1.54567,-0.29567 -2.137,-0.887v0v0c-0.592,-0.592 -0.888,-1.30467 -0.888,-2.138v0v-2.225v0c0,-0.83333 0.296,-1.54567 0.888,-2.137v0v0c0.59133,-0.592 1.30367,-0.888 2.137,-0.888v0h8.7v0c0.85,0 1.571,0.296 2.163,0.888v0v0c0.59133,0.59133 0.887,1.30367 0.887,2.137v0v0.2h-2.075v-0.2v0c0,-0.26667 -0.09567,-0.49567 -0.287,-0.687v0v0c-0.192,-0.192 -0.42133,-0.288 -0.688,-0.288v0h-8.7v0c-0.26667,0 -0.49567,0.096 -0.687,0.288v0v0c-0.192,0.19133 -0.288,0.42033 -0.288,0.687v0v2.225v0c0,0.26667 0.096,0.496 0.288,0.688v0v0c0.19133,0.19133 0.42033,0.287 0.687,0.287v0h8.7v0c0.85,0 1.571,0.296 2.163,0.888v0v0c0.59133,0.59133 0.887,1.30367 0.887,2.137v0v2.225v0c0,0.83333 -0.29567,1.546 -0.887,2.138v0v0c-0.592,0.59133 -1.313,0.887 -2.163,0.887v0zM188.537,322.487h-5.3v0c-0.85,0 -1.56667,-0.29567 -2.15,-0.887v0v0c-0.58333,-0.592 -0.875,-1.30467 -0.875,-2.138v0v-16.225h2.05v4.75h6.275v2.05h-6.275v9.425v0c0,0.26667 0.096,0.496 0.288,0.688v0v0c0.19133,0.19133 0.42033,0.287 0.687,0.287v0h5.3v2.05zM205.212,322.487h-11.75v0c-0.83333,0 -1.54567,-0.29567 -2.137,-0.887v0v0c-0.592,-0.592 -0.888,-1.30467 -0.888,-2.138v0v-5.25h12.7v-3.2v0c0,-0.26667 -0.09567,-0.49567 -0.287,-0.687v0v0c-0.192,-0.192 -0.42133,-0.288 -0.688,-0.288v0h-11.725v-2.05h11.725v0c0.85,0 1.571,0.296 2.163,0.888v0v0c0.59133,0.59133 0.887,1.30367 0.887,2.137v0v11.475zM193.462,320.437v0h9.675v-4.175h-10.65v3.2v0c0,0.26667 0.096,0.496 0.288,0.688v0v0c0.19133,0.19133 0.42033,0.287 0.687,0.287zM209.837,322.487h-2.05v-14.5h2.05v14.5zM209.837,305.287h-2.05v-2.05h2.05v2.05zM214.712,322.487h-2.05v-14.5h11.75v0c0.83333,0 1.546,0.296 2.138,0.888v0v0c0.59133,0.59133 0.887,1.30367 0.887,2.137v0v11.475h-2.05v-11.475v0c0,-0.26667 -0.09567,-0.49567 -0.287,-0.687v0v0c-0.192,-0.192 -0.42133,-0.288 -0.688,-0.288v0h-8.7v0c-0.26667,0 -0.5,0.096 -0.7,0.288v0v0c-0.2,0.19133 -0.3,0.42033 -0.3,0.687v0v11.475zM244.787,322.487h-11.75v0c-0.83333,0 -1.54567,-0.29567 -2.137,-0.887v0v0c-0.592,-0.592 -0.888,-1.30467 -0.888,-2.138v0v-5.25h12.7v-3.2v0c0,-0.26667 -0.09567,-0.49567 -0.287,-0.687v0v0c-0.192,-0.192 -0.42133,-0.288 -0.688,-0.288v0h-11.725v-2.05h11.725v0c0.85,0 1.571,0.296 2.163,0.888v0v0c0.59133,0.59133 0.887,1.30367 0.887,2.137v0v11.475zM233.037,320.437v0h9.675v-4.175h-10.65v3.2v0c0,0.26667 0.096,0.496 0.288,0.688v0v0c0.19133,0.19133 0.42033,0.287 0.687,0.287zM258.537,322.487h-11.75v-19.25h2.05v4.75h9.7v0c0.83333,0 1.546,0.296 2.138,0.888v0v0c0.59133,0.59133 0.887,1.30367 0.887,2.137v0v8.45v0c0,0.83333 -0.29567,1.546 -0.887,2.138v0v0c-0.592,0.59133 -1.30467,0.887 -2.138,0.887v0zM249.837,320.437v0h8.7v0c0.26667,0 0.496,-0.09567 0.688,-0.287v0v0c0.19133,-0.192 0.287,-0.42133 0.287,-0.688v0v-8.45v0c0,-0.26667 -0.09567,-0.49567 -0.287,-0.687v0v0c-0.192,-0.192 -0.42133,-0.288 -0.688,-0.288v0h-8.7v0c-0.26667,0 -0.5,0.096 -0.7,0.288v0v0c-0.2,0.19133 -0.3,0.42033 -0.3,0.687v0v8.45v0c0,0.26667 0.1,0.496 0.3,0.688v0v0c0.2,0.19133 0.43333,0.287 0.7,0.287zM268.887,322.487h-2.45v0c-0.83333,0 -1.54567,-0.29567 -2.137,-0.887v0v0c-0.592,-0.592 -0.888,-1.30467 -0.888,-2.138v0v-16.225h2.05v16.225v0c0,0.26667 0.096,0.496 0.288,0.688v0v0c0.19133,0.19133 0.42033,0.287 0.687,0.287v0h2.45v2.05zM285.337,322.487h-11.75v0c-0.83333,0 -1.54567,-0.29567 -2.137,-0.887v0v0c-0.592,-0.592 -0.888,-1.30467 -0.888,-2.138v0v-8.45v0c0,-0.83333 0.296,-1.54567 0.888,-2.137v0v0c0.59133,-0.592 1.30367,-0.888 2.137,-0.888v0h8.7v0c0.85,0 1.571,0.296 2.163,0.888v0v0c0.59133,0.59133 0.887,1.30367 0.887,2.137v0v5.25h-12.725v3.2v0c0,0.26667 0.096,0.496 0.288,0.688v0v0c0.19133,0.19133 0.42033,0.287 0.687,0.287v0h11.75v2.05zM272.612,311.012v3.2h10.65v-3.2v0c0,-0.26667 -0.09567,-0.49567 -0.287,-0.687v0v0c-0.192,-0.192 -0.42133,-0.288 -0.688,-0.288v0h-8.7v0c-0.26667,0 -0.49567,0.096 -0.687,0.288v0v0c-0.192,0.19133 -0.288,0.42033 -0.288,0.687v0zM290.087,317.412h-2.05v-12.925h2.05v12.925zM290.087,322.487h-2.05v-2.05h2.05v2.05zM86.312,322.487h-11.75v0c-0.83333,0 -1.54567,-0.29567 -2.137,-0.887v0v0c-0.592,-0.592 -0.888,-1.30467 -0.888,-2.138v0v-5.25h12.7v-3.2v0c0,-0.26667 -0.09567,-0.49567 -0.287,-0.687v0v0c-0.192,-0.192 -0.42133,-0.288 -0.688,-0.288v0h-11.725v-2.05h11.725v0c0.85,0 1.571,0.296 2.163,0.888v0v0c0.59133,0.59133 0.887,1.30367 0.887,2.137v0v11.475zM74.562,320.437v0h9.675v-4.175h-10.65v3.2v0c0,0.26667 0.096,0.496 0.288,0.688v0v0c0.19133,0.19133 0.42033,0.287 0.687,0.287zM90.612,322.487h-2.05v-14.5h11.75v0c0.83333,0 1.546,0.296 2.138,0.888v0v0c0.59133,0.59133 0.887,1.30367 0.887,2.137v0v11.475h-2.05v-11.475v0c0,-0.26667 -0.09567,-0.49567 -0.287,-0.687v0v0c-0.192,-0.192 -0.42133,-0.288 -0.688,-0.288v0h-8.7v0c-0.26667,0 -0.5,0.096 -0.7,0.288v0v0c-0.2,0.19133 -0.3,0.42033 -0.3,0.687v0v11.475zM119.962,322.487h-11.725v0c-0.85,0 -1.57067,-0.29567 -2.162,-0.887v0v0c-0.592,-0.592 -0.888,-1.30467 -0.888,-2.138v0v-8.45v0c0,-0.83333 0.296,-1.54567 0.888,-2.137v0v0c0.59133,-0.592 1.312,-0.888 2.162,-0.888v0h9.675v-4.75h2.05v19.25zM108.237,320.437v0h8.7v0c0.26667,0 0.496,-0.09567 0.688,-0.287v0v0c0.19133,-0.192 0.287,-0.42133 0.287,-0.688v0v-8.45v0c0,-0.26667 -0.09567,-0.49567 -0.287,-0.687v0v0c-0.192,-0.192 -0.42133,-0.288 -0.688,-0.288v0h-8.7v0c-0.26667,0 -0.49567,0.096 -0.687,0.288v0v0c-0.192,0.19133 -0.288,0.42033 -0.288,0.687v0v8.45v0c0,0.26667 0.096,0.496 0.288,0.688v0v0c0.19133,0.19133 0.42033,0.287 0.687,0.287zM299.312,291.137h-11.725v0c-0.85,0 -1.57067,-0.29567 -2.162,-0.887v0v0c-0.592,-0.592 -0.888,-1.30467 -0.888,-2.138v0v-8.45v0c0,-0.83333 0.296,-1.54567 0.888,-2.137v0v0c0.59133,-0.592 1.312,-0.888 2.162,-0.888v0h9.675v-4.75h2.05v19.25zM287.587,289.087v0h8.7v0c0.26667,0 0.496,-0.09567 0.688,-0.287v0v0c0.19133,-0.192 0.287,-0.42133 0.287,-0.688v0v-8.45v0c0,-0.26667 -0.09567,-0.49567 -0.287,-0.687v0v0c-0.192,-0.192 -0.42133,-0.288 -0.688,-0.288v0h-8.7v0c-0.26667,0 -0.49567,0.096 -0.687,0.288v0v0c-0.192,0.19133 -0.288,0.42033 -0.288,0.687v0v8.45v0c0,0.26667 0.096,0.496 0.288,0.688v0v0c0.19133,0.19133 0.42033,0.287 0.687,0.287zM313.112,291.137h-8.7v0c-0.83333,0 -1.54567,-0.29567 -2.137,-0.887v0v0c-0.592,-0.592 -0.888,-1.30467 -0.888,-2.138v0v-11.475h2.05v11.475v0c0,0.26667 0.096,0.496 0.288,0.688v0v0c0.19133,0.19133 0.42033,0.287 0.687,0.287v0h8.7v0c0.26667,0 0.5,-0.09567 0.7,-0.287v0v0c0.2,-0.192 0.3,-0.42133 0.3,-0.688v0v-11.475h2.05v11.475v0c0,0.83333 -0.29567,1.546 -0.887,2.138v0v0c-0.592,0.59133 -1.313,0.887 -2.163,0.887v0zM320.787,291.137h-2.05v-11.475v0c0,-0.83333 0.296,-1.54567 0.888,-2.137v0v0c0.59133,-0.592 1.30367,-0.888 2.137,-0.888v0h8.15v2.05h-8.15v0c-0.26667,0 -0.49567,0.096 -0.687,0.288v0v0c-0.192,0.19133 -0.288,0.42033 -0.288,0.687v0v11.475zM346.312,291.137h-11.75v0c-0.83333,0 -1.54567,-0.29567 -2.137,-0.887v0v0c-0.592,-0.592 -0.888,-1.30467 -0.888,-2.138v0v-5.25h12.7v-3.2v0c0,-0.26667 -0.09567,-0.49567 -0.287,-0.687v0v0c-0.192,-0.192 -0.42133,-0.288 -0.688,-0.288v0h-11.725v-2.05h11.725v0c0.85,0 1.571,0.296 2.163,0.888v0v0c0.59133,0.59133 0.887,1.30367 0.887,2.137v0v11.475zM334.562,289.087v0h9.675v-4.175h-10.65v3.2v0c0,0.26667 0.096,0.496 0.288,0.688v0v0c0.19133,0.19133 0.42033,0.287 0.687,0.287zM360.062,291.137h-11.75v-19.25h2.05v4.75h9.7v0c0.83333,0 1.546,0.296 2.138,0.888v0v0c0.59133,0.59133 0.887,1.30367 0.887,2.137v0v8.45v0c0,0.83333 -0.29567,1.546 -0.887,2.138v0v0c-0.592,0.59133 -1.30467,0.887 -2.138,0.887v0zM351.362,289.087v0h8.7v0c0.26667,0 0.496,-0.09567 0.688,-0.287v0v0c0.19133,-0.192 0.287,-0.42133 0.287,-0.688v0v-8.45v0c0,-0.26667 -0.09567,-0.49567 -0.287,-0.687v0v0c-0.192,-0.192 -0.42133,-0.288 -0.688,-0.288v0h-8.7v0c-0.26667,0 -0.5,0.096 -0.7,0.288v0v0c-0.2,0.19133 -0.3,0.42033 -0.3,0.687v0v8.45v0c0,0.26667 0.1,0.496 0.3,0.688v0v0c0.2,0.19133 0.43333,0.287 0.7,0.287zM370.412,291.137h-2.45v0c-0.83333,0 -1.54567,-0.29567 -2.137,-0.887v0v0c-0.592,-0.592 -0.888,-1.30467 -0.888,-2.138v0v-16.225h2.05v16.225v0c0,0.26667 0.096,0.496 0.288,0.688v0v0c0.19133,0.19133 0.42033,0.287 0.687,0.287v0h2.45v2.05zM386.862,291.137h-11.75v0c-0.83333,0 -1.54567,-0.29567 -2.137,-0.887v0v0c-0.592,-0.592 -0.888,-1.30467 -0.888,-2.138v0v-8.45v0c0,-0.83333 0.296,-1.54567 0.888,-2.137v0v0c0.59133,-0.592 1.30367,-0.888 2.137,-0.888v0h8.7v0c0.85,0 1.571,0.296 2.163,0.888v0v0c0.59133,0.59133 0.887,1.30367 0.887,2.137v0v5.25h-12.725v3.2v0c0,0.26667 0.096,0.496 0.288,0.688v0v0c0.19133,0.19133 0.42033,0.287 0.687,0.287v0h11.75v2.05zM374.137,279.662v3.2h10.65v-3.2v0c0,-0.26667 -0.09567,-0.49567 -0.287,-0.687v0v0c-0.192,-0.192 -0.42133,-0.288 -0.688,-0.288v0h-8.7v0c-0.26667,0 -0.49567,0.096 -0.687,0.288v0v0c-0.192,0.19133 -0.288,0.42033 -0.288,0.687v0zM229.662,291.137h-11.75v-19.25h2.05v4.75h9.7v0c0.83333,0 1.546,0.296 2.138,0.888v0v0c0.59133,0.59133 0.887,1.30367 0.887,2.137v0v8.45v0c0,0.83333 -0.29567,1.546 -0.887,2.138v0v0c-0.592,0.59133 -1.30467,0.887 -2.138,0.887v0zM220.962,289.087v0h8.7v0c0.26667,0 0.496,-0.09567 0.688,-0.287v0v0c0.19133,-0.192 0.287,-0.42133 0.287,-0.688v0v-8.45v0c0,-0.26667 -0.09567,-0.49567 -0.287,-0.687v0v0c-0.192,-0.192 -0.42133,-0.288 -0.688,-0.288v0h-8.7v0c-0.26667,0 -0.5,0.096 -0.7,0.288v0v0c-0.2,0.19133 -0.3,0.42033 -0.3,0.687v0v8.45v0c0,0.26667 0.1,0.496 0.3,0.688v0v0c0.2,0.19133 0.43333,0.287 0.7,0.287zM246.237,291.137h-8.7v0c-0.83333,0 -1.54567,-0.29567 -2.137,-0.887v0v0c-0.592,-0.592 -0.888,-1.30467 -0.888,-2.138v0v-8.45v0c0,-0.83333 0.296,-1.54567 0.888,-2.137v0v0c0.59133,-0.592 1.30367,-0.888 2.137,-0.888v0h8.7v0c0.85,0 1.571,0.296 2.163,0.888v0v0c0.59133,0.59133 0.887,1.30367 0.887,2.137v0v8.45v0c0,0.83333 -0.29567,1.546 -0.887,2.138v0v0c-0.592,0.59133 -1.313,0.887 -2.163,0.887v0zM237.537,289.087v0h8.7v0c0.26667,0 0.496,-0.09567 0.688,-0.287v0v0c0.19133,-0.192 0.287,-0.42133 0.287,-0.688v0v-8.45v0c0,-0.26667 -0.09567,-0.49567 -0.287,-0.687v0v0c-0.192,-0.192 -0.42133,-0.288 -0.688,-0.288v0h-8.7v0c-0.26667,0 -0.49567,0.096 -0.687,0.288v0v0c-0.192,0.19133 -0.288,0.42033 -0.288,0.687v0v8.45v0c0,0.26667 0.096,0.496 0.288,0.688v0v0c0.19133,0.19133 0.42033,0.287 0.687,0.287zM259.612,291.137h-5.3v0c-0.85,0 -1.56667,-0.29567 -2.15,-0.887v0v0c-0.58333,-0.592 -0.875,-1.30467 -0.875,-2.138v0v-16.225h2.05v4.75h6.275v2.05h-6.275v9.425v0c0,0.26667 0.096,0.496 0.288,0.688v0v0c0.19133,0.19133 0.42033,0.287 0.687,0.287v0h5.3v2.05zM263.737,291.137h-2.05v-19.25h2.05v4.75h9.7v0c0.81667,0 1.525,0.296 2.125,0.888v0v0c0.6,0.59133 0.9,1.30367 0.9,2.137v0v11.475h-2.05v-11.475v0c0,-0.26667 -0.09567,-0.49567 -0.287,-0.687v0v0c-0.192,-0.192 -0.42133,-0.288 -0.688,-0.288v0h-8.7v0c-0.26667,0 -0.5,0.096 -0.7,0.288v0v0c-0.2,0.19133 -0.3,0.42033 -0.3,0.687v0v11.475zM197.662,291.137h-2.05v-14.5h2.05v14.5zM197.662,273.937h-2.05v-2.05h2.05v2.05zM209.162,291.137h-5.3v0c-0.85,0 -1.56667,-0.29567 -2.15,-0.887v0v0c-0.58333,-0.592 -0.875,-1.30467 -0.875,-2.138v0v-16.225h2.05v4.75h6.275v2.05h-6.275v9.425v0c0,0.26667 0.096,0.496 0.288,0.688v0v0c0.19133,0.19133 0.42033,0.287 0.687,0.287v0h5.3v2.05zM93.687,291.137h-2.075v-14.5h19.15v0c0.85,0 1.56667,0.296 2.15,0.888v0v0c0.58333,0.59133 0.875,1.30367 0.875,2.137v0v11.475h-2.025v-11.475v0c0,-0.26667 -0.1,-0.49567 -0.3,-0.687v0v0c-0.2,-0.192 -0.43333,-0.288 -0.7,-0.288v0h-6.025v0c-0.26667,0 -0.49567,0.096 -0.687,0.288v0v0c-0.192,0.19133 -0.288,0.42033 -0.288,0.687v0v11.475h-2.075v-11.475v0c0,-0.26667 -0.09567,-0.49567 -0.287,-0.687v0v0c-0.192,-0.192 -0.42133,-0.288 -0.688,-0.288v0h-6.05v0c-0.26667,0 -0.49567,0.096 -0.687,0.288v0v0c-0.192,0.19133 -0.288,0.42033 -0.288,0.687v0v11.475zM130.787,291.137h-11.75v0c-0.83333,0 -1.54567,-0.29567 -2.137,-0.887v0v0c-0.592,-0.592 -0.888,-1.30467 -0.888,-2.138v0v-5.25h12.7v-3.2v0c0,-0.26667 -0.09567,-0.49567 -0.287,-0.687v0v0c-0.192,-0.192 -0.42133,-0.288 -0.688,-0.288v0h-11.725v-2.05h11.725v0c0.85,0 1.571,0.296 2.163,0.888v0v0c0.59133,0.59133 0.887,1.30367 0.887,2.137v0v11.475zM119.037,289.087v0h9.675v-4.175h-10.65v3.2v0c0,0.26667 0.096,0.496 0.288,0.688v0v0c0.19133,0.19133 0.42033,0.287 0.687,0.287zM135.462,291.137h-2.05v-19.25h2.05v10.975h4l5.7,-6.225h2.7v0.025l-6.575,7.225l6.55,7.225v0.025h-2.675l-5.7,-6.225h-4v6.225zM151.562,291.137h-2.05v-14.5h2.05v14.5zM151.562,273.937h-2.05v-2.05h2.05v2.05zM156.437,291.137h-2.05v-14.5h11.75v0c0.83333,0 1.546,0.296 2.138,0.888v0v0c0.59133,0.59133 0.887,1.30367 0.887,2.137v0v11.475h-2.05v-11.475v0c0,-0.26667 -0.09567,-0.49567 -0.287,-0.687v0v0c-0.192,-0.192 -0.42133,-0.288 -0.688,-0.288v0h-8.7v0c-0.26667,0 -0.5,0.096 -0.7,0.288v0v0c-0.2,0.19133 -0.3,0.42033 -0.3,0.687v0v11.475zM183.187,296.862h-9.05v-2.075h9.05v0c0.26667,0 0.496,-0.09567 0.688,-0.287v0v0c0.19133,-0.192 0.287,-0.42133 0.287,-0.688v0v-2.675h-9.675v0c-0.83333,0 -1.54567,-0.29567 -2.137,-0.887v0v0c-0.592,-0.592 -0.888,-1.30467 -0.888,-2.138v0v-8.45v0c0,-0.83333 0.296,-1.54567 0.888,-2.137v0v0c0.59133,-0.592 1.30367,-0.888 2.137,-0.888v0h8.7v0c0.85,0 1.56667,0.296 2.15,0.888v0v0c0.58333,0.59133 0.875,1.30367 0.875,2.137v0v14.15v0c0,0.85 -0.29167,1.571 -0.875,2.163v0v0c-0.58333,0.59133 -1.3,0.887 -2.15,0.887v0zM174.487,289.087v0h8.7v0c0.26667,0 0.496,-0.09567 0.688,-0.287v0v0c0.19133,-0.192 0.287,-0.42133 0.287,-0.688v0v-8.45v0c0,-0.26667 -0.09567,-0.49567 -0.287,-0.687v0v0c-0.192,-0.192 -0.42133,-0.288 -0.688,-0.288v0h-8.7v0c-0.26667,0 -0.49567,0.096 -0.687,0.288v0v0c-0.192,0.19133 -0.288,0.42033 -0.288,0.687v0v8.45v0c0,0.26667 0.096,0.496 0.288,0.688v0v0c0.19133,0.19133 0.42033,0.287 0.687,0.287zM272.225,259.787h-16.425v-18h16.425v2.025h-14.4v5.95h11.575v2.05h-11.575v5.95h14.4v2.025zM292.85,259.787h-14.95v0c-0.83333,0 -1.54167,-0.29167 -2.125,-0.875v0v0c-0.58333,-0.58333 -0.875,-1.29167 -0.875,-2.125v0v-12v0c0,-0.83333 0.29167,-1.54167 0.875,-2.125v0v0c0.58333,-0.58333 1.29167,-0.875 2.125,-0.875v0h14.95v2.025h-14.95v0c-0.26667,0 -0.496,0.096 -0.688,0.288v0v0c-0.19133,0.19133 -0.287,0.42033 -0.287,0.687v0v12v0c0,0.26667 0.09567,0.496 0.287,0.688v0v0c0.192,0.19133 0.42133,0.287 0.688,0.287v0h14.95v2.025zM310.4,259.787h-12v0c-0.83333,0 -1.54167,-0.29167 -2.125,-0.875v0v0c-0.58333,-0.58333 -0.875,-1.29167 -0.875,-2.125v0v-12v0c0,-0.83333 0.29167,-1.54167 0.875,-2.125v0v0c0.58333,-0.58333 1.29167,-0.875 2.125,-0.875v0h12v0c0.83333,0 1.54167,0.29167 2.125,0.875v0v0c0.58333,0.58333 0.875,1.29167 0.875,2.125v0v12v0c0,0.83333 -0.29167,1.54167 -0.875,2.125v0v0c-0.58333,0.58333 -1.29167,0.875 -2.125,0.875v0zM298.4,257.762v0h12v0c0.26667,0 0.49567,-0.09567 0.687,-0.287v0v0c0.192,-0.192 0.288,-0.42133 0.288,-0.688v0v-12v0c0,-0.26667 -0.096,-0.49567 -0.288,-0.687v0v0c-0.19133,-0.192 -0.42033,-0.288 -0.687,-0.288v0h-12v0c-0.26667,0 -0.496,0.096 -0.688,0.288v0v0c-0.19133,0.19133 -0.287,0.42033 -0.287,0.687v0v12v0c0,0.26667 0.09567,0.496 0.287,0.688v0v0c0.192,0.19133 0.42133,0.287 0.688,0.287zM318.15,259.787h-2.05v-14.5h11.75v0c0.83333,0 1.54567,0.296 2.137,0.888v0v0c0.592,0.59133 0.888,1.30367 0.888,2.137v0v11.475h-2.05v-11.475v0c0,-0.26667 -0.096,-0.49567 -0.288,-0.687v0v0c-0.19133,-0.192 -0.42033,-0.288 -0.687,-0.288v0h-8.7v0c-0.26667,0 -0.5,0.096 -0.7,0.288v0v0c-0.2,0.19133 -0.3,0.42033 -0.3,0.687v0v11.475zM347.7,259.787h-11.75v0c-0.83333,0 -1.546,-0.29567 -2.138,-0.887v0v0c-0.59133,-0.592 -0.887,-1.30467 -0.887,-2.138v0v-8.45v0c0,-0.83333 0.29567,-1.54567 0.887,-2.137v0v0c0.592,-0.592 1.30467,-0.888 2.138,-0.888v0h11.7v2.05h-11.7v0c-0.26667,0 -0.496,0.096 -0.688,0.288v0v0c-0.19133,0.19133 -0.287,0.42033 -0.287,0.687v0v8.45v0c0,0.26667 0.09567,0.496 0.287,0.688v0v0c0.192,0.19133 0.42133,0.287 0.688,0.287v0h11.75v2.05zM352.375,259.787h-2.05v-11.475v0c0,-0.83333 0.29567,-1.54567 0.887,-2.137v0v0c0.592,-0.592 1.30467,-0.888 2.138,-0.888v0h8.15v2.05h-8.15v0c-0.26667,0 -0.496,0.096 -0.688,0.288v0v0c-0.19133,0.19133 -0.287,0.42033 -0.287,0.687v0v11.475zM377.875,259.787h-11.75v0c-0.83333,0 -1.546,-0.29567 -2.138,-0.887v0v0c-0.59133,-0.592 -0.887,-1.30467 -0.887,-2.138v0v-8.45v0c0,-0.83333 0.29567,-1.54567 0.887,-2.137v0v0c0.592,-0.592 1.30467,-0.888 2.138,-0.888v0h8.7v0c0.85,0 1.57067,0.296 2.162,0.888v0v0c0.592,0.59133 0.888,1.30367 0.888,2.137v0v5.25h-12.725v3.2v0c0,0.26667 0.09567,0.496 0.287,0.688v0v0c0.192,0.19133 0.42133,0.287 0.688,0.287v0h11.75v2.05zM365.15,248.312v3.2h10.65v-3.2v0c0,-0.26667 -0.096,-0.49567 -0.288,-0.687v0v0c-0.19133,-0.192 -0.42033,-0.288 -0.687,-0.288v0h-8.7v0c-0.26667,0 -0.496,0.096 -0.688,0.288v0v0c-0.19133,0.19133 -0.287,0.42033 -0.287,0.687v0zM388.775,259.787h-5.3v0c-0.85,0 -1.56667,-0.29567 -2.15,-0.887v0v0c-0.58333,-0.592 -0.875,-1.30467 -0.875,-2.138v0v-16.225h2.05v4.75h6.275v2.05h-6.275v9.425v0c0,0.26667 0.09567,0.496 0.287,0.688v0v0c0.192,0.19133 0.42133,0.287 0.688,0.287v0h5.3v2.05zM405.425,259.787h-11.75v0c-0.83333,0 -1.546,-0.29567 -2.138,-0.887v0v0c-0.59133,-0.592 -0.887,-1.30467 -0.887,-2.138v0v-8.45v0c0,-0.83333 0.29567,-1.54567 0.887,-2.137v0v0c0.592,-0.592 1.30467,-0.888 2.138,-0.888v0h8.7v0c0.85,0 1.57067,0.296 2.162,0.888v0v0c0.592,0.59133 0.888,1.30367 0.888,2.137v0v5.25h-12.725v3.2v0c0,0.26667 0.09567,0.496 0.287,0.688v0v0c0.192,0.19133 0.42133,0.287 0.688,0.287v0h11.75v2.05zM392.7,248.312v3.2h10.65v-3.2v0c0,-0.26667 -0.096,-0.49567 -0.288,-0.687v0v0c-0.19133,-0.192 -0.42033,-0.288 -0.687,-0.288v0h-8.7v0c-0.26667,0 -0.496,0.096 -0.688,0.288v0v0c-0.19133,0.19133 -0.287,0.42033 -0.287,0.687v0zM408.025,263.062v0v-5.325h2.05v2.45v0c0,0.66667 -0.19167,1.26267 -0.575,1.788v0v0c-0.38333,0.52467 -0.875,0.887 -1.475,1.087zM186.325,259.787h-2.05v-16.225v0c0,-0.85 0.29167,-1.56667 0.875,-2.15v0v0c0.58333,-0.58333 1.3,-0.875 2.15,-0.875v0h5.3v2.05h-5.3v0c-0.26667,0 -0.496,0.096 -0.688,0.288v0v0c-0.19133,0.19133 -0.287,0.42033 -0.287,0.687v0v1.725h6.275v2.05h-6.275v12.45zM196.475,259.787h-2.05v-11.475v0c0,-0.83333 0.29567,-1.54567 0.887,-2.137v0v0c0.592,-0.592 1.30467,-0.888 2.138,-0.888v0h8.15v2.05h-8.15v0c-0.26667,0 -0.496,0.096 -0.688,0.288v0v0c-0.19133,0.19133 -0.287,0.42033 -0.287,0.687v0v11.475zM218.8,259.787h-8.7v0c-0.83333,0 -1.546,-0.29567 -2.138,-0.887v0v0c-0.59133,-0.592 -0.887,-1.30467 -0.887,-2.138v0v-8.45v0c0,-0.83333 0.29567,-1.54567 0.887,-2.137v0v0c0.592,-0.592 1.30467,-0.888 2.138,-0.888v0h8.7v0c0.85,0 1.57067,0.296 2.162,0.888v0v0c0.592,0.59133 0.888,1.30367 0.888,2.137v0v8.45v0c0,0.83333 -0.296,1.546 -0.888,2.138v0v0c-0.59133,0.59133 -1.312,0.887 -2.162,0.887v0zM210.1,257.737v0h8.7v0c0.26667,0 0.49567,-0.09567 0.687,-0.287v0v0c0.192,-0.192 0.288,-0.42133 0.288,-0.688v0v-8.45v0c0,-0.26667 -0.096,-0.49567 -0.288,-0.687v0v0c-0.19133,-0.192 -0.42033,-0.288 -0.687,-0.288v0h-8.7v0c-0.26667,0 -0.496,0.096 -0.688,0.288v0v0c-0.19133,0.19133 -0.287,0.42033 -0.287,0.687v0v8.45v0c0,0.26667 0.09567,0.496 0.287,0.688v0v0c0.192,0.19133 0.42133,0.287 0.688,0.287zM226.525,259.787h-2.075v-14.5h19.15v0c0.85,0 1.56667,0.296 2.15,0.888v0v0c0.58333,0.59133 0.875,1.30367 0.875,2.137v0v11.475h-2.025v-11.475v0c0,-0.26667 -0.1,-0.49567 -0.3,-0.687v0v0c-0.2,-0.192 -0.43333,-0.288 -0.7,-0.288v0h-6.025v0c-0.26667,0 -0.496,0.096 -0.688,0.288v0v0c-0.19133,0.19133 -0.287,0.42033 -0.287,0.687v0v11.475h-2.075v-11.475v0c0,-0.26667 -0.096,-0.49567 -0.288,-0.687v0v0c-0.19133,-0.192 -0.42033,-0.288 -0.687,-0.288v0h-6.05v0c-0.26667,0 -0.496,0.096 -0.688,0.288v0v0c-0.19133,0.19133 -0.287,0.42033 -0.287,0.687v0v11.475zM79.425,259.787h-8.7v0c-0.83333,0 -1.546,-0.29567 -2.138,-0.887v0v0c-0.59133,-0.592 -0.887,-1.30467 -0.887,-2.138v0v-0.2h2.05v0.2v0c0,0.26667 0.09567,0.496 0.287,0.688v0v0c0.192,0.19133 0.42133,0.287 0.688,0.287v0h8.7v0c0.26667,0 0.49567,-0.09567 0.687,-0.287v0v0c0.192,-0.192 0.288,-0.42133 0.288,-0.688v0v-2.225v0c0,-0.26667 -0.096,-0.49567 -0.288,-0.687v0v0c-0.19133,-0.192 -0.42033,-0.288 -0.687,-0.288v0h-8.7v0c-0.83333,0 -1.546,-0.29567 -2.138,-0.887v0v0c-0.59133,-0.592 -0.887,-1.30467 -0.887,-2.138v0v-2.225v0c0,-0.83333 0.29567,-1.54567 0.887,-2.137v0v0c0.592,-0.592 1.30467,-0.888 2.138,-0.888v0h8.7v0c0.85,0 1.57067,0.296 2.162,0.888v0v0c0.592,0.59133 0.888,1.30367 0.888,2.137v0v0.2h-2.075v-0.2v0c0,-0.26667 -0.096,-0.49567 -0.288,-0.687v0v0c-0.19133,-0.192 -0.42033,-0.288 -0.687,-0.288v0h-8.7v0c-0.26667,0 -0.496,0.096 -0.688,0.288v0v0c-0.19133,0.19133 -0.287,0.42033 -0.287,0.687v0v2.225v0c0,0.26667 0.09567,0.496 0.287,0.688v0v0c0.192,0.19133 0.42133,0.287 0.688,0.287v0h8.7v0c0.85,0 1.57067,0.296 2.162,0.888v0v0c0.592,0.59133 0.888,1.30367 0.888,2.137v0v2.225v0c0,0.83333 -0.296,1.546 -0.888,2.138v0v0c-0.59133,0.59133 -1.312,0.887 -2.162,0.887v0zM99.325,259.787h-11.75v0c-0.83333,0 -1.546,-0.29567 -2.138,-0.887v0v0c-0.59133,-0.592 -0.887,-1.30467 -0.887,-2.138v0v-8.45v0c0,-0.83333 0.29567,-1.54567 0.887,-2.137v0v0c0.592,-0.592 1.30467,-0.888 2.138,-0.888v0h8.7v0c0.85,0 1.57067,0.296 2.162,0.888v0v0c0.592,0.59133 0.888,1.30367 0.888,2.137v0v5.25h-12.725v3.2v0c0,0.26667 0.09567,0.496 0.287,0.688v0v0c0.192,0.19133 0.42133,0.287 0.688,0.287v0h11.75v2.05zM86.6,248.312v3.2h10.65v-3.2v0c0,-0.26667 -0.096,-0.49567 -0.288,-0.687v0v0c-0.19133,-0.192 -0.42033,-0.288 -0.687,-0.288v0h-8.7v0c-0.26667,0 -0.496,0.096 -0.688,0.288v0v0c-0.19133,0.19133 -0.287,0.42033 -0.287,0.687v0zM116.65,259.787h-11.75v0c-0.83333,0 -1.546,-0.29567 -2.138,-0.887v0v0c-0.59133,-0.592 -0.887,-1.30467 -0.887,-2.138v0v-5.25h12.7v-3.2v0c0,-0.26667 -0.096,-0.49567 -0.288,-0.687v0v0c-0.19133,-0.192 -0.42033,-0.288 -0.687,-0.288v0h-11.725v-2.05h11.725v0c0.85,0 1.57067,0.296 2.162,0.888v0v0c0.592,0.59133 0.888,1.30367 0.888,2.137v0v11.475zM104.9,257.737v0h9.675v-4.175h-10.65v3.2v0c0,0.26667 0.09567,0.496 0.287,0.688v0v0c0.192,0.19133 0.42133,0.287 0.688,0.287zM125.55,259.787h-1.8l-5.7,-14.5h2.2l4.4,10.8l4.675,-10.8h2.7l4.975,10.775l4.1,-10.775h2.225l-5.475,14.5h-1.775l-5.4,-11.975l-5.125,11.975zM160.025,259.787h-11.75v0c-0.83333,0 -1.546,-0.29567 -2.138,-0.887v0v0c-0.59133,-0.592 -0.887,-1.30467 -0.887,-2.138v0v-5.25h12.7v-3.2v0c0,-0.26667 -0.096,-0.49567 -0.288,-0.687v0v0c-0.19133,-0.192 -0.42033,-0.288 -0.687,-0.288v0h-11.725v-2.05h11.725v0c0.85,0 1.57067,0.296 2.162,0.888v0v0c0.592,0.59133 0.888,1.30367 0.888,2.137v0v11.475zM148.275,257.737v0h9.675v-4.175h-10.65v3.2v0c0,0.26667 0.09567,0.496 0.287,0.688v0v0c0.192,0.19133 0.42133,0.287 0.688,0.287zM167.825,259.787h-2.45v0c-0.83333,0 -1.546,-0.29567 -2.138,-0.887v0v0c-0.59133,-0.592 -0.887,-1.30467 -0.887,-2.138v0v-16.225h2.05v16.225v0c0,0.26667 0.09567,0.496 0.287,0.688v0v0c0.192,0.19133 0.42133,0.287 0.688,0.287v0h2.45v2.05zM175.375,259.787h-2.45v0c-0.83333,0 -1.546,-0.29567 -2.138,-0.887v0v0c-0.59133,-0.592 -0.887,-1.30467 -0.887,-2.138v0v-16.225h2.05v16.225v0c0,0.26667 0.09567,0.496 0.287,0.688v0v0c0.192,0.19133 0.42133,0.287 0.688,0.287v0h2.45v2.05zM327.862,228.437h-11.75v0c-0.83333,0 -1.54567,-0.29567 -2.137,-0.887v0v0c-0.592,-0.592 -0.888,-1.30467 -0.888,-2.138v0v-8.45v0c0,-0.83333 0.296,-1.54567 0.888,-2.137v0v0c0.59133,-0.592 1.30367,-0.888 2.137,-0.888v0h8.7v0c0.85,0 1.571,0.296 2.163,0.888v0v0c0.59133,0.59133 0.887,1.30367 0.887,2.137v0v5.25h-12.725v3.2v0c0,0.26667 0.096,0.496 0.288,0.688v0v0c0.19133,0.19133 0.42033,0.287 0.687,0.287v0h11.75v2.05zM315.137,216.962v3.2h10.65v-3.2v0c0,-0.26667 -0.09567,-0.49567 -0.287,-0.687v0v0c-0.192,-0.192 -0.42133,-0.288 -0.688,-0.288v0h-8.7v0c-0.26667,0 -0.49567,0.096 -0.687,0.288v0v0c-0.192,0.19133 -0.288,0.42033 -0.288,0.687v0zM332.512,228.437h-2.05v-14.5h11.75v0c0.83333,0 1.546,0.296 2.138,0.888v0v0c0.59133,0.59133 0.887,1.30367 0.887,2.137v0v11.475h-2.05v-11.475v0c0,-0.26667 -0.09567,-0.49567 -0.287,-0.687v0v0c-0.192,-0.192 -0.42133,-0.288 -0.688,-0.288v0h-8.7v0c-0.26667,0 -0.5,0.096 -0.7,0.288v0v0c-0.2,0.19133 -0.3,0.42033 -0.3,0.687v0v11.475zM356.162,228.437h-5.3v0c-0.85,0 -1.56667,-0.29567 -2.15,-0.887v0v0c-0.58333,-0.592 -0.875,-1.30467 -0.875,-2.138v0v-16.225h2.05v4.75h6.275v2.05h-6.275v9.425v0c0,0.26667 0.096,0.496 0.288,0.688v0v0c0.19133,0.19133 0.42033,0.287 0.687,0.287v0h5.3v2.05zM360.237,228.437h-2.05v-14.5h2.05v14.5zM360.237,211.237h-2.05v-2.05h2.05v2.05zM365.437,228.437h-2.05v-11.475v0c0,-0.83333 0.296,-1.54567 0.888,-2.137v0v0c0.59133,-0.592 1.30367,-0.888 2.137,-0.888v0h8.15v2.05h-8.15v0c-0.26667,0 -0.49567,0.096 -0.687,0.288v0v0c-0.192,0.19133 -0.288,0.42033 -0.288,0.687v0v11.475zM390.937,228.437h-11.75v0c-0.83333,0 -1.54567,-0.29567 -2.137,-0.887v0v0c-0.592,-0.592 -0.888,-1.30467 -0.888,-2.138v0v-8.45v0c0,-0.83333 0.296,-1.54567 0.888,-2.137v0v0c0.59133,-0.592 1.30367,-0.888 2.137,-0.888v0h8.7v0c0.85,0 1.571,0.296 2.163,0.888v0v0c0.59133,0.59133 0.887,1.30367 0.887,2.137v0v5.25h-12.725v3.2v0c0,0.26667 0.096,0.496 0.288,0.688v0v0c0.19133,0.19133 0.42033,0.287 0.687,0.287v0h11.75v2.05zM378.212,216.962v3.2h10.65v-3.2v0c0,-0.26667 -0.09567,-0.49567 -0.287,-0.687v0v0c-0.192,-0.192 -0.42133,-0.288 -0.688,-0.288v0h-8.7v0c-0.26667,0 -0.49567,0.096 -0.687,0.288v0v0c-0.192,0.19133 -0.288,0.42033 -0.288,0.687v0zM287.087,228.437h-11.75v0c-0.83333,0 -1.54567,-0.29567 -2.137,-0.887v0v0c-0.592,-0.592 -0.888,-1.30467 -0.888,-2.138v0v-5.25h12.7v-3.2v0c0,-0.26667 -0.09567,-0.49567 -0.287,-0.687v0v0c-0.192,-0.192 -0.42133,-0.288 -0.688,-0.288v0h-11.725v-2.05h11.725v0c0.85,0 1.571,0.296 2.163,0.888v0v0c0.59133,0.59133 0.887,1.30367 0.887,2.137v0v11.475zM275.337,226.387v0h9.675v-4.175h-10.65v3.2v0c0,0.26667 0.096,0.496 0.288,0.688v0v0c0.19133,0.19133 0.42033,0.287 0.687,0.287zM291.387,228.437h-2.05v-14.5h11.75v0c0.83333,0 1.546,0.296 2.138,0.888v0v0c0.59133,0.59133 0.887,1.30367 0.887,2.137v0v11.475h-2.05v-11.475v0c0,-0.26667 -0.09567,-0.49567 -0.287,-0.687v0v0c-0.192,-0.192 -0.42133,-0.288 -0.688,-0.288v0h-8.7v0c-0.26667,0 -0.5,0.096 -0.7,0.288v0v0c-0.2,0.19133 -0.3,0.42033 -0.3,0.687v0v11.475zM213.587,228.437h-11.75v-19.25h2.05v4.75h9.7v0c0.83333,0 1.546,0.296 2.138,0.888v0v0c0.59133,0.59133 0.887,1.30367 0.887,2.137v0v8.45v0c0,0.83333 -0.29567,1.546 -0.887,2.138v0v0c-0.592,0.59133 -1.30467,0.887 -2.138,0.887v0zM204.887,226.387v0h8.7v0c0.26667,0 0.496,-0.09567 0.688,-0.287v0v0c0.19133,-0.192 0.287,-0.42133 0.287,-0.688v0v-8.45v0c0,-0.26667 -0.09567,-0.49567 -0.287,-0.687v0v0c-0.192,-0.192 -0.42133,-0.288 -0.688,-0.288v0h-8.7v0c-0.26667,0 -0.5,0.096 -0.7,0.288v0v0c-0.2,0.19133 -0.3,0.42033 -0.3,0.687v0v8.45v0c0,0.26667 0.1,0.496 0.3,0.688v0v0c0.2,0.19133 0.43333,0.287 0.7,0.287zM230.212,228.437h-8.7v0c-0.83333,0 -1.54567,-0.29567 -2.137,-0.887v0v0c-0.592,-0.592 -0.888,-1.30467 -0.888,-2.138v0v-11.475h2.05v11.475v0c0,0.26667 0.096,0.496 0.288,0.688v0v0c0.19133,0.19133 0.42033,0.287 0.687,0.287v0h8.7v0c0.26667,0 0.5,-0.09567 0.7,-0.287v0v0c0.2,-0.192 0.3,-0.42133 0.3,-0.688v0v-11.475h2.05v11.475v0c0,0.83333 -0.29567,1.546 -0.887,2.138v0v0c-0.592,0.59133 -1.313,0.887 -2.163,0.887v0zM237.887,228.437h-2.05v-14.5h2.05v14.5zM237.887,211.237h-2.05v-2.05h2.05v2.05zM246.512,228.437h-2.45v0c-0.83333,0 -1.54567,-0.29567 -2.137,-0.887v0v0c-0.592,-0.592 -0.888,-1.30467 -0.888,-2.138v0v-16.225h2.05v16.225v0c0,0.26667 0.096,0.496 0.288,0.688v0v0c0.19133,0.19133 0.42033,0.287 0.687,0.287v0h2.45v2.05zM262.762,228.437h-11.725v0c-0.85,0 -1.57067,-0.29567 -2.162,-0.887v0v0c-0.592,-0.592 -0.888,-1.30467 -0.888,-2.138v0v-8.45v0c0,-0.83333 0.296,-1.54567 0.888,-2.137v0v0c0.59133,-0.592 1.312,-0.888 2.162,-0.888v0h9.675v-4.75h2.05v19.25zM251.037,226.387v0h8.7v0c0.26667,0 0.496,-0.09567 0.688,-0.287v0v0c0.19133,-0.192 0.287,-0.42133 0.287,-0.688v0v-8.45v0c0,-0.26667 -0.09567,-0.49567 -0.287,-0.687v0v0c-0.192,-0.192 -0.42133,-0.288 -0.688,-0.288v0h-8.7v0c-0.26667,0 -0.49567,0.096 -0.687,0.288v0v0c-0.192,0.19133 -0.288,0.42033 -0.288,0.687v0v8.45v0c0,0.26667 0.096,0.496 0.288,0.688v0v0c0.19133,0.19133 0.42033,0.287 0.687,0.287zM144.762,234.512h-6.125v-2.075h6.125v0c0.26667,0 0.496,-0.09567 0.688,-0.287v0v0c0.19133,-0.192 0.287,-0.42133 0.287,-0.688v0v-17.525h2.075v17.525v0c0,0.85 -0.29567,1.571 -0.887,2.163v0v0c-0.592,0.59133 -1.313,0.887 -2.163,0.887v0zM147.812,211.237h-2.075v-2.05h2.075v2.05zM162.337,228.437h-8.7v0c-0.83333,0 -1.54567,-0.29567 -2.137,-0.887v0v0c-0.592,-0.592 -0.888,-1.30467 -0.888,-2.138v0v-11.475h2.05v11.475v0c0,0.26667 0.096,0.496 0.288,0.688v0v0c0.19133,0.19133 0.42033,0.287 0.687,0.287v0h8.7v0c0.26667,0 0.5,-0.09567 0.7,-0.287v0v0c0.2,-0.192 0.3,-0.42133 0.3,-0.688v0v-11.475h2.05v11.475v0c0,0.83333 -0.29567,1.546 -0.887,2.138v0v0c-0.592,0.59133 -1.313,0.887 -2.163,0.887v0zM179.212,228.437h-8.7v0c-0.83333,0 -1.54567,-0.29567 -2.137,-0.887v0v0c-0.592,-0.592 -0.888,-1.30467 -0.888,-2.138v0v-0.2h2.05v0.2v0c0,0.26667 0.096,0.496 0.288,0.688v0v0c0.19133,0.19133 0.42033,0.287 0.687,0.287v0h8.7v0c0.26667,0 0.496,-0.09567 0.688,-0.287v0v0c0.19133,-0.192 0.287,-0.42133 0.287,-0.688v0v-2.225v0c0,-0.26667 -0.09567,-0.49567 -0.287,-0.687v0v0c-0.192,-0.192 -0.42133,-0.288 -0.688,-0.288v0h-8.7v0c-0.83333,0 -1.54567,-0.29567 -2.137,-0.887v0v0c-0.592,-0.592 -0.888,-1.30467 -0.888,-2.138v0v-2.225v0c0,-0.83333 0.296,-1.54567 0.888,-2.137v0v0c0.59133,-0.592 1.30367,-0.888 2.137,-0.888v0h8.7v0c0.85,0 1.571,0.296 2.163,0.888v0v0c0.59133,0.59133 0.887,1.30367 0.887,2.137v0v0.2h-2.075v-0.2v0c0,-0.26667 -0.09567,-0.49567 -0.287,-0.687v0v0c-0.192,-0.192 -0.42133,-0.288 -0.688,-0.288v0h-8.7v0c-0.26667,0 -0.49567,0.096 -0.687,0.288v0v0c-0.192,0.19133 -0.288,0.42033 -0.288,0.687v0v2.225v0c0,0.26667 0.096,0.496 0.288,0.688v0v0c0.19133,0.19133 0.42033,0.287 0.687,0.287v0h8.7v0c0.85,0 1.571,0.296 2.163,0.888v0v0c0.59133,0.59133 0.887,1.30367 0.887,2.137v0v2.225v0c0,0.83333 -0.29567,1.546 -0.887,2.138v0v0c-0.592,0.59133 -1.313,0.887 -2.163,0.887v0zM193.087,228.437h-5.3v0c-0.85,0 -1.56667,-0.29567 -2.15,-0.887v0v0c-0.58333,-0.592 -0.875,-1.30467 -0.875,-2.138v0v-16.225h2.05v4.75h6.275v2.05h-6.275v9.425v0c0,0.26667 0.096,0.496 0.288,0.688v0v0c0.19133,0.19133 0.42033,0.287 0.687,0.287v0h5.3v2.05zM96.537,228.437h-2.025v-6.775l-8.275,-11.225h2.325l6.975,8.8l6.9,-8.8h2.375l-8.275,11.225v6.775zM115.987,228.437h-8.7v0c-0.83333,0 -1.54567,-0.29567 -2.137,-0.887v0v0c-0.592,-0.592 -0.888,-1.30467 -0.888,-2.138v0v-8.45v0c0,-0.83333 0.296,-1.54567 0.888,-2.137v0v0c0.59133,-0.592 1.30367,-0.888 2.137,-0.888v0h8.7v0c0.85,0 1.571,0.296 2.163,0.888v0v0c0.59133,0.59133 0.887,1.30367 0.887,2.137v0v8.45v0c0,0.83333 -0.29567,1.546 -0.887,2.138v0v0c-0.592,0.59133 -1.313,0.887 -2.163,0.887v0zM107.287,226.387v0h8.7v0c0.26667,0 0.496,-0.09567 0.688,-0.287v0v0c0.19133,-0.192 0.287,-0.42133 0.287,-0.688v0v-8.45v0c0,-0.26667 -0.09567,-0.49567 -0.287,-0.687v0v0c-0.192,-0.192 -0.42133,-0.288 -0.688,-0.288v0h-8.7v0c-0.26667,0 -0.49567,0.096 -0.687,0.288v0v0c-0.192,0.19133 -0.288,0.42033 -0.288,0.687v0v8.45v0c0,0.26667 0.096,0.496 0.288,0.688v0v0c0.19133,0.19133 0.42033,0.287 0.687,0.287zM132.762,228.437h-8.7v0c-0.83333,0 -1.54567,-0.29567 -2.137,-0.887v0v0c-0.592,-0.592 -0.888,-1.30467 -0.888,-2.138v0v-11.475h2.05v11.475v0c0,0.26667 0.096,0.496 0.288,0.688v0v0c0.19133,0.19133 0.42033,0.287 0.687,0.287v0h8.7v0c0.26667,0 0.5,-0.09567 0.7,-0.287v0v0c0.2,-0.192 0.3,-0.42133 0.3,-0.688v0v-11.475h2.05v11.475v0c0,0.83333 -0.29567,1.546 -0.887,2.138v0v0c-0.592,0.59133 -1.313,0.887 -2.163,0.887v0z" fill="#ffffff" stroke="none" stroke-width="1"/><path d="M278.532,185.547h-16.8v0c-1.16667,0 -2.15833,-0.40833 -2.975,-1.225v0v0c-0.81667,-0.81667 -1.225,-1.80833 -1.225,-2.975v0v-1.995h2.835v1.995v0c0,0.37333 0.13433,0.69433 0.403,0.963v0v0c0.268,0.268 0.58867,0.402 0.962,0.402v0h16.8v0c0.37333,0 0.69433,-0.134 0.963,-0.402v0v0c0.268,-0.26867 0.402,-0.58967 0.402,-0.963v0v-21h2.835v21v0c0,1.16667 -0.40833,2.15833 -1.225,2.975v0v0c-0.81667,0.81667 -1.80833,1.225 -2.975,1.225v0zM302.892,185.547h-12.18v0c-1.16667,0 -2.164,-0.414 -2.992,-1.242v0v0c-0.82867,-0.82867 -1.243,-1.82633 -1.243,-2.993v0v-11.83v0c0,-1.16667 0.41433,-2.164 1.243,-2.992v0v0c0.828,-0.82867 1.82533,-1.243 2.992,-1.243v0h12.18v0c1.19,0 2.19933,0.41433 3.028,1.243v0v0c0.828,0.828 1.242,1.82533 1.242,2.992v0v11.83v0c0,1.16667 -0.414,2.16433 -1.242,2.993v0v0c-0.82867,0.828 -1.838,1.242 -3.028,1.242v0zM290.712,182.677v0h12.18v0c0.37333,0 0.69433,-0.134 0.963,-0.402v0v0c0.268,-0.26867 0.402,-0.58967 0.402,-0.963v0v-11.83v0c0,-0.37333 -0.134,-0.694 -0.402,-0.962v0v0c-0.26867,-0.26867 -0.58967,-0.403 -0.963,-0.403v0h-12.18v0c-0.37333,0 -0.694,0.13433 -0.962,0.403v0v0c-0.26867,0.268 -0.403,0.58867 -0.403,0.962v0v11.83v0c0,0.37333 0.13433,0.69433 0.403,0.963v0v0c0.268,0.268 0.58867,0.402 0.962,0.402zM327.252,185.547h-16.45v-26.95h2.87v6.65h13.58v0c1.16667,0 2.16433,0.41433 2.993,1.243v0v0c0.828,0.828 1.242,1.82533 1.242,2.992v0v11.83v0c0,1.16667 -0.414,2.16433 -1.242,2.993v0v0c-0.82867,0.828 -1.82633,1.242 -2.993,1.242v0zM315.072,182.677v0h12.18v0c0.37333,0 0.69433,-0.134 0.963,-0.402v0v0c0.268,-0.26867 0.402,-0.58967 0.402,-0.963v0v-11.83v0c0,-0.37333 -0.134,-0.694 -0.402,-0.962v0v0c-0.26867,-0.26867 -0.58967,-0.403 -0.963,-0.403v0h-12.18v0c-0.37333,0 -0.7,0.13433 -0.98,0.403v0v0c-0.28,0.268 -0.42,0.58867 -0.42,0.962v0v11.83v0c0,0.37333 0.14,0.69433 0.42,0.963v0v0c0.28,0.268 0.60667,0.402 0.98,0.402zM337.157,178.442h-2.87v-18.095h2.87v18.095zM337.157,185.547h-2.87v-2.87h2.87v2.87zM161.002,185.547h-16.8v0c-1.16667,0 -2.15833,-0.40833 -2.975,-1.225v0v0c-0.81667,-0.81667 -1.225,-1.80833 -1.225,-2.975v0v-16.8v0c0,-1.16667 0.40833,-2.15833 1.225,-2.975v0v0c0.81667,-0.81667 1.80833,-1.225 2.975,-1.225v0h16.8v0c1.16667,0 2.15833,0.40833 2.975,1.225v0v0c0.81667,0.81667 1.225,1.80833 1.225,2.975v0v1.015h-2.835v-1.015v0c0,-0.37333 -0.134,-0.694 -0.402,-0.962v0v0c-0.26867,-0.26867 -0.58967,-0.403 -0.963,-0.403v0h-16.8v0c-0.37333,0 -0.694,0.13433 -0.962,0.403v0v0c-0.26867,0.268 -0.403,0.58867 -0.403,0.962v0v16.8v0c0,0.37333 0.13433,0.69433 0.403,0.963v0v0c0.268,0.268 0.58867,0.402 0.962,0.402v0h16.8v0c0.37333,0 0.69433,-0.134 0.963,-0.402v0v0c0.268,-0.26867 0.402,-0.58967 0.402,-0.963v0v-6.23h-6.23v-2.87h9.065v9.1v0c0,1.16667 -0.40833,2.15833 -1.225,2.975v0v0c-0.81667,0.81667 -1.80833,1.225 -2.975,1.225v0zM171.782,185.547h-2.87v-16.065v0c0,-1.16667 0.41433,-2.164 1.243,-2.992v0v0c0.828,-0.82867 1.82533,-1.243 2.992,-1.243v0h11.41v2.87h-11.41v0c-0.37333,0 -0.694,0.13433 -0.962,0.403v0v0c-0.26867,0.268 -0.403,0.58867 -0.403,0.962v0v16.065zM207.482,185.547h-16.45v0c-1.16667,0 -2.164,-0.414 -2.992,-1.242v0v0c-0.82867,-0.82867 -1.243,-1.82633 -1.243,-2.993v0v-11.83v0c0,-1.16667 0.41433,-2.164 1.243,-2.992v0v0c0.828,-0.82867 1.82533,-1.243 2.992,-1.243v0h12.18v0c1.19,0 2.19933,0.41433 3.028,1.243v0v0c0.828,0.828 1.242,1.82533 1.242,2.992v0v7.35h-17.815v4.48v0c0,0.37333 0.13433,0.69433 0.403,0.963v0v0c0.268,0.268 0.58867,0.402 0.962,0.402v0h16.45v2.87zM189.667,169.482v4.48h14.91v-4.48v0c0,-0.37333 -0.134,-0.694 -0.402,-0.962v0v0c-0.26867,-0.26867 -0.58967,-0.403 -0.963,-0.403v0h-12.18v0c-0.37333,0 -0.694,0.13433 -0.962,0.403v0v0c-0.26867,0.268 -0.403,0.58867 -0.403,0.962v0zM231.737,185.547h-16.45v0c-1.16667,0 -2.164,-0.414 -2.992,-1.242v0v0c-0.82867,-0.82867 -1.243,-1.82633 -1.243,-2.993v0v-7.35h17.78v-4.48v0c0,-0.37333 -0.134,-0.694 -0.402,-0.962v0v0c-0.26867,-0.26867 -0.58967,-0.403 -0.963,-0.403v0h-16.415v-2.87h16.415v0c1.19,0 2.19933,0.41433 3.028,1.243v0v0c0.828,0.828 1.242,1.82533 1.242,2.992v0v16.065zM215.287,182.677v0h13.545v-5.845h-14.91v4.48v0c0,0.37333 0.13433,0.69433 0.403,0.963v0v0c0.268,0.268 0.58867,0.402 0.962,0.402zM247.032,185.547h-7.42v0c-1.19,0 -2.19333,-0.414 -3.01,-1.242v0v0c-0.81667,-0.82867 -1.225,-1.82633 -1.225,-2.993v0v-22.715h2.87v6.65h8.785v2.87h-8.785v13.195v0c0,0.37333 0.13433,0.69433 0.403,0.963v0v0c0.268,0.268 0.58867,0.402 0.962,0.402v0h7.42v2.87z" fill="#ffffff" stroke="none" stroke-width="1"/></g></g></svg>