<svg height="148pt" width="412.466pt" viewBox="0 0 412.466 148" style="isolation:isolate" xmlns:xlink="http://www.w3.org/1999/xlink" xmlns="http://www.w3.org/2000/svg"><defs><clipPath id="_clipPath_WFJPW54jLocw13px31pQH2QlvvgMYFsg"><rect height="148" width="412.466"></rect></clipPath></defs><g clip-path="url(#_clipPath_WFJPW54jLocw13px31pQH2QlvvgMYFsg)"><path stroke-miterlimit="10" stroke-linecap="butt" stroke-linejoin="miter" stroke-opacity="100" stroke="rgb(255,255,255)" stroke-width="2.5" fill-opacity="0.8" fill="rgb(0,0,0)" d="M 12.5 135.5 L 12.5 12.5 L 399.966 12.5 L 399.966 135.5 L 12.5 135.5 Z"></path><path fill="rgb(255,255,255)" fill-rule="evenodd" d="M 320.918 107.314 L 306.818 107.314 L 306.818 107.314 Q 305.318 107.314 304.253 106.249 L 304.253 106.249 L 304.253 106.249 Q 303.188 105.184 303.188 103.684 L 303.188 103.684 L 303.188 93.544 L 303.188 93.544 Q 303.188 92.044 304.253 90.979 L 304.253 90.979 L 304.253 90.979 Q 305.318 89.914 306.818 89.914 L 306.818 89.914 L 320.858 89.914 L 320.858 92.374 L 306.818 92.374 L 306.818 92.374 Q 306.338 92.374 305.993 92.719 L 305.993 92.719 L 305.993 92.719 Q 305.648 93.064 305.648 93.544 L 305.648 93.544 L 305.648 103.684 L 305.648 103.684 Q 305.648 104.164 305.993 104.509 L 305.993 104.509 L 305.993 104.509 Q 306.338 104.854 306.818 104.854 L 306.818 104.854 L 320.918 104.854 L 320.918 107.314 Z  M 338.108 107.314 L 327.668 107.314 L 327.668 107.314 Q 326.168 107.314 325.103 106.249 L 325.103 106.249 L 325.103 106.249 Q 324.038 105.184 324.038 103.684 L 324.038 103.684 L 324.038 93.544 L 324.038 93.544 Q 324.038 92.044 325.103 90.979 L 325.103 90.979 L 325.103 90.979 Q 326.168 89.914 327.668 89.914 L 327.668 89.914 L 338.108 89.914 L 338.108 89.914 Q 339.638 89.914 340.703 90.979 L 340.703 90.979 L 340.703 90.979 Q 341.768 92.044 341.768 93.544 L 341.768 93.544 L 341.768 103.684 L 341.768 103.684 Q 341.768 105.184 340.703 106.249 L 340.703 106.249 L 340.703 106.249 Q 339.638 107.314 338.108 107.314 L 338.108 107.314 Z  M 327.668 104.854 L 327.668 104.854 L 338.108 104.854 L 338.108 104.854 Q 338.588 104.854 338.933 104.509 L 338.933 104.509 L 338.933 104.509 Q 339.278 104.164 339.278 103.684 L 339.278 103.684 L 339.278 93.544 L 339.278 93.544 Q 339.278 93.064 338.933 92.719 L 338.933 92.719 L 338.933 92.719 Q 338.588 92.374 338.108 92.374 L 338.108 92.374 L 327.668 92.374 L 327.668 92.374 Q 327.188 92.374 326.843 92.719 L 326.843 92.719 L 326.843 92.719 Q 326.498 93.064 326.498 93.544 L 326.498 93.544 L 326.498 103.684 L 326.498 103.684 Q 326.498 104.164 326.843 104.509 L 326.843 104.509 L 326.843 104.509 Q 327.188 104.854 327.668 104.854 Z  M 347.378 107.314 L 344.888 107.314 L 344.888 89.914 L 367.868 89.914 L 367.868 89.914 Q 369.398 89.914 370.448 90.979 L 370.448 90.979 L 370.448 90.979 Q 371.498 92.044 371.498 93.544 L 371.498 93.544 L 371.498 107.314 L 369.068 107.314 L 369.068 93.544 L 369.068 93.544 Q 369.068 93.064 368.708 92.719 L 368.708 92.719 L 368.708 92.719 Q 368.348 92.374 367.868 92.374 L 367.868 92.374 L 360.638 92.374 L 360.638 92.374 Q 360.158 92.374 359.813 92.719 L 359.813 92.719 L 359.813 92.719 Q 359.468 93.064 359.468 93.544 L 359.468 93.544 L 359.468 107.314 L 356.978 107.314 L 356.978 93.544 L 356.978 93.544 Q 356.978 93.064 356.633 92.719 L 356.633 92.719 L 356.633 92.719 Q 356.288 92.374 355.808 92.374 L 355.808 92.374 L 348.548 92.374 L 348.548 92.374 Q 348.068 92.374 347.723 92.719 L 347.723 92.719 L 347.723 92.719 Q 347.378 93.064 347.378 93.544 L 347.378 93.544 L 347.378 107.314 Z  M 142.868 107.314 L 128.768 107.314 L 128.768 107.314 Q 127.268 107.314 126.203 106.249 L 126.203 106.249 L 126.203 106.249 Q 125.138 105.184 125.138 103.684 L 125.138 103.684 L 125.138 93.544 L 125.138 93.544 Q 125.138 92.044 126.203 90.979 L 126.203 90.979 L 126.203 90.979 Q 127.268 89.914 128.768 89.914 L 128.768 89.914 L 139.208 89.914 L 139.208 89.914 Q 140.738 89.914 141.803 90.979 L 141.803 90.979 L 141.803 90.979 Q 142.868 92.044 142.868 93.544 L 142.868 93.544 L 142.868 99.844 L 127.598 99.844 L 127.598 103.684 L 127.598 103.684 Q 127.598 104.164 127.943 104.509 L 127.943 104.509 L 127.943 104.509 Q 128.288 104.854 128.768 104.854 L 128.768 104.854 L 142.868 104.854 L 142.868 107.314 Z  M 127.598 93.544 L 127.598 97.384 L 140.378 97.384 L 140.378 93.544 L 140.378 93.544 Q 140.378 93.064 140.033 92.719 L 140.033 92.719 L 140.033 92.719 Q 139.688 92.374 139.208 92.374 L 139.208 92.374 L 128.768 92.374 L 128.768 92.374 Q 128.288 92.374 127.943 92.719 L 127.943 92.719 L 127.943 92.719 Q 127.598 93.064 127.598 93.544 L 127.598 93.544 Z  M 163.028 107.314 L 148.928 107.314 L 148.928 107.314 Q 147.428 107.314 146.363 106.249 L 146.363 106.249 L 146.363 106.249 Q 145.298 105.184 145.298 103.684 L 145.298 103.684 L 145.298 93.544 L 145.298 93.544 Q 145.298 92.044 146.363 90.979 L 146.363 90.979 L 146.363 90.979 Q 147.428 89.914 148.928 89.914 L 148.928 89.914 L 162.968 89.914 L 162.968 92.374 L 148.928 92.374 L 148.928 92.374 Q 148.448 92.374 148.103 92.719 L 148.103 92.719 L 148.103 92.719 Q 147.758 93.064 147.758 93.544 L 147.758 93.544 L 147.758 103.684 L 147.758 103.684 Q 147.758 104.164 148.103 104.509 L 148.103 104.509 L 148.103 104.509 Q 148.448 104.854 148.928 104.854 L 148.928 104.854 L 163.028 104.854 L 163.028 107.314 Z  M 180.218 107.314 L 169.778 107.314 L 169.778 107.314 Q 168.278 107.314 167.213 106.249 L 167.213 106.249 L 167.213 106.249 Q 166.148 105.184 166.148 103.684 L 166.148 103.684 L 166.148 93.544 L 166.148 93.544 Q 166.148 92.044 167.213 90.979 L 167.213 90.979 L 167.213 90.979 Q 168.278 89.914 169.778 89.914 L 169.778 89.914 L 180.218 89.914 L 180.218 89.914 Q 181.748 89.914 182.813 90.979 L 182.813 90.979 L 182.813 90.979 Q 183.878 92.044 183.878 93.544 L 183.878 93.544 L 183.878 103.684 L 183.878 103.684 Q 183.878 105.184 182.813 106.249 L 182.813 106.249 L 182.813 106.249 Q 181.748 107.314 180.218 107.314 L 180.218 107.314 Z  M 169.778 104.854 L 169.778 104.854 L 180.218 104.854 L 180.218 104.854 Q 180.698 104.854 181.043 104.509 L 181.043 104.509 L 181.043 104.509 Q 181.388 104.164 181.388 103.684 L 181.388 103.684 L 181.388 93.544 L 181.388 93.544 Q 181.388 93.064 181.043 92.719 L 181.043 92.719 L 181.043 92.719 Q 180.698 92.374 180.218 92.374 L 180.218 92.374 L 169.778 92.374 L 169.778 92.374 Q 169.298 92.374 168.953 92.719 L 168.953 92.719 L 168.953 92.719 Q 168.608 93.064 168.608 93.544 L 168.608 93.544 L 168.608 103.684 L 168.608 103.684 Q 168.608 104.164 168.953 104.509 L 168.953 104.509 L 168.953 104.509 Q 169.298 104.854 169.778 104.854 Z  M 189.008 107.314 L 186.548 107.314 L 186.548 89.914 L 200.648 89.914 L 200.648 89.914 Q 202.148 89.914 203.213 90.979 L 203.213 90.979 L 203.213 90.979 Q 204.278 92.044 204.278 93.544 L 204.278 93.544 L 204.278 107.314 L 201.818 107.314 L 201.818 93.544 L 201.818 93.544 Q 201.818 93.064 201.473 92.719 L 201.473 92.719 L 201.473 92.719 Q 201.128 92.374 200.648 92.374 L 200.648 92.374 L 190.208 92.374 L 190.208 92.374 Q 189.728 92.374 189.368 92.719 L 189.368 92.719 L 189.368 92.719 Q 189.008 93.064 189.008 93.544 L 189.008 93.544 L 189.008 107.314 Z  M 224.468 107.314 L 210.368 107.314 L 210.368 107.314 Q 208.868 107.314 207.803 106.249 L 207.803 106.249 L 207.803 106.249 Q 206.738 105.184 206.738 103.684 L 206.738 103.684 L 206.738 93.544 L 206.738 93.544 Q 206.738 92.044 207.803 90.979 L 207.803 90.979 L 207.803 90.979 Q 208.868 89.914 210.368 89.914 L 210.368 89.914 L 224.408 89.914 L 224.408 92.374 L 210.368 92.374 L 210.368 92.374 Q 209.888 92.374 209.543 92.719 L 209.543 92.719 L 209.543 92.719 Q 209.198 93.064 209.198 93.544 L 209.198 93.544 L 209.198 103.684 L 209.198 103.684 Q 209.198 104.164 209.543 104.509 L 209.543 104.509 L 209.543 104.509 Q 209.888 104.854 210.368 104.854 L 210.368 104.854 L 224.468 104.854 L 224.468 107.314 Z  M 230.078 107.314 L 227.618 107.314 L 227.618 93.544 L 227.618 93.544 Q 227.618 92.044 228.683 90.979 L 228.683 90.979 L 228.683 90.979 Q 229.748 89.914 231.248 89.914 L 231.248 89.914 L 241.028 89.914 L 241.028 92.374 L 231.248 92.374 L 231.248 92.374 Q 230.768 92.374 230.423 92.719 L 230.423 92.719 L 230.423 92.719 Q 230.078 93.064 230.078 93.544 L 230.078 93.544 L 230.078 107.314 Z  M 260.678 107.314 L 246.578 107.314 L 246.578 107.314 Q 245.078 107.314 244.013 106.249 L 244.013 106.249 L 244.013 106.249 Q 242.948 105.184 242.948 103.684 L 242.948 103.684 L 242.948 93.544 L 242.948 93.544 Q 242.948 92.044 244.013 90.979 L 244.013 90.979 L 244.013 90.979 Q 245.078 89.914 246.578 89.914 L 246.578 89.914 L 257.018 89.914 L 257.018 89.914 Q 258.548 89.914 259.613 90.979 L 259.613 90.979 L 259.613 90.979 Q 260.678 92.044 260.678 93.544 L 260.678 93.544 L 260.678 99.844 L 245.408 99.844 L 245.408 103.684 L 245.408 103.684 Q 245.408 104.164 245.753 104.509 L 245.753 104.509 L 245.753 104.509 Q 246.098 104.854 246.578 104.854 L 246.578 104.854 L 260.678 104.854 L 260.678 107.314 Z  M 245.408 93.544 L 245.408 97.384 L 258.188 97.384 L 258.188 93.544 L 258.188 93.544 Q 258.188 93.064 257.843 92.719 L 257.843 92.719 L 257.843 92.719 Q 257.498 92.374 257.018 92.374 L 257.018 92.374 L 246.578 92.374 L 246.578 92.374 Q 246.098 92.374 245.753 92.719 L 245.753 92.719 L 245.753 92.719 Q 245.408 93.064 245.408 93.544 L 245.408 93.544 Z  M 273.758 107.314 L 267.398 107.314 L 267.398 107.314 Q 265.868 107.314 264.818 106.249 L 264.818 106.249 L 264.818 106.249 Q 263.768 105.184 263.768 103.684 L 263.768 103.684 L 263.768 84.214 L 266.228 84.214 L 266.228 89.914 L 273.758 89.914 L 273.758 92.374 L 266.228 92.374 L 266.228 103.684 L 266.228 103.684 Q 266.228 104.164 266.573 104.509 L 266.573 104.509 L 266.573 104.509 Q 266.918 104.854 267.398 104.854 L 267.398 104.854 L 273.758 104.854 L 273.758 107.314 Z  M 293.738 107.314 L 279.638 107.314 L 279.638 107.314 Q 278.138 107.314 277.073 106.249 L 277.073 106.249 L 277.073 106.249 Q 276.008 105.184 276.008 103.684 L 276.008 103.684 L 276.008 93.544 L 276.008 93.544 Q 276.008 92.044 277.073 90.979 L 277.073 90.979 L 277.073 90.979 Q 278.138 89.914 279.638 89.914 L 279.638 89.914 L 290.078 89.914 L 290.078 89.914 Q 291.608 89.914 292.673 90.979 L 292.673 90.979 L 292.673 90.979 Q 293.738 92.044 293.738 93.544 L 293.738 93.544 L 293.738 99.844 L 278.468 99.844 L 278.468 103.684 L 278.468 103.684 Q 278.468 104.164 278.813 104.509 L 278.813 104.509 L 278.813 104.509 Q 279.158 104.854 279.638 104.854 L 279.638 104.854 L 293.738 104.854 L 293.738 107.314 Z  M 278.468 93.544 L 278.468 97.384 L 291.248 97.384 L 291.248 93.544 L 291.248 93.544 Q 291.248 93.064 290.903 92.719 L 290.903 92.719 L 290.903 92.719 Q 290.558 92.374 290.078 92.374 L 290.078 92.374 L 279.638 92.374 L 279.638 92.374 Q 279.158 92.374 278.813 92.719 L 278.813 92.719 L 278.813 92.719 Q 278.468 93.064 278.468 93.544 L 278.468 93.544 Z  M 299.318 107.314 L 296.858 107.314 L 296.858 104.854 L 299.318 104.854 L 299.318 107.314 Z  M 43.428 107.314 L 40.968 107.314 L 40.968 89.914 L 43.428 89.914 L 43.428 107.314 Z  M 43.428 86.674 L 40.968 86.674 L 40.968 84.214 L 43.428 84.214 L 43.428 86.674 Z  M 49.278 107.314 L 46.818 107.314 L 46.818 89.914 L 60.918 89.914 L 60.918 89.914 Q 62.418 89.914 63.483 90.979 L 63.483 90.979 L 63.483 90.979 Q 64.548 92.044 64.548 93.544 L 64.548 93.544 L 64.548 107.314 L 62.088 107.314 L 62.088 93.544 L 62.088 93.544 Q 62.088 93.064 61.743 92.719 L 61.743 92.719 L 61.743 92.719 Q 61.398 92.374 60.918 92.374 L 60.918 92.374 L 50.478 92.374 L 50.478 92.374 Q 49.998 92.374 49.638 92.719 L 49.638 92.719 L 49.638 92.719 Q 49.278 93.064 49.278 93.544 L 49.278 93.544 L 49.278 107.314 Z  M 70.128 107.314 L 67.668 107.314 L 67.668 87.844 L 67.668 87.844 Q 67.668 86.314 68.718 85.264 L 68.718 85.264 L 68.718 85.264 Q 69.768 84.214 71.298 84.214 L 71.298 84.214 L 77.658 84.214 L 77.658 86.674 L 71.298 86.674 L 71.298 86.674 Q 70.818 86.674 70.473 87.019 L 70.473 87.019 L 70.473 87.019 Q 70.128 87.364 70.128 87.844 L 70.128 87.844 L 70.128 89.914 L 77.658 89.914 L 77.658 92.374 L 70.128 92.374 L 70.128 107.314 Z  M 93.888 107.314 L 83.448 107.314 L 83.448 107.314 Q 81.948 107.314 80.883 106.249 L 80.883 106.249 L 80.883 106.249 Q 79.818 105.184 79.818 103.684 L 79.818 103.684 L 79.818 93.544 L 79.818 93.544 Q 79.818 92.044 80.883 90.979 L 80.883 90.979 L 80.883 90.979 Q 81.948 89.914 83.448 89.914 L 83.448 89.914 L 93.888 89.914 L 93.888 89.914 Q 95.418 89.914 96.483 90.979 L 96.483 90.979 L 96.483 90.979 Q 97.548 92.044 97.548 93.544 L 97.548 93.544 L 97.548 103.684 L 97.548 103.684 Q 97.548 105.184 96.483 106.249 L 96.483 106.249 L 96.483 106.249 Q 95.418 107.314 93.888 107.314 L 93.888 107.314 Z  M 83.448 104.854 L 83.448 104.854 L 93.888 104.854 L 93.888 104.854 Q 94.368 104.854 94.713 104.509 L 94.713 104.509 L 94.713 104.509 Q 95.058 104.164 95.058 103.684 L 95.058 103.684 L 95.058 93.544 L 95.058 93.544 Q 95.058 93.064 94.713 92.719 L 94.713 92.719 L 94.713 92.719 Q 94.368 92.374 93.888 92.374 L 93.888 92.374 L 83.448 92.374 L 83.448 92.374 Q 82.968 92.374 82.623 92.719 L 82.623 92.719 L 82.623 92.719 Q 82.278 93.064 82.278 93.544 L 82.278 93.544 L 82.278 103.684 L 82.278 103.684 Q 82.278 104.164 82.623 104.509 L 82.623 104.509 L 82.623 104.509 Q 82.968 104.854 83.448 104.854 Z  M 122.478 107.314 L 104.298 107.314 L 104.298 107.314 Q 102.768 107.314 101.718 106.249 L 101.718 106.249 L 101.718 106.249 Q 100.668 105.184 100.668 103.684 L 100.668 103.684 L 100.668 89.374 L 100.668 89.374 Q 100.668 87.844 101.718 86.779 L 101.718 86.779 L 101.718 86.779 Q 102.768 85.714 104.298 85.714 L 104.298 85.714 L 118.848 85.714 L 118.848 85.714 Q 120.348 85.714 121.413 86.779 L 121.413 86.779 L 121.413 86.779 Q 122.478 87.844 122.478 89.374 L 122.478 89.374 L 122.478 101.554 L 110.148 101.554 L 110.148 101.554 Q 108.618 101.554 107.568 100.489 L 107.568 100.489 L 107.568 100.489 Q 106.518 99.424 106.518 97.894 L 106.518 97.894 L 106.518 95.374 L 106.518 95.374 Q 106.518 93.874 107.568 92.809 L 107.568 92.809 L 107.568 92.809 Q 108.618 91.744 110.148 91.744 L 110.148 91.744 L 112.998 91.744 L 112.998 91.744 Q 114.498 91.744 115.563 92.809 L 115.563 92.809 L 115.563 92.809 Q 116.628 93.874 116.628 95.374 L 116.628 95.374 L 116.628 99.694 L 120.018 99.694 L 120.018 89.374 L 120.018 89.374 Q 120.018 88.894 119.673 88.549 L 119.673 88.549 L 119.673 88.549 Q 119.328 88.204 118.848 88.204 L 118.848 88.204 L 104.298 88.204 L 104.298 88.204 Q 103.818 88.204 103.473 88.549 L 103.473 88.549 L 103.473 88.549 Q 103.128 88.894 103.128 89.374 L 103.128 89.374 L 103.128 103.684 L 103.128 103.684 Q 103.128 104.164 103.473 104.509 L 103.473 104.509 L 103.473 104.509 Q 103.818 104.854 104.298 104.854 L 104.298 104.854 L 122.478 104.854 L 122.478 107.314 Z  M 109.518 99.694 L 109.518 99.694 L 114.798 99.694 L 114.798 94.744 L 114.798 94.744 Q 114.798 94.264 114.453 93.919 L 114.453 93.919 L 114.453 93.919 Q 114.108 93.574 113.628 93.574 L 113.628 93.574 L 109.518 93.574 L 109.518 93.574 Q 109.038 93.574 108.693 93.919 L 108.693 93.919 L 108.693 93.919 Q 108.348 94.264 108.348 94.744 L 108.348 94.744 L 108.348 98.524 L 108.348 98.524 Q 108.348 99.004 108.693 99.349 L 108.693 99.349 L 108.693 99.349 Q 109.038 99.694 109.518 99.694 Z"></path><path fill="rgb(255,255,255)" fill-rule="evenodd" d="M 286.713 67.264 L 272.793 67.264 L 272.793 67.264 Q 270.793 67.264 269.373 65.844 L 269.373 65.844 L 269.373 65.844 Q 267.953 64.424 267.953 62.424 L 267.953 62.424 L 267.953 44.064 L 271.233 44.064 L 271.233 62.424 L 271.233 62.424 Q 271.233 63.064 271.693 63.524 L 271.693 63.524 L 271.693 63.524 Q 272.153 63.984 272.793 63.984 L 272.793 63.984 L 286.713 63.984 L 286.713 63.984 Q 287.353 63.984 287.833 63.524 L 287.833 63.524 L 287.833 63.524 Q 288.313 63.064 288.313 62.424 L 288.313 62.424 L 288.313 44.064 L 291.593 44.064 L 291.593 62.424 L 291.593 62.424 Q 291.593 64.424 290.173 65.844 L 290.173 65.844 L 290.173 65.844 Q 288.753 67.264 286.713 67.264 L 286.713 67.264 Z  M 313.713 67.264 L 299.793 67.264 L 299.793 67.264 Q 297.793 67.264 296.373 65.844 L 296.373 65.844 L 296.373 65.844 Q 294.953 64.424 294.953 62.424 L 294.953 62.424 L 294.953 62.104 L 298.233 62.104 L 298.233 62.424 L 298.233 62.424 Q 298.233 63.064 298.693 63.524 L 298.693 63.524 L 298.693 63.524 Q 299.153 63.984 299.793 63.984 L 299.793 63.984 L 313.713 63.984 L 313.713 63.984 Q 314.353 63.984 314.813 63.524 L 314.813 63.524 L 314.813 63.524 Q 315.273 63.064 315.273 62.424 L 315.273 62.424 L 315.273 58.864 L 315.273 58.864 Q 315.273 58.224 314.813 57.764 L 314.813 57.764 L 314.813 57.764 Q 314.353 57.304 313.713 57.304 L 313.713 57.304 L 299.793 57.304 L 299.793 57.304 Q 297.793 57.304 296.373 55.884 L 296.373 55.884 L 296.373 55.884 Q 294.953 54.464 294.953 52.464 L 294.953 52.464 L 294.953 48.904 L 294.953 48.904 Q 294.953 46.904 296.373 45.484 L 296.373 45.484 L 296.373 45.484 Q 297.793 44.064 299.793 44.064 L 299.793 44.064 L 313.713 44.064 L 313.713 44.064 Q 315.753 44.064 317.173 45.484 L 317.173 45.484 L 317.173 45.484 Q 318.593 46.904 318.593 48.904 L 318.593 48.904 L 318.593 49.224 L 315.273 49.224 L 315.273 48.904 L 315.273 48.904 Q 315.273 48.264 314.813 47.804 L 314.813 47.804 L 314.813 47.804 Q 314.353 47.344 313.713 47.344 L 313.713 47.344 L 299.793 47.344 L 299.793 47.344 Q 299.153 47.344 298.693 47.804 L 298.693 47.804 L 298.693 47.804 Q 298.233 48.264 298.233 48.904 L 298.233 48.904 L 298.233 52.464 L 298.233 52.464 Q 298.233 53.104 298.693 53.564 L 298.693 53.564 L 298.693 53.564 Q 299.153 54.024 299.793 54.024 L 299.793 54.024 L 313.713 54.024 L 313.713 54.024 Q 315.753 54.024 317.173 55.444 L 317.173 55.444 L 317.173 55.444 Q 318.593 56.864 318.593 58.864 L 318.593 58.864 L 318.593 62.424 L 318.593 62.424 Q 318.593 64.424 317.173 65.844 L 317.173 65.844 L 317.173 65.844 Q 315.753 67.264 313.713 67.264 L 313.713 67.264 Z  M 326.073 59.144 L 322.793 59.144 L 322.793 38.464 L 326.073 38.464 L 326.073 59.144 Z  M 326.073 67.264 L 322.793 67.264 L 322.793 63.984 L 326.073 63.984 L 326.073 67.264 Z  M 112.153 67.264 L 88.233 67.264 L 88.233 67.264 Q 86.233 67.264 84.833 65.864 L 84.833 65.864 L 84.833 65.864 Q 83.433 64.464 83.433 62.464 L 83.433 62.464 L 83.433 43.264 L 83.433 43.264 Q 83.433 41.264 84.833 39.864 L 84.833 39.864 L 84.833 39.864 Q 86.233 38.464 88.233 38.464 L 88.233 38.464 L 112.153 38.464 L 112.153 41.704 L 88.233 41.704 L 88.233 41.704 Q 87.593 41.704 87.133 42.164 L 87.133 42.164 L 87.133 42.164 Q 86.673 42.624 86.673 43.264 L 86.673 43.264 L 86.673 62.464 L 86.673 62.464 Q 86.673 63.104 87.133 63.564 L 87.133 63.564 L 87.133 63.564 Q 87.593 64.024 88.233 64.024 L 88.233 64.024 L 112.153 64.024 L 112.153 67.264 Z  M 134.873 67.264 L 120.953 67.264 L 120.953 67.264 Q 118.953 67.264 117.533 65.844 L 117.533 65.844 L 117.533 65.844 Q 116.113 64.424 116.113 62.424 L 116.113 62.424 L 116.113 48.904 L 116.113 48.904 Q 116.113 46.904 117.533 45.484 L 117.533 45.484 L 117.533 45.484 Q 118.953 44.064 120.953 44.064 L 120.953 44.064 L 134.873 44.064 L 134.873 44.064 Q 136.913 44.064 138.333 45.484 L 138.333 45.484 L 138.333 45.484 Q 139.753 46.904 139.753 48.904 L 139.753 48.904 L 139.753 62.424 L 139.753 62.424 Q 139.753 64.424 138.333 65.844 L 138.333 65.844 L 138.333 65.844 Q 136.913 67.264 134.873 67.264 L 134.873 67.264 Z  M 120.953 63.984 L 120.953 63.984 L 134.873 63.984 L 134.873 63.984 Q 135.513 63.984 135.973 63.524 L 135.973 63.524 L 135.973 63.524 Q 136.433 63.064 136.433 62.424 L 136.433 62.424 L 136.433 48.904 L 136.433 48.904 Q 136.433 48.264 135.973 47.804 L 135.973 47.804 L 135.973 47.804 Q 135.513 47.344 134.873 47.344 L 134.873 47.344 L 120.953 47.344 L 120.953 47.344 Q 120.313 47.344 119.853 47.804 L 119.853 47.804 L 119.853 47.804 Q 119.393 48.264 119.393 48.904 L 119.393 48.904 L 119.393 62.424 L 119.393 62.424 Q 119.393 63.064 119.853 63.524 L 119.853 63.524 L 119.853 63.524 Q 120.313 63.984 120.953 63.984 Z  M 146.593 67.264 L 143.313 67.264 L 143.313 44.064 L 162.113 44.064 L 162.113 44.064 Q 164.113 44.064 165.533 45.484 L 165.533 45.484 L 165.533 45.484 Q 166.953 46.904 166.953 48.904 L 166.953 48.904 L 166.953 67.264 L 163.673 67.264 L 163.673 48.904 L 163.673 48.904 Q 163.673 48.264 163.213 47.804 L 163.213 47.804 L 163.213 47.804 Q 162.753 47.344 162.113 47.344 L 162.113 47.344 L 148.193 47.344 L 148.193 47.344 Q 147.553 47.344 147.073 47.804 L 147.073 47.804 L 147.073 47.804 Q 146.593 48.264 146.593 48.904 L 146.593 48.904 L 146.593 67.264 Z  M 184.433 67.264 L 175.953 67.264 L 175.953 67.264 Q 173.913 67.264 172.513 65.844 L 172.513 65.844 L 172.513 65.844 Q 171.113 64.424 171.113 62.424 L 171.113 62.424 L 171.113 36.464 L 174.393 36.464 L 174.393 44.064 L 184.433 44.064 L 184.433 47.344 L 174.393 47.344 L 174.393 62.424 L 174.393 62.424 Q 174.393 63.064 174.853 63.524 L 174.853 63.524 L 174.853 63.524 Q 175.313 63.984 175.953 63.984 L 175.953 63.984 L 184.433 63.984 L 184.433 67.264 Z  M 211.113 67.264 L 192.313 67.264 L 192.313 67.264 Q 190.313 67.264 188.893 65.844 L 188.893 65.844 L 188.893 65.844 Q 187.473 64.424 187.473 62.424 L 187.473 62.424 L 187.473 54.024 L 207.793 54.024 L 207.793 48.904 L 207.793 48.904 Q 207.793 48.264 207.333 47.804 L 207.333 47.804 L 207.333 47.804 Q 206.873 47.344 206.233 47.344 L 206.233 47.344 L 187.473 47.344 L 187.473 44.064 L 206.233 44.064 L 206.233 44.064 Q 208.273 44.064 209.693 45.484 L 209.693 45.484 L 209.693 45.484 Q 211.113 46.904 211.113 48.904 L 211.113 48.904 L 211.113 67.264 Z  M 192.313 63.984 L 192.313 63.984 L 207.793 63.984 L 207.793 57.304 L 190.753 57.304 L 190.753 62.424 L 190.753 62.424 Q 190.753 63.064 191.213 63.524 L 191.213 63.524 L 191.213 63.524 Q 191.673 63.984 192.313 63.984 Z  M 238.433 67.264 L 219.633 67.264 L 219.633 67.264 Q 217.633 67.264 216.213 65.844 L 216.213 65.844 L 216.213 65.844 Q 214.793 64.424 214.793 62.424 L 214.793 62.424 L 214.793 48.904 L 214.793 48.904 Q 214.793 46.904 216.213 45.484 L 216.213 45.484 L 216.213 45.484 Q 217.633 44.064 219.633 44.064 L 219.633 44.064 L 238.353 44.064 L 238.353 47.344 L 219.633 47.344 L 219.633 47.344 Q 218.993 47.344 218.533 47.804 L 218.533 47.804 L 218.533 47.804 Q 218.073 48.264 218.073 48.904 L 218.073 48.904 L 218.073 62.424 L 218.073 62.424 Q 218.073 63.064 218.533 63.524 L 218.533 63.524 L 218.533 63.524 Q 218.993 63.984 219.633 63.984 L 219.633 63.984 L 238.433 63.984 L 238.433 67.264 Z  M 254.993 67.264 L 246.513 67.264 L 246.513 67.264 Q 244.473 67.264 243.073 65.844 L 243.073 65.844 L 243.073 65.844 Q 241.673 64.424 241.673 62.424 L 241.673 62.424 L 241.673 36.464 L 244.953 36.464 L 244.953 44.064 L 254.993 44.064 L 254.993 47.344 L 244.953 47.344 L 244.953 62.424 L 244.953 62.424 Q 244.953 63.064 245.413 63.524 L 245.413 63.524 L 245.413 63.524 Q 245.873 63.984 246.513 63.984 L 246.513 63.984 L 254.993 63.984 L 254.993 67.264 Z"></path></g></svg>