<svg version="1.1" xmlns="http://www.w3.org/2000/svg" xmlns:xlink="http://www.w3.org/1999/xlink" width="389.966" height="304.824" viewBox="0,0,389.966,304.824"><g transform="translate(-45.017,-137.588)"><g data-paper-data="{&quot;isPaintingLayer&quot;:true}" fill-rule="nonzero" stroke-linejoin="miter" stroke-dasharray="" stroke-dashoffset="0" style="mix-blend-mode: normal"><path d="M46.267,441.162v-302.324h387.466v302.324z" fill-opacity="0.8" fill="#000000" stroke="#ffffff" stroke-width="2.5" stroke-linecap="butt" stroke-miterlimit="10"/><g><path d="M66.915,153.388h88.804c2.262,0 4.098,1.836 4.098,4.098v88.804c0,2.262 -1.836,4.098 -4.098,4.098h-88.804c-2.262,0 -4.098,-1.836 -4.098,-4.098v-88.804c0,-2.262 1.836,-4.098 4.098,-4.098z" fill="#b95757" stroke="none" stroke-width="1" stroke-linecap="butt" stroke-miterlimit="10"/><path d="M66.915,153.388h88.804c2.262,0 4.098,1.836 4.098,4.098v88.804c0,2.262 -1.836,4.098 -4.098,4.098h-88.804c-2.262,0 -4.098,-1.836 -4.098,-4.098v-88.804c0,-2.262 1.836,-4.098 4.098,-4.098z" fill="none" stroke="#000000" stroke-width="6" stroke-linecap="square" stroke-miterlimit="2"/><path d="M76.817,171.388l5,-8l12,8l16,-5l5,12l-8,8l-13,4l-4,-8h-8z" fill="#ce2828" stroke="none" stroke-width="1" stroke-linecap="butt" stroke-miterlimit="10"/><path d="M78.817,214.388l17,1l-4,12h-8l8,11l-13,6l-10,-9l6,-5l-6,-11z" fill="#ce2828" stroke="none" stroke-width="1" stroke-linecap="butt" stroke-miterlimit="10"/><path d="M119.817,206.388l17,2l10,-2l4,15l-11,6l-9,3l-2,10l-6,-9l-8,-7z" fill="#ce2828" stroke="none" stroke-width="1" stroke-linecap="butt" stroke-miterlimit="10"/></g><path d="M285.278,403.223h-11.022v0c-0.79867,0 -1.47633,-0.27833 -2.033,-0.835v0v0c-0.556,-0.556 -0.834,-1.22567 -0.834,-2.009v0v-7.943v0c0,-0.78333 0.278,-1.453 0.834,-2.009v0v0c0.55667,-0.556 1.23433,-0.834 2.033,-0.834v0h9.095v-4.465h1.927zM274.256,401.296v0h8.178v0c0.25067,0 0.466,-0.09033 0.646,-0.271v0v0c0.18067,-0.18 0.271,-0.39533 0.271,-0.646v0v-7.943v0c0,-0.25067 -0.09033,-0.466 -0.271,-0.646v0v0c-0.18,-0.18 -0.39533,-0.27 -0.646,-0.27v0h-8.178v0c-0.25067,0 -0.466,0.09 -0.646,0.27v0v0c-0.18,0.18 -0.27,0.39533 -0.27,0.646v0v7.943v0c0,0.25067 0.09,0.466 0.27,0.646v0v0c0.18,0.18067 0.39533,0.271 0.646,0.271zM298.25,403.223h-8.178v0c-0.784,0 -1.454,-0.27833 -2.01,-0.835v0v0c-0.556,-0.556 -0.834,-1.22567 -0.834,-2.009v0v-10.786h1.927v10.786v0c0,0.25067 0.09,0.466 0.27,0.646v0v0c0.18067,0.18067 0.39633,0.271 0.647,0.271v0h8.178v0c0.25067,0 0.47,-0.09033 0.658,-0.271v0v0c0.18733,-0.18 0.281,-0.39533 0.281,-0.646v0v-10.786h1.927v10.786v0c0,0.78333 -0.278,1.453 -0.834,2.009v0v0c-0.556,0.55667 -1.23333,0.835 -2.032,0.835zM305.464,403.223h-1.927v-10.787v0c0,-0.78333 0.278,-1.453 0.834,-2.009v0v0c0.556,-0.556 1.226,-0.834 2.01,-0.834v0h7.661v1.927h-7.661v0c-0.25067,0 -0.46633,0.09 -0.647,0.27v0v0c-0.18,0.18 -0.27,0.39533 -0.27,0.646v0zM329.458,403.223h-11.045v0c-0.78333,0 -1.45333,-0.27833 -2.01,-0.835v0v0c-0.556,-0.556 -0.834,-1.22567 -0.834,-2.009v0v-4.935h11.938v-3.008v0c0,-0.25067 -0.09,-0.466 -0.27,-0.646v0v0c-0.18,-0.18 -0.39533,-0.27 -0.646,-0.27v0h-11.022v-1.927h11.022v0c0.79867,0 1.476,0.278 2.032,0.834v0v0c0.55667,0.556 0.835,1.22567 0.835,2.009v0zM318.413,401.296v0h9.094v-3.925h-10.011v3.008v0c0,0.25067 0.09,0.466 0.27,0.646v0v0c0.18067,0.18067 0.39633,0.271 0.647,0.271zM342.383,403.223h-11.045v-18.095h1.927v4.465h9.118v0c0.78333,0 1.453,0.278 2.009,0.834v0v0c0.556,0.556 0.834,1.22567 0.834,2.009v0v7.943v0c0,0.78333 -0.278,1.453 -0.834,2.009v0v0c-0.556,0.55667 -1.22567,0.835 -2.009,0.835zM334.205,401.296v0h8.178v0c0.25067,0 0.466,-0.09033 0.646,-0.271v0v0c0.18,-0.18 0.27,-0.39533 0.27,-0.646v0v-7.943v0c0,-0.25067 -0.09,-0.466 -0.27,-0.646v0v0c-0.18,-0.18 -0.39533,-0.27 -0.646,-0.27v0h-8.178v0c-0.25067,0 -0.47,0.09 -0.658,0.27v0v0c-0.188,0.18 -0.282,0.39533 -0.282,0.646v0v7.943v0c0,0.25067 0.094,0.466 0.282,0.646v0v0c0.188,0.18067 0.40733,0.271 0.658,0.271zM348.892,403.223h-1.927v-13.63h1.927zM348.892,387.055h-1.927v-1.927h1.927zM357,403.223h-2.303v0c-0.78333,0 -1.45333,-0.27833 -2.01,-0.835v0v0c-0.556,-0.556 -0.834,-1.22567 -0.834,-2.009v0v-15.251h1.927v15.251v0c0,0.25067 0.09,0.466 0.27,0.646v0v0c0.18067,0.18067 0.39633,0.271 0.647,0.271v0h2.303zM360.877,403.223h-1.927v-13.63h1.927zM360.877,387.055h-1.927v-1.927h1.927zM371.687,403.223h-4.982v0c-0.79933,0 -1.473,-0.27833 -2.021,-0.835v0v0c-0.548,-0.556 -0.822,-1.22567 -0.822,-2.009v0v-15.251h1.927v4.465h5.898v1.927h-5.898v8.859v0c0,0.25067 0.09,0.466 0.27,0.646v0v0c0.18,0.18067 0.39533,0.271 0.646,0.271v0h4.982zM384.26,408.628h-8.507v-1.951h8.507v0c0.25067,0 0.466,-0.09 0.646,-0.27v0v0c0.18,-0.18 0.27,-0.39533 0.27,-0.646v0v-2.538h-9.095v0c-0.78267,0 -1.45233,-0.27833 -2.009,-0.835v0v0c-0.556,-0.556 -0.834,-1.22567 -0.834,-2.009v0v-10.739h1.927v10.739v0c0,0.25067 0.09,0.466 0.27,0.646v0v0c0.18067,0.18067 0.396,0.271 0.646,0.271v0h8.179v0c0.25067,0 0.466,-0.09033 0.646,-0.271v0v0c0.18,-0.18 0.27,-0.39533 0.27,-0.646v0v-10.739h1.927v16.121v0c0,0.79867 -0.27433,1.476 -0.823,2.032v0v0c-0.548,0.55667 -1.22133,0.835 -2.02,0.835zM391.545,403.223h-1.927v-1.927h1.927zM231.58,403.223h-11.045v0c-0.78333,0 -1.453,-0.27833 -2.009,-0.835v0v0c-0.556,-0.556 -0.834,-1.22567 -0.834,-2.009v0v-4.935h11.938v-3.008v0c0,-0.25067 -0.09033,-0.466 -0.271,-0.646v0v0c-0.18,-0.18 -0.39533,-0.27 -0.646,-0.27v0h-11.021v-1.927h11.021v0c0.79933,0 1.477,0.278 2.033,0.834v0v0c0.556,0.556 0.834,1.22567 0.834,2.009v0zM220.535,401.296v0h9.095v-3.925h-10.011v3.008v0c0,0.25067 0.09,0.466 0.27,0.646v0v0c0.18,0.18067 0.39533,0.271 0.646,0.271zM235.622,403.223h-1.927v-13.63h11.045v0c0.78333,0 1.453,0.278 2.009,0.834v0v0c0.55667,0.556 0.835,1.22567 0.835,2.009v0v10.787h-1.927v-10.787v0c0,-0.25067 -0.09033,-0.466 -0.271,-0.646v0v0c-0.18,-0.18 -0.39533,-0.27 -0.646,-0.27v0h-8.178v0c-0.25067,0 -0.47,0.09 -0.658,0.27v0v0c-0.188,0.18 -0.282,0.39533 -0.282,0.646v0zM263.211,403.223h-11.021v0c-0.79933,0 -1.477,-0.27833 -2.033,-0.835v0v0c-0.556,-0.556 -0.834,-1.22567 -0.834,-2.009v0v-7.943v0c0,-0.78333 0.278,-1.453 0.834,-2.009v0v0c0.556,-0.556 1.23367,-0.834 2.033,-0.834v0h9.094v-4.465h1.927zM252.19,401.296v0h8.178v0c0.25067,0 0.466,-0.09033 0.646,-0.271v0v0c0.18,-0.18 0.27,-0.39533 0.27,-0.646v0v-7.943v0c0,-0.25067 -0.09,-0.466 -0.27,-0.646v0v0c-0.18,-0.18 -0.39533,-0.27 -0.646,-0.27v0h-8.178v0c-0.25067,0 -0.46633,0.09 -0.647,0.27v0v0c-0.18,0.18 -0.27,0.39533 -0.27,0.646v0v7.943v0c0,0.25067 0.09,0.466 0.27,0.646v0v0c0.18067,0.18067 0.39633,0.271 0.647,0.271zM110.203,403.223h-8.178v0c-0.78333,0 -1.45333,-0.27833 -2.01,-0.835v0v0c-0.556,-0.556 -0.834,-1.22567 -0.834,-2.009v0v-0.188h1.927v0.188v0c0,0.25067 0.09,0.466 0.27,0.646v0v0c0.18067,0.18067 0.39633,0.271 0.647,0.271v0h8.178v0c0.25067,0 0.466,-0.09033 0.646,-0.271v0v0c0.18,-0.18 0.27,-0.39533 0.27,-0.646v0v-2.091v0c0,-0.25133 -0.09,-0.467 -0.27,-0.647v0v0c-0.18,-0.18 -0.39533,-0.27 -0.646,-0.27v0h-8.178v0c-0.78333,0 -1.45333,-0.278 -2.01,-0.834v0v0c-0.556,-0.556 -0.834,-1.22567 -0.834,-2.009v0v-2.092v0c0,-0.78333 0.278,-1.453 0.834,-2.009v0v0c0.55667,-0.556 1.22667,-0.834 2.01,-0.834v0h8.178v0c0.79867,0 1.476,0.278 2.032,0.834v0v0c0.55667,0.556 0.835,1.22567 0.835,2.009v0v0.188h-1.951v-0.188v0c0,-0.25067 -0.09,-0.466 -0.27,-0.646v0v0c-0.18,-0.18 -0.39533,-0.27 -0.646,-0.27v0h-8.178v0c-0.25067,0 -0.46633,0.09 -0.647,0.27v0v0c-0.18,0.18 -0.27,0.39533 -0.27,0.646v0v2.092v0c0,0.25067 0.09,0.466 0.27,0.646v0v0c0.18067,0.18 0.39633,0.27 0.647,0.27v0h8.178v0c0.79867,0 1.476,0.278 2.032,0.834v0v0c0.55667,0.55667 0.835,1.22667 0.835,2.01v0v2.091v0c0,0.78333 -0.27833,1.453 -0.835,2.009v0v0c-0.556,0.55667 -1.23333,0.835 -2.032,0.835zM123.245,403.223h-4.982v0c-0.79867,0 -1.47233,-0.27833 -2.021,-0.835v0v0c-0.548,-0.556 -0.822,-1.22567 -0.822,-2.009v0v-15.251h1.927v4.465h5.898v1.927h-5.898v8.859v0c0,0.25067 0.09,0.466 0.27,0.646v0v0c0.18,0.18067 0.39533,0.271 0.646,0.271v0h4.982zM126.958,403.223h-1.927v-10.787v0c0,-0.78333 0.278,-1.453 0.834,-2.009v0v0c0.556,-0.556 1.22567,-0.834 2.009,-0.834v0h7.661v1.927h-7.661v0c-0.25,0 -0.46533,0.09 -0.646,0.27v0v0c-0.18,0.18 -0.27,0.39533 -0.27,0.646v0zM150.928,403.223h-11.045v0c-0.78333,0 -1.453,-0.27833 -2.009,-0.835v0v0c-0.556,-0.556 -0.834,-1.22567 -0.834,-2.009v0v-7.943v0c0,-0.78333 0.278,-1.453 0.834,-2.009v0v0c0.556,-0.556 1.22567,-0.834 2.009,-0.834v0h8.178v0c0.79867,0 1.47633,0.278 2.033,0.834v0v0c0.556,0.556 0.834,1.22567 0.834,2.009v0v4.935h-11.961v3.008v0c0,0.25067 0.09,0.466 0.27,0.646v0v0c0.18,0.18067 0.39533,0.271 0.646,0.271v0h11.045zM138.967,392.436v3.008h10.011v-3.008v0c0,-0.25067 -0.09033,-0.466 -0.271,-0.646v0v0c-0.18,-0.18 -0.39533,-0.27 -0.646,-0.27v0h-8.178v0c-0.25067,0 -0.466,0.09 -0.646,0.27v0v0c-0.18,0.18 -0.27,0.39533 -0.27,0.646zM155.299,403.223h-1.927v-13.63h11.045v0c0.78333,0 1.453,0.278 2.009,0.834v0v0c0.55667,0.556 0.835,1.22567 0.835,2.009v0v10.787h-1.928v-10.787v0c0,-0.25067 -0.09,-0.466 -0.27,-0.646v0v0c-0.18,-0.18 -0.39533,-0.27 -0.646,-0.27v0h-8.178v0c-0.25067,0 -0.47,0.09 -0.658,0.27v0v0c-0.188,0.18 -0.282,0.39533 -0.282,0.646v0zM180.444,408.604h-8.507v-1.95h8.507v0c0.25067,0 0.466,-0.09033 0.646,-0.271v0v0c0.18067,-0.18 0.271,-0.39533 0.271,-0.646v0v-2.514h-9.095v0c-0.78333,0 -1.453,-0.27833 -2.009,-0.835v0v0c-0.556,-0.556 -0.834,-1.22567 -0.834,-2.009v0v-7.943v0c0,-0.78333 0.278,-1.453 0.834,-2.009v0v0c0.556,-0.556 1.22567,-0.834 2.009,-0.834v0h8.178v0c0.79933,0 1.473,0.278 2.021,0.834v0v0c0.54867,0.556 0.823,1.22567 0.823,2.009v0v13.301v0c0,0.79867 -0.27433,1.47633 -0.823,2.033v0v0c-0.548,0.556 -1.22167,0.834 -2.021,0.834zM172.266,401.296v0h8.178v0c0.25067,0 0.466,-0.09033 0.646,-0.271v0v0c0.18067,-0.18 0.271,-0.39533 0.271,-0.646v0v-7.943v0c0,-0.25067 -0.09033,-0.466 -0.271,-0.646v0v0c-0.18,-0.18 -0.39533,-0.27 -0.646,-0.27v0h-8.178v0c-0.25067,0 -0.466,0.09 -0.646,0.27v0v0c-0.18,0.18 -0.27,0.39533 -0.27,0.646v0v7.943v0c0,0.25067 0.09,0.466 0.27,0.646v0v0c0.18,0.18067 0.39533,0.271 0.646,0.271zM193.581,403.223h-4.982v0c-0.79933,0 -1.473,-0.27833 -2.021,-0.835v0v0c-0.54867,-0.556 -0.823,-1.22567 -0.823,-2.009v0v-15.251h1.927v4.465h5.899v1.927h-5.899v8.859v0c0,0.25067 0.09,0.466 0.27,0.646v0v0c0.18067,0.18067 0.39633,0.271 0.647,0.271v0h4.982zM197.458,403.223h-1.927v-18.095h1.927v4.465h9.118v0c0.768,0 1.434,0.278 1.998,0.834v0v0c0.564,0.556 0.846,1.22567 0.846,2.009v0v10.787h-1.927v-10.787v0c0,-0.25067 -0.09033,-0.466 -0.271,-0.646v0v0c-0.18,-0.18 -0.39533,-0.27 -0.646,-0.27v0h-8.178v0c-0.25067,0 -0.47,0.09 -0.658,0.27v0v0c-0.188,0.18 -0.282,0.39533 -0.282,0.646v0zM64.166,403.223h-1.927v-13.63h1.927zM64.166,387.055h-1.927v-1.927h1.927zM74.976,403.223h-4.982v0c-0.79867,0 -1.47233,-0.27833 -2.021,-0.835v0v0c-0.54867,-0.556 -0.823,-1.22567 -0.823,-2.009v0v-15.251h1.927v4.465h5.899v1.927h-5.899v8.859v0c0,0.25067 0.09033,0.466 0.271,0.646v0v0c0.18,0.18067 0.39533,0.271 0.646,0.271v0h4.982zM87.69,403.223h-8.178v0c-0.78333,0 -1.45333,-0.27833 -2.01,-0.835v0v0c-0.556,-0.556 -0.834,-1.22567 -0.834,-2.009v0v-0.188h1.927v0.188v0c0,0.25067 0.09,0.466 0.27,0.646v0v0c0.18067,0.18067 0.39633,0.271 0.647,0.271v0h8.178v0c0.25067,0 0.466,-0.09033 0.646,-0.271v0v0c0.18,-0.18 0.27,-0.39533 0.27,-0.646v0v-2.091v0c0,-0.25133 -0.09,-0.467 -0.27,-0.647v0v0c-0.18,-0.18 -0.39533,-0.27 -0.646,-0.27v0h-8.178v0c-0.78333,0 -1.45333,-0.278 -2.01,-0.834v0v0c-0.556,-0.556 -0.834,-1.22567 -0.834,-2.009v0v-2.092v0c0,-0.78333 0.278,-1.453 0.834,-2.009v0v0c0.55667,-0.556 1.22667,-0.834 2.01,-0.834v0h8.178v0c0.79867,0 1.476,0.278 2.032,0.834v0v0c0.55667,0.556 0.835,1.22567 0.835,2.009v0v0.188h-1.951v-0.188v0c0,-0.25067 -0.09,-0.466 -0.27,-0.646v0v0c-0.18,-0.18 -0.39533,-0.27 -0.646,-0.27v0h-8.178v0c-0.25067,0 -0.46633,0.09 -0.647,0.27v0v0c-0.18,0.18 -0.27,0.39533 -0.27,0.646v0v2.092v0c0,0.25067 0.09,0.466 0.27,0.646v0v0c0.18067,0.18 0.39633,0.27 0.647,0.27v0h8.178v0c0.79867,0 1.476,0.278 2.032,0.834v0v0c0.55667,0.55667 0.835,1.22667 0.835,2.01v0v2.091v0c0,0.78333 -0.27833,1.453 -0.835,2.009v0v0c-0.556,0.55667 -1.23333,0.835 -2.032,0.835zM268.146,373.754h-11.045v0c-0.78333,0 -1.453,-0.27833 -2.009,-0.835v0v0c-0.55667,-0.556 -0.835,-1.22567 -0.835,-2.009v0v-7.943v0c0,-0.78333 0.27833,-1.453 0.835,-2.009v0v0c0.556,-0.556 1.22567,-0.834 2.009,-0.834v0h8.178v0c0.79867,0 1.47633,0.278 2.033,0.834v0v0c0.556,0.556 0.834,1.22567 0.834,2.009v0v4.935h-11.962v3.008v0c0,0.25067 0.09033,0.466 0.271,0.646v0v0c0.18,0.18067 0.39533,0.271 0.646,0.271v0h11.045zM256.184,362.967v3.008h10.012v-3.008v0c0,-0.25067 -0.09033,-0.466 -0.271,-0.646v0v0c-0.18,-0.18 -0.39533,-0.27 -0.646,-0.27v0h-8.178v0c-0.25067,0 -0.466,0.09 -0.646,0.27v0v0c-0.18067,0.18 -0.271,0.39533 -0.271,0.646zM272.517,373.754h-1.927v-13.63h11.045v0c0.78333,0 1.453,0.278 2.009,0.834v0v0c0.556,0.556 0.834,1.22567 0.834,2.009v0v10.787h-1.927v-10.787v0c0,-0.25067 -0.09,-0.466 -0.27,-0.646v0v0c-0.18,-0.18 -0.39533,-0.27 -0.646,-0.27v0h-8.178v0c-0.25067,0 -0.47,0.09 -0.658,0.27v0v0c-0.188,0.18 -0.282,0.39533 -0.282,0.646v0zM288.873,373.754h-1.927v-18.095h1.927v4.465h9.118v0c0.76733,0 1.433,0.278 1.997,0.834v0v0c0.564,0.556 0.846,1.22567 0.846,2.009v0v10.787h-1.927v-10.787v0c0,-0.25067 -0.09,-0.466 -0.27,-0.646v0v0c-0.18,-0.18 -0.39533,-0.27 -0.646,-0.27v0h-8.178v0c-0.25067,0 -0.47,0.09 -0.658,0.27v0v0c-0.188,0.18 -0.282,0.39533 -0.282,0.646v0zM316.603,373.754h-11.045v0c-0.78333,0 -1.453,-0.27833 -2.009,-0.835v0v0c-0.556,-0.556 -0.834,-1.22567 -0.834,-2.009v0v-4.935h11.938v-3.008v0c0,-0.25067 -0.09033,-0.466 -0.271,-0.646v0v0c-0.18,-0.18 -0.39533,-0.27 -0.646,-0.27v0h-11.021v-1.927h11.021v0c0.79933,0 1.477,0.278 2.033,0.834v0v0c0.556,0.556 0.834,1.22567 0.834,2.009v0zM305.558,371.827v0h9.095v-3.925h-10.011v3.008v0c0,0.25067 0.09,0.466 0.27,0.646v0v0c0.18,0.18067 0.39533,0.271 0.646,0.271zM320.645,373.754h-1.927v-13.63h11.045v0c0.78333,0 1.453,0.278 2.009,0.834v0v0c0.55667,0.556 0.835,1.22567 0.835,2.009v0v10.787h-1.928v-10.787v0c0,-0.25067 -0.09,-0.466 -0.27,-0.646v0v0c-0.18,-0.18 -0.39533,-0.27 -0.646,-0.27v0h-8.178v0c-0.25067,0 -0.47,0.09 -0.658,0.27v0v0c-0.188,0.18 -0.282,0.39533 -0.282,0.646v0zM348.422,373.754h-11.045v0c-0.78333,0 -1.453,-0.27833 -2.009,-0.835v0v0c-0.55667,-0.556 -0.835,-1.22567 -0.835,-2.009v0v-7.943v0c0,-0.78333 0.27833,-1.453 0.835,-2.009v0v0c0.556,-0.556 1.22567,-0.834 2.009,-0.834v0h10.998v1.927h-10.998v0c-0.25067,0 -0.466,0.09 -0.646,0.27v0v0c-0.18067,0.18 -0.271,0.39533 -0.271,0.646v0v7.943v0c0,0.25067 0.09033,0.466 0.271,0.646v0v0c0.18,0.18067 0.39533,0.271 0.646,0.271v0h11.045zM352.816,373.754h-1.927v-13.63h1.927zM352.816,357.586h-1.927v-1.927h1.927zM357.399,373.754h-1.927v-13.63h11.045v0c0.78333,0 1.453,0.278 2.009,0.834v0v0c0.556,0.556 0.834,1.22567 0.834,2.009v0v10.787h-1.927v-10.787v0c0,-0.25067 -0.09,-0.466 -0.27,-0.646v0v0c-0.18,-0.18 -0.39533,-0.27 -0.646,-0.27v0h-8.178v0c-0.25067,0 -0.47,0.09 -0.658,0.27v0v0c-0.188,0.18 -0.282,0.39533 -0.282,0.646v0zM382.544,379.135h-8.507v-1.95h8.507v0c0.25067,0 0.466,-0.09033 0.646,-0.271v0v0c0.18,-0.18 0.27,-0.39533 0.27,-0.646v0v-2.514h-9.094v0c-0.78333,0 -1.453,-0.27833 -2.009,-0.835v0v0c-0.55667,-0.556 -0.835,-1.22567 -0.835,-2.009v0v-7.943v0c0,-0.78333 0.27833,-1.453 0.835,-2.009v0v0c0.556,-0.556 1.22567,-0.834 2.009,-0.834v0h8.178v0c0.79867,0 1.47233,0.278 2.021,0.834v0v0c0.548,0.556 0.822,1.22567 0.822,2.009v0v13.301v0c0,0.79933 -0.274,1.477 -0.822,2.033v0v0c-0.54867,0.556 -1.22233,0.834 -2.021,0.834zM374.366,371.827v0h8.178v0c0.25067,0 0.466,-0.09033 0.646,-0.271v0v0c0.18,-0.18 0.27,-0.39533 0.27,-0.646v0v-7.943v0c0,-0.25067 -0.09,-0.466 -0.27,-0.646v0v0c-0.18,-0.18 -0.39533,-0.27 -0.646,-0.27v0h-8.178v0c-0.25067,0 -0.466,0.09 -0.646,0.27v0v0c-0.18067,0.18 -0.271,0.39533 -0.271,0.646v0v7.943v0c0,0.25067 0.09033,0.466 0.271,0.646v0v0c0.18,0.18067 0.39533,0.271 0.646,0.271zM198.727,379.135h-8.507v-1.95h8.507v0c0.25067,0 0.466,-0.09033 0.646,-0.271v0v0c0.18067,-0.18 0.271,-0.39533 0.271,-0.646v0v-2.514h-9.095v0c-0.78333,0 -1.453,-0.27833 -2.009,-0.835v0v0c-0.55667,-0.556 -0.835,-1.22567 -0.835,-2.009v0v-7.943v0c0,-0.78333 0.27833,-1.453 0.835,-2.009v0v0c0.556,-0.556 1.22567,-0.834 2.009,-0.834v0h8.178v0c0.79867,0 1.47233,0.278 2.021,0.834v0v0c0.54867,0.556 0.823,1.22567 0.823,2.009v0v13.301v0c0,0.79933 -0.27433,1.477 -0.823,2.033v0v0c-0.54867,0.556 -1.22233,0.834 -2.021,0.834zM190.549,371.827v0h8.178v0c0.25067,0 0.466,-0.09033 0.646,-0.271v0v0c0.18067,-0.18 0.271,-0.39533 0.271,-0.646v0v-7.943v0c0,-0.25067 -0.09033,-0.466 -0.271,-0.646v0v0c-0.18,-0.18 -0.39533,-0.27 -0.646,-0.27v0h-8.178v0c-0.25067,0 -0.466,0.09 -0.646,0.27v0v0c-0.18067,0.18 -0.271,0.39533 -0.271,0.646v0v7.943v0c0,0.25067 0.09033,0.466 0.271,0.646v0v0c0.18,0.18067 0.39533,0.271 0.646,0.271zM209.161,373.754h-2.303v0c-0.78333,0 -1.453,-0.27833 -2.009,-0.835v0v0c-0.55667,-0.556 -0.835,-1.22567 -0.835,-2.009v0v-15.251h1.927v15.251v0c0,0.25067 0.09033,0.466 0.271,0.646v0v0c0.18,0.18067 0.39533,0.271 0.646,0.271v0h2.303zM222.156,373.754h-8.178v0c-0.78333,0 -1.453,-0.27833 -2.009,-0.835v0v0c-0.556,-0.556 -0.834,-1.22567 -0.834,-2.009v0v-10.786h1.927v10.786v0c0,0.25067 0.09,0.466 0.27,0.646v0v0c0.18,0.18067 0.39533,0.271 0.646,0.271v0h8.178v0c0.25067,0 0.47,-0.09033 0.658,-0.271v0v0c0.188,-0.18 0.282,-0.39533 0.282,-0.646v0v-10.786h1.927v10.786v0c0,0.78333 -0.278,1.453 -0.834,2.009v0v0c-0.556,0.55667 -1.23367,0.835 -2.033,0.835zM240.956,373.754h-11.044v0c-0.784,0 -1.454,-0.27833 -2.01,-0.835v0v0c-0.556,-0.556 -0.834,-1.22567 -0.834,-2.009v0v-7.943v0c0,-0.78333 0.278,-1.453 0.834,-2.009v0v0c0.556,-0.556 1.226,-0.834 2.01,-0.834v0h8.178v0c0.79867,0 1.476,0.278 2.032,0.834v0v0c0.556,0.556 0.834,1.22567 0.834,2.009v0v4.935h-11.961v3.008v0c0,0.25067 0.09,0.466 0.27,0.646v0v0c0.18067,0.18067 0.39633,0.271 0.647,0.271v0h11.044zM228.995,362.967v3.008h10.011v-3.008v0c0,-0.25067 -0.09,-0.466 -0.27,-0.646v0v0c-0.18,-0.18 -0.39533,-0.27 -0.646,-0.27v0h-8.178v0c-0.25067,0 -0.46633,0.09 -0.647,0.27v0v0c-0.18,0.18 -0.27,0.39533 -0.27,0.646zM243.401,376.832v0v-5.005h1.927v2.303v0c0,0.62667 -0.18033,1.18667 -0.541,1.68v0v0c-0.36,0.49333 -0.822,0.834 -1.386,1.022zM73.331,373.754h-11.045v-18.095h1.927v4.465h9.118v0c0.78333,0 1.453,0.278 2.009,0.834v0v0c0.55667,0.556 0.835,1.22567 0.835,2.009v0v7.943v0c0,0.78333 -0.27833,1.453 -0.835,2.009v0v0c-0.556,0.55667 -1.22567,0.835 -2.009,0.835zM65.153,371.827v0h8.178v0c0.25067,0 0.466,-0.09033 0.646,-0.271v0v0c0.18067,-0.18 0.271,-0.39533 0.271,-0.646v0v-7.943v0c0,-0.25067 -0.09033,-0.466 -0.271,-0.646v0v0c-0.18,-0.18 -0.39533,-0.27 -0.646,-0.27v0h-8.178v0c-0.25067,0 -0.47,0.09 -0.658,0.27v0v0c-0.188,0.18 -0.282,0.39533 -0.282,0.646v0v7.943v0c0,0.25067 0.094,0.466 0.282,0.646v0v0c0.188,0.18067 0.40733,0.271 0.658,0.271zM79.84,373.754h-1.926v-13.63h1.926zM79.84,357.586h-1.926v-1.927h1.926zM93.8,373.754h-8.178v0c-0.78333,0 -1.45333,-0.27833 -2.01,-0.835v0v0c-0.556,-0.556 -0.834,-1.22567 -0.834,-2.009v0v-7.943v0c0,-0.78333 0.278,-1.453 0.834,-2.009v0v0c0.55667,-0.556 1.22667,-0.834 2.01,-0.834v0h8.178v0c0.79867,0 1.476,0.278 2.032,0.834v0v0c0.55667,0.556 0.835,1.22567 0.835,2.009v0v7.943v0c0,0.78333 -0.27833,1.453 -0.835,2.009v0v0c-0.556,0.55667 -1.23333,0.835 -2.032,0.835zM85.622,371.827v0h8.178v0c0.25067,0 0.466,-0.09033 0.646,-0.271v0v0c0.18,-0.18 0.27,-0.39533 0.27,-0.646v0v-7.943v0c0,-0.25067 -0.09,-0.466 -0.27,-0.646v0v0c-0.18,-0.18 -0.39533,-0.27 -0.646,-0.27v0h-8.178v0c-0.25067,0 -0.46633,0.09 -0.647,0.27v0v0c-0.18,0.18 -0.27,0.39533 -0.27,0.646v0v7.943v0c0,0.25067 0.09,0.466 0.27,0.646v0v0c0.18067,0.18067 0.39633,0.271 0.647,0.271zM103.74,373.754h-2.303v0c-0.78333,0 -1.453,-0.27833 -2.009,-0.835v0v0c-0.556,-0.556 -0.834,-1.22567 -0.834,-2.009v0v-15.251h1.927v15.251v0c0,0.25067 0.09,0.466 0.27,0.646v0v0c0.18,0.18067 0.39533,0.271 0.646,0.271v0h2.303zM116.454,373.754h-8.178v0c-0.78333,0 -1.45333,-0.27833 -2.01,-0.835v0v0c-0.556,-0.556 -0.834,-1.22567 -0.834,-2.009v0v-7.943v0c0,-0.78333 0.278,-1.453 0.834,-2.009v0v0c0.55667,-0.556 1.22667,-0.834 2.01,-0.834v0h8.178v0c0.79867,0 1.476,0.278 2.032,0.834v0v0c0.55667,0.556 0.835,1.22567 0.835,2.009v0v7.943v0c0,0.78333 -0.27833,1.453 -0.835,2.009v0v0c-0.556,0.55667 -1.23333,0.835 -2.032,0.835zM108.276,371.827v0h8.178v0c0.25067,0 0.466,-0.09033 0.646,-0.271v0v0c0.18,-0.18 0.27,-0.39533 0.27,-0.646v0v-7.943v0c0,-0.25067 -0.09,-0.466 -0.27,-0.646v0v0c-0.18,-0.18 -0.39533,-0.27 -0.646,-0.27v0h-8.178v0c-0.25067,0 -0.46633,0.09 -0.647,0.27v0v0c-0.18,0.18 -0.27,0.39533 -0.27,0.646v0v7.943v0c0,0.25067 0.09,0.466 0.27,0.646v0v0c0.18067,0.18067 0.39633,0.271 0.647,0.271zM132.481,379.135h-8.507v-1.95h8.507v0c0.25067,0 0.466,-0.09033 0.646,-0.271v0v0c0.18,-0.18 0.27,-0.39533 0.27,-0.646v0v-2.514h-9.094v0c-0.78333,0 -1.45333,-0.27833 -2.01,-0.835v0v0c-0.556,-0.556 -0.834,-1.22567 -0.834,-2.009v0v-7.943v0c0,-0.78333 0.278,-1.453 0.834,-2.009v0v0c0.55667,-0.556 1.22667,-0.834 2.01,-0.834v0h8.178v0c0.79867,0 1.47233,0.278 2.021,0.834v0v0c0.548,0.556 0.822,1.22567 0.822,2.009v0v13.301v0c0,0.79933 -0.274,1.477 -0.822,2.033v0v0c-0.54867,0.556 -1.22233,0.834 -2.021,0.834zM124.303,371.827v0h8.178v0c0.25067,0 0.466,-0.09033 0.646,-0.271v0v0c0.18,-0.18 0.27,-0.39533 0.27,-0.646v0v-7.943v0c0,-0.25067 -0.09,-0.466 -0.27,-0.646v0v0c-0.18,-0.18 -0.39533,-0.27 -0.646,-0.27v0h-8.178v0c-0.25067,0 -0.46633,0.09 -0.647,0.27v0v0c-0.18,0.18 -0.27,0.39533 -0.27,0.646v0v7.943v0c0,0.25067 0.09,0.466 0.27,0.646v0v0c0.18067,0.18067 0.39633,0.271 0.647,0.271zM139.695,373.754h-1.927v-13.63h1.927zM139.695,357.586h-1.927v-1.927h1.927zM156.169,373.754h-11.045v0c-0.78333,0 -1.45333,-0.27833 -2.01,-0.835v0v0c-0.556,-0.556 -0.834,-1.22567 -0.834,-2.009v0v-7.943v0c0,-0.78333 0.278,-1.453 0.834,-2.009v0v0c0.55667,-0.556 1.22667,-0.834 2.01,-0.834v0h10.998v1.927h-10.998v0c-0.25133,0 -0.467,0.09 -0.647,0.27v0v0c-0.18,0.18 -0.27,0.39533 -0.27,0.646v0v7.943v0c0,0.25067 0.09,0.466 0.27,0.646v0v0c0.18,0.18067 0.39567,0.271 0.647,0.271v0h11.045zM172.525,373.754h-11.046v0c-0.78267,0 -1.45233,-0.27833 -2.009,-0.835v0v0c-0.556,-0.556 -0.834,-1.22567 -0.834,-2.009v0v-4.935h11.938v-3.008v0c0,-0.25067 -0.09,-0.466 -0.27,-0.646v0v0c-0.18,-0.18 -0.39567,-0.27 -0.647,-0.27v0h-11.021v-1.927h11.021v0c0.79933,0 1.477,0.278 2.033,0.834v0v0c0.55667,0.556 0.835,1.22567 0.835,2.009v0zM161.479,371.827v0h9.095v-3.925h-10.011v3.008v0c0,0.25067 0.09,0.466 0.27,0.646v0v0c0.18,0.18067 0.39533,0.271 0.646,0.271zM179.857,373.754h-2.303v0c-0.784,0 -1.454,-0.27833 -2.01,-0.835v0v0c-0.556,-0.556 -0.834,-1.22567 -0.834,-2.009v0v-15.251h1.927v15.251v0c0,0.25067 0.09,0.466 0.27,0.646v0v0c0.18,0.18067 0.39567,0.271 0.647,0.271v0h2.303zM319.964,344.285h-11.045v0c-0.78333,0 -1.45333,-0.27833 -2.01,-0.835v0v0c-0.556,-0.556 -0.834,-1.22567 -0.834,-2.009v0v-4.935h11.938v-3.008v0c0,-0.25067 -0.09,-0.466 -0.27,-0.646v0v0c-0.18,-0.18067 -0.39533,-0.271 -0.646,-0.271v0h-11.022v-1.926h11.022v0c0.79867,0 1.476,0.278 2.032,0.834v0v0c0.55667,0.556 0.835,1.22567 0.835,2.009v0zM308.919,342.358v0h9.094v-3.925h-10.011v3.008v0c0,0.25067 0.09,0.466 0.27,0.646v0v0c0.18067,0.18067 0.39633,0.271 0.647,0.271zM261.637,344.285h-2.303v0c-0.78333,0 -1.45333,-0.27833 -2.01,-0.835v0v0c-0.556,-0.556 -0.834,-1.22567 -0.834,-2.009v0v-15.251h1.927v15.251v0c0,0.25067 0.09,0.466 0.27,0.646v0v0c0.18067,0.18067 0.39633,0.271 0.647,0.271v0h2.303zM265.514,344.285h-1.927v-13.63h1.927zM265.514,328.117h-1.927v-1.927h1.927zM270.449,344.285h-1.927v-18.095h1.927v10.316h3.76l5.358,-5.851h2.538v0.023l-6.18,6.792l6.157,6.791v0.024h-2.515l-5.358,-5.852h-3.76zM297.404,344.285h-11.045v0c-0.78333,0 -1.45333,-0.27833 -2.01,-0.835v0v0c-0.556,-0.556 -0.834,-1.22567 -0.834,-2.009v0v-7.943v0c0,-0.78333 0.278,-1.453 0.834,-2.009v0v0c0.55667,-0.556 1.22667,-0.834 2.01,-0.834v0h8.178v0c0.79867,0 1.476,0.278 2.032,0.834v0v0c0.55667,0.556 0.835,1.22567 0.835,2.009v0v4.935h-11.962v3.008v0c0,0.25067 0.09,0.466 0.27,0.646v0v0c0.18067,0.18067 0.39633,0.271 0.647,0.271v0h11.045zM285.442,333.498v3.008h10.011v-3.008v0c0,-0.25067 -0.09,-0.466 -0.27,-0.646v0v0c-0.18,-0.18067 -0.39533,-0.271 -0.646,-0.271v0h-8.178v0c-0.25067,0 -0.46633,0.09033 -0.647,0.271v0v0c-0.18,0.18 -0.27,0.39533 -0.27,0.646zM223.12,344.285h-11.045v0c-0.78333,0 -1.453,-0.27833 -2.009,-0.835v0v0c-0.556,-0.556 -0.834,-1.22567 -0.834,-2.009v0v-4.935h11.938v-3.008v0c0,-0.25067 -0.09033,-0.466 -0.271,-0.646v0v0c-0.18,-0.18067 -0.39533,-0.271 -0.646,-0.271v0h-11.021v-1.926h11.021v0c0.79933,0 1.477,0.278 2.033,0.834v0v0c0.556,0.556 0.834,1.22567 0.834,2.009v0zM212.075,342.358v0h9.095v-3.925h-10.011v3.008v0c0,0.25067 0.09,0.466 0.27,0.646v0v0c0.18,0.18067 0.39533,0.271 0.646,0.271zM239.17,344.285h-11.044v0c-0.784,0 -1.454,-0.27833 -2.01,-0.835v0v0c-0.556,-0.556 -0.834,-1.22567 -0.834,-2.009v0v-7.943v0c0,-0.78333 0.278,-1.453 0.834,-2.009v0v0c0.556,-0.556 1.226,-0.834 2.01,-0.834v0h10.997v1.926h-10.997v0c-0.25067,0 -0.46633,0.09033 -0.647,0.271v0v0c-0.18,0.18 -0.27,0.39533 -0.27,0.646v0v7.943v0c0,0.25067 0.09,0.466 0.27,0.646v0v0c0.18067,0.18067 0.39633,0.271 0.647,0.271v0h11.044zM248.9,344.285h-4.982v0c-0.79933,0 -1.473,-0.27833 -2.021,-0.835v0v0c-0.54867,-0.556 -0.823,-1.22567 -0.823,-2.009v0v-15.251h1.927v4.465h5.899v1.926h-5.899v8.86v0c0,0.25067 0.09,0.466 0.27,0.646v0v0c0.18067,0.18067 0.39633,0.271 0.647,0.271v0h4.982zM132.645,344.285h-1.692l-5.358,-13.63h2.068l4.136,10.152l4.395,-10.152h2.538l4.676,10.128l3.854,-10.128h2.092l-5.147,13.63h-1.668l-5.076,-11.257zM153.137,344.285h-1.927v-18.095h1.927v4.465h9.118v0c0.768,0 1.434,0.278 1.998,0.834v0v0c0.564,0.556 0.846,1.22567 0.846,2.009v0v10.787h-1.927v-10.787v0c0,-0.25067 -0.09033,-0.466 -0.271,-0.646v0v0c-0.18,-0.18067 -0.39533,-0.271 -0.646,-0.271v0h-8.178v0c-0.25067,0 -0.47,0.09033 -0.658,0.271v0v0c-0.188,0.18 -0.282,0.39533 -0.282,0.646v0zM168.906,344.285h-1.927v-13.63h1.927zM168.906,328.117h-1.927v-1.927h1.927zM185.379,344.285h-11.045v0c-0.78333,0 -1.453,-0.27833 -2.009,-0.835v0v0c-0.556,-0.556 -0.834,-1.22567 -0.834,-2.009v0v-7.943v0c0,-0.78333 0.278,-1.453 0.834,-2.009v0v0c0.556,-0.556 1.22567,-0.834 2.009,-0.834v0h10.998v1.926h-10.998v0c-0.25067,0 -0.466,0.09033 -0.646,0.271v0v0c-0.18,0.18 -0.27,0.39533 -0.27,0.646v0v7.943v0c0,0.25067 0.09,0.466 0.27,0.646v0v0c0.18,0.18067 0.39533,0.271 0.646,0.271v0h11.045zM189.468,344.285h-1.927v-18.095h1.927v4.465h9.118v0c0.768,0 1.434,0.278 1.998,0.834v0v0c0.564,0.556 0.846,1.22567 0.846,2.009v0v10.787h-1.927v-10.787v0c0,-0.25067 -0.09033,-0.466 -0.271,-0.646v0v0c-0.18,-0.18067 -0.39533,-0.271 -0.646,-0.271v0h-8.178v0c-0.25067,0 -0.47,0.09033 -0.658,0.271v0v0c-0.188,0.18 -0.282,0.39533 -0.282,0.646v0zM102.471,344.285h-1.927v-13.63h1.927zM102.471,328.117h-1.927v-1.927h1.927zM113.281,344.285h-4.982v0c-0.79867,0 -1.47233,-0.27833 -2.021,-0.835v0v0c-0.548,-0.556 -0.822,-1.22567 -0.822,-2.009v0v-15.251h1.927v4.465h5.898v1.926h-5.898v8.86v0c0,0.25067 0.09,0.466 0.27,0.646v0v0c0.18,0.18067 0.39533,0.271 0.646,0.271v0h4.982zM115.114,347.363v0v-5.005h1.927v2.303v0c0,0.62667 -0.18,1.18667 -0.54,1.68v0v0c-0.36067,0.49333 -0.823,0.834 -1.387,1.022zM73.237,344.285h-8.178v0c-0.78333,0 -1.453,-0.27833 -2.009,-0.835v0v0c-0.556,-0.556 -0.834,-1.22567 -0.834,-2.009v0v-7.943v0c0,-0.78333 0.278,-1.453 0.834,-2.009v0v0c0.556,-0.556 1.22567,-0.834 2.009,-0.834v0h8.178v0c0.79933,0 1.477,0.278 2.033,0.834v0v0c0.556,0.556 0.834,1.22567 0.834,2.009v0v7.943v0c0,0.78333 -0.278,1.453 -0.834,2.009v0v0c-0.556,0.55667 -1.23367,0.835 -2.033,0.835zM65.059,342.358v0h8.178v0c0.25067,0 0.466,-0.09033 0.646,-0.271v0v0c0.18,-0.18 0.27,-0.39533 0.27,-0.646v0v-7.943v0c0,-0.25067 -0.09,-0.466 -0.27,-0.646v0v0c-0.18,-0.18067 -0.39533,-0.271 -0.646,-0.271v0h-8.178v0c-0.25067,0 -0.466,0.09033 -0.646,0.271v0v0c-0.18,0.18 -0.27,0.39533 -0.27,0.646v0v7.943v0c0,0.25067 0.09,0.466 0.27,0.646v0v0c0.18,0.18067 0.39533,0.271 0.646,0.271zM80.123,344.285h-1.927v-13.63h11.045v0c0.78333,0 1.453,0.278 2.009,0.834v0v0c0.556,0.556 0.834,1.22567 0.834,2.009v0v10.787h-1.927v-10.787v0c0,-0.25067 -0.09,-0.466 -0.27,-0.646v0v0c-0.18,-0.18067 -0.39533,-0.271 -0.646,-0.271v0h-8.178v0c-0.25067,0 -0.47,0.09033 -0.658,0.271v0v0c-0.188,0.18 -0.282,0.39533 -0.282,0.646v0zM340.597,320.197h-8.507v-1.95h8.507v0c0.25067,0 0.466,-0.09033 0.646,-0.271v0v0c0.18,-0.18 0.27,-0.39533 0.27,-0.646v0v-2.514h-9.094v0c-0.78333,0 -1.45333,-0.27833 -2.01,-0.835v0v0c-0.556,-0.556 -0.834,-1.22567 -0.834,-2.009v0v-7.943v0c0,-0.78333 0.278,-1.453 0.834,-2.009v0v0c0.55667,-0.556 1.22667,-0.834 2.01,-0.834v0h8.178v0c0.79867,0 1.47233,0.278 2.021,0.834v0v0c0.548,0.556 0.822,1.22567 0.822,2.009v0v13.301v0c0,0.79933 -0.274,1.477 -0.822,2.033v0v0c-0.54867,0.556 -1.22233,0.834 -2.021,0.834zM332.419,312.889v0h8.178v0c0.25067,0 0.466,-0.09033 0.646,-0.271v0v0c0.18,-0.18 0.27,-0.39533 0.27,-0.646v0v-7.943v0c0,-0.25067 -0.09,-0.466 -0.27,-0.646v0v0c-0.18,-0.18 -0.39533,-0.27 -0.646,-0.27v0h-8.178v0c-0.25133,0 -0.467,0.09 -0.647,0.27v0v0c-0.18,0.18 -0.27,0.39533 -0.27,0.646v0v7.943v0c0,0.25067 0.09,0.466 0.27,0.646v0v0c0.18,0.18067 0.39567,0.271 0.647,0.271zM347.458,314.816h-1.927v-10.787v0c0,-0.78333 0.27833,-1.453 0.835,-2.009v0v0c0.556,-0.556 1.22567,-0.834 2.009,-0.834v0h7.661v1.927h-7.661v0c-0.25067,0 -0.466,0.09 -0.646,0.27v0v0c-0.18067,0.18 -0.271,0.39533 -0.271,0.646v0zM368.444,314.816h-8.178v0c-0.78333,0 -1.453,-0.27833 -2.009,-0.835v0v0c-0.55667,-0.556 -0.835,-1.22567 -0.835,-2.009v0v-7.943v0c0,-0.78333 0.27833,-1.453 0.835,-2.009v0v0c0.556,-0.556 1.22567,-0.834 2.009,-0.834v0h8.178v0c0.79867,0 1.47633,0.278 2.033,0.834v0v0c0.556,0.556 0.834,1.22567 0.834,2.009v0v7.943v0c0,0.78333 -0.278,1.453 -0.834,2.009v0v0c-0.55667,0.55667 -1.23433,0.835 -2.033,0.835zM360.266,312.889v0h8.178v0c0.25067,0 0.466,-0.09033 0.646,-0.271v0v0c0.18,-0.18 0.27,-0.39533 0.27,-0.646v0v-7.943v0c0,-0.25067 -0.09,-0.466 -0.27,-0.646v0v0c-0.18,-0.18 -0.39533,-0.27 -0.646,-0.27v0h-8.178v0c-0.25067,0 -0.466,0.09 -0.646,0.27v0v0c-0.18067,0.18 -0.271,0.39533 -0.271,0.646v0v7.943v0c0,0.25067 0.09033,0.466 0.271,0.646v0v0c0.18,0.18067 0.39533,0.271 0.646,0.271zM379.536,314.816h-1.692l-5.358,-13.63h2.068l4.136,10.152l4.394,-10.152h2.538l4.677,10.128l3.854,-10.128h2.091l-5.146,13.63h-1.669l-5.076,-11.257zM279.778,314.816h-4.982v0c-0.79867,0 -1.472,-0.27833 -2.02,-0.835v0v0c-0.54867,-0.556 -0.823,-1.22567 -0.823,-2.009v0v-15.251h1.927v4.465h5.898v1.927h-5.898v8.859v0c0,0.25067 0.09,0.466 0.27,0.646v0v0c0.18,0.18067 0.39533,0.271 0.646,0.271v0h4.982zM283.656,314.816h-1.927v-18.095h1.927v4.465h9.118v0c0.76733,0 1.433,0.278 1.997,0.834v0v0c0.564,0.556 0.846,1.22567 0.846,2.009v0v10.787h-1.926v-10.787v0c0,-0.25067 -0.09033,-0.466 -0.271,-0.646v0v0c-0.18,-0.18 -0.39533,-0.27 -0.646,-0.27v0h-8.178v0c-0.25067,0 -0.47,0.09 -0.658,0.27v0v0c-0.188,0.18 -0.282,0.39533 -0.282,0.646v0zM311.386,314.816h-11.045v0c-0.78333,0 -1.453,-0.27833 -2.009,-0.835v0v0c-0.556,-0.556 -0.834,-1.22567 -0.834,-2.009v0v-4.935h11.938v-3.008v0c0,-0.25067 -0.09033,-0.466 -0.271,-0.646v0v0c-0.18,-0.18 -0.39533,-0.27 -0.646,-0.27v0h-11.021v-1.927h11.021v0c0.79933,0 1.477,0.278 2.033,0.834v0v0c0.556,0.556 0.834,1.22567 0.834,2.009v0zM300.341,312.889v0h9.095v-3.925h-10.011v3.008v0c0,0.25067 0.09,0.466 0.27,0.646v0v0c0.18,0.18067 0.39533,0.271 0.646,0.271zM321.656,314.816h-4.982v0c-0.79933,0 -1.473,-0.27833 -2.021,-0.835v0v0c-0.54867,-0.556 -0.823,-1.22567 -0.823,-2.009v0v-15.251h1.927v4.465h5.899v1.927h-5.899v8.859v0c0,0.25067 0.09,0.466 0.27,0.646v0v0c0.18,0.18067 0.39567,0.271 0.647,0.271v0h4.982zM140.353,314.816h-8.178v0c-0.78333,0 -1.453,-0.27833 -2.009,-0.835v0v0c-0.556,-0.556 -0.834,-1.22567 -0.834,-2.009v0v-7.943v0c0,-0.78333 0.278,-1.453 0.834,-2.009v0v0c0.556,-0.556 1.22567,-0.834 2.009,-0.834v0h8.178v0c0.79933,0 1.477,0.278 2.033,0.834v0v0c0.556,0.556 0.834,1.22567 0.834,2.009v0v7.943v0c0,0.78333 -0.278,1.453 -0.834,2.009v0v0c-0.556,0.55667 -1.23367,0.835 -2.033,0.835zM132.175,312.889v0h8.178v0c0.25067,0 0.466,-0.09033 0.646,-0.271v0v0c0.18067,-0.18 0.271,-0.39533 0.271,-0.646v0v-7.943v0c0,-0.25067 -0.09033,-0.466 -0.271,-0.646v0v0c-0.18,-0.18 -0.39533,-0.27 -0.646,-0.27v0h-8.178v0c-0.25067,0 -0.466,0.09 -0.646,0.27v0v0c-0.18,0.18 -0.27,0.39533 -0.27,0.646v0v7.943v0c0,0.25067 0.09,0.466 0.27,0.646v0v0c0.18,0.18067 0.39533,0.271 0.646,0.271zM147.309,314.816h-1.927v-10.787v0c0,-0.78333 0.278,-1.453 0.834,-2.009v0v0c0.55667,-0.556 1.22667,-0.834 2.01,-0.834v0h7.661v1.927h-7.661v0c-0.25067,0 -0.46633,0.09 -0.647,0.27v0v0c-0.18,0.18 -0.27,0.39533 -0.27,0.646v0zM168.177,320.197h-8.507v-1.95h8.507v0c0.25067,0 0.466,-0.09033 0.646,-0.271v0v0c0.18067,-0.18 0.271,-0.39533 0.271,-0.646v0v-2.514h-9.095v0c-0.78333,0 -1.453,-0.27833 -2.009,-0.835v0v0c-0.556,-0.556 -0.834,-1.22567 -0.834,-2.009v0v-7.943v0c0,-0.78333 0.278,-1.453 0.834,-2.009v0v0c0.556,-0.556 1.22567,-0.834 2.009,-0.834v0h8.178v0c0.79867,0 1.47233,0.278 2.021,0.834v0v0c0.54867,0.556 0.823,1.22567 0.823,2.009v0v13.301v0c0,0.79933 -0.27433,1.477 -0.823,2.033v0v0c-0.54867,0.556 -1.22233,0.834 -2.021,0.834zM159.999,312.889v0h8.178v0c0.25067,0 0.466,-0.09033 0.646,-0.271v0v0c0.18067,-0.18 0.271,-0.39533 0.271,-0.646v0v-7.943v0c0,-0.25067 -0.09033,-0.466 -0.271,-0.646v0v0c-0.18,-0.18 -0.39533,-0.27 -0.646,-0.27v0h-8.178v0c-0.25067,0 -0.466,0.09 -0.646,0.27v0v0c-0.18,0.18 -0.27,0.39533 -0.27,0.646v0v7.943v0c0,0.25067 0.09,0.466 0.27,0.646v0v0c0.18,0.18067 0.39533,0.271 0.646,0.271zM187.001,314.816h-11.046v0c-0.78267,0 -1.45233,-0.27833 -2.009,-0.835v0v0c-0.556,-0.556 -0.834,-1.22567 -0.834,-2.009v0v-4.935h11.938v-3.008v0c0,-0.25067 -0.09,-0.466 -0.27,-0.646v0v0c-0.18,-0.18 -0.39567,-0.27 -0.647,-0.27v0h-11.021v-1.927h11.021v0c0.79933,0 1.477,0.278 2.033,0.834v0v0c0.55667,0.556 0.835,1.22567 0.835,2.009v0zM175.955,312.889v0h9.095v-3.925h-10.011v3.008v0c0,0.25067 0.09,0.466 0.27,0.646v0v0c0.18067,0.18067 0.396,0.271 0.646,0.271zM191.043,314.816h-1.928v-13.63h11.046v0c0.78267,0 1.45233,0.278 2.009,0.834v0v0c0.556,0.556 0.834,1.22567 0.834,2.009v0v10.787h-1.927v-10.787v0c0,-0.25067 -0.09,-0.466 -0.27,-0.646v0v0c-0.18,-0.18 -0.39533,-0.27 -0.646,-0.27v0h-8.178v0c-0.25067,0 -0.47033,0.09 -0.659,0.27v0v0c-0.18733,0.18 -0.281,0.39533 -0.281,0.646v0zM207.352,314.816h-1.927v-13.63h1.927zM207.352,298.648h-1.927v-1.927h1.927zM221.24,314.816h-8.178v0c-0.78333,0 -1.453,-0.27833 -2.009,-0.835v0v0c-0.556,-0.556 -0.834,-1.22567 -0.834,-2.009v0v-0.188h1.927v0.188v0c0,0.25067 0.09,0.466 0.27,0.646v0v0c0.18,0.18067 0.39533,0.271 0.646,0.271v0h8.178v0c0.25067,0 0.466,-0.09033 0.646,-0.271v0v0c0.18067,-0.18 0.271,-0.39533 0.271,-0.646v0v-2.091v0c0,-0.25067 -0.09033,-0.46633 -0.271,-0.647v0v0c-0.18,-0.18 -0.39533,-0.27 -0.646,-0.27v0h-8.178v0c-0.78333,0 -1.453,-0.278 -2.009,-0.834v0v0c-0.556,-0.556 -0.834,-1.22567 -0.834,-2.009v0v-2.092v0c0,-0.78333 0.278,-1.453 0.834,-2.009v0v0c0.556,-0.556 1.22567,-0.834 2.009,-0.834v0h8.178v0c0.79933,0 1.477,0.278 2.033,0.834v0v0c0.556,0.556 0.834,1.22567 0.834,2.009v0v0.188h-1.95v-0.188v0c0,-0.25067 -0.09033,-0.466 -0.271,-0.646v0v0c-0.18,-0.18 -0.39533,-0.27 -0.646,-0.27v0h-8.178v0c-0.25067,0 -0.466,0.09 -0.646,0.27v0v0c-0.18,0.18 -0.27,0.39533 -0.27,0.646v0v2.092v0c0,0.25067 0.09,0.466 0.27,0.646v0v0c0.18,0.18 0.39533,0.27 0.646,0.27v0h8.178v0c0.79933,0 1.477,0.278 2.033,0.834v0v0c0.556,0.55667 0.834,1.22667 0.834,2.01v0v2.091v0c0,0.78333 -0.278,1.453 -0.834,2.009v0v0c-0.556,0.55667 -1.23367,0.835 -2.033,0.835zM228.431,314.816h-1.95v-13.63h18.001v0c0.79867,0 1.47233,0.278 2.021,0.834v0v0c0.548,0.556 0.822,1.22567 0.822,2.009v0v10.787h-1.903v-10.787v0c0,-0.25067 -0.094,-0.466 -0.282,-0.646v0v0c-0.188,-0.18 -0.40733,-0.27 -0.658,-0.27v0h-5.664v0c-0.25067,0 -0.466,0.09 -0.646,0.27v0v0c-0.18,0.18 -0.27,0.39533 -0.27,0.646v0v10.787h-1.951v-10.787v0c0,-0.25067 -0.09,-0.466 -0.27,-0.646v0v0c-0.18,-0.18 -0.39533,-0.27 -0.646,-0.27v0h-5.687v0c-0.25067,0 -0.46633,0.09 -0.647,0.27v0v0c-0.18,0.18 -0.27,0.39533 -0.27,0.646v0zM260.344,314.816h-8.178v0c-0.78333,0 -1.453,-0.27833 -2.009,-0.835v0v0c-0.556,-0.556 -0.834,-1.22567 -0.834,-2.009v0v-0.188h1.927v0.188v0c0,0.25067 0.09,0.466 0.27,0.646v0v0c0.18,0.18067 0.39533,0.271 0.646,0.271v0h8.178v0c0.25067,0 0.466,-0.09033 0.646,-0.271v0v0c0.18067,-0.18 0.271,-0.39533 0.271,-0.646v0v-2.091v0c0,-0.25067 -0.09033,-0.46633 -0.271,-0.647v0v0c-0.18,-0.18 -0.39533,-0.27 -0.646,-0.27v0h-8.178v0c-0.78333,0 -1.453,-0.278 -2.009,-0.834v0v0c-0.556,-0.556 -0.834,-1.22567 -0.834,-2.009v0v-2.092v0c0,-0.78333 0.278,-1.453 0.834,-2.009v0v0c0.556,-0.556 1.22567,-0.834 2.009,-0.834v0h8.178v0c0.79933,0 1.477,0.278 2.033,0.834v0v0c0.556,0.556 0.834,1.22567 0.834,2.009v0v0.188h-1.95v-0.188v0c0,-0.25067 -0.09033,-0.466 -0.271,-0.646v0v0c-0.18,-0.18 -0.39533,-0.27 -0.646,-0.27v0h-8.178v0c-0.25067,0 -0.466,0.09 -0.646,0.27v0v0c-0.18,0.18 -0.27,0.39533 -0.27,0.646v0v2.092v0c0,0.25067 0.09,0.466 0.27,0.646v0v0c0.18,0.18 0.39533,0.27 0.646,0.27v0h8.178v0c0.79933,0 1.477,0.278 2.033,0.834v0v0c0.556,0.55667 0.834,1.22667 0.834,2.01v0v2.091v0c0,0.78333 -0.278,1.453 -0.834,2.009v0v0c-0.556,0.55667 -1.23367,0.835 -2.033,0.835zM64.19,314.816h-1.927v-15.252v0c0,-0.79867 0.274,-1.47233 0.822,-2.021v0v0c0.54867,-0.548 1.22233,-0.822 2.021,-0.822v0h4.982v1.927h-4.982v0c-0.25067,0 -0.466,0.09 -0.646,0.27v0v0c-0.18,0.18 -0.27,0.39533 -0.27,0.646v0v1.622h5.898v1.927h-5.898zM73.731,314.816h-1.927v-10.787v0c0,-0.78333 0.278,-1.453 0.834,-2.009v0v0c0.556,-0.556 1.22567,-0.834 2.009,-0.834v0h7.661v1.927h-7.661v0c-0.25067,0 -0.466,0.09 -0.646,0.27v0v0c-0.18,0.18 -0.27,0.39533 -0.27,0.646v0zM94.716,314.816h-8.178v0c-0.78333,0 -1.453,-0.27833 -2.009,-0.835v0v0c-0.55667,-0.556 -0.835,-1.22567 -0.835,-2.009v0v-7.943v0c0,-0.78333 0.27833,-1.453 0.835,-2.009v0v0c0.556,-0.556 1.22567,-0.834 2.009,-0.834v0h8.178v0c0.79933,0 1.477,0.278 2.033,0.834v0v0c0.556,0.556 0.834,1.22567 0.834,2.009v0v7.943v0c0,0.78333 -0.278,1.453 -0.834,2.009v0v0c-0.556,0.55667 -1.23367,0.835 -2.033,0.835zM86.538,312.889v0h8.178v0c0.25067,0 0.466,-0.09033 0.646,-0.271v0v0c0.18067,-0.18 0.271,-0.39533 0.271,-0.646v0v-7.943v0c0,-0.25067 -0.09033,-0.466 -0.271,-0.646v0v0c-0.18,-0.18 -0.39533,-0.27 -0.646,-0.27v0h-8.178v0c-0.25067,0 -0.466,0.09 -0.646,0.27v0v0c-0.18,0.18 -0.27,0.39533 -0.27,0.646v0v7.943v0c0,0.25067 0.09,0.466 0.27,0.646v0v0c0.18,0.18067 0.39533,0.271 0.646,0.271zM101.977,314.816h-1.95v-13.63h18.001v0c0.79867,0 1.47233,0.278 2.021,0.834v0v0c0.54867,0.556 0.823,1.22567 0.823,2.009v0v10.787h-1.904v-10.787v0c0,-0.25067 -0.094,-0.466 -0.282,-0.646v0v0c-0.188,-0.18 -0.40733,-0.27 -0.658,-0.27v0h-5.663v0c-0.25133,0 -0.467,0.09 -0.647,0.27v0v0c-0.18,0.18 -0.27,0.39533 -0.27,0.646v0v10.787h-1.95v-10.787v0c0,-0.25067 -0.09033,-0.466 -0.271,-0.646v0v0c-0.18,-0.18 -0.39533,-0.27 -0.646,-0.27v0h-5.687v0c-0.25067,0 -0.466,0.09 -0.646,0.27v0v0c-0.18067,0.18 -0.271,0.39533 -0.271,0.646v0zM333.735,290.728h-8.508v-1.95h8.508v0c0.25,0 0.46533,-0.09033 0.646,-0.271v0v0c0.18,-0.18 0.27,-0.39533 0.27,-0.646v0v-2.514h-9.094v0c-0.784,0 -1.454,-0.27833 -2.01,-0.835v0v0c-0.556,-0.556 -0.834,-1.22567 -0.834,-2.009v0v-7.943v0c0,-0.78333 0.278,-1.453 0.834,-2.009v0v0c0.556,-0.556 1.226,-0.834 2.01,-0.834v0h8.178v0c0.79867,0 1.472,0.278 2.02,0.834v0v0c0.54867,0.556 0.823,1.22567 0.823,2.009v0v13.301v0c0,0.79933 -0.27433,1.477 -0.823,2.033v0v0c-0.548,0.556 -1.22133,0.834 -2.02,0.834zM325.557,283.42v0h8.178v0c0.25,0 0.46533,-0.09033 0.646,-0.271v0v0c0.18,-0.18 0.27,-0.39533 0.27,-0.646v0v-7.943v0c0,-0.25067 -0.09,-0.466 -0.27,-0.646v0v0c-0.18067,-0.18 -0.396,-0.27 -0.646,-0.27v0h-8.178v0c-0.25133,0 -0.467,0.09 -0.647,0.27v0v0c-0.18,0.18 -0.27,0.39533 -0.27,0.646v0v7.943v0c0,0.25067 0.09,0.466 0.27,0.646v0v0c0.18,0.18067 0.39567,0.271 0.647,0.271zM340.596,285.347h-1.927v-10.787v0c0,-0.78333 0.27833,-1.453 0.835,-2.009v0v0c0.556,-0.556 1.22567,-0.834 2.009,-0.834v0h7.661v1.927h-7.661v0c-0.25067,0 -0.466,0.09 -0.646,0.27v0v0c-0.18067,0.18 -0.271,0.39533 -0.271,0.646v0zM364.566,285.347h-11.045v0c-0.78333,0 -1.453,-0.27833 -2.009,-0.835v0v0c-0.556,-0.556 -0.834,-1.22567 -0.834,-2.009v0v-7.943v0c0,-0.78333 0.278,-1.453 0.834,-2.009v0v0c0.556,-0.556 1.22567,-0.834 2.009,-0.834v0h8.178v0c0.79933,0 1.477,0.278 2.033,0.834v0v0c0.556,0.556 0.834,1.22567 0.834,2.009v0v4.935h-11.961v3.008v0c0,0.25067 0.09,0.466 0.27,0.646v0v0c0.18,0.18067 0.39533,0.271 0.646,0.271v0h11.045zM352.605,274.56v3.008h10.011v-3.008v0c0,-0.25067 -0.09,-0.466 -0.27,-0.646v0v0c-0.18067,-0.18 -0.39633,-0.27 -0.647,-0.27v0h-8.178v0c-0.25067,0 -0.466,0.09 -0.646,0.27v0v0c-0.18,0.18 -0.27,0.39533 -0.27,0.646zM380.852,285.347h-11.045v0c-0.78333,0 -1.453,-0.27833 -2.009,-0.835v0v0c-0.55667,-0.556 -0.835,-1.22567 -0.835,-2.009v0v-4.935h11.938v-3.008v0c0,-0.25067 -0.09,-0.466 -0.27,-0.646v0v0c-0.18,-0.18 -0.39533,-0.27 -0.646,-0.27v0h-11.022v-1.927h11.022v0c0.79867,0 1.47633,0.278 2.033,0.834v0v0c0.556,0.556 0.834,1.22567 0.834,2.009v0zM369.807,283.42v0h9.094v-3.925h-10.011v3.008v0c0,0.25067 0.09033,0.466 0.271,0.646v0v0c0.18,0.18067 0.39533,0.271 0.646,0.271zM391.122,285.347h-4.983v0c-0.79867,0 -1.47233,-0.27833 -2.021,-0.835v0v0c-0.548,-0.556 -0.822,-1.22567 -0.822,-2.009v0v-15.251h1.927v4.465h5.899v1.927h-5.899v8.859v0c0,0.25067 0.09,0.466 0.27,0.646v0v0c0.18,0.18067 0.39533,0.271 0.646,0.271v0h4.983zM398.054,285.347h-2.303v0c-0.78333,0 -1.453,-0.27833 -2.009,-0.835v0v0c-0.55667,-0.556 -0.835,-1.22567 -0.835,-2.009v0v-15.251h1.927v15.251v0c0,0.25067 0.09033,0.466 0.271,0.646v0v0c0.18,0.18067 0.39533,0.271 0.646,0.271v0h2.303zM410.791,290.752h-8.507v-1.951h8.507v0c0.25067,0 0.466,-0.09 0.646,-0.27v0v0c0.18,-0.18 0.27,-0.39533 0.27,-0.646v0v-2.538h-9.094v0c-0.78333,0 -1.453,-0.27833 -2.009,-0.835v0v0c-0.55667,-0.556 -0.835,-1.22567 -0.835,-2.009v0v-10.739h1.927v10.739v0c0,0.25067 0.09033,0.466 0.271,0.646v0v0c0.18,0.18067 0.39533,0.271 0.646,0.271v0h8.178v0c0.25067,0 0.466,-0.09033 0.646,-0.271v0v0c0.18,-0.18 0.27,-0.39533 0.27,-0.646v0v-10.739h1.927v16.121v0c0,0.79867 -0.274,1.476 -0.822,2.032v0v0c-0.54867,0.55667 -1.22233,0.835 -2.021,0.835zM222.908,285.347h-11.044v-18.095h1.926v4.465h9.118v0c0.784,0 1.454,0.278 2.01,0.834v0v0c0.556,0.556 0.834,1.22567 0.834,2.009v0v7.943v0c0,0.78333 -0.278,1.453 -0.834,2.009v0v0c-0.556,0.55667 -1.226,0.835 -2.01,0.835zM214.73,283.42v0h8.178v0c0.25067,0 0.46633,-0.09033 0.647,-0.271v0v0c0.18,-0.18 0.27,-0.39533 0.27,-0.646v0v-7.943v0c0,-0.25067 -0.09,-0.466 -0.27,-0.646v0v0c-0.18067,-0.18 -0.39633,-0.27 -0.647,-0.27v0h-8.178v0c-0.25067,0 -0.46967,0.09 -0.657,0.27v0v0c-0.18867,0.18 -0.283,0.39533 -0.283,0.646v0v7.943v0c0,0.25067 0.09433,0.466 0.283,0.646v0v0c0.18733,0.18067 0.40633,0.271 0.657,0.271zM241.356,285.347h-11.045v0c-0.78333,0 -1.453,-0.27833 -2.009,-0.835v0v0c-0.55667,-0.556 -0.835,-1.22567 -0.835,-2.009v0v-7.943v0c0,-0.78333 0.27833,-1.453 0.835,-2.009v0v0c0.556,-0.556 1.22567,-0.834 2.009,-0.834v0h8.178v0c0.79867,0 1.47633,0.278 2.033,0.834v0v0c0.556,0.556 0.834,1.22567 0.834,2.009v0v4.935h-11.962v3.008v0c0,0.25067 0.09033,0.466 0.271,0.646v0v0c0.18,0.18067 0.39533,0.271 0.646,0.271v0h11.045zM229.394,274.56v3.008h10.012v-3.008v0c0,-0.25067 -0.09033,-0.466 -0.271,-0.646v0v0c-0.18,-0.18 -0.39533,-0.27 -0.646,-0.27v0h-8.178v0c-0.25067,0 -0.466,0.09 -0.646,0.27v0v0c-0.18067,0.18 -0.271,0.39533 -0.271,0.646zM245.727,285.347h-1.927v-13.63h11.045v0c0.78333,0 1.453,0.278 2.009,0.834v0v0c0.556,0.556 0.834,1.22567 0.834,2.009v0v10.787h-1.926v-10.787v0c0,-0.25067 -0.09033,-0.466 -0.271,-0.646v0v0c-0.18,-0.18 -0.39533,-0.27 -0.646,-0.27v0h-8.178v0c-0.25067,0 -0.47,0.09 -0.658,0.27v0v0c-0.188,0.18 -0.282,0.39533 -0.282,0.646v0zM273.974,285.347h-11.045v0c-0.78333,0 -1.453,-0.27833 -2.009,-0.835v0v0c-0.55667,-0.556 -0.835,-1.22567 -0.835,-2.009v0v-7.943v0c0,-0.78333 0.27833,-1.453 0.835,-2.009v0v0c0.556,-0.556 1.22567,-0.834 2.009,-0.834v0h8.178v0c0.79867,0 1.47633,0.278 2.033,0.834v0v0c0.556,0.556 0.834,1.22567 0.834,2.009v0v4.935h-11.962v3.008v0c0,0.25067 0.09033,0.466 0.271,0.646v0v0c0.18,0.18067 0.39533,0.271 0.646,0.271v0h11.045zM262.012,274.56v3.008h10.012v-3.008v0c0,-0.25067 -0.09033,-0.466 -0.271,-0.646v0v0c-0.18,-0.18 -0.39533,-0.27 -0.646,-0.27v0h-8.178v0c-0.25067,0 -0.466,0.09 -0.646,0.27v0v0c-0.18067,0.18 -0.271,0.39533 -0.271,0.646zM278.322,285.347h-1.928v-15.252v0c0,-0.79867 0.27433,-1.47233 0.823,-2.021v0v0c0.548,-0.548 1.22167,-0.822 2.021,-0.822v0h4.982v1.927h-4.982v0c-0.25067,0 -0.466,0.09 -0.646,0.27v0v0c-0.18,0.18 -0.27,0.39533 -0.27,0.646v0v1.622h5.898v1.927h-5.898zM287.863,285.347h-1.927v-13.63h1.927zM287.863,269.179h-1.927v-1.927h1.927zM298.673,285.347h-4.982v0c-0.79933,0 -1.473,-0.27833 -2.021,-0.835v0v0c-0.54867,-0.556 -0.823,-1.22567 -0.823,-2.009v0v-15.251h1.927v4.465h5.899v1.927h-5.899v8.859v0c0,0.25067 0.09,0.466 0.27,0.646v0v0c0.18,0.18067 0.39567,0.271 0.647,0.271v0h4.982zM311.386,285.347h-8.178v0c-0.78333,0 -1.453,-0.27833 -2.009,-0.835v0v0c-0.55667,-0.556 -0.835,-1.22567 -0.835,-2.009v0v-0.188h1.928v0.188v0c0,0.25067 0.09,0.466 0.27,0.646v0v0c0.18,0.18067 0.39533,0.271 0.646,0.271v0h8.178v0c0.25067,0 0.466,-0.09033 0.646,-0.271v0v0c0.18,-0.18 0.27,-0.39533 0.27,-0.646v0v-2.091v0c0,-0.25067 -0.09,-0.46633 -0.27,-0.647v0v0c-0.18,-0.18 -0.39533,-0.27 -0.646,-0.27v0h-8.178v0c-0.78333,0 -1.453,-0.278 -2.009,-0.834v0v0c-0.55667,-0.556 -0.835,-1.22567 -0.835,-2.009v0v-2.092v0c0,-0.78333 0.27833,-1.453 0.835,-2.009v0v0c0.556,-0.556 1.22567,-0.834 2.009,-0.834v0h8.178v0c0.79933,0 1.477,0.278 2.033,0.834v0v0c0.556,0.556 0.834,1.22567 0.834,2.009v0v0.188h-1.951v-0.188v0c0,-0.25067 -0.09,-0.466 -0.27,-0.646v0v0c-0.18,-0.18 -0.39533,-0.27 -0.646,-0.27v0h-8.178v0c-0.25067,0 -0.466,0.09 -0.646,0.27v0v0c-0.18,0.18 -0.27,0.39533 -0.27,0.646v0v2.092v0c0,0.25067 0.09,0.466 0.27,0.646v0v0c0.18,0.18 0.39533,0.27 0.646,0.27v0h8.178v0c0.79933,0 1.477,0.278 2.033,0.834v0v0c0.556,0.55667 0.834,1.22667 0.834,2.01v0v2.091v0c0,0.78333 -0.278,1.453 -0.834,2.009v0v0c-0.556,0.55667 -1.23367,0.835 -2.033,0.835zM77.819,285.347h-15.439v-16.92h15.439v1.903h-13.535v5.593h10.88v1.927h-10.88v5.593h13.535zM97.207,285.347h-14.053v0c-0.78333,0 -1.449,-0.27433 -1.997,-0.823v0v0c-0.54867,-0.548 -0.823,-1.21367 -0.823,-1.997v0v-11.28v0c0,-0.78333 0.27433,-1.44933 0.823,-1.998v0v0c0.548,-0.548 1.21367,-0.822 1.997,-0.822v0h14.053v1.903h-14.053v0c-0.25067,0 -0.466,0.09 -0.646,0.27v0v0c-0.18,0.18067 -0.27,0.39633 -0.27,0.647v0v11.28v0c0,0.25067 0.09,0.466 0.27,0.646v0v0c0.18,0.18 0.39533,0.27 0.646,0.27v0h14.053zM113.704,285.347h-11.28v0c-0.78333,0 -1.44933,-0.27433 -1.998,-0.823v0v0c-0.548,-0.548 -0.822,-1.21367 -0.822,-1.997v0v-11.28v0c0,-0.78333 0.274,-1.44933 0.822,-1.998v0v0c0.54867,-0.548 1.21467,-0.822 1.998,-0.822v0h11.28v0c0.78333,0 1.44933,0.274 1.998,0.822v0v0c0.548,0.54867 0.822,1.21467 0.822,1.998v0v11.28v0c0,0.78333 -0.274,1.449 -0.822,1.997v0v0c-0.54867,0.54867 -1.21467,0.823 -1.998,0.823zM102.424,283.443v0h11.28v0c0.25067,0 0.466,-0.09 0.646,-0.27v0v0c0.18067,-0.18 0.271,-0.39533 0.271,-0.646v0v-11.28v0c0,-0.25067 -0.09033,-0.46633 -0.271,-0.647v0v0c-0.18,-0.18 -0.39533,-0.27 -0.646,-0.27v0h-11.28v0c-0.25067,0 -0.466,0.09 -0.646,0.27v0v0c-0.18,0.18067 -0.27,0.39633 -0.27,0.647v0v11.28v0c0,0.25067 0.09,0.466 0.27,0.646v0v0c0.18,0.18 0.39533,0.27 0.646,0.27zM120.989,285.347h-1.927v-13.63h11.045v0c0.78333,0 1.453,0.278 2.009,0.834v0v0c0.55667,0.556 0.835,1.22567 0.835,2.009v0v10.787h-1.928v-10.787v0c0,-0.25067 -0.09,-0.466 -0.27,-0.646v0v0c-0.18,-0.18 -0.39533,-0.27 -0.646,-0.27v0h-8.178v0c-0.25067,0 -0.47,0.09 -0.658,0.27v0v0c-0.188,0.18 -0.282,0.39533 -0.282,0.646v0zM148.766,285.347h-11.045v0c-0.78333,0 -1.453,-0.27833 -2.009,-0.835v0v0c-0.556,-0.556 -0.834,-1.22567 -0.834,-2.009v0v-7.943v0c0,-0.78333 0.278,-1.453 0.834,-2.009v0v0c0.556,-0.556 1.22567,-0.834 2.009,-0.834v0h10.998v1.927h-10.998v0c-0.25067,0 -0.466,0.09 -0.646,0.27v0v0c-0.18,0.18 -0.27,0.39533 -0.27,0.646v0v7.943v0c0,0.25067 0.09,0.466 0.27,0.646v0v0c0.18,0.18067 0.39533,0.271 0.646,0.271v0h11.045zM153.161,285.347h-1.927v-10.787v0c0,-0.78333 0.278,-1.453 0.834,-2.009v0v0c0.556,-0.556 1.22567,-0.834 2.009,-0.834v0h7.661v1.927h-7.661v0c-0.25067,0 -0.466,0.09 -0.646,0.27v0v0c-0.18,0.18 -0.27,0.39533 -0.27,0.646v0zM177.131,285.347h-11.045v0c-0.78333,0 -1.45333,-0.27833 -2.01,-0.835v0v0c-0.556,-0.556 -0.834,-1.22567 -0.834,-2.009v0v-7.943v0c0,-0.78333 0.278,-1.453 0.834,-2.009v0v0c0.55667,-0.556 1.22667,-0.834 2.01,-0.834v0h8.178v0c0.79867,0 1.476,0.278 2.032,0.834v0v0c0.55667,0.556 0.835,1.22567 0.835,2.009v0v4.935h-11.962v3.008v0c0,0.25067 0.09,0.466 0.27,0.646v0v0c0.18067,0.18067 0.39633,0.271 0.647,0.271v0h11.045zM165.169,274.56v3.008h10.011v-3.008v0c0,-0.25067 -0.09,-0.466 -0.27,-0.646v0v0c-0.18,-0.18 -0.39533,-0.27 -0.646,-0.27v0h-8.178v0c-0.25067,0 -0.46633,0.09 -0.647,0.27v0v0c-0.18,0.18 -0.27,0.39533 -0.27,0.646zM187.377,285.347h-4.982v0c-0.79933,0 -1.47333,-0.27833 -2.022,-0.835v0v0c-0.548,-0.556 -0.822,-1.22567 -0.822,-2.009v0v-15.251h1.927v4.465h5.899v1.927h-5.899v8.859v0c0,0.25067 0.09,0.466 0.27,0.646v0v0c0.18067,0.18067 0.39633,0.271 0.647,0.271v0h4.982zM203.028,285.347h-11.045v0c-0.78333,0 -1.45333,-0.27833 -2.01,-0.835v0v0c-0.556,-0.556 -0.834,-1.22567 -0.834,-2.009v0v-7.943v0c0,-0.78333 0.278,-1.453 0.834,-2.009v0v0c0.55667,-0.556 1.22667,-0.834 2.01,-0.834v0h8.178v0c0.79867,0 1.476,0.278 2.032,0.834v0v0c0.55667,0.556 0.835,1.22567 0.835,2.009v0v4.935h-11.962v3.008v0c0,0.25067 0.09,0.466 0.27,0.646v0v0c0.18067,0.18067 0.39633,0.271 0.647,0.271v0h11.045zM191.066,274.56v3.008h10.011v-3.008v0c0,-0.25067 -0.09,-0.466 -0.27,-0.646v0v0c-0.18,-0.18 -0.39533,-0.27 -0.646,-0.27v0h-8.178v0c-0.25067,0 -0.46633,0.09 -0.647,0.27v0v0c-0.18,0.18 -0.27,0.39533 -0.27,0.646z" fill="#ffffff" stroke="none" stroke-width="1" stroke-linecap="butt" stroke-miterlimit="10"/><path d="M194.16,232.297h-14.4v0c-1,0 -1.85,-0.35 -2.55,-1.05v0v0c-0.7,-0.7 -1.05,-1.55 -1.05,-2.55v0v-0.84h2.43v0.84v0c0,0.32 0.115,0.595 0.345,0.825v0v0c0.23,0.23 0.505,0.345 0.825,0.345v0h14.4v0c0.32,0 0.595,-0.115 0.825,-0.345v0v0c0.23,-0.23 0.345,-0.505 0.345,-0.825v0v-4.83v0c0,-0.32 -0.115,-0.59 -0.345,-0.81v0v0c-0.23,-0.22 -0.505,-0.33 -0.825,-0.33v0h-14.4v0c-1,0 -1.85,-0.355 -2.55,-1.065v0v0c-0.7,-0.71 -1.05,-1.555 -1.05,-2.535v0v-4.83v0c0,-1 0.35,-1.85 1.05,-2.55v0v0c0.7,-0.7 1.55,-1.05 2.55,-1.05v0h14.4v0c1,0 1.85,0.35 2.55,1.05v0v0c0.7,0.7 1.05,1.55 1.05,2.55v0v0.84h-2.43v-0.84v0c0,-0.32 -0.115,-0.595 -0.345,-0.825v0v0c-0.23,-0.23 -0.505,-0.345 -0.825,-0.345v0h-14.4v0c-0.32,0 -0.595,0.115 -0.825,0.345v0v0c-0.23,0.23 -0.345,0.505 -0.345,0.825v0v4.83v0c0,0.32 0.115,0.59 0.345,0.81v0v0c0.23,0.22 0.505,0.33 0.825,0.33v0h14.4v0c1,0 1.85,0.355 2.55,1.065v0v0c0.7,0.71 1.05,1.555 1.05,2.535v0v4.83v0c0,1 -0.35,1.85 -1.05,2.55v0v0c-0.7,0.7 -1.55,1.05 -2.55,1.05zM210.87,232.297h-6.36v0c-1.02,0 -1.88,-0.355 -2.58,-1.065v0v0c-0.7,-0.71 -1.05,-1.565 -1.05,-2.565v0v-19.47h2.46v5.7h7.53v2.46h-7.53v11.31v0c0,0.32 0.115,0.595 0.345,0.825v0v0c0.23,0.23 0.505,0.345 0.825,0.345v0h6.36zM215.61,232.297h-2.46v-13.77v0c0,-1 0.355,-1.855 1.065,-2.565v0v0c0.71,-0.71 1.565,-1.065 2.565,-1.065v0h9.78v2.46h-9.78v0c-0.32,0 -0.595,0.115 -0.825,0.345v0v0c-0.23,0.23 -0.345,0.505 -0.345,0.825v0zM246.21,232.297h-14.1v0c-1,0 -1.855,-0.355 -2.565,-1.065v0v0c-0.71,-0.71 -1.065,-1.565 -1.065,-2.565v0v-10.14v0c0,-1 0.355,-1.855 1.065,-2.565v0v0c0.71,-0.71 1.565,-1.065 2.565,-1.065v0h10.44v0c1.02,0 1.885,0.355 2.595,1.065v0v0c0.71,0.71 1.065,1.565 1.065,2.565v0v6.3h-15.27v3.84v0c0,0.32 0.115,0.595 0.345,0.825v0v0c0.23,0.23 0.505,0.345 0.825,0.345v0h14.1zM230.94,218.527v3.84h12.78v-3.84v0c0,-0.32 -0.115,-0.595 -0.345,-0.825v0v0c-0.23,-0.23 -0.505,-0.345 -0.825,-0.345v0h-10.44v0c-0.32,0 -0.595,0.115 -0.825,0.345v0v0c-0.23,0.23 -0.345,0.505 -0.345,0.825zM251.79,232.297h-2.46v-17.4h14.1v0c1,0 1.855,0.355 2.565,1.065v0v0c0.71,0.71 1.065,1.565 1.065,2.565v0v13.77h-2.46v-13.77v0c0,-0.32 -0.115,-0.595 -0.345,-0.825v0v0c-0.23,-0.23 -0.505,-0.345 -0.825,-0.345v0h-10.44v0c-0.32,0 -0.6,0.115 -0.84,0.345v0v0c-0.24,0.23 -0.36,0.505 -0.36,0.825v0zM283.89,239.167h-10.86v-2.49h10.86v0c0.32,0 0.595,-0.115 0.825,-0.345v0v0c0.23,-0.23 0.345,-0.505 0.345,-0.825v0v-3.21h-11.61v0c-1,0 -1.855,-0.355 -2.565,-1.065v0v0c-0.71,-0.71 -1.065,-1.565 -1.065,-2.565v0v-10.14v0c0,-1 0.355,-1.855 1.065,-2.565v0v0c0.71,-0.71 1.565,-1.065 2.565,-1.065v0h10.44v0c1.02,0 1.88,0.355 2.58,1.065v0v0c0.7,0.71 1.05,1.565 1.05,2.565v0v16.98v0c0,1.02 -0.35,1.885 -1.05,2.595v0v0c-0.7,0.71 -1.56,1.065 -2.58,1.065zM273.45,229.837v0h10.44v0c0.32,0 0.595,-0.115 0.825,-0.345v0v0c0.23,-0.23 0.345,-0.505 0.345,-0.825v0v-10.14v0c0,-0.32 -0.115,-0.595 -0.345,-0.825v0v0c-0.23,-0.23 -0.505,-0.345 -0.825,-0.345v0h-10.44v0c-0.32,0 -0.595,0.115 -0.825,0.345v0v0c-0.23,0.23 -0.345,0.505 -0.345,0.825v0v10.14v0c0,0.32 0.115,0.595 0.345,0.825v0v0c0.23,0.23 0.505,0.345 0.825,0.345zM300.66,232.297h-6.36v0c-1.02,0 -1.88,-0.355 -2.58,-1.065v0v0c-0.7,-0.71 -1.05,-1.565 -1.05,-2.565v0v-19.47h2.46v5.7h7.53v2.46h-7.53v11.31v0c0,0.32 0.115,0.595 0.345,0.825v0v0c0.23,0.23 0.505,0.345 0.825,0.345v0h6.36zM305.61,232.297h-2.46v-23.1h2.46v5.7h11.64v0c0.98,0 1.83,0.355 2.55,1.065v0v0c0.72,0.71 1.08,1.565 1.08,2.565v0v13.77h-2.46v-13.77v0c0,-0.32 -0.115,-0.595 -0.345,-0.825v0v0c-0.23,-0.23 -0.505,-0.345 -0.825,-0.345v0h-10.44v0c-0.32,0 -0.6,0.115 -0.84,0.345v0v0c-0.24,0.23 -0.36,0.505 -0.36,0.825v0zM340.83,232.297h-14.1v0c-1,0 -1.855,-0.355 -2.565,-1.065v0v0c-0.71,-0.71 -1.065,-1.565 -1.065,-2.565v0v-10.14v0c0,-1 0.355,-1.855 1.065,-2.565v0v0c0.71,-0.71 1.565,-1.065 2.565,-1.065v0h10.44v0c1.02,0 1.885,0.355 2.595,1.065v0v0c0.71,0.71 1.065,1.565 1.065,2.565v0v6.3h-15.27v3.84v0c0,0.32 0.115,0.595 0.345,0.825v0v0c0.23,0.23 0.505,0.345 0.825,0.345v0h14.1zM325.56,218.527v3.84h12.78v-3.84v0c0,-0.32 -0.115,-0.595 -0.345,-0.825v0v0c-0.23,-0.23 -0.505,-0.345 -0.825,-0.345v0h-10.44v0c-0.32,0 -0.595,0.115 -0.825,0.345v0v0c-0.23,0.23 -0.345,0.505 -0.345,0.825zM346.41,232.297h-2.46v-17.4h14.1v0c1,0 1.855,0.355 2.565,1.065v0v0c0.71,0.71 1.065,1.565 1.065,2.565v0v13.77h-2.46v-13.77v0c0,-0.32 -0.115,-0.595 -0.345,-0.825v0v0c-0.23,-0.23 -0.505,-0.345 -0.825,-0.345v0h-10.44v0c-0.32,0 -0.6,0.115 -0.84,0.345v0v0c-0.24,0.23 -0.36,0.505 -0.36,0.825v0zM367.23,232.297h-2.46v-17.4h2.46zM367.23,211.657h-2.46v-2.46h2.46zM373.08,232.297h-2.46v-17.4h14.1v0c1,0 1.855,0.355 2.565,1.065v0v0c0.71,0.71 1.065,1.565 1.065,2.565v0v13.77h-2.46v-13.77v0c0,-0.32 -0.115,-0.595 -0.345,-0.825v0v0c-0.23,-0.23 -0.505,-0.345 -0.825,-0.345v0h-10.44v0c-0.32,0 -0.6,0.115 -0.84,0.345v0v0c-0.24,0.23 -0.36,0.505 -0.36,0.825v0zM405.18,239.167h-10.86v-2.49h10.86v0c0.32,0 0.595,-0.115 0.825,-0.345v0v0c0.23,-0.23 0.345,-0.505 0.345,-0.825v0v-3.21h-11.61v0c-1,0 -1.855,-0.355 -2.565,-1.065v0v0c-0.71,-0.71 -1.065,-1.565 -1.065,-2.565v0v-10.14v0c0,-1 0.355,-1.855 1.065,-2.565v0v0c0.71,-0.71 1.565,-1.065 2.565,-1.065v0h10.44v0c1.02,0 1.88,0.355 2.58,1.065v0v0c0.7,0.71 1.05,1.565 1.05,2.565v0v16.98v0c0,1.02 -0.35,1.885 -1.05,2.595v0v0c-0.7,0.71 -1.56,1.065 -2.58,1.065zM394.74,229.837v0h10.44v0c0.32,0 0.595,-0.115 0.825,-0.345v0v0c0.23,-0.23 0.345,-0.505 0.345,-0.825v0v-10.14v0c0,-0.32 -0.115,-0.595 -0.345,-0.825v0v0c-0.23,-0.23 -0.505,-0.345 -0.825,-0.345v0h-10.44v0c-0.32,0 -0.595,0.115 -0.825,0.345v0v0c-0.23,0.23 -0.345,0.505 -0.345,0.825v0v10.14v0c0,0.32 0.115,0.595 0.345,0.825v0v0c0.23,0.23 0.505,0.345 0.825,0.345zM278.985,194.677h-14.4v0c-1,0 -1.85,-0.35 -2.55,-1.05v0v0c-0.7,-0.7 -1.05,-1.55 -1.05,-2.55v0v-0.84h2.43v0.84v0c0,0.32 0.115,0.595 0.345,0.825v0v0c0.23,0.23 0.505,0.345 0.825,0.345v0h14.4v0c0.32,0 0.595,-0.115 0.825,-0.345v0v0c0.23,-0.23 0.345,-0.505 0.345,-0.825v0v-4.83v0c0,-0.32 -0.115,-0.59 -0.345,-0.81v0v0c-0.23,-0.22 -0.505,-0.33 -0.825,-0.33v0h-14.4v0c-1,0 -1.85,-0.355 -2.55,-1.065v0v0c-0.7,-0.71 -1.05,-1.555 -1.05,-2.535v0v-4.83v0c0,-1 0.35,-1.85 1.05,-2.55v0v0c0.7,-0.7 1.55,-1.05 2.55,-1.05v0h14.4v0c1,0 1.85,0.35 2.55,1.05v0v0c0.7,0.7 1.05,1.55 1.05,2.55v0v0.84h-2.43v-0.84v0c0,-0.32 -0.115,-0.595 -0.345,-0.825v0v0c-0.23,-0.23 -0.505,-0.345 -0.825,-0.345v0h-14.4v0c-0.32,0 -0.595,0.115 -0.825,0.345v0v0c-0.23,0.23 -0.345,0.505 -0.345,0.825v0v4.83v0c0,0.32 0.115,0.59 0.345,0.81v0v0c0.23,0.22 0.505,0.33 0.825,0.33v0h14.4v0c1,0 1.85,0.355 2.55,1.065v0v0c0.7,0.71 1.05,1.555 1.05,2.535v0v4.83v0c0,1 -0.35,1.85 -1.05,2.55v0v0c-0.7,0.7 -1.55,1.05 -2.55,1.05zM303.375,194.677h-14.1v0c-1,0 -1.855,-0.355 -2.565,-1.065v0v0c-0.71,-0.71 -1.065,-1.565 -1.065,-2.565v0v-10.14v0c0,-1 0.355,-1.855 1.065,-2.565v0v0c0.71,-0.71 1.565,-1.065 2.565,-1.065v0h10.44v0c1.02,0 1.885,0.355 2.595,1.065v0v0c0.71,0.71 1.065,1.565 1.065,2.565v0v6.3h-15.27v3.84v0c0,0.32 0.115,0.595 0.345,0.825v0v0c0.23,0.23 0.505,0.345 0.825,0.345v0h14.1zM288.105,180.907v3.84h12.78v-3.84v0c0,-0.32 -0.115,-0.595 -0.345,-0.825v0v0c-0.23,-0.23 -0.505,-0.345 -0.825,-0.345v0h-10.44v0c-0.32,0 -0.595,0.115 -0.825,0.345v0v0c-0.23,0.23 -0.345,0.505 -0.345,0.825zM312.405,194.677h-2.94v0c-1,0 -1.855,-0.355 -2.565,-1.065v0v0c-0.71,-0.71 -1.065,-1.565 -1.065,-2.565v0v-19.47h2.46v19.47v0c0,0.32 0.115,0.595 0.345,0.825v0v0c0.23,0.23 0.505,0.345 0.825,0.345v0h2.94zM317.385,194.677h-2.46v-19.47v0c0,-1.02 0.35,-1.88 1.05,-2.58v0v0c0.7,-0.7 1.56,-1.05 2.58,-1.05v0h6.36v2.46h-6.36v0c-0.32,0 -0.595,0.115 -0.825,0.345v0v0c-0.23,0.23 -0.345,0.505 -0.345,0.825v0v2.07h7.53v2.46h-7.53z" fill="#ffffff" stroke="none" stroke-width="1" stroke-linecap="butt" stroke-miterlimit="10"/></g></g></svg>