<svg version="1.1" xmlns="http://www.w3.org/2000/svg" xmlns:xlink="http://www.w3.org/1999/xlink" width="389.966" height="217.162" viewBox="0,0,389.966,217.162"><g transform="translate(-45.017,-288.75)"><g data-paper-data="{&quot;isPaintingLayer&quot;:true}" fill-rule="nonzero" stroke-linecap="butt" stroke-linejoin="miter" stroke-miterlimit="10" stroke-dasharray="" stroke-dashoffset="0" style="mix-blend-mode: normal"><path d="M46.267,504.662v-214.662h387.466v214.662z" fill-opacity="0.8" fill="#000000" stroke="#ffffff" stroke-width="2.5"/><path d="M324.22,475.024h-9.6v0c-0.66667,0 -1.23333,-0.23333 -1.7,-0.7v0v0c-0.46667,-0.46667 -0.7,-1.03333 -0.7,-1.7v0v-0.56h1.62v0.56v0c0,0.21333 0.07667,0.39667 0.23,0.55v0v0c0.15333,0.15333 0.33667,0.23 0.55,0.23v0h9.6v0c0.21333,0 0.39667,-0.07667 0.55,-0.23v0v0c0.15333,-0.15333 0.23,-0.33667 0.23,-0.55v0v-3.22v0c0,-0.21333 -0.07667,-0.39333 -0.23,-0.54v0v0c-0.15333,-0.14667 -0.33667,-0.22 -0.55,-0.22v0h-9.6v0c-0.66667,0 -1.23333,-0.23667 -1.7,-0.71v0v0c-0.46667,-0.47333 -0.7,-1.03667 -0.7,-1.69v0v-3.22v0c0,-0.66667 0.23333,-1.23333 0.7,-1.7v0v0c0.46667,-0.46667 1.03333,-0.7 1.7,-0.7v0h9.6v0c0.66667,0 1.23333,0.23333 1.7,0.7v0v0c0.46667,0.46667 0.7,1.03333 0.7,1.7v0v0.56h-1.62v-0.56v0c0,-0.21333 -0.07667,-0.39667 -0.23,-0.55v0v0c-0.15333,-0.15333 -0.33667,-0.23 -0.55,-0.23v0h-9.6v0c-0.21333,0 -0.39667,0.07667 -0.55,0.23v0v0c-0.15333,0.15333 -0.23,0.33667 -0.23,0.55v0v3.22v0c0,0.21333 0.07667,0.39333 0.23,0.54v0v0c0.15333,0.14667 0.33667,0.22 0.55,0.22v0h9.6v0c0.66667,0 1.23333,0.23667 1.7,0.71v0v0c0.46667,0.47333 0.7,1.03667 0.7,1.69v0v3.22v0c0,0.66667 -0.23333,1.23333 -0.7,1.7v0v0c-0.46667,0.46667 -1.03333,0.7 -1.7,0.7zM330.32,475.024h-1.64v-11.6h1.64zM330.32,461.264h-1.64v-1.64h1.64zM337.22,475.024h-1.96v0c-0.66667,0 -1.23667,-0.23667 -1.71,-0.71v0v0c-0.47333,-0.47333 -0.71,-1.04333 -0.71,-1.71v0v-12.98h1.64v12.98v0c0,0.21333 0.07667,0.39667 0.23,0.55v0v0c0.15333,0.15333 0.33667,0.23 0.55,0.23v0h1.96zM345.38,475.024h-1.9l-6.4,-11.6h1.92l5.44,10l5.44,-10h1.92zM364.7,475.024h-9.4v0c-0.66667,0 -1.23667,-0.23667 -1.71,-0.71v0v0c-0.47333,-0.47333 -0.71,-1.04333 -0.71,-1.71v0v-6.76v0c0,-0.66667 0.23667,-1.23667 0.71,-1.71v0v0c0.47333,-0.47333 1.04333,-0.71 1.71,-0.71v0h6.96v0c0.68,0 1.25667,0.23667 1.73,0.71v0v0c0.47333,0.47333 0.71,1.04333 0.71,1.71v0v4.2h-10.18v2.56v0c0,0.21333 0.07667,0.39667 0.23,0.55v0v0c0.15333,0.15333 0.33667,0.23 0.55,0.23v0h9.4zM354.52,465.844v2.56h8.52v-2.56v0c0,-0.21333 -0.07667,-0.39667 -0.23,-0.55v0v0c-0.15333,-0.15333 -0.33667,-0.23 -0.55,-0.23v0h-6.96v0c-0.21333,0 -0.39667,0.07667 -0.55,0.23v0v0c-0.15333,0.15333 -0.23,0.33667 -0.23,0.55zM368.28,475.024h-1.64v-9.18v0c0,-0.66667 0.23667,-1.23667 0.71,-1.71v0v0c0.47333,-0.47333 1.04333,-0.71 1.71,-0.71v0h6.52v1.64h-6.52v0c-0.21333,0 -0.39667,0.07667 -0.55,0.23v0v0c-0.15333,0.15333 -0.23,0.33667 -0.23,0.55v0zM262.52,475.024h-13.14v-14.4h13.14v1.62h-11.52v4.76h9.26v1.64h-9.26v4.76h11.52zM268.96,475.024h-1.96v0c-0.66667,0 -1.23667,-0.23667 -1.71,-0.71v0v0c-0.47333,-0.47333 -0.71,-1.04333 -0.71,-1.71v0v-12.98h1.64v12.98v0c0,0.21333 0.07667,0.39667 0.23,0.55v0v0c0.15333,0.15333 0.33667,0.23 0.55,0.23v0h1.96zM272.26,475.024h-1.64v-11.6h1.64zM272.26,461.264h-1.64v-1.64h1.64zM274.9,479.884h-4.9v-1.66h4.9v0c0.21333,0 0.39667,-0.07667 0.55,-0.23v0v0c0.15333,-0.15333 0.23,-0.33667 0.23,-0.55v0v-14.02h1.66v14.02v0c0,0.68 -0.23667,1.25667 -0.71,1.73v0v0c-0.47333,0.47333 -1.05,0.71 -1.73,0.71zM277.34,461.264h-1.66v-1.64h1.66zM291.38,475.024h-9.4v0c-0.66667,0 -1.23667,-0.23667 -1.71,-0.71v0v0c-0.47333,-0.47333 -0.71,-1.04333 -0.71,-1.71v0v-4.2h10.16v-2.56v0c0,-0.21333 -0.07667,-0.39667 -0.23,-0.55v0v0c-0.15333,-0.15333 -0.33667,-0.23 -0.55,-0.23v0h-9.38v-1.64h9.38v0c0.68,0 1.25667,0.23667 1.73,0.71v0v0c0.47333,0.47333 0.71,1.04333 0.71,1.71v0zM281.98,473.384v0h7.74v-3.34h-8.52v2.56v0c0,0.21333 0.07667,0.39667 0.23,0.55v0v0c0.15333,0.15333 0.33667,0.23 0.55,0.23zM295.12,475.024h-1.64v-15.4h1.64v3.8h7.76v0c0.65333,0 1.22,0.23667 1.7,0.71v0v0c0.48,0.47333 0.72,1.04333 0.72,1.71v0v9.18h-1.64v-9.18v0c0,-0.21333 -0.07667,-0.39667 -0.23,-0.55v0v0c-0.15333,-0.15333 -0.33667,-0.23 -0.55,-0.23v0h-6.96v0c-0.21333,0 -0.4,0.07667 -0.56,0.23v0v0c-0.16,0.15333 -0.24,0.33667 -0.24,0.55v0zM241.42,469.924h-7.8v-1.64h7.8zM105,475.024h-1.62v-14.38h12v0c0.66667,0 1.23333,0.23667 1.7,0.71v0v0c0.46667,0.47333 0.7,1.03667 0.7,1.69v0v4.22v0c0,0.65333 -0.23333,1.21667 -0.7,1.69v0v0c-0.46667,0.47333 -1.03333,0.71 -1.7,0.71v0h-10.38zM105.78,468.024v0h9.6v0c0.21333,0 0.39667,-0.07333 0.55,-0.22v0v0c0.15333,-0.14667 0.23,-0.32667 0.23,-0.54v0v-4.22v0c0,-0.21333 -0.07667,-0.39667 -0.23,-0.55v0v0c-0.15333,-0.15333 -0.33667,-0.23 -0.55,-0.23v0h-9.6v0c-0.21333,0 -0.39667,0.07667 -0.55,0.23v0v0c-0.15333,0.15333 -0.23,0.33667 -0.23,0.55v0v4.22v0c0,0.21333 0.07667,0.39333 0.23,0.54v0v0c0.15333,0.14667 0.33667,0.22 0.55,0.22zM123.5,475.024h-1.96v0c-0.66667,0 -1.23667,-0.23667 -1.71,-0.71v0v0c-0.47333,-0.47333 -0.71,-1.04333 -0.71,-1.71v0v-12.98h1.64v12.98v0c0,0.21333 0.07667,0.39667 0.23,0.55v0v0c0.15333,0.15333 0.33667,0.23 0.55,0.23v0h1.96zM136.78,475.024h-9.4v0c-0.66667,0 -1.23667,-0.23667 -1.71,-0.71v0v0c-0.47333,-0.47333 -0.71,-1.04333 -0.71,-1.71v0v-4.2h10.16v-2.56v0c0,-0.21333 -0.07667,-0.39667 -0.23,-0.55v0v0c-0.15333,-0.15333 -0.33667,-0.23 -0.55,-0.23v0h-9.38v-1.64h9.38v0c0.68,0 1.25667,0.23667 1.73,0.71v0v0c0.47333,0.47333 0.71,1.04333 0.71,1.71v0zM127.38,473.384v0h7.74v-3.34h-8.52v2.56v0c0,0.21333 0.07667,0.39667 0.23,0.55v0v0c0.15333,0.15333 0.33667,0.23 0.55,0.23zM148.02,479.624h-7.24v-1.66h7.24v0c0.21333,0 0.39667,-0.07667 0.55,-0.23v0v0c0.15333,-0.15333 0.23,-0.33667 0.23,-0.55v0v-2.16h-7.74v0c-0.66667,0 -1.23667,-0.23667 -1.71,-0.71v0v0c-0.47333,-0.47333 -0.71,-1.04333 -0.71,-1.71v0v-9.14h1.64v9.14v0c0,0.21333 0.07667,0.39667 0.23,0.55v0v0c0.15333,0.15333 0.33667,0.23 0.55,0.23v0h6.96v0c0.21333,0 0.39667,-0.07667 0.55,-0.23v0v0c0.15333,-0.15333 0.23,-0.33667 0.23,-0.55v0v-9.14h1.64v13.72v0c0,0.68 -0.23333,1.25667 -0.7,1.73v0v0c-0.46667,0.47333 -1.04,0.71 -1.72,0.71zM159.22,475.024h-4.24v0c-0.68,0 -1.25333,-0.23667 -1.72,-0.71v0v0c-0.46667,-0.47333 -0.7,-1.04333 -0.7,-1.71v0v-12.98h1.64v3.8h5.02v1.64h-5.02v7.54v0c0,0.21333 0.07667,0.39667 0.23,0.55v0v0c0.15333,0.15333 0.33667,0.23 0.55,0.23v0h4.24zM172.54,475.024h-9.4v0c-0.66667,0 -1.23667,-0.23667 -1.71,-0.71v0v0c-0.47333,-0.47333 -0.71,-1.04333 -0.71,-1.71v0v-6.76v0c0,-0.66667 0.23667,-1.23667 0.71,-1.71v0v0c0.47333,-0.47333 1.04333,-0.71 1.71,-0.71v0h6.96v0c0.68,0 1.25667,0.23667 1.73,0.71v0v0c0.47333,0.47333 0.71,1.04333 0.71,1.71v0v4.2h-10.18v2.56v0c0,0.21333 0.07667,0.39667 0.23,0.55v0v0c0.15333,0.15333 0.33667,0.23 0.55,0.23v0h9.4zM162.36,465.844v2.56h8.52v-2.56v0c0,-0.21333 -0.07667,-0.39667 -0.23,-0.55v0v0c-0.15333,-0.15333 -0.33667,-0.23 -0.55,-0.23v0h-6.96v0c-0.21333,0 -0.39667,0.07667 -0.55,0.23v0v0c-0.15333,0.15333 -0.23,0.33667 -0.23,0.55zM183.88,475.024h-6.96v0c-0.66667,0 -1.23667,-0.23667 -1.71,-0.71v0v0c-0.47333,-0.47333 -0.71,-1.04333 -0.71,-1.71v0v-0.16h1.64v0.16v0c0,0.21333 0.07667,0.39667 0.23,0.55v0v0c0.15333,0.15333 0.33667,0.23 0.55,0.23v0h6.96v0c0.21333,0 0.39667,-0.07667 0.55,-0.23v0v0c0.15333,-0.15333 0.23,-0.33667 0.23,-0.55v0v-1.78v0c0,-0.21333 -0.07667,-0.39667 -0.23,-0.55v0v0c-0.15333,-0.15333 -0.33667,-0.23 -0.55,-0.23v0h-6.96v0c-0.66667,0 -1.23667,-0.23667 -1.71,-0.71v0v0c-0.47333,-0.47333 -0.71,-1.04333 -0.71,-1.71v0v-1.78v0c0,-0.66667 0.23667,-1.23667 0.71,-1.71v0v0c0.47333,-0.47333 1.04333,-0.71 1.71,-0.71v0h6.96v0c0.68,0 1.25667,0.23667 1.73,0.71v0v0c0.47333,0.47333 0.71,1.04333 0.71,1.71v0v0.16h-1.66v-0.16v0c0,-0.21333 -0.07667,-0.39667 -0.23,-0.55v0v0c-0.15333,-0.15333 -0.33667,-0.23 -0.55,-0.23v0h-6.96v0c-0.21333,0 -0.39667,0.07667 -0.55,0.23v0v0c-0.15333,0.15333 -0.23,0.33667 -0.23,0.55v0v1.78v0c0,0.21333 0.07667,0.39667 0.23,0.55v0v0c0.15333,0.15333 0.33667,0.23 0.55,0.23v0h6.96v0c0.68,0 1.25667,0.23667 1.73,0.71v0v0c0.47333,0.47333 0.71,1.04333 0.71,1.71v0v1.78v0c0,0.66667 -0.23667,1.23667 -0.71,1.71v0v0c-0.47333,0.47333 -1.05,0.71 -1.73,0.71zM194.98,475.024h-4.24v0c-0.68,0 -1.25333,-0.23667 -1.72,-0.71v0v0c-0.46667,-0.47333 -0.7,-1.04333 -0.7,-1.71v0v-12.98h1.64v3.8h5.02v1.64h-5.02v7.54v0c0,0.21333 0.07667,0.39667 0.23,0.55v0v0c0.15333,0.15333 0.33667,0.23 0.55,0.23v0h4.24zM198.24,475.024h-1.64v-11.6h1.64zM198.24,461.264h-1.64v-1.64h1.64zM202.14,475.024h-1.64v-11.6h9.4v0c0.66667,0 1.23667,0.23667 1.71,0.71v0v0c0.47333,0.47333 0.71,1.04333 0.71,1.71v0v9.18h-1.64v-9.18v0c0,-0.21333 -0.07667,-0.39667 -0.23,-0.55v0v0c-0.15333,-0.15333 -0.33667,-0.23 -0.55,-0.23v0h-6.96v0c-0.21333,0 -0.4,0.07667 -0.56,0.23v0v0c-0.16,0.15333 -0.24,0.33667 -0.24,0.55v0zM223.54,479.604h-7.24v-1.66h7.24v0c0.21333,0 0.39667,-0.07667 0.55,-0.23v0v0c0.15333,-0.15333 0.23,-0.33667 0.23,-0.55v0v-2.14h-7.74v0c-0.66667,0 -1.23667,-0.23667 -1.71,-0.71v0v0c-0.47333,-0.47333 -0.71,-1.04333 -0.71,-1.71v0v-6.76v0c0,-0.66667 0.23667,-1.23667 0.71,-1.71v0v0c0.47333,-0.47333 1.04333,-0.71 1.71,-0.71v0h6.96v0c0.68,0 1.25333,0.23667 1.72,0.71v0v0c0.46667,0.47333 0.7,1.04333 0.7,1.71v0v11.32v0c0,0.68 -0.23333,1.25667 -0.7,1.73v0v0c-0.46667,0.47333 -1.04,0.71 -1.72,0.71zM216.58,473.384v0h6.96v0c0.21333,0 0.39667,-0.07667 0.55,-0.23v0v0c0.15333,-0.15333 0.23,-0.33667 0.23,-0.55v0v-6.76v0c0,-0.21333 -0.07667,-0.39667 -0.23,-0.55v0v0c-0.15333,-0.15333 -0.33667,-0.23 -0.55,-0.23v0h-6.96v0c-0.21333,0 -0.39667,0.07667 -0.55,0.23v0v0c-0.15333,0.15333 -0.23,0.33667 -0.23,0.55v0v6.76v0c0,0.21333 0.07667,0.39667 0.23,0.55v0v0c0.15333,0.15333 0.33667,0.23 0.55,0.23zM325.58,449.944h-1.62v-14.4h2.22l5.98,7.12l5.98,-7.12h2.22v14.4h-1.62v-12.56l-6.58,7.82l-6.58,-7.82zM351.62,454.544h-7.24v-1.66h7.24v0c0.21333,0 0.39667,-0.07667 0.55,-0.23v0v0c0.15333,-0.15333 0.23,-0.33667 0.23,-0.55v0v-2.16h-7.74v0c-0.66667,0 -1.23667,-0.23667 -1.71,-0.71v0v0c-0.47333,-0.47333 -0.71,-1.04333 -0.71,-1.71v0v-9.14h1.64v9.14v0c0,0.21333 0.07667,0.39667 0.23,0.55v0v0c0.15333,0.15333 0.33667,0.23 0.55,0.23v0h6.96v0c0.21333,0 0.39667,-0.07667 0.55,-0.23v0v0c0.15333,-0.15333 0.23,-0.33667 0.23,-0.55v0v-9.14h1.64v13.72v0c0,0.68 -0.23333,1.25667 -0.7,1.73v0v0c-0.46667,0.47333 -1.04,0.71 -1.72,0.71zM367.54,449.944h-9.4v0c-0.66667,0 -1.23667,-0.23667 -1.71,-0.71v0v0c-0.47333,-0.47333 -0.71,-1.04333 -0.71,-1.71v0v-6.76v0c0,-0.66667 0.23667,-1.23667 0.71,-1.71v0v0c0.47333,-0.47333 1.04333,-0.71 1.71,-0.71v0h6.96v0c0.68,0 1.25667,0.23667 1.73,0.71v0v0c0.47333,0.47333 0.71,1.04333 0.71,1.71v0v4.2h-10.18v2.56v0c0,0.21333 0.07667,0.39667 0.23,0.55v0v0c0.15333,0.15333 0.33667,0.23 0.55,0.23v0h9.4zM357.36,440.764v2.56h8.52v-2.56v0c0,-0.21333 -0.07667,-0.39667 -0.23,-0.55v0v0c-0.15333,-0.15333 -0.33667,-0.23 -0.55,-0.23v0h-6.96v0c-0.21333,0 -0.39667,0.07667 -0.55,0.23v0v0c-0.15333,0.15333 -0.23,0.33667 -0.23,0.55zM371.12,449.944h-1.64v-9.18v0c0,-0.66667 0.23667,-1.23667 0.71,-1.71v0v0c0.47333,-0.47333 1.04333,-0.71 1.71,-0.71v0h6.52v1.64h-6.52v0c-0.21333,0 -0.39667,0.07667 -0.55,0.23v0v0c-0.15333,0.15333 -0.23,0.33667 -0.23,0.55v0zM389.02,449.944h-6.96v0c-0.66667,0 -1.23667,-0.23667 -1.71,-0.71v0v0c-0.47333,-0.47333 -0.71,-1.04333 -0.71,-1.71v0v-0.16h1.64v0.16v0c0,0.21333 0.07667,0.39667 0.23,0.55v0v0c0.15333,0.15333 0.33667,0.23 0.55,0.23v0h6.96v0c0.21333,0 0.39667,-0.07667 0.55,-0.23v0v0c0.15333,-0.15333 0.23,-0.33667 0.23,-0.55v0v-1.78v0c0,-0.21333 -0.07667,-0.39667 -0.23,-0.55v0v0c-0.15333,-0.15333 -0.33667,-0.23 -0.55,-0.23v0h-6.96v0c-0.66667,0 -1.23667,-0.23667 -1.71,-0.71v0v0c-0.47333,-0.47333 -0.71,-1.04333 -0.71,-1.71v0v-1.78v0c0,-0.66667 0.23667,-1.23667 0.71,-1.71v0v0c0.47333,-0.47333 1.04333,-0.71 1.71,-0.71v0h6.96v0c0.68,0 1.25667,0.23667 1.73,0.71v0v0c0.47333,0.47333 0.71,1.04333 0.71,1.71v0v0.16h-1.66v-0.16v0c0,-0.21333 -0.07667,-0.39667 -0.23,-0.55v0v0c-0.15333,-0.15333 -0.33667,-0.23 -0.55,-0.23v0h-6.96v0c-0.21333,0 -0.39667,0.07667 -0.55,0.23v0v0c-0.15333,0.15333 -0.23,0.33667 -0.23,0.55v0v1.78v0c0,0.21333 0.07667,0.39667 0.23,0.55v0v0c0.15333,0.15333 0.33667,0.23 0.55,0.23v0h6.96v0c0.68,0 1.25667,0.23667 1.73,0.71v0v0c0.47333,0.47333 0.71,1.04333 0.71,1.71v0v1.78v0c0,0.66667 -0.23667,1.23667 -0.71,1.71v0v0c-0.47333,0.47333 -1.05,0.71 -1.73,0.71zM267.16,449.944h-12v-14.4h12v0c0.66667,0 1.23333,0.23333 1.7,0.7v0v0c0.46667,0.46667 0.7,1.03333 0.7,1.7v0v9.6v0c0,0.66667 -0.23333,1.23333 -0.7,1.7v0v0c-0.46667,0.46667 -1.03333,0.7 -1.7,0.7zM257.56,448.324v0h9.6v0c0.21333,0 0.39667,-0.07667 0.55,-0.23v0v0c0.15333,-0.15333 0.23,-0.33667 0.23,-0.55v0v-9.6v0c0,-0.21333 -0.07667,-0.39667 -0.23,-0.55v0v0c-0.15333,-0.15333 -0.33667,-0.23 -0.55,-0.23v0h-9.6v0c-0.21333,0 -0.39667,0.07667 -0.55,0.23v0v0c-0.15333,0.15333 -0.23,0.33667 -0.23,0.55v0v9.6v0c0,0.21333 0.07667,0.39667 0.23,0.55v0v0c0.15333,0.15333 0.33667,0.23 0.55,0.23zM283.52,449.944h-9.4v0c-0.66667,0 -1.23667,-0.23667 -1.71,-0.71v0v0c-0.47333,-0.47333 -0.71,-1.04333 -0.71,-1.71v0v-6.76v0c0,-0.66667 0.23667,-1.23667 0.71,-1.71v0v0c0.47333,-0.47333 1.04333,-0.71 1.71,-0.71v0h6.96v0c0.68,0 1.25667,0.23667 1.73,0.71v0v0c0.47333,0.47333 0.71,1.04333 0.71,1.71v0v4.2h-10.18v2.56v0c0,0.21333 0.07667,0.39667 0.23,0.55v0v0c0.15333,0.15333 0.33667,0.23 0.55,0.23v0h9.4zM273.34,440.764v2.56h8.52v-2.56v0c0,-0.21333 -0.07667,-0.39667 -0.23,-0.55v0v0c-0.15333,-0.15333 -0.33667,-0.23 -0.55,-0.23v0h-6.96v0c-0.21333,0 -0.39667,0.07667 -0.55,0.23v0v0c-0.15333,0.15333 -0.23,0.33667 -0.23,0.55zM292.84,449.944h-1.9l-6.4,-11.6h1.92l5.44,10l5.44,-10h1.92zM302.6,449.944h-1.64v-11.6h1.64zM302.6,436.184h-1.64v-1.64h1.64zM306.5,449.944h-1.64v-11.6h9.4v0c0.66667,0 1.23667,0.23667 1.71,0.71v0v0c0.47333,0.47333 0.71,1.04333 0.71,1.71v0v9.18h-1.64v-9.18v0c0,-0.21333 -0.07667,-0.39667 -0.23,-0.55v0v0c-0.15333,-0.15333 -0.33667,-0.23 -0.55,-0.23v0h-6.96v0c-0.21333,0 -0.4,0.07667 -0.56,0.23v0v0c-0.16,0.15333 -0.24,0.33667 -0.24,0.55v0zM247.2,444.844h-7.8v-1.64h7.8zM88.34,449.944h-1.62v-14.38h12v0c0.66667,0 1.23333,0.23667 1.7,0.71v0v0c0.46667,0.47333 0.7,1.03667 0.7,1.69v0v4.22v0c0,0.65333 -0.23333,1.21667 -0.7,1.69v0v0c-0.46667,0.47333 -1.03333,0.71 -1.7,0.71v0h-10.38zM89.12,442.944v0h9.6v0c0.21333,0 0.39667,-0.07333 0.55,-0.22v0v0c0.15333,-0.14667 0.23,-0.32667 0.23,-0.54v0v-4.22v0c0,-0.21333 -0.07667,-0.39667 -0.23,-0.55v0v0c-0.15333,-0.15333 -0.33667,-0.23 -0.55,-0.23v0h-9.6v0c-0.21333,0 -0.39667,0.07667 -0.55,0.23v0v0c-0.15333,0.15333 -0.23,0.33667 -0.23,0.55v0v4.22v0c0,0.21333 0.07667,0.39333 0.23,0.54v0v0c0.15333,0.14667 0.33667,0.22 0.55,0.22zM104.1,449.944h-1.64v-9.18v0c0,-0.66667 0.23667,-1.23667 0.71,-1.71v0v0c0.47333,-0.47333 1.04333,-0.71 1.71,-0.71v0h6.52v1.64h-6.52v0c-0.21333,0 -0.39667,0.07667 -0.55,0.23v0v0c-0.15333,0.15333 -0.23,0.33667 -0.23,0.55v0zM121.96,449.944h-6.96v0c-0.66667,0 -1.23667,-0.23667 -1.71,-0.71v0v0c-0.47333,-0.47333 -0.71,-1.04333 -0.71,-1.71v0v-6.76v0c0,-0.66667 0.23667,-1.23667 0.71,-1.71v0v0c0.47333,-0.47333 1.04333,-0.71 1.71,-0.71v0h6.96v0c0.68,0 1.25667,0.23667 1.73,0.71v0v0c0.47333,0.47333 0.71,1.04333 0.71,1.71v0v6.76v0c0,0.66667 -0.23667,1.23667 -0.71,1.71v0v0c-0.47333,0.47333 -1.05,0.71 -1.73,0.71zM115,448.304v0h6.96v0c0.21333,0 0.39667,-0.07667 0.55,-0.23v0v0c0.15333,-0.15333 0.23,-0.33667 0.23,-0.55v0v-6.76v0c0,-0.21333 -0.07667,-0.39667 -0.23,-0.55v0v0c-0.15333,-0.15333 -0.33667,-0.23 -0.55,-0.23v0h-6.96v0c-0.21333,0 -0.39667,0.07667 -0.55,0.23v0v0c-0.15333,0.15333 -0.23,0.33667 -0.23,0.55v0v6.76v0c0,0.21333 0.07667,0.39667 0.23,0.55v0v0c0.15333,0.15333 0.33667,0.23 0.55,0.23zM135.6,454.524h-7.24v-1.66h7.24v0c0.21333,0 0.39667,-0.07667 0.55,-0.23v0v0c0.15333,-0.15333 0.23,-0.33667 0.23,-0.55v0v-2.14h-7.74v0c-0.66667,0 -1.23667,-0.23667 -1.71,-0.71v0v0c-0.47333,-0.47333 -0.71,-1.04333 -0.71,-1.71v0v-6.76v0c0,-0.66667 0.23667,-1.23667 0.71,-1.71v0v0c0.47333,-0.47333 1.04333,-0.71 1.71,-0.71v0h6.96v0c0.68,0 1.25333,0.23667 1.72,0.71v0v0c0.46667,0.47333 0.7,1.04333 0.7,1.71v0v11.32v0c0,0.68 -0.23333,1.25667 -0.7,1.73v0v0c-0.46667,0.47333 -1.04,0.71 -1.72,0.71zM128.64,448.304v0h6.96v0c0.21333,0 0.39667,-0.07667 0.55,-0.23v0v0c0.15333,-0.15333 0.23,-0.33667 0.23,-0.55v0v-6.76v0c0,-0.21333 -0.07667,-0.39667 -0.23,-0.55v0v0c-0.15333,-0.15333 -0.33667,-0.23 -0.55,-0.23v0h-6.96v0c-0.21333,0 -0.39667,0.07667 -0.55,0.23v0v0c-0.15333,0.15333 -0.23,0.33667 -0.23,0.55v0v6.76v0c0,0.21333 0.07667,0.39667 0.23,0.55v0v0c0.15333,0.15333 0.33667,0.23 0.55,0.23zM141.44,449.944h-1.64v-9.18v0c0,-0.66667 0.23667,-1.23667 0.71,-1.71v0v0c0.47333,-0.47333 1.04333,-0.71 1.71,-0.71v0h6.52v1.64h-6.52v0c-0.21333,0 -0.39667,0.07667 -0.55,0.23v0v0c-0.15333,0.15333 -0.23,0.33667 -0.23,0.55v0zM161.86,449.944h-9.4v0c-0.66667,0 -1.23667,-0.23667 -1.71,-0.71v0v0c-0.47333,-0.47333 -0.71,-1.04333 -0.71,-1.71v0v-4.2h10.16v-2.56v0c0,-0.21333 -0.07667,-0.39667 -0.23,-0.55v0v0c-0.15333,-0.15333 -0.33667,-0.23 -0.55,-0.23v0h-9.38v-1.64h9.38v0c0.68,0 1.25667,0.23667 1.73,0.71v0v0c0.47333,0.47333 0.71,1.04333 0.71,1.71v0zM152.46,448.304v0h7.74v-3.34h-8.52v2.56v0c0,0.21333 0.07667,0.39667 0.23,0.55v0v0c0.15333,0.15333 0.33667,0.23 0.55,0.23zM165.22,449.944h-1.66v-11.6h15.32v0c0.68,0 1.25333,0.23667 1.72,0.71v0v0c0.46667,0.47333 0.7,1.04333 0.7,1.71v0v9.18h-1.62v-9.18v0c0,-0.21333 -0.08,-0.39667 -0.24,-0.55v0v0c-0.16,-0.15333 -0.34667,-0.23 -0.56,-0.23v0h-4.82v0c-0.21333,0 -0.39667,0.07667 -0.55,0.23v0v0c-0.15333,0.15333 -0.23,0.33667 -0.23,0.55v0v9.18h-1.66v-9.18v0c0,-0.21333 -0.07667,-0.39667 -0.23,-0.55v0v0c-0.15333,-0.15333 -0.33667,-0.23 -0.55,-0.23v0h-4.84v0c-0.21333,0 -0.39667,0.07667 -0.55,0.23v0v0c-0.15333,0.15333 -0.23,0.33667 -0.23,0.55v0zM184.52,449.944h-1.66v-11.6h15.32v0c0.68,0 1.25333,0.23667 1.72,0.71v0v0c0.46667,0.47333 0.7,1.04333 0.7,1.71v0v9.18h-1.62v-9.18v0c0,-0.21333 -0.08,-0.39667 -0.24,-0.55v0v0c-0.16,-0.15333 -0.34667,-0.23 -0.56,-0.23v0h-4.82v0c-0.21333,0 -0.39667,0.07667 -0.55,0.23v0v0c-0.15333,0.15333 -0.23,0.33667 -0.23,0.55v0v9.18h-1.66v-9.18v0c0,-0.21333 -0.07667,-0.39667 -0.23,-0.55v0v0c-0.15333,-0.15333 -0.33667,-0.23 -0.55,-0.23v0h-4.84v0c-0.21333,0 -0.39667,0.07667 -0.55,0.23v0v0c-0.15333,0.15333 -0.23,0.33667 -0.23,0.55v0zM204.02,449.944h-1.64v-11.6h1.64zM204.02,436.184h-1.64v-1.64h1.64zM207.92,449.944h-1.64v-11.6h9.4v0c0.66667,0 1.23667,0.23667 1.71,0.71v0v0c0.47333,0.47333 0.71,1.04333 0.71,1.71v0v9.18h-1.64v-9.18v0c0,-0.21333 -0.07667,-0.39667 -0.23,-0.55v0v0c-0.15333,-0.15333 -0.33667,-0.23 -0.55,-0.23v0h-6.96v0c-0.21333,0 -0.4,0.07667 -0.56,0.23v0v0c-0.16,0.15333 -0.24,0.33667 -0.24,0.55v0zM229.32,454.524h-7.24v-1.66h7.24v0c0.21333,0 0.39667,-0.07667 0.55,-0.23v0v0c0.15333,-0.15333 0.23,-0.33667 0.23,-0.55v0v-2.14h-7.74v0c-0.66667,0 -1.23667,-0.23667 -1.71,-0.71v0v0c-0.47333,-0.47333 -0.71,-1.04333 -0.71,-1.71v0v-6.76v0c0,-0.66667 0.23667,-1.23667 0.71,-1.71v0v0c0.47333,-0.47333 1.04333,-0.71 1.71,-0.71v0h6.96v0c0.68,0 1.25333,0.23667 1.72,0.71v0v0c0.46667,0.47333 0.7,1.04333 0.7,1.71v0v11.32v0c0,0.68 -0.23333,1.25667 -0.7,1.73v0v0c-0.46667,0.47333 -1.04,0.71 -1.72,0.71zM222.36,448.304v0h6.96v0c0.21333,0 0.39667,-0.07667 0.55,-0.23v0v0c0.15333,-0.15333 0.23,-0.33667 0.23,-0.55v0v-6.76v0c0,-0.21333 -0.07667,-0.39667 -0.23,-0.55v0v0c-0.15333,-0.15333 -0.33667,-0.23 -0.55,-0.23v0h-6.96v0c-0.21333,0 -0.39667,0.07667 -0.55,0.23v0v0c-0.15333,0.15333 -0.23,0.33667 -0.23,0.55v0v6.76v0c0,0.21333 0.07667,0.39667 0.23,0.55v0v0c0.15333,0.15333 0.33667,0.23 0.55,0.23zM300.65,424.864h-9.6v0c-0.66667,0 -1.23333,-0.23333 -1.7,-0.7v0v0c-0.46667,-0.46667 -0.7,-1.03333 -0.7,-1.7v0v-0.56h1.62v0.56v0c0,0.21333 0.07667,0.39667 0.23,0.55v0v0c0.15333,0.15333 0.33667,0.23 0.55,0.23v0h9.6v0c0.21333,0 0.39667,-0.07667 0.55,-0.23v0v0c0.15333,-0.15333 0.23,-0.33667 0.23,-0.55v0v-3.22v0c0,-0.21333 -0.07667,-0.39333 -0.23,-0.54v0v0c-0.15333,-0.14667 -0.33667,-0.22 -0.55,-0.22v0h-9.6v0c-0.66667,0 -1.23333,-0.23667 -1.7,-0.71v0v0c-0.46667,-0.47333 -0.7,-1.03667 -0.7,-1.69v0v-3.22v0c0,-0.66667 0.23333,-1.23333 0.7,-1.7v0v0c0.46667,-0.46667 1.03333,-0.7 1.7,-0.7v0h9.6v0c0.66667,0 1.23333,0.23333 1.7,0.7v0v0c0.46667,0.46667 0.7,1.03333 0.7,1.7v0v0.56h-1.62v-0.56v0c0,-0.21333 -0.07667,-0.39667 -0.23,-0.55v0v0c-0.15333,-0.15333 -0.33667,-0.23 -0.55,-0.23v0h-9.6v0c-0.21333,0 -0.39667,0.07667 -0.55,0.23v0v0c-0.15333,0.15333 -0.23,0.33667 -0.23,0.55v0v3.22v0c0,0.21333 0.07667,0.39333 0.23,0.54v0v0c0.15333,0.14667 0.33667,0.22 0.55,0.22v0h9.6v0c0.66667,0 1.23333,0.23667 1.7,0.71v0v0c0.46667,0.47333 0.7,1.03667 0.7,1.69v0v3.22v0c0,0.66667 -0.23333,1.23333 -0.7,1.7v0v0c-0.46667,0.46667 -1.03333,0.7 -1.7,0.7zM306.75,424.864h-1.64v-14.4h1.64zM313.77,424.864h-1.96v0c-0.66667,0 -1.23667,-0.23667 -1.71,-0.71v0v0c-0.47333,-0.47333 -0.71,-1.04333 -0.71,-1.71v0v-12.98h1.64v12.98v0c0,0.21333 0.07667,0.39667 0.23,0.55v0v0c0.15333,0.15333 0.33667,0.23 0.55,0.23v0h1.96zM321.93,424.864h-1.9l-6.4,-11.6h1.92l5.44,10l5.44,-10h1.92zM341.25,424.864h-9.4v0c-0.66667,0 -1.23667,-0.23667 -1.71,-0.71v0v0c-0.47333,-0.47333 -0.71,-1.04333 -0.71,-1.71v0v-6.76v0c0,-0.66667 0.23667,-1.23667 0.71,-1.71v0v0c0.47333,-0.47333 1.04333,-0.71 1.71,-0.71v0h6.96v0c0.68,0 1.25667,0.23667 1.73,0.71v0v0c0.47333,0.47333 0.71,1.04333 0.71,1.71v0v4.2h-10.18v2.56v0c0,0.21333 0.07667,0.39667 0.23,0.55v0v0c0.15333,0.15333 0.33667,0.23 0.55,0.23v0h9.4zM331.07,415.684v2.56h8.52v-2.56v0c0,-0.21333 -0.07667,-0.39667 -0.23,-0.55v0v0c-0.15333,-0.15333 -0.33667,-0.23 -0.55,-0.23v0h-6.96v0c-0.21333,0 -0.39667,0.07667 -0.55,0.23v0v0c-0.15333,0.15333 -0.23,0.33667 -0.23,0.55zM344.83,424.864h-1.64v-9.18v0c0,-0.66667 0.23667,-1.23667 0.71,-1.71v0v0c0.47333,-0.47333 1.04333,-0.71 1.71,-0.71v0h6.52v1.64h-6.52v0c-0.21333,0 -0.39667,0.07667 -0.55,0.23v0v0c-0.15333,0.15333 -0.23,0.33667 -0.23,0.55v0zM238.95,424.864h-13.14v-14.4h13.14v1.62h-11.52v4.76h9.26v1.64h-9.26v4.76h11.52zM245.39,424.864h-1.96v0c-0.66667,0 -1.23667,-0.23667 -1.71,-0.71v0v0c-0.47333,-0.47333 -0.71,-1.04333 -0.71,-1.71v0v-12.98h1.64v12.98v0c0,0.21333 0.07667,0.39667 0.23,0.55v0v0c0.15333,0.15333 0.33667,0.23 0.55,0.23v0h1.96zM248.69,424.864h-1.64v-11.6h1.64zM248.69,411.104h-1.64v-1.64h1.64zM251.33,429.724h-4.9v-1.66h4.9v0c0.21333,0 0.39667,-0.07667 0.55,-0.23v0v0c0.15333,-0.15333 0.23,-0.33667 0.23,-0.55v0v-14.02h1.66v14.02v0c0,0.68 -0.23667,1.25667 -0.71,1.73v0v0c-0.47333,0.47333 -1.05,0.71 -1.73,0.71zM253.77,411.104h-1.66v-1.64h1.66zM267.81,424.864h-9.4v0c-0.66667,0 -1.23667,-0.23667 -1.71,-0.71v0v0c-0.47333,-0.47333 -0.71,-1.04333 -0.71,-1.71v0v-4.2h10.16v-2.56v0c0,-0.21333 -0.07667,-0.39667 -0.23,-0.55v0v0c-0.15333,-0.15333 -0.33667,-0.23 -0.55,-0.23v0h-9.38v-1.64h9.38v0c0.68,0 1.25667,0.23667 1.73,0.71v0v0c0.47333,0.47333 0.71,1.04333 0.71,1.71v0zM258.41,423.224v0h7.74v-3.34h-8.52v2.56v0c0,0.21333 0.07667,0.39667 0.23,0.55v0v0c0.15333,0.15333 0.33667,0.23 0.55,0.23zM271.55,424.864h-1.64v-15.4h1.64v3.8h7.76v0c0.65333,0 1.22,0.23667 1.7,0.71v0v0c0.48,0.47333 0.72,1.04333 0.72,1.71v0v9.18h-1.64v-9.18v0c0,-0.21333 -0.07667,-0.39667 -0.23,-0.55v0v0c-0.15333,-0.15333 -0.33667,-0.23 -0.55,-0.23v0h-6.96v0c-0.21333,0 -0.4,0.07667 -0.56,0.23v0v0c-0.16,0.15333 -0.24,0.33667 -0.24,0.55v0zM217.85,419.764h-7.8v-1.64h7.8zM133.05,424.864h-1.4l-5.24,-14.4h1.72l4.22,11.56l4.2,-11.56h1.96l4.22,11.56l4.18,-11.56h1.76l-5.24,14.4h-1.42l-4.48,-12.3zM151.97,424.864h-1.64v-9.18v0c0,-0.66667 0.23667,-1.23667 0.71,-1.71v0v0c0.47333,-0.47333 1.04333,-0.71 1.71,-0.71v0h6.52v1.64h-6.52v0c-0.21333,0 -0.39667,0.07667 -0.55,0.23v0v0c-0.15333,0.15333 -0.23,0.33667 -0.23,0.55v0zM162.21,424.864h-1.64v-11.6h1.64zM162.21,411.104h-1.64v-1.64h1.64zM171.41,424.864h-4.24v0c-0.68,0 -1.25333,-0.23667 -1.72,-0.71v0v0c-0.46667,-0.47333 -0.7,-1.04333 -0.7,-1.71v0v-12.98h1.64v3.8h5.02v1.64h-5.02v7.54v0c0,0.21333 0.07667,0.39667 0.23,0.55v0v0c0.15333,0.15333 0.33667,0.23 0.55,0.23v0h4.24zM174.67,424.864h-1.64v-11.6h1.64zM174.67,411.104h-1.64v-1.64h1.64zM178.57,424.864h-1.64v-11.6h9.4v0c0.66667,0 1.23667,0.23667 1.71,0.71v0v0c0.47333,0.47333 0.71,1.04333 0.71,1.71v0v9.18h-1.64v-9.18v0c0,-0.21333 -0.07667,-0.39667 -0.23,-0.55v0v0c-0.15333,-0.15333 -0.33667,-0.23 -0.55,-0.23v0h-6.96v0c-0.21333,0 -0.4,0.07667 -0.56,0.23v0v0c-0.16,0.15333 -0.24,0.33667 -0.24,0.55v0zM199.97,429.444h-7.24v-1.66h7.24v0c0.21333,0 0.39667,-0.07667 0.55,-0.23v0v0c0.15333,-0.15333 0.23,-0.33667 0.23,-0.55v0v-2.14h-7.74v0c-0.66667,0 -1.23667,-0.23667 -1.71,-0.71v0v0c-0.47333,-0.47333 -0.71,-1.04333 -0.71,-1.71v0v-6.76v0c0,-0.66667 0.23667,-1.23667 0.71,-1.71v0v0c0.47333,-0.47333 1.04333,-0.71 1.71,-0.71v0h6.96v0c0.68,0 1.25333,0.23667 1.72,0.71v0v0c0.46667,0.47333 0.7,1.04333 0.7,1.71v0v11.32v0c0,0.68 -0.23333,1.25667 -0.7,1.73v0v0c-0.46667,0.47333 -1.04,0.71 -1.72,0.71zM193.01,423.224v0h6.96v0c0.21333,0 0.39667,-0.07667 0.55,-0.23v0v0c0.15333,-0.15333 0.23,-0.33667 0.23,-0.55v0v-6.76v0c0,-0.21333 -0.07667,-0.39667 -0.23,-0.55v0v0c-0.15333,-0.15333 -0.33667,-0.23 -0.55,-0.23v0h-6.96v0c-0.21333,0 -0.39667,0.07667 -0.55,0.23v0v0c-0.15333,0.15333 -0.23,0.33667 -0.23,0.55v0v6.76v0c0,0.21333 0.07667,0.39667 0.23,0.55v0v0c0.15333,0.15333 0.33667,0.23 0.55,0.23zM316.21,399.784h-9.4v0c-0.66667,0 -1.23667,-0.23667 -1.71,-0.71v0v0c-0.47333,-0.47333 -0.71,-1.04333 -0.71,-1.71v0v-4.2h10.16v-2.56v0c0,-0.21333 -0.07667,-0.39667 -0.23,-0.55v0v0c-0.15333,-0.15333 -0.33667,-0.23 -0.55,-0.23v0h-9.38v-1.64h9.38v0c0.68,0 1.25667,0.23667 1.73,0.71v0v0c0.47333,0.47333 0.71,1.04333 0.71,1.71v0zM306.81,398.144v0h7.74v-3.34h-8.52v2.56v0c0,0.21333 0.07667,0.39667 0.23,0.55v0v0c0.15333,0.15333 0.33667,0.23 0.55,0.23zM319.91,399.784h-1.64v-11.6h1.64zM319.91,386.024h-1.64v-1.64h1.64zM254.19,399.784h-9.6v0c-0.66667,0 -1.23333,-0.23333 -1.7,-0.7v0v0c-0.46667,-0.46667 -0.7,-1.03333 -0.7,-1.7v0v-0.56h1.62v0.56v0c0,0.21333 0.07667,0.39667 0.23,0.55v0v0c0.15333,0.15333 0.33667,0.23 0.55,0.23v0h9.6v0c0.21333,0 0.39667,-0.07667 0.55,-0.23v0v0c0.15333,-0.15333 0.23,-0.33667 0.23,-0.55v0v-3.22v0c0,-0.21333 -0.07667,-0.39333 -0.23,-0.54v0v0c-0.15333,-0.14667 -0.33667,-0.22 -0.55,-0.22v0h-9.6v0c-0.66667,0 -1.23333,-0.23667 -1.7,-0.71v0v0c-0.46667,-0.47333 -0.7,-1.03667 -0.7,-1.69v0v-3.22v0c0,-0.66667 0.23333,-1.23333 0.7,-1.7v0v0c0.46667,-0.46667 1.03333,-0.7 1.7,-0.7v0h9.6v0c0.66667,0 1.23333,0.23333 1.7,0.7v0v0c0.46667,0.46667 0.7,1.03333 0.7,1.7v0v0.56h-1.62v-0.56v0c0,-0.21333 -0.07667,-0.39667 -0.23,-0.55v0v0c-0.15333,-0.15333 -0.33667,-0.23 -0.55,-0.23v0h-9.6v0c-0.21333,0 -0.39667,0.07667 -0.55,0.23v0v0c-0.15333,0.15333 -0.23,0.33667 -0.23,0.55v0v3.22v0c0,0.21333 0.07667,0.39333 0.23,0.54v0v0c0.15333,0.14667 0.33667,0.22 0.55,0.22v0h9.6v0c0.66667,0 1.23333,0.23667 1.7,0.71v0v0c0.46667,0.47333 0.7,1.03667 0.7,1.69v0v3.22v0c0,0.66667 -0.23333,1.23333 -0.7,1.7v0v0c-0.46667,0.46667 -1.03333,0.7 -1.7,0.7zM268.05,399.784h-6.96v0c-0.66667,0 -1.23667,-0.23667 -1.71,-0.71v0v0c-0.47333,-0.47333 -0.71,-1.04333 -0.71,-1.71v0v-9.18h1.64v9.18v0c0,0.21333 0.07667,0.39667 0.23,0.55v0v0c0.15333,0.15333 0.33667,0.23 0.55,0.23v0h6.96v0c0.21333,0 0.4,-0.07667 0.56,-0.23v0v0c0.16,-0.15333 0.24,-0.33667 0.24,-0.55v0v-9.18h1.64v9.18v0c0,0.66667 -0.23667,1.23667 -0.71,1.71v0v0c-0.47333,0.47333 -1.05,0.71 -1.73,0.71zM274.33,399.784h-1.64v-11.6h9.4v0c0.66667,0 1.23667,0.23667 1.71,0.71v0v0c0.47333,0.47333 0.71,1.04333 0.71,1.71v0v9.18h-1.64v-9.18v0c0,-0.21333 -0.07667,-0.39667 -0.23,-0.55v0v0c-0.15333,-0.15333 -0.33667,-0.23 -0.55,-0.23v0h-6.96v0c-0.21333,0 -0.4,0.07667 -0.56,0.23v0v0c-0.16,0.15333 -0.24,0.33667 -0.24,0.55v0zM295.63,399.784h-6.96v0c-0.66667,0 -1.23667,-0.23667 -1.71,-0.71v0v0c-0.47333,-0.47333 -0.71,-1.04333 -0.71,-1.71v0v-6.76v0c0,-0.66667 0.23667,-1.23667 0.71,-1.71v0v0c0.47333,-0.47333 1.04333,-0.71 1.71,-0.71v0h6.96v0c0.68,0 1.25667,0.23667 1.73,0.71v0v0c0.47333,0.47333 0.71,1.04333 0.71,1.71v0v6.76v0c0,0.66667 -0.23667,1.23667 -0.71,1.71v0v0c-0.47333,0.47333 -1.05,0.71 -1.73,0.71zM288.67,398.144v0h6.96v0c0.21333,0 0.39667,-0.07667 0.55,-0.23v0v0c0.15333,-0.15333 0.23,-0.33667 0.23,-0.55v0v-6.76v0c0,-0.21333 -0.07667,-0.39667 -0.23,-0.55v0v0c-0.15333,-0.15333 -0.33667,-0.23 -0.55,-0.23v0h-6.96v0c-0.21333,0 -0.39667,0.07667 -0.55,0.23v0v0c-0.15333,0.15333 -0.23,0.33667 -0.23,0.55v0v6.76v0c0,0.21333 0.07667,0.39667 0.23,0.55v0v0c0.15333,0.15333 0.33667,0.23 0.55,0.23zM301.79,399.784h-1.64v-1.64h1.64zM234.37,394.684h-7.8v-1.64h7.8zM159.35,399.784h-1.62v-14.4h2.22l5.98,7.12l5.98,-7.12h2.22v14.4h-1.62v-12.56l-6.58,7.82l-6.58,-7.82zM185.61,399.784h-6.96v0c-0.66667,0 -1.23667,-0.23667 -1.71,-0.71v0v0c-0.47333,-0.47333 -0.71,-1.04333 -0.71,-1.71v0v-9.18h1.64v9.18v0c0,0.21333 0.07667,0.39667 0.23,0.55v0v0c0.15333,0.15333 0.33667,0.23 0.55,0.23v0h6.96v0c0.21333,0 0.4,-0.07667 0.56,-0.23v0v0c0.16,-0.15333 0.24,-0.33667 0.24,-0.55v0v-9.18h1.64v9.18v0c0,0.66667 -0.23667,1.23667 -0.71,1.71v0v0c-0.47333,0.47333 -1.05,0.71 -1.73,0.71zM199.11,399.784h-6.96v0c-0.66667,0 -1.23667,-0.23667 -1.71,-0.71v0v0c-0.47333,-0.47333 -0.71,-1.04333 -0.71,-1.71v0v-0.16h1.64v0.16v0c0,0.21333 0.07667,0.39667 0.23,0.55v0v0c0.15333,0.15333 0.33667,0.23 0.55,0.23v0h6.96v0c0.21333,0 0.39667,-0.07667 0.55,-0.23v0v0c0.15333,-0.15333 0.23,-0.33667 0.23,-0.55v0v-1.78v0c0,-0.21333 -0.07667,-0.39667 -0.23,-0.55v0v0c-0.15333,-0.15333 -0.33667,-0.23 -0.55,-0.23v0h-6.96v0c-0.66667,0 -1.23667,-0.23667 -1.71,-0.71v0v0c-0.47333,-0.47333 -0.71,-1.04333 -0.71,-1.71v0v-1.78v0c0,-0.66667 0.23667,-1.23667 0.71,-1.71v0v0c0.47333,-0.47333 1.04333,-0.71 1.71,-0.71v0h6.96v0c0.68,0 1.25667,0.23667 1.73,0.71v0v0c0.47333,0.47333 0.71,1.04333 0.71,1.71v0v0.16h-1.66v-0.16v0c0,-0.21333 -0.07667,-0.39667 -0.23,-0.55v0v0c-0.15333,-0.15333 -0.33667,-0.23 -0.55,-0.23v0h-6.96v0c-0.21333,0 -0.39667,0.07667 -0.55,0.23v0v0c-0.15333,0.15333 -0.23,0.33667 -0.23,0.55v0v1.78v0c0,0.21333 0.07667,0.39667 0.23,0.55v0v0c0.15333,0.15333 0.33667,0.23 0.55,0.23v0h6.96v0c0.68,0 1.25667,0.23667 1.73,0.71v0v0c0.47333,0.47333 0.71,1.04333 0.71,1.71v0v1.78v0c0,0.66667 -0.23667,1.23667 -0.71,1.71v0v0c-0.47333,0.47333 -1.05,0.71 -1.73,0.71zM205.17,399.784h-1.64v-11.6h1.64zM205.17,386.024h-1.64v-1.64h1.64zM219.19,399.784h-9.4v0c-0.66667,0 -1.23667,-0.23667 -1.71,-0.71v0v0c-0.47333,-0.47333 -0.71,-1.04333 -0.71,-1.71v0v-6.76v0c0,-0.66667 0.23667,-1.23667 0.71,-1.71v0v0c0.47333,-0.47333 1.04333,-0.71 1.71,-0.71v0h9.36v1.64h-9.36v0c-0.21333,0 -0.39667,0.07667 -0.55,0.23v0v0c-0.15333,0.15333 -0.23,0.33667 -0.23,0.55v0v6.76v0c0,0.21333 0.07667,0.39667 0.23,0.55v0v0c0.15333,0.15333 0.33667,0.23 0.55,0.23v0h9.4zM269.57,374.704h-1.62v-14.4h2.22l5.98,7.12l5.98,-7.12h2.22v14.4h-1.62v-12.56l-6.58,7.82l-6.58,-7.82zM295.61,379.304h-7.24v-1.66h7.24v0c0.21333,0 0.39667,-0.07667 0.55,-0.23v0v0c0.15333,-0.15333 0.23,-0.33667 0.23,-0.55v0v-2.16h-7.74v0c-0.66667,0 -1.23667,-0.23667 -1.71,-0.71v0v0c-0.47333,-0.47333 -0.71,-1.04333 -0.71,-1.71v0v-9.14h1.64v9.14v0c0,0.21333 0.07667,0.39667 0.23,0.55v0v0c0.15333,0.15333 0.33667,0.23 0.55,0.23v0h6.96v0c0.21333,0 0.39667,-0.07667 0.55,-0.23v0v0c0.15333,-0.15333 0.23,-0.33667 0.23,-0.55v0v-9.14h1.64v13.72v0c0,0.68 -0.23333,1.25667 -0.7,1.73v0v0c-0.46667,0.47333 -1.04,0.71 -1.72,0.71zM311.53,374.704h-9.4v0c-0.66667,0 -1.23667,-0.23667 -1.71,-0.71v0v0c-0.47333,-0.47333 -0.71,-1.04333 -0.71,-1.71v0v-6.76v0c0,-0.66667 0.23667,-1.23667 0.71,-1.71v0v0c0.47333,-0.47333 1.04333,-0.71 1.71,-0.71v0h6.96v0c0.68,0 1.25667,0.23667 1.73,0.71v0v0c0.47333,0.47333 0.71,1.04333 0.71,1.71v0v4.2h-10.18v2.56v0c0,0.21333 0.07667,0.39667 0.23,0.55v0v0c0.15333,0.15333 0.33667,0.23 0.55,0.23v0h9.4zM301.35,365.524v2.56h8.52v-2.56v0c0,-0.21333 -0.07667,-0.39667 -0.23,-0.55v0v0c-0.15333,-0.15333 -0.33667,-0.23 -0.55,-0.23v0h-6.96v0c-0.21333,0 -0.39667,0.07667 -0.55,0.23v0v0c-0.15333,0.15333 -0.23,0.33667 -0.23,0.55zM315.11,374.704h-1.64v-9.18v0c0,-0.66667 0.23667,-1.23667 0.71,-1.71v0v0c0.47333,-0.47333 1.04333,-0.71 1.71,-0.71v0h6.52v1.64h-6.52v0c-0.21333,0 -0.39667,0.07667 -0.55,0.23v0v0c-0.15333,0.15333 -0.23,0.33667 -0.23,0.55v0zM333.01,374.704h-6.96v0c-0.66667,0 -1.23667,-0.23667 -1.71,-0.71v0v0c-0.47333,-0.47333 -0.71,-1.04333 -0.71,-1.71v0v-0.16h1.64v0.16v0c0,0.21333 0.07667,0.39667 0.23,0.55v0v0c0.15333,0.15333 0.33667,0.23 0.55,0.23v0h6.96v0c0.21333,0 0.39667,-0.07667 0.55,-0.23v0v0c0.15333,-0.15333 0.23,-0.33667 0.23,-0.55v0v-1.78v0c0,-0.21333 -0.07667,-0.39667 -0.23,-0.55v0v0c-0.15333,-0.15333 -0.33667,-0.23 -0.55,-0.23v0h-6.96v0c-0.66667,0 -1.23667,-0.23667 -1.71,-0.71v0v0c-0.47333,-0.47333 -0.71,-1.04333 -0.71,-1.71v0v-1.78v0c0,-0.66667 0.23667,-1.23667 0.71,-1.71v0v0c0.47333,-0.47333 1.04333,-0.71 1.71,-0.71v0h6.96v0c0.68,0 1.25667,0.23667 1.73,0.71v0v0c0.47333,0.47333 0.71,1.04333 0.71,1.71v0v0.16h-1.66v-0.16v0c0,-0.21333 -0.07667,-0.39667 -0.23,-0.55v0v0c-0.15333,-0.15333 -0.33667,-0.23 -0.55,-0.23v0h-6.96v0c-0.21333,0 -0.39667,0.07667 -0.55,0.23v0v0c-0.15333,0.15333 -0.23,0.33667 -0.23,0.55v0v1.78v0c0,0.21333 0.07667,0.39667 0.23,0.55v0v0c0.15333,0.15333 0.33667,0.23 0.55,0.23v0h6.96v0c0.68,0 1.25667,0.23667 1.73,0.71v0v0c0.47333,0.47333 0.71,1.04333 0.71,1.71v0v1.78v0c0,0.66667 -0.23667,1.23667 -0.71,1.71v0v0c-0.47333,0.47333 -1.05,0.71 -1.73,0.71zM211.15,374.704h-12v-14.4h12v0c0.66667,0 1.23333,0.23333 1.7,0.7v0v0c0.46667,0.46667 0.7,1.03333 0.7,1.7v0v9.6v0c0,0.66667 -0.23333,1.23333 -0.7,1.7v0v0c-0.46667,0.46667 -1.03333,0.7 -1.7,0.7zM201.55,373.084v0h9.6v0c0.21333,0 0.39667,-0.07667 0.55,-0.23v0v0c0.15333,-0.15333 0.23,-0.33667 0.23,-0.55v0v-9.6v0c0,-0.21333 -0.07667,-0.39667 -0.23,-0.55v0v0c-0.15333,-0.15333 -0.33667,-0.23 -0.55,-0.23v0h-9.6v0c-0.21333,0 -0.39667,0.07667 -0.55,0.23v0v0c-0.15333,0.15333 -0.23,0.33667 -0.23,0.55v0v9.6v0c0,0.21333 0.07667,0.39667 0.23,0.55v0v0c0.15333,0.15333 0.33667,0.23 0.55,0.23zM227.51,374.704h-9.4v0c-0.66667,0 -1.23667,-0.23667 -1.71,-0.71v0v0c-0.47333,-0.47333 -0.71,-1.04333 -0.71,-1.71v0v-6.76v0c0,-0.66667 0.23667,-1.23667 0.71,-1.71v0v0c0.47333,-0.47333 1.04333,-0.71 1.71,-0.71v0h6.96v0c0.68,0 1.25667,0.23667 1.73,0.71v0v0c0.47333,0.47333 0.71,1.04333 0.71,1.71v0v4.2h-10.18v2.56v0c0,0.21333 0.07667,0.39667 0.23,0.55v0v0c0.15333,0.15333 0.33667,0.23 0.55,0.23v0h9.4zM217.33,365.524v2.56h8.52v-2.56v0c0,-0.21333 -0.07667,-0.39667 -0.23,-0.55v0v0c-0.15333,-0.15333 -0.33667,-0.23 -0.55,-0.23v0h-6.96v0c-0.21333,0 -0.39667,0.07667 -0.55,0.23v0v0c-0.15333,0.15333 -0.23,0.33667 -0.23,0.55zM236.83,374.704h-1.9l-6.4,-11.6h1.92l5.44,10l5.44,-10h1.92zM246.59,374.704h-1.64v-11.6h1.64zM246.59,360.944h-1.64v-1.64h1.64zM250.49,374.704h-1.64v-11.6h9.4v0c0.66667,0 1.23667,0.23667 1.71,0.71v0v0c0.47333,0.47333 0.71,1.04333 0.71,1.71v0v9.18h-1.64v-9.18v0c0,-0.21333 -0.07667,-0.39667 -0.23,-0.55v0v0c-0.15333,-0.15333 -0.33667,-0.23 -0.55,-0.23v0h-6.96v0c-0.21333,0 -0.4,0.07667 -0.56,0.23v0v0c-0.16,0.15333 -0.24,0.33667 -0.24,0.55v0zM191.19,369.604h-7.8v-1.64h7.8zM144.39,374.704h-1.62v-12v0c0,-0.66667 0.23333,-1.23333 0.7,-1.7v0v0c0.46667,-0.46667 1.03333,-0.7 1.7,-0.7v0h9.6v0c0.66667,0 1.23333,0.23333 1.7,0.7v0v0c0.46667,0.46667 0.7,1.03333 0.7,1.7v0v12h-1.62v-5.26h-11.16zM144.39,362.704v5.12h11.16v-5.12v0c0,-0.21333 -0.07667,-0.39667 -0.23,-0.55v0v0c-0.15333,-0.15333 -0.33667,-0.23 -0.55,-0.23v0h-9.6v0c-0.21333,0 -0.39667,0.07667 -0.55,0.23v0v0c-0.15333,0.15333 -0.23,0.33667 -0.23,0.55zM161.01,374.704h-1.64v-9.18v0c0,-0.66667 0.23667,-1.23667 0.71,-1.71v0v0c0.47333,-0.47333 1.04333,-0.71 1.71,-0.71v0h6.52v1.64h-6.52v0c-0.21333,0 -0.39667,0.07667 -0.55,0.23v0v0c-0.15333,0.15333 -0.23,0.33667 -0.23,0.55v0zM176.29,374.704h-4.24v0c-0.68,0 -1.25333,-0.23667 -1.72,-0.71v0v0c-0.46667,-0.47333 -0.7,-1.04333 -0.7,-1.71v0v-12.98h1.64v3.8h5.02v1.64h-5.02v7.54v0c0,0.21333 0.07667,0.39667 0.23,0.55v0v0c0.15333,0.15333 0.33667,0.23 0.55,0.23v0h4.24zM190.02,344.764h-23.92v0c-1.33333,0 -2.46667,-0.46667 -3.4,-1.4v0v0c-0.93333,-0.93333 -1.4,-2.06667 -1.4,-3.4v0v-19.2v0c0,-1.33333 0.46667,-2.46667 1.4,-3.4v0v0c0.93333,-0.93333 2.06667,-1.4 3.4,-1.4v0h23.92v3.24h-23.92v0c-0.42667,0 -0.79333,0.15333 -1.1,0.46v0v0c-0.30667,0.30667 -0.46,0.67333 -0.46,1.1v0v19.2v0c0,0.42667 0.15333,0.79333 0.46,1.1v0v0c0.30667,0.30667 0.67333,0.46 1.1,0.46v0h23.92zM197.3,344.764h-3.28v-18.36v0c0,-1.33333 0.47333,-2.47333 1.42,-3.42v0v0c0.94667,-0.94667 2.08667,-1.42 3.42,-1.42v0h13.04v3.28h-13.04v0c-0.42667,0 -0.79333,0.15333 -1.1,0.46v0v0c-0.30667,0.30667 -0.46,0.67333 -0.46,1.1v0zM238.1,344.764h-18.8v0c-1.33333,0 -2.47333,-0.47333 -3.42,-1.42v0v0c-0.94667,-0.94667 -1.42,-2.08667 -1.42,-3.42v0v-13.52v0c0,-1.33333 0.47333,-2.47333 1.42,-3.42v0v0c0.94667,-0.94667 2.08667,-1.42 3.42,-1.42v0h13.92v0c1.36,0 2.51333,0.47333 3.46,1.42v0v0c0.94667,0.94667 1.42,2.08667 1.42,3.42v0v8.4h-20.36v5.12v0c0,0.42667 0.15333,0.79333 0.46,1.1v0v0c0.30667,0.30667 0.67333,0.46 1.1,0.46v0h18.8zM217.74,326.404v5.12h17.04v-5.12v0c0,-0.42667 -0.15333,-0.79333 -0.46,-1.1v0v0c-0.30667,-0.30667 -0.67333,-0.46 -1.1,-0.46v0h-13.92v0c-0.42667,0 -0.79333,0.15333 -1.1,0.46v0v0c-0.30667,0.30667 -0.46,0.67333 -0.46,1.1zM264.66,344.764h-18.76v0c-1.36,0 -2.51333,-0.47333 -3.46,-1.42v0v0c-0.94667,-0.94667 -1.42,-2.08667 -1.42,-3.42v0v-13.52v0c0,-1.33333 0.47333,-2.47333 1.42,-3.42v0v0c0.94667,-0.94667 2.1,-1.42 3.46,-1.42v0h15.48v-7.6h3.28zM245.9,341.484v0h13.92v0c0.42667,0 0.79333,-0.15333 1.1,-0.46v0v0c0.30667,-0.30667 0.46,-0.67333 0.46,-1.1v0v-13.52v0c0,-0.42667 -0.15333,-0.79333 -0.46,-1.1v0v0c-0.30667,-0.30667 -0.67333,-0.46 -1.1,-0.46v0h-13.92v0c-0.42667,0 -0.79333,0.15333 -1.1,0.46v0v0c-0.30667,0.30667 -0.46,0.67333 -0.46,1.1v0v13.52v0c0,0.42667 0.15333,0.79333 0.46,1.1v0v0c0.30667,0.30667 0.67333,0.46 1.1,0.46zM272.14,344.764h-3.28v-23.2h3.28zM272.14,317.244h-3.28v-3.28h3.28zM290.54,344.764h-8.48v0c-1.36,0 -2.50667,-0.47333 -3.44,-1.42v0v0c-0.93333,-0.94667 -1.4,-2.08667 -1.4,-3.42v0v-25.96h3.28v7.6h10.04v3.28h-10.04v15.08v0c0,0.42667 0.15333,0.79333 0.46,1.1v0v0c0.30667,0.30667 0.67333,0.46 1.1,0.46v0h8.48zM312.18,344.764h-13.92v0c-1.33333,0 -2.47333,-0.47333 -3.42,-1.42v0v0c-0.94667,-0.94667 -1.42,-2.08667 -1.42,-3.42v0v-0.32h3.28v0.32v0c0,0.42667 0.15333,0.79333 0.46,1.1v0v0c0.30667,0.30667 0.67333,0.46 1.1,0.46v0h13.92v0c0.42667,0 0.79333,-0.15333 1.1,-0.46v0v0c0.30667,-0.30667 0.46,-0.67333 0.46,-1.1v0v-3.56v0c0,-0.42667 -0.15333,-0.79333 -0.46,-1.1v0v0c-0.30667,-0.30667 -0.67333,-0.46 -1.1,-0.46v0h-13.92v0c-1.33333,0 -2.47333,-0.47333 -3.42,-1.42v0v0c-0.94667,-0.94667 -1.42,-2.08667 -1.42,-3.42v0v-3.56v0c0,-1.33333 0.47333,-2.47333 1.42,-3.42v0v0c0.94667,-0.94667 2.08667,-1.42 3.42,-1.42v0h13.92v0c1.36,0 2.51333,0.47333 3.46,1.42v0v0c0.94667,0.94667 1.42,2.08667 1.42,3.42v0v0.32h-3.32v-0.32v0c0,-0.42667 -0.15333,-0.79333 -0.46,-1.1v0v0c-0.30667,-0.30667 -0.67333,-0.46 -1.1,-0.46v0h-13.92v0c-0.42667,0 -0.79333,0.15333 -1.1,0.46v0v0c-0.30667,0.30667 -0.46,0.67333 -0.46,1.1v0v3.56v0c0,0.42667 0.15333,0.79333 0.46,1.1v0v0c0.30667,0.30667 0.67333,0.46 1.1,0.46v0h13.92v0c1.36,0 2.51333,0.47333 3.46,1.42v0v0c0.94667,0.94667 1.42,2.08667 1.42,3.42v0v3.56v0c0,1.33333 -0.47333,2.47333 -1.42,3.42v0v0c-0.94667,0.94667 -2.1,1.42 -3.46,1.42z" fill="#ffffff" stroke="none" stroke-width="1"/></g></g></svg>