<svg version="1.1" xmlns="http://www.w3.org/2000/svg" xmlns:xlink="http://www.w3.org/1999/xlink" width="720" height="870" viewBox="0,0,720,870"><defs><clipPath id="clip-1"><rect x="-240" y="-290" transform="scale(0.5,0.5)" width="1440" height="1740" fill="none" fill-rule="nonzero" stroke="none" stroke-width="0.5"/></clipPath></defs><g transform="translate(120,145)"><g clip-path="url(#clip-1)" data-paper-data="{&quot;isPaintingLayer&quot;:true}" stroke-linecap="butt" stroke-linejoin="miter" stroke-miterlimit="10" stroke-dasharray="" stroke-dashoffset="0" style="mix-blend-mode: normal"><path d="M46.267,413.99499v-123h387.466v123z" fill-opacity="0.8" fill="#000000" fill-rule="nonzero" stroke="#ffffff" stroke-width="2.5"/><path d="M354.685,385.80899h-14.1v0c-1,0 -1.855,-0.355 -2.565,-1.065v0v0c-0.71,-0.71 -1.065,-1.565 -1.065,-2.565v0v-10.14v0c0,-1 0.355,-1.855 1.065,-2.565v0v0c0.71,-0.71 1.565,-1.065 2.565,-1.065v0h14.04v2.46h-14.04v0c-0.32,0 -0.595,0.115 -0.825,0.345v0v0c-0.23,0.23 -0.345,0.505 -0.345,0.825v0v10.14v0c0,0.32 0.115,0.595 0.345,0.825v0v0c0.23,0.23 0.505,0.345 0.825,0.345v0h14.1zM371.875,385.80899h-10.44v0c-1,0 -1.855,-0.355 -2.565,-1.065v0v0c-0.71,-0.71 -1.065,-1.565 -1.065,-2.565v0v-10.14v0c0,-1 0.355,-1.855 1.065,-2.565v0v0c0.71,-0.71 1.565,-1.065 2.565,-1.065v0h10.44v0c1.02,0 1.885,0.355 2.595,1.065v0v0c0.71,0.71 1.065,1.565 1.065,2.565v0v10.14v0c0,1 -0.355,1.855 -1.065,2.565v0v0c-0.71,0.71 -1.575,1.065 -2.595,1.065zM361.435,383.34899v0h10.44v0c0.32,0 0.595,-0.115 0.825,-0.345v0v0c0.23,-0.23 0.345,-0.505 0.345,-0.825v0v-10.14v0c0,-0.32 -0.115,-0.595 -0.345,-0.825v0v0c-0.23,-0.23 -0.505,-0.345 -0.825,-0.345v0h-10.44v0c-0.32,0 -0.595,0.115 -0.825,0.345v0v0c-0.23,0.23 -0.345,0.505 -0.345,0.825v0v10.14v0c0,0.32 0.115,0.595 0.345,0.825v0v0c0.23,0.23 0.505,0.345 0.825,0.345zM381.145,385.80899h-2.49v-17.4h22.98v0c1.02,0 1.88,0.355 2.58,1.065v0v0c0.7,0.71 1.05,1.565 1.05,2.565v0v13.77h-2.43v-13.77v0c0,-0.32 -0.12,-0.595 -0.36,-0.825v0v0c-0.24,-0.23 -0.52,-0.345 -0.84,-0.345v0h-7.23v0c-0.32,0 -0.595,0.115 -0.825,0.345v0v0c-0.23,0.23 -0.345,0.505 -0.345,0.825v0v13.77h-2.49v-13.77v0c0,-0.32 -0.115,-0.595 -0.345,-0.825v0v0c-0.23,-0.23 -0.505,-0.345 -0.825,-0.345v0h-7.26v0c-0.32,0 -0.595,0.115 -0.825,0.345v0v0c-0.23,0.23 -0.345,0.505 -0.345,0.825v0zM176.635,385.80899h-14.1v0c-1,0 -1.855,-0.355 -2.565,-1.065v0v0c-0.71,-0.71 -1.065,-1.565 -1.065,-2.565v0v-10.14v0c0,-1 0.355,-1.855 1.065,-2.565v0v0c0.71,-0.71 1.565,-1.065 2.565,-1.065v0h10.44v0c1.02,0 1.885,0.355 2.595,1.065v0v0c0.71,0.71 1.065,1.565 1.065,2.565v0v6.3h-15.27v3.84v0c0,0.32 0.115,0.595 0.345,0.825v0v0c0.23,0.23 0.505,0.345 0.825,0.345v0h14.1zM161.365,372.03899v3.84h12.78v-3.84v0c0,-0.32 -0.115,-0.595 -0.345,-0.825v0v0c-0.23,-0.23 -0.505,-0.345 -0.825,-0.345v0h-10.44v0c-0.32,0 -0.595,0.115 -0.825,0.345v0v0c-0.23,0.23 -0.345,0.505 -0.345,0.825zM196.795,385.80899h-14.1v0c-1,0 -1.855,-0.355 -2.565,-1.065v0v0c-0.71,-0.71 -1.065,-1.565 -1.065,-2.565v0v-10.14v0c0,-1 0.355,-1.855 1.065,-2.565v0v0c0.71,-0.71 1.565,-1.065 2.565,-1.065v0h14.04v2.46h-14.04v0c-0.32,0 -0.595,0.115 -0.825,0.345v0v0c-0.23,0.23 -0.345,0.505 -0.345,0.825v0v10.14v0c0,0.32 0.115,0.595 0.345,0.825v0v0c0.23,0.23 0.505,0.345 0.825,0.345v0h14.1zM213.985,385.80899h-10.44v0c-1,0 -1.855,-0.355 -2.565,-1.065v0v0c-0.71,-0.71 -1.065,-1.565 -1.065,-2.565v0v-10.14v0c0,-1 0.355,-1.855 1.065,-2.565v0v0c0.71,-0.71 1.565,-1.065 2.565,-1.065v0h10.44v0c1.02,0 1.885,0.355 2.595,1.065v0v0c0.71,0.71 1.065,1.565 1.065,2.565v0v10.14v0c0,1 -0.355,1.855 -1.065,2.565v0v0c-0.71,0.71 -1.575,1.065 -2.595,1.065zM203.545,383.34899v0h10.44v0c0.32,0 0.595,-0.115 0.825,-0.345v0v0c0.23,-0.23 0.345,-0.505 0.345,-0.825v0v-10.14v0c0,-0.32 -0.115,-0.595 -0.345,-0.825v0v0c-0.23,-0.23 -0.505,-0.345 -0.825,-0.345v0h-10.44v0c-0.32,0 -0.595,0.115 -0.825,0.345v0v0c-0.23,0.23 -0.345,0.505 -0.345,0.825v0v10.14v0c0,0.32 0.115,0.595 0.345,0.825v0v0c0.23,0.23 0.505,0.345 0.825,0.345zM222.775,385.80899h-2.46v-17.4h14.1v0c1,0 1.855,0.355 2.565,1.065v0v0c0.71,0.71 1.065,1.565 1.065,2.565v0v13.77h-2.46v-13.77v0c0,-0.32 -0.115,-0.595 -0.345,-0.825v0v0c-0.23,-0.23 -0.505,-0.345 -0.825,-0.345v0h-10.44v0c-0.32,0 -0.6,0.115 -0.84,0.345v0v0c-0.24,0.23 -0.36,0.505 -0.36,0.825v0zM258.235,385.80899h-14.1v0c-1,0 -1.855,-0.355 -2.565,-1.065v0v0c-0.71,-0.71 -1.065,-1.565 -1.065,-2.565v0v-10.14v0c0,-1 0.355,-1.855 1.065,-2.565v0v0c0.71,-0.71 1.565,-1.065 2.565,-1.065v0h14.04v2.46h-14.04v0c-0.32,0 -0.595,0.115 -0.825,0.345v0v0c-0.23,0.23 -0.345,0.505 -0.345,0.825v0v10.14v0c0,0.32 0.115,0.595 0.345,0.825v0v0c0.23,0.23 0.505,0.345 0.825,0.345v0h14.1zM263.845,385.80899h-2.46v-13.77v0c0,-1 0.355,-1.855 1.065,-2.565v0v0c0.71,-0.71 1.565,-1.065 2.565,-1.065v0h9.78v2.46h-9.78v0c-0.32,0 -0.595,0.115 -0.825,0.345v0v0c-0.23,0.23 -0.345,0.505 -0.345,0.825v0zM294.445,385.80899h-14.1v0c-1,0 -1.855,-0.355 -2.565,-1.065v0v0c-0.71,-0.71 -1.065,-1.565 -1.065,-2.565v0v-10.14v0c0,-1 0.355,-1.855 1.065,-2.565v0v0c0.71,-0.71 1.565,-1.065 2.565,-1.065v0h10.44v0c1.02,0 1.885,0.355 2.595,1.065v0v0c0.71,0.71 1.065,1.565 1.065,2.565v0v6.3h-15.27v3.84v0c0,0.32 0.115,0.595 0.345,0.825v0v0c0.23,0.23 0.505,0.345 0.825,0.345v0h14.1zM279.175,372.03899v3.84h12.78v-3.84v0c0,-0.32 -0.115,-0.595 -0.345,-0.825v0v0c-0.23,-0.23 -0.505,-0.345 -0.825,-0.345v0h-10.44v0c-0.32,0 -0.595,0.115 -0.825,0.345v0v0c-0.23,0.23 -0.345,0.505 -0.345,0.825zM307.525,385.80899h-6.36v0c-1.02,0 -1.88,-0.355 -2.58,-1.065v0v0c-0.7,-0.71 -1.05,-1.565 -1.05,-2.565v0v-19.47h2.46v5.7h7.53v2.46h-7.53v11.31v0c0,0.32 0.115,0.595 0.345,0.825v0v0c0.23,0.23 0.505,0.345 0.825,0.345v0h6.36zM327.505,385.80899h-14.1v0c-1,0 -1.855,-0.355 -2.565,-1.065v0v0c-0.71,-0.71 -1.065,-1.565 -1.065,-2.565v0v-10.14v0c0,-1 0.355,-1.855 1.065,-2.565v0v0c0.71,-0.71 1.565,-1.065 2.565,-1.065v0h10.44v0c1.02,0 1.885,0.355 2.595,1.065v0v0c0.71,0.71 1.065,1.565 1.065,2.565v0v6.3h-15.27v3.84v0c0,0.32 0.115,0.595 0.345,0.825v0v0c0.23,0.23 0.505,0.345 0.825,0.345v0h14.1zM312.235,372.03899v3.84h12.78v-3.84v0c0,-0.32 -0.115,-0.595 -0.345,-0.825v0v0c-0.23,-0.23 -0.505,-0.345 -0.825,-0.345v0h-10.44v0c-0.32,0 -0.595,0.115 -0.825,0.345v0v0c-0.23,0.23 -0.345,0.505 -0.345,0.825zM333.085,385.80899h-2.46v-2.46h2.46zM77.195,385.80899h-2.46v-17.4h2.46zM77.195,365.16899h-2.46v-2.46h2.46zM83.045,385.80899h-2.46v-17.4h14.1v0c1,0 1.855,0.355 2.565,1.065v0v0c0.71,0.71 1.065,1.565 1.065,2.565v0v13.77h-2.46v-13.77v0c0,-0.32 -0.115,-0.595 -0.345,-0.825v0v0c-0.23,-0.23 -0.505,-0.345 -0.825,-0.345v0h-10.44v0c-0.32,0 -0.6,0.115 -0.84,0.345v0v0c-0.24,0.23 -0.36,0.505 -0.36,0.825v0zM103.895,385.80899h-2.46v-19.47v0c0,-1.02 0.35,-1.88 1.05,-2.58v0v0c0.7,-0.7 1.56,-1.05 2.58,-1.05v0h6.36v2.46h-6.36v0c-0.32,0 -0.595,0.115 -0.825,0.345v0v0c-0.23,0.23 -0.345,0.505 -0.345,0.825v0v2.07h7.53v2.46h-7.53zM127.655,385.80899h-10.44v0c-1,0 -1.855,-0.355 -2.565,-1.065v0v0c-0.71,-0.71 -1.065,-1.565 -1.065,-2.565v0v-10.14v0c0,-1 0.355,-1.855 1.065,-2.565v0v0c0.71,-0.71 1.565,-1.065 2.565,-1.065v0h10.44v0c1.02,0 1.885,0.355 2.595,1.065v0v0c0.71,0.71 1.065,1.565 1.065,2.565v0v10.14v0c0,1 -0.355,1.855 -1.065,2.565v0v0c-0.71,0.71 -1.575,1.065 -2.595,1.065zM117.215,383.34899v0h10.44v0c0.32,0 0.595,-0.115 0.825,-0.345v0v0c0.23,-0.23 0.345,-0.505 0.345,-0.825v0v-10.14v0c0,-0.32 -0.115,-0.595 -0.345,-0.825v0v0c-0.23,-0.23 -0.505,-0.345 -0.825,-0.345v0h-10.44v0c-0.32,0 -0.595,0.115 -0.825,0.345v0v0c-0.23,0.23 -0.345,0.505 -0.345,0.825v0v10.14v0c0,0.32 0.115,0.595 0.345,0.825v0v0c0.23,0.23 0.505,0.345 0.825,0.345zM156.245,385.80899h-18.18v0c-1.02,0 -1.88,-0.355 -2.58,-1.065v0v0c-0.7,-0.71 -1.05,-1.565 -1.05,-2.565v0v-14.31v0c0,-1.02 0.35,-1.885 1.05,-2.595v0v0c0.7,-0.71 1.56,-1.065 2.58,-1.065v0h14.55v0c1,0 1.855,0.355 2.565,1.065v0v0c0.71,0.71 1.065,1.575 1.065,2.595v0v12.18h-12.33v0c-1.02,0 -1.88,-0.355 -2.58,-1.065v0v0c-0.7,-0.71 -1.05,-1.575 -1.05,-2.595v0v-2.52v0c0,-1 0.35,-1.855 1.05,-2.565v0v0c0.7,-0.71 1.56,-1.065 2.58,-1.065v0h2.85v0c1,0 1.855,0.355 2.565,1.065v0v0c0.71,0.71 1.065,1.565 1.065,2.565v0v4.32h3.39v-10.32v0c0,-0.32 -0.115,-0.595 -0.345,-0.825v0v0c-0.23,-0.23 -0.505,-0.345 -0.825,-0.345v0h-14.55v0c-0.32,0 -0.595,0.115 -0.825,0.345v0v0c-0.23,0.23 -0.345,0.505 -0.345,0.825v0v14.31v0c0,0.32 0.115,0.595 0.345,0.825v0v0c0.23,0.23 0.505,0.345 0.825,0.345v0h18.18zM143.285,378.18899v0h5.28v-4.95v0c0,-0.32 -0.115,-0.595 -0.345,-0.825v0v0c-0.23,-0.23 -0.505,-0.345 -0.825,-0.345v0h-4.11v0c-0.32,0 -0.595,0.115 -0.825,0.345v0v0c-0.23,0.23 -0.345,0.505 -0.345,0.825v0v3.78v0c0,0.32 0.115,0.595 0.345,0.825v0v0c0.23,0.23 0.505,0.345 0.825,0.345z" fill="#ffffff" fill-rule="evenodd" stroke="none" stroke-width="1"/><path d="M320.48,345.75899h-13.92v0c-1.33333,0 -2.47334,-0.47334 -3.42,-1.42v0v0c-0.94666,-0.94666 -1.42,-2.08667 -1.42,-3.42v0v-18.36h3.28v18.36v0c0,0.42667 0.15333,0.79334 0.46,1.1v0v0c0.30667,0.30667 0.67334,0.46 1.1,0.46v0h13.92v0c0.42667,0 0.8,-0.15333 1.12,-0.46v0v0c0.32,-0.30667 0.48,-0.67334 0.48,-1.1v0v-18.36h3.28v18.36v0c0,1.33333 -0.47334,2.47334 -1.42,3.42v0v0c-0.94666,0.94666 -2.1,1.42 -3.46,1.42zM347.48,345.75899h-13.92v0c-1.33333,0 -2.47334,-0.47334 -3.42,-1.42v0v0c-0.94666,-0.94666 -1.42,-2.08667 -1.42,-3.42v0v-0.32h3.28v0.32v0c0,0.42667 0.15333,0.79334 0.46,1.1v0v0c0.30667,0.30667 0.67334,0.46 1.1,0.46v0h13.92v0c0.42667,0 0.79333,-0.15333 1.1,-0.46v0v0c0.30667,-0.30667 0.46,-0.67334 0.46,-1.1v0v-3.56v0c0,-0.42667 -0.15334,-0.79333 -0.46,-1.1v0v0c-0.30667,-0.30667 -0.67333,-0.46 -1.1,-0.46v0h-13.92v0c-1.33333,0 -2.47334,-0.47333 -3.42,-1.42v0v0c-0.94666,-0.94666 -1.42,-2.08667 -1.42,-3.42v0v-3.56v0c0,-1.33333 0.47333,-2.47334 1.42,-3.42v0v0c0.94666,-0.94666 2.08667,-1.42 3.42,-1.42v0h13.92v0c1.36,0 2.51333,0.47333 3.46,1.42v0v0c0.94666,0.94666 1.42,2.08667 1.42,3.42v0v0.32h-3.32v-0.32v0c0,-0.42667 -0.15334,-0.79334 -0.46,-1.1v0v0c-0.30667,-0.30667 -0.67333,-0.46 -1.1,-0.46v0h-13.92v0c-0.42667,0 -0.79334,0.15333 -1.1,0.46v0v0c-0.30667,0.30667 -0.46,0.67334 -0.46,1.1v0v3.56v0c0,0.42667 0.15333,0.79334 0.46,1.1v0v0c0.30667,0.30667 0.67334,0.46 1.1,0.46v0h13.92v0c1.36,0 2.51333,0.47334 3.46,1.42v0v0c0.94666,0.94666 1.42,2.08666 1.42,3.42v0v3.56v0c0,1.33333 -0.47334,2.47334 -1.42,3.42v0v0c-0.94666,0.94666 -2.1,1.42 -3.46,1.42zM359.84,337.63899h-3.28v-20.68h3.28zM359.84,345.75899h-3.28v-3.28h3.28zM145.92,345.75899h-23.92v0c-1.33334,0 -2.46667,-0.46667 -3.4,-1.4v0v0c-0.93333,-0.93333 -1.4,-2.06667 -1.4,-3.4v0v-19.2v0c0,-1.33333 0.46666,-2.46667 1.4,-3.4v0v0c0.93333,-0.93333 2.06667,-1.4 3.4,-1.4v0h23.92v3.24h-23.92v0c-0.42666,0 -0.79333,0.15333 -1.1,0.46v0v0c-0.30666,0.30667 -0.46,0.67334 -0.46,1.1v0v19.2v0c0,0.42667 0.15334,0.79334 0.46,1.1v0v0c0.30666,0.30667 0.67333,0.46 1.1,0.46v0h23.92zM168.64,345.75899h-13.92v0c-1.33334,0 -2.47333,-0.47334 -3.42,-1.42v0v0c-0.94666,-0.94666 -1.42,-2.08667 -1.42,-3.42v0v-13.52v0c0,-1.33333 0.47334,-2.47334 1.42,-3.42v0v0c0.94666,-0.94666 2.08666,-1.42 3.42,-1.42v0h13.92v0c1.36,0 2.51334,0.47333 3.46,1.42v0v0c0.94666,0.94666 1.42,2.08667 1.42,3.42v0v13.52v0c0,1.33333 -0.47334,2.47334 -1.42,3.42v0v0c-0.94666,0.94666 -2.1,1.42 -3.46,1.42zM154.72,342.47899v0h13.92v0c0.42667,0 0.79334,-0.15333 1.1,-0.46v0v0c0.30667,-0.30667 0.46,-0.67334 0.46,-1.1v0v-13.52v0c0,-0.42667 -0.15333,-0.79334 -0.46,-1.1v0v0c-0.30667,-0.30667 -0.67334,-0.46 -1.1,-0.46v0h-13.92v0c-0.42667,0 -0.79333,0.15333 -1.1,0.46v0v0c-0.30667,0.30667 -0.46,0.67334 -0.46,1.1v0v13.52v0c0,0.42667 0.15333,0.79334 0.46,1.1v0v0c0.30667,0.30667 0.67333,0.46 1.1,0.46zM180.36,345.75899h-3.28v-23.2h18.8v0c1.33334,0 2.47334,0.47333 3.42,1.42v0v0c0.94666,0.94666 1.42,2.08667 1.42,3.42v0v18.36h-3.28v-18.36v0c0,-0.42667 -0.15333,-0.79334 -0.46,-1.1v0v0c-0.30667,-0.30667 -0.67333,-0.46 -1.1,-0.46v0h-13.92v0c-0.42667,0 -0.8,0.15333 -1.12,0.46v0v0c-0.32,0.30667 -0.48,0.67334 -0.48,1.1v0zM218.2,345.75899h-8.48v0c-1.36,0 -2.50666,-0.47334 -3.44,-1.42v0v0c-0.93333,-0.94666 -1.4,-2.08667 -1.4,-3.42v0v-25.96h3.28v7.6h10.04v3.28h-10.04v15.08v0c0,0.42667 0.15333,0.79334 0.46,1.1v0v0c0.30667,0.30667 0.67333,0.46 1.1,0.46v0h8.48zM244.88,345.75899h-18.8v0c-1.33334,0 -2.47334,-0.47334 -3.42,-1.42v0v0c-0.94666,-0.94666 -1.42,-2.08667 -1.42,-3.42v0v-8.4h20.32v-5.12v0c0,-0.42667 -0.15333,-0.79334 -0.46,-1.1v0v0c-0.30667,-0.30667 -0.67333,-0.46 -1.1,-0.46v0h-18.76v-3.28h18.76v0c1.36,0 2.51334,0.47333 3.46,1.42v0v0c0.94666,0.94666 1.42,2.08667 1.42,3.42v0zM226.08,342.47899v0h15.48v-6.68h-17.04v5.12v0c0,0.42667 0.15333,0.79334 0.46,1.1v0v0c0.30667,0.30667 0.67334,0.46 1.1,0.46zM272.2,345.75899h-18.8v0c-1.33334,0 -2.47334,-0.47334 -3.42,-1.42v0v0c-0.94666,-0.94666 -1.42,-2.08667 -1.42,-3.42v0v-13.52v0c0,-1.33333 0.47333,-2.47334 1.42,-3.42v0v0c0.94666,-0.94666 2.08667,-1.42 3.42,-1.42v0h18.72v3.28h-18.72v0c-0.42667,0 -0.79333,0.15333 -1.1,0.46v0v0c-0.30667,0.30667 -0.46,0.67334 -0.46,1.1v0v13.52v0c0,0.42667 0.15333,0.79334 0.46,1.1v0v0c0.30667,0.30667 0.67333,0.46 1.1,0.46v0h18.8zM288.76,345.75899h-8.48v0c-1.36,0 -2.50666,-0.47334 -3.44,-1.42v0v0c-0.93333,-0.94666 -1.4,-2.08667 -1.4,-3.42v0v-25.96h3.28v7.6h10.04v3.28h-10.04v15.08v0c0,0.42667 0.15333,0.79334 0.46,1.1v0v0c0.30667,0.30667 0.67333,0.46 1.1,0.46v0h8.48z" fill="#ffffff" fill-rule="evenodd" stroke="none" stroke-width="1"/></g></g></svg>