<svg version="1.1" xmlns="http://www.w3.org/2000/svg" xmlns:xlink="http://www.w3.org/1999/xlink" width="593.32457" height="632.12405" viewBox="0,0,593.32457,632.12405"><defs><linearGradient x1="241.87617" y1="-6.40785" x2="241.87617" y2="487.02555" gradientUnits="userSpaceOnUse" id="color-1"><stop offset="0" stop-color="#11a6d6"/><stop offset="1" stop-color="#014a65"/></linearGradient></defs><g transform="translate(61.28361,6.40785)"><g data-paper-data="{&quot;isPaintingLayer&quot;:true}" fill-rule="nonzero" stroke="none" stroke-width="0" stroke-linecap="butt" stroke-linejoin="miter" stroke-miterlimit="10" stroke-dasharray="" stroke-dashoffset="0" style="mix-blend-mode: normal"><path d="M-6.24765,487.02555v-493.4334h496.24765v493.4334z" fill="url(#color-1)"/><path d="M-29.13574,622.98769v-190c0,0 3.8087,-7.50268 17.94252,-7.50268c15.7962,0 74.27857,5.16387 126.47349,5.87665c58.12688,0.79379 172.91567,-5.46277 237.41303,-6.39412c107.40852,-1.551 155.17096,8.02016 155.17096,8.02016v190z" fill="#968331"/><path d="M-29.13574,622.98769v-173.62892c0,0 5.60131,-10.15004 15.16073,-10.15004c18.96062,0 84.10523,17.62789 169.0238,19.297c57.06721,1.12168 135.87119,-12.74091 193.35861,-14.43201c68.52438,-2.01578 123.12183,-2.75161 147.24533,-0.55129c9.68598,0.88346 12.21155,5.83635 12.21155,5.83635v173.62892z" fill="#af993a"/><path d="M-29.13574,622.98769c0,0 -83.34843,-154.33037 18.36557,-155.08306c50.50292,-0.37372 191.48569,18.85466 245.57153,11.64691c98.89029,-13.17863 242.00727,-10.08666 285.43844,-7.7805c32.47584,1.72444 -12.37554,151.21666 -12.37554,151.21666z" fill="#c9af3f"/><path d="M-29.13574,625.7162c0,0 -48.97344,-116.21169 0,-131.33697c15.95239,-4.92685 92.5212,3.49272 166.46802,3.31824c160.00806,-0.37754 292.10345,-28.96571 360.21303,-11.76102c30.93467,7.81419 10.31895,139.77975 10.31895,139.77975z" fill="#e8cb4a"/></g></g></svg>