<svg version="1.1" xmlns="http://www.w3.org/2000/svg" xmlns:xlink="http://www.w3.org/1999/xlink" width="389.966" height="304.824" viewBox="0,0,389.966,304.824"><g transform="translate(-45.017,-137.588)"><g data-paper-data="{&quot;isPaintingLayer&quot;:true}" fill-rule="nonzero" stroke-linecap="butt" stroke-linejoin="miter" stroke-miterlimit="10" stroke-dasharray="" stroke-dashoffset="0" style="mix-blend-mode: normal"><path d="M46.267,441.162v-302.324h387.466v302.324z" fill-opacity="0.8" fill="#000000" stroke="#ffffff" stroke-width="2.5"/><path d="M350.51,418.862h-9.4v-15.4h1.64v3.8h7.76v0c0.66667,0 1.23667,0.23667 1.71,0.71v0v0c0.47333,0.47333 0.71,1.04333 0.71,1.71v0v6.76v0c0,0.66667 -0.23667,1.23667 -0.71,1.71v0v0c-0.47333,0.47333 -1.04333,0.71 -1.71,0.71zM343.55,417.222v0h6.96v0c0.21333,0 0.39667,-0.07667 0.55,-0.23v0v0c0.15333,-0.15333 0.23,-0.33667 0.23,-0.55v0v-6.76v0c0,-0.21333 -0.07667,-0.39667 -0.23,-0.55v0v0c-0.15333,-0.15333 -0.33667,-0.23 -0.55,-0.23v0h-6.96v0c-0.21333,0 -0.4,0.07667 -0.56,0.23v0v0c-0.16,0.15333 -0.24,0.33667 -0.24,0.55v0v6.76v0c0,0.21333 0.08,0.39667 0.24,0.55v0v0c0.16,0.15333 0.34667,0.23 0.56,0.23zM358.79,418.862h-1.96v0c-0.66667,0 -1.23667,-0.23667 -1.71,-0.71v0v0c-0.47333,-0.47333 -0.71,-1.04333 -0.71,-1.71v0v-12.98h1.64v12.98v0c0,0.21333 0.07667,0.39667 0.23,0.55v0v0c0.15333,0.15333 0.33667,0.23 0.55,0.23v0h1.96zM369.61,418.862h-6.96v0c-0.66667,0 -1.23667,-0.23667 -1.71,-0.71v0v0c-0.47333,-0.47333 -0.71,-1.04333 -0.71,-1.71v0v-6.76v0c0,-0.66667 0.23667,-1.23667 0.71,-1.71v0v0c0.47333,-0.47333 1.04333,-0.71 1.71,-0.71v0h6.96v0c0.68,0 1.25667,0.23667 1.73,0.71v0v0c0.47333,0.47333 0.71,1.04333 0.71,1.71v0v6.76v0c0,0.66667 -0.23667,1.23667 -0.71,1.71v0v0c-0.47333,0.47333 -1.05,0.71 -1.73,0.71zM362.65,417.222v0h6.96v0c0.21333,0 0.39667,-0.07667 0.55,-0.23v0v0c0.15333,-0.15333 0.23,-0.33667 0.23,-0.55v0v-6.76v0c0,-0.21333 -0.07667,-0.39667 -0.23,-0.55v0v0c-0.15333,-0.15333 -0.33667,-0.23 -0.55,-0.23v0h-6.96v0c-0.21333,0 -0.39667,0.07667 -0.55,0.23v0v0c-0.15333,0.15333 -0.23,0.33667 -0.23,0.55v0v6.76v0c0,0.21333 0.07667,0.39667 0.23,0.55v0v0c0.15333,0.15333 0.33667,0.23 0.55,0.23zM385.89,418.862h-9.4v0c-0.66667,0 -1.23667,-0.23667 -1.71,-0.71v0v0c-0.47333,-0.47333 -0.71,-1.04333 -0.71,-1.71v0v-6.76v0c0,-0.66667 0.23667,-1.23667 0.71,-1.71v0v0c0.47333,-0.47333 1.04333,-0.71 1.71,-0.71v0h9.36v1.64h-9.36v0c-0.21333,0 -0.39667,0.07667 -0.55,0.23v0v0c-0.15333,0.15333 -0.23,0.33667 -0.23,0.55v0v6.76v0c0,0.21333 0.07667,0.39667 0.23,0.55v0v0c0.15333,0.15333 0.33667,0.23 0.55,0.23v0h9.4zM389.27,418.862h-1.64v-15.4h1.64v8.78h3.2l4.56,-4.98h2.16v0.02l-5.26,5.78l5.24,5.78v0.02h-2.14l-4.56,-4.98h-3.2zM402.19,418.862h-1.64v-1.64h1.64zM298.55,418.862h-9.4v-15.4h1.64v3.8h7.76v0c0.66667,0 1.23667,0.23667 1.71,0.71v0v0c0.47333,0.47333 0.71,1.04333 0.71,1.71v0v6.76v0c0,0.66667 -0.23667,1.23667 -0.71,1.71v0v0c-0.47333,0.47333 -1.04333,0.71 -1.71,0.71zM291.59,417.222v0h6.96v0c0.21333,0 0.39667,-0.07667 0.55,-0.23v0v0c0.15333,-0.15333 0.23,-0.33667 0.23,-0.55v0v-6.76v0c0,-0.21333 -0.07667,-0.39667 -0.23,-0.55v0v0c-0.15333,-0.15333 -0.33667,-0.23 -0.55,-0.23v0h-6.96v0c-0.21333,0 -0.4,0.07667 -0.56,0.23v0v0c-0.16,0.15333 -0.24,0.33667 -0.24,0.55v0v6.76v0c0,0.21333 0.08,0.39667 0.24,0.55v0v0c0.16,0.15333 0.34667,0.23 0.56,0.23zM306.83,418.862h-1.96v0c-0.66667,0 -1.23667,-0.23667 -1.71,-0.71v0v0c-0.47333,-0.47333 -0.71,-1.04333 -0.71,-1.71v0v-12.98h1.64v12.98v0c0,0.21333 0.07667,0.39667 0.23,0.55v0v0c0.15333,0.15333 0.33667,0.23 0.55,0.23v0h1.96zM317.89,418.862h-6.96v0c-0.66667,0 -1.23667,-0.23667 -1.71,-0.71v0v0c-0.47333,-0.47333 -0.71,-1.04333 -0.71,-1.71v0v-9.18h1.64v9.18v0c0,0.21333 0.07667,0.39667 0.23,0.55v0v0c0.15333,0.15333 0.33667,0.23 0.55,0.23v0h6.96v0c0.21333,0 0.4,-0.07667 0.56,-0.23v0v0c0.16,-0.15333 0.24,-0.33667 0.24,-0.55v0v-9.18h1.64v9.18v0c0,0.66667 -0.23667,1.23667 -0.71,1.71v0v0c-0.47333,0.47333 -1.05,0.71 -1.73,0.71zM333.89,418.862h-9.4v0c-0.66667,0 -1.23667,-0.23667 -1.71,-0.71v0v0c-0.47333,-0.47333 -0.71,-1.04333 -0.71,-1.71v0v-6.76v0c0,-0.66667 0.23667,-1.23667 0.71,-1.71v0v0c0.47333,-0.47333 1.04333,-0.71 1.71,-0.71v0h6.96v0c0.68,0 1.25667,0.23667 1.73,0.71v0v0c0.47333,0.47333 0.71,1.04333 0.71,1.71v0v4.2h-10.18v2.56v0c0,0.21333 0.07667,0.39667 0.23,0.55v0v0c0.15333,0.15333 0.33667,0.23 0.55,0.23v0h9.4zM323.71,409.682v2.56h8.52v-2.56v0c0,-0.21333 -0.07667,-0.39667 -0.23,-0.55v0v0c-0.15333,-0.15333 -0.33667,-0.23 -0.55,-0.23v0h-6.96v0c-0.21333,0 -0.39667,0.07667 -0.55,0.23v0v0c-0.15333,0.15333 -0.23,0.33667 -0.23,0.55zM235.11,418.862h-9.4v-15.4h1.64v3.8h7.76v0c0.66667,0 1.23667,0.23667 1.71,0.71v0v0c0.47333,0.47333 0.71,1.04333 0.71,1.71v0v6.76v0c0,0.66667 -0.23667,1.23667 -0.71,1.71v0v0c-0.47333,0.47333 -1.04333,0.71 -1.71,0.71zM228.15,417.222v0h6.96v0c0.21333,0 0.39667,-0.07667 0.55,-0.23v0v0c0.15333,-0.15333 0.23,-0.33667 0.23,-0.55v0v-6.76v0c0,-0.21333 -0.07667,-0.39667 -0.23,-0.55v0v0c-0.15333,-0.15333 -0.33667,-0.23 -0.55,-0.23v0h-6.96v0c-0.21333,0 -0.4,0.07667 -0.56,0.23v0v0c-0.16,0.15333 -0.24,0.33667 -0.24,0.55v0v6.76v0c0,0.21333 0.08,0.39667 0.24,0.55v0v0c0.16,0.15333 0.34667,0.23 0.56,0.23zM250.83,418.862h-9.4v0c-0.66667,0 -1.23667,-0.23667 -1.71,-0.71v0v0c-0.47333,-0.47333 -0.71,-1.04333 -0.71,-1.71v0v-4.2h10.16v-2.56v0c0,-0.21333 -0.07667,-0.39667 -0.23,-0.55v0v0c-0.15333,-0.15333 -0.33667,-0.23 -0.55,-0.23v0h-9.38v-1.64h9.38v0c0.68,0 1.25667,0.23667 1.73,0.71v0v0c0.47333,0.47333 0.71,1.04333 0.71,1.71v0zM241.43,417.222v0h7.74v-3.34h-8.52v2.56v0c0,0.21333 0.07667,0.39667 0.23,0.55v0v0c0.15333,0.15333 0.33667,0.23 0.55,0.23zM261.79,418.862h-6.96v0c-0.66667,0 -1.23667,-0.23667 -1.71,-0.71v0v0c-0.47333,-0.47333 -0.71,-1.04333 -0.71,-1.71v0v-0.16h1.64v0.16v0c0,0.21333 0.07667,0.39667 0.23,0.55v0v0c0.15333,0.15333 0.33667,0.23 0.55,0.23v0h6.96v0c0.21333,0 0.39667,-0.07667 0.55,-0.23v0v0c0.15333,-0.15333 0.23,-0.33667 0.23,-0.55v0v-1.78v0c0,-0.21333 -0.07667,-0.39667 -0.23,-0.55v0v0c-0.15333,-0.15333 -0.33667,-0.23 -0.55,-0.23v0h-6.96v0c-0.66667,0 -1.23667,-0.23667 -1.71,-0.71v0v0c-0.47333,-0.47333 -0.71,-1.04333 -0.71,-1.71v0v-1.78v0c0,-0.66667 0.23667,-1.23667 0.71,-1.71v0v0c0.47333,-0.47333 1.04333,-0.71 1.71,-0.71v0h6.96v0c0.68,0 1.25667,0.23667 1.73,0.71v0v0c0.47333,0.47333 0.71,1.04333 0.71,1.71v0v0.16h-1.66v-0.16v0c0,-0.21333 -0.07667,-0.39667 -0.23,-0.55v0v0c-0.15333,-0.15333 -0.33667,-0.23 -0.55,-0.23v0h-6.96v0c-0.21333,0 -0.39667,0.07667 -0.55,0.23v0v0c-0.15333,0.15333 -0.23,0.33667 -0.23,0.55v0v1.78v0c0,0.21333 0.07667,0.39667 0.23,0.55v0v0c0.15333,0.15333 0.33667,0.23 0.55,0.23v0h6.96v0c0.68,0 1.25667,0.23667 1.73,0.71v0v0c0.47333,0.47333 0.71,1.04333 0.71,1.71v0v1.78v0c0,0.66667 -0.23667,1.23667 -0.71,1.71v0v0c-0.47333,0.47333 -1.05,0.71 -1.73,0.71zM267.85,418.862h-1.64v-11.6h1.64zM267.85,405.102h-1.64v-1.64h1.64zM281.87,418.862h-9.4v0c-0.66667,0 -1.23667,-0.23667 -1.71,-0.71v0v0c-0.47333,-0.47333 -0.71,-1.04333 -0.71,-1.71v0v-6.76v0c0,-0.66667 0.23667,-1.23667 0.71,-1.71v0v0c0.47333,-0.47333 1.04333,-0.71 1.71,-0.71v0h9.36v1.64h-9.36v0c-0.21333,0 -0.39667,0.07667 -0.55,0.23v0v0c-0.15333,0.15333 -0.23,0.33667 -0.23,0.55v0v6.76v0c0,0.21333 0.07667,0.39667 0.23,0.55v0v0c0.15333,0.15333 0.33667,0.23 0.55,0.23v0h9.4zM191.41,418.862h-4.24v0c-0.68,0 -1.25333,-0.23667 -1.72,-0.71v0v0c-0.46667,-0.47333 -0.7,-1.04333 -0.7,-1.71v0v-12.98h1.64v3.8h5.02v1.64h-5.02v7.54v0c0,0.21333 0.07667,0.39667 0.23,0.55v0v0c0.15333,0.15333 0.33667,0.23 0.55,0.23v0h4.24zM194.71,418.862h-1.64v-15.4h1.64v3.8h7.76v0c0.65333,0 1.22,0.23667 1.7,0.71v0v0c0.48,0.47333 0.72,1.04333 0.72,1.71v0v9.18h-1.64v-9.18v0c0,-0.21333 -0.07667,-0.39667 -0.23,-0.55v0v0c-0.15333,-0.15333 -0.33667,-0.23 -0.55,-0.23v0h-6.96v0c-0.21333,0 -0.4,0.07667 -0.56,0.23v0v0c-0.16,0.15333 -0.24,0.33667 -0.24,0.55v0zM218.19,418.862h-9.4v0c-0.66667,0 -1.23667,-0.23667 -1.71,-0.71v0v0c-0.47333,-0.47333 -0.71,-1.04333 -0.71,-1.71v0v-6.76v0c0,-0.66667 0.23667,-1.23667 0.71,-1.71v0v0c0.47333,-0.47333 1.04333,-0.71 1.71,-0.71v0h6.96v0c0.68,0 1.25667,0.23667 1.73,0.71v0v0c0.47333,0.47333 0.71,1.04333 0.71,1.71v0v4.2h-10.18v2.56v0c0,0.21333 0.07667,0.39667 0.23,0.55v0v0c0.15333,0.15333 0.33667,0.23 0.55,0.23v0h9.4zM208.01,409.682v2.56h8.52v-2.56v0c0,-0.21333 -0.07667,-0.39667 -0.23,-0.55v0v0c-0.15333,-0.15333 -0.33667,-0.23 -0.55,-0.23v0h-6.96v0c-0.21333,0 -0.39667,0.07667 -0.55,0.23v0v0c-0.15333,0.15333 -0.23,0.33667 -0.23,0.55zM148.13,418.862h-6.96v0c-0.66667,0 -1.23667,-0.23667 -1.71,-0.71v0v0c-0.47333,-0.47333 -0.71,-1.04333 -0.71,-1.71v0v-9.18h1.64v9.18v0c0,0.21333 0.07667,0.39667 0.23,0.55v0v0c0.15333,0.15333 0.33667,0.23 0.55,0.23v0h6.96v0c0.21333,0 0.4,-0.07667 0.56,-0.23v0v0c0.16,-0.15333 0.24,-0.33667 0.24,-0.55v0v-9.18h1.64v9.18v0c0,0.66667 -0.23667,1.23667 -0.71,1.71v0v0c-0.47333,0.47333 -1.05,0.71 -1.73,0.71zM161.63,418.862h-6.96v0c-0.66667,0 -1.23667,-0.23667 -1.71,-0.71v0v0c-0.47333,-0.47333 -0.71,-1.04333 -0.71,-1.71v0v-0.16h1.64v0.16v0c0,0.21333 0.07667,0.39667 0.23,0.55v0v0c0.15333,0.15333 0.33667,0.23 0.55,0.23v0h6.96v0c0.21333,0 0.39667,-0.07667 0.55,-0.23v0v0c0.15333,-0.15333 0.23,-0.33667 0.23,-0.55v0v-1.78v0c0,-0.21333 -0.07667,-0.39667 -0.23,-0.55v0v0c-0.15333,-0.15333 -0.33667,-0.23 -0.55,-0.23v0h-6.96v0c-0.66667,0 -1.23667,-0.23667 -1.71,-0.71v0v0c-0.47333,-0.47333 -0.71,-1.04333 -0.71,-1.71v0v-1.78v0c0,-0.66667 0.23667,-1.23667 0.71,-1.71v0v0c0.47333,-0.47333 1.04333,-0.71 1.71,-0.71v0h6.96v0c0.68,0 1.25667,0.23667 1.73,0.71v0v0c0.47333,0.47333 0.71,1.04333 0.71,1.71v0v0.16h-1.66v-0.16v0c0,-0.21333 -0.07667,-0.39667 -0.23,-0.55v0v0c-0.15333,-0.15333 -0.33667,-0.23 -0.55,-0.23v0h-6.96v0c-0.21333,0 -0.39667,0.07667 -0.55,0.23v0v0c-0.15333,0.15333 -0.23,0.33667 -0.23,0.55v0v1.78v0c0,0.21333 0.07667,0.39667 0.23,0.55v0v0c0.15333,0.15333 0.33667,0.23 0.55,0.23v0h6.96v0c0.68,0 1.25667,0.23667 1.73,0.71v0v0c0.47333,0.47333 0.71,1.04333 0.71,1.71v0v1.78v0c0,0.66667 -0.23667,1.23667 -0.71,1.71v0v0c-0.47333,0.47333 -1.05,0.71 -1.73,0.71zM177.55,418.862h-9.4v0c-0.66667,0 -1.23667,-0.23667 -1.71,-0.71v0v0c-0.47333,-0.47333 -0.71,-1.04333 -0.71,-1.71v0v-6.76v0c0,-0.66667 0.23667,-1.23667 0.71,-1.71v0v0c0.47333,-0.47333 1.04333,-0.71 1.71,-0.71v0h6.96v0c0.68,0 1.25667,0.23667 1.73,0.71v0v0c0.47333,0.47333 0.71,1.04333 0.71,1.71v0v4.2h-10.18v2.56v0c0,0.21333 0.07667,0.39667 0.23,0.55v0v0c0.15333,0.15333 0.33667,0.23 0.55,0.23v0h9.4zM167.37,409.682v2.56h8.52v-2.56v0c0,-0.21333 -0.07667,-0.39667 -0.23,-0.55v0v0c-0.15333,-0.15333 -0.33667,-0.23 -0.55,-0.23v0h-6.96v0c-0.21333,0 -0.39667,0.07667 -0.55,0.23v0v0c-0.15333,0.15333 -0.23,0.33667 -0.23,0.55zM84.59,418.862h-6.96v0c-0.66667,0 -1.23667,-0.23667 -1.71,-0.71v0v0c-0.47333,-0.47333 -0.71,-1.04333 -0.71,-1.71v0v-0.16h1.64v0.16v0c0,0.21333 0.07667,0.39667 0.23,0.55v0v0c0.15333,0.15333 0.33667,0.23 0.55,0.23v0h6.96v0c0.21333,0 0.39667,-0.07667 0.55,-0.23v0v0c0.15333,-0.15333 0.23,-0.33667 0.23,-0.55v0v-1.78v0c0,-0.21333 -0.07667,-0.39667 -0.23,-0.55v0v0c-0.15333,-0.15333 -0.33667,-0.23 -0.55,-0.23v0h-6.96v0c-0.66667,0 -1.23667,-0.23667 -1.71,-0.71v0v0c-0.47333,-0.47333 -0.71,-1.04333 -0.71,-1.71v0v-1.78v0c0,-0.66667 0.23667,-1.23667 0.71,-1.71v0v0c0.47333,-0.47333 1.04333,-0.71 1.71,-0.71v0h6.96v0c0.68,0 1.25667,0.23667 1.73,0.71v0v0c0.47333,0.47333 0.71,1.04333 0.71,1.71v0v0.16h-1.66v-0.16v0c0,-0.21333 -0.07667,-0.39667 -0.23,-0.55v0v0c-0.15333,-0.15333 -0.33667,-0.23 -0.55,-0.23v0h-6.96v0c-0.21333,0 -0.39667,0.07667 -0.55,0.23v0v0c-0.15333,0.15333 -0.23,0.33667 -0.23,0.55v0v1.78v0c0,0.21333 0.07667,0.39667 0.23,0.55v0v0c0.15333,0.15333 0.33667,0.23 0.55,0.23v0h6.96v0c0.68,0 1.25667,0.23667 1.73,0.71v0v0c0.47333,0.47333 0.71,1.04333 0.71,1.71v0v1.78v0c0,0.66667 -0.23667,1.23667 -0.71,1.71v0v0c-0.47333,0.47333 -1.05,0.71 -1.73,0.71zM95.69,418.862h-4.24v0c-0.68,0 -1.25333,-0.23667 -1.72,-0.71v0v0c-0.46667,-0.47333 -0.7,-1.04333 -0.7,-1.71v0v-12.98h1.64v3.8h5.02v1.64h-5.02v7.54v0c0,0.21333 0.07667,0.39667 0.23,0.55v0v0c0.15333,0.15333 0.33667,0.23 0.55,0.23v0h4.24zM109.03,418.862h-9.4v0c-0.66667,0 -1.23667,-0.23667 -1.71,-0.71v0v0c-0.47333,-0.47333 -0.71,-1.04333 -0.71,-1.71v0v-4.2h10.16v-2.56v0c0,-0.21333 -0.07667,-0.39667 -0.23,-0.55v0v0c-0.15333,-0.15333 -0.33667,-0.23 -0.55,-0.23v0h-9.38v-1.64h9.38v0c0.68,0 1.25667,0.23667 1.73,0.71v0v0c0.47333,0.47333 0.71,1.04333 0.71,1.71v0zM99.63,417.222v0h7.74v-3.34h-8.52v2.56v0c0,0.21333 0.07667,0.39667 0.23,0.55v0v0c0.15333,0.15333 0.33667,0.23 0.55,0.23zM112.63,418.862h-1.64v-9.18v0c0,-0.66667 0.23667,-1.23667 0.71,-1.71v0v0c0.47333,-0.47333 1.04333,-0.71 1.71,-0.71v0h6.52v1.64h-6.52v0c-0.21333,0 -0.39667,0.07667 -0.55,0.23v0v0c-0.15333,0.15333 -0.23,0.33667 -0.23,0.55v0zM127.91,418.862h-4.24v0c-0.68,0 -1.25333,-0.23667 -1.72,-0.71v0v0c-0.46667,-0.47333 -0.7,-1.04333 -0.7,-1.71v0v-12.98h1.64v3.8h5.02v1.64h-5.02v7.54v0c0,0.21333 0.07667,0.39667 0.23,0.55v0v0c0.15333,0.15333 0.33667,0.23 0.55,0.23v0h4.24zM129.47,421.482v0v-4.26h1.64v1.96v0c0,0.53333 -0.15333,1.01 -0.46,1.43v0v0c-0.30667,0.42 -0.7,0.71 -1.18,0.87zM386.46,393.782h-1.62v-12.78h-6.4v-1.62h14.4v1.62h-6.38zM401.16,393.782h-6.96v0c-0.66667,0 -1.23667,-0.23667 -1.71,-0.71v0v0c-0.47333,-0.47333 -0.71,-1.04333 -0.71,-1.71v0v-6.76v0c0,-0.66667 0.23667,-1.23667 0.71,-1.71v0v0c0.47333,-0.47333 1.04333,-0.71 1.71,-0.71v0h6.96v0c0.68,0 1.25667,0.23667 1.73,0.71v0v0c0.47333,0.47333 0.71,1.04333 0.71,1.71v0v6.76v0c0,0.66667 -0.23667,1.23667 -0.71,1.71v0v0c-0.47333,0.47333 -1.05,0.71 -1.73,0.71zM394.2,392.142v0h6.96v0c0.21333,0 0.39667,-0.07667 0.55,-0.23v0v0c0.15333,-0.15333 0.23,-0.33667 0.23,-0.55v0v-6.76v0c0,-0.21333 -0.07667,-0.39667 -0.23,-0.55v0v0c-0.15333,-0.15333 -0.33667,-0.23 -0.55,-0.23v0h-6.96v0c-0.21333,0 -0.39667,0.07667 -0.55,0.23v0v0c-0.15333,0.15333 -0.23,0.33667 -0.23,0.55v0v6.76v0c0,0.21333 0.07667,0.39667 0.23,0.55v0v0c0.15333,0.15333 0.33667,0.23 0.55,0.23zM274.28,393.782h-13.14v-14.4h13.14v1.62h-11.52v4.76h9.26v1.64h-9.26v4.76h11.52zM290.78,393.782h-11.96v0c-0.66667,0 -1.23333,-0.23333 -1.7,-0.7v0v0c-0.46667,-0.46667 -0.7,-1.03333 -0.7,-1.7v0v-9.6v0c0,-0.66667 0.23333,-1.23333 0.7,-1.7v0v0c0.46667,-0.46667 1.03333,-0.7 1.7,-0.7v0h11.96v1.62h-11.96v0c-0.21333,0 -0.39667,0.07667 -0.55,0.23v0v0c-0.15333,0.15333 -0.23,0.33667 -0.23,0.55v0v9.6v0c0,0.21333 0.07667,0.39667 0.23,0.55v0v0c0.15333,0.15333 0.33667,0.23 0.55,0.23v0h11.96zM304.82,393.782h-9.6v0c-0.66667,0 -1.23333,-0.23333 -1.7,-0.7v0v0c-0.46667,-0.46667 -0.7,-1.03333 -0.7,-1.7v0v-9.6v0c0,-0.66667 0.23333,-1.23333 0.7,-1.7v0v0c0.46667,-0.46667 1.03333,-0.7 1.7,-0.7v0h9.6v0c0.66667,0 1.23333,0.23333 1.7,0.7v0v0c0.46667,0.46667 0.7,1.03333 0.7,1.7v0v9.6v0c0,0.66667 -0.23333,1.23333 -0.7,1.7v0v0c-0.46667,0.46667 -1.03333,0.7 -1.7,0.7zM295.22,392.162v0h9.6v0c0.21333,0 0.39667,-0.07667 0.55,-0.23v0v0c0.15333,-0.15333 0.23,-0.33667 0.23,-0.55v0v-9.6v0c0,-0.21333 -0.07667,-0.39667 -0.23,-0.55v0v0c-0.15333,-0.15333 -0.33667,-0.23 -0.55,-0.23v0h-9.6v0c-0.21333,0 -0.39667,0.07667 -0.55,0.23v0v0c-0.15333,0.15333 -0.23,0.33667 -0.23,0.55v0v9.6v0c0,0.21333 0.07667,0.39667 0.23,0.55v0v0c0.15333,0.15333 0.33667,0.23 0.55,0.23zM321.14,393.782h-9.4v0c-0.66667,0 -1.23667,-0.23667 -1.71,-0.71v0v0c-0.47333,-0.47333 -0.71,-1.04333 -0.71,-1.71v0v-6.76v0c0,-0.66667 0.23667,-1.23667 0.71,-1.71v0v0c0.47333,-0.47333 1.04333,-0.71 1.71,-0.71v0h9.36v1.64h-9.36v0c-0.21333,0 -0.39667,0.07667 -0.55,0.23v0v0c-0.15333,0.15333 -0.23,0.33667 -0.23,0.55v0v6.76v0c0,0.21333 0.07667,0.39667 0.23,0.55v0v0c0.15333,0.15333 0.33667,0.23 0.55,0.23v0h9.4zM324.88,393.782h-1.64v-9.18v0c0,-0.66667 0.23667,-1.23667 0.71,-1.71v0v0c0.47333,-0.47333 1.04333,-0.71 1.71,-0.71v0h6.52v1.64h-6.52v0c-0.21333,0 -0.39667,0.07667 -0.55,0.23v0v0c-0.15333,0.15333 -0.23,0.33667 -0.23,0.55v0zM345.28,393.782h-9.4v0c-0.66667,0 -1.23667,-0.23667 -1.71,-0.71v0v0c-0.47333,-0.47333 -0.71,-1.04333 -0.71,-1.71v0v-6.76v0c0,-0.66667 0.23667,-1.23667 0.71,-1.71v0v0c0.47333,-0.47333 1.04333,-0.71 1.71,-0.71v0h6.96v0c0.68,0 1.25667,0.23667 1.73,0.71v0v0c0.47333,0.47333 0.71,1.04333 0.71,1.71v0v4.2h-10.18v2.56v0c0,0.21333 0.07667,0.39667 0.23,0.55v0v0c0.15333,0.15333 0.33667,0.23 0.55,0.23v0h9.4zM335.1,384.602v2.56h8.52v-2.56v0c0,-0.21333 -0.07667,-0.39667 -0.23,-0.55v0v0c-0.15333,-0.15333 -0.33667,-0.23 -0.55,-0.23v0h-6.96v0c-0.21333,0 -0.39667,0.07667 -0.55,0.23v0v0c-0.15333,0.15333 -0.23,0.33667 -0.23,0.55zM354,393.782h-4.24v0c-0.68,0 -1.25333,-0.23667 -1.72,-0.71v0v0c-0.46667,-0.47333 -0.7,-1.04333 -0.7,-1.71v0v-12.98h1.64v3.8h5.02v1.64h-5.02v7.54v0c0,0.21333 0.07667,0.39667 0.23,0.55v0v0c0.15333,0.15333 0.33667,0.23 0.55,0.23v0h4.24zM367.32,393.782h-9.4v0c-0.66667,0 -1.23667,-0.23667 -1.71,-0.71v0v0c-0.47333,-0.47333 -0.71,-1.04333 -0.71,-1.71v0v-6.76v0c0,-0.66667 0.23667,-1.23667 0.71,-1.71v0v0c0.47333,-0.47333 1.04333,-0.71 1.71,-0.71v0h6.96v0c0.68,0 1.25667,0.23667 1.73,0.71v0v0c0.47333,0.47333 0.71,1.04333 0.71,1.71v0v4.2h-10.18v2.56v0c0,0.21333 0.07667,0.39667 0.23,0.55v0v0c0.15333,0.15333 0.33667,0.23 0.55,0.23v0h9.4zM357.14,384.602v2.56h8.52v-2.56v0c0,-0.21333 -0.07667,-0.39667 -0.23,-0.55v0v0c-0.15333,-0.15333 -0.33667,-0.23 -0.55,-0.23v0h-6.96v0c-0.21333,0 -0.39667,0.07667 -0.55,0.23v0v0c-0.15333,0.15333 -0.23,0.33667 -0.23,0.55zM371.04,393.782h-1.64v-1.64h1.64zM242.96,393.782h-6.96v0c-0.66667,0 -1.23667,-0.23667 -1.71,-0.71v0v0c-0.47333,-0.47333 -0.71,-1.04333 -0.71,-1.71v0v-6.76v0c0,-0.66667 0.23667,-1.23667 0.71,-1.71v0v0c0.47333,-0.47333 1.04333,-0.71 1.71,-0.71v0h6.96v0c0.68,0 1.25667,0.23667 1.73,0.71v0v0c0.47333,0.47333 0.71,1.04333 0.71,1.71v0v6.76v0c0,0.66667 -0.23667,1.23667 -0.71,1.71v0v0c-0.47333,0.47333 -1.05,0.71 -1.73,0.71zM236,392.142v0h6.96v0c0.21333,0 0.39667,-0.07667 0.55,-0.23v0v0c0.15333,-0.15333 0.23,-0.33667 0.23,-0.55v0v-6.76v0c0,-0.21333 -0.07667,-0.39667 -0.23,-0.55v0v0c-0.15333,-0.15333 -0.33667,-0.23 -0.55,-0.23v0h-6.96v0c-0.21333,0 -0.39667,0.07667 -0.55,0.23v0v0c-0.15333,0.15333 -0.23,0.33667 -0.23,0.55v0v6.76v0c0,0.21333 0.07667,0.39667 0.23,0.55v0v0c0.15333,0.15333 0.33667,0.23 0.55,0.23zM249.1,393.782h-1.64v-12.98v0c0,-0.68 0.23333,-1.25333 0.7,-1.72v0v0c0.46667,-0.46667 1.04,-0.7 1.72,-0.7v0h4.24v1.64h-4.24v0c-0.21333,0 -0.39667,0.07667 -0.55,0.23v0v0c-0.15333,0.15333 -0.23,0.33667 -0.23,0.55v0v1.38h5.02v1.64h-5.02zM138,393.782h-1.9l-6.4,-11.6h1.92l5.44,10l5.44,-10h1.92zM157.94,393.782h-9.4v0c-0.66667,0 -1.23667,-0.23667 -1.71,-0.71v0v0c-0.47333,-0.47333 -0.71,-1.04333 -0.71,-1.71v0v-4.2h10.16v-2.56v0c0,-0.21333 -0.07667,-0.39667 -0.23,-0.55v0v0c-0.15333,-0.15333 -0.33667,-0.23 -0.55,-0.23v0h-9.38v-1.64h9.38v0c0.68,0 1.25667,0.23667 1.73,0.71v0v0c0.47333,0.47333 0.71,1.04333 0.71,1.71v0zM148.54,392.142v0h7.74v-3.34h-8.52v2.56v0c0,0.21333 0.07667,0.39667 0.23,0.55v0v0c0.15333,0.15333 0.33667,0.23 0.55,0.23zM161.54,393.782h-1.64v-9.18v0c0,-0.66667 0.23667,-1.23667 0.71,-1.71v0v0c0.47333,-0.47333 1.04333,-0.71 1.71,-0.71v0h6.52v1.64h-6.52v0c-0.21333,0 -0.39667,0.07667 -0.55,0.23v0v0c-0.15333,0.15333 -0.23,0.33667 -0.23,0.55v0zM171.78,393.782h-1.64v-11.6h1.64zM171.78,380.022h-1.64v-1.64h1.64zM186.1,393.782h-9.4v0c-0.66667,0 -1.23667,-0.23667 -1.71,-0.71v0v0c-0.47333,-0.47333 -0.71,-1.04333 -0.71,-1.71v0v-6.76v0c0,-0.66667 0.23667,-1.23667 0.71,-1.71v0v0c0.47333,-0.47333 1.04333,-0.71 1.71,-0.71v0h6.96v0c0.68,0 1.25667,0.23667 1.73,0.71v0v0c0.47333,0.47333 0.71,1.04333 0.71,1.71v0v4.2h-10.18v2.56v0c0,0.21333 0.07667,0.39667 0.23,0.55v0v0c0.15333,0.15333 0.33667,0.23 0.55,0.23v0h9.4zM175.92,384.602v2.56h8.52v-2.56v0c0,-0.21333 -0.07667,-0.39667 -0.23,-0.55v0v0c-0.15333,-0.15333 -0.33667,-0.23 -0.55,-0.23v0h-6.96v0c-0.21333,0 -0.39667,0.07667 -0.55,0.23v0v0c-0.15333,0.15333 -0.23,0.33667 -0.23,0.55zM194.82,393.782h-4.24v0c-0.68,0 -1.25333,-0.23667 -1.72,-0.71v0v0c-0.46667,-0.47333 -0.7,-1.04333 -0.7,-1.71v0v-12.98h1.64v3.8h5.02v1.64h-5.02v7.54v0c0,0.21333 0.07667,0.39667 0.23,0.55v0v0c0.15333,0.15333 0.33667,0.23 0.55,0.23v0h4.24zM198.08,393.782h-1.64v-11.6h1.64zM198.08,380.022h-1.64v-1.64h1.64zM212.4,393.782h-9.4v0c-0.66667,0 -1.23667,-0.23667 -1.71,-0.71v0v0c-0.47333,-0.47333 -0.71,-1.04333 -0.71,-1.71v0v-6.76v0c0,-0.66667 0.23667,-1.23667 0.71,-1.71v0v0c0.47333,-0.47333 1.04333,-0.71 1.71,-0.71v0h6.96v0c0.68,0 1.25667,0.23667 1.73,0.71v0v0c0.47333,0.47333 0.71,1.04333 0.71,1.71v0v4.2h-10.18v2.56v0c0,0.21333 0.07667,0.39667 0.23,0.55v0v0c0.15333,0.15333 0.33667,0.23 0.55,0.23v0h9.4zM202.22,384.602v2.56h8.52v-2.56v0c0,-0.21333 -0.07667,-0.39667 -0.23,-0.55v0v0c-0.15333,-0.15333 -0.33667,-0.23 -0.55,-0.23v0h-6.96v0c-0.21333,0 -0.39667,0.07667 -0.55,0.23v0v0c-0.15333,0.15333 -0.23,0.33667 -0.23,0.55zM223.74,393.782h-6.96v0c-0.66667,0 -1.23667,-0.23667 -1.71,-0.71v0v0c-0.47333,-0.47333 -0.71,-1.04333 -0.71,-1.71v0v-0.16h1.64v0.16v0c0,0.21333 0.07667,0.39667 0.23,0.55v0v0c0.15333,0.15333 0.33667,0.23 0.55,0.23v0h6.96v0c0.21333,0 0.39667,-0.07667 0.55,-0.23v0v0c0.15333,-0.15333 0.23,-0.33667 0.23,-0.55v0v-1.78v0c0,-0.21333 -0.07667,-0.39667 -0.23,-0.55v0v0c-0.15333,-0.15333 -0.33667,-0.23 -0.55,-0.23v0h-6.96v0c-0.66667,0 -1.23667,-0.23667 -1.71,-0.71v0v0c-0.47333,-0.47333 -0.71,-1.04333 -0.71,-1.71v0v-1.78v0c0,-0.66667 0.23667,-1.23667 0.71,-1.71v0v0c0.47333,-0.47333 1.04333,-0.71 1.71,-0.71v0h6.96v0c0.68,0 1.25667,0.23667 1.73,0.71v0v0c0.47333,0.47333 0.71,1.04333 0.71,1.71v0v0.16h-1.66v-0.16v0c0,-0.21333 -0.07667,-0.39667 -0.23,-0.55v0v0c-0.15333,-0.15333 -0.33667,-0.23 -0.55,-0.23v0h-6.96v0c-0.21333,0 -0.39667,0.07667 -0.55,0.23v0v0c-0.15333,0.15333 -0.23,0.33667 -0.23,0.55v0v1.78v0c0,0.21333 0.07667,0.39667 0.23,0.55v0v0c0.15333,0.15333 0.33667,0.23 0.55,0.23v0h6.96v0c0.68,0 1.25667,0.23667 1.73,0.71v0v0c0.47333,0.47333 0.71,1.04333 0.71,1.71v0v1.78v0c0,0.66667 -0.23667,1.23667 -0.71,1.71v0v0c-0.47333,0.47333 -1.05,0.71 -1.73,0.71zM78.58,393.782h-1.64v-11.6h9.4v0c0.66667,0 1.23667,0.23667 1.71,0.71v0v0c0.47333,0.47333 0.71,1.04333 0.71,1.71v0v9.18h-1.64v-9.18v0c0,-0.21333 -0.07667,-0.39667 -0.23,-0.55v0v0c-0.15333,-0.15333 -0.33667,-0.23 -0.55,-0.23v0h-6.96v0c-0.21333,0 -0.4,0.07667 -0.56,0.23v0v0c-0.16,0.15333 -0.24,0.33667 -0.24,0.55v0zM102.62,393.782h-9.4v0c-0.66667,0 -1.23667,-0.23667 -1.71,-0.71v0v0c-0.47333,-0.47333 -0.71,-1.04333 -0.71,-1.71v0v-6.76v0c0,-0.66667 0.23667,-1.23667 0.71,-1.71v0v0c0.47333,-0.47333 1.04333,-0.71 1.71,-0.71v0h6.96v0c0.68,0 1.25667,0.23667 1.73,0.71v0v0c0.47333,0.47333 0.71,1.04333 0.71,1.71v0v4.2h-10.18v2.56v0c0,0.21333 0.07667,0.39667 0.23,0.55v0v0c0.15333,0.15333 0.33667,0.23 0.55,0.23v0h9.4zM92.44,384.602v2.56h8.52v-2.56v0c0,-0.21333 -0.07667,-0.39667 -0.23,-0.55v0v0c-0.15333,-0.15333 -0.33667,-0.23 -0.55,-0.23v0h-6.96v0c-0.21333,0 -0.39667,0.07667 -0.55,0.23v0v0c-0.15333,0.15333 -0.23,0.33667 -0.23,0.55zM109.72,393.782h-1.44l-4.56,-11.6h1.76l3.52,8.64l3.74,-8.64h2.16l3.98,8.62l3.28,-8.62h1.78l-4.38,11.6h-1.42l-4.32,-9.58zM379.73,368.702h-6.96v0c-0.66667,0 -1.23667,-0.23667 -1.71,-0.71v0v0c-0.47333,-0.47333 -0.71,-1.04333 -0.71,-1.71v0v-9.18h1.64v9.18v0c0,0.21333 0.07667,0.39667 0.23,0.55v0v0c0.15333,0.15333 0.33667,0.23 0.55,0.23v0h6.96v0c0.21333,0 0.4,-0.07667 0.56,-0.23v0v0c0.16,-0.15333 0.24,-0.33667 0.24,-0.55v0v-9.18h1.64v9.18v0c0,0.66667 -0.23667,1.23667 -0.71,1.71v0v0c-0.47333,0.47333 -1.05,0.71 -1.73,0.71zM393.23,368.702h-6.96v0c-0.66667,0 -1.23667,-0.23667 -1.71,-0.71v0v0c-0.47333,-0.47333 -0.71,-1.04333 -0.71,-1.71v0v-0.16h1.64v0.16v0c0,0.21333 0.07667,0.39667 0.23,0.55v0v0c0.15333,0.15333 0.33667,0.23 0.55,0.23v0h6.96v0c0.21333,0 0.39667,-0.07667 0.55,-0.23v0v0c0.15333,-0.15333 0.23,-0.33667 0.23,-0.55v0v-1.78v0c0,-0.21333 -0.07667,-0.39667 -0.23,-0.55v0v0c-0.15333,-0.15333 -0.33667,-0.23 -0.55,-0.23v0h-6.96v0c-0.66667,0 -1.23667,-0.23667 -1.71,-0.71v0v0c-0.47333,-0.47333 -0.71,-1.04333 -0.71,-1.71v0v-1.78v0c0,-0.66667 0.23667,-1.23667 0.71,-1.71v0v0c0.47333,-0.47333 1.04333,-0.71 1.71,-0.71v0h6.96v0c0.68,0 1.25667,0.23667 1.73,0.71v0v0c0.47333,0.47333 0.71,1.04333 0.71,1.71v0v0.16h-1.66v-0.16v0c0,-0.21333 -0.07667,-0.39667 -0.23,-0.55v0v0c-0.15333,-0.15333 -0.33667,-0.23 -0.55,-0.23v0h-6.96v0c-0.21333,0 -0.39667,0.07667 -0.55,0.23v0v0c-0.15333,0.15333 -0.23,0.33667 -0.23,0.55v0v1.78v0c0,0.21333 0.07667,0.39667 0.23,0.55v0v0c0.15333,0.15333 0.33667,0.23 0.55,0.23v0h6.96v0c0.68,0 1.25667,0.23667 1.73,0.71v0v0c0.47333,0.47333 0.71,1.04333 0.71,1.71v0v1.78v0c0,0.66667 -0.23667,1.23667 -0.71,1.71v0v0c-0.47333,0.47333 -1.05,0.71 -1.73,0.71zM409.15,368.702h-9.4v0c-0.66667,0 -1.23667,-0.23667 -1.71,-0.71v0v0c-0.47333,-0.47333 -0.71,-1.04333 -0.71,-1.71v0v-6.76v0c0,-0.66667 0.23667,-1.23667 0.71,-1.71v0v0c0.47333,-0.47333 1.04333,-0.71 1.71,-0.71v0h6.96v0c0.68,0 1.25667,0.23667 1.73,0.71v0v0c0.47333,0.47333 0.71,1.04333 0.71,1.71v0v4.2h-10.18v2.56v0c0,0.21333 0.07667,0.39667 0.23,0.55v0v0c0.15333,0.15333 0.33667,0.23 0.55,0.23v0h9.4zM398.97,359.522v2.56h8.52v-2.56v0c0,-0.21333 -0.07667,-0.39667 -0.23,-0.55v0v0c-0.15333,-0.15333 -0.33667,-0.23 -0.55,-0.23v0h-6.96v0c-0.21333,0 -0.39667,0.07667 -0.55,0.23v0v0c-0.15333,0.15333 -0.23,0.33667 -0.23,0.55zM349.53,368.702h-4.24v0c-0.68,0 -1.25333,-0.23667 -1.72,-0.71v0v0c-0.46667,-0.47333 -0.7,-1.04333 -0.7,-1.71v0v-12.98h1.64v3.8h5.02v1.64h-5.02v7.54v0c0,0.21333 0.07667,0.39667 0.23,0.55v0v0c0.15333,0.15333 0.33667,0.23 0.55,0.23v0h4.24zM360.41,368.702h-6.96v0c-0.66667,0 -1.23667,-0.23667 -1.71,-0.71v0v0c-0.47333,-0.47333 -0.71,-1.04333 -0.71,-1.71v0v-6.76v0c0,-0.66667 0.23667,-1.23667 0.71,-1.71v0v0c0.47333,-0.47333 1.04333,-0.71 1.71,-0.71v0h6.96v0c0.68,0 1.25667,0.23667 1.73,0.71v0v0c0.47333,0.47333 0.71,1.04333 0.71,1.71v0v6.76v0c0,0.66667 -0.23667,1.23667 -0.71,1.71v0v0c-0.47333,0.47333 -1.05,0.71 -1.73,0.71zM353.45,367.062v0h6.96v0c0.21333,0 0.39667,-0.07667 0.55,-0.23v0v0c0.15333,-0.15333 0.23,-0.33667 0.23,-0.55v0v-6.76v0c0,-0.21333 -0.07667,-0.39667 -0.23,-0.55v0v0c-0.15333,-0.15333 -0.33667,-0.23 -0.55,-0.23v0h-6.96v0c-0.21333,0 -0.39667,0.07667 -0.55,0.23v0v0c-0.15333,0.15333 -0.23,0.33667 -0.23,0.55v0v6.76v0c0,0.21333 0.07667,0.39667 0.23,0.55v0v0c0.15333,0.15333 0.33667,0.23 0.55,0.23zM306.53,373.302h-7.24v-1.66h7.24v0c0.21333,0 0.39667,-0.07667 0.55,-0.23v0v0c0.15333,-0.15333 0.23,-0.33667 0.23,-0.55v0v-2.16h-7.74v0c-0.66667,0 -1.23667,-0.23667 -1.71,-0.71v0v0c-0.47333,-0.47333 -0.71,-1.04333 -0.71,-1.71v0v-9.14h1.64v9.14v0c0,0.21333 0.07667,0.39667 0.23,0.55v0v0c0.15333,0.15333 0.33667,0.23 0.55,0.23v0h6.96v0c0.21333,0 0.39667,-0.07667 0.55,-0.23v0v0c0.15333,-0.15333 0.23,-0.33667 0.23,-0.55v0v-9.14h1.64v13.72v0c0,0.68 -0.23333,1.25667 -0.7,1.73v0v0c-0.46667,0.47333 -1.04,0.71 -1.72,0.71zM319.95,368.702h-6.96v0c-0.66667,0 -1.23667,-0.23667 -1.71,-0.71v0v0c-0.47333,-0.47333 -0.71,-1.04333 -0.71,-1.71v0v-6.76v0c0,-0.66667 0.23667,-1.23667 0.71,-1.71v0v0c0.47333,-0.47333 1.04333,-0.71 1.71,-0.71v0h6.96v0c0.68,0 1.25667,0.23667 1.73,0.71v0v0c0.47333,0.47333 0.71,1.04333 0.71,1.71v0v6.76v0c0,0.66667 -0.23667,1.23667 -0.71,1.71v0v0c-0.47333,0.47333 -1.05,0.71 -1.73,0.71zM312.99,367.062v0h6.96v0c0.21333,0 0.39667,-0.07667 0.55,-0.23v0v0c0.15333,-0.15333 0.23,-0.33667 0.23,-0.55v0v-6.76v0c0,-0.21333 -0.07667,-0.39667 -0.23,-0.55v0v0c-0.15333,-0.15333 -0.33667,-0.23 -0.55,-0.23v0h-6.96v0c-0.21333,0 -0.39667,0.07667 -0.55,0.23v0v0c-0.15333,0.15333 -0.23,0.33667 -0.23,0.55v0v6.76v0c0,0.21333 0.07667,0.39667 0.23,0.55v0v0c0.15333,0.15333 0.33667,0.23 0.55,0.23zM333.37,368.702h-6.96v0c-0.66667,0 -1.23667,-0.23667 -1.71,-0.71v0v0c-0.47333,-0.47333 -0.71,-1.04333 -0.71,-1.71v0v-9.18h1.64v9.18v0c0,0.21333 0.07667,0.39667 0.23,0.55v0v0c0.15333,0.15333 0.33667,0.23 0.55,0.23v0h6.96v0c0.21333,0 0.4,-0.07667 0.56,-0.23v0v0c0.16,-0.15333 0.24,-0.33667 0.24,-0.55v0v-9.18h1.64v9.18v0c0,0.66667 -0.23667,1.23667 -0.71,1.71v0v0c-0.47333,0.47333 -1.05,0.71 -1.73,0.71zM212.17,368.702h-9.4v0c-0.66667,0 -1.23667,-0.23667 -1.71,-0.71v0v0c-0.47333,-0.47333 -0.71,-1.04333 -0.71,-1.71v0v-4.2h10.16v-2.56v0c0,-0.21333 -0.07667,-0.39667 -0.23,-0.55v0v0c-0.15333,-0.15333 -0.33667,-0.23 -0.55,-0.23v0h-9.38v-1.64h9.38v0c0.68,0 1.25667,0.23667 1.73,0.71v0v0c0.47333,0.47333 0.71,1.04333 0.71,1.71v0zM202.77,367.062v0h7.74v-3.34h-8.52v2.56v0c0,0.21333 0.07667,0.39667 0.23,0.55v0v0c0.15333,0.15333 0.33667,0.23 0.55,0.23zM218.41,368.702h-1.96v0c-0.66667,0 -1.23667,-0.23667 -1.71,-0.71v0v0c-0.47333,-0.47333 -0.71,-1.04333 -0.71,-1.71v0v-12.98h1.64v12.98v0c0,0.21333 0.07667,0.39667 0.23,0.55v0v0c0.15333,0.15333 0.33667,0.23 0.55,0.23v0h1.96zM224.45,368.702h-1.96v0c-0.66667,0 -1.23667,-0.23667 -1.71,-0.71v0v0c-0.47333,-0.47333 -0.71,-1.04333 -0.71,-1.71v0v-12.98h1.64v12.98v0c0,0.21333 0.07667,0.39667 0.23,0.55v0v0c0.15333,0.15333 0.33667,0.23 0.55,0.23v0h1.96zM235.27,368.702h-6.96v0c-0.66667,0 -1.23667,-0.23667 -1.71,-0.71v0v0c-0.47333,-0.47333 -0.71,-1.04333 -0.71,-1.71v0v-6.76v0c0,-0.66667 0.23667,-1.23667 0.71,-1.71v0v0c0.47333,-0.47333 1.04333,-0.71 1.71,-0.71v0h6.96v0c0.68,0 1.25667,0.23667 1.73,0.71v0v0c0.47333,0.47333 0.71,1.04333 0.71,1.71v0v6.76v0c0,0.66667 -0.23667,1.23667 -0.71,1.71v0v0c-0.47333,0.47333 -1.05,0.71 -1.73,0.71zM228.31,367.062v0h6.96v0c0.21333,0 0.39667,-0.07667 0.55,-0.23v0v0c0.15333,-0.15333 0.23,-0.33667 0.23,-0.55v0v-6.76v0c0,-0.21333 -0.07667,-0.39667 -0.23,-0.55v0v0c-0.15333,-0.15333 -0.33667,-0.23 -0.55,-0.23v0h-6.96v0c-0.21333,0 -0.39667,0.07667 -0.55,0.23v0v0c-0.15333,0.15333 -0.23,0.33667 -0.23,0.55v0v6.76v0c0,0.21333 0.07667,0.39667 0.23,0.55v0v0c0.15333,0.15333 0.33667,0.23 0.55,0.23zM244.71,368.702h-1.44l-4.56,-11.6h1.76l3.52,8.64l3.74,-8.64h2.16l3.98,8.62l3.28,-8.62h1.78l-4.38,11.6h-1.42l-4.32,-9.58zM262.11,368.702h-1.64v-11.6h1.64zM262.11,354.942h-1.64v-1.64h1.64zM266.01,368.702h-1.64v-11.6h9.4v0c0.66667,0 1.23667,0.23667 1.71,0.71v0v0c0.47333,0.47333 0.71,1.04333 0.71,1.71v0v9.18h-1.64v-9.18v0c0,-0.21333 -0.07667,-0.39667 -0.23,-0.55v0v0c-0.15333,-0.15333 -0.33667,-0.23 -0.55,-0.23v0h-6.96v0c-0.21333,0 -0.4,0.07667 -0.56,0.23v0v0c-0.16,0.15333 -0.24,0.33667 -0.24,0.55v0zM287.41,373.282h-7.24v-1.66h7.24v0c0.21333,0 0.39667,-0.07667 0.55,-0.23v0v0c0.15333,-0.15333 0.23,-0.33667 0.23,-0.55v0v-2.14h-7.74v0c-0.66667,0 -1.23667,-0.23667 -1.71,-0.71v0v0c-0.47333,-0.47333 -0.71,-1.04333 -0.71,-1.71v0v-6.76v0c0,-0.66667 0.23667,-1.23667 0.71,-1.71v0v0c0.47333,-0.47333 1.04333,-0.71 1.71,-0.71v0h6.96v0c0.68,0 1.25333,0.23667 1.72,0.71v0v0c0.46667,0.47333 0.7,1.04333 0.7,1.71v0v11.32v0c0,0.68 -0.23333,1.25667 -0.7,1.73v0v0c-0.46667,0.47333 -1.04,0.71 -1.72,0.71zM280.45,367.062v0h6.96v0c0.21333,0 0.39667,-0.07667 0.55,-0.23v0v0c0.15333,-0.15333 0.23,-0.33667 0.23,-0.55v0v-6.76v0c0,-0.21333 -0.07667,-0.39667 -0.23,-0.55v0v0c-0.15333,-0.15333 -0.33667,-0.23 -0.55,-0.23v0h-6.96v0c-0.21333,0 -0.39667,0.07667 -0.55,0.23v0v0c-0.15333,0.15333 -0.23,0.33667 -0.23,0.55v0v6.76v0c0,0.21333 0.07667,0.39667 0.23,0.55v0v0c0.15333,0.15333 0.33667,0.23 0.55,0.23zM82.45,368.702h-13.14v-14.4h13.14v1.62h-11.52v4.76h9.26v1.64h-9.26v4.76h11.52zM98.95,368.702h-11.96v0c-0.66667,0 -1.23333,-0.23333 -1.7,-0.7v0v0c-0.46667,-0.46667 -0.7,-1.03333 -0.7,-1.7v0v-9.6v0c0,-0.66667 0.23333,-1.23333 0.7,-1.7v0v0c0.46667,-0.46667 1.03333,-0.7 1.7,-0.7v0h11.96v1.62h-11.96v0c-0.21333,0 -0.39667,0.07667 -0.55,0.23v0v0c-0.15333,0.15333 -0.23,0.33667 -0.23,0.55v0v9.6v0c0,0.21333 0.07667,0.39667 0.23,0.55v0v0c0.15333,0.15333 0.33667,0.23 0.55,0.23v0h11.96zM112.99,368.702h-9.6v0c-0.66667,0 -1.23333,-0.23333 -1.7,-0.7v0v0c-0.46667,-0.46667 -0.7,-1.03333 -0.7,-1.7v0v-9.6v0c0,-0.66667 0.23333,-1.23333 0.7,-1.7v0v0c0.46667,-0.46667 1.03333,-0.7 1.7,-0.7v0h9.6v0c0.66667,0 1.23333,0.23333 1.7,0.7v0v0c0.46667,0.46667 0.7,1.03333 0.7,1.7v0v9.6v0c0,0.66667 -0.23333,1.23333 -0.7,1.7v0v0c-0.46667,0.46667 -1.03333,0.7 -1.7,0.7zM103.39,367.082v0h9.6v0c0.21333,0 0.39667,-0.07667 0.55,-0.23v0v0c0.15333,-0.15333 0.23,-0.33667 0.23,-0.55v0v-9.6v0c0,-0.21333 -0.07667,-0.39667 -0.23,-0.55v0v0c-0.15333,-0.15333 -0.33667,-0.23 -0.55,-0.23v0h-9.6v0c-0.21333,0 -0.39667,0.07667 -0.55,0.23v0v0c-0.15333,0.15333 -0.23,0.33667 -0.23,0.55v0v9.6v0c0,0.21333 0.07667,0.39667 0.23,0.55v0v0c0.15333,0.15333 0.33667,0.23 0.55,0.23zM119.19,368.702h-1.64v-11.6h9.4v0c0.66667,0 1.23667,0.23667 1.71,0.71v0v0c0.47333,0.47333 0.71,1.04333 0.71,1.71v0v9.18h-1.64v-9.18v0c0,-0.21333 -0.07667,-0.39667 -0.23,-0.55v0v0c-0.15333,-0.15333 -0.33667,-0.23 -0.55,-0.23v0h-6.96v0c-0.21333,0 -0.4,0.07667 -0.56,0.23v0v0c-0.16,0.15333 -0.24,0.33667 -0.24,0.55v0zM142.83,368.702h-9.4v0c-0.66667,0 -1.23667,-0.23667 -1.71,-0.71v0v0c-0.47333,-0.47333 -0.71,-1.04333 -0.71,-1.71v0v-6.76v0c0,-0.66667 0.23667,-1.23667 0.71,-1.71v0v0c0.47333,-0.47333 1.04333,-0.71 1.71,-0.71v0h9.36v1.64h-9.36v0c-0.21333,0 -0.39667,0.07667 -0.55,0.23v0v0c-0.15333,0.15333 -0.23,0.33667 -0.23,0.55v0v6.76v0c0,0.21333 0.07667,0.39667 0.23,0.55v0v0c0.15333,0.15333 0.33667,0.23 0.55,0.23v0h9.4zM146.57,368.702h-1.64v-9.18v0c0,-0.66667 0.23667,-1.23667 0.71,-1.71v0v0c0.47333,-0.47333 1.04333,-0.71 1.71,-0.71v0h6.52v1.64h-6.52v0c-0.21333,0 -0.39667,0.07667 -0.55,0.23v0v0c-0.15333,0.15333 -0.23,0.33667 -0.23,0.55v0zM166.97,368.702h-9.4v0c-0.66667,0 -1.23667,-0.23667 -1.71,-0.71v0v0c-0.47333,-0.47333 -0.71,-1.04333 -0.71,-1.71v0v-6.76v0c0,-0.66667 0.23667,-1.23667 0.71,-1.71v0v0c0.47333,-0.47333 1.04333,-0.71 1.71,-0.71v0h6.96v0c0.68,0 1.25667,0.23667 1.73,0.71v0v0c0.47333,0.47333 0.71,1.04333 0.71,1.71v0v4.2h-10.18v2.56v0c0,0.21333 0.07667,0.39667 0.23,0.55v0v0c0.15333,0.15333 0.33667,0.23 0.55,0.23v0h9.4zM156.79,359.522v2.56h8.52v-2.56v0c0,-0.21333 -0.07667,-0.39667 -0.23,-0.55v0v0c-0.15333,-0.15333 -0.33667,-0.23 -0.55,-0.23v0h-6.96v0c-0.21333,0 -0.39667,0.07667 -0.55,0.23v0v0c-0.15333,0.15333 -0.23,0.33667 -0.23,0.55zM175.69,368.702h-4.24v0c-0.68,0 -1.25333,-0.23667 -1.72,-0.71v0v0c-0.46667,-0.47333 -0.7,-1.04333 -0.7,-1.71v0v-12.98h1.64v3.8h5.02v1.64h-5.02v7.54v0c0,0.21333 0.07667,0.39667 0.23,0.55v0v0c0.15333,0.15333 0.33667,0.23 0.55,0.23v0h4.24zM189.01,368.702h-9.4v0c-0.66667,0 -1.23667,-0.23667 -1.71,-0.71v0v0c-0.47333,-0.47333 -0.71,-1.04333 -0.71,-1.71v0v-6.76v0c0,-0.66667 0.23667,-1.23667 0.71,-1.71v0v0c0.47333,-0.47333 1.04333,-0.71 1.71,-0.71v0h6.96v0c0.68,0 1.25667,0.23667 1.73,0.71v0v0c0.47333,0.47333 0.71,1.04333 0.71,1.71v0v4.2h-10.18v2.56v0c0,0.21333 0.07667,0.39667 0.23,0.55v0v0c0.15333,0.15333 0.33667,0.23 0.55,0.23v0h9.4zM178.83,359.522v2.56h8.52v-2.56v0c0,-0.21333 -0.07667,-0.39667 -0.23,-0.55v0v0c-0.15333,-0.15333 -0.33667,-0.23 -0.55,-0.23v0h-6.96v0c-0.21333,0 -0.39667,0.07667 -0.55,0.23v0v0c-0.15333,0.15333 -0.23,0.33667 -0.23,0.55zM191.09,371.322v0v-4.26h1.64v1.96v0c0,0.53333 -0.15333,1.01 -0.46,1.43v0v0c-0.30667,0.42 -0.7,0.71 -1.18,0.87zM360.89,343.622h-6.96v0c-0.66667,0 -1.23667,-0.23667 -1.71,-0.71v0v0c-0.47333,-0.47333 -0.71,-1.04333 -0.71,-1.71v0v-6.76v0c0,-0.66667 0.23667,-1.23667 0.71,-1.71v0v0c0.47333,-0.47333 1.04333,-0.71 1.71,-0.71v0h6.96v0c0.68,0 1.25667,0.23667 1.73,0.71v0v0c0.47333,0.47333 0.71,1.04333 0.71,1.71v0v6.76v0c0,0.66667 -0.23667,1.23667 -0.71,1.71v0v0c-0.47333,0.47333 -1.05,0.71 -1.73,0.71zM353.93,341.982v0h6.96v0c0.21333,0 0.39667,-0.07667 0.55,-0.23v0v0c0.15333,-0.15333 0.23,-0.33667 0.23,-0.55v0v-6.76v0c0,-0.21333 -0.07667,-0.39667 -0.23,-0.55v0v0c-0.15333,-0.15333 -0.33667,-0.23 -0.55,-0.23v0h-6.96v0c-0.21333,0 -0.39667,0.07667 -0.55,0.23v0v0c-0.15333,0.15333 -0.23,0.33667 -0.23,0.55v0v6.76v0c0,0.21333 0.07667,0.39667 0.23,0.55v0v0c0.15333,0.15333 0.33667,0.23 0.55,0.23zM366.75,343.622h-1.64v-11.6h9.4v0c0.66667,0 1.23667,0.23667 1.71,0.71v0v0c0.47333,0.47333 0.71,1.04333 0.71,1.71v0v9.18h-1.64v-9.18v0c0,-0.21333 -0.07667,-0.39667 -0.23,-0.55v0v0c-0.15333,-0.15333 -0.33667,-0.23 -0.55,-0.23v0h-6.96v0c-0.21333,0 -0.4,0.07667 -0.56,0.23v0v0c-0.16,0.15333 -0.24,0.33667 -0.24,0.55v0zM308.03,343.622h-9.38v0c-0.68,0 -1.25667,-0.23667 -1.73,-0.71v0v0c-0.47333,-0.47333 -0.71,-1.04333 -0.71,-1.71v0v-6.76v0c0,-0.66667 0.23667,-1.23667 0.71,-1.71v0v0c0.47333,-0.47333 1.05,-0.71 1.73,-0.71v0h7.74v-3.8h1.64zM298.65,341.982v0h6.96v0c0.21333,0 0.39667,-0.07667 0.55,-0.23v0v0c0.15333,-0.15333 0.23,-0.33667 0.23,-0.55v0v-6.76v0c0,-0.21333 -0.07667,-0.39667 -0.23,-0.55v0v0c-0.15333,-0.15333 -0.33667,-0.23 -0.55,-0.23v0h-6.96v0c-0.21333,0 -0.39667,0.07667 -0.55,0.23v0v0c-0.15333,0.15333 -0.23,0.33667 -0.23,0.55v0v6.76v0c0,0.21333 0.07667,0.39667 0.23,0.55v0v0c0.15333,0.15333 0.33667,0.23 0.55,0.23zM321.95,343.622h-9.4v0c-0.66667,0 -1.23667,-0.23667 -1.71,-0.71v0v0c-0.47333,-0.47333 -0.71,-1.04333 -0.71,-1.71v0v-4.2h10.16v-2.56v0c0,-0.21333 -0.07667,-0.39667 -0.23,-0.55v0v0c-0.15333,-0.15333 -0.33667,-0.23 -0.55,-0.23v0h-9.38v-1.64h9.38v0c0.68,0 1.25667,0.23667 1.73,0.71v0v0c0.47333,0.47333 0.71,1.04333 0.71,1.71v0zM312.55,341.982v0h7.74v-3.34h-8.52v2.56v0c0,0.21333 0.07667,0.39667 0.23,0.55v0v0c0.15333,0.15333 0.33667,0.23 0.55,0.23zM330.69,343.622h-4.24v0c-0.68,0 -1.25333,-0.23667 -1.72,-0.71v0v0c-0.46667,-0.47333 -0.7,-1.04333 -0.7,-1.71v0v-12.98h1.64v3.8h5.02v1.64h-5.02v7.54v0c0,0.21333 0.07667,0.39667 0.23,0.55v0v0c0.15333,0.15333 0.33667,0.23 0.55,0.23v0h4.24zM344.03,343.622h-9.4v0c-0.66667,0 -1.23667,-0.23667 -1.71,-0.71v0v0c-0.47333,-0.47333 -0.71,-1.04333 -0.71,-1.71v0v-4.2h10.16v-2.56v0c0,-0.21333 -0.07667,-0.39667 -0.23,-0.55v0v0c-0.15333,-0.15333 -0.33667,-0.23 -0.55,-0.23v0h-9.38v-1.64h9.38v0c0.68,0 1.25667,0.23667 1.73,0.71v0v0c0.47333,0.47333 0.71,1.04333 0.71,1.71v0zM334.63,341.982v0h7.74v-3.34h-8.52v2.56v0c0,0.21333 0.07667,0.39667 0.23,0.55v0v0c0.15333,0.15333 0.33667,0.23 0.55,0.23zM235.77,343.622h-1.66v-11.6h15.32v0c0.68,0 1.25333,0.23667 1.72,0.71v0v0c0.46667,0.47333 0.7,1.04333 0.7,1.71v0v9.18h-1.62v-9.18v0c0,-0.21333 -0.08,-0.39667 -0.24,-0.55v0v0c-0.16,-0.15333 -0.34667,-0.23 -0.56,-0.23v0h-4.82v0c-0.21333,0 -0.39667,0.07667 -0.55,0.23v0v0c-0.15333,0.15333 -0.23,0.33667 -0.23,0.55v0v9.18h-1.66v-9.18v0c0,-0.21333 -0.07667,-0.39667 -0.23,-0.55v0v0c-0.15333,-0.15333 -0.33667,-0.23 -0.55,-0.23v0h-4.84v0c-0.21333,0 -0.39667,0.07667 -0.55,0.23v0v0c-0.15333,0.15333 -0.23,0.33667 -0.23,0.55v0zM262.99,343.622h-6.96v0c-0.66667,0 -1.23667,-0.23667 -1.71,-0.71v0v0c-0.47333,-0.47333 -0.71,-1.04333 -0.71,-1.71v0v-6.76v0c0,-0.66667 0.23667,-1.23667 0.71,-1.71v0v0c0.47333,-0.47333 1.04333,-0.71 1.71,-0.71v0h6.96v0c0.68,0 1.25667,0.23667 1.73,0.71v0v0c0.47333,0.47333 0.71,1.04333 0.71,1.71v0v6.76v0c0,0.66667 -0.23667,1.23667 -0.71,1.71v0v0c-0.47333,0.47333 -1.05,0.71 -1.73,0.71zM256.03,341.982v0h6.96v0c0.21333,0 0.39667,-0.07667 0.55,-0.23v0v0c0.15333,-0.15333 0.23,-0.33667 0.23,-0.55v0v-6.76v0c0,-0.21333 -0.07667,-0.39667 -0.23,-0.55v0v0c-0.15333,-0.15333 -0.33667,-0.23 -0.55,-0.23v0h-6.96v0c-0.21333,0 -0.39667,0.07667 -0.55,0.23v0v0c-0.15333,0.15333 -0.23,0.33667 -0.23,0.55v0v6.76v0c0,0.21333 0.07667,0.39667 0.23,0.55v0v0c0.15333,0.15333 0.33667,0.23 0.55,0.23zM268.91,343.622h-1.64v-9.18v0c0,-0.66667 0.23667,-1.23667 0.71,-1.71v0v0c0.47333,-0.47333 1.04333,-0.71 1.71,-0.71v0h6.52v1.64h-6.52v0c-0.21333,0 -0.39667,0.07667 -0.55,0.23v0v0c-0.15333,0.15333 -0.23,0.33667 -0.23,0.55v0zM289.31,343.622h-9.4v0c-0.66667,0 -1.23667,-0.23667 -1.71,-0.71v0v0c-0.47333,-0.47333 -0.71,-1.04333 -0.71,-1.71v0v-6.76v0c0,-0.66667 0.23667,-1.23667 0.71,-1.71v0v0c0.47333,-0.47333 1.04333,-0.71 1.71,-0.71v0h6.96v0c0.68,0 1.25667,0.23667 1.73,0.71v0v0c0.47333,0.47333 0.71,1.04333 0.71,1.71v0v4.2h-10.18v2.56v0c0,0.21333 0.07667,0.39667 0.23,0.55v0v0c0.15333,0.15333 0.33667,0.23 0.55,0.23v0h9.4zM279.13,334.442v2.56h8.52v-2.56v0c0,-0.21333 -0.07667,-0.39667 -0.23,-0.55v0v0c-0.15333,-0.15333 -0.33667,-0.23 -0.55,-0.23v0h-6.96v0c-0.21333,0 -0.39667,0.07667 -0.55,0.23v0v0c-0.15333,0.15333 -0.23,0.33667 -0.23,0.55zM193.07,348.202h-7.24v-1.66h7.24v0c0.21333,0 0.39667,-0.07667 0.55,-0.23v0v0c0.15333,-0.15333 0.23,-0.33667 0.23,-0.55v0v-2.14h-7.74v0c-0.66667,0 -1.23667,-0.23667 -1.71,-0.71v0v0c-0.47333,-0.47333 -0.71,-1.04333 -0.71,-1.71v0v-6.76v0c0,-0.66667 0.23667,-1.23667 0.71,-1.71v0v0c0.47333,-0.47333 1.04333,-0.71 1.71,-0.71v0h6.96v0c0.68,0 1.25333,0.23667 1.72,0.71v0v0c0.46667,0.47333 0.7,1.04333 0.7,1.71v0v11.32v0c0,0.68 -0.23333,1.25667 -0.7,1.73v0v0c-0.46667,0.47333 -1.04,0.71 -1.72,0.71zM186.11,341.982v0h6.96v0c0.21333,0 0.39667,-0.07667 0.55,-0.23v0v0c0.15333,-0.15333 0.23,-0.33667 0.23,-0.55v0v-6.76v0c0,-0.21333 -0.07667,-0.39667 -0.23,-0.55v0v0c-0.15333,-0.15333 -0.33667,-0.23 -0.55,-0.23v0h-6.96v0c-0.21333,0 -0.39667,0.07667 -0.55,0.23v0v0c-0.15333,0.15333 -0.23,0.33667 -0.23,0.55v0v6.76v0c0,0.21333 0.07667,0.39667 0.23,0.55v0v0c0.15333,0.15333 0.33667,0.23 0.55,0.23zM209.09,343.622h-9.4v0c-0.66667,0 -1.23667,-0.23667 -1.71,-0.71v0v0c-0.47333,-0.47333 -0.71,-1.04333 -0.71,-1.71v0v-4.2h10.16v-2.56v0c0,-0.21333 -0.07667,-0.39667 -0.23,-0.55v0v0c-0.15333,-0.15333 -0.33667,-0.23 -0.55,-0.23v0h-9.38v-1.64h9.38v0c0.68,0 1.25667,0.23667 1.73,0.71v0v0c0.47333,0.47333 0.71,1.04333 0.71,1.71v0zM199.69,341.982v0h7.74v-3.34h-8.52v2.56v0c0,0.21333 0.07667,0.39667 0.23,0.55v0v0c0.15333,0.15333 0.33667,0.23 0.55,0.23zM212.79,343.622h-1.64v-11.6h1.64zM212.79,329.862h-1.64v-1.64h1.64zM216.69,343.622h-1.64v-11.6h9.4v0c0.66667,0 1.23667,0.23667 1.71,0.71v0v0c0.47333,0.47333 0.71,1.04333 0.71,1.71v0v9.18h-1.64v-9.18v0c0,-0.21333 -0.07667,-0.39667 -0.23,-0.55v0v0c-0.15333,-0.15333 -0.33667,-0.23 -0.55,-0.23v0h-6.96v0c-0.21333,0 -0.4,0.07667 -0.56,0.23v0v0c-0.16,0.15333 -0.24,0.33667 -0.24,0.55v0zM146.47,343.622h-1.44l-4.56,-11.6h1.76l3.52,8.64l3.74,-8.64h2.16l3.98,8.62l3.28,-8.62h1.78l-4.38,11.6h-1.42l-4.32,-9.58zM163.87,343.622h-1.64v-11.6h1.64zM163.87,329.862h-1.64v-1.64h1.64zM170.77,343.622h-1.96v0c-0.66667,0 -1.23667,-0.23667 -1.71,-0.71v0v0c-0.47333,-0.47333 -0.71,-1.04333 -0.71,-1.71v0v-12.98h1.64v12.98v0c0,0.21333 0.07667,0.39667 0.23,0.55v0v0c0.15333,0.15333 0.33667,0.23 0.55,0.23v0h1.96zM176.81,343.622h-1.96v0c-0.66667,0 -1.23667,-0.23667 -1.71,-0.71v0v0c-0.47333,-0.47333 -0.71,-1.04333 -0.71,-1.71v0v-12.98h1.64v12.98v0c0,0.21333 0.07667,0.39667 0.23,0.55v0v0c0.15333,0.15333 0.33667,0.23 0.55,0.23v0h1.96zM107.05,343.622h-1.44l-4.56,-11.6h1.76l3.52,8.64l3.74,-8.64h2.16l3.98,8.62l3.28,-8.62h1.78l-4.38,11.6h-1.42l-4.32,-9.58zM133.97,343.622h-9.4v0c-0.66667,0 -1.23667,-0.23667 -1.71,-0.71v0v0c-0.47333,-0.47333 -0.71,-1.04333 -0.71,-1.71v0v-6.76v0c0,-0.66667 0.23667,-1.23667 0.71,-1.71v0v0c0.47333,-0.47333 1.04333,-0.71 1.71,-0.71v0h6.96v0c0.68,0 1.25667,0.23667 1.73,0.71v0v0c0.47333,0.47333 0.71,1.04333 0.71,1.71v0v4.2h-10.18v2.56v0c0,0.21333 0.07667,0.39667 0.23,0.55v0v0c0.15333,0.15333 0.33667,0.23 0.55,0.23v0h9.4zM123.79,334.442v2.56h8.52v-2.56v0c0,-0.21333 -0.07667,-0.39667 -0.23,-0.55v0v0c-0.15333,-0.15333 -0.33667,-0.23 -0.55,-0.23v0h-6.96v0c-0.21333,0 -0.39667,0.07667 -0.55,0.23v0v0c-0.15333,0.15333 -0.23,0.33667 -0.23,0.55zM350.99,318.542h-1.64v-9.18v0c0,-0.66667 0.23667,-1.23667 0.71,-1.71v0v0c0.47333,-0.47333 1.04333,-0.71 1.71,-0.71v0h6.52v1.64h-6.52v0c-0.21333,0 -0.39667,0.07667 -0.55,0.23v0v0c-0.15333,0.15333 -0.23,0.33667 -0.23,0.55v0zM368.85,318.542h-6.96v0c-0.66667,0 -1.23667,-0.23667 -1.71,-0.71v0v0c-0.47333,-0.47333 -0.71,-1.04333 -0.71,-1.71v0v-6.76v0c0,-0.66667 0.23667,-1.23667 0.71,-1.71v0v0c0.47333,-0.47333 1.04333,-0.71 1.71,-0.71v0h6.96v0c0.68,0 1.25667,0.23667 1.73,0.71v0v0c0.47333,0.47333 0.71,1.04333 0.71,1.71v0v6.76v0c0,0.66667 -0.23667,1.23667 -0.71,1.71v0v0c-0.47333,0.47333 -1.05,0.71 -1.73,0.71zM361.89,316.902v0h6.96v0c0.21333,0 0.39667,-0.07667 0.55,-0.23v0v0c0.15333,-0.15333 0.23,-0.33667 0.23,-0.55v0v-6.76v0c0,-0.21333 -0.07667,-0.39667 -0.23,-0.55v0v0c-0.15333,-0.15333 -0.33667,-0.23 -0.55,-0.23v0h-6.96v0c-0.21333,0 -0.39667,0.07667 -0.55,0.23v0v0c-0.15333,0.15333 -0.23,0.33667 -0.23,0.55v0v6.76v0c0,0.21333 0.07667,0.39667 0.23,0.55v0v0c0.15333,0.15333 0.33667,0.23 0.55,0.23zM378.29,318.542h-1.44l-4.56,-11.6h1.76l3.52,8.64l3.74,-8.64h2.16l3.98,8.62l3.28,-8.62h1.78l-4.38,11.6h-1.42l-4.32,-9.58zM403.05,318.542h-6.96v0c-0.66667,0 -1.23667,-0.23667 -1.71,-0.71v0v0c-0.47333,-0.47333 -0.71,-1.04333 -0.71,-1.71v0v-0.16h1.64v0.16v0c0,0.21333 0.07667,0.39667 0.23,0.55v0v0c0.15333,0.15333 0.33667,0.23 0.55,0.23v0h6.96v0c0.21333,0 0.39667,-0.07667 0.55,-0.23v0v0c0.15333,-0.15333 0.23,-0.33667 0.23,-0.55v0v-1.78v0c0,-0.21333 -0.07667,-0.39667 -0.23,-0.55v0v0c-0.15333,-0.15333 -0.33667,-0.23 -0.55,-0.23v0h-6.96v0c-0.66667,0 -1.23667,-0.23667 -1.71,-0.71v0v0c-0.47333,-0.47333 -0.71,-1.04333 -0.71,-1.71v0v-1.78v0c0,-0.66667 0.23667,-1.23667 0.71,-1.71v0v0c0.47333,-0.47333 1.04333,-0.71 1.71,-0.71v0h6.96v0c0.68,0 1.25667,0.23667 1.73,0.71v0v0c0.47333,0.47333 0.71,1.04333 0.71,1.71v0v0.16h-1.66v-0.16v0c0,-0.21333 -0.07667,-0.39667 -0.23,-0.55v0v0c-0.15333,-0.15333 -0.33667,-0.23 -0.55,-0.23v0h-6.96v0c-0.21333,0 -0.39667,0.07667 -0.55,0.23v0v0c-0.15333,0.15333 -0.23,0.33667 -0.23,0.55v0v1.78v0c0,0.21333 0.07667,0.39667 0.23,0.55v0v0c0.15333,0.15333 0.33667,0.23 0.55,0.23v0h6.96v0c0.68,0 1.25667,0.23667 1.73,0.71v0v0c0.47333,0.47333 0.71,1.04333 0.71,1.71v0v1.78v0c0,0.66667 -0.23667,1.23667 -0.71,1.71v0v0c-0.47333,0.47333 -1.05,0.71 -1.73,0.71zM407.51,321.162v0v-4.26h1.64v1.96v0c0,0.53333 -0.15333,1.01 -0.46,1.43v0v0c-0.30667,0.42 -0.7,0.71 -1.18,0.87zM302.37,318.542h-9.4v-15.4h1.64v3.8h7.76v0c0.66667,0 1.23667,0.23667 1.71,0.71v0v0c0.47333,0.47333 0.71,1.04333 0.71,1.71v0v6.76v0c0,0.66667 -0.23667,1.23667 -0.71,1.71v0v0c-0.47333,0.47333 -1.04333,0.71 -1.71,0.71zM295.41,316.902v0h6.96v0c0.21333,0 0.39667,-0.07667 0.55,-0.23v0v0c0.15333,-0.15333 0.23,-0.33667 0.23,-0.55v0v-6.76v0c0,-0.21333 -0.07667,-0.39667 -0.23,-0.55v0v0c-0.15333,-0.15333 -0.33667,-0.23 -0.55,-0.23v0h-6.96v0c-0.21333,0 -0.4,0.07667 -0.56,0.23v0v0c-0.16,0.15333 -0.24,0.33667 -0.24,0.55v0v6.76v0c0,0.21333 0.08,0.39667 0.24,0.55v0v0c0.16,0.15333 0.34667,0.23 0.56,0.23zM315.67,318.542h-6.96v0c-0.66667,0 -1.23667,-0.23667 -1.71,-0.71v0v0c-0.47333,-0.47333 -0.71,-1.04333 -0.71,-1.71v0v-9.18h1.64v9.18v0c0,0.21333 0.07667,0.39667 0.23,0.55v0v0c0.15333,0.15333 0.33667,0.23 0.55,0.23v0h6.96v0c0.21333,0 0.4,-0.07667 0.56,-0.23v0v0c0.16,-0.15333 0.24,-0.33667 0.24,-0.55v0v-9.18h1.64v9.18v0c0,0.66667 -0.23667,1.23667 -0.71,1.71v0v0c-0.47333,0.47333 -1.05,0.71 -1.73,0.71zM321.81,318.542h-1.64v-11.6h1.64zM321.81,304.782h-1.64v-1.64h1.64zM328.71,318.542h-1.96v0c-0.66667,0 -1.23667,-0.23667 -1.71,-0.71v0v0c-0.47333,-0.47333 -0.71,-1.04333 -0.71,-1.71v0v-12.98h1.64v12.98v0c0,0.21333 0.07667,0.39667 0.23,0.55v0v0c0.15333,0.15333 0.33667,0.23 0.55,0.23v0h1.96zM341.71,318.542h-9.38v0c-0.68,0 -1.25667,-0.23667 -1.73,-0.71v0v0c-0.47333,-0.47333 -0.71,-1.04333 -0.71,-1.71v0v-6.76v0c0,-0.66667 0.23667,-1.23667 0.71,-1.71v0v0c0.47333,-0.47333 1.05,-0.71 1.73,-0.71v0h7.74v-3.8h1.64zM332.33,316.902v0h6.96v0c0.21333,0 0.39667,-0.07667 0.55,-0.23v0v0c0.15333,-0.15333 0.23,-0.33667 0.23,-0.55v0v-6.76v0c0,-0.21333 -0.07667,-0.39667 -0.23,-0.55v0v0c-0.15333,-0.15333 -0.33667,-0.23 -0.55,-0.23v0h-6.96v0c-0.21333,0 -0.39667,0.07667 -0.55,0.23v0v0c-0.15333,0.15333 -0.23,0.33667 -0.23,0.55v0v6.76v0c0,0.21333 0.07667,0.39667 0.23,0.55v0v0c0.15333,0.15333 0.33667,0.23 0.55,0.23zM256.61,323.142h-7.24v-1.66h7.24v0c0.21333,0 0.39667,-0.07667 0.55,-0.23v0v0c0.15333,-0.15333 0.23,-0.33667 0.23,-0.55v0v-2.16h-7.74v0c-0.66667,0 -1.23667,-0.23667 -1.71,-0.71v0v0c-0.47333,-0.47333 -0.71,-1.04333 -0.71,-1.71v0v-9.14h1.64v9.14v0c0,0.21333 0.07667,0.39667 0.23,0.55v0v0c0.15333,0.15333 0.33667,0.23 0.55,0.23v0h6.96v0c0.21333,0 0.39667,-0.07667 0.55,-0.23v0v0c0.15333,-0.15333 0.23,-0.33667 0.23,-0.55v0v-9.14h1.64v13.72v0c0,0.68 -0.23333,1.25667 -0.7,1.73v0v0c-0.46667,0.47333 -1.04,0.71 -1.72,0.71zM270.03,318.542h-6.96v0c-0.66667,0 -1.23667,-0.23667 -1.71,-0.71v0v0c-0.47333,-0.47333 -0.71,-1.04333 -0.71,-1.71v0v-6.76v0c0,-0.66667 0.23667,-1.23667 0.71,-1.71v0v0c0.47333,-0.47333 1.04333,-0.71 1.71,-0.71v0h6.96v0c0.68,0 1.25667,0.23667 1.73,0.71v0v0c0.47333,0.47333 0.71,1.04333 0.71,1.71v0v6.76v0c0,0.66667 -0.23667,1.23667 -0.71,1.71v0v0c-0.47333,0.47333 -1.05,0.71 -1.73,0.71zM263.07,316.902v0h6.96v0c0.21333,0 0.39667,-0.07667 0.55,-0.23v0v0c0.15333,-0.15333 0.23,-0.33667 0.23,-0.55v0v-6.76v0c0,-0.21333 -0.07667,-0.39667 -0.23,-0.55v0v0c-0.15333,-0.15333 -0.33667,-0.23 -0.55,-0.23v0h-6.96v0c-0.21333,0 -0.39667,0.07667 -0.55,0.23v0v0c-0.15333,0.15333 -0.23,0.33667 -0.23,0.55v0v6.76v0c0,0.21333 0.07667,0.39667 0.23,0.55v0v0c0.15333,0.15333 0.33667,0.23 0.55,0.23zM283.45,318.542h-6.96v0c-0.66667,0 -1.23667,-0.23667 -1.71,-0.71v0v0c-0.47333,-0.47333 -0.71,-1.04333 -0.71,-1.71v0v-9.18h1.64v9.18v0c0,0.21333 0.07667,0.39667 0.23,0.55v0v0c0.15333,0.15333 0.33667,0.23 0.55,0.23v0h6.96v0c0.21333,0 0.4,-0.07667 0.56,-0.23v0v0c0.16,-0.15333 0.24,-0.33667 0.24,-0.55v0v-9.18h1.64v9.18v0c0,0.66667 -0.23667,1.23667 -0.71,1.71v0v0c-0.47333,0.47333 -1.05,0.71 -1.73,0.71zM213.29,318.542h-1.62v-12v0c0,-0.66667 0.23333,-1.23333 0.7,-1.7v0v0c0.46667,-0.46667 1.03333,-0.7 1.7,-0.7v0h9.6v0c0.66667,0 1.23333,0.23333 1.7,0.7v0v0c0.46667,0.46667 0.7,1.03333 0.7,1.7v0v12h-1.62v-5.26h-11.16zM213.29,306.542v5.12h11.16v-5.12v0c0,-0.21333 -0.07667,-0.39667 -0.23,-0.55v0v0c-0.15333,-0.15333 -0.33667,-0.23 -0.55,-0.23v0h-9.6v0c-0.21333,0 -0.39667,0.07667 -0.55,0.23v0v0c-0.15333,0.15333 -0.23,0.33667 -0.23,0.55zM237.57,318.542h-6.96v0c-0.66667,0 -1.23667,-0.23667 -1.71,-0.71v0v0c-0.47333,-0.47333 -0.71,-1.04333 -0.71,-1.71v0v-0.16h1.64v0.16v0c0,0.21333 0.07667,0.39667 0.23,0.55v0v0c0.15333,0.15333 0.33667,0.23 0.55,0.23v0h6.96v0c0.21333,0 0.39667,-0.07667 0.55,-0.23v0v0c0.15333,-0.15333 0.23,-0.33667 0.23,-0.55v0v-1.78v0c0,-0.21333 -0.07667,-0.39667 -0.23,-0.55v0v0c-0.15333,-0.15333 -0.33667,-0.23 -0.55,-0.23v0h-6.96v0c-0.66667,0 -1.23667,-0.23667 -1.71,-0.71v0v0c-0.47333,-0.47333 -0.71,-1.04333 -0.71,-1.71v0v-1.78v0c0,-0.66667 0.23667,-1.23667 0.71,-1.71v0v0c0.47333,-0.47333 1.04333,-0.71 1.71,-0.71v0h6.96v0c0.68,0 1.25667,0.23667 1.73,0.71v0v0c0.47333,0.47333 0.71,1.04333 0.71,1.71v0v0.16h-1.66v-0.16v0c0,-0.21333 -0.07667,-0.39667 -0.23,-0.55v0v0c-0.15333,-0.15333 -0.33667,-0.23 -0.55,-0.23v0h-6.96v0c-0.21333,0 -0.39667,0.07667 -0.55,0.23v0v0c-0.15333,0.15333 -0.23,0.33667 -0.23,0.55v0v1.78v0c0,0.21333 0.07667,0.39667 0.23,0.55v0v0c0.15333,0.15333 0.33667,0.23 0.55,0.23v0h6.96v0c0.68,0 1.25667,0.23667 1.73,0.71v0v0c0.47333,0.47333 0.71,1.04333 0.71,1.71v0v1.78v0c0,0.66667 -0.23667,1.23667 -0.71,1.71v0v0c-0.47333,0.47333 -1.05,0.71 -1.73,0.71zM159.15,318.542h-9.4v0c-0.66667,0 -1.23667,-0.23667 -1.71,-0.71v0v0c-0.47333,-0.47333 -0.71,-1.04333 -0.71,-1.71v0v-6.76v0c0,-0.66667 0.23667,-1.23667 0.71,-1.71v0v0c0.47333,-0.47333 1.04333,-0.71 1.71,-0.71v0h6.96v0c0.68,0 1.25667,0.23667 1.73,0.71v0v0c0.47333,0.47333 0.71,1.04333 0.71,1.71v0v4.2h-10.18v2.56v0c0,0.21333 0.07667,0.39667 0.23,0.55v0v0c0.15333,0.15333 0.33667,0.23 0.55,0.23v0h9.4zM148.97,309.362v2.56h8.52v-2.56v0c0,-0.21333 -0.07667,-0.39667 -0.23,-0.55v0v0c-0.15333,-0.15333 -0.33667,-0.23 -0.55,-0.23v0h-6.96v0c-0.21333,0 -0.39667,0.07667 -0.55,0.23v0v0c-0.15333,0.15333 -0.23,0.33667 -0.23,0.55zM173.01,318.542h-9.4v0c-0.66667,0 -1.23667,-0.23667 -1.71,-0.71v0v0c-0.47333,-0.47333 -0.71,-1.04333 -0.71,-1.71v0v-4.2h10.16v-2.56v0c0,-0.21333 -0.07667,-0.39667 -0.23,-0.55v0v0c-0.15333,-0.15333 -0.33667,-0.23 -0.55,-0.23v0h-9.38v-1.64h9.38v0c0.68,0 1.25667,0.23667 1.73,0.71v0v0c0.47333,0.47333 0.71,1.04333 0.71,1.71v0zM163.61,316.902v0h7.74v-3.34h-8.52v2.56v0c0,0.21333 0.07667,0.39667 0.23,0.55v0v0c0.15333,0.15333 0.33667,0.23 0.55,0.23zM186.67,318.542h-9.4v0c-0.66667,0 -1.23667,-0.23667 -1.71,-0.71v0v0c-0.47333,-0.47333 -0.71,-1.04333 -0.71,-1.71v0v-6.76v0c0,-0.66667 0.23667,-1.23667 0.71,-1.71v0v0c0.47333,-0.47333 1.04333,-0.71 1.71,-0.71v0h9.36v1.64h-9.36v0c-0.21333,0 -0.39667,0.07667 -0.55,0.23v0v0c-0.15333,0.15333 -0.23,0.33667 -0.23,0.55v0v6.76v0c0,0.21333 0.07667,0.39667 0.23,0.55v0v0c0.15333,0.15333 0.33667,0.23 0.55,0.23v0h9.4zM190.15,318.542h-1.64v-15.4h1.64v3.8h7.76v0c0.65333,0 1.22,0.23667 1.7,0.71v0v0c0.48,0.47333 0.72,1.04333 0.72,1.71v0v9.18h-1.64v-9.18v0c0,-0.21333 -0.07667,-0.39667 -0.23,-0.55v0v0c-0.15333,-0.15333 -0.33667,-0.23 -0.55,-0.23v0h-6.96v0c-0.21333,0 -0.4,0.07667 -0.56,0.23v0v0c-0.16,0.15333 -0.24,0.33667 -0.24,0.55v0zM203.51,318.542h-1.64v-1.64h1.64zM78.19,318.542h-9.4v-15.4h1.64v3.8h7.76v0c0.66667,0 1.23667,0.23667 1.71,0.71v0v0c0.47333,0.47333 0.71,1.04333 0.71,1.71v0v6.76v0c0,0.66667 -0.23667,1.23667 -0.71,1.71v0v0c-0.47333,0.47333 -1.04333,0.71 -1.71,0.71zM71.23,316.902v0h6.96v0c0.21333,0 0.39667,-0.07667 0.55,-0.23v0v0c0.15333,-0.15333 0.23,-0.33667 0.23,-0.55v0v-6.76v0c0,-0.21333 -0.07667,-0.39667 -0.23,-0.55v0v0c-0.15333,-0.15333 -0.33667,-0.23 -0.55,-0.23v0h-6.96v0c-0.21333,0 -0.4,0.07667 -0.56,0.23v0v0c-0.16,0.15333 -0.24,0.33667 -0.24,0.55v0v6.76v0c0,0.21333 0.08,0.39667 0.24,0.55v0v0c0.16,0.15333 0.34667,0.23 0.56,0.23zM86.47,318.542h-1.96v0c-0.66667,0 -1.23667,-0.23667 -1.71,-0.71v0v0c-0.47333,-0.47333 -0.71,-1.04333 -0.71,-1.71v0v-12.98h1.64v12.98v0c0,0.21333 0.07667,0.39667 0.23,0.55v0v0c0.15333,0.15333 0.33667,0.23 0.55,0.23v0h1.96zM97.29,318.542h-6.96v0c-0.66667,0 -1.23667,-0.23667 -1.71,-0.71v0v0c-0.47333,-0.47333 -0.71,-1.04333 -0.71,-1.71v0v-6.76v0c0,-0.66667 0.23667,-1.23667 0.71,-1.71v0v0c0.47333,-0.47333 1.04333,-0.71 1.71,-0.71v0h6.96v0c0.68,0 1.25667,0.23667 1.73,0.71v0v0c0.47333,0.47333 0.71,1.04333 0.71,1.71v0v6.76v0c0,0.66667 -0.23667,1.23667 -0.71,1.71v0v0c-0.47333,0.47333 -1.05,0.71 -1.73,0.71zM90.33,316.902v0h6.96v0c0.21333,0 0.39667,-0.07667 0.55,-0.23v0v0c0.15333,-0.15333 0.23,-0.33667 0.23,-0.55v0v-6.76v0c0,-0.21333 -0.07667,-0.39667 -0.23,-0.55v0v0c-0.15333,-0.15333 -0.33667,-0.23 -0.55,-0.23v0h-6.96v0c-0.21333,0 -0.39667,0.07667 -0.55,0.23v0v0c-0.15333,0.15333 -0.23,0.33667 -0.23,0.55v0v6.76v0c0,0.21333 0.07667,0.39667 0.23,0.55v0v0c0.15333,0.15333 0.33667,0.23 0.55,0.23zM113.57,318.542h-9.4v0c-0.66667,0 -1.23667,-0.23667 -1.71,-0.71v0v0c-0.47333,-0.47333 -0.71,-1.04333 -0.71,-1.71v0v-6.76v0c0,-0.66667 0.23667,-1.23667 0.71,-1.71v0v0c0.47333,-0.47333 1.04333,-0.71 1.71,-0.71v0h9.36v1.64h-9.36v0c-0.21333,0 -0.39667,0.07667 -0.55,0.23v0v0c-0.15333,0.15333 -0.23,0.33667 -0.23,0.55v0v6.76v0c0,0.21333 0.07667,0.39667 0.23,0.55v0v0c0.15333,0.15333 0.33667,0.23 0.55,0.23v0h9.4zM116.95,318.542h-1.64v-15.4h1.64v8.78h3.2l4.56,-4.98h2.16v0.02l-5.26,5.78l5.24,5.78v0.02h-2.14l-4.56,-4.98h-3.2zM137.49,318.542h-6.96v0c-0.66667,0 -1.23667,-0.23667 -1.71,-0.71v0v0c-0.47333,-0.47333 -0.71,-1.04333 -0.71,-1.71v0v-0.16h1.64v0.16v0c0,0.21333 0.07667,0.39667 0.23,0.55v0v0c0.15333,0.15333 0.33667,0.23 0.55,0.23v0h6.96v0c0.21333,0 0.39667,-0.07667 0.55,-0.23v0v0c0.15333,-0.15333 0.23,-0.33667 0.23,-0.55v0v-1.78v0c0,-0.21333 -0.07667,-0.39667 -0.23,-0.55v0v0c-0.15333,-0.15333 -0.33667,-0.23 -0.55,-0.23v0h-6.96v0c-0.66667,0 -1.23667,-0.23667 -1.71,-0.71v0v0c-0.47333,-0.47333 -0.71,-1.04333 -0.71,-1.71v0v-1.78v0c0,-0.66667 0.23667,-1.23667 0.71,-1.71v0v0c0.47333,-0.47333 1.04333,-0.71 1.71,-0.71v0h6.96v0c0.68,0 1.25667,0.23667 1.73,0.71v0v0c0.47333,0.47333 0.71,1.04333 0.71,1.71v0v0.16h-1.66v-0.16v0c0,-0.21333 -0.07667,-0.39667 -0.23,-0.55v0v0c-0.15333,-0.15333 -0.33667,-0.23 -0.55,-0.23v0h-6.96v0c-0.21333,0 -0.39667,0.07667 -0.55,0.23v0v0c-0.15333,0.15333 -0.23,0.33667 -0.23,0.55v0v1.78v0c0,0.21333 0.07667,0.39667 0.23,0.55v0v0c0.15333,0.15333 0.33667,0.23 0.55,0.23v0h6.96v0c0.68,0 1.25667,0.23667 1.73,0.71v0v0c0.47333,0.47333 0.71,1.04333 0.71,1.71v0v1.78v0c0,0.66667 -0.23667,1.23667 -0.71,1.71v0v0c-0.47333,0.47333 -1.05,0.71 -1.73,0.71zM374.95,293.462h-4.24v0c-0.68,0 -1.25333,-0.23667 -1.72,-0.71v0v0c-0.46667,-0.47333 -0.7,-1.04333 -0.7,-1.71v0v-12.98h1.64v3.8h5.02v1.64h-5.02v7.54v0c0,0.21333 0.07667,0.39667 0.23,0.55v0v0c0.15333,0.15333 0.33667,0.23 0.55,0.23v0h4.24zM388.27,293.462h-9.4v0c-0.66667,0 -1.23667,-0.23667 -1.71,-0.71v0v0c-0.47333,-0.47333 -0.71,-1.04333 -0.71,-1.71v0v-6.76v0c0,-0.66667 0.23667,-1.23667 0.71,-1.71v0v0c0.47333,-0.47333 1.04333,-0.71 1.71,-0.71v0h6.96v0c0.68,0 1.25667,0.23667 1.73,0.71v0v0c0.47333,0.47333 0.71,1.04333 0.71,1.71v0v4.2h-10.18v2.56v0c0,0.21333 0.07667,0.39667 0.23,0.55v0v0c0.15333,0.15333 0.33667,0.23 0.55,0.23v0h9.4zM378.09,284.282v2.56h8.52v-2.56v0c0,-0.21333 -0.07667,-0.39667 -0.23,-0.55v0v0c-0.15333,-0.15333 -0.33667,-0.23 -0.55,-0.23v0h-6.96v0c-0.21333,0 -0.39667,0.07667 -0.55,0.23v0v0c-0.15333,0.15333 -0.23,0.33667 -0.23,0.55zM391.99,293.462h-1.64v-11.6h9.4v0c0.66667,0 1.23667,0.23667 1.71,0.71v0v0c0.47333,0.47333 0.71,1.04333 0.71,1.71v0v9.18h-1.64v-9.18v0c0,-0.21333 -0.07667,-0.39667 -0.23,-0.55v0v0c-0.15333,-0.15333 -0.33667,-0.23 -0.55,-0.23v0h-6.96v0c-0.21333,0 -0.4,0.07667 -0.56,0.23v0v0c-0.16,0.15333 -0.24,0.33667 -0.24,0.55v0zM350.21,293.462h-6.96v0c-0.66667,0 -1.23667,-0.23667 -1.71,-0.71v0v0c-0.47333,-0.47333 -0.71,-1.04333 -0.71,-1.71v0v-6.76v0c0,-0.66667 0.23667,-1.23667 0.71,-1.71v0v0c0.47333,-0.47333 1.04333,-0.71 1.71,-0.71v0h6.96v0c0.68,0 1.25667,0.23667 1.73,0.71v0v0c0.47333,0.47333 0.71,1.04333 0.71,1.71v0v6.76v0c0,0.66667 -0.23667,1.23667 -0.71,1.71v0v0c-0.47333,0.47333 -1.05,0.71 -1.73,0.71zM343.25,291.822v0h6.96v0c0.21333,0 0.39667,-0.07667 0.55,-0.23v0v0c0.15333,-0.15333 0.23,-0.33667 0.23,-0.55v0v-6.76v0c0,-0.21333 -0.07667,-0.39667 -0.23,-0.55v0v0c-0.15333,-0.15333 -0.33667,-0.23 -0.55,-0.23v0h-6.96v0c-0.21333,0 -0.39667,0.07667 -0.55,0.23v0v0c-0.15333,0.15333 -0.23,0.33667 -0.23,0.55v0v6.76v0c0,0.21333 0.07667,0.39667 0.23,0.55v0v0c0.15333,0.15333 0.33667,0.23 0.55,0.23zM356.35,293.462h-1.64v-12.98v0c0,-0.68 0.23333,-1.25333 0.7,-1.72v0v0c0.46667,-0.46667 1.04,-0.7 1.72,-0.7v0h4.24v1.64h-4.24v0c-0.21333,0 -0.39667,0.07667 -0.55,0.23v0v0c-0.15333,0.15333 -0.23,0.33667 -0.23,0.55v0v1.38h5.02v1.64h-5.02zM279.23,293.462h-1.64v-9.18v0c0,-0.66667 0.23667,-1.23667 0.71,-1.71v0v0c0.47333,-0.47333 1.04333,-0.71 1.71,-0.71v0h6.52v1.64h-6.52v0c-0.21333,0 -0.39667,0.07667 -0.55,0.23v0v0c-0.15333,0.15333 -0.23,0.33667 -0.23,0.55v0zM297.09,293.462h-6.96v0c-0.66667,0 -1.23667,-0.23667 -1.71,-0.71v0v0c-0.47333,-0.47333 -0.71,-1.04333 -0.71,-1.71v0v-6.76v0c0,-0.66667 0.23667,-1.23667 0.71,-1.71v0v0c0.47333,-0.47333 1.04333,-0.71 1.71,-0.71v0h6.96v0c0.68,0 1.25667,0.23667 1.73,0.71v0v0c0.47333,0.47333 0.71,1.04333 0.71,1.71v0v6.76v0c0,0.66667 -0.23667,1.23667 -0.71,1.71v0v0c-0.47333,0.47333 -1.05,0.71 -1.73,0.71zM290.13,291.822v0h6.96v0c0.21333,0 0.39667,-0.07667 0.55,-0.23v0v0c0.15333,-0.15333 0.23,-0.33667 0.23,-0.55v0v-6.76v0c0,-0.21333 -0.07667,-0.39667 -0.23,-0.55v0v0c-0.15333,-0.15333 -0.33667,-0.23 -0.55,-0.23v0h-6.96v0c-0.21333,0 -0.39667,0.07667 -0.55,0.23v0v0c-0.15333,0.15333 -0.23,0.33667 -0.23,0.55v0v6.76v0c0,0.21333 0.07667,0.39667 0.23,0.55v0v0c0.15333,0.15333 0.33667,0.23 0.55,0.23zM306.53,293.462h-1.44l-4.56,-11.6h1.76l3.52,8.64l3.74,-8.64h2.16l3.98,8.62l3.28,-8.62h1.78l-4.38,11.6h-1.42l-4.32,-9.58zM331.29,293.462h-6.96v0c-0.66667,0 -1.23667,-0.23667 -1.71,-0.71v0v0c-0.47333,-0.47333 -0.71,-1.04333 -0.71,-1.71v0v-0.16h1.64v0.16v0c0,0.21333 0.07667,0.39667 0.23,0.55v0v0c0.15333,0.15333 0.33667,0.23 0.55,0.23v0h6.96v0c0.21333,0 0.39667,-0.07667 0.55,-0.23v0v0c0.15333,-0.15333 0.23,-0.33667 0.23,-0.55v0v-1.78v0c0,-0.21333 -0.07667,-0.39667 -0.23,-0.55v0v0c-0.15333,-0.15333 -0.33667,-0.23 -0.55,-0.23v0h-6.96v0c-0.66667,0 -1.23667,-0.23667 -1.71,-0.71v0v0c-0.47333,-0.47333 -0.71,-1.04333 -0.71,-1.71v0v-1.78v0c0,-0.66667 0.23667,-1.23667 0.71,-1.71v0v0c0.47333,-0.47333 1.04333,-0.71 1.71,-0.71v0h6.96v0c0.68,0 1.25667,0.23667 1.73,0.71v0v0c0.47333,0.47333 0.71,1.04333 0.71,1.71v0v0.16h-1.66v-0.16v0c0,-0.21333 -0.07667,-0.39667 -0.23,-0.55v0v0c-0.15333,-0.15333 -0.33667,-0.23 -0.55,-0.23v0h-6.96v0c-0.21333,0 -0.39667,0.07667 -0.55,0.23v0v0c-0.15333,0.15333 -0.23,0.33667 -0.23,0.55v0v1.78v0c0,0.21333 0.07667,0.39667 0.23,0.55v0v0c0.15333,0.15333 0.33667,0.23 0.55,0.23v0h6.96v0c0.68,0 1.25667,0.23667 1.73,0.71v0v0c0.47333,0.47333 0.71,1.04333 0.71,1.71v0v1.78v0c0,0.66667 -0.23667,1.23667 -0.71,1.71v0v0c-0.47333,0.47333 -1.05,0.71 -1.73,0.71zM230.75,293.462h-6.96v0c-0.66667,0 -1.23667,-0.23667 -1.71,-0.71v0v0c-0.47333,-0.47333 -0.71,-1.04333 -0.71,-1.71v0v-0.16h1.64v0.16v0c0,0.21333 0.07667,0.39667 0.23,0.55v0v0c0.15333,0.15333 0.33667,0.23 0.55,0.23v0h6.96v0c0.21333,0 0.39667,-0.07667 0.55,-0.23v0v0c0.15333,-0.15333 0.23,-0.33667 0.23,-0.55v0v-1.78v0c0,-0.21333 -0.07667,-0.39667 -0.23,-0.55v0v0c-0.15333,-0.15333 -0.33667,-0.23 -0.55,-0.23v0h-6.96v0c-0.66667,0 -1.23667,-0.23667 -1.71,-0.71v0v0c-0.47333,-0.47333 -0.71,-1.04333 -0.71,-1.71v0v-1.78v0c0,-0.66667 0.23667,-1.23667 0.71,-1.71v0v0c0.47333,-0.47333 1.04333,-0.71 1.71,-0.71v0h6.96v0c0.68,0 1.25667,0.23667 1.73,0.71v0v0c0.47333,0.47333 0.71,1.04333 0.71,1.71v0v0.16h-1.66v-0.16v0c0,-0.21333 -0.07667,-0.39667 -0.23,-0.55v0v0c-0.15333,-0.15333 -0.33667,-0.23 -0.55,-0.23v0h-6.96v0c-0.21333,0 -0.39667,0.07667 -0.55,0.23v0v0c-0.15333,0.15333 -0.23,0.33667 -0.23,0.55v0v1.78v0c0,0.21333 0.07667,0.39667 0.23,0.55v0v0c0.15333,0.15333 0.33667,0.23 0.55,0.23v0h6.96v0c0.68,0 1.25667,0.23667 1.73,0.71v0v0c0.47333,0.47333 0.71,1.04333 0.71,1.71v0v1.78v0c0,0.66667 -0.23667,1.23667 -0.71,1.71v0v0c-0.47333,0.47333 -1.05,0.71 -1.73,0.71zM244.53,293.462h-6.96v0c-0.66667,0 -1.23667,-0.23667 -1.71,-0.71v0v0c-0.47333,-0.47333 -0.71,-1.04333 -0.71,-1.71v0v-6.76v0c0,-0.66667 0.23667,-1.23667 0.71,-1.71v0v0c0.47333,-0.47333 1.04333,-0.71 1.71,-0.71v0h6.96v0c0.68,0 1.25667,0.23667 1.73,0.71v0v0c0.47333,0.47333 0.71,1.04333 0.71,1.71v0v6.76v0c0,0.66667 -0.23667,1.23667 -0.71,1.71v0v0c-0.47333,0.47333 -1.05,0.71 -1.73,0.71zM237.57,291.822v0h6.96v0c0.21333,0 0.39667,-0.07667 0.55,-0.23v0v0c0.15333,-0.15333 0.23,-0.33667 0.23,-0.55v0v-6.76v0c0,-0.21333 -0.07667,-0.39667 -0.23,-0.55v0v0c-0.15333,-0.15333 -0.33667,-0.23 -0.55,-0.23v0h-6.96v0c-0.21333,0 -0.39667,0.07667 -0.55,0.23v0v0c-0.15333,0.15333 -0.23,0.33667 -0.23,0.55v0v6.76v0c0,0.21333 0.07667,0.39667 0.23,0.55v0v0c0.15333,0.15333 0.33667,0.23 0.55,0.23zM252.99,293.462h-1.96v0c-0.66667,0 -1.23667,-0.23667 -1.71,-0.71v0v0c-0.47333,-0.47333 -0.71,-1.04333 -0.71,-1.71v0v-12.98h1.64v12.98v0c0,0.21333 0.07667,0.39667 0.23,0.55v0v0c0.15333,0.15333 0.33667,0.23 0.55,0.23v0h1.96zM256.29,293.462h-1.64v-11.6h1.64zM256.29,279.702h-1.64v-1.64h1.64zM270.05,293.462h-9.38v0c-0.68,0 -1.25667,-0.23667 -1.73,-0.71v0v0c-0.47333,-0.47333 -0.71,-1.04333 -0.71,-1.71v0v-6.76v0c0,-0.66667 0.23667,-1.23667 0.71,-1.71v0v0c0.47333,-0.47333 1.05,-0.71 1.73,-0.71v0h7.74v-3.8h1.64zM260.67,291.822v0h6.96v0c0.21333,0 0.39667,-0.07667 0.55,-0.23v0v0c0.15333,-0.15333 0.23,-0.33667 0.23,-0.55v0v-6.76v0c0,-0.21333 -0.07667,-0.39667 -0.23,-0.55v0v0c-0.15333,-0.15333 -0.33667,-0.23 -0.55,-0.23v0h-6.96v0c-0.21333,0 -0.39667,0.07667 -0.55,0.23v0v0c-0.15333,0.15333 -0.23,0.33667 -0.23,0.55v0v6.76v0c0,0.21333 0.07667,0.39667 0.23,0.55v0v0c0.15333,0.15333 0.33667,0.23 0.55,0.23zM87.65,293.462h-9.4v0c-0.66667,0 -1.23667,-0.23667 -1.71,-0.71v0v0c-0.47333,-0.47333 -0.71,-1.04333 -0.71,-1.71v0v-6.76v0c0,-0.66667 0.23667,-1.23667 0.71,-1.71v0v0c0.47333,-0.47333 1.04333,-0.71 1.71,-0.71v0h9.36v1.64h-9.36v0c-0.21333,0 -0.39667,0.07667 -0.55,0.23v0v0c-0.15333,0.15333 -0.23,0.33667 -0.23,0.55v0v6.76v0c0,0.21333 0.07667,0.39667 0.23,0.55v0v0c0.15333,0.15333 0.33667,0.23 0.55,0.23v0h9.4zM99.11,293.462h-6.96v0c-0.66667,0 -1.23667,-0.23667 -1.71,-0.71v0v0c-0.47333,-0.47333 -0.71,-1.04333 -0.71,-1.71v0v-6.76v0c0,-0.66667 0.23667,-1.23667 0.71,-1.71v0v0c0.47333,-0.47333 1.04333,-0.71 1.71,-0.71v0h6.96v0c0.68,0 1.25667,0.23667 1.73,0.71v0v0c0.47333,0.47333 0.71,1.04333 0.71,1.71v0v6.76v0c0,0.66667 -0.23667,1.23667 -0.71,1.71v0v0c-0.47333,0.47333 -1.05,0.71 -1.73,0.71zM92.15,291.822v0h6.96v0c0.21333,0 0.39667,-0.07667 0.55,-0.23v0v0c0.15333,-0.15333 0.23,-0.33667 0.23,-0.55v0v-6.76v0c0,-0.21333 -0.07667,-0.39667 -0.23,-0.55v0v0c-0.15333,-0.15333 -0.33667,-0.23 -0.55,-0.23v0h-6.96v0c-0.21333,0 -0.39667,0.07667 -0.55,0.23v0v0c-0.15333,0.15333 -0.23,0.33667 -0.23,0.55v0v6.76v0c0,0.21333 0.07667,0.39667 0.23,0.55v0v0c0.15333,0.15333 0.33667,0.23 0.55,0.23zM104.97,293.462h-1.64v-11.6h9.4v0c0.66667,0 1.23667,0.23667 1.71,0.71v0v0c0.47333,0.47333 0.71,1.04333 0.71,1.71v0v9.18h-1.64v-9.18v0c0,-0.21333 -0.07667,-0.39667 -0.23,-0.55v0v0c-0.15333,-0.15333 -0.33667,-0.23 -0.55,-0.23v0h-6.96v0c-0.21333,0 -0.4,0.07667 -0.56,0.23v0v0c-0.16,0.15333 -0.24,0.33667 -0.24,0.55v0zM126.51,293.462h-6.96v0c-0.66667,0 -1.23667,-0.23667 -1.71,-0.71v0v0c-0.47333,-0.47333 -0.71,-1.04333 -0.71,-1.71v0v-0.16h1.64v0.16v0c0,0.21333 0.07667,0.39667 0.23,0.55v0v0c0.15333,0.15333 0.33667,0.23 0.55,0.23v0h6.96v0c0.21333,0 0.39667,-0.07667 0.55,-0.23v0v0c0.15333,-0.15333 0.23,-0.33667 0.23,-0.55v0v-1.78v0c0,-0.21333 -0.07667,-0.39667 -0.23,-0.55v0v0c-0.15333,-0.15333 -0.33667,-0.23 -0.55,-0.23v0h-6.96v0c-0.66667,0 -1.23667,-0.23667 -1.71,-0.71v0v0c-0.47333,-0.47333 -0.71,-1.04333 -0.71,-1.71v0v-1.78v0c0,-0.66667 0.23667,-1.23667 0.71,-1.71v0v0c0.47333,-0.47333 1.04333,-0.71 1.71,-0.71v0h6.96v0c0.68,0 1.25667,0.23667 1.73,0.71v0v0c0.47333,0.47333 0.71,1.04333 0.71,1.71v0v0.16h-1.66v-0.16v0c0,-0.21333 -0.07667,-0.39667 -0.23,-0.55v0v0c-0.15333,-0.15333 -0.33667,-0.23 -0.55,-0.23v0h-6.96v0c-0.21333,0 -0.39667,0.07667 -0.55,0.23v0v0c-0.15333,0.15333 -0.23,0.33667 -0.23,0.55v0v1.78v0c0,0.21333 0.07667,0.39667 0.23,0.55v0v0c0.15333,0.15333 0.33667,0.23 0.55,0.23v0h6.96v0c0.68,0 1.25667,0.23667 1.73,0.71v0v0c0.47333,0.47333 0.71,1.04333 0.71,1.71v0v1.78v0c0,0.66667 -0.23667,1.23667 -0.71,1.71v0v0c-0.47333,0.47333 -1.05,0.71 -1.73,0.71zM137.61,293.462h-4.24v0c-0.68,0 -1.25333,-0.23667 -1.72,-0.71v0v0c-0.46667,-0.47333 -0.7,-1.04333 -0.7,-1.71v0v-12.98h1.64v3.8h5.02v1.64h-5.02v7.54v0c0,0.21333 0.07667,0.39667 0.23,0.55v0v0c0.15333,0.15333 0.33667,0.23 0.55,0.23v0h4.24zM140.77,293.462h-1.64v-9.18v0c0,-0.66667 0.23667,-1.23667 0.71,-1.71v0v0c0.47333,-0.47333 1.04333,-0.71 1.71,-0.71v0h6.52v1.64h-6.52v0c-0.21333,0 -0.39667,0.07667 -0.55,0.23v0v0c-0.15333,0.15333 -0.23,0.33667 -0.23,0.55v0zM158.77,293.462h-6.96v0c-0.66667,0 -1.23667,-0.23667 -1.71,-0.71v0v0c-0.47333,-0.47333 -0.71,-1.04333 -0.71,-1.71v0v-9.18h1.64v9.18v0c0,0.21333 0.07667,0.39667 0.23,0.55v0v0c0.15333,0.15333 0.33667,0.23 0.55,0.23v0h6.96v0c0.21333,0 0.4,-0.07667 0.56,-0.23v0v0c0.16,-0.15333 0.24,-0.33667 0.24,-0.55v0v-9.18h1.64v9.18v0c0,0.66667 -0.23667,1.23667 -0.71,1.71v0v0c-0.47333,0.47333 -1.05,0.71 -1.73,0.71zM174.67,293.462h-9.4v0c-0.66667,0 -1.23667,-0.23667 -1.71,-0.71v0v0c-0.47333,-0.47333 -0.71,-1.04333 -0.71,-1.71v0v-6.76v0c0,-0.66667 0.23667,-1.23667 0.71,-1.71v0v0c0.47333,-0.47333 1.04333,-0.71 1.71,-0.71v0h9.36v1.64h-9.36v0c-0.21333,0 -0.39667,0.07667 -0.55,0.23v0v0c-0.15333,0.15333 -0.23,0.33667 -0.23,0.55v0v6.76v0c0,0.21333 0.07667,0.39667 0.23,0.55v0v0c0.15333,0.15333 0.33667,0.23 0.55,0.23v0h9.4zM182.95,293.462h-4.24v0c-0.68,0 -1.25333,-0.23667 -1.72,-0.71v0v0c-0.46667,-0.47333 -0.7,-1.04333 -0.7,-1.71v0v-12.98h1.64v3.8h5.02v1.64h-5.02v7.54v0c0,0.21333 0.07667,0.39667 0.23,0.55v0v0c0.15333,0.15333 0.33667,0.23 0.55,0.23v0h4.24zM186.21,293.462h-1.64v-11.6h1.64zM186.21,279.702h-1.64v-1.64h1.64zM190.11,293.462h-1.64v-11.6h9.4v0c0.66667,0 1.23667,0.23667 1.71,0.71v0v0c0.47333,0.47333 0.71,1.04333 0.71,1.71v0v9.18h-1.64v-9.18v0c0,-0.21333 -0.07667,-0.39667 -0.23,-0.55v0v0c-0.15333,-0.15333 -0.33667,-0.23 -0.55,-0.23v0h-6.96v0c-0.21333,0 -0.4,0.07667 -0.56,0.23v0v0c-0.16,0.15333 -0.24,0.33667 -0.24,0.55v0zM211.51,298.042h-7.24v-1.66h7.24v0c0.21333,0 0.39667,-0.07667 0.55,-0.23v0v0c0.15333,-0.15333 0.23,-0.33667 0.23,-0.55v0v-2.14h-7.74v0c-0.66667,0 -1.23667,-0.23667 -1.71,-0.71v0v0c-0.47333,-0.47333 -0.71,-1.04333 -0.71,-1.71v0v-6.76v0c0,-0.66667 0.23667,-1.23667 0.71,-1.71v0v0c0.47333,-0.47333 1.04333,-0.71 1.71,-0.71v0h6.96v0c0.68,0 1.25333,0.23667 1.72,0.71v0v0c0.46667,0.47333 0.7,1.04333 0.7,1.71v0v11.32v0c0,0.68 -0.23333,1.25667 -0.7,1.73v0v0c-0.46667,0.47333 -1.04,0.71 -1.72,0.71zM204.55,291.822v0h6.96v0c0.21333,0 0.39667,-0.07667 0.55,-0.23v0v0c0.15333,-0.15333 0.23,-0.33667 0.23,-0.55v0v-6.76v0c0,-0.21333 -0.07667,-0.39667 -0.23,-0.55v0v0c-0.15333,-0.15333 -0.33667,-0.23 -0.55,-0.23v0h-6.96v0c-0.21333,0 -0.39667,0.07667 -0.55,0.23v0v0c-0.15333,0.15333 -0.23,0.33667 -0.23,0.55v0v6.76v0c0,0.21333 0.07667,0.39667 0.23,0.55v0v0c0.15333,0.15333 0.33667,0.23 0.55,0.23zM392.86,268.382h-9.4v-15.4h1.64v3.8h7.76v0c0.66667,0 1.23667,0.23667 1.71,0.71v0v0c0.47333,0.47333 0.71,1.04333 0.71,1.71v0v6.76v0c0,0.66667 -0.23667,1.23667 -0.71,1.71v0v0c-0.47333,0.47333 -1.04333,0.71 -1.71,0.71zM385.9,266.742v0h6.96v0c0.21333,0 0.39667,-0.07667 0.55,-0.23v0v0c0.15333,-0.15333 0.23,-0.33667 0.23,-0.55v0v-6.76v0c0,-0.21333 -0.07667,-0.39667 -0.23,-0.55v0v0c-0.15333,-0.15333 -0.33667,-0.23 -0.55,-0.23v0h-6.96v0c-0.21333,0 -0.4,0.07667 -0.56,0.23v0v0c-0.16,0.15333 -0.24,0.33667 -0.24,0.55v0v6.76v0c0,0.21333 0.08,0.39667 0.24,0.55v0v0c0.16,0.15333 0.34667,0.23 0.56,0.23zM405.94,272.982h-7.24v-1.66h7.24v0c0.21333,0 0.39667,-0.07667 0.55,-0.23v0v0c0.15333,-0.15333 0.23,-0.33667 0.23,-0.55v0v-2.16h-7.74v0c-0.66667,0 -1.23667,-0.23667 -1.71,-0.71v0v0c-0.47333,-0.47333 -0.71,-1.04333 -0.71,-1.71v0v-9.14h1.64v9.14v0c0,0.21333 0.07667,0.39667 0.23,0.55v0v0c0.15333,0.15333 0.33667,0.23 0.55,0.23v0h6.96v0c0.21333,0 0.39667,-0.07667 0.55,-0.23v0v0c0.15333,-0.15333 0.23,-0.33667 0.23,-0.55v0v-9.14h1.64v13.72v0c0,0.68 -0.23333,1.25667 -0.7,1.73v0v0c-0.46667,0.47333 -1.04,0.71 -1.72,0.71zM299.56,268.382h-6.96v0c-0.66667,0 -1.23667,-0.23667 -1.71,-0.71v0v0c-0.47333,-0.47333 -0.71,-1.04333 -0.71,-1.71v0v-0.16h1.64v0.16v0c0,0.21333 0.07667,0.39667 0.23,0.55v0v0c0.15333,0.15333 0.33667,0.23 0.55,0.23v0h6.96v0c0.21333,0 0.39667,-0.07667 0.55,-0.23v0v0c0.15333,-0.15333 0.23,-0.33667 0.23,-0.55v0v-1.78v0c0,-0.21333 -0.07667,-0.39667 -0.23,-0.55v0v0c-0.15333,-0.15333 -0.33667,-0.23 -0.55,-0.23v0h-6.96v0c-0.66667,0 -1.23667,-0.23667 -1.71,-0.71v0v0c-0.47333,-0.47333 -0.71,-1.04333 -0.71,-1.71v0v-1.78v0c0,-0.66667 0.23667,-1.23667 0.71,-1.71v0v0c0.47333,-0.47333 1.04333,-0.71 1.71,-0.71v0h6.96v0c0.68,0 1.25667,0.23667 1.73,0.71v0v0c0.47333,0.47333 0.71,1.04333 0.71,1.71v0v0.16h-1.66v-0.16v0c0,-0.21333 -0.07667,-0.39667 -0.23,-0.55v0v0c-0.15333,-0.15333 -0.33667,-0.23 -0.55,-0.23v0h-6.96v0c-0.21333,0 -0.39667,0.07667 -0.55,0.23v0v0c-0.15333,0.15333 -0.23,0.33667 -0.23,0.55v0v1.78v0c0,0.21333 0.07667,0.39667 0.23,0.55v0v0c0.15333,0.15333 0.33667,0.23 0.55,0.23v0h6.96v0c0.68,0 1.25667,0.23667 1.73,0.71v0v0c0.47333,0.47333 0.71,1.04333 0.71,1.71v0v1.78v0c0,0.66667 -0.23667,1.23667 -0.71,1.71v0v0c-0.47333,0.47333 -1.05,0.71 -1.73,0.71zM315.48,268.382h-9.4v0c-0.66667,0 -1.23667,-0.23667 -1.71,-0.71v0v0c-0.47333,-0.47333 -0.71,-1.04333 -0.71,-1.71v0v-6.76v0c0,-0.66667 0.23667,-1.23667 0.71,-1.71v0v0c0.47333,-0.47333 1.04333,-0.71 1.71,-0.71v0h6.96v0c0.68,0 1.25667,0.23667 1.73,0.71v0v0c0.47333,0.47333 0.71,1.04333 0.71,1.71v0v4.2h-10.18v2.56v0c0,0.21333 0.07667,0.39667 0.23,0.55v0v0c0.15333,0.15333 0.33667,0.23 0.55,0.23v0h9.4zM305.3,259.202v2.56h8.52v-2.56v0c0,-0.21333 -0.07667,-0.39667 -0.23,-0.55v0v0c-0.15333,-0.15333 -0.33667,-0.23 -0.55,-0.23v0h-6.96v0c-0.21333,0 -0.39667,0.07667 -0.55,0.23v0v0c-0.15333,0.15333 -0.23,0.33667 -0.23,0.55zM329.34,268.382h-9.4v0c-0.66667,0 -1.23667,-0.23667 -1.71,-0.71v0v0c-0.47333,-0.47333 -0.71,-1.04333 -0.71,-1.71v0v-4.2h10.16v-2.56v0c0,-0.21333 -0.07667,-0.39667 -0.23,-0.55v0v0c-0.15333,-0.15333 -0.33667,-0.23 -0.55,-0.23v0h-9.38v-1.64h9.38v0c0.68,0 1.25667,0.23667 1.73,0.71v0v0c0.47333,0.47333 0.71,1.04333 0.71,1.71v0zM319.94,266.742v0h7.74v-3.34h-8.52v2.56v0c0,0.21333 0.07667,0.39667 0.23,0.55v0v0c0.15333,0.15333 0.33667,0.23 0.55,0.23zM336.46,268.382h-1.44l-4.56,-11.6h1.76l3.52,8.64l3.74,-8.64h2.16l3.98,8.62l3.28,-8.62h1.78l-4.38,11.6h-1.42l-4.32,-9.58zM364.04,268.382h-9.4v0c-0.66667,0 -1.23667,-0.23667 -1.71,-0.71v0v0c-0.47333,-0.47333 -0.71,-1.04333 -0.71,-1.71v0v-4.2h10.16v-2.56v0c0,-0.21333 -0.07667,-0.39667 -0.23,-0.55v0v0c-0.15333,-0.15333 -0.33667,-0.23 -0.55,-0.23v0h-9.38v-1.64h9.38v0c0.68,0 1.25667,0.23667 1.73,0.71v0v0c0.47333,0.47333 0.71,1.04333 0.71,1.71v0zM354.64,266.742v0h7.74v-3.34h-8.52v2.56v0c0,0.21333 0.07667,0.39667 0.23,0.55v0v0c0.15333,0.15333 0.33667,0.23 0.55,0.23zM370.28,268.382h-1.96v0c-0.66667,0 -1.23667,-0.23667 -1.71,-0.71v0v0c-0.47333,-0.47333 -0.71,-1.04333 -0.71,-1.71v0v-12.98h1.64v12.98v0c0,0.21333 0.07667,0.39667 0.23,0.55v0v0c0.15333,0.15333 0.33667,0.23 0.55,0.23v0h1.96zM376.32,268.382h-1.96v0c-0.66667,0 -1.23667,-0.23667 -1.71,-0.71v0v0c-0.47333,-0.47333 -0.71,-1.04333 -0.71,-1.71v0v-12.98h1.64v12.98v0c0,0.21333 0.07667,0.39667 0.23,0.55v0v0c0.15333,0.15333 0.33667,0.23 0.55,0.23v0h1.96zM282.76,268.382h-9.4v0c-0.66667,0 -1.23667,-0.23667 -1.71,-0.71v0v0c-0.47333,-0.47333 -0.71,-1.04333 -0.71,-1.71v0v-4.2h10.16v-2.56v0c0,-0.21333 -0.07667,-0.39667 -0.23,-0.55v0v0c-0.15333,-0.15333 -0.33667,-0.23 -0.55,-0.23v0h-9.38v-1.64h9.38v0c0.68,0 1.25667,0.23667 1.73,0.71v0v0c0.47333,0.47333 0.71,1.04333 0.71,1.71v0zM273.36,266.742v0h7.74v-3.34h-8.52v2.56v0c0,0.21333 0.07667,0.39667 0.23,0.55v0v0c0.15333,0.15333 0.33667,0.23 0.55,0.23zM223.96,268.382h-9.4v-15.4h1.64v3.8h7.76v0c0.66667,0 1.23667,0.23667 1.71,0.71v0v0c0.47333,0.47333 0.71,1.04333 0.71,1.71v0v6.76v0c0,0.66667 -0.23667,1.23667 -0.71,1.71v0v0c-0.47333,0.47333 -1.04333,0.71 -1.71,0.71zM217,266.742v0h6.96v0c0.21333,0 0.39667,-0.07667 0.55,-0.23v0v0c0.15333,-0.15333 0.23,-0.33667 0.23,-0.55v0v-6.76v0c0,-0.21333 -0.07667,-0.39667 -0.23,-0.55v0v0c-0.15333,-0.15333 -0.33667,-0.23 -0.55,-0.23v0h-6.96v0c-0.21333,0 -0.4,0.07667 -0.56,0.23v0v0c-0.16,0.15333 -0.24,0.33667 -0.24,0.55v0v6.76v0c0,0.21333 0.08,0.39667 0.24,0.55v0v0c0.16,0.15333 0.34667,0.23 0.56,0.23zM237.26,268.382h-6.96v0c-0.66667,0 -1.23667,-0.23667 -1.71,-0.71v0v0c-0.47333,-0.47333 -0.71,-1.04333 -0.71,-1.71v0v-9.18h1.64v9.18v0c0,0.21333 0.07667,0.39667 0.23,0.55v0v0c0.15333,0.15333 0.33667,0.23 0.55,0.23v0h6.96v0c0.21333,0 0.4,-0.07667 0.56,-0.23v0v0c0.16,-0.15333 0.24,-0.33667 0.24,-0.55v0v-9.18h1.64v9.18v0c0,0.66667 -0.23667,1.23667 -0.71,1.71v0v0c-0.47333,0.47333 -1.05,0.71 -1.73,0.71zM243.4,268.382h-1.64v-11.6h1.64zM243.4,254.622h-1.64v-1.64h1.64zM250.3,268.382h-1.96v0c-0.66667,0 -1.23667,-0.23667 -1.71,-0.71v0v0c-0.47333,-0.47333 -0.71,-1.04333 -0.71,-1.71v0v-12.98h1.64v12.98v0c0,0.21333 0.07667,0.39667 0.23,0.55v0v0c0.15333,0.15333 0.33667,0.23 0.55,0.23v0h1.96zM263.3,268.382h-9.38v0c-0.68,0 -1.25667,-0.23667 -1.73,-0.71v0v0c-0.47333,-0.47333 -0.71,-1.04333 -0.71,-1.71v0v-6.76v0c0,-0.66667 0.23667,-1.23667 0.71,-1.71v0v0c0.47333,-0.47333 1.05,-0.71 1.73,-0.71v0h7.74v-3.8h1.64zM253.92,266.742v0h6.96v0c0.21333,0 0.39667,-0.07667 0.55,-0.23v0v0c0.15333,-0.15333 0.23,-0.33667 0.23,-0.55v0v-6.76v0c0,-0.21333 -0.07667,-0.39667 -0.23,-0.55v0v0c-0.15333,-0.15333 -0.33667,-0.23 -0.55,-0.23v0h-6.96v0c-0.21333,0 -0.39667,0.07667 -0.55,0.23v0v0c-0.15333,0.15333 -0.23,0.33667 -0.23,0.55v0v6.76v0c0,0.21333 0.07667,0.39667 0.23,0.55v0v0c0.15333,0.15333 0.33667,0.23 0.55,0.23zM193.72,268.382h-4.24v0c-0.68,0 -1.25333,-0.23667 -1.72,-0.71v0v0c-0.46667,-0.47333 -0.7,-1.04333 -0.7,-1.71v0v-12.98h1.64v3.8h5.02v1.64h-5.02v7.54v0c0,0.21333 0.07667,0.39667 0.23,0.55v0v0c0.15333,0.15333 0.33667,0.23 0.55,0.23v0h4.24zM204.6,268.382h-6.96v0c-0.66667,0 -1.23667,-0.23667 -1.71,-0.71v0v0c-0.47333,-0.47333 -0.71,-1.04333 -0.71,-1.71v0v-6.76v0c0,-0.66667 0.23667,-1.23667 0.71,-1.71v0v0c0.47333,-0.47333 1.04333,-0.71 1.71,-0.71v0h6.96v0c0.68,0 1.25667,0.23667 1.73,0.71v0v0c0.47333,0.47333 0.71,1.04333 0.71,1.71v0v6.76v0c0,0.66667 -0.23667,1.23667 -0.71,1.71v0v0c-0.47333,0.47333 -1.05,0.71 -1.73,0.71zM197.64,266.742v0h6.96v0c0.21333,0 0.39667,-0.07667 0.55,-0.23v0v0c0.15333,-0.15333 0.23,-0.33667 0.23,-0.55v0v-6.76v0c0,-0.21333 -0.07667,-0.39667 -0.23,-0.55v0v0c-0.15333,-0.15333 -0.33667,-0.23 -0.55,-0.23v0h-6.96v0c-0.21333,0 -0.39667,0.07667 -0.55,0.23v0v0c-0.15333,0.15333 -0.23,0.33667 -0.23,0.55v0v6.76v0c0,0.21333 0.07667,0.39667 0.23,0.55v0v0c0.15333,0.15333 0.33667,0.23 0.55,0.23zM165.36,268.382h-1.64v-11.6h1.64zM165.36,254.622h-1.64v-1.64h1.64zM177.18,268.382h-6.96v0c-0.66667,0 -1.23667,-0.23667 -1.71,-0.71v0v0c-0.47333,-0.47333 -0.71,-1.04333 -0.71,-1.71v0v-0.16h1.64v0.16v0c0,0.21333 0.07667,0.39667 0.23,0.55v0v0c0.15333,0.15333 0.33667,0.23 0.55,0.23v0h6.96v0c0.21333,0 0.39667,-0.07667 0.55,-0.23v0v0c0.15333,-0.15333 0.23,-0.33667 0.23,-0.55v0v-1.78v0c0,-0.21333 -0.07667,-0.39667 -0.23,-0.55v0v0c-0.15333,-0.15333 -0.33667,-0.23 -0.55,-0.23v0h-6.96v0c-0.66667,0 -1.23667,-0.23667 -1.71,-0.71v0v0c-0.47333,-0.47333 -0.71,-1.04333 -0.71,-1.71v0v-1.78v0c0,-0.66667 0.23667,-1.23667 0.71,-1.71v0v0c0.47333,-0.47333 1.04333,-0.71 1.71,-0.71v0h6.96v0c0.68,0 1.25667,0.23667 1.73,0.71v0v0c0.47333,0.47333 0.71,1.04333 0.71,1.71v0v0.16h-1.66v-0.16v0c0,-0.21333 -0.07667,-0.39667 -0.23,-0.55v0v0c-0.15333,-0.15333 -0.33667,-0.23 -0.55,-0.23v0h-6.96v0c-0.21333,0 -0.39667,0.07667 -0.55,0.23v0v0c-0.15333,0.15333 -0.23,0.33667 -0.23,0.55v0v1.78v0c0,0.21333 0.07667,0.39667 0.23,0.55v0v0c0.15333,0.15333 0.33667,0.23 0.55,0.23v0h6.96v0c0.68,0 1.25667,0.23667 1.73,0.71v0v0c0.47333,0.47333 0.71,1.04333 0.71,1.71v0v1.78v0c0,0.66667 -0.23667,1.23667 -0.71,1.71v0v0c-0.47333,0.47333 -1.05,0.71 -1.73,0.71zM126.44,273.242h-4.9v-1.66h4.9v0c0.21333,0 0.39667,-0.07667 0.55,-0.23v0v0c0.15333,-0.15333 0.23,-0.33667 0.23,-0.55v0v-14.02h1.66v14.02v0c0,0.68 -0.23667,1.25667 -0.71,1.73v0v0c-0.47333,0.47333 -1.05,0.71 -1.73,0.71zM128.88,254.622h-1.66v-1.64h1.66zM140.46,268.382h-6.96v0c-0.66667,0 -1.23667,-0.23667 -1.71,-0.71v0v0c-0.47333,-0.47333 -0.71,-1.04333 -0.71,-1.71v0v-6.76v0c0,-0.66667 0.23667,-1.23667 0.71,-1.71v0v0c0.47333,-0.47333 1.04333,-0.71 1.71,-0.71v0h6.96v0c0.68,0 1.25667,0.23667 1.73,0.71v0v0c0.47333,0.47333 0.71,1.04333 0.71,1.71v0v6.76v0c0,0.66667 -0.23667,1.23667 -0.71,1.71v0v0c-0.47333,0.47333 -1.05,0.71 -1.73,0.71zM133.5,266.742v0h6.96v0c0.21333,0 0.39667,-0.07667 0.55,-0.23v0v0c0.15333,-0.15333 0.23,-0.33667 0.23,-0.55v0v-6.76v0c0,-0.21333 -0.07667,-0.39667 -0.23,-0.55v0v0c-0.15333,-0.15333 -0.33667,-0.23 -0.55,-0.23v0h-6.96v0c-0.21333,0 -0.39667,0.07667 -0.55,0.23v0v0c-0.15333,0.15333 -0.23,0.33667 -0.23,0.55v0v6.76v0c0,0.21333 0.07667,0.39667 0.23,0.55v0v0c0.15333,0.15333 0.33667,0.23 0.55,0.23zM154.38,268.382h-9.4v-15.4h1.64v3.8h7.76v0c0.66667,0 1.23667,0.23667 1.71,0.71v0v0c0.47333,0.47333 0.71,1.04333 0.71,1.71v0v6.76v0c0,0.66667 -0.23667,1.23667 -0.71,1.71v0v0c-0.47333,0.47333 -1.04333,0.71 -1.71,0.71zM147.42,266.742v0h6.96v0c0.21333,0 0.39667,-0.07667 0.55,-0.23v0v0c0.15333,-0.15333 0.23,-0.33667 0.23,-0.55v0v-6.76v0c0,-0.21333 -0.07667,-0.39667 -0.23,-0.55v0v0c-0.15333,-0.15333 -0.33667,-0.23 -0.55,-0.23v0h-6.96v0c-0.21333,0 -0.4,0.07667 -0.56,0.23v0v0c-0.16,0.15333 -0.24,0.33667 -0.24,0.55v0v6.76v0c0,0.21333 0.08,0.39667 0.24,0.55v0v0c0.16,0.15333 0.34667,0.23 0.56,0.23zM77.16,268.382h-1.62v-5.42l-6.62,-8.98h1.86l5.58,7.04l5.52,-7.04h1.9l-6.62,8.98zM92.72,268.382h-6.96v0c-0.66667,0 -1.23667,-0.23667 -1.71,-0.71v0v0c-0.47333,-0.47333 -0.71,-1.04333 -0.71,-1.71v0v-6.76v0c0,-0.66667 0.23667,-1.23667 0.71,-1.71v0v0c0.47333,-0.47333 1.04333,-0.71 1.71,-0.71v0h6.96v0c0.68,0 1.25667,0.23667 1.73,0.71v0v0c0.47333,0.47333 0.71,1.04333 0.71,1.71v0v6.76v0c0,0.66667 -0.23667,1.23667 -0.71,1.71v0v0c-0.47333,0.47333 -1.05,0.71 -1.73,0.71zM85.76,266.742v0h6.96v0c0.21333,0 0.39667,-0.07667 0.55,-0.23v0v0c0.15333,-0.15333 0.23,-0.33667 0.23,-0.55v0v-6.76v0c0,-0.21333 -0.07667,-0.39667 -0.23,-0.55v0v0c-0.15333,-0.15333 -0.33667,-0.23 -0.55,-0.23v0h-6.96v0c-0.21333,0 -0.39667,0.07667 -0.55,0.23v0v0c-0.15333,0.15333 -0.23,0.33667 -0.23,0.55v0v6.76v0c0,0.21333 0.07667,0.39667 0.23,0.55v0v0c0.15333,0.15333 0.33667,0.23 0.55,0.23zM106.14,268.382h-6.96v0c-0.66667,0 -1.23667,-0.23667 -1.71,-0.71v0v0c-0.47333,-0.47333 -0.71,-1.04333 -0.71,-1.71v0v-9.18h1.64v9.18v0c0,0.21333 0.07667,0.39667 0.23,0.55v0v0c0.15333,0.15333 0.33667,0.23 0.55,0.23v0h6.96v0c0.21333,0 0.4,-0.07667 0.56,-0.23v0v0c0.16,-0.15333 0.24,-0.33667 0.24,-0.55v0v-9.18h1.64v9.18v0c0,0.66667 -0.23667,1.23667 -0.71,1.71v0v0c-0.47333,0.47333 -1.05,0.71 -1.73,0.71zM112.28,268.382h-1.64v-9.18v0c0,-0.66667 0.23667,-1.23667 0.71,-1.71v0v0c0.47333,-0.47333 1.04333,-0.71 1.71,-0.71v0h6.52v1.64h-6.52v0c-0.21333,0 -0.39667,0.07667 -0.55,0.23v0v0c-0.15333,0.15333 -0.23,0.33667 -0.23,0.55v0z" fill="#ffffff" stroke="none" stroke-width="1"/><path d="M338.289,220.449h-16.446v0c-0.91667,0 -1.69567,-0.32067 -2.337,-0.962v0v0c-0.64133,-0.642 -0.962,-1.42133 -0.962,-2.338v0v-13.2v0c0,-0.91667 0.32067,-1.69567 0.962,-2.337v0v0c0.64133,-0.642 1.42033,-0.963 2.337,-0.963v0h16.446v2.228h-16.446v0c-0.29267,0 -0.54467,0.10533 -0.756,0.316v0v0c-0.21067,0.21067 -0.316,0.46267 -0.316,0.756v0v13.2v0c0,0.294 0.10533,0.54633 0.316,0.757v0v0c0.21133,0.21067 0.46333,0.316 0.756,0.316v0h16.446zM353.909,220.449h-9.57v0c-0.91667,0 -1.70067,-0.32533 -2.352,-0.976v0v0c-0.65067,-0.65067 -0.976,-1.43433 -0.976,-2.351v0v-9.295v0c0,-0.91667 0.32533,-1.70033 0.976,-2.351v0v0c0.65133,-0.65067 1.43533,-0.976 2.352,-0.976v0h9.57v0c0.93467,0 1.72733,0.32533 2.378,0.976v0v0c0.65133,0.65067 0.977,1.43433 0.977,2.351v0v9.295v0c0,0.91667 -0.32567,1.70033 -0.977,2.351v0v0c-0.65067,0.65067 -1.44333,0.976 -2.378,0.976zM344.339,218.195v0h9.57v0c0.29267,0 0.54467,-0.10567 0.756,-0.317v0v0c0.21067,-0.21067 0.316,-0.46267 0.316,-0.756v0v-9.295v0c0,-0.29333 -0.10533,-0.54533 -0.316,-0.756v0v0c-0.21133,-0.21133 -0.46333,-0.317 -0.756,-0.317v0h-9.57v0c-0.29333,0 -0.54567,0.10567 -0.757,0.317v0v0c-0.21067,0.21067 -0.316,0.46267 -0.316,0.756v0v9.295v0c0,0.29333 0.10533,0.54533 0.316,0.756v0v0c0.21133,0.21133 0.46367,0.317 0.757,0.317zM362.379,220.449h-2.255v-2.254h2.255zM134.761,220.449h-16.445v0c-0.91667,0 -1.69567,-0.32067 -2.337,-0.962v0v0c-0.642,-0.642 -0.963,-1.42133 -0.963,-2.338v0v-13.2v0c0,-0.91667 0.321,-1.69567 0.963,-2.337v0v0c0.64133,-0.642 1.42033,-0.963 2.337,-0.963v0h16.445v2.228h-16.445v0c-0.29333,0 -0.54533,0.10533 -0.756,0.316v0v0c-0.21067,0.21067 -0.316,0.46267 -0.316,0.756v0v13.2v0c0,0.294 0.10533,0.54633 0.316,0.757v0v0c0.21067,0.21067 0.46267,0.316 0.756,0.316v0h16.445zM150.381,220.449h-9.57v0c-0.91667,0 -1.70033,-0.32533 -2.351,-0.976v0v0c-0.65067,-0.65067 -0.976,-1.43433 -0.976,-2.351v0v-9.295v0c0,-0.91667 0.32533,-1.70033 0.976,-2.351v0v0c0.65067,-0.65067 1.43433,-0.976 2.351,-0.976v0h9.57v0c0.93533,0 1.72833,0.32533 2.379,0.976v0v0c0.65067,0.65067 0.976,1.43433 0.976,2.351v0v9.295v0c0,0.91667 -0.32533,1.70033 -0.976,2.351v0v0c-0.65067,0.65067 -1.44367,0.976 -2.379,0.976zM140.811,218.195v0h9.57v0c0.29333,0 0.54533,-0.10567 0.756,-0.317v0v0c0.21133,-0.21067 0.317,-0.46267 0.317,-0.756v0v-9.295v0c0,-0.29333 -0.10567,-0.54533 -0.317,-0.756v0v0c-0.21067,-0.21133 -0.46267,-0.317 -0.756,-0.317v0h-9.57v0c-0.29333,0 -0.54533,0.10567 -0.756,0.317v0v0c-0.21067,0.21067 -0.316,0.46267 -0.316,0.756v0v9.295v0c0,0.29333 0.10533,0.54533 0.316,0.756v0v0c0.21067,0.21133 0.46267,0.317 0.756,0.317zM158.439,220.449h-2.255v-15.949h12.925v0c0.91667,0 1.70033,0.32533 2.351,0.976v0v0c0.65067,0.65067 0.976,1.43433 0.976,2.351v0v12.622h-2.255v-12.622v0c0,-0.29333 -0.10533,-0.54533 -0.316,-0.756v0v0c-0.21067,-0.21133 -0.46267,-0.317 -0.756,-0.317v0h-9.57v0c-0.29333,0 -0.55,0.10567 -0.77,0.317v0v0c-0.22,0.21067 -0.33,0.46267 -0.33,0.756v0zM188.056,220.449h-9.57v0c-0.91667,0 -1.70033,-0.32533 -2.351,-0.976v0v0c-0.65067,-0.65067 -0.976,-1.43433 -0.976,-2.351v0v-0.22h2.255v0.22v0c0,0.29333 0.10533,0.54533 0.316,0.756v0v0c0.21067,0.21133 0.46267,0.317 0.756,0.317v0h9.57v0c0.29333,0 0.54533,-0.10567 0.756,-0.317v0v0c0.21133,-0.21067 0.317,-0.46267 0.317,-0.756v0v-2.447v0c0,-0.294 -0.10567,-0.54633 -0.317,-0.757v0v0c-0.21067,-0.21067 -0.46267,-0.316 -0.756,-0.316v0h-9.57v0c-0.91667,0 -1.70033,-0.32533 -2.351,-0.976v0v0c-0.65067,-0.65133 -0.976,-1.43533 -0.976,-2.352v0v-2.447v0c0,-0.91667 0.32533,-1.70033 0.976,-2.351v0v0c0.65067,-0.65067 1.43433,-0.976 2.351,-0.976v0h9.57v0c0.93533,0 1.72833,0.32533 2.379,0.976v0v0c0.65067,0.65067 0.976,1.43433 0.976,2.351v0v0.22h-2.282v-0.22v0c0,-0.29333 -0.10567,-0.54533 -0.317,-0.756v0v0c-0.21067,-0.21133 -0.46267,-0.317 -0.756,-0.317v0h-9.57v0c-0.29333,0 -0.54533,0.10567 -0.756,0.317v0v0c-0.21067,0.21067 -0.316,0.46267 -0.316,0.756v0v2.447v0c0,0.294 0.10533,0.54633 0.316,0.757v0v0c0.21067,0.21067 0.46267,0.316 0.756,0.316v0h9.57v0c0.93533,0 1.72833,0.32533 2.379,0.976v0v0c0.65067,0.65133 0.976,1.43533 0.976,2.352v0v2.447v0c0,0.91667 -0.32533,1.70033 -0.976,2.351v0v0c-0.65067,0.65067 -1.44367,0.976 -2.379,0.976zM203.319,220.449h-5.83v0c-0.93533,0 -1.72367,-0.32533 -2.365,-0.976v0v0c-0.642,-0.65067 -0.963,-1.43433 -0.963,-2.351v0v-17.848h2.255v5.226h6.903v2.254h-6.903v10.368v0c0,0.29333 0.10533,0.54533 0.316,0.756v0v0c0.21133,0.21133 0.46367,0.317 0.757,0.317v0h5.83zM207.664,220.449h-2.255v-12.622v0c0,-0.91667 0.32533,-1.70033 0.976,-2.351v0v0c0.65067,-0.65067 1.43433,-0.976 2.351,-0.976v0h8.965v2.254h-8.965v0c-0.29333,0 -0.54533,0.10567 -0.756,0.317v0v0c-0.21067,0.21067 -0.316,0.46267 -0.316,0.756v0zM232.414,220.449h-9.571v0c-0.91667,0 -1.70033,-0.32533 -2.351,-0.976v0v0c-0.65067,-0.65067 -0.976,-1.43433 -0.976,-2.351v0v-12.622h2.255v12.622v0c0,0.29333 0.10533,0.54533 0.316,0.756v0v0c0.21133,0.21133 0.46333,0.317 0.756,0.317v0h9.571v0c0.29267,0 0.54933,-0.10567 0.77,-0.317v0v0c0.22,-0.21067 0.33,-0.46267 0.33,-0.756v0v-12.622h2.255v12.622v0c0,0.91667 -0.32567,1.70033 -0.977,2.351v0v0c-0.65067,0.65067 -1.44333,0.976 -2.378,0.976zM254.276,220.449h-12.925v0c-0.91667,0 -1.70033,-0.32533 -2.351,-0.976v0v0c-0.65067,-0.65067 -0.976,-1.43433 -0.976,-2.351v0v-9.295v0c0,-0.91667 0.32533,-1.70033 0.976,-2.351v0v0c0.65067,-0.65067 1.43433,-0.976 2.351,-0.976v0h12.87v2.254h-12.87v0c-0.29333,0 -0.54533,0.10567 -0.756,0.317v0v0c-0.21067,0.21067 -0.316,0.46267 -0.316,0.756v0v9.295v0c0,0.29333 0.10533,0.54533 0.316,0.756v0v0c0.21067,0.21133 0.46267,0.317 0.756,0.317v0h12.925zM265.661,220.449h-5.83v0c-0.93467,0 -1.723,-0.32533 -2.365,-0.976v0v0c-0.64133,-0.65067 -0.962,-1.43433 -0.962,-2.351v0v-17.848h2.255v5.226h6.902v2.254h-6.902v10.368v0c0,0.29333 0.10533,0.54533 0.316,0.756v0v0c0.21067,0.21133 0.46267,0.317 0.756,0.317v0h5.83zM270.144,220.449h-2.255v-15.949h2.255zM270.144,201.53h-2.255v-2.256h2.255zM286.478,220.449h-9.569v0c-0.91667,0 -1.70067,-0.32533 -2.352,-0.976v0v0c-0.65067,-0.65067 -0.976,-1.43433 -0.976,-2.351v0v-9.295v0c0,-0.91667 0.32533,-1.70033 0.976,-2.351v0v0c0.65133,-0.65067 1.43533,-0.976 2.352,-0.976v0h9.569v0c0.93533,0 1.72833,0.32533 2.379,0.976v0v0c0.65133,0.65067 0.977,1.43433 0.977,2.351v0v9.295v0c0,0.91667 -0.32567,1.70033 -0.977,2.351v0v0c-0.65067,0.65067 -1.44367,0.976 -2.379,0.976zM276.909,218.195v0h9.569v0c0.294,0 0.54633,-0.10567 0.757,-0.317v0v0c0.21067,-0.21067 0.316,-0.46267 0.316,-0.756v0v-9.295v0c0,-0.29333 -0.10533,-0.54533 -0.316,-0.756v0v0c-0.21067,-0.21133 -0.463,-0.317 -0.757,-0.317v0h-9.569v0c-0.294,0 -0.54633,0.10567 -0.757,0.317v0v0c-0.21067,0.21067 -0.316,0.46267 -0.316,0.756v0v9.295v0c0,0.29333 0.10533,0.54533 0.316,0.756v0v0c0.21067,0.21133 0.463,0.317 0.757,0.317zM294.536,220.449h-2.255v-15.949h12.925v0c0.91667,0 1.70033,0.32533 2.351,0.976v0v0c0.65133,0.65067 0.977,1.43433 0.977,2.351v0v12.622h-2.255v-12.622v0c0,-0.29333 -0.10567,-0.54533 -0.317,-0.756v0v0c-0.21067,-0.21133 -0.46267,-0.317 -0.756,-0.317v0h-9.57v0c-0.29333,0 -0.55,0.10567 -0.77,0.317v0v0c-0.22,0.21067 -0.33,0.46267 -0.33,0.756v0zM273.086,185.964h-16.445v0c-0.91667,0 -1.69567,-0.32067 -2.337,-0.962v0v0c-0.642,-0.64133 -0.963,-1.42033 -0.963,-2.337v0v-13.201v0c0,-0.916 0.321,-1.695 0.963,-2.337v0v0c0.64133,-0.64133 1.42033,-0.962 2.337,-0.962v0h16.445v2.227h-16.445v0c-0.29333,0 -0.54533,0.10533 -0.756,0.316v0v0c-0.21067,0.21133 -0.316,0.46333 -0.316,0.756v0v13.201v0c0,0.29267 0.10533,0.54467 0.316,0.756v0v0c0.21067,0.21067 0.46267,0.316 0.756,0.316v0h16.445zM288.706,185.964h-9.57v0c-0.91667,0 -1.70033,-0.32533 -2.351,-0.976v0v0c-0.65067,-0.65067 -0.976,-1.43433 -0.976,-2.351v0v-9.295v0c0,-0.91667 0.32533,-1.70033 0.976,-2.351v0v0c0.65067,-0.65133 1.43433,-0.977 2.351,-0.977v0h9.57v0c0.93467,0 1.72767,0.32567 2.379,0.977v0v0c0.65067,0.65067 0.976,1.43433 0.976,2.351v0v9.295v0c0,0.91667 -0.32533,1.70033 -0.976,2.351v0v0c-0.65133,0.65067 -1.44433,0.976 -2.379,0.976zM279.136,183.71v0h9.57v0c0.29333,0 0.54533,-0.10567 0.756,-0.317v0v0c0.21133,-0.21067 0.317,-0.46267 0.317,-0.756v0v-9.295v0c0,-0.29333 -0.10567,-0.54533 -0.317,-0.756v0v0c-0.21067,-0.21067 -0.46267,-0.316 -0.756,-0.316v0h-9.57v0c-0.29333,0 -0.54533,0.10533 -0.756,0.316v0v0c-0.21067,0.21067 -0.316,0.46267 -0.316,0.756v0v9.295v0c0,0.29333 0.10533,0.54533 0.316,0.756v0v0c0.21067,0.21133 0.46267,0.317 0.756,0.317zM296.764,185.964h-2.255v-15.95h12.925v0c0.91667,0 1.70033,0.32567 2.351,0.977v0v0c0.65067,0.65067 0.976,1.43433 0.976,2.351v0v12.622h-2.255v-12.622v0c0,-0.29333 -0.10533,-0.54533 -0.316,-0.756v0v0c-0.21067,-0.21067 -0.46267,-0.316 -0.756,-0.316v0h-9.571v0c-0.29267,0 -0.54933,0.10533 -0.77,0.316v0v0c-0.21933,0.21067 -0.329,0.46267 -0.329,0.756v0zM329.269,185.964h-12.926v0c-0.91667,0 -1.70033,-0.32533 -2.351,-0.976v0v0c-0.65067,-0.65067 -0.976,-1.43433 -0.976,-2.351v0v-9.295v0c0,-0.91667 0.32533,-1.70033 0.976,-2.351v0v0c0.65067,-0.65133 1.43433,-0.977 2.351,-0.977v0h12.871v2.256h-12.871v0c-0.29267,0 -0.54467,0.10533 -0.756,0.316v0v0c-0.21067,0.21067 -0.316,0.46267 -0.316,0.756v0v9.295v0c0,0.29333 0.10533,0.54533 0.316,0.756v0v0c0.21133,0.21133 0.46333,0.317 0.756,0.317v0h12.926zM334.411,185.964h-2.255v-12.622v0c0,-0.91667 0.32533,-1.70033 0.976,-2.351v0v0c0.65067,-0.65133 1.43433,-0.977 2.351,-0.977v0h8.966v2.256h-8.966v0c-0.29267,0 -0.54467,0.10533 -0.756,0.316v0v0c-0.21067,0.21067 -0.316,0.46267 -0.316,0.756v0zM362.461,185.964h-12.925v0c-0.91667,0 -1.70033,-0.32533 -2.351,-0.976v0v0c-0.65067,-0.65067 -0.976,-1.43433 -0.976,-2.351v0v-9.295v0c0,-0.91667 0.32533,-1.70033 0.976,-2.351v0v0c0.65067,-0.65133 1.43433,-0.977 2.351,-0.977v0h9.57v0c0.93533,0 1.72833,0.32567 2.379,0.977v0v0c0.65067,0.65067 0.976,1.43433 0.976,2.351v0v5.775h-13.997v3.52v0c0,0.29333 0.10533,0.54533 0.316,0.756v0v0c0.21067,0.21133 0.46267,0.317 0.756,0.317v0h12.925zM348.464,173.342v3.52h11.715v-3.52v0c0,-0.29333 -0.10567,-0.54533 -0.317,-0.756v0v0c-0.21067,-0.21067 -0.46267,-0.316 -0.756,-0.316v0h-9.57v0c-0.29333,0 -0.54533,0.10533 -0.756,0.316v0v0c-0.21067,0.21067 -0.316,0.46267 -0.316,0.756zM374.451,185.964h-5.83v0c-0.93533,0 -1.72367,-0.32533 -2.365,-0.976v0v0c-0.64133,-0.65067 -0.962,-1.43433 -0.962,-2.351v0v-17.848h2.255v5.225h6.902v2.256h-6.902v10.367v0c0,0.29333 0.10533,0.54533 0.316,0.756v0v0c0.21067,0.21133 0.46267,0.317 0.756,0.317v0h5.83zM378.796,185.964h-2.255v-12.622v0c0,-0.91667 0.32533,-1.70033 0.976,-2.351v0v0c0.65067,-0.65133 1.43433,-0.977 2.351,-0.977v0h8.966v2.256h-8.966v0c-0.29267,0 -0.54467,0.10533 -0.756,0.316v0v0c-0.21067,0.21067 -0.316,0.46267 -0.316,0.756v0zM392.876,185.964h-2.255v-15.95h2.255zM392.876,167.044h-2.255v-2.255h2.255zM409.129,185.964h-9.57v0c-0.91667,0 -1.70067,-0.32533 -2.352,-0.976v0v0c-0.65067,-0.65067 -0.976,-1.43433 -0.976,-2.351v0v-0.22h2.255v0.22v0c0,0.29333 0.10533,0.54533 0.316,0.756v0v0c0.21067,0.21133 0.463,0.317 0.757,0.317v0h9.57v0c0.29333,0 0.54533,-0.10567 0.756,-0.317v0v0c0.21067,-0.21067 0.316,-0.46267 0.316,-0.756v0v-2.447v0c0,-0.294 -0.10533,-0.54633 -0.316,-0.757v0v0c-0.21067,-0.21067 -0.46267,-0.316 -0.756,-0.316v0h-9.57v0c-0.91667,0 -1.70067,-0.32533 -2.352,-0.976v0v0c-0.65067,-0.65133 -0.976,-1.43533 -0.976,-2.352v0v-2.447v0c0,-0.91667 0.32533,-1.70033 0.976,-2.351v0v0c0.65133,-0.65133 1.43533,-0.977 2.352,-0.977v0h9.57v0c0.93467,0 1.72733,0.32567 2.378,0.977v0v0c0.65067,0.65067 0.976,1.43433 0.976,2.351v0v0.22h-2.282v-0.22v0c0,-0.29333 -0.10533,-0.54533 -0.316,-0.756v0v0c-0.21067,-0.21067 -0.46267,-0.316 -0.756,-0.316v0h-9.57v0c-0.294,0 -0.54633,0.10533 -0.757,0.316v0v0c-0.21067,0.21067 -0.316,0.46267 -0.316,0.756v0v2.447v0c0,0.294 0.10533,0.54633 0.316,0.757v0v0c0.21067,0.21067 0.463,0.316 0.757,0.316v0h9.57v0c0.93467,0 1.72733,0.32533 2.378,0.976v0v0c0.65067,0.65133 0.976,1.43533 0.976,2.352v0v2.447v0c0,0.91667 -0.32533,1.70033 -0.976,2.351v0v0c-0.65067,0.65067 -1.44333,0.976 -2.378,0.976zM224.631,185.964h-5.83v0c-0.93467,0 -1.723,-0.32533 -2.365,-0.976v0v0c-0.64133,-0.65067 -0.962,-1.43433 -0.962,-2.351v0v-17.848h2.255v5.225h6.902v2.256h-6.902v10.367v0c0,0.29333 0.10533,0.54533 0.316,0.756v0v0c0.21067,0.21133 0.46267,0.317 0.756,0.317v0h5.83zM239.591,185.964h-9.57v0c-0.91667,0 -1.70033,-0.32533 -2.351,-0.976v0v0c-0.65067,-0.65067 -0.976,-1.43433 -0.976,-2.351v0v-9.295v0c0,-0.91667 0.32533,-1.70033 0.976,-2.351v0v0c0.65067,-0.65133 1.43433,-0.977 2.351,-0.977v0h9.57v0c0.93467,0 1.72767,0.32567 2.379,0.977v0v0c0.65067,0.65067 0.976,1.43433 0.976,2.351v0v9.295v0c0,0.91667 -0.32533,1.70033 -0.976,2.351v0v0c-0.65133,0.65067 -1.44433,0.976 -2.379,0.976zM230.021,183.71v0h9.57v0c0.29333,0 0.54533,-0.10567 0.756,-0.317v0v0c0.21133,-0.21067 0.317,-0.46267 0.317,-0.756v0v-9.295v0c0,-0.29333 -0.10567,-0.54533 -0.317,-0.756v0v0c-0.21067,-0.21067 -0.46267,-0.316 -0.756,-0.316v0h-9.57v0c-0.29333,0 -0.54533,0.10533 -0.756,0.316v0v0c-0.21067,0.21067 -0.316,0.46267 -0.316,0.756v0v9.295v0c0,0.29333 0.10533,0.54533 0.316,0.756v0v0c0.21067,0.21133 0.46267,0.317 0.756,0.317zM74.316,185.964h-1.925l-7.205,-19.799h2.365l5.803,15.894l5.775,-15.894h2.695l5.802,15.894l5.748,-15.894h2.42l-7.205,19.799h-1.953l-6.16,-16.912zM113.339,185.964h-12.925v0c-0.91667,0 -1.70067,-0.32533 -2.352,-0.976v0v0c-0.65067,-0.65067 -0.976,-1.43433 -0.976,-2.351v0v-9.295v0c0,-0.91667 0.32533,-1.70033 0.976,-2.351v0v0c0.65133,-0.65133 1.43533,-0.977 2.352,-0.977v0h9.57v0c0.93467,0 1.72733,0.32567 2.378,0.977v0v0c0.65133,0.65067 0.977,1.43433 0.977,2.351v0v5.775h-13.998v3.52v0c0,0.29333 0.10533,0.54533 0.316,0.756v0v0c0.21133,0.21133 0.46367,0.317 0.757,0.317v0h12.925zM99.341,173.342v3.52h11.715v-3.52v0c0,-0.29333 -0.10533,-0.54533 -0.316,-0.756v0v0c-0.21067,-0.21067 -0.46267,-0.316 -0.756,-0.316v0h-9.57v0c-0.29333,0 -0.54567,0.10533 -0.757,0.316v0v0c-0.21067,0.21067 -0.316,0.46267 -0.316,0.756zM121.616,185.964h-2.695v0c-0.91667,0 -1.70033,-0.32533 -2.351,-0.976v0v0c-0.65067,-0.65067 -0.976,-1.43433 -0.976,-2.351v0v-17.848h2.255v17.848v0c0,0.29333 0.10533,0.54533 0.316,0.756v0v0c0.21067,0.21133 0.46267,0.317 0.756,0.317v0h2.695zM140.124,185.964h-12.925v0c-0.91667,0 -1.70067,-0.32533 -2.352,-0.976v0v0c-0.65067,-0.65067 -0.976,-1.43433 -0.976,-2.351v0v-9.295v0c0,-0.91667 0.32533,-1.70033 0.976,-2.351v0v0c0.65133,-0.65133 1.43533,-0.977 2.352,-0.977v0h12.87v2.256h-12.87v0c-0.29333,0 -0.54567,0.10533 -0.757,0.316v0v0c-0.21067,0.21067 -0.316,0.46267 -0.316,0.756v0v9.295v0c0,0.29333 0.10533,0.54533 0.316,0.756v0v0c0.21133,0.21133 0.46367,0.317 0.757,0.317v0h12.925zM155.881,185.964h-9.57v0c-0.91667,0 -1.70033,-0.32533 -2.351,-0.976v0v0c-0.65067,-0.65067 -0.976,-1.43433 -0.976,-2.351v0v-9.295v0c0,-0.91667 0.32533,-1.70033 0.976,-2.351v0v0c0.65067,-0.65133 1.43433,-0.977 2.351,-0.977v0h9.57v0c0.93533,0 1.72833,0.32567 2.379,0.977v0v0c0.65067,0.65067 0.976,1.43433 0.976,2.351v0v9.295v0c0,0.91667 -0.32533,1.70033 -0.976,2.351v0v0c-0.65067,0.65067 -1.44367,0.976 -2.379,0.976zM146.311,183.71v0h9.57v0c0.29333,0 0.54533,-0.10567 0.756,-0.317v0v0c0.21133,-0.21067 0.317,-0.46267 0.317,-0.756v0v-9.295v0c0,-0.29333 -0.10567,-0.54533 -0.317,-0.756v0v0c-0.21067,-0.21067 -0.46267,-0.316 -0.756,-0.316v0h-9.57v0c-0.29333,0 -0.54533,0.10533 -0.756,0.316v0v0c-0.21067,0.21067 -0.316,0.46267 -0.316,0.756v0v9.295v0c0,0.29333 0.10533,0.54533 0.316,0.756v0v0c0.21067,0.21133 0.46267,0.317 0.756,0.317zM164.379,185.964h-2.283v-15.95h21.065v0c0.93533,0 1.72367,0.32567 2.365,0.977v0v0c0.642,0.65067 0.963,1.43433 0.963,2.351v0v12.622h-2.228v-12.622v0c0,-0.29333 -0.11,-0.54533 -0.33,-0.756v0v0c-0.22,-0.21067 -0.47667,-0.316 -0.77,-0.316v0h-6.627v0c-0.29333,0 -0.54567,0.10533 -0.757,0.316v0v0c-0.21067,0.21067 -0.316,0.46267 -0.316,0.756v0v12.622h-2.282v-12.622v0c0,-0.29333 -0.10567,-0.54533 -0.317,-0.756v0v0c-0.21067,-0.21067 -0.46267,-0.316 -0.756,-0.316v0h-6.655v0c-0.29333,0 -0.54533,0.10533 -0.756,0.316v0v0c-0.21067,0.21067 -0.316,0.46267 -0.316,0.756v0zM205.161,185.964h-12.925v0c-0.91667,0 -1.70033,-0.32533 -2.351,-0.976v0v0c-0.65067,-0.65067 -0.976,-1.43433 -0.976,-2.351v0v-9.295v0c0,-0.91667 0.32533,-1.70033 0.976,-2.351v0v0c0.65067,-0.65133 1.43433,-0.977 2.351,-0.977v0h9.57v0c0.93533,0 1.72833,0.32567 2.379,0.977v0v0c0.65067,0.65067 0.976,1.43433 0.976,2.351v0v5.775h-13.997v3.52v0c0,0.29333 0.10533,0.54533 0.316,0.756v0v0c0.21067,0.21133 0.46267,0.317 0.756,0.317v0h12.925zM191.164,173.342v3.52h11.715v-3.52v0c0,-0.29333 -0.10567,-0.54533 -0.317,-0.756v0v0c-0.21067,-0.21067 -0.46267,-0.316 -0.756,-0.316v0h-9.57v0c-0.29333,0 -0.54533,0.10533 -0.756,0.316v0v0c-0.21067,0.21067 -0.316,0.46267 -0.316,0.756z" fill="#ffffff" stroke="none" stroke-width="1"/></g></g></svg>