<svg version="1.1" xmlns="http://www.w3.org/2000/svg" xmlns:xlink="http://www.w3.org/1999/xlink" width="389.966" height="304.824" viewBox="0,0,389.966,304.824"><g transform="translate(-45.017,-137.588)"><g data-paper-data="{&quot;isPaintingLayer&quot;:true}" fill-rule="nonzero" stroke-linejoin="miter" stroke-dasharray="" stroke-dashoffset="0" style="mix-blend-mode: normal"><path d="M46.267,441.162v-302.324h387.466v302.324z" fill-opacity="0.8" fill="#000000" stroke="#ffffff" stroke-width="2.5" stroke-linecap="butt" stroke-miterlimit="10"/><g><path d="M66.865,153.338h88.804c2.262,0 4.098,1.836 4.098,4.098v88.804c0,2.262 -1.836,4.098 -4.098,4.098h-88.804c-2.262,0 -4.098,-1.836 -4.098,-4.098v-88.804c0,-2.262 1.836,-4.098 4.098,-4.098z" fill="#88c188" stroke="none" stroke-width="1" stroke-linecap="butt" stroke-miterlimit="10"/><path d="M66.865,153.338h88.804c2.262,0 4.098,1.836 4.098,4.098v88.804c0,2.262 -1.836,4.098 -4.098,4.098h-88.804c-2.262,0 -4.098,-1.836 -4.098,-4.098v-88.804c0,-2.262 1.836,-4.098 4.098,-4.098z" fill="none" stroke="#000000" stroke-width="6" stroke-linecap="square" stroke-miterlimit="2"/><path d="M80.671,199.119c-5.462,-12.209 3.289,-19.155 8,-20.333c2.705,-0.677 5.005,1.888 7.667,1.666c5.739,-0.478 10.324,-4.441 16.333,-5c2.766,-0.257 5.556,0 8.334,0c30.85,3.857 16.151,21.277 24.666,34.334c4.681,7.177 3.337,11.988 0.667,19.666c-7.179,20.639 -34.646,5.508 -42.667,4.334c-4.513,-0.661 -9.127,0.539 -13.666,-0.334c-3.143,-0.604 -4.173,-1.505 -6.334,-3.666c-3.367,-3.367 -3.129,-2.519 -4,-6c-1.765,-7.061 -0.766,-12.977 1,-14c4.709,-6.25 2.125,-5.917 0,-10.667z" fill="#65ea65" stroke="none" stroke-width="1" stroke-linecap="butt" stroke-miterlimit="10"/></g><path d="M228.745,424.803h-2.156v0c-0.73333,0 -1.36033,-0.26033 -1.881,-0.781v0v0c-0.52067,-0.52067 -0.781,-1.14767 -0.781,-1.881v0v-14.278h1.804v14.278v0c0,0.23467 0.08433,0.43633 0.253,0.605v0v0c0.16867,0.16867 0.37033,0.253 0.605,0.253v0h2.156zM232.375,424.803h-1.804v-12.76h1.804zM232.375,409.667h-1.804v-1.804h1.804zM235.939,424.803h-1.804v-14.278v0c0,-0.748 0.25667,-1.37867 0.77,-1.892v0v0c0.51333,-0.51333 1.144,-0.77 1.892,-0.77v0h4.664v1.804h-4.664v0c-0.23467,0 -0.43633,0.08433 -0.605,0.253v0v0c-0.16867,0.16867 -0.253,0.37033 -0.253,0.605v0v1.518h5.522v1.804h-5.522zM256.047,424.803h-10.34v0c-0.73333,0 -1.36033,-0.26033 -1.881,-0.781v0v0c-0.52067,-0.52067 -0.781,-1.14767 -0.781,-1.881v0v-7.436v0c0,-0.73333 0.26033,-1.36033 0.781,-1.881v0v0c0.52067,-0.52067 1.14767,-0.781 1.881,-0.781v0h7.656v0c0.748,0 1.38233,0.26033 1.903,0.781v0v0c0.52067,0.52067 0.781,1.14767 0.781,1.881v0v4.62h-11.198v2.816v0c0,0.23467 0.08433,0.43633 0.253,0.605v0v0c0.16867,0.16867 0.37033,0.253 0.605,0.253v0h10.34zM244.849,414.705v2.816h9.372v-2.816v0c0,-0.23467 -0.08433,-0.43633 -0.253,-0.605v0v0c-0.16867,-0.16867 -0.37033,-0.253 -0.605,-0.253v0h-7.656v0c-0.23467,0 -0.43633,0.08433 -0.605,0.253v0v0c-0.16867,0.16867 -0.253,0.37033 -0.253,0.605zM260.139,424.803h-1.804v-1.804h1.804zM201.047,424.803h-4.664v0c-0.748,0 -1.37867,-0.26033 -1.892,-0.781v0v0c-0.51333,-0.52067 -0.77,-1.14767 -0.77,-1.881v0v-14.278h1.804v4.18h5.522v1.804h-5.522v8.294v0c0,0.23467 0.08433,0.43633 0.253,0.605v0v0c0.16867,0.16867 0.37033,0.253 0.605,0.253v0h4.664zM213.015,424.803h-7.656v0c-0.73333,0 -1.36033,-0.26033 -1.881,-0.781v0v0c-0.52067,-0.52067 -0.781,-1.14767 -0.781,-1.881v0v-7.436v0c0,-0.73333 0.26033,-1.36033 0.781,-1.881v0v0c0.52067,-0.52067 1.14767,-0.781 1.881,-0.781v0h7.656v0c0.748,0 1.38233,0.26033 1.903,0.781v0v0c0.52067,0.52067 0.781,1.14767 0.781,1.881v0v7.436v0c0,0.73333 -0.26033,1.36033 -0.781,1.881v0v0c-0.52067,0.52067 -1.155,0.781 -1.903,0.781zM205.359,422.999v0h7.656v0c0.23467,0 0.43633,-0.08433 0.605,-0.253v0v0c0.16867,-0.16867 0.253,-0.37033 0.253,-0.605v0v-7.436v0c0,-0.23467 -0.08433,-0.43633 -0.253,-0.605v0v0c-0.16867,-0.16867 -0.37033,-0.253 -0.605,-0.253v0h-7.656v0c-0.23467,0 -0.43633,0.08433 -0.605,0.253v0v0c-0.16867,0.16867 -0.253,0.37033 -0.253,0.605v0v7.436v0c0,0.23467 0.08433,0.43633 0.253,0.605v0v0c0.16867,0.16867 0.37033,0.253 0.605,0.253zM75.141,424.803h-10.34v0c-0.73333,0 -1.36033,-0.26033 -1.881,-0.781v0v0c-0.52067,-0.52067 -0.781,-1.14767 -0.781,-1.881v0v-7.436v0c0,-0.73333 0.26033,-1.36033 0.781,-1.881v0v0c0.52067,-0.52067 1.14767,-0.781 1.881,-0.781v0h10.296v1.804h-10.296v0c-0.23467,0 -0.43633,0.08433 -0.605,0.253v0v0c-0.16867,0.16867 -0.253,0.37033 -0.253,0.605v0v7.436v0c0,0.23467 0.08433,0.43633 0.253,0.605v0v0c0.16867,0.16867 0.37033,0.253 0.605,0.253v0h10.34zM87.747,424.803h-7.656v0c-0.73333,0 -1.36033,-0.26033 -1.881,-0.781v0v0c-0.52067,-0.52067 -0.781,-1.14767 -0.781,-1.881v0v-7.436v0c0,-0.73333 0.26033,-1.36033 0.781,-1.881v0v0c0.52067,-0.52067 1.14767,-0.781 1.881,-0.781v0h7.656v0c0.748,0 1.38233,0.26033 1.903,0.781v0v0c0.52067,0.52067 0.781,1.14767 0.781,1.881v0v7.436v0c0,0.73333 -0.26033,1.36033 -0.781,1.881v0v0c-0.52067,0.52067 -1.155,0.781 -1.903,0.781zM80.091,422.999v0h7.656v0c0.23467,0 0.43633,-0.08433 0.605,-0.253v0v0c0.16867,-0.16867 0.253,-0.37033 0.253,-0.605v0v-7.436v0c0,-0.23467 -0.08433,-0.43633 -0.253,-0.605v0v0c-0.16867,-0.16867 -0.37033,-0.253 -0.605,-0.253v0h-7.656v0c-0.23467,0 -0.43633,0.08433 -0.605,0.253v0v0c-0.16867,0.16867 -0.253,0.37033 -0.253,0.605v0v7.436v0c0,0.23467 0.08433,0.43633 0.253,0.605v0v0c0.16867,0.16867 0.37033,0.253 0.605,0.253zM94.193,424.803h-1.804v-12.76h10.34v0c0.73333,0 1.36033,0.26033 1.881,0.781v0v0c0.52067,0.52067 0.781,1.14767 0.781,1.881v0v10.098h-1.804v-10.098v0c0,-0.23467 -0.08433,-0.43633 -0.253,-0.605v0v0c-0.16867,-0.16867 -0.37033,-0.253 -0.605,-0.253v0h-7.656v0c-0.23467,0 -0.44,0.08433 -0.616,0.253v0v0c-0.176,0.16867 -0.264,0.37033 -0.264,0.605v0zM120.021,424.803h-10.318v0c-0.748,0 -1.38233,-0.26033 -1.903,-0.781v0v0c-0.52067,-0.52067 -0.781,-1.14767 -0.781,-1.881v0v-7.436v0c0,-0.73333 0.26033,-1.36033 0.781,-1.881v0v0c0.52067,-0.52067 1.155,-0.781 1.903,-0.781v0h8.514v-4.18h1.804zM109.703,422.999v0h7.656v0c0.23467,0 0.43633,-0.08433 0.605,-0.253v0v0c0.16867,-0.16867 0.253,-0.37033 0.253,-0.605v0v-7.436v0c0,-0.23467 -0.08433,-0.43633 -0.253,-0.605v0v0c-0.16867,-0.16867 -0.37033,-0.253 -0.605,-0.253v0h-7.656v0c-0.23467,0 -0.43633,0.08433 -0.605,0.253v0v0c-0.16867,0.16867 -0.253,0.37033 -0.253,0.605v0v7.436v0c0,0.23467 0.08433,0.43633 0.253,0.605v0v0c0.16867,0.16867 0.37033,0.253 0.605,0.253zM132.165,424.803h-7.656v0c-0.73333,0 -1.36033,-0.26033 -1.881,-0.781v0v0c-0.52067,-0.52067 -0.781,-1.14767 -0.781,-1.881v0v-10.098h1.804v10.098v0c0,0.23467 0.08433,0.43633 0.253,0.605v0v0c0.16867,0.16867 0.37033,0.253 0.605,0.253v0h7.656v0c0.23467,0 0.44,-0.08433 0.616,-0.253v0v0c0.176,-0.16867 0.264,-0.37033 0.264,-0.605v0v-10.098h1.804v10.098v0c0,0.73333 -0.26033,1.36033 -0.781,1.881v0v0c-0.52067,0.52067 -1.155,0.781 -1.903,0.781zM149.655,424.803h-10.34v0c-0.73333,0 -1.36033,-0.26033 -1.881,-0.781v0v0c-0.52067,-0.52067 -0.781,-1.14767 -0.781,-1.881v0v-7.436v0c0,-0.73333 0.26033,-1.36033 0.781,-1.881v0v0c0.52067,-0.52067 1.14767,-0.781 1.881,-0.781v0h10.296v1.804h-10.296v0c-0.23467,0 -0.43633,0.08433 -0.605,0.253v0v0c-0.16867,0.16867 -0.253,0.37033 -0.253,0.605v0v7.436v0c0,0.23467 0.08433,0.43633 0.253,0.605v0v0c0.16867,0.16867 0.37033,0.253 0.605,0.253v0h10.34zM153.769,424.803h-1.804v-12.76h1.804zM153.769,409.667h-1.804v-1.804h1.804zM164.879,424.803h-2.09l-7.04,-12.76h2.112l5.984,11l5.984,-11h2.112zM186.131,424.803h-10.34v0c-0.73333,0 -1.36033,-0.26033 -1.881,-0.781v0v0c-0.52067,-0.52067 -0.781,-1.14767 -0.781,-1.881v0v-7.436v0c0,-0.73333 0.26033,-1.36033 0.781,-1.881v0v0c0.52067,-0.52067 1.14767,-0.781 1.881,-0.781v0h7.656v0c0.748,0 1.38233,0.26033 1.903,0.781v0v0c0.52067,0.52067 0.781,1.14767 0.781,1.881v0v4.62h-11.198v2.816v0c0,0.23467 0.08433,0.43633 0.253,0.605v0v0c0.16867,0.16867 0.37033,0.253 0.605,0.253v0h10.34zM174.933,414.705v2.816h9.372v-2.816v0c0,-0.23467 -0.08433,-0.43633 -0.253,-0.605v0v0c-0.16867,-0.16867 -0.37033,-0.253 -0.605,-0.253v0h-7.656v0c-0.23467,0 -0.43633,0.08433 -0.605,0.253v0v0c-0.16867,0.16867 -0.253,0.37033 -0.253,0.605zM341.517,394.182h-1.826v-12.76h16.852v0c0.748,0 1.37867,0.26033 1.892,0.781v0v0c0.51333,0.52067 0.77,1.14767 0.77,1.881v0v10.098h-1.782v-10.098v0c0,-0.23467 -0.088,-0.43633 -0.264,-0.605v0v0c-0.176,-0.16867 -0.38133,-0.253 -0.616,-0.253v0h-5.302v0c-0.23467,0 -0.43633,0.08433 -0.605,0.253v0v0c-0.16867,0.16867 -0.253,0.37033 -0.253,0.605v0v10.098h-1.826v-10.098v0c0,-0.23467 -0.08433,-0.43633 -0.253,-0.605v0v0c-0.16867,-0.16867 -0.37033,-0.253 -0.605,-0.253v0h-5.324v0c-0.23467,0 -0.43633,0.08433 -0.605,0.253v0v0c-0.16867,0.16867 -0.253,0.37033 -0.253,0.605v0zM371.459,394.182h-7.656v0c-0.73333,0 -1.36033,-0.26033 -1.881,-0.781v0v0c-0.52067,-0.52067 -0.781,-1.14767 -0.781,-1.881v0v-7.436v0c0,-0.73333 0.26033,-1.36033 0.781,-1.881v0v0c0.52067,-0.52067 1.14767,-0.781 1.881,-0.781v0h7.656v0c0.748,0 1.38233,0.26033 1.903,0.781v0v0c0.52067,0.52067 0.781,1.14767 0.781,1.881v0v7.436v0c0,0.73333 -0.26033,1.36033 -0.781,1.881v0v0c-0.52067,0.52067 -1.155,0.781 -1.903,0.781zM363.803,392.378v0h7.656v0c0.23467,0 0.43633,-0.08433 0.605,-0.253v0v0c0.16867,-0.16867 0.253,-0.37033 0.253,-0.605v0v-7.436v0c0,-0.23467 -0.08433,-0.43633 -0.253,-0.605v0v0c-0.16867,-0.16867 -0.37033,-0.253 -0.605,-0.253v0h-7.656v0c-0.23467,0 -0.43633,0.08433 -0.605,0.253v0v0c-0.16867,0.16867 -0.253,0.37033 -0.253,0.605v0v7.436v0c0,0.23467 0.08433,0.43633 0.253,0.605v0v0c0.16867,0.16867 0.37033,0.253 0.605,0.253zM377.971,394.182h-1.804v-10.098v0c0,-0.73333 0.26033,-1.36033 0.781,-1.881v0v0c0.52067,-0.52067 1.14767,-0.781 1.881,-0.781v0h7.172v1.804h-7.172v0c-0.23467,0 -0.43633,0.08433 -0.605,0.253v0v0c-0.16867,0.16867 -0.253,0.37033 -0.253,0.605v0zM400.411,394.182h-10.34v0c-0.73333,0 -1.36033,-0.26033 -1.881,-0.781v0v0c-0.52067,-0.52067 -0.781,-1.14767 -0.781,-1.881v0v-7.436v0c0,-0.73333 0.26033,-1.36033 0.781,-1.881v0v0c0.52067,-0.52067 1.14767,-0.781 1.881,-0.781v0h7.656v0c0.748,0 1.38233,0.26033 1.903,0.781v0v0c0.52067,0.52067 0.781,1.14767 0.781,1.881v0v4.62h-11.198v2.816v0c0,0.23467 0.08433,0.43633 0.253,0.605v0v0c0.16867,0.16867 0.37033,0.253 0.605,0.253v0h10.34zM389.213,384.084v2.816h9.372v-2.816v0c0,-0.23467 -0.08433,-0.43633 -0.253,-0.605v0v0c-0.16867,-0.16867 -0.37033,-0.253 -0.605,-0.253v0h-7.656v0c-0.23467,0 -0.43633,0.08433 -0.605,0.253v0v0c-0.16867,0.16867 -0.253,0.37033 -0.253,0.605zM321.871,394.182h-1.804v-12.76h1.804zM321.871,379.046h-1.804v-1.804h1.804zM331.991,394.182h-4.664v0c-0.748,0 -1.37867,-0.26033 -1.892,-0.781v0v0c-0.51333,-0.52067 -0.77,-1.14767 -0.77,-1.881v0v-14.278h1.804v4.18h5.522v1.804h-5.522v8.294v0c0,0.23467 0.08433,0.43633 0.253,0.605v0v0c0.16867,0.16867 0.37033,0.253 0.605,0.253v0h4.664zM230.373,394.182h-1.826v-12.76h16.852v0c0.748,0 1.37867,0.26033 1.892,0.781v0v0c0.51333,0.52067 0.77,1.14767 0.77,1.881v0v10.098h-1.782v-10.098v0c0,-0.23467 -0.088,-0.43633 -0.264,-0.605v0v0c-0.176,-0.16867 -0.38133,-0.253 -0.616,-0.253v0h-5.302v0c-0.23467,0 -0.43633,0.08433 -0.605,0.253v0v0c-0.16867,0.16867 -0.253,0.37033 -0.253,0.605v0v10.098h-1.826v-10.098v0c0,-0.23467 -0.08433,-0.43633 -0.253,-0.605v0v0c-0.16867,-0.16867 -0.37033,-0.253 -0.605,-0.253v0h-5.324v0c-0.23467,0 -0.43633,0.08433 -0.605,0.253v0v0c-0.16867,0.16867 -0.253,0.37033 -0.253,0.605v0zM263.021,394.182h-10.34v0c-0.73333,0 -1.36033,-0.26033 -1.881,-0.781v0v0c-0.52067,-0.52067 -0.781,-1.14767 -0.781,-1.881v0v-4.62h11.176v-2.816v0c0,-0.23467 -0.08433,-0.43633 -0.253,-0.605v0v0c-0.16867,-0.16867 -0.37033,-0.253 -0.605,-0.253v0h-10.318v-1.804h10.318v0c0.748,0 1.38233,0.26033 1.903,0.781v0v0c0.52067,0.52067 0.781,1.14767 0.781,1.881v0zM252.681,392.378v0h8.514v-3.674h-9.372v2.816v0c0,0.23467 0.08433,0.43633 0.253,0.605v0v0c0.16867,0.16867 0.37033,0.253 0.605,0.253zM267.135,394.182h-1.804v-16.94h1.804v9.658h3.52l5.016,-5.478h2.376v0.022l-5.786,6.358l5.764,6.358v0.022h-2.354l-5.016,-5.478h-3.52zM281.303,394.182h-1.804v-12.76h1.804zM281.303,379.046h-1.804v-1.804h1.804zM285.593,394.182h-1.804v-12.76h10.34v0c0.73333,0 1.36033,0.26033 1.881,0.781v0v0c0.52067,0.52067 0.781,1.14767 0.781,1.881v0v10.098h-1.804v-10.098v0c0,-0.23467 -0.08433,-0.43633 -0.253,-0.605v0v0c-0.16867,-0.16867 -0.37033,-0.253 -0.605,-0.253v0h-7.656v0c-0.23467,0 -0.44,0.08433 -0.616,0.253v0v0c-0.176,0.16867 -0.264,0.37033 -0.264,0.605v0zM309.133,399.22h-7.964v-1.826h7.964v0c0.23467,0 0.43633,-0.08433 0.605,-0.253v0v0c0.16867,-0.16867 0.253,-0.37033 0.253,-0.605v0v-2.354h-8.514v0c-0.73333,0 -1.36033,-0.26033 -1.881,-0.781v0v0c-0.52067,-0.52067 -0.781,-1.14767 -0.781,-1.881v0v-7.436v0c0,-0.73333 0.26033,-1.36033 0.781,-1.881v0v0c0.52067,-0.52067 1.14767,-0.781 1.881,-0.781v0h7.656v0c0.748,0 1.37867,0.26033 1.892,0.781v0v0c0.51333,0.52067 0.77,1.14767 0.77,1.881v0v12.452v0c0,0.748 -0.25667,1.38233 -0.77,1.903v0v0c-0.51333,0.52067 -1.144,0.781 -1.892,0.781zM301.477,392.378v0h7.656v0c0.23467,0 0.43633,-0.08433 0.605,-0.253v0v0c0.16867,-0.16867 0.253,-0.37033 0.253,-0.605v0v-7.436v0c0,-0.23467 -0.08433,-0.43633 -0.253,-0.605v0v0c-0.16867,-0.16867 -0.37033,-0.253 -0.605,-0.253v0h-7.656v0c-0.23467,0 -0.43633,0.08433 -0.605,0.253v0v0c-0.16867,0.16867 -0.253,0.37033 -0.253,0.605v0v7.436v0c0,0.23467 0.08433,0.43633 0.253,0.605v0v0c0.16867,0.16867 0.37033,0.253 0.605,0.253zM120.175,394.182h-10.34v0c-0.73333,0 -1.36033,-0.26033 -1.881,-0.781v0v0c-0.52067,-0.52067 -0.781,-1.14767 -0.781,-1.881v0v-7.436v0c0,-0.73333 0.26033,-1.36033 0.781,-1.881v0v0c0.52067,-0.52067 1.14767,-0.781 1.881,-0.781v0h10.296v1.804h-10.296v0c-0.23467,0 -0.43633,0.08433 -0.605,0.253v0v0c-0.16867,0.16867 -0.253,0.37033 -0.253,0.605v0v7.436v0c0,0.23467 0.08433,0.43633 0.253,0.605v0v0c0.16867,0.16867 0.37033,0.253 0.605,0.253v0h10.34zM132.781,394.182h-7.656v0c-0.73333,0 -1.36033,-0.26033 -1.881,-0.781v0v0c-0.52067,-0.52067 -0.781,-1.14767 -0.781,-1.881v0v-7.436v0c0,-0.73333 0.26033,-1.36033 0.781,-1.881v0v0c0.52067,-0.52067 1.14767,-0.781 1.881,-0.781v0h7.656v0c0.748,0 1.38233,0.26033 1.903,0.781v0v0c0.52067,0.52067 0.781,1.14767 0.781,1.881v0v7.436v0c0,0.73333 -0.26033,1.36033 -0.781,1.881v0v0c-0.52067,0.52067 -1.155,0.781 -1.903,0.781zM125.125,392.378v0h7.656v0c0.23467,0 0.43633,-0.08433 0.605,-0.253v0v0c0.16867,-0.16867 0.253,-0.37033 0.253,-0.605v0v-7.436v0c0,-0.23467 -0.08433,-0.43633 -0.253,-0.605v0v0c-0.16867,-0.16867 -0.37033,-0.253 -0.605,-0.253v0h-7.656v0c-0.23467,0 -0.43633,0.08433 -0.605,0.253v0v0c-0.16867,0.16867 -0.253,0.37033 -0.253,0.605v0v7.436v0c0,0.23467 0.08433,0.43633 0.253,0.605v0v0c0.16867,0.16867 0.37033,0.253 0.605,0.253zM139.227,394.182h-1.804v-12.76h10.34v0c0.73333,0 1.36033,0.26033 1.881,0.781v0v0c0.52067,0.52067 0.781,1.14767 0.781,1.881v0v10.098h-1.804v-10.098v0c0,-0.23467 -0.08433,-0.43633 -0.253,-0.605v0v0c-0.16867,-0.16867 -0.37033,-0.253 -0.605,-0.253v0h-7.656v0c-0.23467,0 -0.44,0.08433 -0.616,0.253v0v0c-0.176,0.16867 -0.264,0.37033 -0.264,0.605v0zM165.231,394.182h-10.34v0c-0.73333,0 -1.36033,-0.26033 -1.881,-0.781v0v0c-0.52067,-0.52067 -0.781,-1.14767 -0.781,-1.881v0v-7.436v0c0,-0.73333 0.26033,-1.36033 0.781,-1.881v0v0c0.52067,-0.52067 1.14767,-0.781 1.881,-0.781v0h10.296v1.804h-10.296v0c-0.23467,0 -0.43633,0.08433 -0.605,0.253v0v0c-0.16867,0.16867 -0.253,0.37033 -0.253,0.605v0v7.436v0c0,0.23467 0.08433,0.43633 0.253,0.605v0v0c0.16867,0.16867 0.37033,0.253 0.605,0.253v0h10.34zM169.345,394.182h-1.804v-10.098v0c0,-0.73333 0.26033,-1.36033 0.781,-1.881v0v0c0.52067,-0.52067 1.14767,-0.781 1.881,-0.781v0h7.172v1.804h-7.172v0c-0.23467,0 -0.43633,0.08433 -0.605,0.253v0v0c-0.16867,0.16867 -0.253,0.37033 -0.253,0.605v0zM191.785,394.182h-10.34v0c-0.73333,0 -1.36033,-0.26033 -1.881,-0.781v0v0c-0.52067,-0.52067 -0.781,-1.14767 -0.781,-1.881v0v-7.436v0c0,-0.73333 0.26033,-1.36033 0.781,-1.881v0v0c0.52067,-0.52067 1.14767,-0.781 1.881,-0.781v0h7.656v0c0.748,0 1.38233,0.26033 1.903,0.781v0v0c0.52067,0.52067 0.781,1.14767 0.781,1.881v0v4.62h-11.198v2.816v0c0,0.23467 0.08433,0.43633 0.253,0.605v0v0c0.16867,0.16867 0.37033,0.253 0.605,0.253v0h10.34zM180.587,384.084v2.816h9.372v-2.816v0c0,-0.23467 -0.08433,-0.43633 -0.253,-0.605v0v0c-0.16867,-0.16867 -0.37033,-0.253 -0.605,-0.253v0h-7.656v0c-0.23467,0 -0.43633,0.08433 -0.605,0.253v0v0c-0.16867,0.16867 -0.253,0.37033 -0.253,0.605zM201.377,394.182h-4.664v0c-0.748,0 -1.37867,-0.26033 -1.892,-0.781v0v0c-0.51333,-0.52067 -0.77,-1.14767 -0.77,-1.881v0v-14.278h1.804v4.18h5.522v1.804h-5.522v8.294v0c0,0.23467 0.08433,0.43633 0.253,0.605v0v0c0.16867,0.16867 0.37033,0.253 0.605,0.253v0h4.664zM216.029,394.182h-10.34v0c-0.73333,0 -1.36033,-0.26033 -1.881,-0.781v0v0c-0.52067,-0.52067 -0.781,-1.14767 -0.781,-1.881v0v-7.436v0c0,-0.73333 0.26033,-1.36033 0.781,-1.881v0v0c0.52067,-0.52067 1.14767,-0.781 1.881,-0.781v0h7.656v0c0.748,0 1.38233,0.26033 1.903,0.781v0v0c0.52067,0.52067 0.781,1.14767 0.781,1.881v0v4.62h-11.198v2.816v0c0,0.23467 0.08433,0.43633 0.253,0.605v0v0c0.16867,0.16867 0.37033,0.253 0.605,0.253v0h10.34zM204.831,384.084v2.816h9.372v-2.816v0c0,-0.23467 -0.08433,-0.43633 -0.253,-0.605v0v0c-0.16867,-0.16867 -0.37033,-0.253 -0.605,-0.253v0h-7.656v0c-0.23467,0 -0.43633,0.08433 -0.605,0.253v0v0c-0.16867,0.16867 -0.253,0.37033 -0.253,0.605zM218.317,397.064v0v-4.686h1.804v2.156v0c0,0.58667 -0.16867,1.111 -0.506,1.573v0v0c-0.33733,0.462 -0.77,0.781 -1.298,0.957zM69.509,394.182h-4.664v0c-0.748,0 -1.37867,-0.26033 -1.892,-0.781v0v0c-0.51333,-0.52067 -0.77,-1.14767 -0.77,-1.881v0v-14.278h1.804v4.18h5.522v1.804h-5.522v8.294v0c0,0.23467 0.08433,0.43633 0.253,0.605v0v0c0.16867,0.16867 0.37033,0.253 0.605,0.253v0h4.664zM73.139,394.182h-1.804v-16.94h1.804v4.18h8.536v0c0.71867,0 1.342,0.26033 1.87,0.781v0v0c0.528,0.52067 0.792,1.14767 0.792,1.881v0v10.098h-1.804v-10.098v0c0,-0.23467 -0.08433,-0.43633 -0.253,-0.605v0v0c-0.16867,-0.16867 -0.37033,-0.253 -0.605,-0.253v0h-7.656v0c-0.23467,0 -0.44,0.08433 -0.616,0.253v0v0c-0.176,0.16867 -0.264,0.37033 -0.264,0.605v0zM98.967,394.182h-10.34v0c-0.73333,0 -1.36033,-0.26033 -1.881,-0.781v0v0c-0.52067,-0.52067 -0.781,-1.14767 -0.781,-1.881v0v-7.436v0c0,-0.73333 0.26033,-1.36033 0.781,-1.881v0v0c0.52067,-0.52067 1.14767,-0.781 1.881,-0.781v0h7.656v0c0.748,0 1.38233,0.26033 1.903,0.781v0v0c0.52067,0.52067 0.781,1.14767 0.781,1.881v0v4.62h-11.198v2.816v0c0,0.23467 0.08433,0.43633 0.253,0.605v0v0c0.16867,0.16867 0.37033,0.253 0.605,0.253v0h10.34zM87.769,384.084v2.816h9.372v-2.816v0c0,-0.23467 -0.08433,-0.43633 -0.253,-0.605v0v0c-0.16867,-0.16867 -0.37033,-0.253 -0.605,-0.253v0h-7.656v0c-0.23467,0 -0.43633,0.08433 -0.605,0.253v0v0c-0.16867,0.16867 -0.253,0.37033 -0.253,0.605zM359.029,366.594h-1.804v-12.76h1.804zM359.029,351.458h-1.804v-1.804h1.804zM363.319,366.594h-1.804v-12.76h10.34v0c0.73333,0 1.36033,0.26033 1.881,0.781v0v0c0.52067,0.52067 0.781,1.14767 0.781,1.881v0v10.098h-1.804v-10.098v0c0,-0.23467 -0.08433,-0.43633 -0.253,-0.605v0v0c-0.16867,-0.16867 -0.37033,-0.253 -0.605,-0.253v0h-7.656v0c-0.23467,0 -0.44,0.08433 -0.616,0.253v0v0c-0.176,0.16867 -0.264,0.37033 -0.264,0.605v0zM281.721,366.594h-2.156v0c-0.73333,0 -1.36033,-0.26033 -1.881,-0.781v0v0c-0.52067,-0.52067 -0.781,-1.14767 -0.781,-1.881v0v-14.278h1.804v14.278v0c0,0.23467 0.08433,0.43633 0.253,0.605v0v0c0.16867,0.16867 0.37033,0.253 0.605,0.253v0h2.156zM296.197,366.594h-10.34v0c-0.73333,0 -1.36033,-0.26033 -1.881,-0.781v0v0c-0.52067,-0.52067 -0.781,-1.14767 -0.781,-1.881v0v-7.436v0c0,-0.73333 0.26033,-1.36033 0.781,-1.881v0v0c0.52067,-0.52067 1.14767,-0.781 1.881,-0.781v0h7.656v0c0.748,0 1.38233,0.26033 1.903,0.781v0v0c0.52067,0.52067 0.781,1.14767 0.781,1.881v0v4.62h-11.198v2.816v0c0,0.23467 0.08433,0.43633 0.253,0.605v0v0c0.16867,0.16867 0.37033,0.253 0.605,0.253v0h10.34zM284.999,356.496v2.816h9.372v-2.816v0c0,-0.23467 -0.08433,-0.43633 -0.253,-0.605v0v0c-0.16867,-0.16867 -0.37033,-0.253 -0.605,-0.253v0h-7.656v0c-0.23467,0 -0.43633,0.08433 -0.605,0.253v0v0c-0.16867,0.16867 -0.253,0.37033 -0.253,0.605zM306.449,366.594h-2.09l-7.04,-12.76h2.112l5.984,11l5.984,-11h2.112zM327.701,366.594h-10.34v0c-0.73333,0 -1.36033,-0.26033 -1.881,-0.781v0v0c-0.52067,-0.52067 -0.781,-1.14767 -0.781,-1.881v0v-7.436v0c0,-0.73333 0.26033,-1.36033 0.781,-1.881v0v0c0.52067,-0.52067 1.14767,-0.781 1.881,-0.781v0h7.656v0c0.748,0 1.38233,0.26033 1.903,0.781v0v0c0.52067,0.52067 0.781,1.14767 0.781,1.881v0v4.62h-11.198v2.816v0c0,0.23467 0.08433,0.43633 0.253,0.605v0v0c0.16867,0.16867 0.37033,0.253 0.605,0.253v0h10.34zM316.503,356.496v2.816h9.372v-2.816v0c0,-0.23467 -0.08433,-0.43633 -0.253,-0.605v0v0c-0.16867,-0.16867 -0.37033,-0.253 -0.605,-0.253v0h-7.656v0c-0.23467,0 -0.43633,0.08433 -0.605,0.253v0v0c-0.16867,0.16867 -0.253,0.37033 -0.253,0.605zM334.323,366.594h-2.156v0c-0.73333,0 -1.36033,-0.26033 -1.881,-0.781v0v0c-0.52067,-0.52067 -0.781,-1.14767 -0.781,-1.881v0v-14.278h1.804v14.278v0c0,0.23467 0.08433,0.43633 0.253,0.605v0v0c0.16867,0.16867 0.37033,0.253 0.605,0.253v0h2.156zM346.379,366.594h-7.656v0c-0.73333,0 -1.36033,-0.26033 -1.881,-0.781v0v0c-0.52067,-0.52067 -0.781,-1.14767 -0.781,-1.881v0v-0.176h1.804v0.176v0c0,0.23467 0.08433,0.43633 0.253,0.605v0v0c0.16867,0.16867 0.37033,0.253 0.605,0.253v0h7.656v0c0.23467,0 0.43633,-0.08433 0.605,-0.253v0v0c0.16867,-0.16867 0.253,-0.37033 0.253,-0.605v0v-1.958v0c0,-0.23467 -0.08433,-0.43633 -0.253,-0.605v0v0c-0.16867,-0.16867 -0.37033,-0.253 -0.605,-0.253v0h-7.656v0c-0.73333,0 -1.36033,-0.26033 -1.881,-0.781v0v0c-0.52067,-0.52067 -0.781,-1.14767 -0.781,-1.881v0v-1.958v0c0,-0.73333 0.26033,-1.36033 0.781,-1.881v0v0c0.52067,-0.52067 1.14767,-0.781 1.881,-0.781v0h7.656v0c0.748,0 1.38233,0.26033 1.903,0.781v0v0c0.52067,0.52067 0.781,1.14767 0.781,1.881v0v0.176h-1.826v-0.176v0c0,-0.23467 -0.08433,-0.43633 -0.253,-0.605v0v0c-0.16867,-0.16867 -0.37033,-0.253 -0.605,-0.253v0h-7.656v0c-0.23467,0 -0.43633,0.08433 -0.605,0.253v0v0c-0.16867,0.16867 -0.253,0.37033 -0.253,0.605v0v1.958v0c0,0.23467 0.08433,0.43633 0.253,0.605v0v0c0.16867,0.16867 0.37033,0.253 0.605,0.253v0h7.656v0c0.748,0 1.38233,0.26033 1.903,0.781v0v0c0.52067,0.52067 0.781,1.14767 0.781,1.881v0v1.958v0c0,0.73333 -0.26033,1.36033 -0.781,1.881v0v0c-0.52067,0.52067 -1.155,0.781 -1.903,0.781zM176.495,366.594h-10.34v0c-0.73333,0 -1.36033,-0.26033 -1.881,-0.781v0v0c-0.52067,-0.52067 -0.781,-1.14767 -0.781,-1.881v0v-7.436v0c0,-0.73333 0.26033,-1.36033 0.781,-1.881v0v0c0.52067,-0.52067 1.14767,-0.781 1.881,-0.781v0h10.296v1.804h-10.296v0c-0.23467,0 -0.43633,0.08433 -0.605,0.253v0v0c-0.16867,0.16867 -0.253,0.37033 -0.253,0.605v0v7.436v0c0,0.23467 0.08433,0.43633 0.253,0.605v0v0c0.16867,0.16867 0.37033,0.253 0.605,0.253v0h10.34zM180.323,366.594h-1.804v-16.94h1.804v4.18h8.536v0c0.71867,0 1.342,0.26033 1.87,0.781v0v0c0.528,0.52067 0.792,1.14767 0.792,1.881v0v10.098h-1.804v-10.098v0c0,-0.23467 -0.08433,-0.43633 -0.253,-0.605v0v0c-0.16867,-0.16867 -0.37033,-0.253 -0.605,-0.253v0h-7.656v0c-0.23467,0 -0.44,0.08433 -0.616,0.253v0v0c-0.176,0.16867 -0.264,0.37033 -0.264,0.605v0zM206.151,366.594h-10.34v0c-0.73333,0 -1.36033,-0.26033 -1.881,-0.781v0v0c-0.52067,-0.52067 -0.781,-1.14767 -0.781,-1.881v0v-7.436v0c0,-0.73333 0.26033,-1.36033 0.781,-1.881v0v0c0.52067,-0.52067 1.14767,-0.781 1.881,-0.781v0h7.656v0c0.748,0 1.38233,0.26033 1.903,0.781v0v0c0.52067,0.52067 0.781,1.14767 0.781,1.881v0v4.62h-11.198v2.816v0c0,0.23467 0.08433,0.43633 0.253,0.605v0v0c0.16867,0.16867 0.37033,0.253 0.605,0.253v0h10.34zM194.953,356.496v2.816h9.372v-2.816v0c0,-0.23467 -0.08433,-0.43633 -0.253,-0.605v0v0c-0.16867,-0.16867 -0.37033,-0.253 -0.605,-0.253v0h-7.656v0c-0.23467,0 -0.43633,0.08433 -0.605,0.253v0v0c-0.16867,0.16867 -0.253,0.37033 -0.253,0.605zM210.265,366.594h-1.826v-12.76h16.852v0c0.748,0 1.37867,0.26033 1.892,0.781v0v0c0.51333,0.52067 0.77,1.14767 0.77,1.881v0v10.098h-1.782v-10.098v0c0,-0.23467 -0.088,-0.43633 -0.264,-0.605v0v0c-0.176,-0.16867 -0.38133,-0.253 -0.616,-0.253v0h-5.302v0c-0.23467,0 -0.43633,0.08433 -0.605,0.253v0v0c-0.16867,0.16867 -0.253,0.37033 -0.253,0.605v0v10.098h-1.826v-10.098v0c0,-0.23467 -0.08433,-0.43633 -0.253,-0.605v0v0c-0.16867,-0.16867 -0.37033,-0.253 -0.605,-0.253v0h-5.324v0c-0.23467,0 -0.43633,0.08433 -0.605,0.253v0v0c-0.16867,0.16867 -0.253,0.37033 -0.253,0.605v0zM231.715,366.594h-1.804v-12.76h1.804zM231.715,351.458h-1.804v-1.804h1.804zM247.137,366.594h-10.34v0c-0.73333,0 -1.36033,-0.26033 -1.881,-0.781v0v0c-0.52067,-0.52067 -0.781,-1.14767 -0.781,-1.881v0v-7.436v0c0,-0.73333 0.26033,-1.36033 0.781,-1.881v0v0c0.52067,-0.52067 1.14767,-0.781 1.881,-0.781v0h10.296v1.804h-10.296v0c-0.23467,0 -0.43633,0.08433 -0.605,0.253v0v0c-0.16867,0.16867 -0.253,0.37033 -0.253,0.605v0v7.436v0c0,0.23467 0.08433,0.43633 0.253,0.605v0v0c0.16867,0.16867 0.37033,0.253 0.605,0.253v0h10.34zM262.449,366.594h-10.34v0c-0.73333,0 -1.36033,-0.26033 -1.881,-0.781v0v0c-0.52067,-0.52067 -0.781,-1.14767 -0.781,-1.881v0v-4.62h11.176v-2.816v0c0,-0.23467 -0.08433,-0.43633 -0.253,-0.605v0v0c-0.16867,-0.16867 -0.37033,-0.253 -0.605,-0.253v0h-10.318v-1.804h10.318v0c0.748,0 1.38233,0.26033 1.903,0.781v0v0c0.52067,0.52067 0.781,1.14767 0.781,1.881v0zM252.109,364.79v0h8.514v-3.674h-9.372v2.816v0c0,0.23467 0.08433,0.43633 0.253,0.605v0v0c0.16867,0.16867 0.37033,0.253 0.605,0.253zM269.313,366.594h-2.156v0c-0.73333,0 -1.36033,-0.26033 -1.881,-0.781v0v0c-0.52067,-0.52067 -0.781,-1.14767 -0.781,-1.881v0v-14.278h1.804v14.278v0c0,0.23467 0.08433,0.43633 0.253,0.605v0v0c0.16867,0.16867 0.37033,0.253 0.605,0.253v0h2.156zM72.545,366.594h-10.34v-16.94h1.804v4.18h8.536v0c0.73333,0 1.36033,0.26033 1.881,0.781v0v0c0.52067,0.52067 0.781,1.14767 0.781,1.881v0v7.436v0c0,0.73333 -0.26033,1.36033 -0.781,1.881v0v0c-0.52067,0.52067 -1.14767,0.781 -1.881,0.781zM64.889,364.79v0h7.656v0c0.23467,0 0.43633,-0.08433 0.605,-0.253v0v0c0.16867,-0.16867 0.253,-0.37033 0.253,-0.605v0v-7.436v0c0,-0.23467 -0.08433,-0.43633 -0.253,-0.605v0v0c-0.16867,-0.16867 -0.37033,-0.253 -0.605,-0.253v0h-7.656v0c-0.23467,0 -0.44,0.08433 -0.616,0.253v0v0c-0.176,0.16867 -0.264,0.37033 -0.264,0.605v0v7.436v0c0,0.23467 0.088,0.43633 0.264,0.605v0v0c0.176,0.16867 0.38133,0.253 0.616,0.253zM89.837,366.594h-10.34v0c-0.73333,0 -1.36033,-0.26033 -1.881,-0.781v0v0c-0.52067,-0.52067 -0.781,-1.14767 -0.781,-1.881v0v-4.62h11.176v-2.816v0c0,-0.23467 -0.08433,-0.43633 -0.253,-0.605v0v0c-0.16867,-0.16867 -0.37033,-0.253 -0.605,-0.253v0h-10.318v-1.804h10.318v0c0.748,0 1.38233,0.26033 1.903,0.781v0v0c0.52067,0.52067 0.781,1.14767 0.781,1.881v0zM79.497,364.79v0h8.514v-3.674h-9.372v2.816v0c0,0.23467 0.08433,0.43633 0.253,0.605v0v0c0.16867,0.16867 0.37033,0.253 0.605,0.253zM96.701,366.594h-2.156v0c-0.73333,0 -1.36033,-0.26033 -1.881,-0.781v0v0c-0.52067,-0.52067 -0.781,-1.14767 -0.781,-1.881v0v-14.278h1.804v14.278v0c0,0.23467 0.08433,0.43633 0.253,0.605v0v0c0.16867,0.16867 0.37033,0.253 0.605,0.253v0h2.156zM111.309,366.594h-10.34v0c-0.73333,0 -1.36033,-0.26033 -1.881,-0.781v0v0c-0.52067,-0.52067 -0.781,-1.14767 -0.781,-1.881v0v-4.62h11.176v-2.816v0c0,-0.23467 -0.08433,-0.43633 -0.253,-0.605v0v0c-0.16867,-0.16867 -0.37033,-0.253 -0.605,-0.253v0h-10.318v-1.804h10.318v0c0.748,0 1.38233,0.26033 1.903,0.781v0v0c0.52067,0.52067 0.781,1.14767 0.781,1.881v0zM100.969,364.79v0h8.514v-3.674h-9.372v2.816v0c0,0.23467 0.08433,0.43633 0.253,0.605v0v0c0.16867,0.16867 0.37033,0.253 0.605,0.253zM115.093,366.594h-1.804v-12.76h10.34v0c0.73333,0 1.36033,0.26033 1.881,0.781v0v0c0.52067,0.52067 0.781,1.14767 0.781,1.881v0v10.098h-1.804v-10.098v0c0,-0.23467 -0.08433,-0.43633 -0.253,-0.605v0v0c-0.16867,-0.16867 -0.37033,-0.253 -0.605,-0.253v0h-7.656v0c-0.23467,0 -0.44,0.08433 -0.616,0.253v0v0c-0.176,0.16867 -0.264,0.37033 -0.264,0.605v0zM141.097,366.594h-10.34v0c-0.73333,0 -1.36033,-0.26033 -1.881,-0.781v0v0c-0.52067,-0.52067 -0.781,-1.14767 -0.781,-1.881v0v-7.436v0c0,-0.73333 0.26033,-1.36033 0.781,-1.881v0v0c0.52067,-0.52067 1.14767,-0.781 1.881,-0.781v0h10.296v1.804h-10.296v0c-0.23467,0 -0.43633,0.08433 -0.605,0.253v0v0c-0.16867,0.16867 -0.253,0.37033 -0.253,0.605v0v7.436v0c0,0.23467 0.08433,0.43633 0.253,0.605v0v0c0.16867,0.16867 0.37033,0.253 0.605,0.253v0h10.34zM155.837,366.594h-10.34v0c-0.73333,0 -1.36033,-0.26033 -1.881,-0.781v0v0c-0.52067,-0.52067 -0.781,-1.14767 -0.781,-1.881v0v-7.436v0c0,-0.73333 0.26033,-1.36033 0.781,-1.881v0v0c0.52067,-0.52067 1.14767,-0.781 1.881,-0.781v0h7.656v0c0.748,0 1.38233,0.26033 1.903,0.781v0v0c0.52067,0.52067 0.781,1.14767 0.781,1.881v0v4.62h-11.198v2.816v0c0,0.23467 0.08433,0.43633 0.253,0.605v0v0c0.16867,0.16867 0.37033,0.253 0.605,0.253v0h10.34zM144.639,356.496v2.816h9.372v-2.816v0c0,-0.23467 -0.08433,-0.43633 -0.253,-0.605v0v0c-0.16867,-0.16867 -0.37033,-0.253 -0.605,-0.253v0h-7.656v0c-0.23467,0 -0.43633,0.08433 -0.605,0.253v0v0c-0.16867,0.16867 -0.253,0.37033 -0.253,0.605zM337.909,339.006h-1.804v-16.94h1.804v4.18h8.536v0c0.71867,0 1.342,0.26033 1.87,0.781v0v0c0.528,0.52067 0.792,1.14767 0.792,1.881v0v10.098h-1.804v-10.098v0c0,-0.23467 -0.08433,-0.43633 -0.253,-0.605v0v0c-0.16867,-0.16867 -0.37033,-0.253 -0.605,-0.253v0h-7.656v0c-0.23467,0 -0.44,0.08433 -0.616,0.253v0v0c-0.176,0.16867 -0.264,0.37033 -0.264,0.605v0zM363.737,339.006h-10.34v0c-0.73333,0 -1.36033,-0.26033 -1.881,-0.781v0v0c-0.52067,-0.52067 -0.781,-1.14767 -0.781,-1.881v0v-7.436v0c0,-0.73333 0.26033,-1.36033 0.781,-1.881v0v0c0.52067,-0.52067 1.14767,-0.781 1.881,-0.781v0h7.656v0c0.748,0 1.38233,0.26033 1.903,0.781v0v0c0.52067,0.52067 0.781,1.14767 0.781,1.881v0v4.62h-11.198v2.816v0c0,0.23467 0.08433,0.43633 0.253,0.605v0v0c0.16867,0.16867 0.37033,0.253 0.605,0.253v0h10.34zM352.539,328.908v2.816h9.372v-2.816v0c0,-0.23467 -0.08433,-0.43633 -0.253,-0.605v0v0c-0.16867,-0.16867 -0.37033,-0.253 -0.605,-0.253v0h-7.656v0c-0.23467,0 -0.43633,0.08433 -0.605,0.253v0v0c-0.16867,0.16867 -0.253,0.37033 -0.253,0.605zM370.359,339.006h-2.156v0c-0.73333,0 -1.36033,-0.26033 -1.881,-0.781v0v0c-0.52067,-0.52067 -0.781,-1.14767 -0.781,-1.881v0v-14.278h1.804v14.278v0c0,0.23467 0.08433,0.43633 0.253,0.605v0v0c0.16867,0.16867 0.37033,0.253 0.605,0.253v0h2.156zM374.033,344.066h-1.804v-17.82h10.34v0c0.73333,0 1.36033,0.26033 1.881,0.781v0v0c0.52067,0.52067 0.781,1.14767 0.781,1.881v0v7.436v0c0,0.73333 -0.26033,1.36033 -0.781,1.881v0v0c-0.52067,0.52067 -1.14767,0.781 -1.881,0.781v0h-8.536zM374.913,337.202v0h7.656v0c0.23467,0 0.43633,-0.08433 0.605,-0.253v0v0c0.16867,-0.16867 0.253,-0.37033 0.253,-0.605v0v-7.436v0c0,-0.23467 -0.08433,-0.43633 -0.253,-0.605v0v0c-0.16867,-0.16867 -0.37033,-0.253 -0.605,-0.253v0h-7.656v0c-0.23467,0 -0.44,0.08433 -0.616,0.253v0v0c-0.176,0.16867 -0.264,0.37033 -0.264,0.605v0v7.436v0c0,0.23467 0.088,0.43633 0.264,0.605v0v0c0.176,0.16867 0.38133,0.253 0.616,0.253zM397.243,339.006h-7.656v0c-0.73333,0 -1.36033,-0.26033 -1.881,-0.781v0v0c-0.52067,-0.52067 -0.781,-1.14767 -0.781,-1.881v0v-0.176h1.804v0.176v0c0,0.23467 0.08433,0.43633 0.253,0.605v0v0c0.16867,0.16867 0.37033,0.253 0.605,0.253v0h7.656v0c0.23467,0 0.43633,-0.08433 0.605,-0.253v0v0c0.16867,-0.16867 0.253,-0.37033 0.253,-0.605v0v-1.958v0c0,-0.23467 -0.08433,-0.43633 -0.253,-0.605v0v0c-0.16867,-0.16867 -0.37033,-0.253 -0.605,-0.253v0h-7.656v0c-0.73333,0 -1.36033,-0.26033 -1.881,-0.781v0v0c-0.52067,-0.52067 -0.781,-1.14767 -0.781,-1.881v0v-1.958v0c0,-0.73333 0.26033,-1.36033 0.781,-1.881v0v0c0.52067,-0.52067 1.14767,-0.781 1.881,-0.781v0h7.656v0c0.748,0 1.38233,0.26033 1.903,0.781v0v0c0.52067,0.52067 0.781,1.14767 0.781,1.881v0v0.176h-1.826v-0.176v0c0,-0.23467 -0.08433,-0.43633 -0.253,-0.605v0v0c-0.16867,-0.16867 -0.37033,-0.253 -0.605,-0.253v0h-7.656v0c-0.23467,0 -0.43633,0.08433 -0.605,0.253v0v0c-0.16867,0.16867 -0.253,0.37033 -0.253,0.605v0v1.958v0c0,0.23467 0.08433,0.43633 0.253,0.605v0v0c0.16867,0.16867 0.37033,0.253 0.605,0.253v0h7.656v0c0.748,0 1.38233,0.26033 1.903,0.781v0v0c0.52067,0.52067 0.781,1.14767 0.781,1.881v0v1.958v0c0,0.73333 -0.26033,1.36033 -0.781,1.881v0v0c-0.52067,0.52067 -1.155,0.781 -1.903,0.781zM287.023,339.006h-1.782v-14.058h-7.04v-1.782h15.84v1.782h-7.018zM297.451,339.006h-1.804v-16.94h1.804v4.18h8.536v0c0.71867,0 1.342,0.26033 1.87,0.781v0v0c0.528,0.52067 0.792,1.14767 0.792,1.881v0v10.098h-1.804v-10.098v0c0,-0.23467 -0.08433,-0.43633 -0.253,-0.605v0v0c-0.16867,-0.16867 -0.37033,-0.253 -0.605,-0.253v0h-7.656v0c-0.23467,0 -0.44,0.08433 -0.616,0.253v0v0c-0.176,0.16867 -0.264,0.37033 -0.264,0.605v0zM312.213,339.006h-1.804v-12.76h1.804zM312.213,323.87h-1.804v-1.804h1.804zM325.215,339.006h-7.656v0c-0.73333,0 -1.36033,-0.26033 -1.881,-0.781v0v0c-0.52067,-0.52067 -0.781,-1.14767 -0.781,-1.881v0v-0.176h1.804v0.176v0c0,0.23467 0.08433,0.43633 0.253,0.605v0v0c0.16867,0.16867 0.37033,0.253 0.605,0.253v0h7.656v0c0.23467,0 0.43633,-0.08433 0.605,-0.253v0v0c0.16867,-0.16867 0.253,-0.37033 0.253,-0.605v0v-1.958v0c0,-0.23467 -0.08433,-0.43633 -0.253,-0.605v0v0c-0.16867,-0.16867 -0.37033,-0.253 -0.605,-0.253v0h-7.656v0c-0.73333,0 -1.36033,-0.26033 -1.881,-0.781v0v0c-0.52067,-0.52067 -0.781,-1.14767 -0.781,-1.881v0v-1.958v0c0,-0.73333 0.26033,-1.36033 0.781,-1.881v0v0c0.52067,-0.52067 1.14767,-0.781 1.881,-0.781v0h7.656v0c0.748,0 1.38233,0.26033 1.903,0.781v0v0c0.52067,0.52067 0.781,1.14767 0.781,1.881v0v0.176h-1.826v-0.176v0c0,-0.23467 -0.08433,-0.43633 -0.253,-0.605v0v0c-0.16867,-0.16867 -0.37033,-0.253 -0.605,-0.253v0h-7.656v0c-0.23467,0 -0.43633,0.08433 -0.605,0.253v0v0c-0.16867,0.16867 -0.253,0.37033 -0.253,0.605v0v1.958v0c0,0.23467 0.08433,0.43633 0.253,0.605v0v0c0.16867,0.16867 0.37033,0.253 0.605,0.253v0h7.656v0c0.748,0 1.38233,0.26033 1.903,0.781v0v0c0.52067,0.52067 0.781,1.14767 0.781,1.881v0v1.958v0c0,0.73333 -0.26033,1.36033 -0.781,1.881v0v0c-0.52067,0.52067 -1.155,0.781 -1.903,0.781zM170.115,339.006h-10.34v0c-0.73333,0 -1.36033,-0.26033 -1.881,-0.781v0v0c-0.52067,-0.52067 -0.781,-1.14767 -0.781,-1.881v0v-7.436v0c0,-0.73333 0.26033,-1.36033 0.781,-1.881v0v0c0.52067,-0.52067 1.14767,-0.781 1.881,-0.781v0h10.296v1.804h-10.296v0c-0.23467,0 -0.43633,0.08433 -0.605,0.253v0v0c-0.16867,0.16867 -0.253,0.37033 -0.253,0.605v0v7.436v0c0,0.23467 0.08433,0.43633 0.253,0.605v0v0c0.16867,0.16867 0.37033,0.253 0.605,0.253v0h10.34zM182.721,339.006h-7.656v0c-0.73333,0 -1.36033,-0.26033 -1.881,-0.781v0v0c-0.52067,-0.52067 -0.781,-1.14767 -0.781,-1.881v0v-7.436v0c0,-0.73333 0.26033,-1.36033 0.781,-1.881v0v0c0.52067,-0.52067 1.14767,-0.781 1.881,-0.781v0h7.656v0c0.748,0 1.38233,0.26033 1.903,0.781v0v0c0.52067,0.52067 0.781,1.14767 0.781,1.881v0v7.436v0c0,0.73333 -0.26033,1.36033 -0.781,1.881v0v0c-0.52067,0.52067 -1.155,0.781 -1.903,0.781zM175.065,337.202v0h7.656v0c0.23467,0 0.43633,-0.08433 0.605,-0.253v0v0c0.16867,-0.16867 0.253,-0.37033 0.253,-0.605v0v-7.436v0c0,-0.23467 -0.08433,-0.43633 -0.253,-0.605v0v0c-0.16867,-0.16867 -0.37033,-0.253 -0.605,-0.253v0h-7.656v0c-0.23467,0 -0.43633,0.08433 -0.605,0.253v0v0c-0.16867,0.16867 -0.253,0.37033 -0.253,0.605v0v7.436v0c0,0.23467 0.08433,0.43633 0.253,0.605v0v0c0.16867,0.16867 0.37033,0.253 0.605,0.253zM189.167,339.006h-1.804v-12.76h10.34v0c0.73333,0 1.36033,0.26033 1.881,0.781v0v0c0.52067,0.52067 0.781,1.14767 0.781,1.881v0v10.098h-1.804v-10.098v0c0,-0.23467 -0.08433,-0.43633 -0.253,-0.605v0v0c-0.16867,-0.16867 -0.37033,-0.253 -0.605,-0.253v0h-7.656v0c-0.23467,0 -0.44,0.08433 -0.616,0.253v0v0c-0.176,0.16867 -0.264,0.37033 -0.264,0.605v0zM215.171,339.006h-10.34v0c-0.73333,0 -1.36033,-0.26033 -1.881,-0.781v0v0c-0.52067,-0.52067 -0.781,-1.14767 -0.781,-1.881v0v-7.436v0c0,-0.73333 0.26033,-1.36033 0.781,-1.881v0v0c0.52067,-0.52067 1.14767,-0.781 1.881,-0.781v0h10.296v1.804h-10.296v0c-0.23467,0 -0.43633,0.08433 -0.605,0.253v0v0c-0.16867,0.16867 -0.253,0.37033 -0.253,0.605v0v7.436v0c0,0.23467 0.08433,0.43633 0.253,0.605v0v0c0.16867,0.16867 0.37033,0.253 0.605,0.253v0h10.34zM219.285,339.006h-1.804v-10.098v0c0,-0.73333 0.26033,-1.36033 0.781,-1.881v0v0c0.52067,-0.52067 1.14767,-0.781 1.881,-0.781v0h7.172v1.804h-7.172v0c-0.23467,0 -0.43633,0.08433 -0.605,0.253v0v0c-0.16867,0.16867 -0.253,0.37033 -0.253,0.605v0zM241.725,339.006h-10.34v0c-0.73333,0 -1.36033,-0.26033 -1.881,-0.781v0v0c-0.52067,-0.52067 -0.781,-1.14767 -0.781,-1.881v0v-7.436v0c0,-0.73333 0.26033,-1.36033 0.781,-1.881v0v0c0.52067,-0.52067 1.14767,-0.781 1.881,-0.781v0h7.656v0c0.748,0 1.38233,0.26033 1.903,0.781v0v0c0.52067,0.52067 0.781,1.14767 0.781,1.881v0v4.62h-11.198v2.816v0c0,0.23467 0.08433,0.43633 0.253,0.605v0v0c0.16867,0.16867 0.37033,0.253 0.605,0.253v0h10.34zM230.527,328.908v2.816h9.372v-2.816v0c0,-0.23467 -0.08433,-0.43633 -0.253,-0.605v0v0c-0.16867,-0.16867 -0.37033,-0.253 -0.605,-0.253v0h-7.656v0c-0.23467,0 -0.43633,0.08433 -0.605,0.253v0v0c-0.16867,0.16867 -0.253,0.37033 -0.253,0.605zM251.317,339.006h-4.664v0c-0.748,0 -1.37867,-0.26033 -1.892,-0.781v0v0c-0.51333,-0.52067 -0.77,-1.14767 -0.77,-1.881v0v-14.278h1.804v4.18h5.522v1.804h-5.522v8.294v0c0,0.23467 0.08433,0.43633 0.253,0.605v0v0c0.16867,0.16867 0.37033,0.253 0.605,0.253v0h4.664zM265.969,339.006h-10.34v0c-0.73333,0 -1.36033,-0.26033 -1.881,-0.781v0v0c-0.52067,-0.52067 -0.781,-1.14767 -0.781,-1.881v0v-7.436v0c0,-0.73333 0.26033,-1.36033 0.781,-1.881v0v0c0.52067,-0.52067 1.14767,-0.781 1.881,-0.781v0h7.656v0c0.748,0 1.38233,0.26033 1.903,0.781v0v0c0.52067,0.52067 0.781,1.14767 0.781,1.881v0v4.62h-11.198v2.816v0c0,0.23467 0.08433,0.43633 0.253,0.605v0v0c0.16867,0.16867 0.37033,0.253 0.605,0.253v0h10.34zM254.771,328.908v2.816h9.372v-2.816v0c0,-0.23467 -0.08433,-0.43633 -0.253,-0.605v0v0c-0.16867,-0.16867 -0.37033,-0.253 -0.605,-0.253v0h-7.656v0c-0.23467,0 -0.43633,0.08433 -0.605,0.253v0v0c-0.16867,0.16867 -0.253,0.37033 -0.253,0.605zM270.061,339.006h-1.804v-1.804h1.804zM63.965,339.006h-1.804v-10.098v0c0,-0.73333 0.26033,-1.36033 0.781,-1.881v0v0c0.52067,-0.52067 1.14767,-0.781 1.881,-0.781v0h7.172v1.804h-7.172v0c-0.23467,0 -0.43633,0.08433 -0.605,0.253v0v0c-0.16867,0.16867 -0.253,0.37033 -0.253,0.605v0zM86.405,339.006h-10.34v0c-0.73333,0 -1.36033,-0.26033 -1.881,-0.781v0v0c-0.52067,-0.52067 -0.781,-1.14767 -0.781,-1.881v0v-7.436v0c0,-0.73333 0.26033,-1.36033 0.781,-1.881v0v0c0.52067,-0.52067 1.14767,-0.781 1.881,-0.781v0h7.656v0c0.748,0 1.38233,0.26033 1.903,0.781v0v0c0.52067,0.52067 0.781,1.14767 0.781,1.881v0v4.62h-11.198v2.816v0c0,0.23467 0.08433,0.43633 0.253,0.605v0v0c0.16867,0.16867 0.37033,0.253 0.605,0.253v0h10.34zM75.207,328.908v2.816h9.372v-2.816v0c0,-0.23467 -0.08433,-0.43633 -0.253,-0.605v0v0c-0.16867,-0.16867 -0.37033,-0.253 -0.605,-0.253v0h-7.656v0c-0.23467,0 -0.43633,0.08433 -0.605,0.253v0v0c-0.16867,0.16867 -0.253,0.37033 -0.253,0.605zM98.725,344.044h-7.964v-1.826h7.964v0c0.23467,0 0.43633,-0.08433 0.605,-0.253v0v0c0.16867,-0.16867 0.253,-0.37033 0.253,-0.605v0v-2.354h-8.514v0c-0.73333,0 -1.36033,-0.26033 -1.881,-0.781v0v0c-0.52067,-0.52067 -0.781,-1.14767 -0.781,-1.881v0v-7.436v0c0,-0.73333 0.26033,-1.36033 0.781,-1.881v0v0c0.52067,-0.52067 1.14767,-0.781 1.881,-0.781v0h7.656v0c0.748,0 1.37867,0.26033 1.892,0.781v0v0c0.51333,0.52067 0.77,1.14767 0.77,1.881v0v12.452v0c0,0.748 -0.25667,1.38233 -0.77,1.903v0v0c-0.51333,0.52067 -1.144,0.781 -1.892,0.781zM91.069,337.202v0h7.656v0c0.23467,0 0.43633,-0.08433 0.605,-0.253v0v0c0.16867,-0.16867 0.253,-0.37033 0.253,-0.605v0v-7.436v0c0,-0.23467 -0.08433,-0.43633 -0.253,-0.605v0v0c-0.16867,-0.16867 -0.37033,-0.253 -0.605,-0.253v0h-7.656v0c-0.23467,0 -0.43633,0.08433 -0.605,0.253v0v0c-0.16867,0.16867 -0.253,0.37033 -0.253,0.605v0v7.436v0c0,0.23467 0.08433,0.43633 0.253,0.605v0v0c0.16867,0.16867 0.37033,0.253 0.605,0.253zM113.465,339.006h-7.656v0c-0.73333,0 -1.36033,-0.26033 -1.881,-0.781v0v0c-0.52067,-0.52067 -0.781,-1.14767 -0.781,-1.881v0v-10.098h1.804v10.098v0c0,0.23467 0.08433,0.43633 0.253,0.605v0v0c0.16867,0.16867 0.37033,0.253 0.605,0.253v0h7.656v0c0.23467,0 0.44,-0.08433 0.616,-0.253v0v0c0.176,-0.16867 0.264,-0.37033 0.264,-0.605v0v-10.098h1.804v10.098v0c0,0.73333 -0.26033,1.36033 -0.781,1.881v0v0c-0.52067,0.52067 -1.155,0.781 -1.903,0.781zM123.233,339.006h-2.156v0c-0.73333,0 -1.36033,-0.26033 -1.881,-0.781v0v0c-0.52067,-0.52067 -0.781,-1.14767 -0.781,-1.881v0v-14.278h1.804v14.278v0c0,0.23467 0.08433,0.43633 0.253,0.605v0v0c0.16867,0.16867 0.37033,0.253 0.605,0.253v0h2.156zM137.841,339.006h-10.34v0c-0.73333,0 -1.36033,-0.26033 -1.881,-0.781v0v0c-0.52067,-0.52067 -0.781,-1.14767 -0.781,-1.881v0v-4.62h11.176v-2.816v0c0,-0.23467 -0.08433,-0.43633 -0.253,-0.605v0v0c-0.16867,-0.16867 -0.37033,-0.253 -0.605,-0.253v0h-10.318v-1.804h10.318v0c0.748,0 1.38233,0.26033 1.903,0.781v0v0c0.52067,0.52067 0.781,1.14767 0.781,1.881v0zM127.501,337.202v0h8.514v-3.674h-9.372v2.816v0c0,0.23467 0.08433,0.43633 0.253,0.605v0v0c0.16867,0.16867 0.37033,0.253 0.605,0.253zM141.801,339.006h-1.804v-10.098v0c0,-0.73333 0.26033,-1.36033 0.781,-1.881v0v0c0.52067,-0.52067 1.14767,-0.781 1.881,-0.781v0h7.172v1.804h-7.172v0c-0.23467,0 -0.43633,0.08433 -0.605,0.253v0v0c-0.16867,0.16867 -0.253,0.37033 -0.253,0.605v0zM336.347,311.418h-4.664v0c-0.748,0 -1.37867,-0.26033 -1.892,-0.781v0v0c-0.51333,-0.52067 -0.77,-1.14767 -0.77,-1.881v0v-14.278h1.804v4.18h5.522v1.804h-5.522v8.294v0c0,0.23467 0.08433,0.43633 0.253,0.605v0v0c0.16867,0.16867 0.37033,0.253 0.605,0.253v0h4.664zM348.315,311.418h-7.656v0c-0.73333,0 -1.36033,-0.26033 -1.881,-0.781v0v0c-0.52067,-0.52067 -0.781,-1.14767 -0.781,-1.881v0v-7.436v0c0,-0.73333 0.26033,-1.36033 0.781,-1.881v0v0c0.52067,-0.52067 1.14767,-0.781 1.881,-0.781v0h7.656v0c0.748,0 1.38233,0.26033 1.903,0.781v0v0c0.52067,0.52067 0.781,1.14767 0.781,1.881v0v7.436v0c0,0.73333 -0.26033,1.36033 -0.781,1.881v0v0c-0.52067,0.52067 -1.155,0.781 -1.903,0.781zM340.659,309.614v0h7.656v0c0.23467,0 0.43633,-0.08433 0.605,-0.253v0v0c0.16867,-0.16867 0.253,-0.37033 0.253,-0.605v0v-7.436v0c0,-0.23467 -0.08433,-0.43633 -0.253,-0.605v0v0c-0.16867,-0.16867 -0.37033,-0.253 -0.605,-0.253v0h-7.656v0c-0.23467,0 -0.43633,0.08433 -0.605,0.253v0v0c-0.16867,0.16867 -0.253,0.37033 -0.253,0.605v0v7.436v0c0,0.23467 0.08433,0.43633 0.253,0.605v0v0c0.16867,0.16867 0.37033,0.253 0.605,0.253zM261.943,311.418h-10.34v0c-0.73333,0 -1.36033,-0.26033 -1.881,-0.781v0v0c-0.52067,-0.52067 -0.781,-1.14767 -0.781,-1.881v0v-4.62h11.176v-2.816v0c0,-0.23467 -0.08433,-0.43633 -0.253,-0.605v0v0c-0.16867,-0.16867 -0.37033,-0.253 -0.605,-0.253v0h-10.318v-1.804h10.318v0c0.748,0 1.38233,0.26033 1.903,0.781v0v0c0.52067,0.52067 0.781,1.14767 0.781,1.881v0zM251.603,309.614v0h8.514v-3.674h-9.372v2.816v0c0,0.23467 0.08433,0.43633 0.253,0.605v0v0c0.16867,0.16867 0.37033,0.253 0.605,0.253zM276.573,311.418h-10.318v0c-0.748,0 -1.38233,-0.26033 -1.903,-0.781v0v0c-0.52067,-0.52067 -0.781,-1.14767 -0.781,-1.881v0v-7.436v0c0,-0.73333 0.26033,-1.36033 0.781,-1.881v0v0c0.52067,-0.52067 1.155,-0.781 1.903,-0.781v0h8.514v-4.18h1.804zM266.255,309.614v0h7.656v0c0.23467,0 0.43633,-0.08433 0.605,-0.253v0v0c0.16867,-0.16867 0.253,-0.37033 0.253,-0.605v0v-7.436v0c0,-0.23467 -0.08433,-0.43633 -0.253,-0.605v0v0c-0.16867,-0.16867 -0.37033,-0.253 -0.605,-0.253v0h-7.656v0c-0.23467,0 -0.43633,0.08433 -0.605,0.253v0v0c-0.16867,0.16867 -0.253,0.37033 -0.253,0.605v0v7.436v0c0,0.23467 0.08433,0.43633 0.253,0.605v0v0c0.16867,0.16867 0.37033,0.253 0.605,0.253zM291.247,311.418h-10.318v0c-0.748,0 -1.38233,-0.26033 -1.903,-0.781v0v0c-0.52067,-0.52067 -0.781,-1.14767 -0.781,-1.881v0v-7.436v0c0,-0.73333 0.26033,-1.36033 0.781,-1.881v0v0c0.52067,-0.52067 1.155,-0.781 1.903,-0.781v0h8.514v-4.18h1.804zM280.929,309.614v0h7.656v0c0.23467,0 0.43633,-0.08433 0.605,-0.253v0v0c0.16867,-0.16867 0.253,-0.37033 0.253,-0.605v0v-7.436v0c0,-0.23467 -0.08433,-0.43633 -0.253,-0.605v0v0c-0.16867,-0.16867 -0.37033,-0.253 -0.605,-0.253v0h-7.656v0c-0.23467,0 -0.43633,0.08433 -0.605,0.253v0v0c-0.16867,0.16867 -0.253,0.37033 -0.253,0.605v0v7.436v0c0,0.23467 0.08433,0.43633 0.253,0.605v0v0c0.16867,0.16867 0.37033,0.253 0.605,0.253zM306.097,311.418h-10.34v0c-0.73333,0 -1.36033,-0.26033 -1.881,-0.781v0v0c-0.52067,-0.52067 -0.781,-1.14767 -0.781,-1.881v0v-7.436v0c0,-0.73333 0.26033,-1.36033 0.781,-1.881v0v0c0.52067,-0.52067 1.14767,-0.781 1.881,-0.781v0h7.656v0c0.748,0 1.38233,0.26033 1.903,0.781v0v0c0.52067,0.52067 0.781,1.14767 0.781,1.881v0v4.62h-11.198v2.816v0c0,0.23467 0.08433,0.43633 0.253,0.605v0v0c0.16867,0.16867 0.37033,0.253 0.605,0.253v0h10.34zM294.899,301.32v2.816h9.372v-2.816v0c0,-0.23467 -0.08433,-0.43633 -0.253,-0.605v0v0c-0.16867,-0.16867 -0.37033,-0.253 -0.605,-0.253v0h-7.656v0c-0.23467,0 -0.43633,0.08433 -0.605,0.253v0v0c-0.16867,0.16867 -0.253,0.37033 -0.253,0.605zM320.705,311.418h-10.318v0c-0.748,0 -1.38233,-0.26033 -1.903,-0.781v0v0c-0.52067,-0.52067 -0.781,-1.14767 -0.781,-1.881v0v-7.436v0c0,-0.73333 0.26033,-1.36033 0.781,-1.881v0v0c0.52067,-0.52067 1.155,-0.781 1.903,-0.781v0h8.514v-4.18h1.804zM310.387,309.614v0h7.656v0c0.23467,0 0.43633,-0.08433 0.605,-0.253v0v0c0.16867,-0.16867 0.253,-0.37033 0.253,-0.605v0v-7.436v0c0,-0.23467 -0.08433,-0.43633 -0.253,-0.605v0v0c-0.16867,-0.16867 -0.37033,-0.253 -0.605,-0.253v0h-7.656v0c-0.23467,0 -0.43633,0.08433 -0.605,0.253v0v0c-0.16867,0.16867 -0.253,0.37033 -0.253,0.605v0v7.436v0c0,0.23467 0.08433,0.43633 0.253,0.605v0v0c0.16867,0.16867 0.37033,0.253 0.605,0.253zM223.443,311.418h-10.34v-16.94h1.804v4.18h8.536v0c0.73333,0 1.36033,0.26033 1.881,0.781v0v0c0.52067,0.52067 0.781,1.14767 0.781,1.881v0v7.436v0c0,0.73333 -0.26033,1.36033 -0.781,1.881v0v0c-0.52067,0.52067 -1.14767,0.781 -1.881,0.781zM215.787,309.614v0h7.656v0c0.23467,0 0.43633,-0.08433 0.605,-0.253v0v0c0.16867,-0.16867 0.253,-0.37033 0.253,-0.605v0v-7.436v0c0,-0.23467 -0.08433,-0.43633 -0.253,-0.605v0v0c-0.16867,-0.16867 -0.37033,-0.253 -0.605,-0.253v0h-7.656v0c-0.23467,0 -0.44,0.08433 -0.616,0.253v0v0c-0.176,0.16867 -0.264,0.37033 -0.264,0.605v0v7.436v0c0,0.23467 0.088,0.43633 0.264,0.605v0v0c0.176,0.16867 0.38133,0.253 0.616,0.253zM240.713,311.418h-10.34v0c-0.73333,0 -1.36033,-0.26033 -1.881,-0.781v0v0c-0.52067,-0.52067 -0.781,-1.14767 -0.781,-1.881v0v-7.436v0c0,-0.73333 0.26033,-1.36033 0.781,-1.881v0v0c0.52067,-0.52067 1.14767,-0.781 1.881,-0.781v0h7.656v0c0.748,0 1.38233,0.26033 1.903,0.781v0v0c0.52067,0.52067 0.781,1.14767 0.781,1.881v0v4.62h-11.198v2.816v0c0,0.23467 0.08433,0.43633 0.253,0.605v0v0c0.16867,0.16867 0.37033,0.253 0.605,0.253v0h10.34zM229.515,301.32v2.816h9.372v-2.816v0c0,-0.23467 -0.08433,-0.43633 -0.253,-0.605v0v0c-0.16867,-0.16867 -0.37033,-0.253 -0.605,-0.253v0h-7.656v0c-0.23467,0 -0.43633,0.08433 -0.605,0.253v0v0c-0.16867,0.16867 -0.253,0.37033 -0.253,0.605zM174.845,311.418h-10.34v0c-0.73333,0 -1.36033,-0.26033 -1.881,-0.781v0v0c-0.52067,-0.52067 -0.781,-1.14767 -0.781,-1.881v0v-7.436v0c0,-0.73333 0.26033,-1.36033 0.781,-1.881v0v0c0.52067,-0.52067 1.14767,-0.781 1.881,-0.781v0h10.296v1.804h-10.296v0c-0.23467,0 -0.43633,0.08433 -0.605,0.253v0v0c-0.16867,0.16867 -0.253,0.37033 -0.253,0.605v0v7.436v0c0,0.23467 0.08433,0.43633 0.253,0.605v0v0c0.16867,0.16867 0.37033,0.253 0.605,0.253v0h10.34zM190.157,311.418h-10.34v0c-0.73333,0 -1.36033,-0.26033 -1.881,-0.781v0v0c-0.52067,-0.52067 -0.781,-1.14767 -0.781,-1.881v0v-4.62h11.176v-2.816v0c0,-0.23467 -0.08433,-0.43633 -0.253,-0.605v0v0c-0.16867,-0.16867 -0.37033,-0.253 -0.605,-0.253v0h-10.318v-1.804h10.318v0c0.748,0 1.38233,0.26033 1.903,0.781v0v0c0.52067,0.52067 0.781,1.14767 0.781,1.881v0zM179.817,309.614v0h8.514v-3.674h-9.372v2.816v0c0,0.23467 0.08433,0.43633 0.253,0.605v0v0c0.16867,0.16867 0.37033,0.253 0.605,0.253zM193.941,311.418h-1.804v-12.76h10.34v0c0.73333,0 1.36033,0.26033 1.881,0.781v0v0c0.52067,0.52067 0.781,1.14767 0.781,1.881v0v10.098h-1.804v-10.098v0c0,-0.23467 -0.08433,-0.43633 -0.253,-0.605v0v0c-0.16867,-0.16867 -0.37033,-0.253 -0.605,-0.253v0h-7.656v0c-0.23467,0 -0.44,0.08433 -0.616,0.253v0v0c-0.176,0.16867 -0.264,0.37033 -0.264,0.605v0zM115.005,311.418h-4.664v0c-0.748,0 -1.37867,-0.26033 -1.892,-0.781v0v0c-0.51333,-0.52067 -0.77,-1.14767 -0.77,-1.881v0v-14.278h1.804v4.18h5.522v1.804h-5.522v8.294v0c0,0.23467 0.08433,0.43633 0.253,0.605v0v0c0.16867,0.16867 0.37033,0.253 0.605,0.253v0h4.664zM118.635,311.418h-1.804v-16.94h1.804v4.18h8.536v0c0.71867,0 1.342,0.26033 1.87,0.781v0v0c0.528,0.52067 0.792,1.14767 0.792,1.881v0v10.098h-1.804v-10.098v0c0,-0.23467 -0.08433,-0.43633 -0.253,-0.605v0v0c-0.16867,-0.16867 -0.37033,-0.253 -0.605,-0.253v0h-7.656v0c-0.23467,0 -0.44,0.08433 -0.616,0.253v0v0c-0.176,0.16867 -0.264,0.37033 -0.264,0.605v0zM144.595,311.418h-10.34v0c-0.73333,0 -1.36033,-0.26033 -1.881,-0.781v0v0c-0.52067,-0.52067 -0.781,-1.14767 -0.781,-1.881v0v-4.62h11.176v-2.816v0c0,-0.23467 -0.08433,-0.43633 -0.253,-0.605v0v0c-0.16867,-0.16867 -0.37033,-0.253 -0.605,-0.253v0h-10.318v-1.804h10.318v0c0.748,0 1.38233,0.26033 1.903,0.781v0v0c0.52067,0.52067 0.781,1.14767 0.781,1.881v0zM134.255,309.614v0h8.514v-3.674h-9.372v2.816v0c0,0.23467 0.08433,0.43633 0.253,0.605v0v0c0.16867,0.16867 0.37033,0.253 0.605,0.253zM154.209,311.418h-4.664v0c-0.748,0 -1.37867,-0.26033 -1.892,-0.781v0v0c-0.51333,-0.52067 -0.77,-1.14767 -0.77,-1.881v0v-14.278h1.804v4.18h5.522v1.804h-5.522v8.294v0c0,0.23467 0.08433,0.43633 0.253,0.605v0v0c0.16867,0.16867 0.37033,0.253 0.605,0.253v0h4.664zM64.031,311.418h-1.826v-12.76h16.852v0c0.748,0 1.37867,0.26033 1.892,0.781v0v0c0.51333,0.52067 0.77,1.14767 0.77,1.881v0v10.098h-1.782v-10.098v0c0,-0.23467 -0.088,-0.43633 -0.264,-0.605v0v0c-0.176,-0.16867 -0.38133,-0.253 -0.616,-0.253v0h-5.302v0c-0.23467,0 -0.43633,0.08433 -0.605,0.253v0v0c-0.16867,0.16867 -0.253,0.37033 -0.253,0.605v0v10.098h-1.826v-10.098v0c0,-0.23467 -0.08433,-0.43633 -0.253,-0.605v0v0c-0.16867,-0.16867 -0.37033,-0.253 -0.605,-0.253v0h-5.324v0c-0.23467,0 -0.43633,0.08433 -0.605,0.253v0v0c-0.16867,0.16867 -0.253,0.37033 -0.253,0.605v0zM85.481,311.418h-1.804v-12.76h1.804zM85.481,296.282h-1.804v-1.804h1.804zM89.595,311.418h-2.376v-0.022l5.324,-6.468l-5.324,-6.248v-0.022h2.376l4.136,4.84l4.158,-4.84h2.354v0.022l-5.324,6.248l5.346,6.468v0.022h-2.376l-4.158,-5.104zM336.039,283.83h-7.656v0c-0.73333,0 -1.36033,-0.26033 -1.881,-0.781v0v0c-0.52067,-0.52067 -0.781,-1.14767 -0.781,-1.881v0v-0.176h1.804v0.176v0c0,0.23467 0.08433,0.43633 0.253,0.605v0v0c0.16867,0.16867 0.37033,0.253 0.605,0.253v0h7.656v0c0.23467,0 0.43633,-0.08433 0.605,-0.253v0v0c0.16867,-0.16867 0.253,-0.37033 0.253,-0.605v0v-1.958v0c0,-0.23467 -0.08433,-0.43633 -0.253,-0.605v0v0c-0.16867,-0.16867 -0.37033,-0.253 -0.605,-0.253v0h-7.656v0c-0.73333,0 -1.36033,-0.26033 -1.881,-0.781v0v0c-0.52067,-0.52067 -0.781,-1.14767 -0.781,-1.881v0v-1.958v0c0,-0.73333 0.26033,-1.36033 0.781,-1.881v0v0c0.52067,-0.52067 1.14767,-0.781 1.881,-0.781v0h7.656v0c0.748,0 1.38233,0.26033 1.903,0.781v0v0c0.52067,0.52067 0.781,1.14767 0.781,1.881v0v0.176h-1.826v-0.176v0c0,-0.23467 -0.08433,-0.43633 -0.253,-0.605v0v0c-0.16867,-0.16867 -0.37033,-0.253 -0.605,-0.253v0h-7.656v0c-0.23467,0 -0.43633,0.08433 -0.605,0.253v0v0c-0.16867,0.16867 -0.253,0.37033 -0.253,0.605v0v1.958v0c0,0.23467 0.08433,0.43633 0.253,0.605v0v0c0.16867,0.16867 0.37033,0.253 0.605,0.253v0h7.656v0c0.748,0 1.38233,0.26033 1.903,0.781v0v0c0.52067,0.52067 0.781,1.14767 0.781,1.881v0v1.958v0c0,0.73333 -0.26033,1.36033 -0.781,1.881v0v0c-0.52067,0.52067 -1.155,0.781 -1.903,0.781zM342.749,288.89h-1.804v-17.82h10.34v0c0.73333,0 1.36033,0.26033 1.881,0.781v0v0c0.52067,0.52067 0.781,1.14767 0.781,1.881v0v7.436v0c0,0.73333 -0.26033,1.36033 -0.781,1.881v0v0c-0.52067,0.52067 -1.14767,0.781 -1.881,0.781v0h-8.536zM343.629,282.026v0h7.656v0c0.23467,0 0.43633,-0.08433 0.605,-0.253v0v0c0.16867,-0.16867 0.253,-0.37033 0.253,-0.605v0v-7.436v0c0,-0.23467 -0.08433,-0.43633 -0.253,-0.605v0v0c-0.16867,-0.16867 -0.37033,-0.253 -0.605,-0.253v0h-7.656v0c-0.23467,0 -0.44,0.08433 -0.616,0.253v0v0c-0.176,0.16867 -0.264,0.37033 -0.264,0.605v0v7.436v0c0,0.23467 0.088,0.43633 0.264,0.605v0v0c0.176,0.16867 0.38133,0.253 0.616,0.253zM368.489,283.83h-10.34v0c-0.73333,0 -1.36033,-0.26033 -1.881,-0.781v0v0c-0.52067,-0.52067 -0.781,-1.14767 -0.781,-1.881v0v-7.436v0c0,-0.73333 0.26033,-1.36033 0.781,-1.881v0v0c0.52067,-0.52067 1.14767,-0.781 1.881,-0.781v0h7.656v0c0.748,0 1.38233,0.26033 1.903,0.781v0v0c0.52067,0.52067 0.781,1.14767 0.781,1.881v0v4.62h-11.198v2.816v0c0,0.23467 0.08433,0.43633 0.253,0.605v0v0c0.16867,0.16867 0.37033,0.253 0.605,0.253v0h10.34zM357.291,273.732v2.816h9.372v-2.816v0c0,-0.23467 -0.08433,-0.43633 -0.253,-0.605v0v0c-0.16867,-0.16867 -0.37033,-0.253 -0.605,-0.253v0h-7.656v0c-0.23467,0 -0.43633,0.08433 -0.605,0.253v0v0c-0.16867,0.16867 -0.253,0.37033 -0.253,0.605zM383.273,283.83h-10.34v0c-0.73333,0 -1.36033,-0.26033 -1.881,-0.781v0v0c-0.52067,-0.52067 -0.781,-1.14767 -0.781,-1.881v0v-7.436v0c0,-0.73333 0.26033,-1.36033 0.781,-1.881v0v0c0.52067,-0.52067 1.14767,-0.781 1.881,-0.781v0h10.296v1.804h-10.296v0c-0.23467,0 -0.43633,0.08433 -0.605,0.253v0v0c-0.16867,0.16867 -0.253,0.37033 -0.253,0.605v0v7.436v0c0,0.23467 0.08433,0.43633 0.253,0.605v0v0c0.16867,0.16867 0.37033,0.253 0.605,0.253v0h10.34zM387.387,283.83h-1.804v-12.76h1.804zM387.387,268.694h-1.804v-1.804h1.804zM402.391,283.83h-10.34v0c-0.73333,0 -1.36033,-0.26033 -1.881,-0.781v0v0c-0.52067,-0.52067 -0.781,-1.14767 -0.781,-1.881v0v-4.62h11.176v-2.816v0c0,-0.23467 -0.08433,-0.43633 -0.253,-0.605v0v0c-0.16867,-0.16867 -0.37033,-0.253 -0.605,-0.253v0h-10.318v-1.804h10.318v0c0.748,0 1.38233,0.26033 1.903,0.781v0v0c0.52067,0.52067 0.781,1.14767 0.781,1.881v0zM392.051,282.026v0h8.514v-3.674h-9.372v2.816v0c0,0.23467 0.08433,0.43633 0.253,0.605v0v0c0.16867,0.16867 0.37033,0.253 0.605,0.253zM409.255,283.83h-2.156v0c-0.73333,0 -1.36033,-0.26033 -1.881,-0.781v0v0c-0.52067,-0.52067 -0.781,-1.14767 -0.781,-1.881v0v-14.278h1.804v14.278v0c0,0.23467 0.08433,0.43633 0.253,0.605v0v0c0.16867,0.16867 0.37033,0.253 0.605,0.253v0h2.156zM317.559,283.83h-10.34v0c-0.73333,0 -1.36033,-0.26033 -1.881,-0.781v0v0c-0.52067,-0.52067 -0.781,-1.14767 -0.781,-1.881v0v-4.62h11.176v-2.816v0c0,-0.23467 -0.08433,-0.43633 -0.253,-0.605v0v0c-0.16867,-0.16867 -0.37033,-0.253 -0.605,-0.253v0h-10.318v-1.804h10.318v0c0.748,0 1.38233,0.26033 1.903,0.781v0v0c0.52067,0.52067 0.781,1.14767 0.781,1.881v0zM307.219,282.026v0h8.514v-3.674h-9.372v2.816v0c0,0.23467 0.08433,0.43633 0.253,0.605v0v0c0.16867,0.16867 0.37033,0.253 0.605,0.253zM215.171,283.83h-10.34v0c-0.73333,0 -1.36033,-0.26033 -1.881,-0.781v0v0c-0.52067,-0.52067 -0.781,-1.14767 -0.781,-1.881v0v-7.436v0c0,-0.73333 0.26033,-1.36033 0.781,-1.881v0v0c0.52067,-0.52067 1.14767,-0.781 1.881,-0.781v0h10.296v1.804h-10.296v0c-0.23467,0 -0.43633,0.08433 -0.605,0.253v0v0c-0.16867,0.16867 -0.253,0.37033 -0.253,0.605v0v7.436v0c0,0.23467 0.08433,0.43633 0.253,0.605v0v0c0.16867,0.16867 0.37033,0.253 0.605,0.253v0h10.34zM219.285,283.83h-1.804v-10.098v0c0,-0.73333 0.26033,-1.36033 0.781,-1.881v0v0c0.52067,-0.52067 1.14767,-0.781 1.881,-0.781v0h7.172v1.804h-7.172v0c-0.23467,0 -0.43633,0.08433 -0.605,0.253v0v0c-0.16867,0.16867 -0.253,0.37033 -0.253,0.605v0zM241.725,283.83h-10.34v0c-0.73333,0 -1.36033,-0.26033 -1.881,-0.781v0v0c-0.52067,-0.52067 -0.781,-1.14767 -0.781,-1.881v0v-7.436v0c0,-0.73333 0.26033,-1.36033 0.781,-1.881v0v0c0.52067,-0.52067 1.14767,-0.781 1.881,-0.781v0h7.656v0c0.748,0 1.38233,0.26033 1.903,0.781v0v0c0.52067,0.52067 0.781,1.14767 0.781,1.881v0v4.62h-11.198v2.816v0c0,0.23467 0.08433,0.43633 0.253,0.605v0v0c0.16867,0.16867 0.37033,0.253 0.605,0.253v0h10.34zM230.527,273.732v2.816h9.372v-2.816v0c0,-0.23467 -0.08433,-0.43633 -0.253,-0.605v0v0c-0.16867,-0.16867 -0.37033,-0.253 -0.605,-0.253v0h-7.656v0c-0.23467,0 -0.43633,0.08433 -0.605,0.253v0v0c-0.16867,0.16867 -0.253,0.37033 -0.253,0.605zM256.971,283.83h-10.34v0c-0.73333,0 -1.36033,-0.26033 -1.881,-0.781v0v0c-0.52067,-0.52067 -0.781,-1.14767 -0.781,-1.881v0v-4.62h11.176v-2.816v0c0,-0.23467 -0.08433,-0.43633 -0.253,-0.605v0v0c-0.16867,-0.16867 -0.37033,-0.253 -0.605,-0.253v0h-10.318v-1.804h10.318v0c0.748,0 1.38233,0.26033 1.903,0.781v0v0c0.52067,0.52067 0.781,1.14767 0.781,1.881v0zM246.631,282.026v0h8.514v-3.674h-9.372v2.816v0c0,0.23467 0.08433,0.43633 0.253,0.605v0v0c0.16867,0.16867 0.37033,0.253 0.605,0.253zM266.585,283.83h-4.664v0c-0.748,0 -1.37867,-0.26033 -1.892,-0.781v0v0c-0.51333,-0.52067 -0.77,-1.14767 -0.77,-1.881v0v-14.278h1.804v4.18h5.522v1.804h-5.522v8.294v0c0,0.23467 0.08433,0.43633 0.253,0.605v0v0c0.16867,0.16867 0.37033,0.253 0.605,0.253v0h4.664zM281.237,283.83h-10.34v0c-0.73333,0 -1.36033,-0.26033 -1.881,-0.781v0v0c-0.52067,-0.52067 -0.781,-1.14767 -0.781,-1.881v0v-7.436v0c0,-0.73333 0.26033,-1.36033 0.781,-1.881v0v0c0.52067,-0.52067 1.14767,-0.781 1.881,-0.781v0h7.656v0c0.748,0 1.38233,0.26033 1.903,0.781v0v0c0.52067,0.52067 0.781,1.14767 0.781,1.881v0v4.62h-11.198v2.816v0c0,0.23467 0.08433,0.43633 0.253,0.605v0v0c0.16867,0.16867 0.37033,0.253 0.605,0.253v0h10.34zM270.039,273.732v2.816h9.372v-2.816v0c0,-0.23467 -0.08433,-0.43633 -0.253,-0.605v0v0c-0.16867,-0.16867 -0.37033,-0.253 -0.605,-0.253v0h-7.656v0c-0.23467,0 -0.43633,0.08433 -0.605,0.253v0v0c-0.16867,0.16867 -0.253,0.37033 -0.253,0.605zM293.711,283.83h-7.656v0c-0.73333,0 -1.36033,-0.26033 -1.881,-0.781v0v0c-0.52067,-0.52067 -0.781,-1.14767 -0.781,-1.881v0v-0.176h1.804v0.176v0c0,0.23467 0.08433,0.43633 0.253,0.605v0v0c0.16867,0.16867 0.37033,0.253 0.605,0.253v0h7.656v0c0.23467,0 0.43633,-0.08433 0.605,-0.253v0v0c0.16867,-0.16867 0.253,-0.37033 0.253,-0.605v0v-1.958v0c0,-0.23467 -0.08433,-0.43633 -0.253,-0.605v0v0c-0.16867,-0.16867 -0.37033,-0.253 -0.605,-0.253v0h-7.656v0c-0.73333,0 -1.36033,-0.26033 -1.881,-0.781v0v0c-0.52067,-0.52067 -0.781,-1.14767 -0.781,-1.881v0v-1.958v0c0,-0.73333 0.26033,-1.36033 0.781,-1.881v0v0c0.52067,-0.52067 1.14767,-0.781 1.881,-0.781v0h7.656v0c0.748,0 1.38233,0.26033 1.903,0.781v0v0c0.52067,0.52067 0.781,1.14767 0.781,1.881v0v0.176h-1.826v-0.176v0c0,-0.23467 -0.08433,-0.43633 -0.253,-0.605v0v0c-0.16867,-0.16867 -0.37033,-0.253 -0.605,-0.253v0h-7.656v0c-0.23467,0 -0.43633,0.08433 -0.605,0.253v0v0c-0.16867,0.16867 -0.253,0.37033 -0.253,0.605v0v1.958v0c0,0.23467 0.08433,0.43633 0.253,0.605v0v0c0.16867,0.16867 0.37033,0.253 0.605,0.253v0h7.656v0c0.748,0 1.38233,0.26033 1.903,0.781v0v0c0.52067,0.52067 0.781,1.14767 0.781,1.881v0v1.958v0c0,0.73333 -0.26033,1.36033 -0.781,1.881v0v0c-0.52067,0.52067 -1.155,0.781 -1.903,0.781zM76.747,283.83h-14.454v-15.84h14.454v1.782h-12.672v5.236h10.186v1.804h-10.186v5.236h12.672zM94.897,283.83h-13.156v0c-0.73333,0 -1.35667,-0.25667 -1.87,-0.77v0v0c-0.51333,-0.51333 -0.77,-1.13667 -0.77,-1.87v0v-10.56v0c0,-0.73333 0.25667,-1.35667 0.77,-1.87v0v0c0.51333,-0.51333 1.13667,-0.77 1.87,-0.77v0h13.156v1.782h-13.156v0c-0.23467,0 -0.43633,0.08433 -0.605,0.253v0v0c-0.16867,0.16867 -0.253,0.37033 -0.253,0.605v0v10.56v0c0,0.23467 0.08433,0.43633 0.253,0.605v0v0c0.16867,0.16867 0.37033,0.253 0.605,0.253v0h13.156zM110.341,283.83h-10.56v0c-0.73333,0 -1.35667,-0.25667 -1.87,-0.77v0v0c-0.51333,-0.51333 -0.77,-1.13667 -0.77,-1.87v0v-10.56v0c0,-0.73333 0.25667,-1.35667 0.77,-1.87v0v0c0.51333,-0.51333 1.13667,-0.77 1.87,-0.77v0h10.56v0c0.73333,0 1.35667,0.25667 1.87,0.77v0v0c0.51333,0.51333 0.77,1.13667 0.77,1.87v0v10.56v0c0,0.73333 -0.25667,1.35667 -0.77,1.87v0v0c-0.51333,0.51333 -1.13667,0.77 -1.87,0.77zM99.781,282.048v0h10.56v0c0.23467,0 0.43633,-0.08433 0.605,-0.253v0v0c0.16867,-0.16867 0.253,-0.37033 0.253,-0.605v0v-10.56v0c0,-0.23467 -0.08433,-0.43633 -0.253,-0.605v0v0c-0.16867,-0.16867 -0.37033,-0.253 -0.605,-0.253v0h-10.56v0c-0.23467,0 -0.43633,0.08433 -0.605,0.253v0v0c-0.16867,0.16867 -0.253,0.37033 -0.253,0.605v0v10.56v0c0,0.23467 0.08433,0.43633 0.253,0.605v0v0c0.16867,0.16867 0.37033,0.253 0.605,0.253zM117.161,283.83h-1.804v-12.76h10.34v0c0.73333,0 1.36033,0.26033 1.881,0.781v0v0c0.52067,0.52067 0.781,1.14767 0.781,1.881v0v10.098h-1.804v-10.098v0c0,-0.23467 -0.08433,-0.43633 -0.253,-0.605v0v0c-0.16867,-0.16867 -0.37033,-0.253 -0.605,-0.253v0h-7.656v0c-0.23467,0 -0.44,0.08433 -0.616,0.253v0v0c-0.176,0.16867 -0.264,0.37033 -0.264,0.605v0zM143.165,283.83h-10.34v0c-0.73333,0 -1.36033,-0.26033 -1.881,-0.781v0v0c-0.52067,-0.52067 -0.781,-1.14767 -0.781,-1.881v0v-7.436v0c0,-0.73333 0.26033,-1.36033 0.781,-1.881v0v0c0.52067,-0.52067 1.14767,-0.781 1.881,-0.781v0h10.296v1.804h-10.296v0c-0.23467,0 -0.43633,0.08433 -0.605,0.253v0v0c-0.16867,0.16867 -0.253,0.37033 -0.253,0.605v0v7.436v0c0,0.23467 0.08433,0.43633 0.253,0.605v0v0c0.16867,0.16867 0.37033,0.253 0.605,0.253v0h10.34zM147.279,283.83h-1.804v-10.098v0c0,-0.73333 0.26033,-1.36033 0.781,-1.881v0v0c0.52067,-0.52067 1.14767,-0.781 1.881,-0.781v0h7.172v1.804h-7.172v0c-0.23467,0 -0.43633,0.08433 -0.605,0.253v0v0c-0.16867,0.16867 -0.253,0.37033 -0.253,0.605v0zM169.719,283.83h-10.34v0c-0.73333,0 -1.36033,-0.26033 -1.881,-0.781v0v0c-0.52067,-0.52067 -0.781,-1.14767 -0.781,-1.881v0v-7.436v0c0,-0.73333 0.26033,-1.36033 0.781,-1.881v0v0c0.52067,-0.52067 1.14767,-0.781 1.881,-0.781v0h7.656v0c0.748,0 1.38233,0.26033 1.903,0.781v0v0c0.52067,0.52067 0.781,1.14767 0.781,1.881v0v4.62h-11.198v2.816v0c0,0.23467 0.08433,0.43633 0.253,0.605v0v0c0.16867,0.16867 0.37033,0.253 0.605,0.253v0h10.34zM158.521,273.732v2.816h9.372v-2.816v0c0,-0.23467 -0.08433,-0.43633 -0.253,-0.605v0v0c-0.16867,-0.16867 -0.37033,-0.253 -0.605,-0.253v0h-7.656v0c-0.23467,0 -0.43633,0.08433 -0.605,0.253v0v0c-0.16867,0.16867 -0.253,0.37033 -0.253,0.605zM179.311,283.83h-4.664v0c-0.748,0 -1.37867,-0.26033 -1.892,-0.781v0v0c-0.51333,-0.52067 -0.77,-1.14767 -0.77,-1.881v0v-14.278h1.804v4.18h5.522v1.804h-5.522v8.294v0c0,0.23467 0.08433,0.43633 0.253,0.605v0v0c0.16867,0.16867 0.37033,0.253 0.605,0.253v0h4.664zM193.963,283.83h-10.34v0c-0.73333,0 -1.36033,-0.26033 -1.881,-0.781v0v0c-0.52067,-0.52067 -0.781,-1.14767 -0.781,-1.881v0v-7.436v0c0,-0.73333 0.26033,-1.36033 0.781,-1.881v0v0c0.52067,-0.52067 1.14767,-0.781 1.881,-0.781v0h7.656v0c0.748,0 1.38233,0.26033 1.903,0.781v0v0c0.52067,0.52067 0.781,1.14767 0.781,1.881v0v4.62h-11.198v2.816v0c0,0.23467 0.08433,0.43633 0.253,0.605v0v0c0.16867,0.16867 0.37033,0.253 0.605,0.253v0h10.34zM182.765,273.732v2.816h9.372v-2.816v0c0,-0.23467 -0.08433,-0.43633 -0.253,-0.605v0v0c-0.16867,-0.16867 -0.37033,-0.253 -0.605,-0.253v0h-7.656v0c-0.23467,0 -0.43633,0.08433 -0.605,0.253v0v0c-0.16867,0.16867 -0.253,0.37033 -0.253,0.605z" fill="#ffffff" stroke="none" stroke-width="1" stroke-linecap="butt" stroke-miterlimit="10"/><path d="M195.75,213.487h-18v-21.6h17.07v0c1,0 1.85,0.35 2.55,1.05v0v0c0.7,0.7 1.05,1.55 1.05,2.55v0v4.59v0c0,0.28 -0.035,0.555 -0.105,0.825v0v0c-0.07,0.27 -0.165,0.525 -0.285,0.765v0v0c0.44,0.66 0.77,1.23 0.99,1.71v0v0c0.22,0.48 0.33,0.97 0.33,1.47v0v5.04v0c0,1 -0.35,1.85 -1.05,2.55v0v0c-0.7,0.7 -1.55,1.05 -2.55,1.05zM181.35,211.057v0h14.4v0c0.32,0 0.595,-0.115 0.825,-0.345v0v0c0.23,-0.23 0.345,-0.505 0.345,-0.825v0v-5.04v0c0,-0.32 -0.115,-0.595 -0.345,-0.825v0v0c-0.23,-0.23 -0.505,-0.345 -0.825,-0.345v0h-14.4v0c-0.32,0 -0.595,0.115 -0.825,0.345v0v0c-0.23,0.23 -0.345,0.505 -0.345,0.825v0v5.04v0c0,0.32 0.115,0.595 0.345,0.825v0v0c0.23,0.23 0.505,0.345 0.825,0.345zM181.35,201.247v0h13.47v0c0.32,0 0.59,-0.115 0.81,-0.345v0v0c0.22,-0.23 0.33,-0.505 0.33,-0.825v0v-4.59v0c0,-0.32 -0.11,-0.595 -0.33,-0.825v0v0c-0.22,-0.23 -0.49,-0.345 -0.81,-0.345v0h-13.47v0c-0.32,0 -0.595,0.115 -0.825,0.345v0v0c-0.23,0.23 -0.345,0.505 -0.345,0.825v0v4.59v0c0,0.32 0.115,0.595 0.345,0.825v0v0c0.23,0.23 0.505,0.345 0.825,0.345zM204.96,213.487h-2.46v-17.4h2.46zM204.96,192.847h-2.46v-2.46h2.46zM222.78,213.487h-10.44v0c-1,0 -1.855,-0.355 -2.565,-1.065v0v0c-0.71,-0.71 -1.065,-1.565 -1.065,-2.565v0v-10.14v0c0,-1 0.355,-1.855 1.065,-2.565v0v0c0.71,-0.71 1.565,-1.065 2.565,-1.065v0h10.44v0c1.02,0 1.885,0.355 2.595,1.065v0v0c0.71,0.71 1.065,1.565 1.065,2.565v0v10.14v0c0,1 -0.355,1.855 -1.065,2.565v0v0c-0.71,0.71 -1.575,1.065 -2.595,1.065zM212.34,211.027v0h10.44v0c0.32,0 0.595,-0.115 0.825,-0.345v0v0c0.23,-0.23 0.345,-0.505 0.345,-0.825v0v-10.14v0c0,-0.32 -0.115,-0.595 -0.345,-0.825v0v0c-0.23,-0.23 -0.505,-0.345 -0.825,-0.345v0h-10.44v0c-0.32,0 -0.595,0.115 -0.825,0.345v0v0c-0.23,0.23 -0.345,0.505 -0.345,0.825v0v10.14v0c0,0.32 0.115,0.595 0.345,0.825v0v0c0.23,0.23 0.505,0.345 0.825,0.345zM241.41,205.837h-11.7v-2.46h11.7zM264.9,213.487h-19.71v-21.6h19.71v2.43h-17.28v7.14h13.89v2.46h-13.89v7.14h17.28zM270.51,213.487h-2.46v-17.4h14.1v0c1,0 1.855,0.355 2.565,1.065v0v0c0.71,0.71 1.065,1.565 1.065,2.565v0v13.77h-2.46v-13.77v0c0,-0.32 -0.115,-0.595 -0.345,-0.825v0v0c-0.23,-0.23 -0.505,-0.345 -0.825,-0.345v0h-10.44v0c-0.32,0 -0.6,0.115 -0.84,0.345v0v0c-0.24,0.23 -0.36,0.505 -0.36,0.825v0zM291.39,213.487h-2.46v-23.1h2.46v5.7h11.64v0c0.98,0 1.83,0.355 2.55,1.065v0v0c0.72,0.71 1.08,1.565 1.08,2.565v0v13.77h-2.46v-13.77v0c0,-0.32 -0.115,-0.595 -0.345,-0.825v0v0c-0.23,-0.23 -0.505,-0.345 -0.825,-0.345v0h-10.44v0c-0.32,0 -0.6,0.115 -0.84,0.345v0v0c-0.24,0.23 -0.36,0.505 -0.36,0.825v0zM326.79,213.487h-14.1v0c-1,0 -1.855,-0.355 -2.565,-1.065v0v0c-0.71,-0.71 -1.065,-1.565 -1.065,-2.565v0v-6.3h15.24v-3.84v0c0,-0.32 -0.115,-0.595 -0.345,-0.825v0v0c-0.23,-0.23 -0.505,-0.345 -0.825,-0.345v0h-14.07v-2.46h14.07v0c1.02,0 1.885,0.355 2.595,1.065v0v0c0.71,0.71 1.065,1.565 1.065,2.565v0zM312.69,211.027v0h11.61v-5.01h-12.78v3.84v0c0,0.32 0.115,0.595 0.345,0.825v0v0c0.23,0.23 0.505,0.345 0.825,0.345zM331.95,213.487h-2.46v-17.4h14.1v0c1,0 1.855,0.355 2.565,1.065v0v0c0.71,0.71 1.065,1.565 1.065,2.565v0v13.77h-2.46v-13.77v0c0,-0.32 -0.115,-0.595 -0.345,-0.825v0v0c-0.23,-0.23 -0.505,-0.345 -0.825,-0.345v0h-10.44v0c-0.32,0 -0.6,0.115 -0.84,0.345v0v0c-0.24,0.23 -0.36,0.505 -0.36,0.825v0zM367.41,213.487h-14.1v0c-1,0 -1.855,-0.355 -2.565,-1.065v0v0c-0.71,-0.71 -1.065,-1.565 -1.065,-2.565v0v-10.14v0c0,-1 0.355,-1.855 1.065,-2.565v0v0c0.71,-0.71 1.565,-1.065 2.565,-1.065v0h14.04v2.46h-14.04v0c-0.32,0 -0.595,0.115 -0.825,0.345v0v0c-0.23,0.23 -0.345,0.505 -0.345,0.825v0v10.14v0c0,0.32 0.115,0.595 0.345,0.825v0v0c0.23,0.23 0.505,0.345 0.825,0.345v0h14.1zM387.51,213.487h-14.1v0c-1,0 -1.855,-0.355 -2.565,-1.065v0v0c-0.71,-0.71 -1.065,-1.565 -1.065,-2.565v0v-10.14v0c0,-1 0.355,-1.855 1.065,-2.565v0v0c0.71,-0.71 1.565,-1.065 2.565,-1.065v0h10.44v0c1.02,0 1.885,0.355 2.595,1.065v0v0c0.71,0.71 1.065,1.565 1.065,2.565v0v6.3h-15.27v3.84v0c0,0.32 0.115,0.595 0.345,0.825v0v0c0.23,0.23 0.505,0.345 0.825,0.345v0h14.1zM372.24,199.717v3.84h12.78v-3.84v0c0,-0.32 -0.115,-0.595 -0.345,-0.825v0v0c-0.23,-0.23 -0.505,-0.345 -0.825,-0.345v0h-10.44v0c-0.32,0 -0.595,0.115 -0.825,0.345v0v0c-0.23,0.23 -0.345,0.505 -0.345,0.825zM407.43,213.487h-14.07v0c-1.02,0 -1.885,-0.355 -2.595,-1.065v0v0c-0.71,-0.71 -1.065,-1.565 -1.065,-2.565v0v-10.14v0c0,-1 0.355,-1.855 1.065,-2.565v0v0c0.71,-0.71 1.575,-1.065 2.595,-1.065v0h11.61v-5.7h2.46zM393.36,211.027v0h10.44v0c0.32,0 0.595,-0.115 0.825,-0.345v0v0c0.23,-0.23 0.345,-0.505 0.345,-0.825v0v-10.14v0c0,-0.32 -0.115,-0.595 -0.345,-0.825v0v0c-0.23,-0.23 -0.505,-0.345 -0.825,-0.345v0h-10.44v0c-0.32,0 -0.595,0.115 -0.825,0.345v0v0c-0.23,0.23 -0.345,0.505 -0.345,0.825v0v10.14v0c0,0.32 0.115,0.595 0.345,0.825v0v0c0.23,0.23 0.505,0.345 0.825,0.345z" fill="#ffffff" stroke="none" stroke-width="1" stroke-linecap="butt" stroke-miterlimit="10"/></g></g></svg>