<svg version="1.1" xmlns="http://www.w3.org/2000/svg" xmlns:xlink="http://www.w3.org/1999/xlink" width="103" height="103" viewBox="0,0,103,103"><g transform="translate(-188.5,-238.5)"><g data-paper-data="{&quot;isPaintingLayer&quot;:true}" fill-rule="nonzero" stroke-linejoin="miter" stroke-dasharray="" stroke-dashoffset="0" style="mix-blend-mode: normal"><path d="M195.598,241.5h88.804c2.262,0 4.098,1.836 4.098,4.098v88.804c0,2.262 -1.836,4.098 -4.098,4.098h-88.804c-2.262,0 -4.098,-1.836 -4.098,-4.098v-88.804c0,-2.262 1.836,-4.098 4.098,-4.098z" fill="#b95757" stroke="none" stroke-width="1" stroke-linecap="butt" stroke-miterlimit="10"/><path d="M195.598,241.5h88.804c2.262,0 4.098,1.836 4.098,4.098v88.804c0,2.262 -1.836,4.098 -4.098,4.098h-88.804c-2.262,0 -4.098,-1.836 -4.098,-4.098v-88.804c0,-2.262 1.836,-4.098 4.098,-4.098z" fill="none" stroke="#863e3e" stroke-width="6" stroke-linecap="square" stroke-miterlimit="2"/><path d="M205.5,259.5l5,-8l12,8l16,-5l5,12l-8,8l-13,4l-4,-8h-8z" fill="#ce2828" stroke="none" stroke-width="1" stroke-linecap="butt" stroke-miterlimit="10"/><path d="M207.5,302.5l17,1l-4,12h-8l8,11l-13,6l-10,-9l6,-5l-6,-11z" fill="#ce2828" stroke="none" stroke-width="1" stroke-linecap="butt" stroke-miterlimit="10"/><path d="M248.5,294.5l17,2l10,-2l4,15l-11,6l-9,3l-2,10l-6,-9l-8,-7z" fill="#ce2828" stroke="none" stroke-width="1" stroke-linecap="butt" stroke-miterlimit="10"/></g></g></svg>