<svg version="1.1" xmlns="http://www.w3.org/2000/svg" xmlns:xlink="http://www.w3.org/1999/xlink" width="373.09119" height="50.69285" viewBox="0,0,373.09119,50.69285"><g transform="translate(-55.46671,-264.89769)"><g data-paper-data="{&quot;isPaintingLayer&quot;:true}" fill-rule="nonzero" stroke="none" stroke-linecap="butt" stroke-linejoin="miter" stroke-miterlimit="10" stroke-dasharray="" stroke-dashoffset="0" style="mix-blend-mode: normal"><path d="M63.11972,314.55342c-2.12584,0 -3.9328,-0.74405 -5.42088,-2.23213c-1.48808,-1.48809 -2.23213,-3.29505 -2.23213,-5.42088v-30.61205c0,-2.12584 0.74404,-3.9328 2.23213,-5.42088c1.48808,-1.48809 3.29505,-2.23212 5.42088,-2.23212h38.13752v5.16579h-38.13752c-0.68026,0 -1.26487,0.24446 -1.75382,0.73341c-0.48895,0.48895 -0.73341,1.07355 -0.73341,1.75381v30.61206c0,0.68027 0.24446,1.26488 0.73341,1.75382c0.48895,0.48895 1.07355,0.73341 1.75382,0.73341h38.13752v5.16579zM115.28776,314.55342c-2.12584,0 -3.94343,-0.75468 -5.45277,-2.26402c-1.50934,-1.50934 -2.26402,-3.32693 -2.26402,-5.45277v-21.55599c0,-2.12584 0.75468,-3.94343 2.26402,-5.45277c1.50934,-1.50934 3.32693,-2.26401 5.45277,-2.26401h22.19374c2.16835,0 4.0072,0.75467 5.51655,2.26401c1.50934,1.50934 2.26402,3.32693 2.26402,5.45277v21.55599c0,2.12584 -0.75467,3.94343 -2.26402,5.45277c-1.50934,1.50934 -3.34819,2.26402 -5.51655,2.26402zM115.28776,309.32385h22.19374c0.68026,0 1.26487,-0.24446 1.75382,-0.73341c0.48895,-0.48895 0.73341,-1.07355 0.73341,-1.75381v-21.55599c0,-0.68027 -0.24446,-1.26487 -0.73341,-1.75382c-0.48895,-0.48895 -1.07355,-0.73341 -1.75382,-0.73341h-22.19374c-0.68027,0 -1.26487,0.24446 -1.75382,0.73341c-0.48895,0.48895 -0.73341,1.07355 -0.73341,1.75382v21.55599c0,0.68027 0.24447,1.26487 0.73341,1.75381c0.48895,0.48895 1.07355,0.73341 1.75382,0.73341zM150.93805,314.55342v-36.98957h29.9743c2.12584,0 3.94343,0.75467 5.45277,2.26401c1.50934,1.50934 2.26402,3.32693 2.26402,5.45277v29.27279h-5.22957v-29.27278c0,-0.68027 -0.24446,-1.26487 -0.73341,-1.75382c-0.48895,-0.48895 -1.07355,-0.73341 -1.75382,-0.73341h-22.19374c-0.68026,0 -1.27551,0.24446 -1.78571,0.73341c-0.5102,0.48895 -0.7653,1.07355 -0.7653,1.75382v29.27279zM201.5755,314.55342c-2.12584,0 -3.94343,-0.75468 -5.45278,-2.26402c-1.50934,-1.50934 -2.26402,-3.32693 -2.26402,-5.45277v-21.55599c0,-2.12584 0.75467,-3.94343 2.26402,-5.45277c1.50934,-1.50934 3.32693,-2.26401 5.45278,-2.26401h29.84676v5.22956h-29.84675c-0.68026,0 -1.26487,0.24446 -1.75382,0.73341c-0.48895,0.48895 -0.73341,1.07355 -0.73341,1.75382v21.55599c0,0.68027 0.24446,1.26487 0.73341,1.75381c0.48895,0.48895 1.07355,0.73341 1.75382,0.73341h29.9743v5.22957zM238.24619,314.55342v-29.27278c0,-2.12584 0.75467,-3.94343 2.26402,-5.45277c1.50934,-1.50934 3.32693,-2.26401 5.45277,-2.26401h20.79069v5.22956h-20.79069c-0.68026,0 -1.26487,0.24446 -1.75382,0.73341c-0.48895,0.48895 -0.73341,1.07355 -0.73341,1.75382v29.27279zM278.55206,314.55342c-2.12584,0 -3.94343,-0.75468 -5.45277,-2.26402c-1.50934,-1.50934 -2.26402,-3.32693 -2.26402,-5.45277v-21.55599c0,-2.12584 0.75468,-3.94343 2.26402,-5.45277c1.50934,-1.50934 3.32693,-2.26401 5.45277,-2.26401h22.19374c2.16835,0 4.0072,0.75467 5.51655,2.26401c1.50934,1.50934 2.26401,3.32693 2.26401,5.45277v13.39277h-32.46153v8.16321c0,0.68027 0.24446,1.26488 0.73341,1.75382c0.48895,0.48895 1.07355,0.73341 1.75381,0.73341h29.97431v5.22956zM276.06484,293.44386h27.1682v-8.16321c0,-0.68027 -0.24446,-1.26487 -0.73341,-1.75381c-0.48895,-0.48895 -1.07355,-0.73341 -1.75382,-0.73341h-22.19374c-0.68027,0 -1.26487,0.24446 -1.75382,0.73341c-0.48895,0.48895 -0.73341,1.07355 -0.73341,1.75381zM322.81199,314.55342c-2.16835,0 -3.99657,-0.75468 -5.48466,-2.26402c-1.48809,-1.50934 -2.23213,-3.32693 -2.23213,-5.45277v-41.39005h5.22957v12.11728h16.00755v5.22957h-16.00755v24.04322c0,0.68027 0.24446,1.26487 0.73341,1.75382c0.48895,0.48895 1.07355,0.73341 1.75381,0.73341h13.52033v5.22956zM341.17923,314.55342v-29.27278c0,-2.12584 0.75468,-3.94343 2.26402,-5.45277c1.50934,-1.50934 3.32693,-2.26401 5.45277,-2.26401h20.79068v5.22956h-20.79068c-0.68027,0 -1.26487,0.24446 -1.75381,0.73341c-0.48895,0.48895 -0.73341,1.07355 -0.73341,1.75382v29.27279zM373.83209,314.55342v-36.98957h5.22956v36.98957zM373.83209,270.67615v-5.22957h5.22956v5.22957zM394.55901,314.55342c-2.12584,0 -3.94344,-0.75468 -5.45278,-2.26402c-1.50934,-1.50934 -2.26401,-3.32693 -2.26401,-5.45277v-0.5102h5.22956v0.5102c0,0.68027 0.24446,1.26487 0.73341,1.75381c0.48895,0.48895 1.07355,0.73341 1.75382,0.73341h22.19374c0.68027,0 1.26487,-0.24446 1.75382,-0.73341c0.48895,-0.48895 0.73341,-1.07355 0.73341,-1.75381v-5.67599c0,-0.68027 -0.24447,-1.26487 -0.73341,-1.75381c-0.48895,-0.48895 -1.07355,-0.73341 -1.75382,-0.73341h-22.19374c-2.12584,0 -3.94344,-0.75468 -5.45278,-2.26402c-1.50934,-1.50934 -2.26401,-3.32693 -2.26401,-5.45277v-5.67599c0,-2.12584 0.75467,-3.94343 2.26401,-5.45277c1.50934,-1.50934 3.32694,-2.26402 5.45278,-2.26402h22.19374c2.16835,0 4.0072,0.75468 5.51655,2.26402c1.50934,1.50934 2.26402,3.32693 2.26402,5.45277v0.5102h-5.29333v-0.5102c0,-0.68027 -0.24447,-1.26487 -0.73341,-1.75381c-0.48895,-0.48895 -1.07355,-0.73341 -1.75382,-0.73341h-22.19374c-0.68027,0 -1.26487,0.24446 -1.75382,0.73341c-0.48895,0.48895 -0.73341,1.07355 -0.73341,1.75381v5.67599c0,0.68027 0.24447,1.26487 0.73341,1.75381c0.48895,0.48895 1.07355,0.73341 1.75382,0.73341h22.19374c2.16835,0 4.0072,0.75468 5.51655,2.26402c1.50934,1.50934 2.26402,3.32693 2.26402,5.45277v5.67599c0,2.12584 -0.75468,3.94343 -2.26402,5.45277c-1.50934,1.50934 -3.34819,2.26402 -5.51655,2.26402z" fill="#bfbfbf" stroke-width="1"/><path d="M87.66518,272.22124c-3.38584,0.02522 -6.77201,0.02955 -10.15781,0c-2.06605,-0.01803 -4.34634,-0.93918 -6.37822,-1.01578c-2.10125,-0.07921 -4.81639,1.23686 -6.30325,-0.25c-1.35202,-1.35201 -1.2119,-3.66467 1,-3.75c4.30753,-0.16616 7.94648,0.9688 12.06664,1.01578c5.85347,0.06675 10.96666,-0.16606 16.71759,-0.25395c1.09364,-0.01671 2.06149,-0.89554 3.01413,-0.94847c0.31305,-0.20322 0.68652,-0.32126 1.08755,-0.32126c1.10457,0 2,0.89543 2,2c0,0.72925 -0.3903,1.36734 -0.97341,1.71678c-2.22627,2.06022 -10.53029,1.79541 -12.0732,1.80689z" fill="#3a8810" stroke-width="0.5"/><path d="M61.73805,300.41431c0.18203,0.12367 0.33335,0.27533 0.46021,0.44842c0.13294,0.17052 0.23884,0.36314 0.31127,0.57143c0.59242,1.465 0.28978,3.6616 1.25056,4.32867c0.21364,0.14833 0.50272,0.14508 0.76168,0.16926c2.49572,0.23314 5.1314,1.94298 7.2039,2.03156c8.14934,0.3483 16.27108,1.03301 24.43892,1.01578c1.4538,-0.00306 3.43078,-1.29292 4.19063,0.98663c0.80919,2.42757 -2.41563,3.02583 -4.04073,3.02583c-3.28102,0 -6.44214,0.27341 -9.63201,-0.27864c-4.8015,-0.83096 -11.29218,0.41716 -16.18104,-0.80506c-1.14046,-0.28512 -2.31005,-1.58263 -3.37968,-1.76682c-1.69484,-0.29185 -5.45289,0.24851 -6.7341,-1.24624c-1.21534,-1.41791 -0.67539,-4.14715 -1.5385,-5.87338c-0.14632,-0.27792 -0.22914,-0.5945 -0.22914,-0.93041c0,-1.10457 0.89543,-2 2,-2c0.17779,0 0.35016,0.0232 0.51425,0.06673c0.21326,0.0459 0.41808,0.13005 0.60378,0.25621z" fill="#3a8810" stroke-width="0.5"/><path d="M124.5024,307.18937c1.70372,-0.07977 4.11686,0.02635 5.51607,0.01246c0.58032,-0.00576 1.15973,-0.75808 1.83317,-0.76183c0.00853,-0.00005 4.8574,0.66251 5.62633,-0.31346c1.77298,-2.25036 -2.34374,-9.71738 2.24597,-9.71738c3.25295,0 2.93801,8.12973 1.89737,10.7587c-1.43785,3.63242 -7.9716,4.02139 -11.03939,4.03397c-3.33333,0.01367 -7.56247,0.59949 -7.64646,-0.91245c-0.20322,-0.31305 -0.32126,-0.68652 -0.32126,-1.08755c0,-0.98221 0.70803,-1.79904 1.64155,-1.96797c0.07752,-0.02504 0.15949,-0.04041 0.24665,-0.04449z" fill="#3a8810" stroke-width="0.5"/><path d="M162.4836,278.22051c0.55236,-0.96662 1.35495,-1.58448 2.30084,-1.97752c2.25349,-0.93638 5.32029,-0.59681 7.75433,-0.65734c2.05805,-0.05118 10.38152,-1.14025 13.28184,0.97298c1.85775,1.35359 8.629,8.93928 2.51139,8.93928c-1.71947,0 -1.53164,-2.27594 -2.12916,-3.1723c-1.23205,-1.84827 -3.18026,-2.85948 -5.4104,-2.86692c-3.09527,-0.01033 -7.76209,-0.04597 -11.19139,0.12697c-0.59871,0.03019 -5.64938,1.204 -6.13252,0.3585z" fill="#3a8810" stroke-width="0.5"/><path d="M200.76619,296.75851c-0.02434,1.6931 -0.47643,3.49883 -0.34794,5.21819c0.11097,1.48487 0.98885,5.95588 -0.89263,6.58304c-1.56501,0.52167 -1.99842,-0.33186 -2.52982,-1.26491c-2.16986,-3.80993 -0.26831,-12.08636 -0.22961,-15.86917c0.00431,-0.42198 0.30242,-4.41003 1.42034,-4.47214c0.31305,-0.20322 0.68651,-0.32126 1.08755,-0.32126c1.10457,0 2,0.89543 2,2c0,0.32031 -0.0753,0.62302 -0.20916,0.89142c0.46114,1.97926 -0.25454,4.15947 -0.29873,7.23482z" fill="#3a8810" stroke-width="0.5"/><path d="M237.74678,288.60071c-1.25683,-0.71819 -1.82526,-1.5608 -1.94802,-2.45499c-0.21838,-1.5906 0.9734,-3.34443 2.20893,-4.85153c3.66186,-4.46675 7.64415,-5.77269 13.51018,-5.96129c2.05752,-0.06615 8.35659,0.3973 4.75113,4.00275c-0.67621,0.67621 -3.76699,-0.02659 -4.64774,-0.00394c-3.44458,0.08859 -5.97877,0.59165 -8.85797,2.28751c-0.77981,0.45931 -2.3974,2.78088 -2.77052,3.61657c-0.17115,0.38335 -0.19769,2.19446 -0.52237,2.37998z" fill="#3a8810" stroke-width="0.5"/><path d="M291.61891,294.94934c-1.17873,-0.0145 -2.47359,-0.48138 -3.53635,0.02868c-2.00257,0.9611 -3.98382,4.5631 -5.89538,4.6693c-4.56703,0.25372 -0.35269,-5.15445 0.49037,-5.95367c2.74646,-2.60359 5.43204,-2.73217 9.283,-2.74432c2.44513,-0.00771 4.4384,0.86582 6.94312,0.36487c0.3514,-0.30633 0.81084,-0.49185 1.31362,-0.49185c1.10457,0 2,0.89543 2,2c0,0.10546 -0.00817,0.209 -0.02389,0.31005c0.86993,2.89862 -8.61087,1.84109 -10.57449,1.81693z" fill="#3a8810" stroke-width="0.5"/><path d="M292.37459,308.09064c4.53546,1.35764 11.17879,0.07756 15.05855,3.95731c1.62676,1.62676 0.33341,3.44617 -1.77846,3.54246c-0.42282,0.01928 -5.02316,-2.04667 -5.15994,-2.11265c-3.02744,-1.46056 -3.19153,-1.27173 -7.38439,-1.26015c-2.2476,0.00621 -4.29209,-1.05035 -6.52063,-1.01757c-0.02834,0.00119 -0.05683,0.00179 -0.08546,0.00179c-1.10457,0 -2,-0.89543 -2,-2c0,-0.83174 0.50771,-1.54489 1.23012,-1.84645c1.74939,-1.022 4.7722,0.1761 6.64021,0.73526z" fill="#3a8810" stroke-width="0.5"/><path d="M317.20005,282.9185c0.0255,5.37511 0.0255,10.75041 0,16.12552c-0.00612,1.29017 -0.12664,6.43593 -3.14837,4.70922c-0.58333,-0.33333 -0.98968,-1.01757 -1.11803,-1.67705c-0.19319,-0.9926 0.26474,-2.29398 0.26641,-3.35673c0.00828,-5.29001 0.79837,-10.64827 -0.049,-15.86998c-0.2702,-1.66507 -2.03543,-9.57344 0.19839,-10.84991c0.3479,-0.58948 0.98959,-0.98493 1.72363,-0.98493c1.06616,0 1.93747,0.83424 1.99678,1.88555c1.42963,2.48044 0.11076,5.92105 0.13019,10.01831z" fill="#3a8810" stroke-width="0.5"/><path d="M361.67577,278.25207c1.39549,0.50031 4.28175,1.24975 4.28175,3.3967c0,3.84445 -4.63041,0.91689 -6.07633,0.19131c-1.50893,-0.75719 -3.13853,-1.29736 -4.73311,-1.88147c-1.2294,-0.45034 -3.56475,0.0005 -5.16161,0.16038c-0.1983,0.06586 -0.41039,0.10151 -0.6308,0.10151c-0.17074,0 -0.33649,-0.0214 -0.4947,-0.06165c-0.8653,-0.22017 -1.5053,-1.00452 -1.5053,-1.93835c0,-1.0813 0.85811,-1.96219 1.93049,-1.99881c3.44663,-1.97285 8.80213,0.74419 12.38961,2.03038z" fill="#3a8810" stroke-width="0.5"/><path d="M339.22943,294.09209c0.02074,-1.6067 1.66738,-1.80855 3.47633,-1.34926c2.04899,0.52024 4.30622,1.88871 4.64476,3.02462c1.62489,5.45201 -6.83301,1.37293 -7.89195,-0.74495z" fill="#3a8810" stroke-width="0.5"/><path d="M377.64416,282.94322c0.16451,-0.14101 0.32361,-0.26937 0.47806,-0.38334c0.36455,-0.38525 0.88068,-0.62559 1.45294,-0.62559c1.10457,0 2,0.89543 2,2c0.32996,0.66 -0.02453,0.88643 -0.35221,1.13382c-0.10374,0.15048 -0.22756,0.28604 -0.36759,0.40283c-0.02517,0.06116 -0.0403,0.12885 -0.04203,0.20521c-0.06654,2.9339 -0.31587,8.69156 0.12697,11.90011c0.14574,1.05594 1.40566,4.49431 0.38486,5.51511c-1.44993,1.44993 -3.50154,1.13722 -3.75,-1c-0.59284,-5.0996 -2.60686,-14.80385 0.06052,-18.99544z" fill="#3a8810" stroke-width="0.5"/><path d="M397.7638,293.5842c0.77718,-0.90522 1.62332,-1.52663 2.51775,-1.93233c4.49118,-2.03714 10.20006,1.36438 14.51109,1.58298c2.03353,0.10311 4.39495,-0.30309 6.30014,0.48355c1.80706,0.74613 6.4236,5.03415 4.46396,6.99379c-1.14527,1.14527 -1.94671,0.60774 -2.82843,0c-1.22691,-0.84568 -1.85084,-2.57796 -3.20835,-3.30169c-0.25574,-0.13634 -7.05263,-0.89979 -9.08927,-1.59857c-3.16302,-1.08526 -6.68838,0.07573 -10.03204,0.02622c-0.53347,-0.0079 -2.14115,-0.48364 -2.21753,-1.03102z" fill="#3a8810" stroke-width="0.5"/><path d="M399.70743,306.69393c2.90378,0.02784 12.0872,-0.48878 12.0872,2.25395c0,3.12793 -5.53198,2.0129 -6.57101,2c-5.93544,-0.07369 -9.74848,-0.35277 -14.83394,-2.92469c-0.16563,-0.08376 -0.36396,-0.01034 -0.57868,0.11688c-0.15288,0.13952 -0.3275,0.25563 -0.51817,0.34267c-0.25272,0.11536 -0.53365,0.17964 -0.82959,0.17964c-1.10457,0 -2,-0.89543 -2,-2c0,-0.70934 0.36928,-1.33242 0.92607,-1.68751c2.65365,-2.68413 8.81871,1.68551 12.31813,1.71907z" fill="#3a8810" stroke-width="0.5"/><path d="M63.93185,266.913c0.38344,-0.55836 0.54389,-1.40634 1.07502,-1.77372c0.06878,-0.04757 0.14378,-0.08709 0.22628,-0.11687c1.37269,-0.49554 2.26195,0.64508 3.45593,0.65229c8.72517,0.05266 16.67433,0.92608 25.31441,0.02722c1.65589,-0.17227 7.98712,-1.27778 7.98712,1.64634c0,2.75706 -6.29185,2.23217 -7.98241,2.40805c-8.71531,0.9067 -16.81437,-0.02587 -25.57363,-0.08161c-0.42712,-0.00272 -3.64501,-0.84329 -3.78752,-1.2289z" fill="#5ee10d" stroke-width="0.5"/><path d="M62.03523,299.11295c2.068,1.034 2.05361,3.7902 3.47243,4.61358c2.64064,1.53242 10.4782,1.75932 13.79252,2.69505c0.59431,0.16779 17.25603,1.42213 17.95338,1.47292c1.40425,0.10228 3.86654,-0.48213 3.86654,2c0,3.81811 -10.85292,1.37094 -11.12367,1.34712c-7.12297,-0.6267 -13.98788,-1.62628 -20.86854,-2.98537c-2.38083,-0.47026 -4.83345,-0.09905 -6.78994,-1.87601c-0.94785,-0.86086 -0.69651,-1.78171 -1.22914,-2.74784c-0.48886,-0.88673 -2.91486,-1.33644 -2.85361,-2.22453c-0.12769,-0.26339 -0.19929,-0.55901 -0.19929,-0.87137c0,-1.10457 0.89543,-2 2,-2c0.17603,0 0.34674,0.02274 0.50936,0.06544c0.36738,0.02055 0.81988,0.18596 1.46996,0.511z" fill="#5ee10d" stroke-width="0.5"/><path d="M136.07548,297.92497c0.51147,-0.89508 1.66097,-1.51952 2.86858,-1.80205c2.29833,-0.53771 4.80717,0.16305 3.52882,2.59365c-0.54561,1.0374 -4.86676,1.88702 -5.41246,0.93204z" fill="#5ee10d" stroke-width="0.5"/><path d="M137.84302,307.67662c-2.62864,1.81216 -9.25451,1.44091 -12.28113,1.27991c-1.05321,-0.05602 -2,-0.6496 -2,-2c0,-3.9682 9.39457,-1.56456 11.95256,-2.58776l0.54249,-0.27124c0.27793,-0.14632 0.5945,-0.22914 0.93042,-0.22914c1.10457,0 2,0.89543 2,2c0,1.10457 -0.89543,2 -2,2c-1.10457,0 -2,-0.89543 -2,-2c0,-0.76866 0.43362,-1.43603 1.06958,-1.77086c2.26944,-0.55891 3.87051,2.14212 1.78609,3.57909z" fill="#5ee10d" stroke-width="0.5"/><path d="M162.51727,276.37981c0.42322,-1.01042 1.04424,-1.6104 1.79142,-1.98926c1.28771,-0.65295 2.95014,-0.64911 4.62051,-0.95765c5.22529,-0.96516 17.81041,-1.13361 21.85044,3.83873c1.43692,1.76852 3.76114,6.92182 -0.72197,6.0252c-1.22054,-0.24411 -1.95402,-2.9685 -2.78329,-3.68773c-1.75593,-1.52291 -6.38301,-2.83643 -8.70052,-2.86151c-3.57029,-0.03864 -7.06109,0.36106 -10.62739,0.85174c-0.27871,0.03834 -3.52799,1.1871 -3.99562,0.69914z" fill="#5ee10d" stroke-width="0.5"/><path d="M196.75144,286.985c1.47125,-4.61883 9.40898,1.47099 2.42259,2.72934c-0.18883,0.05909 -0.38969,0.09094 -0.598,0.09094c-1.10457,0 -2,-0.89543 -2,-2c0,-0.29231 0.06271,-0.56997 0.17541,-0.82027z" fill="#5ee10d" stroke-width="0.5"/><path d="M258.79148,276.16218c-0.64631,1.13105 -1.69072,1.6171 -2.91713,1.77779c-2.21064,0.28964 -5.01261,-0.47788 -7.14032,-0.43067c-2.89634,0.06426 -7.70667,3.0644 -9.49433,5.14914c-0.83877,0.97817 -0.13078,3.19341 -1.69065,3.81736c-4.28095,1.71238 -3.09606,-4.37692 -1.4641,-6.30876c4.24294,-5.02263 10.89997,-6.64197 17.20281,-6.65774c0.49835,-0.00125 4.29925,0.54505 4.51879,0.92925z" fill="#5ee10d" stroke-width="0.5"/><path d="M293.64252,288.96088c2.48115,-0.00552 8.89216,-2.07587 8.89216,1.78237c0,1.3199 -0.94679,1.95957 -2,2c-4.49809,0.17267 -8.93182,0.21679 -13.42857,0.32644c-3.7733,0.09201 -3.20204,4.89438 -6.13407,5.54093c-0.19233,0.06915 -0.39831,0.10966 -0.61282,0.11639c-0.02123,0.00067 -0.04254,0.001 -0.06393,0.001c-1.10457,0 -2,-0.89543 -2,-2c0,-0.56541 0.23462,-1.07601 0.61182,-1.43978c2.84355,-5.89778 7.74792,-6.31182 14.73542,-6.32736z" fill="#5ee10d" stroke-width="0.5"/><path d="M288.72485,305.17415c1.03487,0.00872 2.07008,-0.02361 3.10472,0c3.57488,0.08159 8.91207,1.55217 12.21702,2.60075c1.79057,0.5681 6.66006,2.98933 4.94337,5.27825c-1.11406,1.48542 -3.29542,0.413 -4.42879,-0.43867c-3.65559,-2.74698 -11.6569,-3.33792 -16.21364,-3.44033c-0.68911,-0.01549 -3.82564,-0.92918 -3.75936,-1.89033c-0.12769,-0.26339 -0.19929,-0.55902 -0.19929,-0.87137c0,-1.10457 0.89543,-2 2,-2c0.41406,-0.39169 1.87763,0.75784 2.33598,0.7617z" fill="#5ee10d" stroke-width="0.5"/><path d="M318.10155,273.13931c-0.45196,0.79092 -6.5062,2.29911 -6.6232,0.19312c-0.20322,-0.31305 -0.32126,-0.68652 -0.32126,-1.08755c0,-1.10457 0.89543,-2 2,-2c0.362,0 0.70153,0.09617 0.99445,0.26436c2.68579,-0.77148 5.45975,-0.01198 3.95001,2.63006z" fill="#5ee10d" stroke-width="0.5"/><path d="M339.55753,292.91953c0.56813,-0.60864 0.90195,-1.72898 1.64154,-1.96797c0.07751,-0.02505 0.15949,-0.04041 0.24665,-0.04449c1.62771,-0.07621 8.58537,2.70395 7.34135,5.19198c-1.23614,2.47227 -8.85977,-1.21843 -8.9083,-2.09197z" fill="#5ee10d" stroke-width="0.5"/><path d="M347.71858,275.72693c0.53704,-0.93981 1.16189,-1.58318 1.84897,-1.99438c3.58391,-2.1449 8.86069,2.02704 12.19613,3.39343c1.32638,0.54336 3.09175,0.08681 4.18885,0.98588c0.23207,0.19018 0.9945,1.65105 1,1.75c0.17409,3.13361 -5.38867,1.54432 -6.73803,0.95333c-1.99465,-0.8736 -3.4581,-1.73347 -5.1518,-3.0093c-1.12674,-0.84875 -5.66683,0.85629 -6.35919,-0.35533z" fill="#5ee10d" stroke-width="0.5"/><path d="M375.90138,282.69102c0.4769,-0.99183 1.1485,-1.63099 1.89078,-1.99707c2.69389,-1.32858 6.31859,0.93972 4.94487,3.00031c-0.40883,0.61325 -4.98692,1.63069 -5.59649,0.84695z" fill="#5ee10d" stroke-width="0.5"/><path d="M397.33773,291.50495c0.5845,-1.02287 1.35752,-1.62215 2.25837,-1.98346c1.33187,-0.53419 2.94317,-0.54825 4.63781,-0.6421c5.93875,-0.32892 11.62419,0.68246 17.03374,3.0846c1.55346,0.68982 8.23557,2.46243 7.17721,5.63753c-0.59628,1.78885 -1.34164,2.16153 -3.1305,1.56525c-0.89825,-0.29942 -1.12038,-1.87419 -2.02978,-2.25088c-3.96435,-1.64209 -7.97948,-2.28523 -11.8783,-3.84545c-3.30743,-1.32356 -6.69673,-0.00364 -10.0289,0.31442c-0.47609,0.04544 -2.73885,0.39651 -3.05473,-0.15629z" fill="#5ee10d" stroke-width="0.5"/><path d="M385.15057,304.56262c0.53376,-0.93408 1.56792,-1.4871 2.91685,-1.77794c5.0156,-1.08138 14.383,1.46194 18.56084,1.51896c1.78193,0.02432 5.9173,0.26217 5.9173,2.43526c0,3.06513 -3.37273,1.74975 -4.96656,1.67356c-4.91617,-0.23502 -10.16521,-1.83557 -14.98585,-1.84984c-0.90633,-0.00268 -5.78879,0.89413 -6.45765,-0.27637z" fill="#5ee10d" stroke-width="0.5"/></g></g></svg>