<svg version="1.1" xmlns="http://www.w3.org/2000/svg" xmlns:xlink="http://www.w3.org/1999/xlink" width="720" height="870" viewBox="0,0,720,870"><defs><clipPath id="clip-1"><rect x="-240" y="-290" transform="scale(0.5,0.5)" width="1440" height="1740" fill="none" stroke="none" stroke-width="0.5" stroke-linecap="butt" stroke-miterlimit="10"/></clipPath></defs><g transform="translate(120,145)"><g clip-path="url(#clip-1)" data-paper-data="{&quot;isPaintingLayer&quot;:true}" fill-rule="nonzero" stroke-linejoin="miter" stroke-dasharray="" stroke-dashoffset="0" style="mix-blend-mode: normal"><path d="M117.335,229.5h245.33c15.363,0 27.835,12.472 27.835,27.835v65.33c0,15.363 -12.472,27.835 -27.835,27.835h-245.33c-15.363,0 -27.835,-12.472 -27.835,-27.835v-65.33c0,-15.363 12.472,-27.835 27.835,-27.835z" fill="none" stroke="#000000" stroke-width="16" stroke-linecap="square" stroke-miterlimit="2"/><path d="M117.335,229.5h245.33c15.363,0 27.835,12.472 27.835,27.835v65.33c0,15.363 -12.472,27.835 -27.835,27.835h-245.33c-15.363,0 -27.835,-12.472 -27.835,-27.835v-65.33c0,-15.363 12.472,-27.835 27.835,-27.835z" fill="#b9b9b9" stroke="none" stroke-width="1" stroke-linecap="butt" stroke-miterlimit="10"/><path d="M142.728,321.792h-7.128v-63.272h52.8v0c2.93333,0 5.42666,1.04134 7.48,3.124v0v0c2.05334,2.08267 3.08,4.56133 3.08,7.436v0v18.568v0c0,2.87466 -1.02667,5.35333 -3.08,7.436v0v0c-2.05334,2.08267 -4.54666,3.124 -7.48,3.124v0h-45.672zM146.16,290.992v0h42.24v0c0.93866,0 1.74533,-0.32267 2.42,-0.968v0v0c0.67467,-0.64533 1.012,-1.43733 1.012,-2.376v0v-18.568v0c0,-0.93867 -0.33733,-1.74533 -1.012,-2.42v0v0c-0.67467,-0.67467 -1.48134,-1.012 -2.42,-1.012v0h-42.24v0c-0.93866,0 -1.74533,0.33733 -2.42,1.012v0v0c-0.67467,0.67467 -1.012,1.48133 -1.012,2.42v0v18.568v0c0,0.93867 0.33733,1.73066 1.012,2.376v0v0c0.67467,0.64533 1.48134,0.968 2.42,0.968zM224.128,321.792h-8.624v0c-2.93333,0 -5.44134,-1.04133 -7.524,-3.124v0v0c-2.08266,-2.08267 -3.124,-4.59067 -3.124,-7.524v0v-57.112h7.216v57.112v0c0,0.93867 0.33733,1.74534 1.012,2.42v0v0c0.67467,0.67467 1.48134,1.012 2.42,1.012v0h8.624zM282.56,321.792h-41.36v0c-2.93333,0 -5.44134,-1.04133 -7.524,-3.124v0v0c-2.08266,-2.08267 -3.124,-4.59067 -3.124,-7.524v0v-18.48h44.704v-11.264v0c0,-0.93867 -0.33733,-1.74533 -1.012,-2.42v0v0c-0.67467,-0.67467 -1.48134,-1.012 -2.42,-1.012v0h-41.272v-7.216h41.272v0c2.992,0 5.52933,1.04133 7.612,3.124v0v0c2.08267,2.08267 3.124,4.59067 3.124,7.524v0zM241.2,314.576v0h34.056v-14.696h-37.488v11.264v0c0,0.93867 0.33733,1.74534 1.012,2.42v0v0c0.67467,0.67467 1.48134,1.012 2.42,1.012zM332.016,342.032h-31.856v-7.304h31.856v0c0.93867,0 1.74533,-0.33733 2.42,-1.012v0v0c0.67467,-0.67467 1.012,-1.48134 1.012,-2.42v0v-9.504h-34.056v0c-2.93333,0 -5.44133,-1.04133 -7.524,-3.124v0v0c-2.08267,-2.08267 -3.124,-4.59067 -3.124,-7.524v0v-40.216h7.216v40.216v0c0,0.93867 0.33733,1.74534 1.012,2.42v0v0c0.67467,0.67467 1.48134,1.012 2.42,1.012v0h30.624v0c0.93867,0 1.74533,-0.33733 2.42,-1.012v0v0c0.67467,-0.67467 1.012,-1.48134 1.012,-2.42v0v-40.216h7.216v60.368v0c0,2.992 -1.02666,5.52934 -3.08,7.612v0v0c-2.05334,2.08267 -4.576,3.124 -7.568,3.124z" fill="#000000" stroke="none" stroke-width="1" stroke-linecap="butt" stroke-miterlimit="10"/><path d="M89.5,305.045c4.768,6.728 13.758,8.549 21,9.455c5.25,0.281 6.927,0.341 11.5,4c0,0 4.875,6.375 10.5,7.5c5.625,1.125 30.18,-3 47,-3c21.661,0 40.49,1.005 53.5,-5.5c18.551,-9.276 23.637,-2.182 39,5.5c17.665,8.832 38.184,16.5 54.5,16.5c19.117,0 29.868,-10.789 44,-15.5c6.454,-2.151 13.556,-6.382 20,-8.764v7.429c0,15.363 -12.472,27.835 -27.835,27.835h-245.33c-15.363,0 -27.835,-12.472 -27.835,-27.835z" fill="#33c333" stroke="none" stroke-width="1" stroke-linecap="butt" stroke-miterlimit="10"/></g></g></svg>