<svg version="1.1" xmlns="http://www.w3.org/2000/svg" xmlns:xlink="http://www.w3.org/1999/xlink" width="103" height="103" viewBox="0,0,103,103"><g transform="translate(-188.5,-238.5)"><g data-paper-data="{&quot;isPaintingLayer&quot;:true}" fill-rule="nonzero" stroke-linejoin="miter" stroke-dasharray="" stroke-dashoffset="0" style="mix-blend-mode: normal"><path d="M195.598,241.5h88.804c2.262,0 4.098,1.836 4.098,4.098v88.804c0,2.262 -1.836,4.098 -4.098,4.098h-88.804c-2.262,0 -4.098,-1.836 -4.098,-4.098v-88.804c0,-2.262 1.836,-4.098 4.098,-4.098z" fill="#88c188" stroke="none" stroke-width="1" stroke-linecap="butt" stroke-miterlimit="10"/><path d="M195.598,241.5h88.804c2.262,0 4.098,1.836 4.098,4.098v88.804c0,2.262 -1.836,4.098 -4.098,4.098h-88.804c-2.262,0 -4.098,-1.836 -4.098,-4.098v-88.804c0,-2.262 1.836,-4.098 4.098,-4.098z" fill="none" stroke="#4da84d" stroke-width="6" stroke-linecap="square" stroke-miterlimit="2"/><path d="M209.404,287.281c-5.462,-12.209 3.289,-19.155 8,-20.333c2.705,-0.677 5.005,1.888 7.667,1.666c5.739,-0.478 10.324,-4.441 16.333,-5c2.766,-0.257 5.556,0 8.334,0c30.85,3.857 16.151,21.277 24.666,34.334c4.681,7.177 3.337,11.988 0.667,19.666c-7.179,20.639 -34.646,5.507 -42.667,4.334c-4.513,-0.661 -9.127,0.539 -13.666,-0.334c-3.143,-0.604 -4.173,-1.505 -6.334,-3.666c-3.367,-3.367 -3.129,-2.519 -4,-6c-1.765,-7.061 -0.766,-12.977 1,-14c4.709,-6.25 2.125,-5.917 0,-10.667z" fill="#65ea65" stroke="none" stroke-width="1" stroke-linecap="butt" stroke-miterlimit="10"/></g></g></svg>