<svg version="1.1" xmlns="http://www.w3.org/2000/svg" xmlns:xlink="http://www.w3.org/1999/xlink" width="102" height="102" viewBox="0,0,102,102"><g transform="translate(-189,-239)"><g data-paper-data="{&quot;isPaintingLayer&quot;:true}" fill="none" fill-rule="nonzero" stroke="#000000" stroke-linecap="square" stroke-linejoin="miter" stroke-miterlimit="2" stroke-dasharray="" stroke-dashoffset="0" style="mix-blend-mode: normal"><path d="M203.837,250.5h72.326c1.842,0 3.337,1.495 3.337,3.337v72.326c0,1.842 -1.495,3.337 -3.337,3.337h-72.326c-1.842,0 -3.337,-1.495 -3.337,-3.337v-72.326c0,-1.842 1.495,-3.337 3.337,-3.337z" stroke-width="3"/><path d="M195.598,241.5h88.804c2.262,0 4.098,1.836 4.098,4.098v88.804c0,2.262 -1.836,4.098 -4.098,4.098h-88.804c-2.262,0 -4.098,-1.836 -4.098,-4.098v-88.804c0,-2.262 1.836,-4.098 4.098,-4.098z" stroke-width="5"/></g></g></svg>