<svg version="1.1" xmlns="http://www.w3.org/2000/svg" xmlns:xlink="http://www.w3.org/1999/xlink" width="720" height="870" viewBox="0,0,720,870"><defs><clipPath id="clip-1"><rect x="-240" y="-290" transform="scale(0.5,0.5)" width="1440" height="1740" fill="none" fill-rule="nonzero" stroke="none" stroke-width="0.5" stroke-linecap="butt" stroke-miterlimit="10"/></clipPath></defs><g transform="translate(120,145)"><g clip-path="url(#clip-1)" data-paper-data="{&quot;isPaintingLayer&quot;:true}" stroke-linejoin="miter" stroke-dasharray="" stroke-dashoffset="0" style="mix-blend-mode: normal"><path d="M98.417,221h283.166c17.616,0 31.917,14.301 31.917,31.917v74.166c0,17.616 -14.301,31.917 -31.917,31.917h-283.166c-17.616,0 -31.917,-14.301 -31.917,-31.917v-74.166c0,-17.616 14.301,-31.917 31.917,-31.917z" fill="none" fill-rule="nonzero" stroke="#000000" stroke-width="16" stroke-linecap="square" stroke-miterlimit="2"/><path d="M98.417,221h283.166c17.616,0 31.917,14.301 31.917,31.917v74.166c0,17.616 -14.301,31.917 -31.917,31.917h-283.166c-17.616,0 -31.917,-14.301 -31.917,-31.917v-74.166c0,-17.616 14.301,-31.917 31.917,-31.917z" fill="#b9b9b9" fill-rule="nonzero" stroke="none" stroke-width="1" stroke-linecap="butt" stroke-miterlimit="10"/><path d="M132.5,221h-34.083c-17.616,0 -31.917,14.301 -31.917,31.917v28.788c4.571,-3.811 8,-9.146 8,-11.993c0,-3.561 0.187,-6.259 7,-6.712c6.5,-0.641 15,11.146 15,-3c0,-3.648 9.592,-14.408 12.5,-11.5c5.086,5.086 12.5,4.291 12.5,-4zM331.076,221h50.507c17.616,0 31.917,14.301 31.917,31.917v29.583c-8.866,0 -12.844,1.578 -23,-3.5c-4.22,-2.11 -11.333,-3.333 -14.5,-6.5c-1.821,-1.821 -3.057,-6.278 -6.5,-8c-6.955,-3.477 -12.639,-2.023 -17,-9c-3.257,-5.21 -5.116,-5.244 -11.5,-9.5c-1.436,-0.718 -4.119,-0.944 -4.5,-3.5c-0.929,-6.238 -7.477,-16.096 -5.424,-21.5z" fill="#33c333" fill-rule="evenodd" stroke="none" stroke-width="1" stroke-linecap="butt" stroke-miterlimit="10"/><path d="M116.996,345.172h-36.792v-40.32h36.792v4.536h-32.256v13.328h25.928v4.592h-25.928v13.328h32.256zM155.804,345.172h-26.32v0c-1.86666,0 -3.46267,-0.66267 -4.788,-1.988v0v0c-1.32533,-1.32533 -1.988,-2.92133 -1.988,-4.788v0v-18.928v0c0,-1.86667 0.66267,-3.46267 1.988,-4.788v0v0c1.32533,-1.32533 2.92134,-1.988 4.788,-1.988v0h26.208v4.592h-26.208v0c-0.59733,0 -1.11067,0.21467 -1.54,0.644v0v0c-0.42933,0.42933 -0.644,0.94267 -0.644,1.54v0v18.928v0c0,0.59733 0.21467,1.11066 0.644,1.54v0v0c0.42933,0.42933 0.94267,0.644 1.54,0.644v0h26.32zM187.892,345.172h-19.488v0c-1.86667,0 -3.46266,-0.66267 -4.788,-1.988v0v0c-1.32533,-1.32533 -1.988,-2.92133 -1.988,-4.788v0v-18.928v0c0,-1.86667 0.66267,-3.46267 1.988,-4.788v0v0c1.32533,-1.32533 2.92133,-1.988 4.788,-1.988v0h19.488v0c1.904,0 3.51866,0.66267 4.844,1.988v0v0c1.32533,1.32533 1.988,2.92133 1.988,4.788v0v18.928v0c0,1.86667 -0.66267,3.46267 -1.988,4.788v0v0c-1.32533,1.32533 -2.94,1.988 -4.844,1.988zM168.404,340.58v0h19.488v0c0.59733,0 1.11066,-0.21467 1.54,-0.644v0v0c0.42934,-0.42933 0.644,-0.94266 0.644,-1.54v0v-18.928v0c0,-0.59733 -0.21466,-1.11067 -0.644,-1.54v0v0c-0.42934,-0.42933 -0.94267,-0.644 -1.54,-0.644v0h-19.488v0c-0.59733,0 -1.11066,0.21467 -1.54,0.644v0v0c-0.42934,0.42933 -0.644,0.94267 -0.644,1.54v0v18.928v0c0,0.59733 0.21466,1.11066 0.644,1.54v0v0c0.42934,0.42933 0.94267,0.644 1.54,0.644zM204.3,345.172h-4.592v-32.48h26.32v0c1.86667,0 3.46267,0.66267 4.788,1.988v0v0c1.32533,1.32533 1.988,2.92133 1.988,4.788v0v25.704h-4.592v-25.704v0c0,-0.59733 -0.21466,-1.11067 -0.644,-1.54v0v0c-0.42934,-0.42933 -0.94267,-0.644 -1.54,-0.644v0h-19.488v0c-0.59733,0 -1.12,0.21467 -1.568,0.644v0v0c-0.448,0.42933 -0.672,0.94267 -0.672,1.54v0zM270.492,345.172h-26.32v0c-1.86667,0 -3.46267,-0.66267 -4.788,-1.988v0v0c-1.32533,-1.32533 -1.988,-2.92133 -1.988,-4.788v0v-18.928v0c0,-1.86667 0.66267,-3.46267 1.988,-4.788v0v0c1.32533,-1.32533 2.92133,-1.988 4.788,-1.988v0h26.208v4.592h-26.208v0c-0.59733,0 -1.11066,0.21467 -1.54,0.644v0v0c-0.42934,0.42933 -0.644,0.94267 -0.644,1.54v0v18.928v0c0,0.59733 0.21466,1.11066 0.644,1.54v0v0c0.42934,0.42933 0.94267,0.644 1.54,0.644v0h26.32zM280.964,345.172h-4.592v-25.704v0c0,-1.86667 0.66267,-3.46267 1.988,-4.788v0v0c1.32533,-1.32533 2.92133,-1.988 4.788,-1.988v0h18.256v4.592h-18.256v0c-0.59733,0 -1.11067,0.21467 -1.54,0.644v0v0c-0.42933,0.42933 -0.644,0.94267 -0.644,1.54v0zM338.084,345.172h-26.32v0c-1.86667,0 -3.46267,-0.66267 -4.788,-1.988v0v0c-1.32533,-1.32533 -1.988,-2.92133 -1.988,-4.788v0v-18.928v0c0,-1.86667 0.66267,-3.46267 1.988,-4.788v0v0c1.32533,-1.32533 2.92133,-1.988 4.788,-1.988v0h19.488v0c1.904,0 3.51866,0.66267 4.844,1.988v0v0c1.32533,1.32533 1.988,2.92133 1.988,4.788v0v11.76h-28.504v7.168v0c0,0.59733 0.21467,1.11066 0.644,1.54v0v0c0.42933,0.42933 0.94267,0.644 1.54,0.644v0h26.32zM309.58,319.468v7.168h23.856v-7.168v0c0,-0.59733 -0.21467,-1.11067 -0.644,-1.54v0v0c-0.42933,-0.42933 -0.94266,-0.644 -1.54,-0.644v0h-19.488v0c-0.59733,0 -1.11067,0.21467 -1.54,0.644v0v0c-0.42933,0.42933 -0.644,0.94267 -0.644,1.54zM362.5,345.172h-11.872v0c-1.904,0 -3.50933,-0.66267 -4.816,-1.988v0v0c-1.30667,-1.32533 -1.96,-2.92133 -1.96,-4.788v0v-36.344h4.592v10.64h14.056v4.592h-14.056v21.112v0c0,0.59733 0.21467,1.11066 0.644,1.54v0v0c0.42933,0.42933 0.94266,0.644 1.54,0.644v0h11.872zM399.796,345.172h-26.32v0c-1.86667,0 -3.46267,-0.66267 -4.788,-1.988v0v0c-1.32533,-1.32533 -1.988,-2.92133 -1.988,-4.788v0v-18.928v0c0,-1.86667 0.66267,-3.46267 1.988,-4.788v0v0c1.32533,-1.32533 2.92133,-1.988 4.788,-1.988v0h19.488v0c1.904,0 3.51866,0.66267 4.844,1.988v0v0c1.32533,1.32533 1.988,2.92133 1.988,4.788v0v11.76h-28.504v7.168v0c0,0.59733 0.21467,1.11066 0.644,1.54v0v0c0.42933,0.42933 0.94267,0.644 1.54,0.644v0h26.32zM371.292,319.468v7.168h23.856v-7.168v0c0,-0.59733 -0.21467,-1.11067 -0.644,-1.54v0v0c-0.42933,-0.42933 -0.94267,-0.644 -1.54,-0.644v0h-19.488v0c-0.59733,0 -1.11067,0.21467 -1.54,0.644v0v0c-0.42933,0.42933 -0.644,0.94267 -0.644,1.54zM149.028,274.948h-4.536v-33.6v0c0,-1.86667 0.65333,-3.45334 1.96,-4.76v0v0c1.30667,-1.30667 2.89333,-1.96 4.76,-1.96v0h26.88v0c1.86667,0 3.45333,0.65333 4.76,1.96v0v0c1.30667,1.30667 1.96,2.89334 1.96,4.76v0v33.6h-4.536v-14.728h-31.248zM149.028,241.348v14.336h31.248v-14.336v0c0,-0.59733 -0.21466,-1.11067 -0.644,-1.54v0v0c-0.42934,-0.42934 -0.94267,-0.644 -1.54,-0.644v0h-26.88v0c-0.59733,0 -1.11066,0.21466 -1.54,0.644v0v0c-0.42934,0.42934 -0.644,0.94267 -0.644,1.54zM217.404,274.948h-26.32v-43.12h4.592v10.64h21.728v0c1.86667,0 3.46267,0.66267 4.788,1.988v0v0c1.32533,1.32533 1.988,2.92133 1.988,4.788v0v18.928v0c0,1.86667 -0.66267,3.46266 -1.988,4.788v0v0c-1.32533,1.32533 -2.92133,1.988 -4.788,1.988zM197.916,270.356v0h19.488v0c0.59733,0 1.11066,-0.21467 1.54,-0.644v0v0c0.42934,-0.42933 0.644,-0.94266 0.644,-1.54v0v-18.928v0c0,-0.59733 -0.21466,-1.11066 -0.644,-1.54v0v0c-0.42934,-0.42934 -0.94267,-0.644 -1.54,-0.644v0h-19.488v0c-0.59733,0 -1.12,0.21466 -1.568,0.644v0v0c-0.448,0.42934 -0.672,0.94267 -0.672,1.54v0v18.928v0c0,0.59733 0.224,1.11066 0.672,1.54v0v0c0.448,0.42933 0.97066,0.644 1.568,0.644zM254.532,274.948h-19.488v0c-1.86667,0 -3.46267,-0.66267 -4.788,-1.988v0v0c-1.32533,-1.32533 -1.988,-2.92133 -1.988,-4.788v0v-18.928v0c0,-1.86667 0.66267,-3.46267 1.988,-4.788v0v0c1.32533,-1.32533 2.92133,-1.988 4.788,-1.988v0h19.488v0c1.904,0 3.51866,0.66267 4.844,1.988v0v0c1.32533,1.32533 1.988,2.92133 1.988,4.788v0v18.928v0c0,1.86667 -0.66267,3.46266 -1.988,4.788v0v0c-1.32533,1.32533 -2.94,1.988 -4.844,1.988zM235.044,270.356v0h19.488v0c0.59733,0 1.11066,-0.21467 1.54,-0.644v0v0c0.42933,-0.42933 0.644,-0.94266 0.644,-1.54v0v-18.928v0c0,-0.59733 -0.21467,-1.11066 -0.644,-1.54v0v0c-0.42934,-0.42934 -0.94267,-0.644 -1.54,-0.644v0h-19.488v0c-0.59733,0 -1.11067,0.21466 -1.54,0.644v0v0c-0.42934,0.42934 -0.644,0.94267 -0.644,1.54v0v18.928v0c0,0.59733 0.21466,1.11066 0.644,1.54v0v0c0.42934,0.42933 0.94267,0.644 1.54,0.644zM292.108,274.948h-19.488v0c-1.86667,0 -3.46267,-0.66267 -4.788,-1.988v0v0c-1.32533,-1.32533 -1.988,-2.92133 -1.988,-4.788v0v-25.704h4.592v25.704v0c0,0.59733 0.21467,1.11066 0.644,1.54v0v0c0.42933,0.42933 0.94267,0.644 1.54,0.644v0h19.488v0c0.59733,0 1.12,-0.21467 1.568,-0.644v0v0c0.448,-0.42933 0.672,-0.94266 0.672,-1.54v0v-25.704h4.592v25.704v0c0,1.86667 -0.66267,3.46266 -1.988,4.788v0v0c-1.32533,1.32533 -2.94,1.988 -4.844,1.988zM322.572,274.948h-11.872v0c-1.904,0 -3.50933,-0.66267 -4.816,-1.988v0v0c-1.30667,-1.32533 -1.96,-2.92133 -1.96,-4.788v0v-36.344h4.592v10.64h14.056v4.592h-14.056v21.112v0c0,0.59733 0.21467,1.11066 0.644,1.54v0v0c0.42933,0.42933 0.94266,0.644 1.54,0.644v0h11.872z" fill="#000000" fill-rule="nonzero" stroke="none" stroke-width="1" stroke-linecap="butt" stroke-miterlimit="10"/></g></g></svg>