<svg version="1.1" xmlns="http://www.w3.org/2000/svg" xmlns:xlink="http://www.w3.org/1999/xlink" width="720" height="870" viewBox="0,0,720,870"><defs><clipPath id="clip-1"><rect x="-240" y="-290" transform="scale(0.5,0.5)" width="1440" height="1740" fill="none" stroke="none" stroke-width="0.5"/></clipPath><clipPath id="clip-2"><path d="M-120,725v-870h720v870z" fill="none" stroke="none" stroke-width="1"/></clipPath></defs><g transform="translate(120,145)"><g clip-path="url(#clip-2)" data-paper-data="{&quot;isPaintingLayer&quot;:true}" fill-rule="nonzero" stroke-linecap="butt" stroke-linejoin="miter" stroke-miterlimit="10" stroke-dasharray="" stroke-dashoffset="0" style="mix-blend-mode: normal"><path d="M342.1153,316.56041h-3.96246v-21.45092h19.75272v3.96246h-15.79026v4.76687h12.69179v3.99226h-12.69179v8.72933zM372.98078,316.56041h-9.32519v0c-1.13213,0 -2.1004,-0.4022 -2.90481,-1.20661v0v0c-0.80441,-0.80441 -1.20661,-1.77268 -1.20661,-2.90481v0v-13.16848h3.90287v12.33427v0c0,0.55613 0.03476,0.86896 0.10427,0.93848v0v0c0.06952,0.06952 0.38234,0.10428 0.93848,0.10428v0h7.65678v0c0.55613,0 0.86897,-0.03476 0.93848,-0.10428v0v0c0.06952,-0.06952 0.10427,-0.38234 0.10427,-0.93848v0v-12.33427h3.90287v13.16848v0c0,1.13213 -0.4022,2.1004 -1.20661,2.90481v0v0c-0.80441,0.80441 -1.77268,1.20661 -2.90481,1.20661v0zM390.23089,316.56041h-6.52465v0c-1.13213,0 -2.1004,-0.4022 -2.90481,-1.20661v0v0c-0.80441,-0.80441 -1.20661,-1.77268 -1.20661,-2.90481v0v-18.47163h3.90287v5.30315h6.7332v3.90287h-6.7332v8.4314v0c0,0.55613 0.03476,0.86896 0.10428,0.93848v0v0c0.06952,0.06952 0.38234,0.10428 0.93848,0.10428v0h5.69045v3.90287zM406.08074,316.56041h-9.32519v0c-1.13213,0 -2.1004,-0.4022 -2.90481,-1.20661v0v0c-0.80441,-0.80441 -1.20661,-1.77268 -1.20661,-2.90481v0v-13.16848h3.90287v12.33427v0c0,0.55613 0.03476,0.86896 0.10428,0.93848v0v0c0.06952,0.06952 0.38234,0.10428 0.93847,0.10428v0h7.65679v0c0.55613,0 0.86896,-0.03476 0.93848,-0.10428v0v0c0.06952,-0.06952 0.10428,-0.38234 0.10428,-0.93848v0v-12.33427h3.90287v13.16848v0c0,1.13213 -0.4022,2.1004 -1.20661,2.90481v0v0c-0.80441,0.80441 -1.77268,1.20661 -2.90481,1.20661v0zM417.22329,316.56041h-3.90287v-13.16848v0c0,-1.13213 0.4022,-2.1004 1.20661,-2.90481v0v0c0.80441,-0.80441 1.77268,-1.20661 2.90481,-1.20661v0h9.59333v3.90287h-8.75912v0c-0.55613,0 -0.86897,0.03476 -0.93848,0.10427v0v0c-0.06952,0.06952 -0.10427,0.38235 -0.10427,0.93848v0v12.33427zM446.59913,316.56041h-13.43662v0c-1.13213,0 -2.1004,-0.4022 -2.90481,-1.20661v0v0c-0.80441,-0.80441 -1.20661,-1.77268 -1.20661,-2.90481v0v-9.05705v0c0,-1.13213 0.4022,-2.1004 1.20661,-2.90481v0v0c0.80441,-0.80441 1.77268,-1.20661 2.90481,-1.20661v0h9.32519v0c1.13213,0 2.1004,0.4022 2.90481,1.20661v0v0c0.80441,0.80441 1.20661,1.77268 1.20661,2.90481v0v6.49486h-13.64517v1.72799v0c0,0.55613 0.03476,0.86896 0.10428,0.93848v0v0c0.06952,0.06952 0.38234,0.10428 0.93847,0.10428v0h12.60242v3.90287zM432.95397,304.22613v2.14509h9.74229v-2.14509v0c0,-0.55613 -0.03476,-0.86897 -0.10428,-0.93848v0v0c-0.06952,-0.06952 -0.38234,-0.10427 -0.93848,-0.10427v0h-7.65679v0c-0.55613,0 -0.86896,0.03476 -0.93847,0.10427v0v0c-0.06952,0.06952 -0.10428,0.38235 -0.10428,0.93848v0zM462.80649,316.56041h-9.32519v0c-1.13213,0 -2.1004,-0.4022 -2.90481,-1.20661v0v0c-0.80441,-0.80441 -1.20661,-1.77268 -1.20661,-2.90481v0v-0.65544h3.90287v0.17875v0c0,0.31779 0.03476,0.51145 0.10428,0.58096v0v0c0.06952,0.06952 0.26317,0.10428 0.58096,0.10428v0h8.37181v0c0.31779,0 0.51144,-0.03476 0.58096,-0.10428v0v0c0.06952,-0.06952 0.10428,-0.26317 0.10428,-0.58096v0v-1.40026v0c0,-0.31779 -0.03476,-0.51145 -0.10428,-0.58096v0v0c-0.06952,-0.06952 -0.26317,-0.10428 -0.58096,-0.10428v0h-8.8485v0c-1.13213,0 -2.1004,-0.40717 -2.90481,-1.22151v0v0c-0.80441,-0.81434 -1.20661,-1.77765 -1.20661,-2.88992v0v-2.38343v0c0,-1.13213 0.4022,-2.1004 1.20661,-2.90481v0v0c0.80441,-0.80441 1.77268,-1.20661 2.90481,-1.20661v0h9.32519v0c1.13213,0 2.10537,0.4022 2.91971,1.20661v0v0c0.81434,0.80441 1.22151,1.77268 1.22151,2.90481v0v0.65544h-3.93267v-0.17876v0c0,-0.31779 -0.03476,-0.51145 -0.10428,-0.58096v0v0c-0.06952,-0.06952 -0.26317,-0.10427 -0.58096,-0.10427v0h-8.37181v0c-0.31779,0 -0.51145,0.03476 -0.58096,0.10427v0v0c-0.06952,0.06952 -0.10428,0.26317 -0.10428,0.58096v0v1.40027v0c0,0.31779 0.03476,0.51145 0.10428,0.58096v0v0c0.06952,0.06952 0.26317,0.10427 0.58096,0.10427v0h8.8485v0c1.13213,0 2.10537,0.40717 2.91971,1.22151v0v0c0.81434,0.81434 1.22151,1.77765 1.22151,2.88991v0v2.38344v0c0,1.13213 -0.40717,2.1004 -1.22151,2.90481v0v0c-0.81434,0.80441 -1.78758,1.20661 -2.91971,1.20661v0zM170.23984,316.56041h-13.16848v0c-1.13213,0 -2.10537,-0.40717 -2.91971,-1.22151v0v0c-0.81434,-0.81434 -1.22151,-1.78758 -1.22151,-2.91971v0v-1.63861h3.93267v0.77461v0c0,0.55613 0.03476,0.86897 0.10428,0.93848v0v0c0.06951,0.06952 0.38234,0.10427 0.93848,0.10427v0h11.47028v0c0.55614,0 0.86897,-0.03476 0.93848,-0.10427v0v0c0.06951,-0.06952 0.10428,-0.38235 0.10428,-0.93848v0v-2.71115v0c0,-0.55613 -0.03476,-0.864 -0.10428,-0.92359v0v0c-0.06951,-0.05959 -0.38234,-0.08938 -0.93848,-0.08938v0h-12.30448v0c-1.13213,0 -2.10537,-0.41213 -2.91971,-1.23641v0v0c-0.81434,-0.82428 -1.22151,-1.80248 -1.22151,-2.93461v0v-4.40936v0c0,-1.13213 0.40717,-2.10536 1.22151,-2.9197v0v0c0.81434,-0.81434 1.78758,-1.22151 2.91971,-1.22151v0h13.16848v0c1.13213,0 2.10537,0.40717 2.91971,1.22151v0v0c0.81434,0.81434 1.22151,1.78757 1.22151,2.9197v0v1.63862h-3.96246v-0.77462v0c0,-0.55613 -0.03476,-0.86896 -0.10428,-0.93848v0v0c-0.06951,-0.06952 -0.38234,-0.10427 -0.93848,-0.10427v0h-11.47028v0c-0.55614,0 -0.86897,0.03476 -0.93848,0.10427v0v0c-0.06951,0.06952 -0.10428,0.38234 -0.10428,0.93848v0v2.71116v0c0,0.55613 0.03476,0.86399 0.10428,0.92358v0v0c0.06951,0.05959 0.38234,0.08938 0.93848,0.08938v0h12.33427v0c1.13213,0 2.10537,0.41213 2.91971,1.2364v0v0c0.81434,0.82428 1.22151,1.80248 1.22151,2.93461v0v4.40936v0c0,1.13213 -0.40717,2.10537 -1.22151,2.91971v0v0c-0.81434,0.81434 -1.78758,1.22151 -2.91971,1.22151v0zM190.97572,316.56041h-9.32519v0c-1.13213,0 -2.1004,-0.4022 -2.90481,-1.20661v0v0c-0.80441,-0.80441 -1.20661,-1.77268 -1.20661,-2.90481v0v-13.16848h3.90287v12.33427v0c0,0.55613 0.03476,0.86896 0.10428,0.93848v0v0c0.06951,0.06952 0.38234,0.10428 0.93848,0.10428v0h7.65679v0c0.55614,0 0.86896,-0.03476 0.93847,-0.10428v0v0c0.06951,-0.06952 0.10428,-0.38234 0.10428,-0.93848v0v-12.33427h3.90287v13.16848v0c0,1.13213 -0.40221,2.1004 -1.20661,2.90481v0v0c-0.80441,0.80441 -1.77268,1.20661 -2.90481,1.20661v0zM210.9072,316.56041h-9.32519v0c-1.13213,0 -2.1004,-0.4022 -2.90481,-1.20661v0v0c-0.80441,-0.80441 -1.20661,-1.77268 -1.20661,-2.90481v0v-0.65544h3.90287v0.17875v0c0,0.31779 0.03476,0.51145 0.10428,0.58096v0v0c0.06951,0.06952 0.26317,0.10428 0.58096,0.10428v0h8.37181v0c0.31779,0 0.51145,-0.03476 0.58096,-0.10428v0v0c0.06951,-0.06952 0.10428,-0.26317 0.10428,-0.58096v0v-1.40026v0c0,-0.31779 -0.03476,-0.51145 -0.10428,-0.58096v0v0c-0.06951,-0.06952 -0.26317,-0.10428 -0.58096,-0.10428v0h-8.8485v0c-1.13213,0 -2.1004,-0.40717 -2.90481,-1.22151v0v0c-0.80441,-0.81434 -1.20661,-1.77765 -1.20661,-2.88992v0v-2.38343v0c0,-1.13213 0.40221,-2.1004 1.20661,-2.90481v0v0c0.80441,-0.80441 1.77268,-1.20661 2.90481,-1.20661v0h9.32519v0c1.13213,0 2.10537,0.4022 2.91971,1.20661v0v0c0.81434,0.80441 1.22151,1.77268 1.22151,2.90481v0v0.65544h-3.93267v-0.17876v0c0,-0.31779 -0.03476,-0.51145 -0.10428,-0.58096v0v0c-0.06951,-0.06952 -0.26317,-0.10427 -0.58096,-0.10427v0h-8.37181v0c-0.31779,0 -0.51145,0.03476 -0.58096,0.10427v0v0c-0.06951,0.06952 -0.10428,0.26317 -0.10428,0.58096v0v1.40027v0c0,0.31779 0.03476,0.51145 0.10428,0.58096v0v0c0.06951,0.06952 0.26317,0.10427 0.58096,0.10427v0h8.8485v0c1.13213,0 2.10537,0.40717 2.91971,1.22151v0v0c0.81434,0.81434 1.22151,1.77765 1.22151,2.88991v0v2.38344v0c0,1.13213 -0.40717,2.1004 -1.22151,2.90481v0v0c-0.81434,0.80441 -1.78758,1.20661 -2.91971,1.20661v0zM228.69358,316.56041h-6.52465v0c-1.13213,0 -2.1004,-0.4022 -2.90481,-1.20661v0v0c-0.80441,-0.80441 -1.20661,-1.77268 -1.20661,-2.90481v0v-18.47163h3.90287v5.30315h6.7332v3.90287h-6.7332v8.4314v0c0,0.55613 0.03476,0.86896 0.10428,0.93848v0v0c0.06951,0.06952 0.38234,0.10428 0.93848,0.10428v0h5.69045v3.90287zM249.25071,316.56041h-13.43662v0c-1.13213,0 -2.1004,-0.4022 -2.90481,-1.20661v0v0c-0.80441,-0.80441 -1.20661,-1.77268 -1.20661,-2.90481v0v-6.49486h13.64516v-1.72799v0c0,-0.55613 -0.03476,-0.86897 -0.10428,-0.93848v0v0c-0.06951,-0.06952 -0.38234,-0.10427 -0.93847,-0.10427v0h-12.60242v-3.90287h13.43662v0c1.13213,0 2.1004,0.4022 2.90481,1.20661v0v0c0.80441,0.80441 1.20661,1.77268 1.20661,2.90481v0v13.16848zM236.6483,312.65753v0h8.69953v-3.18784h-9.74229v2.14509v0c0,0.55613 0.03476,0.86896 0.10428,0.93848v0v0c0.06951,0.06952 0.38234,0.10428 0.93848,0.10428zM256.28184,316.56041h-3.90287v-17.2799h3.90287v17.2799zM256.28184,297.55251h-3.90287v-3.93267h3.90287v3.93267zM276.24311,316.56041h-13.43662v0c-1.13213,0 -2.1004,-0.4022 -2.90481,-1.20661v0v0c-0.80441,-0.80441 -1.20661,-1.77268 -1.20661,-2.90481v0v-6.49486h13.64517v-1.72799v0c0,-0.55613 -0.03476,-0.86897 -0.10428,-0.93848v0v0c-0.06952,-0.06952 -0.38234,-0.10427 -0.93848,-0.10427v0h-12.60241v-3.90287h13.43662v0c1.13213,0 2.1004,0.4022 2.90481,1.20661v0v0c0.80441,0.80441 1.20661,1.77268 1.20661,2.90481v0v13.16848zM263.6407,312.65753v0h8.69954v-3.18784h-9.74229v2.14509v0c0,0.55613 0.03476,0.86896 0.10428,0.93848v0v0c0.06952,0.06952 0.38234,0.10428 0.93847,0.10428zM292.03337,316.56041h-13.43662v-22.94056h3.90287v5.66066h9.53374v0c1.13213,0 2.1004,0.4022 2.90481,1.20661v0v0c0.80441,0.80441 1.20661,1.77268 1.20661,2.90481v0v9.05705v0c0,1.13213 -0.4022,2.1004 -1.20661,2.90481v0v0c-0.80441,0.80441 -1.77268,1.20661 -2.90481,1.20661v0zM283.54238,312.65753v0h7.65679v0c0.55613,0 0.86896,-0.03476 0.93847,-0.10428v0v0c0.06952,-0.06952 0.10428,-0.38234 0.10428,-0.93848v0v-7.38864v0c0,-0.55613 -0.03476,-0.86897 -0.10428,-0.93848v0v0c-0.06952,-0.06952 -0.38234,-0.10427 -0.93847,-0.10427v0h-7.65679v0c-0.55613,0 -0.86896,0.03476 -0.93848,0.10427v0v0c-0.06952,0.06952 -0.10428,0.38235 -0.10428,0.93848v0v7.38864v0c0,0.55613 0.03476,0.86896 0.10428,0.93848v0v0c0.06952,0.06952 0.38234,0.10428 0.93848,0.10428zM306.00626,316.56041h-3.48577v0c-1.13213,0 -2.1004,-0.4022 -2.90481,-1.20661v0v0c-0.80441,-0.80441 -1.20661,-1.77268 -1.20661,-2.90481v0v-18.85893h3.93267v18.02472v0c0,0.55613 0.03476,0.86896 0.10428,0.93848v0v0c0.06952,0.06952 0.37241,0.10428 0.90868,0.10428v0h2.65157v3.90287zM325.69939,316.56041h-13.43662v0c-1.13213,0 -2.1004,-0.4022 -2.90481,-1.20661v0v0c-0.80441,-0.80441 -1.20661,-1.77268 -1.20661,-2.90481v0v-9.05705v0c0,-1.13213 0.4022,-2.1004 1.20661,-2.90481v0v0c0.80441,-0.80441 1.77268,-1.20661 2.90481,-1.20661v0h9.32519v0c1.13213,0 2.1004,0.4022 2.90481,1.20661v0v0c0.80441,0.80441 1.20661,1.77268 1.20661,2.90481v0v6.49486h-13.64517v1.72799v0c0,0.55613 0.03476,0.86896 0.10428,0.93848v0v0c0.06952,0.06952 0.38234,0.10428 0.93848,0.10428v0h12.60241v3.90287zM312.05422,304.22613v2.14509h9.74229v-2.14509v0c0,-0.55613 -0.03476,-0.86897 -0.10428,-0.93848v0v0c-0.06952,-0.06952 -0.38234,-0.10427 -0.93847,-0.10427v0h-7.65679v0c-0.55613,0 -0.86896,0.03476 -0.93848,0.10427v0v0c-0.06952,0.06952 -0.10428,0.38235 -0.10428,0.93848v0zM30.3322,316.56041h-17.2799v-21.45092h16.4457v0c1.13213,0 2.10537,0.40717 2.91971,1.22151v0v0c0.81434,0.81434 1.22151,1.78757 1.22151,2.9197v0v4.20081v0c0,0.25821 -0.01986,0.50648 -0.05958,0.74482v0v0c-0.03972,0.23834 -0.10925,0.46676 -0.20855,0.68524v0v0c0.33765,0.45682 0.61075,0.93351 0.81931,1.43006v0v0c0.20855,0.49655 0.31283,0.99309 0.31283,1.48964v0v4.61791v0c0,1.13213 -0.40717,2.10537 -1.22151,2.91971v0v0c-0.81434,0.81434 -1.79751,1.22151 -2.9495,1.22151v0zM18.02772,312.59795v0h11.47028v0c0.53627,0 0.84413,-0.03476 0.92358,-0.10427v0v0c0.07945,-0.06952 0.11917,-0.38235 0.11917,-0.93848v0v-2.88991v0c0,-0.55613 -0.03972,-0.86896 -0.11917,-0.93847v0v0c-0.07945,-0.06952 -0.38731,-0.10428 -0.92358,-0.10428v0h-11.47028v0c-0.55614,0 -0.86896,0.03476 -0.93848,0.10428v0v0c-0.06951,0.06952 -0.10428,0.38234 -0.10428,0.93847v0v2.88991v0c0,0.55613 0.03476,0.86897 0.10428,0.93848v0v0c0.06951,0.06952 0.38234,0.10427 0.93848,0.10427zM18.02772,303.66006v0h10.60629v0c0.55614,0 0.864,-0.03476 0.92358,-0.10427v0v0c0.05958,-0.06952 0.08938,-0.38234 0.08938,-0.93848v0v-2.50261v0c0,-0.55613 -0.02979,-0.86896 -0.08938,-0.93848v0v0c-0.05958,-0.06952 -0.36745,-0.10427 -0.92358,-0.10427v0h-10.60628v0c-0.55614,0 -0.86896,0.03476 -0.93848,0.10427v0v0c-0.06951,0.06952 -0.10428,0.38234 -0.10428,0.93848v0v2.50261v0c0,0.55613 0.03476,0.86896 0.10428,0.93848v0v0c0.06951,0.06952 0.38234,0.10427 0.93848,0.10427zM51.09788,316.56041h-9.32519v0c-1.13213,0 -2.1004,-0.4022 -2.90481,-1.20661v0v0c-0.80441,-0.80441 -1.20661,-1.77268 -1.20661,-2.90481v0v-13.16848h3.90288v12.33427v0c0,0.55613 0.03476,0.86896 0.10428,0.93848v0v0c0.06952,0.06952 0.38235,0.10428 0.93848,0.10428v0h7.65678v0c0.55613,0 0.86896,-0.03476 0.93848,-0.10428v0v0c0.06952,-0.06952 0.10427,-0.38234 0.10427,-0.93848v0v-12.33427h3.90288v13.16848v0c0,1.13213 -0.4022,2.1004 -1.20661,2.90481v0v0c-0.80441,0.80441 -1.77268,1.20661 -2.90481,1.20661v0zM62.24044,316.56041h-3.90287v-17.2799h3.90287v17.2799zM62.24044,297.55251h-3.90287v-3.93267h3.90287v3.93267zM73.17445,316.56041h-3.48578v0c-1.13213,0 -2.1004,-0.4022 -2.90481,-1.20661v0v0c-0.80441,-0.80441 -1.20661,-1.77268 -1.20661,-2.90481v0v-18.85893h3.93267v18.02472v0c0,0.55613 0.03476,0.86896 0.10428,0.93848v0v0c0.06951,0.06952 0.37241,0.10428 0.90868,0.10428v0h2.65158v3.90287zM92.65903,316.56041h-13.46641v0c-1.13213,0 -2.1004,-0.4022 -2.90481,-1.20661v0v0c-0.80441,-0.80441 -1.20661,-1.77268 -1.20661,-2.90481v0v-9.05705v0c0,-1.13213 0.4022,-2.1004 1.20661,-2.90481v0v0c0.80441,-0.80441 1.77268,-1.20661 2.90481,-1.20661v0h9.56354v-5.66066h3.90287v22.94056zM80.05661,312.65753v0h7.65678v0c0.55613,0 0.86897,-0.03476 0.93848,-0.10428v0v0c0.06951,-0.06952 0.10428,-0.38234 0.10428,-0.93848v0v-7.38864v0c0,-0.55613 -0.03476,-0.86897 -0.10428,-0.93848v0v0c-0.06951,-0.06952 -0.38235,-0.10427 -0.93848,-0.10427v0h-7.65678v0c-0.55613,0 -0.86896,0.03476 -0.93848,0.10427v0v0c-0.06951,0.06952 -0.10428,0.38235 -0.10428,0.93848v0v7.38864v0c0,0.55613 0.03476,0.86896 0.10428,0.93848v0v0c0.06951,0.06952 0.38234,0.10428 0.93848,0.10428zM99.71995,316.56041h-3.90287v-17.2799h3.90287v17.2799zM99.71995,297.55251h-3.90287v-3.93267h3.90287v3.93267zM107.07881,316.56041h-3.90288v-17.2799h13.43662v0c1.13213,0 2.1004,0.4022 2.90481,1.20661v0v0c0.80441,0.80441 1.20661,1.77268 1.20661,2.90481v0v13.16848h-3.90287v-12.33427v0c0,-0.55613 -0.03476,-0.86897 -0.10428,-0.93848v0v0c-0.06951,-0.06952 -0.38235,-0.10427 -0.93848,-0.10427v0h-7.65678v0c-0.55613,0 -0.86897,0.03476 -0.93848,0.10427v0v0c-0.06951,0.06952 -0.10428,0.38235 -0.10428,0.93848v0v12.33427zM136.78237,323.38299h-10.57649v-3.93267h9.74229v0c0.53627,0 0.83917,-0.03476 0.90869,-0.10427v0v0c0.06951,-0.06952 0.10428,-0.38235 0.10428,-0.93848v0v-1.84716h-9.53374v0c-1.13213,0 -2.1004,-0.4022 -2.90481,-1.20661v0v0c-0.80441,-0.80441 -1.20661,-1.77268 -1.20661,-2.90481v0v-9.05705v0c0,-1.13213 0.4022,-2.1004 1.20661,-2.90481v0v0c0.80441,-0.80441 1.77268,-1.20661 2.90481,-1.20661v0h9.35498v0c1.13213,0 2.09544,0.4022 2.88992,1.20661v0v0c0.79448,0.80441 1.19172,1.77268 1.19172,2.90481v0v15.87964v0c0,1.13213 -0.39724,2.1004 -1.19172,2.90481v0v0c-0.79448,0.80441 -1.75779,1.20661 -2.88992,1.20661v0zM128.26159,312.65753v0h7.68658v0c0.53627,0 0.83917,-0.03476 0.90869,-0.10428v0v0c0.06951,-0.06952 0.10428,-0.38234 0.10428,-0.93848v0v-7.38864v0c0,-0.55613 -0.03476,-0.86897 -0.10428,-0.93848v0v0c-0.06951,-0.06952 -0.37241,-0.10427 -0.90869,-0.10427v0h-7.68658v0c-0.55613,0 -0.86896,0.03476 -0.93847,0.10427v0v0c-0.06951,0.06952 -0.10428,0.38235 -0.10428,0.93848v0v7.38864v0c0,0.55613 0.03476,0.86896 0.10428,0.93848v0v0c0.06951,0.06952 0.38234,0.10428 0.93847,0.10428zM166.39655,279.20006h-19.75271v-21.45092h19.75271v3.96246h-15.79026v4.76687h12.69179v3.99226h-12.69179v4.76687h15.79026v3.96246zM190.79697,279.20006h-17.25011v0c-1.13213,0 -2.10537,-0.40717 -2.9197,-1.22151v0v0c-0.81434,-0.81434 -1.22151,-1.78758 -1.22151,-2.91971v0v-13.16847v0c0,-1.13213 0.40717,-2.10537 1.22151,-2.91971v0v0c0.81434,-0.81434 1.78758,-1.22151 2.9197,-1.22151v0h17.25011v3.96246h-16.41591v0c-0.55614,0 -0.86897,0.03476 -0.93848,0.10427v0v0c-0.06951,0.06952 -0.10428,0.38235 -0.10428,0.93848v0v11.44048v0c0,0.55613 0.03476,0.86897 0.10428,0.93848v0v0c0.06951,0.06952 0.38234,0.10427 0.93848,0.10427v0h16.41591v3.96246zM211.14554,279.20006h-13.16848v0c-1.13213,0 -2.10537,-0.40717 -2.9197,-1.22151v0v0c-0.81434,-0.81434 -1.22151,-1.78758 -1.22151,-2.91971v0v-13.16847v0c0,-1.13213 0.40717,-2.10537 1.22151,-2.91971v0v0c0.81434,-0.81434 1.78758,-1.22151 2.9197,-1.22151v0h13.16848v0c1.13213,0 2.10537,0.40717 2.9197,1.22151v0v0c0.81434,0.81434 1.22151,1.78758 1.22151,2.91971v0v13.16848v0c0,1.13213 -0.40717,2.10537 -1.22151,2.91971v0v0c-0.81434,0.81434 -1.78758,1.22151 -2.9197,1.22151v0zM198.81127,275.2376v0h11.47028v0c0.53627,0 0.84413,-0.03476 0.92358,-0.10427v0v0c0.07945,-0.06952 0.11917,-0.38235 0.11917,-0.93848v0v-11.44048v0c0,-0.55613 -0.03972,-0.86897 -0.11917,-0.93848v0v0c-0.07945,-0.06952 -0.38731,-0.10427 -0.92358,-0.10427v0h-11.47028v0c-0.55614,0 -0.86897,0.03476 -0.93848,0.10427v0v0c-0.06951,0.06952 -0.10428,0.38235 -0.10428,0.93848v0v11.44048v0c0,0.55613 0.03476,0.86897 0.10428,0.93848v0v0c0.06951,0.06952 0.38234,0.10427 0.93848,0.10427zM222.40727,279.20006h-3.90288v-17.2799h13.43662v0c1.13213,0 2.1004,0.4022 2.90481,1.20661v0v0c0.80441,0.80441 1.20661,1.77268 1.20661,2.90481v0v13.16848h-3.90287v-12.33427v0c0,-0.55613 -0.03476,-0.86897 -0.10428,-0.93848v0v0c-0.06951,-0.06952 -0.38234,-0.10427 -0.93848,-0.10427v0h-7.65678v0c-0.55614,0 -0.86897,0.03476 -0.93848,0.10427v0v0c-0.06951,0.06952 -0.10428,0.38235 -0.10428,0.93848v0v12.33427zM256.01371,279.20006h-13.43662v0c-1.13213,0 -2.1004,-0.4022 -2.90481,-1.20661v0v0c-0.80441,-0.80441 -1.20661,-1.77268 -1.20661,-2.90481v0v-9.05705v0c0,-1.13213 0.40221,-2.1004 1.20661,-2.90481v0v0c0.80441,-0.80441 1.77268,-1.20661 2.90481,-1.20661v0h13.40682v3.90287h-12.57262v0c-0.55614,0 -0.86896,0.03476 -0.93848,0.10427v0v0c-0.06951,0.06952 -0.10428,0.38235 -0.10428,0.93848v0v7.38864v0c0,0.55613 0.03476,0.86896 0.10428,0.93848v0v0c0.06951,0.06952 0.38234,0.10428 0.93848,0.10428v0h12.60242v3.90287zM262.89588,279.20006h-3.90287v-13.16848v0c0,-1.13213 0.4022,-2.1004 1.20661,-2.90481v0v0c0.80441,-0.80441 1.77268,-1.20661 2.90481,-1.20661v0h9.59332v3.90287h-8.75912v0c-0.55613,0 -0.86896,0.03476 -0.93847,0.10427v0v0c-0.06952,0.06952 -0.10428,0.38235 -0.10428,0.93848v0v12.33427zM292.27171,279.20006h-13.43661v0c-1.13213,0 -2.1004,-0.4022 -2.90481,-1.20661v0v0c-0.80441,-0.80441 -1.20661,-1.77268 -1.20661,-2.90481v0v-9.05705v0c0,-1.13213 0.4022,-2.1004 1.20661,-2.90481v0v0c0.80441,-0.80441 1.77268,-1.20661 2.90481,-1.20661v0h9.32519v0c1.13213,0 2.1004,0.4022 2.90481,1.20661v0v0c0.80441,0.80441 1.20661,1.77268 1.20661,2.90481v0v6.49486h-13.64516v1.72799v0c0,0.55613 0.03476,0.86896 0.10427,0.93848v0v0c0.06952,0.06952 0.38234,0.10428 0.93847,0.10428v0h12.60242v3.90287zM278.62655,266.86579v2.14509h9.74229v-2.14509v0c0,-0.55613 -0.03476,-0.86897 -0.10427,-0.93848v0v0c-0.06952,-0.06952 -0.38235,-0.10427 -0.93848,-0.10427v0h-7.65679v0c-0.55613,0 -0.86896,0.03476 -0.93847,0.10427v0v0c-0.06952,0.06952 -0.10427,0.38235 -0.10427,0.93848v0zM306.03605,279.20006h-6.52465v0c-1.13213,0 -2.1004,-0.4022 -2.90481,-1.20661v0v0c-0.80441,-0.80441 -1.20661,-1.77268 -1.20661,-2.90481v0v-18.47162h3.90287v5.30314h6.7332v3.90287h-6.7332v8.4314v0c0,0.55613 0.03476,0.86896 0.10428,0.93848v0v0c0.06952,0.06952 0.38234,0.10428 0.93847,0.10428v0h5.69045v3.90287zM325.93773,279.20006h-13.43661v0c-1.13213,0 -2.1004,-0.4022 -2.90481,-1.20661v0v0c-0.80441,-0.80441 -1.20661,-1.77268 -1.20661,-2.90481v0v-9.05705v0c0,-1.13213 0.4022,-2.1004 1.20661,-2.90481v0v0c0.80441,-0.80441 1.77268,-1.20661 2.90481,-1.20661v0h9.32519v0c1.13213,0 2.1004,0.4022 2.90481,1.20661v0v0c0.80441,0.80441 1.20661,1.77268 1.20661,2.90481v0v6.49486h-13.64516v1.72799v0c0,0.55613 0.03476,0.86896 0.10427,0.93848v0v0c0.06952,0.06952 0.38234,0.10428 0.93847,0.10428v0h12.60242v3.90287zM312.29257,266.86579v2.14509h9.74229v-2.14509v0c0,-0.55613 -0.03476,-0.86897 -0.10427,-0.93848v0v0c-0.06952,-0.06952 -0.38235,-0.10427 -0.93848,-0.10427v0h-7.65679v0c-0.55613,0 -0.86896,0.03476 -0.93847,0.10427v0v0c-0.06952,0.06952 -0.10427,0.38235 -0.10427,0.93848v0zM332.99866,265.76345h-3.90287v-3.90287h3.90287v3.90287zM332.99866,279.20006h-3.90287v-3.90287h3.90287v3.90287z" fill="#bfbfbf" stroke="#000000" stroke-width="0"/></g></g></svg>