<svg version="1.1" xmlns="http://www.w3.org/2000/svg" xmlns:xlink="http://www.w3.org/1999/xlink" width="389.966" height="304.824" viewBox="0,0,389.966,304.824"><g transform="translate(-45.017,-137.588)"><g data-paper-data="{&quot;isPaintingLayer&quot;:true}" fill-rule="nonzero" stroke-linejoin="miter" stroke-dasharray="" stroke-dashoffset="0" style="mix-blend-mode: normal"><path d="M46.267,441.162v-302.324h387.466v302.324z" fill-opacity="0.8" fill="#000000" stroke="#ffffff" stroke-width="2.5" stroke-linecap="butt" stroke-miterlimit="10"/><path d="M66.865,153.362h88.804c2.262,0 4.098,1.836 4.098,4.098v88.804c0,2.262 -1.836,4.098 -4.098,4.098h-88.804c-2.262,0 -4.098,-1.836 -4.098,-4.098v-88.804c0,-2.262 1.836,-4.098 4.098,-4.098z" fill="#7c99c3" stroke="none" stroke-width="1" stroke-linecap="butt" stroke-miterlimit="10"/><path d="M66.865,153.362h88.804c2.262,0 4.098,1.836 4.098,4.098v88.804c0,2.262 -1.836,4.098 -4.098,4.098h-88.804c-2.262,0 -4.098,-1.836 -4.098,-4.098v-88.804c0,-2.262 1.836,-4.098 4.098,-4.098z" fill="none" stroke="#000000" stroke-width="6" stroke-linecap="square" stroke-miterlimit="2"/><path d="M169.797,414.489h-9.87v0c-0.7,0 -1.29867,-0.24867 -1.796,-0.746v0v0c-0.49667,-0.49667 -0.745,-1.095 -0.745,-1.795v0v-7.098v0c0,-0.7 0.24833,-1.29867 0.745,-1.796v0v0c0.49733,-0.49667 1.096,-0.745 1.796,-0.745v0h9.828v1.722h-9.828v0c-0.224,0 -0.41667,0.08033 -0.578,0.241v0v0c-0.16067,0.16133 -0.241,0.354 -0.241,0.578v0v7.098v0c0,0.224 0.08033,0.41633 0.241,0.577v0v0c0.16133,0.16133 0.354,0.242 0.578,0.242v0h9.87zM173.451,414.489h-1.722v-16.17h1.722v3.99h8.148v0c0.686,0 1.281,0.24833 1.785,0.745v0v0c0.504,0.49733 0.756,1.096 0.756,1.796v0v9.639h-1.722v-9.639v0c0,-0.224 -0.08067,-0.41667 -0.242,-0.578v0v0c-0.16067,-0.16067 -0.353,-0.241 -0.577,-0.241v0h-7.308v0c-0.224,0 -0.42,0.08033 -0.588,0.241v0v0c-0.168,0.16133 -0.252,0.354 -0.252,0.578v0zM198.105,414.489h-9.87v0c-0.7,0 -1.29867,-0.24867 -1.796,-0.746v0v0c-0.49667,-0.49667 -0.745,-1.095 -0.745,-1.795v0v-7.098v0c0,-0.7 0.24833,-1.29867 0.745,-1.796v0v0c0.49733,-0.49667 1.096,-0.745 1.796,-0.745v0h7.308v0c0.714,0 1.31933,0.24833 1.816,0.745v0v0c0.49733,0.49733 0.746,1.096 0.746,1.796v0v4.41h-10.689v2.688v0c0,0.224 0.08033,0.41633 0.241,0.577v0v0c0.16133,0.16133 0.354,0.242 0.578,0.242v0h9.87zM187.416,404.85v2.688h8.946v-2.688v0c0,-0.224 -0.08067,-0.41667 -0.242,-0.578v0v0c-0.16067,-0.16067 -0.353,-0.241 -0.577,-0.241v0h-7.308v0c-0.224,0 -0.41667,0.08033 -0.578,0.241v0v0c-0.16067,0.16133 -0.241,0.354 -0.241,0.578zM202.032,414.489h-1.743v-12.18h16.086v0c0.714,0 1.316,0.24833 1.806,0.745v0v0c0.49,0.49733 0.735,1.096 0.735,1.796v0v9.639h-1.701v-9.639v0c0,-0.224 -0.084,-0.41667 -0.252,-0.578v0v0c-0.168,-0.16067 -0.364,-0.241 -0.588,-0.241v0h-5.061v0c-0.224,0 -0.41667,0.08033 -0.578,0.241v0v0c-0.16067,0.16133 -0.241,0.354 -0.241,0.578v0v9.639h-1.743v-9.639v0c0,-0.224 -0.08067,-0.41667 -0.242,-0.578v0v0c-0.16067,-0.16067 -0.353,-0.241 -0.577,-0.241v0h-5.082v0c-0.224,0 -0.41667,0.08033 -0.578,0.241v0v0c-0.16067,0.16133 -0.241,0.354 -0.241,0.578v0zM222.507,414.489h-1.722v-12.18h1.722zM222.507,400.041h-1.722v-1.722h1.722zM237.228,414.489h-9.87v0c-0.7,0 -1.29867,-0.24867 -1.796,-0.746v0v0c-0.49667,-0.49667 -0.745,-1.095 -0.745,-1.795v0v-7.098v0c0,-0.7 0.24833,-1.29867 0.745,-1.796v0v0c0.49733,-0.49667 1.096,-0.745 1.796,-0.745v0h9.828v1.722h-9.828v0c-0.224,0 -0.41667,0.08033 -0.578,0.241v0v0c-0.16067,0.16133 -0.241,0.354 -0.241,0.578v0v7.098v0c0,0.224 0.08033,0.41633 0.241,0.577v0v0c0.16133,0.16133 0.354,0.242 0.578,0.242v0h9.87zM251.844,414.489h-9.87v0c-0.7,0 -1.29867,-0.24867 -1.796,-0.746v0v0c-0.49667,-0.49667 -0.745,-1.095 -0.745,-1.795v0v-4.41h10.668v-2.688v0c0,-0.224 -0.08067,-0.41667 -0.242,-0.578v0v0c-0.16067,-0.16067 -0.353,-0.241 -0.577,-0.241v0h-9.849v-1.722h9.849v0c0.714,0 1.31933,0.24833 1.816,0.745v0v0c0.49733,0.49733 0.746,1.096 0.746,1.796v0zM241.974,412.767v0h8.127v-3.507h-8.946v2.688v0c0,0.224 0.08033,0.41633 0.241,0.577v0v0c0.16133,0.16133 0.354,0.242 0.578,0.242zM258.396,414.489h-2.058v0c-0.7,0 -1.29867,-0.24867 -1.796,-0.746v0v0c-0.49667,-0.49667 -0.745,-1.095 -0.745,-1.795v0v-13.629h1.722v13.629v0c0,0.224 0.08033,0.41633 0.241,0.577v0v0c0.16133,0.16133 0.354,0.242 0.578,0.242v0h2.058zM269.904,414.489h-7.308v0c-0.7,0 -1.29867,-0.24867 -1.796,-0.746v0v0c-0.49667,-0.49667 -0.745,-1.095 -0.745,-1.795v0v-0.168h1.722v0.168v0c0,0.224 0.08033,0.41633 0.241,0.577v0v0c0.16133,0.16133 0.354,0.242 0.578,0.242v0h7.308v0c0.224,0 0.41633,-0.08067 0.577,-0.242v0v0c0.16133,-0.16067 0.242,-0.353 0.242,-0.577v0v-1.869v0c0,-0.224 -0.08067,-0.41667 -0.242,-0.578v0v0c-0.16067,-0.16067 -0.353,-0.241 -0.577,-0.241v0h-7.308v0c-0.7,0 -1.29867,-0.24867 -1.796,-0.746v0v0c-0.49667,-0.49667 -0.745,-1.095 -0.745,-1.795v0v-1.869v0c0,-0.7 0.24833,-1.29867 0.745,-1.796v0v0c0.49733,-0.49667 1.096,-0.745 1.796,-0.745v0h7.308v0c0.714,0 1.31933,0.24833 1.816,0.745v0v0c0.49733,0.49733 0.746,1.096 0.746,1.796v0v0.168h-1.743v-0.168v0c0,-0.224 -0.08067,-0.41667 -0.242,-0.578v0v0c-0.16067,-0.16067 -0.353,-0.241 -0.577,-0.241v0h-7.308v0c-0.224,0 -0.41667,0.08033 -0.578,0.241v0v0c-0.16067,0.16133 -0.241,0.354 -0.241,0.578v0v1.869v0c0,0.224 0.08033,0.41633 0.241,0.577v0v0c0.16133,0.16133 0.354,0.242 0.578,0.242v0h7.308v0c0.714,0 1.31933,0.24833 1.816,0.745v0v0c0.49733,0.49733 0.746,1.096 0.746,1.796v0v1.869v0c0,0.7 -0.24867,1.29833 -0.746,1.795v0v0c-0.49667,0.49733 -1.102,0.746 -1.816,0.746zM276.309,414.489h-1.722v-1.722h1.722zM63.873,414.489h-1.722v-16.17h1.722v3.99h8.148v0c0.686,0 1.281,0.24833 1.785,0.745v0v0c0.504,0.49733 0.756,1.096 0.756,1.796v0v9.639h-1.722v-9.639v0c0,-0.224 -0.08067,-0.41667 -0.242,-0.578v0v0c-0.16067,-0.16067 -0.353,-0.241 -0.577,-0.241v0h-7.308v0c-0.224,0 -0.42,0.08033 -0.588,0.241v0v0c-0.168,0.16133 -0.252,0.354 -0.252,0.578v0zM88.653,414.489h-9.87v0c-0.7,0 -1.29867,-0.24867 -1.796,-0.746v0v0c-0.49667,-0.49667 -0.745,-1.095 -0.745,-1.795v0v-4.41h10.668v-2.688v0c0,-0.224 -0.08067,-0.41667 -0.242,-0.578v0v0c-0.16067,-0.16067 -0.353,-0.241 -0.577,-0.241v0h-9.849v-1.722h9.849v0c0.714,0 1.31933,0.24833 1.816,0.745v0v0c0.49733,0.49733 0.746,1.096 0.746,1.796v0zM78.783,412.767v0h8.127v-3.507h-8.946v2.688v0c0,0.224 0.08033,0.41633 0.241,0.577v0v0c0.16133,0.16133 0.354,0.242 0.578,0.242zM92.433,414.489h-1.722v-9.639v0c0,-0.7 0.24833,-1.29867 0.745,-1.796v0v0c0.49733,-0.49667 1.096,-0.745 1.796,-0.745v0h6.846v1.722h-6.846v0c-0.224,0 -0.41667,0.08033 -0.578,0.241v0v0c-0.16067,0.16133 -0.241,0.354 -0.241,0.578v0zM103.248,414.489h-1.743v-12.18h16.086v0c0.714,0 1.316,0.24833 1.806,0.745v0v0c0.49,0.49733 0.735,1.096 0.735,1.796v0v9.639h-1.701v-9.639v0c0,-0.224 -0.084,-0.41667 -0.252,-0.578v0v0c-0.168,-0.16067 -0.364,-0.241 -0.588,-0.241v0h-5.061v0c-0.224,0 -0.41667,0.08033 -0.578,0.241v0v0c-0.16067,0.16133 -0.241,0.354 -0.241,0.578v0v9.639h-1.743v-9.639v0c0,-0.224 -0.08067,-0.41667 -0.242,-0.578v0v0c-0.16067,-0.16067 -0.353,-0.241 -0.577,-0.241v0h-5.082v0c-0.224,0 -0.41667,0.08033 -0.578,0.241v0v0c-0.16067,0.16133 -0.241,0.354 -0.241,0.578v0zM123.744,414.489h-1.722v-13.629v0c0,-0.714 0.245,-1.316 0.735,-1.806v0v0c0.49,-0.49 1.092,-0.735 1.806,-0.735v0h4.452v1.722h-4.452v0c-0.224,0 -0.41667,0.08033 -0.578,0.241v0v0c-0.16067,0.16133 -0.241,0.354 -0.241,0.578v0v1.449h5.271v1.722h-5.271zM140.628,414.489h-7.308v0c-0.7,0 -1.29867,-0.24867 -1.796,-0.746v0v0c-0.49667,-0.49667 -0.745,-1.095 -0.745,-1.795v0v-9.639h1.722v9.639v0c0,0.224 0.08033,0.41633 0.241,0.577v0v0c0.16133,0.16133 0.354,0.242 0.578,0.242v0h7.308v0c0.224,0 0.42,-0.08067 0.588,-0.242v0v0c0.168,-0.16067 0.252,-0.353 0.252,-0.577v0v-9.639h1.722v9.639v0c0,0.7 -0.24867,1.29833 -0.746,1.795v0v0c-0.49667,0.49733 -1.102,0.746 -1.816,0.746zM149.952,414.489h-2.058v0c-0.7,0 -1.29867,-0.24867 -1.796,-0.746v0v0c-0.49667,-0.49667 -0.745,-1.095 -0.745,-1.795v0v-13.629h1.722v13.629v0c0,0.224 0.08033,0.41633 0.241,0.577v0v0c0.16133,0.16133 0.354,0.242 0.578,0.242v0h2.058zM315.096,388.155h-1.512l-4.788,-12.18h1.848l3.696,9.072l3.927,-9.072h2.268l4.179,9.051l3.444,-9.051h1.869l-4.599,12.18h-1.491l-4.536,-10.059zM333.366,388.155h-1.722v-12.18h1.722zM333.366,373.707h-1.722v-1.722h1.722zM343.026,388.155h-4.452v0c-0.714,0 -1.316,-0.24867 -1.806,-0.746v0v0c-0.49,-0.49667 -0.735,-1.095 -0.735,-1.795v0v-13.629h1.722v3.99h5.271v1.722h-5.271v7.917v0c0,0.224 0.08033,0.41633 0.241,0.577v0v0c0.16133,0.16133 0.354,0.242 0.578,0.242v0h4.452zM346.491,388.155h-1.722v-16.17h1.722v3.99h8.148v0c0.686,0 1.281,0.24833 1.785,0.745v0v0c0.504,0.49733 0.756,1.096 0.756,1.796v0v9.639h-1.722v-9.639v0c0,-0.224 -0.08067,-0.41667 -0.242,-0.578v0v0c-0.16067,-0.16067 -0.353,-0.241 -0.577,-0.241v0h-7.308v0c-0.224,0 -0.42,0.08033 -0.588,0.241v0v0c-0.168,0.16133 -0.252,0.354 -0.252,0.578v0zM226.854,388.155h-7.308v0c-0.7,0 -1.29867,-0.24867 -1.796,-0.746v0v0c-0.49667,-0.49667 -0.745,-1.095 -0.745,-1.795v0v-7.098v0c0,-0.7 0.24833,-1.29867 0.745,-1.796v0v0c0.49733,-0.49667 1.096,-0.745 1.796,-0.745v0h7.308v0c0.714,0 1.31933,0.24833 1.816,0.745v0v0c0.49733,0.49733 0.746,1.096 0.746,1.796v0v7.098v0c0,0.7 -0.24867,1.29833 -0.746,1.795v0v0c-0.49667,0.49733 -1.102,0.746 -1.816,0.746zM219.546,386.433v0h7.308v0c0.224,0 0.41633,-0.08067 0.577,-0.242v0v0c0.16133,-0.16067 0.242,-0.353 0.242,-0.577v0v-7.098v0c0,-0.224 -0.08067,-0.41667 -0.242,-0.578v0v0c-0.16067,-0.16067 -0.353,-0.241 -0.577,-0.241v0h-7.308v0c-0.224,0 -0.41667,0.08033 -0.578,0.241v0v0c-0.16067,0.16133 -0.241,0.354 -0.241,0.578v0v7.098v0c0,0.224 0.08033,0.41633 0.241,0.577v0v0c0.16133,0.16133 0.354,0.242 0.578,0.242zM243.948,388.155h-9.87v0c-0.7,0 -1.29867,-0.24867 -1.796,-0.746v0v0c-0.49667,-0.49667 -0.745,-1.095 -0.745,-1.795v0v-7.098v0c0,-0.7 0.24833,-1.29867 0.745,-1.796v0v0c0.49733,-0.49667 1.096,-0.745 1.796,-0.745v0h9.828v1.722h-9.828v0c-0.224,0 -0.41667,0.08033 -0.578,0.241v0v0c-0.16067,0.16133 -0.241,0.354 -0.241,0.578v0v7.098v0c0,0.224 0.08033,0.41633 0.241,0.577v0v0c0.16133,0.16133 0.354,0.242 0.578,0.242v0h9.87zM258.018,388.155h-9.87v0c-0.7,0 -1.29867,-0.24867 -1.796,-0.746v0v0c-0.49667,-0.49667 -0.745,-1.095 -0.745,-1.795v0v-7.098v0c0,-0.7 0.24833,-1.29867 0.745,-1.796v0v0c0.49733,-0.49667 1.096,-0.745 1.796,-0.745v0h7.308v0c0.714,0 1.31933,0.24833 1.816,0.745v0v0c0.49733,0.49733 0.746,1.096 0.746,1.796v0v4.41h-10.689v2.688v0c0,0.224 0.08033,0.41633 0.241,0.577v0v0c0.16133,0.16133 0.354,0.242 0.578,0.242v0h9.87zM247.329,378.516v2.688h8.946v-2.688v0c0,-0.224 -0.08067,-0.41667 -0.242,-0.578v0v0c-0.16067,-0.16067 -0.353,-0.241 -0.577,-0.241v0h-7.308v0c-0.224,0 -0.41667,0.08033 -0.578,0.241v0v0c-0.16067,0.16133 -0.241,0.354 -0.241,0.578zM272.571,388.155h-9.87v0c-0.7,0 -1.29867,-0.24867 -1.796,-0.746v0v0c-0.49667,-0.49667 -0.745,-1.095 -0.745,-1.795v0v-4.41h10.668v-2.688v0c0,-0.224 -0.08067,-0.41667 -0.242,-0.578v0v0c-0.16067,-0.16067 -0.353,-0.241 -0.577,-0.241v0h-9.849v-1.722h9.849v0c0.714,0 1.31933,0.24833 1.816,0.745v0v0c0.49733,0.49733 0.746,1.096 0.746,1.796v0zM262.701,386.433v0h8.127v-3.507h-8.946v2.688v0c0,0.224 0.08033,0.41633 0.241,0.577v0v0c0.16133,0.16133 0.354,0.242 0.578,0.242zM276.183,388.155h-1.722v-12.18h9.87v0c0.7,0 1.29833,0.24833 1.795,0.745v0v0c0.49733,0.49733 0.746,1.096 0.746,1.796v0v9.639h-1.722v-9.639v0c0,-0.224 -0.08067,-0.41667 -0.242,-0.578v0v0c-0.16067,-0.16067 -0.353,-0.241 -0.577,-0.241v0h-7.308v0c-0.224,0 -0.42,0.08033 -0.588,0.241v0v0c-0.168,0.16133 -0.252,0.354 -0.252,0.578v0zM298.8,388.155h-7.308v0c-0.7,0 -1.29867,-0.24867 -1.796,-0.746v0v0c-0.49667,-0.49667 -0.745,-1.095 -0.745,-1.795v0v-0.168h1.722v0.168v0c0,0.224 0.08033,0.41633 0.241,0.577v0v0c0.16133,0.16133 0.354,0.242 0.578,0.242v0h7.308v0c0.224,0 0.41633,-0.08067 0.577,-0.242v0v0c0.16133,-0.16067 0.242,-0.353 0.242,-0.577v0v-1.869v0c0,-0.224 -0.08067,-0.41667 -0.242,-0.578v0v0c-0.16067,-0.16067 -0.353,-0.241 -0.577,-0.241v0h-7.308v0c-0.7,0 -1.29867,-0.24867 -1.796,-0.746v0v0c-0.49667,-0.49667 -0.745,-1.095 -0.745,-1.795v0v-1.869v0c0,-0.7 0.24833,-1.29867 0.745,-1.796v0v0c0.49733,-0.49667 1.096,-0.745 1.796,-0.745v0h7.308v0c0.714,0 1.31933,0.24833 1.816,0.745v0v0c0.49733,0.49733 0.746,1.096 0.746,1.796v0v0.168h-1.743v-0.168v0c0,-0.224 -0.08067,-0.41667 -0.242,-0.578v0v0c-0.16067,-0.16067 -0.353,-0.241 -0.577,-0.241v0h-7.308v0c-0.224,0 -0.41667,0.08033 -0.578,0.241v0v0c-0.16067,0.16133 -0.241,0.354 -0.241,0.578v0v1.869v0c0,0.224 0.08033,0.41633 0.241,0.577v0v0c0.16133,0.16133 0.354,0.242 0.578,0.242v0h7.308v0c0.714,0 1.31933,0.24833 1.816,0.745v0v0c0.49733,0.49733 0.746,1.096 0.746,1.796v0v1.869v0c0,0.7 -0.24867,1.29833 -0.746,1.795v0v0c-0.49667,0.49733 -1.102,0.746 -1.816,0.746zM134.916,392.985h-1.722v-17.01h9.87v0c0.7,0 1.29833,0.24833 1.795,0.745v0v0c0.49733,0.49733 0.746,1.096 0.746,1.796v0v7.098v0c0,0.7 -0.24867,1.29833 -0.746,1.795v0v0c-0.49667,0.49733 -1.095,0.746 -1.795,0.746v0h-8.148zM135.756,386.433v0h7.308v0c0.224,0 0.41633,-0.08067 0.577,-0.242v0v0c0.16133,-0.16067 0.242,-0.353 0.242,-0.577v0v-7.098v0c0,-0.224 -0.08067,-0.41667 -0.242,-0.578v0v0c-0.16067,-0.16067 -0.353,-0.241 -0.577,-0.241v0h-7.308v0c-0.224,0 -0.42,0.08033 -0.588,0.241v0v0c-0.168,0.16133 -0.252,0.354 -0.252,0.578v0v7.098v0c0,0.224 0.084,0.41633 0.252,0.577v0v0c0.168,0.16133 0.364,0.242 0.588,0.242zM156.924,388.155h-7.308v0c-0.7,0 -1.29867,-0.24867 -1.796,-0.746v0v0c-0.49667,-0.49667 -0.745,-1.095 -0.745,-1.795v0v-7.098v0c0,-0.7 0.24833,-1.29867 0.745,-1.796v0v0c0.49733,-0.49667 1.096,-0.745 1.796,-0.745v0h7.308v0c0.714,0 1.31933,0.24833 1.816,0.745v0v0c0.49733,0.49733 0.746,1.096 0.746,1.796v0v7.098v0c0,0.7 -0.24867,1.29833 -0.746,1.795v0v0c-0.49667,0.49733 -1.102,0.746 -1.816,0.746zM149.616,386.433v0h7.308v0c0.224,0 0.41633,-0.08067 0.577,-0.242v0v0c0.16133,-0.16067 0.242,-0.353 0.242,-0.577v0v-7.098v0c0,-0.224 -0.08067,-0.41667 -0.242,-0.578v0v0c-0.16067,-0.16067 -0.353,-0.241 -0.577,-0.241v0h-7.308v0c-0.224,0 -0.41667,0.08033 -0.578,0.241v0v0c-0.16067,0.16133 -0.241,0.354 -0.241,0.578v0v7.098v0c0,0.224 0.08033,0.41633 0.241,0.577v0v0c0.16133,0.16133 0.354,0.242 0.578,0.242zM165.807,388.155h-2.058v0c-0.7,0 -1.29867,-0.24867 -1.796,-0.746v0v0c-0.49667,-0.49667 -0.745,-1.095 -0.745,-1.795v0v-13.629h1.722v13.629v0c0,0.224 0.08033,0.41633 0.241,0.577v0v0c0.16133,0.16133 0.354,0.242 0.578,0.242v0h2.058zM172.149,388.155h-2.058v0c-0.7,0 -1.29867,-0.24867 -1.796,-0.746v0v0c-0.49667,-0.49667 -0.745,-1.095 -0.745,-1.795v0v-13.629h1.722v13.629v0c0,0.224 0.08033,0.41633 0.241,0.577v0v0c0.16133,0.16133 0.354,0.242 0.578,0.242v0h2.058zM183.762,388.155h-7.308v0c-0.7,0 -1.29867,-0.24867 -1.796,-0.746v0v0c-0.49667,-0.49667 -0.745,-1.095 -0.745,-1.795v0v-9.639h1.722v9.639v0c0,0.224 0.08033,0.41633 0.241,0.577v0v0c0.16133,0.16133 0.354,0.242 0.578,0.242v0h7.308v0c0.224,0 0.42,-0.08067 0.588,-0.242v0v0c0.168,-0.16067 0.252,-0.353 0.252,-0.577v0v-9.639h1.722v9.639v0c0,0.7 -0.24867,1.29833 -0.746,1.795v0v0c-0.49667,0.49733 -1.102,0.746 -1.816,0.746zM195.186,388.155h-4.452v0c-0.714,0 -1.316,-0.24867 -1.806,-0.746v0v0c-0.49,-0.49667 -0.735,-1.095 -0.735,-1.795v0v-13.629h1.722v3.99h5.271v1.722h-5.271v7.917v0c0,0.224 0.08033,0.41633 0.241,0.577v0v0c0.16133,0.16133 0.354,0.242 0.578,0.242v0h4.452zM209.172,388.155h-9.87v0c-0.7,0 -1.29867,-0.24867 -1.796,-0.746v0v0c-0.49667,-0.49667 -0.745,-1.095 -0.745,-1.795v0v-7.098v0c0,-0.7 0.24833,-1.29867 0.745,-1.796v0v0c0.49733,-0.49667 1.096,-0.745 1.796,-0.745v0h7.308v0c0.714,0 1.31933,0.24833 1.816,0.745v0v0c0.49733,0.49733 0.746,1.096 0.746,1.796v0v4.41h-10.689v2.688v0c0,0.224 0.08033,0.41633 0.241,0.577v0v0c0.16133,0.16133 0.354,0.242 0.578,0.242v0h9.87zM198.483,378.516v2.688h8.946v-2.688v0c0,-0.224 -0.08067,-0.41667 -0.242,-0.578v0v0c-0.16067,-0.16067 -0.353,-0.241 -0.577,-0.241v0h-7.308v0c-0.224,0 -0.41667,0.08033 -0.578,0.241v0v0c-0.16067,0.16133 -0.241,0.354 -0.241,0.578zM92.727,388.155h-1.722v-12.18h9.87v0c0.7,0 1.29833,0.24833 1.795,0.745v0v0c0.49733,0.49733 0.746,1.096 0.746,1.796v0v9.639h-1.722v-9.639v0c0,-0.224 -0.08067,-0.41667 -0.242,-0.578v0v0c-0.16067,-0.16067 -0.353,-0.241 -0.577,-0.241v0h-7.308v0c-0.224,0 -0.42,0.08033 -0.588,0.241v0v0c-0.168,0.16133 -0.252,0.354 -0.252,0.578v0zM115.092,388.155h-7.308v0c-0.7,0 -1.29867,-0.24867 -1.796,-0.746v0v0c-0.49667,-0.49667 -0.745,-1.095 -0.745,-1.795v0v-7.098v0c0,-0.7 0.24833,-1.29867 0.745,-1.796v0v0c0.49733,-0.49667 1.096,-0.745 1.796,-0.745v0h7.308v0c0.714,0 1.31933,0.24833 1.816,0.745v0v0c0.49733,0.49733 0.746,1.096 0.746,1.796v0v7.098v0c0,0.7 -0.24867,1.29833 -0.746,1.795v0v0c-0.49667,0.49733 -1.102,0.746 -1.816,0.746zM107.784,386.433v0h7.308v0c0.224,0 0.41633,-0.08067 0.577,-0.242v0v0c0.16133,-0.16067 0.242,-0.353 0.242,-0.577v0v-7.098v0c0,-0.224 -0.08067,-0.41667 -0.242,-0.578v0v0c-0.16067,-0.16067 -0.353,-0.241 -0.577,-0.241v0h-7.308v0c-0.224,0 -0.41667,0.08033 -0.578,0.241v0v0c-0.16067,0.16133 -0.241,0.354 -0.241,0.578v0v7.098v0c0,0.224 0.08033,0.41633 0.241,0.577v0v0c0.16133,0.16133 0.354,0.242 0.578,0.242zM126.327,388.155h-4.452v0c-0.714,0 -1.316,-0.24867 -1.806,-0.746v0v0c-0.49,-0.49667 -0.735,-1.095 -0.735,-1.795v0v-13.629h1.722v3.99h5.271v1.722h-5.271v7.917v0c0,0.224 0.08033,0.41633 0.241,0.577v0v0c0.16133,0.16133 0.354,0.242 0.578,0.242v0h4.452zM69.123,388.155h-4.452v0c-0.714,0 -1.316,-0.24867 -1.806,-0.746v0v0c-0.49,-0.49667 -0.735,-1.095 -0.735,-1.795v0v-13.629h1.722v3.99h5.271v1.722h-5.271v7.917v0c0,0.224 0.08033,0.41633 0.241,0.577v0v0c0.16133,0.16133 0.354,0.242 0.578,0.242v0h4.452zM80.547,388.155h-7.308v0c-0.7,0 -1.29867,-0.24867 -1.796,-0.746v0v0c-0.49667,-0.49667 -0.745,-1.095 -0.745,-1.795v0v-7.098v0c0,-0.7 0.24833,-1.29867 0.745,-1.796v0v0c0.49733,-0.49667 1.096,-0.745 1.796,-0.745v0h7.308v0c0.714,0 1.31933,0.24833 1.816,0.745v0v0c0.49733,0.49733 0.746,1.096 0.746,1.796v0v7.098v0c0,0.7 -0.24867,1.29833 -0.746,1.795v0v0c-0.49667,0.49733 -1.102,0.746 -1.816,0.746zM73.239,386.433v0h7.308v0c0.224,0 0.41633,-0.08067 0.577,-0.242v0v0c0.16133,-0.16067 0.242,-0.353 0.242,-0.577v0v-7.098v0c0,-0.224 -0.08067,-0.41667 -0.242,-0.578v0v0c-0.16067,-0.16067 -0.353,-0.241 -0.577,-0.241v0h-7.308v0c-0.224,0 -0.41667,0.08033 -0.578,0.241v0v0c-0.16067,0.16133 -0.241,0.354 -0.241,0.578v0v7.098v0c0,0.224 0.08033,0.41633 0.241,0.577v0v0c0.16133,0.16133 0.354,0.242 0.578,0.242zM298.548,361.821h-7.308v0c-0.7,0 -1.29867,-0.24867 -1.796,-0.746v0v0c-0.49667,-0.49667 -0.745,-1.095 -0.745,-1.795v0v-0.168h1.722v0.168v0c0,0.224 0.08033,0.41633 0.241,0.577v0v0c0.16133,0.16133 0.354,0.242 0.578,0.242v0h7.308v0c0.224,0 0.41633,-0.08067 0.577,-0.242v0v0c0.16133,-0.16067 0.242,-0.353 0.242,-0.577v0v-1.869v0c0,-0.224 -0.08067,-0.41667 -0.242,-0.578v0v0c-0.16067,-0.16067 -0.353,-0.241 -0.577,-0.241v0h-7.308v0c-0.7,0 -1.29867,-0.24867 -1.796,-0.746v0v0c-0.49667,-0.49667 -0.745,-1.095 -0.745,-1.795v0v-1.869v0c0,-0.7 0.24833,-1.29867 0.745,-1.796v0v0c0.49733,-0.49667 1.096,-0.745 1.796,-0.745v0h7.308v0c0.714,0 1.31933,0.24833 1.816,0.745v0v0c0.49733,0.49733 0.746,1.096 0.746,1.796v0v0.168h-1.743v-0.168v0c0,-0.224 -0.08067,-0.41667 -0.242,-0.578v0v0c-0.16067,-0.16067 -0.353,-0.241 -0.577,-0.241v0h-7.308v0c-0.224,0 -0.41667,0.08033 -0.578,0.241v0v0c-0.16067,0.16133 -0.241,0.354 -0.241,0.578v0v1.869v0c0,0.224 0.08033,0.41633 0.241,0.577v0v0c0.16133,0.16133 0.354,0.242 0.578,0.242v0h7.308v0c0.714,0 1.31933,0.24833 1.816,0.745v0v0c0.49733,0.49733 0.746,1.096 0.746,1.796v0v1.869v0c0,0.7 -0.24867,1.29833 -0.746,1.795v0v0c-0.49667,0.49733 -1.102,0.746 -1.816,0.746zM304.953,366.651h-1.722v-17.01h9.87v0c0.7,0 1.29833,0.24833 1.795,0.745v0v0c0.49733,0.49733 0.746,1.096 0.746,1.796v0v7.098v0c0,0.7 -0.24867,1.29833 -0.746,1.795v0v0c-0.49667,0.49733 -1.095,0.746 -1.795,0.746v0h-8.148zM305.793,360.099v0h7.308v0c0.224,0 0.41633,-0.08067 0.577,-0.242v0v0c0.16133,-0.16067 0.242,-0.353 0.242,-0.577v0v-7.098v0c0,-0.224 -0.08067,-0.41667 -0.242,-0.578v0v0c-0.16067,-0.16067 -0.353,-0.241 -0.577,-0.241v0h-7.308v0c-0.224,0 -0.42,0.08033 -0.588,0.241v0v0c-0.168,0.16133 -0.252,0.354 -0.252,0.578v0v7.098v0c0,0.224 0.084,0.41633 0.252,0.577v0v0c0.168,0.16133 0.364,0.242 0.588,0.242zM329.523,361.821h-9.87v0c-0.7,0 -1.29867,-0.24867 -1.796,-0.746v0v0c-0.49667,-0.49667 -0.745,-1.095 -0.745,-1.795v0v-7.098v0c0,-0.7 0.24833,-1.29867 0.745,-1.796v0v0c0.49733,-0.49667 1.096,-0.745 1.796,-0.745v0h7.308v0c0.714,0 1.31933,0.24833 1.816,0.745v0v0c0.49733,0.49733 0.746,1.096 0.746,1.796v0v4.41h-10.689v2.688v0c0,0.224 0.08033,0.41633 0.241,0.577v0v0c0.16133,0.16133 0.354,0.242 0.578,0.242v0h9.87zM318.834,352.182v2.688h8.946v-2.688v0c0,-0.224 -0.08067,-0.41667 -0.242,-0.578v0v0c-0.16067,-0.16067 -0.353,-0.241 -0.577,-0.241v0h-7.308v0c-0.224,0 -0.41667,0.08033 -0.578,0.241v0v0c-0.16067,0.16133 -0.241,0.354 -0.241,0.578zM343.635,361.821h-9.87v0c-0.7,0 -1.29867,-0.24867 -1.796,-0.746v0v0c-0.49667,-0.49667 -0.745,-1.095 -0.745,-1.795v0v-7.098v0c0,-0.7 0.24833,-1.29867 0.745,-1.796v0v0c0.49733,-0.49667 1.096,-0.745 1.796,-0.745v0h9.828v1.722h-9.828v0c-0.224,0 -0.41667,0.08033 -0.578,0.241v0v0c-0.16067,0.16133 -0.241,0.354 -0.241,0.578v0v7.098v0c0,0.224 0.08033,0.41633 0.241,0.577v0v0c0.16133,0.16133 0.354,0.242 0.578,0.242v0h9.87zM347.562,361.821h-1.722v-12.18h1.722zM347.562,347.373h-1.722v-1.722h1.722zM350.964,361.821h-1.722v-13.629v0c0,-0.714 0.245,-1.316 0.735,-1.806v0v0c0.49,-0.49 1.092,-0.735 1.806,-0.735v0h4.452v1.722h-4.452v0c-0.224,0 -0.41667,0.08033 -0.578,0.241v0v0c-0.16067,0.16133 -0.241,0.354 -0.241,0.578v0v1.449h5.271v1.722h-5.271zM359.49,361.821h-1.722v-12.18h1.722zM359.49,347.373h-1.722v-1.722h1.722zM374.211,361.821h-9.87v0c-0.7,0 -1.29867,-0.24867 -1.796,-0.746v0v0c-0.49667,-0.49667 -0.745,-1.095 -0.745,-1.795v0v-7.098v0c0,-0.7 0.24833,-1.29867 0.745,-1.796v0v0c0.49733,-0.49667 1.096,-0.745 1.796,-0.745v0h9.828v1.722h-9.828v0c-0.224,0 -0.41667,0.08033 -0.578,0.241v0v0c-0.16067,0.16133 -0.241,0.354 -0.241,0.578v0v7.098v0c0,0.224 0.08033,0.41633 0.241,0.577v0v0c0.16133,0.16133 0.354,0.242 0.578,0.242v0h9.87zM388.827,361.821h-9.87v0c-0.7,0 -1.29867,-0.24867 -1.796,-0.746v0v0c-0.49667,-0.49667 -0.745,-1.095 -0.745,-1.795v0v-4.41h10.668v-2.688v0c0,-0.224 -0.08067,-0.41667 -0.242,-0.578v0v0c-0.16067,-0.16067 -0.353,-0.241 -0.577,-0.241v0h-9.849v-1.722h9.849v0c0.714,0 1.31933,0.24833 1.816,0.745v0v0c0.49733,0.49733 0.746,1.096 0.746,1.796v0zM378.957,360.099v0h8.127v-3.507h-8.946v2.688v0c0,0.224 0.08033,0.41633 0.241,0.577v0v0c0.16133,0.16133 0.354,0.242 0.578,0.242zM395.379,361.821h-2.058v0c-0.7,0 -1.29867,-0.24867 -1.796,-0.746v0v0c-0.49667,-0.49667 -0.745,-1.095 -0.745,-1.795v0v-13.629h1.722v13.629v0c0,0.224 0.08033,0.41633 0.241,0.577v0v0c0.16133,0.16133 0.354,0.242 0.578,0.242v0h2.058zM401.721,361.821h-2.058v0c-0.7,0 -1.29867,-0.24867 -1.796,-0.746v0v0c-0.49667,-0.49667 -0.745,-1.095 -0.745,-1.795v0v-13.629h1.722v13.629v0c0,0.224 0.08033,0.41633 0.241,0.577v0v0c0.16133,0.16133 0.354,0.242 0.578,0.242v0h2.058zM413.103,366.651h-7.602v-1.743h7.602v0c0.224,0 0.41633,-0.08067 0.577,-0.242v0v0c0.16133,-0.16067 0.242,-0.353 0.242,-0.577v0v-2.268h-8.127v0c-0.7,0 -1.29867,-0.24867 -1.796,-0.746v0v0c-0.49667,-0.49667 -0.745,-1.095 -0.745,-1.795v0v-9.597h1.722v9.597v0c0,0.224 0.08033,0.41633 0.241,0.577v0v0c0.16133,0.16133 0.354,0.242 0.578,0.242v0h7.308v0c0.224,0 0.41633,-0.08067 0.577,-0.242v0v0c0.16133,-0.16067 0.242,-0.353 0.242,-0.577v0v-9.597h1.722v14.406v0c0,0.714 -0.245,1.31933 -0.735,1.816v0v0c-0.49,0.49733 -1.092,0.746 -1.806,0.746zM222.045,361.821h-1.743v-12.18h16.086v0c0.714,0 1.316,0.24833 1.806,0.745v0v0c0.49,0.49733 0.735,1.096 0.735,1.796v0v9.639h-1.701v-9.639v0c0,-0.224 -0.084,-0.41667 -0.252,-0.578v0v0c-0.168,-0.16067 -0.364,-0.241 -0.588,-0.241v0h-5.061v0c-0.224,0 -0.41667,0.08033 -0.578,0.241v0v0c-0.16067,0.16133 -0.241,0.354 -0.241,0.578v0v9.639h-1.743v-9.639v0c0,-0.224 -0.08067,-0.41667 -0.242,-0.578v0v0c-0.16067,-0.16067 -0.353,-0.241 -0.577,-0.241v0h-5.082v0c-0.224,0 -0.41667,0.08033 -0.578,0.241v0v0c-0.16067,0.16133 -0.241,0.354 -0.241,0.578v0zM253.209,361.821h-9.87v0c-0.7,0 -1.29867,-0.24867 -1.796,-0.746v0v0c-0.49667,-0.49667 -0.745,-1.095 -0.745,-1.795v0v-4.41h10.668v-2.688v0c0,-0.224 -0.08067,-0.41667 -0.242,-0.578v0v0c-0.16067,-0.16067 -0.353,-0.241 -0.577,-0.241v0h-9.849v-1.722h9.849v0c0.714,0 1.31933,0.24833 1.816,0.745v0v0c0.49733,0.49733 0.746,1.096 0.746,1.796v0zM243.339,360.099v0h8.127v-3.507h-8.946v2.688v0c0,0.224 0.08033,0.41633 0.241,0.577v0v0c0.16133,0.16133 0.354,0.242 0.578,0.242zM267.174,361.821h-9.849v0c-0.714,0 -1.31967,-0.24867 -1.817,-0.746v0v0c-0.49667,-0.49667 -0.745,-1.095 -0.745,-1.795v0v-7.098v0c0,-0.7 0.24833,-1.29867 0.745,-1.796v0v0c0.49733,-0.49667 1.103,-0.745 1.817,-0.745v0h8.127v-3.99h1.722zM257.325,360.099v0h7.308v0c0.224,0 0.41633,-0.08067 0.577,-0.242v0v0c0.16133,-0.16067 0.242,-0.353 0.242,-0.577v0v-7.098v0c0,-0.224 -0.08067,-0.41667 -0.242,-0.578v0v0c-0.16067,-0.16067 -0.353,-0.241 -0.577,-0.241v0h-7.308v0c-0.224,0 -0.41667,0.08033 -0.578,0.241v0v0c-0.16067,0.16133 -0.241,0.354 -0.241,0.578v0v7.098v0c0,0.224 0.08033,0.41633 0.241,0.577v0v0c0.16133,0.16133 0.354,0.242 0.578,0.242zM281.349,361.821h-9.87v0c-0.7,0 -1.29867,-0.24867 -1.796,-0.746v0v0c-0.49667,-0.49667 -0.745,-1.095 -0.745,-1.795v0v-7.098v0c0,-0.7 0.24833,-1.29867 0.745,-1.796v0v0c0.49733,-0.49667 1.096,-0.745 1.796,-0.745v0h7.308v0c0.714,0 1.31933,0.24833 1.816,0.745v0v0c0.49733,0.49733 0.746,1.096 0.746,1.796v0v4.41h-10.689v2.688v0c0,0.224 0.08033,0.41633 0.241,0.577v0v0c0.16133,0.16133 0.354,0.242 0.578,0.242v0h9.87zM270.66,352.182v2.688h8.946v-2.688v0c0,-0.224 -0.08067,-0.41667 -0.242,-0.578v0v0c-0.16067,-0.16067 -0.353,-0.241 -0.577,-0.241v0h-7.308v0c-0.224,0 -0.41667,0.08033 -0.578,0.241v0v0c-0.16067,0.16133 -0.241,0.354 -0.241,0.578zM197.496,361.821h-1.722v-12.18h1.722zM197.496,347.373h-1.722v-1.722h1.722zM209.907,361.821h-7.308v0c-0.7,0 -1.29867,-0.24867 -1.796,-0.746v0v0c-0.49667,-0.49667 -0.745,-1.095 -0.745,-1.795v0v-0.168h1.722v0.168v0c0,0.224 0.08033,0.41633 0.241,0.577v0v0c0.16133,0.16133 0.354,0.242 0.578,0.242v0h7.308v0c0.224,0 0.41633,-0.08067 0.577,-0.242v0v0c0.16133,-0.16067 0.242,-0.353 0.242,-0.577v0v-1.869v0c0,-0.224 -0.08067,-0.41667 -0.242,-0.578v0v0c-0.16067,-0.16067 -0.353,-0.241 -0.577,-0.241v0h-7.308v0c-0.7,0 -1.29867,-0.24867 -1.796,-0.746v0v0c-0.49667,-0.49667 -0.745,-1.095 -0.745,-1.795v0v-1.869v0c0,-0.7 0.24833,-1.29867 0.745,-1.796v0v0c0.49733,-0.49667 1.096,-0.745 1.796,-0.745v0h7.308v0c0.714,0 1.31933,0.24833 1.816,0.745v0v0c0.49733,0.49733 0.746,1.096 0.746,1.796v0v0.168h-1.743v-0.168v0c0,-0.224 -0.08067,-0.41667 -0.242,-0.578v0v0c-0.16067,-0.16067 -0.353,-0.241 -0.577,-0.241v0h-7.308v0c-0.224,0 -0.41667,0.08033 -0.578,0.241v0v0c-0.16067,0.16133 -0.241,0.354 -0.241,0.578v0v1.869v0c0,0.224 0.08033,0.41633 0.241,0.577v0v0c0.16133,0.16133 0.354,0.242 0.578,0.242v0h7.308v0c0.714,0 1.31933,0.24833 1.816,0.745v0v0c0.49733,0.49733 0.746,1.096 0.746,1.796v0v1.869v0c0,0.7 -0.24867,1.29833 -0.746,1.795v0v0c-0.49667,0.49733 -1.102,0.746 -1.816,0.746zM76.032,361.821h-13.797v-15.12h13.797v1.701h-12.096v4.998h9.723v1.722h-9.723v4.998h12.096zM93.357,361.821h-12.558v0c-0.7,0 -1.295,-0.245 -1.785,-0.735v0v0c-0.49,-0.49 -0.735,-1.085 -0.735,-1.785v0v-10.08v0c0,-0.7 0.245,-1.295 0.735,-1.785v0v0c0.49,-0.49 1.085,-0.735 1.785,-0.735v0h12.558v1.701h-12.558v0c-0.224,0 -0.41667,0.08033 -0.578,0.241v0v0c-0.16067,0.16133 -0.241,0.354 -0.241,0.578v0v10.08v0c0,0.224 0.08033,0.41633 0.241,0.577v0v0c0.16133,0.16133 0.354,0.242 0.578,0.242v0h12.558zM108.099,361.821h-10.08v0c-0.7,0 -1.295,-0.245 -1.785,-0.735v0v0c-0.49,-0.49 -0.735,-1.085 -0.735,-1.785v0v-10.08v0c0,-0.7 0.245,-1.295 0.735,-1.785v0v0c0.49,-0.49 1.085,-0.735 1.785,-0.735v0h10.08v0c0.7,0 1.295,0.245 1.785,0.735v0v0c0.49,0.49 0.735,1.085 0.735,1.785v0v10.08v0c0,0.7 -0.245,1.295 -0.735,1.785v0v0c-0.49,0.49 -1.085,0.735 -1.785,0.735zM98.019,360.12v0h10.08v0c0.224,0 0.41633,-0.08067 0.577,-0.242v0v0c0.16133,-0.16067 0.242,-0.353 0.242,-0.577v0v-10.08v0c0,-0.224 -0.08067,-0.41667 -0.242,-0.578v0v0c-0.16067,-0.16067 -0.353,-0.241 -0.577,-0.241v0h-10.08v0c-0.224,0 -0.41667,0.08033 -0.578,0.241v0v0c-0.16067,0.16133 -0.241,0.354 -0.241,0.578v0v10.08v0c0,0.224 0.08033,0.41633 0.241,0.577v0v0c0.16133,0.16133 0.354,0.242 0.578,0.242zM114.609,361.821h-1.722v-12.18h9.87v0c0.7,0 1.29833,0.24833 1.795,0.745v0v0c0.49733,0.49733 0.746,1.096 0.746,1.796v0v9.639h-1.722v-9.639v0c0,-0.224 -0.08067,-0.41667 -0.242,-0.578v0v0c-0.16067,-0.16067 -0.353,-0.241 -0.577,-0.241v0h-7.308v0c-0.224,0 -0.42,0.08033 -0.588,0.241v0v0c-0.168,0.16133 -0.252,0.354 -0.252,0.578v0zM139.431,361.821h-9.87v0c-0.7,0 -1.29867,-0.24867 -1.796,-0.746v0v0c-0.49667,-0.49667 -0.745,-1.095 -0.745,-1.795v0v-7.098v0c0,-0.7 0.24833,-1.29867 0.745,-1.796v0v0c0.49733,-0.49667 1.096,-0.745 1.796,-0.745v0h9.828v1.722h-9.828v0c-0.224,0 -0.41667,0.08033 -0.578,0.241v0v0c-0.16067,0.16133 -0.241,0.354 -0.241,0.578v0v7.098v0c0,0.224 0.08033,0.41633 0.241,0.577v0v0c0.16133,0.16133 0.354,0.242 0.578,0.242v0h9.87zM143.358,361.821h-1.722v-9.639v0c0,-0.7 0.24833,-1.29867 0.745,-1.796v0v0c0.49733,-0.49667 1.096,-0.745 1.796,-0.745v0h6.846v1.722h-6.846v0c-0.224,0 -0.41667,0.08033 -0.578,0.241v0v0c-0.16067,0.16133 -0.241,0.354 -0.241,0.578v0zM164.778,361.821h-9.87v0c-0.7,0 -1.29867,-0.24867 -1.796,-0.746v0v0c-0.49667,-0.49667 -0.745,-1.095 -0.745,-1.795v0v-7.098v0c0,-0.7 0.24833,-1.29867 0.745,-1.796v0v0c0.49733,-0.49667 1.096,-0.745 1.796,-0.745v0h7.308v0c0.714,0 1.31933,0.24833 1.816,0.745v0v0c0.49733,0.49733 0.746,1.096 0.746,1.796v0v4.41h-10.689v2.688v0c0,0.224 0.08033,0.41633 0.241,0.577v0v0c0.16133,0.16133 0.354,0.242 0.578,0.242v0h9.87zM154.089,352.182v2.688h8.946v-2.688v0c0,-0.224 -0.08067,-0.41667 -0.242,-0.578v0v0c-0.16067,-0.16067 -0.353,-0.241 -0.577,-0.241v0h-7.308v0c-0.224,0 -0.41667,0.08033 -0.578,0.241v0v0c-0.16067,0.16133 -0.241,0.354 -0.241,0.578zM173.934,361.821h-4.452v0c-0.714,0 -1.316,-0.24867 -1.806,-0.746v0v0c-0.49,-0.49667 -0.735,-1.095 -0.735,-1.795v0v-13.629h1.722v3.99h5.271v1.722h-5.271v7.917v0c0,0.224 0.08033,0.41633 0.241,0.577v0v0c0.16133,0.16133 0.354,0.242 0.578,0.242v0h4.452zM187.92,361.821h-9.87v0c-0.7,0 -1.29867,-0.24867 -1.796,-0.746v0v0c-0.49667,-0.49667 -0.745,-1.095 -0.745,-1.795v0v-7.098v0c0,-0.7 0.24833,-1.29867 0.745,-1.796v0v0c0.49733,-0.49667 1.096,-0.745 1.796,-0.745v0h7.308v0c0.714,0 1.31933,0.24833 1.816,0.745v0v0c0.49733,0.49733 0.746,1.096 0.746,1.796v0v4.41h-10.689v2.688v0c0,0.224 0.08033,0.41633 0.241,0.577v0v0c0.16133,0.16133 0.354,0.242 0.578,0.242v0h9.87zM177.231,352.182v2.688h8.946v-2.688v0c0,-0.224 -0.08067,-0.41667 -0.242,-0.578v0v0c-0.16067,-0.16067 -0.353,-0.241 -0.577,-0.241v0h-7.308v0c-0.224,0 -0.41667,0.08033 -0.578,0.241v0v0c-0.16067,0.16133 -0.241,0.354 -0.241,0.578zM294.264,335.487h-9.87v0c-0.7,0 -1.29867,-0.24867 -1.796,-0.746v0v0c-0.49667,-0.49667 -0.745,-1.095 -0.745,-1.795v0v-7.098v0c0,-0.7 0.24833,-1.29867 0.745,-1.796v0v0c0.49733,-0.49667 1.096,-0.745 1.796,-0.745v0h9.828v1.722h-9.828v0c-0.224,0 -0.41667,0.08033 -0.578,0.241v0v0c-0.16067,0.16133 -0.241,0.354 -0.241,0.578v0v7.098v0c0,0.224 0.08033,0.41633 0.241,0.577v0v0c0.16133,0.16133 0.354,0.242 0.578,0.242v0h9.87zM297.918,335.487h-1.722v-16.17h1.722v3.99h8.148v0c0.686,0 1.281,0.24833 1.785,0.745v0v0c0.504,0.49733 0.756,1.096 0.756,1.796v0v9.639h-1.722v-9.639v0c0,-0.224 -0.08067,-0.41667 -0.242,-0.578v0v0c-0.16067,-0.16067 -0.353,-0.241 -0.577,-0.241v0h-7.308v0c-0.224,0 -0.42,0.08033 -0.588,0.241v0v0c-0.168,0.16133 -0.252,0.354 -0.252,0.578v0zM311.904,335.487h-1.722v-9.639v0c0,-0.7 0.24833,-1.29867 0.745,-1.796v0v0c0.49733,-0.49667 1.096,-0.745 1.796,-0.745v0h6.846v1.722h-6.846v0c-0.224,0 -0.41667,0.08033 -0.578,0.241v0v0c-0.16067,0.16133 -0.241,0.354 -0.241,0.578v0zM330.657,335.487h-7.308v0c-0.7,0 -1.29867,-0.24867 -1.796,-0.746v0v0c-0.49667,-0.49667 -0.745,-1.095 -0.745,-1.795v0v-7.098v0c0,-0.7 0.24833,-1.29867 0.745,-1.796v0v0c0.49733,-0.49667 1.096,-0.745 1.796,-0.745v0h7.308v0c0.714,0 1.31933,0.24833 1.816,0.745v0v0c0.49733,0.49733 0.746,1.096 0.746,1.796v0v7.098v0c0,0.7 -0.24867,1.29833 -0.746,1.795v0v0c-0.49667,0.49733 -1.102,0.746 -1.816,0.746zM323.349,333.765v0h7.308v0c0.224,0 0.41633,-0.08067 0.577,-0.242v0v0c0.16133,-0.16067 0.242,-0.353 0.242,-0.577v0v-7.098v0c0,-0.224 -0.08067,-0.41667 -0.242,-0.578v0v0c-0.16067,-0.16067 -0.353,-0.241 -0.577,-0.241v0h-7.308v0c-0.224,0 -0.41667,0.08033 -0.578,0.241v0v0c-0.16067,0.16133 -0.241,0.354 -0.241,0.578v0v7.098v0c0,0.224 0.08033,0.41633 0.241,0.577v0v0c0.16133,0.16133 0.354,0.242 0.578,0.242zM337.146,335.487h-1.743v-12.18h16.086v0c0.714,0 1.316,0.24833 1.806,0.745v0v0c0.49,0.49733 0.735,1.096 0.735,1.796v0v9.639h-1.701v-9.639v0c0,-0.224 -0.084,-0.41667 -0.252,-0.578v0v0c-0.168,-0.16067 -0.364,-0.241 -0.588,-0.241v0h-5.061v0c-0.224,0 -0.41667,0.08033 -0.578,0.241v0v0c-0.16067,0.16133 -0.241,0.354 -0.241,0.578v0v9.639h-1.743v-9.639v0c0,-0.224 -0.08067,-0.41667 -0.242,-0.578v0v0c-0.16067,-0.16067 -0.353,-0.241 -0.577,-0.241v0h-5.082v0c-0.224,0 -0.41667,0.08033 -0.578,0.241v0v0c-0.16067,0.16133 -0.241,0.354 -0.241,0.578v0zM357.621,335.487h-1.722v-12.18h1.722zM357.621,321.039h-1.722v-1.722h1.722zM370.137,335.487h-7.308v0c-0.7,0 -1.29867,-0.24867 -1.796,-0.746v0v0c-0.49667,-0.49667 -0.745,-1.095 -0.745,-1.795v0v-9.639h1.722v9.639v0c0,0.224 0.08033,0.41633 0.241,0.577v0v0c0.16133,0.16133 0.354,0.242 0.578,0.242v0h7.308v0c0.224,0 0.42,-0.08067 0.588,-0.242v0v0c0.168,-0.16067 0.252,-0.353 0.252,-0.577v0v-9.639h1.722v9.639v0c0,0.7 -0.24867,1.29833 -0.746,1.795v0v0c-0.49667,0.49733 -1.102,0.746 -1.816,0.746zM376.227,335.487h-1.743v-12.18h16.086v0c0.714,0 1.316,0.24833 1.806,0.745v0v0c0.49,0.49733 0.735,1.096 0.735,1.796v0v9.639h-1.701v-9.639v0c0,-0.224 -0.084,-0.41667 -0.252,-0.578v0v0c-0.168,-0.16067 -0.364,-0.241 -0.588,-0.241v0h-5.061v0c-0.224,0 -0.41667,0.08033 -0.578,0.241v0v0c-0.16067,0.16133 -0.241,0.354 -0.241,0.578v0v9.639h-1.743v-9.639v0c0,-0.224 -0.08067,-0.41667 -0.242,-0.578v0v0c-0.16067,-0.16067 -0.353,-0.241 -0.577,-0.241v0h-5.082v0c-0.224,0 -0.41667,0.08033 -0.578,0.241v0v0c-0.16067,0.16133 -0.241,0.354 -0.241,0.578v0zM396.744,335.487h-1.722v-1.722h1.722zM245.691,335.487h-9.87v0c-0.7,0 -1.29867,-0.24867 -1.796,-0.746v0v0c-0.49667,-0.49667 -0.745,-1.095 -0.745,-1.795v0v-4.41h10.668v-2.688v0c0,-0.224 -0.08067,-0.41667 -0.242,-0.578v0v0c-0.16067,-0.16067 -0.353,-0.241 -0.577,-0.241v0h-9.849v-1.722h9.849v0c0.714,0 1.31933,0.24833 1.816,0.745v0v0c0.49733,0.49733 0.746,1.096 0.746,1.796v0zM235.821,333.765v0h8.127v-3.507h-8.946v2.688v0c0,0.224 0.08033,0.41633 0.241,0.577v0v0c0.16133,0.16133 0.354,0.242 0.578,0.242zM249.303,335.487h-1.722v-12.18h9.87v0c0.7,0 1.29833,0.24833 1.795,0.745v0v0c0.49733,0.49733 0.746,1.096 0.746,1.796v0v9.639h-1.722v-9.639v0c0,-0.224 -0.08067,-0.41667 -0.242,-0.578v0v0c-0.16067,-0.16067 -0.353,-0.241 -0.577,-0.241v0h-7.308v0c-0.224,0 -0.42,0.08033 -0.588,0.241v0v0c-0.168,0.16133 -0.252,0.354 -0.252,0.578v0zM273.957,335.487h-9.849v0c-0.714,0 -1.31967,-0.24867 -1.817,-0.746v0v0c-0.49667,-0.49667 -0.745,-1.095 -0.745,-1.795v0v-7.098v0c0,-0.7 0.24833,-1.29867 0.745,-1.796v0v0c0.49733,-0.49667 1.103,-0.745 1.817,-0.745v0h8.127v-3.99h1.722zM264.108,333.765v0h7.308v0c0.224,0 0.41633,-0.08067 0.577,-0.242v0v0c0.16133,-0.16067 0.242,-0.353 0.242,-0.577v0v-7.098v0c0,-0.224 -0.08067,-0.41667 -0.242,-0.578v0v0c-0.16067,-0.16067 -0.353,-0.241 -0.577,-0.241v0h-7.308v0c-0.224,0 -0.41667,0.08033 -0.578,0.241v0v0c-0.16067,0.16133 -0.241,0.354 -0.241,0.578v0v7.098v0c0,0.224 0.08033,0.41633 0.241,0.577v0v0c0.16133,0.16133 0.354,0.242 0.578,0.242zM168.747,335.487h-7.308v0c-0.7,0 -1.29867,-0.24867 -1.796,-0.746v0v0c-0.49667,-0.49667 -0.745,-1.095 -0.745,-1.795v0v-0.168h1.722v0.168v0c0,0.224 0.08033,0.41633 0.241,0.577v0v0c0.16133,0.16133 0.354,0.242 0.578,0.242v0h7.308v0c0.224,0 0.41633,-0.08067 0.577,-0.242v0v0c0.16133,-0.16067 0.242,-0.353 0.242,-0.577v0v-1.869v0c0,-0.224 -0.08067,-0.41667 -0.242,-0.578v0v0c-0.16067,-0.16067 -0.353,-0.241 -0.577,-0.241v0h-7.308v0c-0.7,0 -1.29867,-0.24867 -1.796,-0.746v0v0c-0.49667,-0.49667 -0.745,-1.095 -0.745,-1.795v0v-1.869v0c0,-0.7 0.24833,-1.29867 0.745,-1.796v0v0c0.49733,-0.49667 1.096,-0.745 1.796,-0.745v0h7.308v0c0.714,0 1.31933,0.24833 1.816,0.745v0v0c0.49733,0.49733 0.746,1.096 0.746,1.796v0v0.168h-1.743v-0.168v0c0,-0.224 -0.08067,-0.41667 -0.242,-0.578v0v0c-0.16067,-0.16067 -0.353,-0.241 -0.577,-0.241v0h-7.308v0c-0.224,0 -0.41667,0.08033 -0.578,0.241v0v0c-0.16067,0.16133 -0.241,0.354 -0.241,0.578v0v1.869v0c0,0.224 0.08033,0.41633 0.241,0.577v0v0c0.16133,0.16133 0.354,0.242 0.578,0.242v0h7.308v0c0.714,0 1.31933,0.24833 1.816,0.745v0v0c0.49733,0.49733 0.746,1.096 0.746,1.796v0v1.869v0c0,0.7 -0.24867,1.29833 -0.746,1.795v0v0c-0.49667,0.49733 -1.102,0.746 -1.816,0.746zM182.838,335.487h-7.308v0c-0.7,0 -1.29867,-0.24867 -1.796,-0.746v0v0c-0.49667,-0.49667 -0.745,-1.095 -0.745,-1.795v0v-9.639h1.722v9.639v0c0,0.224 0.08033,0.41633 0.241,0.577v0v0c0.16133,0.16133 0.354,0.242 0.578,0.242v0h7.308v0c0.224,0 0.42,-0.08067 0.588,-0.242v0v0c0.168,-0.16067 0.252,-0.353 0.252,-0.577v0v-9.639h1.722v9.639v0c0,0.7 -0.24867,1.29833 -0.746,1.795v0v0c-0.49667,0.49733 -1.102,0.746 -1.816,0.746zM192.162,335.487h-2.058v0c-0.7,0 -1.29867,-0.24867 -1.796,-0.746v0v0c-0.49667,-0.49667 -0.745,-1.095 -0.745,-1.795v0v-13.629h1.722v13.629v0c0,0.224 0.08033,0.41633 0.241,0.577v0v0c0.16133,0.16133 0.354,0.242 0.578,0.242v0h2.058zM195.648,335.487h-1.722v-13.629v0c0,-0.714 0.245,-1.316 0.735,-1.806v0v0c0.49,-0.49 1.092,-0.735 1.806,-0.735v0h4.452v1.722h-4.452v0c-0.224,0 -0.41667,0.08033 -0.578,0.241v0v0c-0.16067,0.16133 -0.241,0.354 -0.241,0.578v0v1.449h5.271v1.722h-5.271zM212.532,335.487h-7.308v0c-0.7,0 -1.29867,-0.24867 -1.796,-0.746v0v0c-0.49667,-0.49667 -0.745,-1.095 -0.745,-1.795v0v-9.639h1.722v9.639v0c0,0.224 0.08033,0.41633 0.241,0.577v0v0c0.16133,0.16133 0.354,0.242 0.578,0.242v0h7.308v0c0.224,0 0.42,-0.08067 0.588,-0.242v0v0c0.168,-0.16067 0.252,-0.353 0.252,-0.577v0v-9.639h1.722v9.639v0c0,0.7 -0.24867,1.29833 -0.746,1.795v0v0c-0.49667,0.49733 -1.102,0.746 -1.816,0.746zM218.979,335.487h-1.722v-9.639v0c0,-0.7 0.24833,-1.29867 0.745,-1.796v0v0c0.49733,-0.49667 1.096,-0.745 1.796,-0.745v0h6.846v1.722h-6.846v0c-0.224,0 -0.41667,0.08033 -0.578,0.241v0v0c-0.16067,0.16133 -0.241,0.354 -0.241,0.578v0zM222.948,338.238v0v-4.473h1.722v2.058v0c0,0.56 -0.161,1.06033 -0.483,1.501v0v0c-0.322,0.44133 -0.735,0.746 -1.239,0.914zM74.52,335.487h-9.87v0c-0.7,0 -1.29867,-0.24867 -1.796,-0.746v0v0c-0.49667,-0.49667 -0.745,-1.095 -0.745,-1.795v0v-4.41h10.668v-2.688v0c0,-0.224 -0.08067,-0.41667 -0.242,-0.578v0v0c-0.16067,-0.16067 -0.353,-0.241 -0.577,-0.241v0h-9.849v-1.722h9.849v0c0.714,0 1.31933,0.24833 1.816,0.745v0v0c0.49733,0.49733 0.746,1.096 0.746,1.796v0zM64.65,333.765v0h8.127v-3.507h-8.946v2.688v0c0,0.224 0.08033,0.41633 0.241,0.577v0v0c0.16133,0.16133 0.354,0.242 0.578,0.242zM78.3,335.487h-1.722v-9.639v0c0,-0.7 0.24833,-1.29867 0.745,-1.796v0v0c0.49733,-0.49667 1.096,-0.745 1.796,-0.745v0h6.846v1.722h-6.846v0c-0.224,0 -0.41667,0.08033 -0.578,0.241v0v0c-0.16067,0.16133 -0.241,0.354 -0.241,0.578v0zM97.095,335.487h-7.308v0c-0.7,0 -1.29867,-0.24867 -1.796,-0.746v0v0c-0.49667,-0.49667 -0.745,-1.095 -0.745,-1.795v0v-0.168h1.722v0.168v0c0,0.224 0.08033,0.41633 0.241,0.577v0v0c0.16133,0.16133 0.354,0.242 0.578,0.242v0h7.308v0c0.224,0 0.41633,-0.08067 0.577,-0.242v0v0c0.16133,-0.16067 0.242,-0.353 0.242,-0.577v0v-1.869v0c0,-0.224 -0.08067,-0.41667 -0.242,-0.578v0v0c-0.16067,-0.16067 -0.353,-0.241 -0.577,-0.241v0h-7.308v0c-0.7,0 -1.29867,-0.24867 -1.796,-0.746v0v0c-0.49667,-0.49667 -0.745,-1.095 -0.745,-1.795v0v-1.869v0c0,-0.7 0.24833,-1.29867 0.745,-1.796v0v0c0.49733,-0.49667 1.096,-0.745 1.796,-0.745v0h7.308v0c0.714,0 1.31933,0.24833 1.816,0.745v0v0c0.49733,0.49733 0.746,1.096 0.746,1.796v0v0.168h-1.743v-0.168v0c0,-0.224 -0.08067,-0.41667 -0.242,-0.578v0v0c-0.16067,-0.16067 -0.353,-0.241 -0.577,-0.241v0h-7.308v0c-0.224,0 -0.41667,0.08033 -0.578,0.241v0v0c-0.16067,0.16133 -0.241,0.354 -0.241,0.578v0v1.869v0c0,0.224 0.08033,0.41633 0.241,0.577v0v0c0.16133,0.16133 0.354,0.242 0.578,0.242v0h7.308v0c0.714,0 1.31933,0.24833 1.816,0.745v0v0c0.49733,0.49733 0.746,1.096 0.746,1.796v0v1.869v0c0,0.7 -0.24867,1.29833 -0.746,1.795v0v0c-0.49667,0.49733 -1.102,0.746 -1.816,0.746zM113.811,335.487h-9.87v0c-0.7,0 -1.29867,-0.24867 -1.796,-0.746v0v0c-0.49667,-0.49667 -0.745,-1.095 -0.745,-1.795v0v-7.098v0c0,-0.7 0.24833,-1.29867 0.745,-1.796v0v0c0.49733,-0.49667 1.096,-0.745 1.796,-0.745v0h7.308v0c0.714,0 1.31933,0.24833 1.816,0.745v0v0c0.49733,0.49733 0.746,1.096 0.746,1.796v0v4.41h-10.689v2.688v0c0,0.224 0.08033,0.41633 0.241,0.577v0v0c0.16133,0.16133 0.354,0.242 0.578,0.242v0h9.87zM103.122,325.848v2.688h8.946v-2.688v0c0,-0.224 -0.08067,-0.41667 -0.242,-0.578v0v0c-0.16067,-0.16067 -0.353,-0.241 -0.577,-0.241v0h-7.308v0c-0.224,0 -0.41667,0.08033 -0.578,0.241v0v0c-0.16067,0.16133 -0.241,0.354 -0.241,0.578zM117.717,335.487h-1.722v-12.18h9.87v0c0.7,0 1.29833,0.24833 1.795,0.745v0v0c0.49733,0.49733 0.746,1.096 0.746,1.796v0v9.639h-1.722v-9.639v0c0,-0.224 -0.08067,-0.41667 -0.242,-0.578v0v0c-0.16067,-0.16067 -0.353,-0.241 -0.577,-0.241v0h-7.308v0c-0.224,0 -0.42,0.08033 -0.588,0.241v0v0c-0.168,0.16133 -0.252,0.354 -0.252,0.578v0zM132.291,335.487h-1.722v-12.18h1.722zM132.291,321.039h-1.722v-1.722h1.722zM147.012,335.487h-9.87v0c-0.7,0 -1.29867,-0.24867 -1.796,-0.746v0v0c-0.49667,-0.49667 -0.745,-1.095 -0.745,-1.795v0v-7.098v0c0,-0.7 0.24833,-1.29867 0.745,-1.796v0v0c0.49733,-0.49667 1.096,-0.745 1.796,-0.745v0h9.828v1.722h-9.828v0c-0.224,0 -0.41667,0.08033 -0.578,0.241v0v0c-0.16067,0.16133 -0.241,0.354 -0.241,0.578v0v7.098v0c0,0.224 0.08033,0.41633 0.241,0.577v0v0c0.16133,0.16133 0.354,0.242 0.578,0.242v0h9.87zM149.259,338.238v0v-4.473h1.722v2.058v0c0,0.56 -0.161,1.06033 -0.483,1.501v0v0c-0.322,0.44133 -0.735,0.746 -1.239,0.914zM318.771,309.153h-2.058v0c-0.7,0 -1.29867,-0.24867 -1.796,-0.746v0v0c-0.49667,-0.49667 -0.745,-1.095 -0.745,-1.795v0v-13.629h1.722v13.629v0c0,0.224 0.08033,0.41633 0.241,0.577v0v0c0.16133,0.16133 0.354,0.242 0.578,0.242v0h2.058zM322.236,309.153h-1.722v-12.18h1.722zM322.236,294.705h-1.722v-1.722h1.722zM326.646,309.153h-1.722v-16.17h1.722v9.219h3.36l4.788,-5.229h2.268v0.021l-5.523,6.069l5.502,6.069v0.021h-2.247l-4.788,-5.229h-3.36zM350.733,309.153h-9.87v0c-0.7,0 -1.29867,-0.24867 -1.796,-0.746v0v0c-0.49667,-0.49667 -0.745,-1.095 -0.745,-1.795v0v-7.098v0c0,-0.7 0.24833,-1.29867 0.745,-1.796v0v0c0.49733,-0.49667 1.096,-0.745 1.796,-0.745v0h7.308v0c0.714,0 1.31933,0.24833 1.816,0.745v0v0c0.49733,0.49733 0.746,1.096 0.746,1.796v0v4.41h-10.689v2.688v0c0,0.224 0.08033,0.41633 0.241,0.577v0v0c0.16133,0.16133 0.354,0.242 0.578,0.242v0h9.87zM340.044,299.514v2.688h8.946v-2.688v0c0,-0.224 -0.08067,-0.41667 -0.242,-0.578v0v0c-0.16067,-0.16067 -0.353,-0.241 -0.577,-0.241v0h-7.308v0c-0.224,0 -0.41667,0.08033 -0.578,0.241v0v0c-0.16067,0.16133 -0.241,0.354 -0.241,0.578zM203.712,309.153h-9.87v0c-0.7,0 -1.29867,-0.24867 -1.796,-0.746v0v0c-0.49667,-0.49667 -0.745,-1.095 -0.745,-1.795v0v-7.098v0c0,-0.7 0.24833,-1.29867 0.745,-1.796v0v0c0.49733,-0.49667 1.096,-0.745 1.796,-0.745v0h9.828v1.722h-9.828v0c-0.224,0 -0.41667,0.08033 -0.578,0.241v0v0c-0.16067,0.16133 -0.241,0.354 -0.241,0.578v0v7.098v0c0,0.224 0.08033,0.41633 0.241,0.577v0v0c0.16133,0.16133 0.354,0.242 0.578,0.242v0h9.87zM207.366,309.153h-1.722v-16.17h1.722v3.99h8.148v0c0.686,0 1.281,0.24833 1.785,0.745v0v0c0.504,0.49733 0.756,1.096 0.756,1.796v0v9.639h-1.722v-9.639v0c0,-0.224 -0.08067,-0.41667 -0.242,-0.578v0v0c-0.16067,-0.16067 -0.353,-0.241 -0.577,-0.241v0h-7.308v0c-0.224,0 -0.42,0.08033 -0.588,0.241v0v0c-0.168,0.16133 -0.252,0.354 -0.252,0.578v0zM232.02,309.153h-9.87v0c-0.7,0 -1.29867,-0.24867 -1.796,-0.746v0v0c-0.49667,-0.49667 -0.745,-1.095 -0.745,-1.795v0v-7.098v0c0,-0.7 0.24833,-1.29867 0.745,-1.796v0v0c0.49733,-0.49667 1.096,-0.745 1.796,-0.745v0h7.308v0c0.714,0 1.31933,0.24833 1.816,0.745v0v0c0.49733,0.49733 0.746,1.096 0.746,1.796v0v4.41h-10.689v2.688v0c0,0.224 0.08033,0.41633 0.241,0.577v0v0c0.16133,0.16133 0.354,0.242 0.578,0.242v0h9.87zM221.331,299.514v2.688h8.946v-2.688v0c0,-0.224 -0.08067,-0.41667 -0.242,-0.578v0v0c-0.16067,-0.16067 -0.353,-0.241 -0.577,-0.241v0h-7.308v0c-0.224,0 -0.41667,0.08033 -0.578,0.241v0v0c-0.16067,0.16133 -0.241,0.354 -0.241,0.578zM235.947,309.153h-1.743v-12.18h16.086v0c0.714,0 1.316,0.24833 1.806,0.745v0v0c0.49,0.49733 0.735,1.096 0.735,1.796v0v9.639h-1.701v-9.639v0c0,-0.224 -0.084,-0.41667 -0.252,-0.578v0v0c-0.168,-0.16067 -0.364,-0.241 -0.588,-0.241v0h-5.061v0c-0.224,0 -0.41667,0.08033 -0.578,0.241v0v0c-0.16067,0.16133 -0.241,0.354 -0.241,0.578v0v9.639h-1.743v-9.639v0c0,-0.224 -0.08067,-0.41667 -0.242,-0.578v0v0c-0.16067,-0.16067 -0.353,-0.241 -0.577,-0.241v0h-5.082v0c-0.224,0 -0.41667,0.08033 -0.578,0.241v0v0c-0.16067,0.16133 -0.241,0.354 -0.241,0.578v0zM256.422,309.153h-1.722v-12.18h1.722zM256.422,294.705h-1.722v-1.722h1.722zM271.143,309.153h-9.87v0c-0.7,0 -1.29867,-0.24867 -1.796,-0.746v0v0c-0.49667,-0.49667 -0.745,-1.095 -0.745,-1.795v0v-7.098v0c0,-0.7 0.24833,-1.29867 0.745,-1.796v0v0c0.49733,-0.49667 1.096,-0.745 1.796,-0.745v0h9.828v1.722h-9.828v0c-0.224,0 -0.41667,0.08033 -0.578,0.241v0v0c-0.16067,0.16133 -0.241,0.354 -0.241,0.578v0v7.098v0c0,0.224 0.08033,0.41633 0.241,0.577v0v0c0.16133,0.16133 0.354,0.242 0.578,0.242v0h9.87zM285.759,309.153h-9.87v0c-0.7,0 -1.29867,-0.24867 -1.796,-0.746v0v0c-0.49667,-0.49667 -0.745,-1.095 -0.745,-1.795v0v-4.41h10.668v-2.688v0c0,-0.224 -0.08067,-0.41667 -0.242,-0.578v0v0c-0.16067,-0.16067 -0.353,-0.241 -0.577,-0.241v0h-9.849v-1.722h9.849v0c0.714,0 1.31933,0.24833 1.816,0.745v0v0c0.49733,0.49733 0.746,1.096 0.746,1.796v0zM275.889,307.431v0h8.127v-3.507h-8.946v2.688v0c0,0.224 0.08033,0.41633 0.241,0.577v0v0c0.16133,0.16133 0.354,0.242 0.578,0.242zM292.311,309.153h-2.058v0c-0.7,0 -1.29867,-0.24867 -1.796,-0.746v0v0c-0.49667,-0.49667 -0.745,-1.095 -0.745,-1.795v0v-13.629h1.722v13.629v0c0,0.224 0.08033,0.41633 0.241,0.577v0v0c0.16133,0.16133 0.354,0.242 0.578,0.242v0h2.058zM303.819,309.153h-7.308v0c-0.7,0 -1.29867,-0.24867 -1.796,-0.746v0v0c-0.49667,-0.49667 -0.745,-1.095 -0.745,-1.795v0v-0.168h1.722v0.168v0c0,0.224 0.08033,0.41633 0.241,0.577v0v0c0.16133,0.16133 0.354,0.242 0.578,0.242v0h7.308v0c0.224,0 0.41633,-0.08067 0.577,-0.242v0v0c0.16133,-0.16067 0.242,-0.353 0.242,-0.577v0v-1.869v0c0,-0.224 -0.08067,-0.41667 -0.242,-0.578v0v0c-0.16067,-0.16067 -0.353,-0.241 -0.577,-0.241v0h-7.308v0c-0.7,0 -1.29867,-0.24867 -1.796,-0.746v0v0c-0.49667,-0.49667 -0.745,-1.095 -0.745,-1.795v0v-1.869v0c0,-0.7 0.24833,-1.29867 0.745,-1.796v0v0c0.49733,-0.49667 1.096,-0.745 1.796,-0.745v0h7.308v0c0.714,0 1.31933,0.24833 1.816,0.745v0v0c0.49733,0.49733 0.746,1.096 0.746,1.796v0v0.168h-1.743v-0.168v0c0,-0.224 -0.08067,-0.41667 -0.242,-0.578v0v0c-0.16067,-0.16067 -0.353,-0.241 -0.577,-0.241v0h-7.308v0c-0.224,0 -0.41667,0.08033 -0.578,0.241v0v0c-0.16067,0.16133 -0.241,0.354 -0.241,0.578v0v1.869v0c0,0.224 0.08033,0.41633 0.241,0.577v0v0c0.16133,0.16133 0.354,0.242 0.578,0.242v0h7.308v0c0.714,0 1.31933,0.24833 1.816,0.745v0v0c0.49733,0.49733 0.746,1.096 0.746,1.796v0v1.869v0c0,0.7 -0.24867,1.29833 -0.746,1.795v0v0c-0.49667,0.49733 -1.102,0.746 -1.816,0.746zM63.873,309.153h-1.722v-16.17h1.722v3.99h8.148v0c0.686,0 1.281,0.24833 1.785,0.745v0v0c0.504,0.49733 0.756,1.096 0.756,1.796v0v9.639h-1.722v-9.639v0c0,-0.224 -0.08067,-0.41667 -0.242,-0.578v0v0c-0.16067,-0.16067 -0.353,-0.241 -0.577,-0.241v0h-7.308v0c-0.224,0 -0.42,0.08033 -0.588,0.241v0v0c-0.168,0.16133 -0.252,0.354 -0.252,0.578v0zM88.653,309.153h-9.87v0c-0.7,0 -1.29867,-0.24867 -1.796,-0.746v0v0c-0.49667,-0.49667 -0.745,-1.095 -0.745,-1.795v0v-4.41h10.668v-2.688v0c0,-0.224 -0.08067,-0.41667 -0.242,-0.578v0v0c-0.16067,-0.16067 -0.353,-0.241 -0.577,-0.241v0h-9.849v-1.722h9.849v0c0.714,0 1.31933,0.24833 1.816,0.745v0v0c0.49733,0.49733 0.746,1.096 0.746,1.796v0zM78.783,307.431v0h8.127v-3.507h-8.946v2.688v0c0,0.224 0.08033,0.41633 0.241,0.577v0v0c0.16133,0.16133 0.354,0.242 0.578,0.242zM102.744,309.153h-12.411v-2.352l10.521,-8.106h-10.521v-1.722h12.411v2.352l-10.521,8.106h10.521zM116.835,309.153h-9.87v0c-0.7,0 -1.29867,-0.24867 -1.796,-0.746v0v0c-0.49667,-0.49667 -0.745,-1.095 -0.745,-1.795v0v-4.41h10.668v-2.688v0c0,-0.224 -0.08067,-0.41667 -0.242,-0.578v0v0c-0.16067,-0.16067 -0.353,-0.241 -0.577,-0.241v0h-9.849v-1.722h9.849v0c0.714,0 1.31933,0.24833 1.816,0.745v0v0c0.49733,0.49733 0.746,1.096 0.746,1.796v0zM106.965,307.431v0h8.127v-3.507h-8.946v2.688v0c0,0.224 0.08033,0.41633 0.241,0.577v0v0c0.16133,0.16133 0.354,0.242 0.578,0.242zM120.615,309.153h-1.722v-9.639v0c0,-0.7 0.24833,-1.29867 0.745,-1.796v0v0c0.49733,-0.49667 1.096,-0.745 1.796,-0.745v0h6.846v1.722h-6.846v0c-0.224,0 -0.41667,0.08033 -0.578,0.241v0v0c-0.16067,0.16133 -0.241,0.354 -0.241,0.578v0zM141.447,309.153h-9.849v0c-0.714,0 -1.31967,-0.24867 -1.817,-0.746v0v0c-0.49667,-0.49667 -0.745,-1.095 -0.745,-1.795v0v-7.098v0c0,-0.7 0.24833,-1.29867 0.745,-1.796v0v0c0.49733,-0.49667 1.103,-0.745 1.817,-0.745v0h8.127v-3.99h1.722zM131.598,307.431v0h7.308v0c0.224,0 0.41633,-0.08067 0.577,-0.242v0v0c0.16133,-0.16067 0.242,-0.353 0.242,-0.577v0v-7.098v0c0,-0.224 -0.08067,-0.41667 -0.242,-0.578v0v0c-0.16067,-0.16067 -0.353,-0.241 -0.577,-0.241v0h-7.308v0c-0.224,0 -0.41667,0.08033 -0.578,0.241v0v0c-0.16067,0.16133 -0.241,0.354 -0.241,0.578v0v7.098v0c0,0.224 0.08033,0.41633 0.241,0.577v0v0c0.16133,0.16133 0.354,0.242 0.578,0.242zM153.018,309.153h-7.308v0c-0.7,0 -1.29867,-0.24867 -1.796,-0.746v0v0c-0.49667,-0.49667 -0.745,-1.095 -0.745,-1.795v0v-7.098v0c0,-0.7 0.24833,-1.29867 0.745,-1.796v0v0c0.49733,-0.49667 1.096,-0.745 1.796,-0.745v0h7.308v0c0.714,0 1.31933,0.24833 1.816,0.745v0v0c0.49733,0.49733 0.746,1.096 0.746,1.796v0v7.098v0c0,0.7 -0.24867,1.29833 -0.746,1.795v0v0c-0.49667,0.49733 -1.102,0.746 -1.816,0.746zM145.71,307.431v0h7.308v0c0.224,0 0.41633,-0.08067 0.577,-0.242v0v0c0.16133,-0.16067 0.242,-0.353 0.242,-0.577v0v-7.098v0c0,-0.224 -0.08067,-0.41667 -0.242,-0.578v0v0c-0.16067,-0.16067 -0.353,-0.241 -0.577,-0.241v0h-7.308v0c-0.224,0 -0.41667,0.08033 -0.578,0.241v0v0c-0.16067,0.16133 -0.241,0.354 -0.241,0.578v0v7.098v0c0,0.224 0.08033,0.41633 0.241,0.577v0v0c0.16133,0.16133 0.354,0.242 0.578,0.242zM167.109,309.153h-7.308v0c-0.7,0 -1.29867,-0.24867 -1.796,-0.746v0v0c-0.49667,-0.49667 -0.745,-1.095 -0.745,-1.795v0v-9.639h1.722v9.639v0c0,0.224 0.08033,0.41633 0.241,0.577v0v0c0.16133,0.16133 0.354,0.242 0.578,0.242v0h7.308v0c0.224,0 0.42,-0.08067 0.588,-0.242v0v0c0.168,-0.16067 0.252,-0.353 0.252,-0.577v0v-9.639h1.722v9.639v0c0,0.7 -0.24867,1.29833 -0.746,1.795v0v0c-0.49667,0.49733 -1.102,0.746 -1.816,0.746zM181.284,309.153h-7.308v0c-0.7,0 -1.29867,-0.24867 -1.796,-0.746v0v0c-0.49667,-0.49667 -0.745,-1.095 -0.745,-1.795v0v-0.168h1.722v0.168v0c0,0.224 0.08033,0.41633 0.241,0.577v0v0c0.16133,0.16133 0.354,0.242 0.578,0.242v0h7.308v0c0.224,0 0.41633,-0.08067 0.577,-0.242v0v0c0.16133,-0.16067 0.242,-0.353 0.242,-0.577v0v-1.869v0c0,-0.224 -0.08067,-0.41667 -0.242,-0.578v0v0c-0.16067,-0.16067 -0.353,-0.241 -0.577,-0.241v0h-7.308v0c-0.7,0 -1.29867,-0.24867 -1.796,-0.746v0v0c-0.49667,-0.49667 -0.745,-1.095 -0.745,-1.795v0v-1.869v0c0,-0.7 0.24833,-1.29867 0.745,-1.796v0v0c0.49733,-0.49667 1.096,-0.745 1.796,-0.745v0h7.308v0c0.714,0 1.31933,0.24833 1.816,0.745v0v0c0.49733,0.49733 0.746,1.096 0.746,1.796v0v0.168h-1.743v-0.168v0c0,-0.224 -0.08067,-0.41667 -0.242,-0.578v0v0c-0.16067,-0.16067 -0.353,-0.241 -0.577,-0.241v0h-7.308v0c-0.224,0 -0.41667,0.08033 -0.578,0.241v0v0c-0.16067,0.16133 -0.241,0.354 -0.241,0.578v0v1.869v0c0,0.224 0.08033,0.41633 0.241,0.577v0v0c0.16133,0.16133 0.354,0.242 0.578,0.242v0h7.308v0c0.714,0 1.31933,0.24833 1.816,0.745v0v0c0.49733,0.49733 0.746,1.096 0.746,1.796v0v1.869v0c0,0.7 -0.24867,1.29833 -0.746,1.795v0v0c-0.49667,0.49733 -1.102,0.746 -1.816,0.746zM316.608,282.819h-2.058v0c-0.7,0 -1.29867,-0.24867 -1.796,-0.746v0v0c-0.49667,-0.49667 -0.745,-1.095 -0.745,-1.795v0v-13.629h1.722v13.629v0c0,0.224 0.08033,0.41633 0.241,0.577v0v0c0.16133,0.16133 0.354,0.242 0.578,0.242v0h2.058zM330.426,282.819h-9.87v0c-0.7,0 -1.29867,-0.24867 -1.796,-0.746v0v0c-0.49667,-0.49667 -0.745,-1.095 -0.745,-1.795v0v-7.098v0c0,-0.7 0.24833,-1.29867 0.745,-1.796v0v0c0.49733,-0.49667 1.096,-0.745 1.796,-0.745v0h7.308v0c0.714,0 1.31933,0.24833 1.816,0.745v0v0c0.49733,0.49733 0.746,1.096 0.746,1.796v0v4.41h-10.689v2.688v0c0,0.224 0.08033,0.41633 0.241,0.577v0v0c0.16133,0.16133 0.354,0.242 0.578,0.242v0h9.87zM319.737,273.18v2.688h8.946v-2.688v0c0,-0.224 -0.08067,-0.41667 -0.242,-0.578v0v0c-0.16067,-0.16067 -0.353,-0.241 -0.577,-0.241v0h-7.308v0c-0.224,0 -0.41667,0.08033 -0.578,0.241v0v0c-0.16067,0.16133 -0.241,0.354 -0.241,0.578zM344.979,282.819h-9.87v0c-0.7,0 -1.29867,-0.24867 -1.796,-0.746v0v0c-0.49667,-0.49667 -0.745,-1.095 -0.745,-1.795v0v-4.41h10.668v-2.688v0c0,-0.224 -0.08067,-0.41667 -0.242,-0.578v0v0c-0.16067,-0.16067 -0.353,-0.241 -0.577,-0.241v0h-9.849v-1.722h9.849v0c0.714,0 1.31933,0.24833 1.816,0.745v0v0c0.49733,0.49733 0.746,1.096 0.746,1.796v0zM335.109,281.097v0h8.127v-3.507h-8.946v2.688v0c0,0.224 0.08033,0.41633 0.241,0.577v0v0c0.16133,0.16133 0.354,0.242 0.578,0.242zM348.906,282.819h-1.722v-16.17h1.722v9.219h3.36l4.788,-5.229h2.268v0.021l-5.523,6.069l5.502,6.069v0.021h-2.247l-4.788,-5.229h-3.36zM275.532,282.819h-9.87v0c-0.7,0 -1.29867,-0.24867 -1.796,-0.746v0v0c-0.49667,-0.49667 -0.745,-1.095 -0.745,-1.795v0v-7.098v0c0,-0.7 0.24833,-1.29867 0.745,-1.796v0v0c0.49733,-0.49667 1.096,-0.745 1.796,-0.745v0h9.828v1.722h-9.828v0c-0.224,0 -0.41667,0.08033 -0.578,0.241v0v0c-0.16067,0.16133 -0.241,0.354 -0.241,0.578v0v7.098v0c0,0.224 0.08033,0.41633 0.241,0.577v0v0c0.16133,0.16133 0.354,0.242 0.578,0.242v0h9.87zM290.148,282.819h-9.87v0c-0.7,0 -1.29867,-0.24867 -1.796,-0.746v0v0c-0.49667,-0.49667 -0.745,-1.095 -0.745,-1.795v0v-4.41h10.668v-2.688v0c0,-0.224 -0.08067,-0.41667 -0.242,-0.578v0v0c-0.16067,-0.16067 -0.353,-0.241 -0.577,-0.241v0h-9.849v-1.722h9.849v0c0.714,0 1.31933,0.24833 1.816,0.745v0v0c0.49733,0.49733 0.746,1.096 0.746,1.796v0zM280.278,281.097v0h8.127v-3.507h-8.946v2.688v0c0,0.224 0.08033,0.41633 0.241,0.577v0v0c0.16133,0.16133 0.354,0.242 0.578,0.242zM293.76,282.819h-1.722v-12.18h9.87v0c0.7,0 1.29833,0.24833 1.795,0.745v0v0c0.49733,0.49733 0.746,1.096 0.746,1.796v0v9.639h-1.722v-9.639v0c0,-0.224 -0.08067,-0.41667 -0.242,-0.578v0v0c-0.16067,-0.16067 -0.353,-0.241 -0.577,-0.241v0h-7.308v0c-0.224,0 -0.42,0.08033 -0.588,0.241v0v0c-0.168,0.16133 -0.252,0.354 -0.252,0.578v0zM163.791,282.819h-9.87v0c-0.7,0 -1.29867,-0.24867 -1.796,-0.746v0v0c-0.49667,-0.49667 -0.745,-1.095 -0.745,-1.795v0v-7.098v0c0,-0.7 0.24833,-1.29867 0.745,-1.796v0v0c0.49733,-0.49667 1.096,-0.745 1.796,-0.745v0h9.828v1.722h-9.828v0c-0.224,0 -0.41667,0.08033 -0.578,0.241v0v0c-0.16067,0.16133 -0.241,0.354 -0.241,0.578v0v7.098v0c0,0.224 0.08033,0.41633 0.241,0.577v0v0c0.16133,0.16133 0.354,0.242 0.578,0.242v0h9.87zM175.824,282.819h-7.308v0c-0.7,0 -1.29867,-0.24867 -1.796,-0.746v0v0c-0.49667,-0.49667 -0.745,-1.095 -0.745,-1.795v0v-7.098v0c0,-0.7 0.24833,-1.29867 0.745,-1.796v0v0c0.49733,-0.49667 1.096,-0.745 1.796,-0.745v0h7.308v0c0.714,0 1.31933,0.24833 1.816,0.745v0v0c0.49733,0.49733 0.746,1.096 0.746,1.796v0v7.098v0c0,0.7 -0.24867,1.29833 -0.746,1.795v0v0c-0.49667,0.49733 -1.102,0.746 -1.816,0.746zM168.516,281.097v0h7.308v0c0.224,0 0.41633,-0.08067 0.577,-0.242v0v0c0.16133,-0.16067 0.242,-0.353 0.242,-0.577v0v-7.098v0c0,-0.224 -0.08067,-0.41667 -0.242,-0.578v0v0c-0.16067,-0.16067 -0.353,-0.241 -0.577,-0.241v0h-7.308v0c-0.224,0 -0.41667,0.08033 -0.578,0.241v0v0c-0.16067,0.16133 -0.241,0.354 -0.241,0.578v0v7.098v0c0,0.224 0.08033,0.41633 0.241,0.577v0v0c0.16133,0.16133 0.354,0.242 0.578,0.242zM181.977,282.819h-1.722v-12.18h9.87v0c0.7,0 1.29833,0.24833 1.795,0.745v0v0c0.49733,0.49733 0.746,1.096 0.746,1.796v0v9.639h-1.722v-9.639v0c0,-0.224 -0.08067,-0.41667 -0.242,-0.578v0v0c-0.16067,-0.16067 -0.353,-0.241 -0.577,-0.241v0h-7.308v0c-0.224,0 -0.42,0.08033 -0.588,0.241v0v0c-0.168,0.16133 -0.252,0.354 -0.252,0.578v0zM206.799,282.819h-9.87v0c-0.7,0 -1.29867,-0.24867 -1.796,-0.746v0v0c-0.49667,-0.49667 -0.745,-1.095 -0.745,-1.795v0v-7.098v0c0,-0.7 0.24833,-1.29867 0.745,-1.796v0v0c0.49733,-0.49667 1.096,-0.745 1.796,-0.745v0h9.828v1.722h-9.828v0c-0.224,0 -0.41667,0.08033 -0.578,0.241v0v0c-0.16067,0.16133 -0.241,0.354 -0.241,0.578v0v7.098v0c0,0.224 0.08033,0.41633 0.241,0.577v0v0c0.16133,0.16133 0.354,0.242 0.578,0.242v0h9.87zM210.726,282.819h-1.722v-9.639v0c0,-0.7 0.24833,-1.29867 0.745,-1.796v0v0c0.49733,-0.49667 1.096,-0.745 1.796,-0.745v0h6.846v1.722h-6.846v0c-0.224,0 -0.41667,0.08033 -0.578,0.241v0v0c-0.16067,0.16133 -0.241,0.354 -0.241,0.578v0zM232.146,282.819h-9.87v0c-0.7,0 -1.29867,-0.24867 -1.796,-0.746v0v0c-0.49667,-0.49667 -0.745,-1.095 -0.745,-1.795v0v-7.098v0c0,-0.7 0.24833,-1.29867 0.745,-1.796v0v0c0.49733,-0.49667 1.096,-0.745 1.796,-0.745v0h7.308v0c0.714,0 1.31933,0.24833 1.816,0.745v0v0c0.49733,0.49733 0.746,1.096 0.746,1.796v0v4.41h-10.689v2.688v0c0,0.224 0.08033,0.41633 0.241,0.577v0v0c0.16133,0.16133 0.354,0.242 0.578,0.242v0h9.87zM221.457,273.18v2.688h8.946v-2.688v0c0,-0.224 -0.08067,-0.41667 -0.242,-0.578v0v0c-0.16067,-0.16067 -0.353,-0.241 -0.577,-0.241v0h-7.308v0c-0.224,0 -0.41667,0.08033 -0.578,0.241v0v0c-0.16067,0.16133 -0.241,0.354 -0.241,0.578zM241.302,282.819h-4.452v0c-0.714,0 -1.316,-0.24867 -1.806,-0.746v0v0c-0.49,-0.49667 -0.735,-1.095 -0.735,-1.795v0v-13.629h1.722v3.99h5.271v1.722h-5.271v7.917v0c0,0.224 0.08033,0.41633 0.241,0.577v0v0c0.16133,0.16133 0.354,0.242 0.578,0.242v0h4.452zM255.288,282.819h-9.87v0c-0.7,0 -1.29867,-0.24867 -1.796,-0.746v0v0c-0.49667,-0.49667 -0.745,-1.095 -0.745,-1.795v0v-7.098v0c0,-0.7 0.24833,-1.29867 0.745,-1.796v0v0c0.49733,-0.49667 1.096,-0.745 1.796,-0.745v0h7.308v0c0.714,0 1.31933,0.24833 1.816,0.745v0v0c0.49733,0.49733 0.746,1.096 0.746,1.796v0v4.41h-10.689v2.688v0c0,0.224 0.08033,0.41633 0.241,0.577v0v0c0.16133,0.16133 0.354,0.242 0.578,0.242v0h9.87zM244.599,273.18v2.688h8.946v-2.688v0c0,-0.224 -0.08067,-0.41667 -0.242,-0.578v0v0c-0.16067,-0.16067 -0.353,-0.241 -0.577,-0.241v0h-7.308v0c-0.224,0 -0.41667,0.08033 -0.578,0.241v0v0c-0.16067,0.16133 -0.241,0.354 -0.241,0.578zM63.894,282.819h-1.701v-15.12h2.331l11.088,13.188v-13.188h1.701v15.12h-2.331l-11.088,-13.188zM89.409,282.819h-7.308v0c-0.7,0 -1.29867,-0.24867 -1.796,-0.746v0v0c-0.49667,-0.49667 -0.745,-1.095 -0.745,-1.795v0v-7.098v0c0,-0.7 0.24833,-1.29867 0.745,-1.796v0v0c0.49733,-0.49667 1.096,-0.745 1.796,-0.745v0h7.308v0c0.714,0 1.31933,0.24833 1.816,0.745v0v0c0.49733,0.49733 0.746,1.096 0.746,1.796v0v7.098v0c0,0.7 -0.24867,1.29833 -0.746,1.795v0v0c-0.49667,0.49733 -1.102,0.746 -1.816,0.746zM82.101,281.097v0h7.308v0c0.224,0 0.41633,-0.08067 0.577,-0.242v0v0c0.16133,-0.16067 0.242,-0.353 0.242,-0.577v0v-7.098v0c0,-0.224 -0.08067,-0.41667 -0.242,-0.578v0v0c-0.16067,-0.16067 -0.353,-0.241 -0.577,-0.241v0h-7.308v0c-0.224,0 -0.41667,0.08033 -0.578,0.241v0v0c-0.16067,0.16133 -0.241,0.354 -0.241,0.578v0v7.098v0c0,0.224 0.08033,0.41633 0.241,0.577v0v0c0.16133,0.16133 0.354,0.242 0.578,0.242zM95.625,282.819h-1.722v-9.639v0c0,-0.7 0.24833,-1.29867 0.745,-1.796v0v0c0.49733,-0.49667 1.096,-0.745 1.796,-0.745v0h6.846v1.722h-6.846v0c-0.224,0 -0.41667,0.08033 -0.578,0.241v0v0c-0.16067,0.16133 -0.241,0.354 -0.241,0.578v0zM106.44,282.819h-1.743v-12.18h16.086v0c0.714,0 1.316,0.24833 1.806,0.745v0v0c0.49,0.49733 0.735,1.096 0.735,1.796v0v9.639h-1.701v-9.639v0c0,-0.224 -0.084,-0.41667 -0.252,-0.578v0v0c-0.168,-0.16067 -0.364,-0.241 -0.588,-0.241v0h-5.061v0c-0.224,0 -0.41667,0.08033 -0.578,0.241v0v0c-0.16067,0.16133 -0.241,0.354 -0.241,0.578v0v9.639h-1.743v-9.639v0c0,-0.224 -0.08067,-0.41667 -0.242,-0.578v0v0c-0.16067,-0.16067 -0.353,-0.241 -0.577,-0.241v0h-5.082v0c-0.224,0 -0.41667,0.08033 -0.578,0.241v0v0c-0.16067,0.16133 -0.241,0.354 -0.241,0.578v0zM137.604,282.819h-9.87v0c-0.7,0 -1.29867,-0.24867 -1.796,-0.746v0v0c-0.49667,-0.49667 -0.745,-1.095 -0.745,-1.795v0v-4.41h10.668v-2.688v0c0,-0.224 -0.08067,-0.41667 -0.242,-0.578v0v0c-0.16067,-0.16067 -0.353,-0.241 -0.577,-0.241v0h-9.849v-1.722h9.849v0c0.714,0 1.31933,0.24833 1.816,0.745v0v0c0.49733,0.49733 0.746,1.096 0.746,1.796v0zM127.734,281.097v0h8.127v-3.507h-8.946v2.688v0c0,0.224 0.08033,0.41633 0.241,0.577v0v0c0.16133,0.16133 0.354,0.242 0.578,0.242zM144.156,282.819h-2.058v0c-0.7,0 -1.29867,-0.24867 -1.796,-0.746v0v0c-0.49667,-0.49667 -0.745,-1.095 -0.745,-1.795v0v-13.629h1.722v13.629v0c0,0.224 0.08033,0.41633 0.241,0.577v0v0c0.16133,0.16133 0.354,0.242 0.578,0.242v0h2.058z" fill="#ffffff" stroke="none" stroke-width="1" stroke-linecap="butt" stroke-miterlimit="10"/><path d="M332.835,213.487h-2.43v-21.6h19.71v2.43h-17.28v7.14h13.89v2.46h-13.89zM354.375,213.487h-2.46v-13.77v0c0,-1 0.355,-1.855 1.065,-2.565v0v0c0.71,-0.71 1.565,-1.065 2.565,-1.065v0h9.78v2.46h-9.78v0c-0.32,0 -0.595,0.115 -0.825,0.345v0v0c-0.23,0.23 -0.345,0.505 -0.345,0.825v0zM384.975,213.487h-14.1v0c-1,0 -1.855,-0.355 -2.565,-1.065v0v0c-0.71,-0.71 -1.065,-1.565 -1.065,-2.565v0v-10.14v0c0,-1 0.355,-1.855 1.065,-2.565v0v0c0.71,-0.71 1.565,-1.065 2.565,-1.065v0h10.44v0c1.02,0 1.885,0.355 2.595,1.065v0v0c0.71,0.71 1.065,1.565 1.065,2.565v0v6.3h-15.27v3.84v0c0,0.32 0.115,0.595 0.345,0.825v0v0c0.23,0.23 0.505,0.345 0.825,0.345v0h14.1zM369.705,199.717v3.84h12.78v-3.84v0c0,-0.32 -0.115,-0.595 -0.345,-0.825v0v0c-0.23,-0.23 -0.505,-0.345 -0.825,-0.345v0h-10.44v0c-0.32,0 -0.595,0.115 -0.825,0.345v0v0c-0.23,0.23 -0.345,0.505 -0.345,0.825zM405.285,213.487h-14.1v0c-1,0 -1.855,-0.355 -2.565,-1.065v0v0c-0.71,-0.71 -1.065,-1.565 -1.065,-2.565v0v-10.14v0c0,-1 0.355,-1.855 1.065,-2.565v0v0c0.71,-0.71 1.565,-1.065 2.565,-1.065v0h10.44v0c1.02,0 1.885,0.355 2.595,1.065v0v0c0.71,0.71 1.065,1.565 1.065,2.565v0v6.3h-15.27v3.84v0c0,0.32 0.115,0.595 0.345,0.825v0v0c0.23,0.23 0.505,0.345 0.825,0.345v0h14.1zM390.015,199.717v3.84h12.78v-3.84v0c0,-0.32 -0.115,-0.595 -0.345,-0.825v0v0c-0.23,-0.23 -0.505,-0.345 -0.825,-0.345v0h-10.44v0c-0.32,0 -0.595,0.115 -0.825,0.345v0v0c-0.23,0.23 -0.345,0.505 -0.345,0.825zM182.775,213.487h-2.43v-21.57h18v0c1,0 1.85,0.355 2.55,1.065v0v0c0.7,0.71 1.05,1.555 1.05,2.535v0v6.33v0c0,0.98 -0.35,1.825 -1.05,2.535v0v0c-0.7,0.71 -1.55,1.065 -2.55,1.065v0h-15.57zM183.945,202.987v0h14.4v0c0.32,0 0.595,-0.11 0.825,-0.33v0v0c0.23,-0.22 0.345,-0.49 0.345,-0.81v0v-6.33v0c0,-0.32 -0.115,-0.595 -0.345,-0.825v0v0c-0.23,-0.23 -0.505,-0.345 -0.825,-0.345v0h-14.4v0c-0.32,0 -0.595,0.115 -0.825,0.345v0v0c-0.23,0.23 -0.345,0.505 -0.345,0.825v0v6.33v0c0,0.32 0.115,0.59 0.345,0.81v0v0c0.23,0.22 0.505,0.33 0.825,0.33zM217.995,213.487h-10.44v0c-1,0 -1.855,-0.355 -2.565,-1.065v0v0c-0.71,-0.71 -1.065,-1.565 -1.065,-2.565v0v-10.14v0c0,-1 0.355,-1.855 1.065,-2.565v0v0c0.71,-0.71 1.565,-1.065 2.565,-1.065v0h10.44v0c1.02,0 1.885,0.355 2.595,1.065v0v0c0.71,0.71 1.065,1.565 1.065,2.565v0v10.14v0c0,1 -0.355,1.855 -1.065,2.565v0v0c-0.71,0.71 -1.575,1.065 -2.595,1.065zM207.555,211.027v0h10.44v0c0.32,0 0.595,-0.115 0.825,-0.345v0v0c0.23,-0.23 0.345,-0.505 0.345,-0.825v0v-10.14v0c0,-0.32 -0.115,-0.595 -0.345,-0.825v0v0c-0.23,-0.23 -0.505,-0.345 -0.825,-0.345v0h-10.44v0c-0.32,0 -0.595,0.115 -0.825,0.345v0v0c-0.23,0.23 -0.345,0.505 -0.345,0.825v0v10.14v0c0,0.32 0.115,0.595 0.345,0.825v0v0c0.23,0.23 0.505,0.345 0.825,0.345zM230.685,213.487h-2.94v0c-1,0 -1.855,-0.355 -2.565,-1.065v0v0c-0.71,-0.71 -1.065,-1.565 -1.065,-2.565v0v-19.47h2.46v19.47v0c0,0.32 0.115,0.595 0.345,0.825v0v0c0.23,0.23 0.505,0.345 0.825,0.345v0h2.94zM239.745,213.487h-2.94v0c-1,0 -1.855,-0.355 -2.565,-1.065v0v0c-0.71,-0.71 -1.065,-1.565 -1.065,-2.565v0v-19.47h2.46v19.47v0c0,0.32 0.115,0.595 0.345,0.825v0v0c0.23,0.23 0.505,0.345 0.825,0.345v0h2.94zM256.335,213.487h-10.44v0c-1,0 -1.855,-0.355 -2.565,-1.065v0v0c-0.71,-0.71 -1.065,-1.565 -1.065,-2.565v0v-13.77h2.46v13.77v0c0,0.32 0.115,0.595 0.345,0.825v0v0c0.23,0.23 0.505,0.345 0.825,0.345v0h10.44v0c0.32,0 0.6,-0.115 0.84,-0.345v0v0c0.24,-0.23 0.36,-0.505 0.36,-0.825v0v-13.77h2.46v13.77v0c0,1 -0.355,1.855 -1.065,2.565v0v0c-0.71,0.71 -1.575,1.065 -2.595,1.065zM272.655,213.487h-6.36v0c-1.02,0 -1.88,-0.355 -2.58,-1.065v0v0c-0.7,-0.71 -1.05,-1.565 -1.05,-2.565v0v-19.47h2.46v5.7h7.53v2.46h-7.53v11.31v0c0,0.32 0.115,0.595 0.345,0.825v0v0c0.23,0.23 0.505,0.345 0.825,0.345v0h6.36zM277.545,213.487h-2.46v-17.4h2.46zM277.545,192.847h-2.46v-2.46h2.46zM295.365,213.487h-10.44v0c-1,0 -1.855,-0.355 -2.565,-1.065v0v0c-0.71,-0.71 -1.065,-1.565 -1.065,-2.565v0v-10.14v0c0,-1 0.355,-1.855 1.065,-2.565v0v0c0.71,-0.71 1.565,-1.065 2.565,-1.065v0h10.44v0c1.02,0 1.885,0.355 2.595,1.065v0v0c0.71,0.71 1.065,1.565 1.065,2.565v0v10.14v0c0,1 -0.355,1.855 -1.065,2.565v0v0c-0.71,0.71 -1.575,1.065 -2.595,1.065zM284.925,211.027v0h10.44v0c0.32,0 0.595,-0.115 0.825,-0.345v0v0c0.23,-0.23 0.345,-0.505 0.345,-0.825v0v-10.14v0c0,-0.32 -0.115,-0.595 -0.345,-0.825v0v0c-0.23,-0.23 -0.505,-0.345 -0.825,-0.345v0h-10.44v0c-0.32,0 -0.595,0.115 -0.825,0.345v0v0c-0.23,0.23 -0.345,0.505 -0.345,0.825v0v10.14v0c0,0.32 0.115,0.595 0.345,0.825v0v0c0.23,0.23 0.505,0.345 0.825,0.345zM304.155,213.487h-2.46v-17.4h14.1v0c1,0 1.855,0.355 2.565,1.065v0v0c0.71,0.71 1.065,1.565 1.065,2.565v0v13.77h-2.46v-13.77v0c0,-0.32 -0.115,-0.595 -0.345,-0.825v0v0c-0.23,-0.23 -0.505,-0.345 -0.825,-0.345v0h-10.44v0c-0.32,0 -0.6,0.115 -0.84,0.345v0v0c-0.24,0.23 -0.36,0.505 -0.36,0.825v0z" fill="#ffffff" stroke="none" stroke-width="1" stroke-linecap="butt" stroke-miterlimit="10"/></g></g></svg>